%TF.GenerationSoftware,KiCad,Pcbnew,8.0.0*%
%TF.CreationDate,2024-03-16T18:57:55-07:00*%
%TF.ProjectId,expansionboardA,65787061-6e73-4696-9f6e-626f61726441,3*%
%TF.SameCoordinates,Original*%
%TF.FileFunction,Legend,Top*%
%TF.FilePolarity,Positive*%
%FSLAX46Y46*%
G04 Gerber Fmt 4.6, Leading zero omitted, Abs format (unit mm)*
G04 Created by KiCad (PCBNEW 8.0.0) date 2024-03-16 18:57:55*
%MOMM*%
%LPD*%
G01*
G04 APERTURE LIST*
%ADD10C,0.250000*%
%ADD11C,0.200000*%
%ADD12C,0.150000*%
%ADD13C,0.127000*%
%ADD14C,0.120000*%
G04 APERTURE END LIST*
D10*
G36*
X145156524Y-58873370D02*
G01*
X145214327Y-58877371D01*
X145268849Y-58889376D01*
X145320092Y-58909383D01*
X145368054Y-58937392D01*
X145412736Y-58973405D01*
X145426901Y-58987187D01*
X145465000Y-59031357D01*
X145495217Y-59078687D01*
X145517551Y-59129176D01*
X145532002Y-59182826D01*
X145538571Y-59239635D01*
X145539009Y-59259274D01*
X145539009Y-59394096D01*
X145536272Y-59442944D01*
X145525761Y-59498540D01*
X145507369Y-59550839D01*
X145481094Y-59599840D01*
X145446936Y-59645544D01*
X145426901Y-59667159D01*
X145383312Y-59705507D01*
X145336443Y-59735921D01*
X145286295Y-59758401D01*
X145232865Y-59772947D01*
X145176156Y-59779559D01*
X145156524Y-59780000D01*
X144991416Y-59780000D01*
X144946475Y-59761681D01*
X144928157Y-59716985D01*
X144946475Y-59672288D01*
X144991172Y-59653726D01*
X145156036Y-59653726D01*
X145207220Y-59648963D01*
X145254527Y-59634675D01*
X145297956Y-59610861D01*
X145337508Y-59577522D01*
X145370420Y-59537344D01*
X145393928Y-59493258D01*
X145408033Y-59445265D01*
X145412735Y-59393363D01*
X145412735Y-59258541D01*
X145408049Y-59207296D01*
X145393989Y-59159806D01*
X145370557Y-59116071D01*
X145337752Y-59076092D01*
X145298338Y-59042646D01*
X145255076Y-59018756D01*
X145207968Y-59004422D01*
X145157013Y-58999644D01*
X145054431Y-58999644D01*
X145054431Y-59504249D01*
X145035868Y-59549923D01*
X144991172Y-59568241D01*
X144946475Y-59549923D01*
X144928157Y-59504494D01*
X144928157Y-58937117D01*
X144946231Y-58892665D01*
X144991416Y-58873370D01*
X145156524Y-58873370D01*
G37*
G36*
X146264654Y-58880697D02*
G01*
X146312770Y-58876789D01*
X146349651Y-58908785D01*
X146353314Y-58956657D01*
X146097103Y-59737013D01*
X146095882Y-59737745D01*
X146096371Y-59740432D01*
X146090509Y-59748736D01*
X146082693Y-59761193D01*
X146076831Y-59765345D01*
X146058269Y-59769497D01*
X146056071Y-59777313D01*
X146037264Y-59780000D01*
X146018702Y-59777313D01*
X146014549Y-59777313D01*
X146016503Y-59769497D01*
X145998185Y-59765589D01*
X145991835Y-59760949D01*
X145984019Y-59748736D01*
X145978401Y-59740432D01*
X145979134Y-59737990D01*
X145977424Y-59737257D01*
X145721214Y-58956657D01*
X145725122Y-58908785D01*
X145761758Y-58876789D01*
X145809874Y-58880942D01*
X145841137Y-58918311D01*
X146036531Y-59513286D01*
X146232414Y-58918066D01*
X146264654Y-58880697D01*
G37*
G36*
X147065771Y-58999644D02*
G01*
X146898953Y-58999644D01*
X146898953Y-59653726D01*
X147065771Y-59653726D01*
X147111710Y-59670917D01*
X147112909Y-59672044D01*
X147132205Y-59716741D01*
X147113398Y-59761681D01*
X147067725Y-59780000D01*
X146618318Y-59780000D01*
X146572400Y-59761681D01*
X146553838Y-59716985D01*
X146571912Y-59672288D01*
X146616608Y-59653726D01*
X146772679Y-59653726D01*
X146772679Y-58999644D01*
X146616608Y-58999644D01*
X146571667Y-58980837D01*
X146553838Y-58936629D01*
X146572400Y-58892421D01*
X146618318Y-58873370D01*
X147067725Y-58873370D01*
X147113398Y-58892421D01*
X147132205Y-58936629D01*
X147112909Y-58980837D01*
X147067517Y-58999625D01*
X147065771Y-58999644D01*
G37*
G36*
X148709036Y-59653726D02*
G01*
X148754954Y-59672777D01*
X148773517Y-59717718D01*
X148754954Y-59761926D01*
X148709281Y-59780000D01*
X148196615Y-59780000D01*
X148150942Y-59761926D01*
X148132623Y-59717718D01*
X148150942Y-59672777D01*
X148196371Y-59653726D01*
X148413991Y-59653726D01*
X148413991Y-59093921D01*
X148294556Y-59213845D01*
X148248883Y-59232896D01*
X148204187Y-59213845D01*
X148185868Y-59168415D01*
X148203454Y-59124207D01*
X148431577Y-58895840D01*
X148436706Y-58892177D01*
X148441346Y-58894375D01*
X148451849Y-58881674D01*
X148500790Y-58881098D01*
X148502407Y-58881674D01*
X148515352Y-58891688D01*
X148519260Y-58893154D01*
X148517062Y-58899993D01*
X148523412Y-58896817D01*
X148525122Y-58899748D01*
X148535380Y-58916601D01*
X148540265Y-58940537D01*
X148540265Y-59653726D01*
X148709036Y-59653726D01*
G37*
G36*
X149339916Y-59587536D02*
G01*
X149368552Y-59629568D01*
X149375331Y-59669846D01*
X149365336Y-59717891D01*
X149339916Y-59752156D01*
X149303279Y-59778534D01*
X149258827Y-59787815D01*
X149212909Y-59778778D01*
X149176029Y-59752156D01*
X149147590Y-59710124D01*
X149140858Y-59669846D01*
X149150784Y-59621800D01*
X149176029Y-59587536D01*
X149217382Y-59559887D01*
X149258094Y-59553342D01*
X149306489Y-59562993D01*
X149339916Y-59587536D01*
G37*
G36*
X150166922Y-59224347D02*
G01*
X150185484Y-59268799D01*
X150166678Y-59314228D01*
X150049685Y-59429755D01*
X150003768Y-59448806D01*
X149958827Y-59429755D01*
X149940509Y-59384570D01*
X149959804Y-59340607D01*
X150076796Y-59223614D01*
X150121981Y-59206029D01*
X150166922Y-59224347D01*
G37*
G36*
X150119462Y-58870031D02*
G01*
X150172019Y-58883459D01*
X150220789Y-58905841D01*
X150265772Y-58937175D01*
X150289776Y-58959099D01*
X150326321Y-59001730D01*
X150353890Y-59047984D01*
X150372483Y-59097860D01*
X150382100Y-59151360D01*
X150383565Y-59183558D01*
X150383565Y-59469811D01*
X150379066Y-59525393D01*
X150365567Y-59577375D01*
X150343069Y-59625758D01*
X150311571Y-59670541D01*
X150289532Y-59694515D01*
X150246522Y-59730869D01*
X150199773Y-59758294D01*
X150149283Y-59776790D01*
X150095054Y-59786357D01*
X150062386Y-59787815D01*
X150006674Y-59783409D01*
X149954515Y-59770191D01*
X149905908Y-59748160D01*
X149860855Y-59717317D01*
X149836706Y-59695736D01*
X149800066Y-59653593D01*
X149772425Y-59607733D01*
X149753784Y-59558157D01*
X149744141Y-59504864D01*
X149742672Y-59472742D01*
X149742672Y-59472009D01*
X149742672Y-59469811D01*
X149742672Y-59467369D01*
X149868946Y-59467369D01*
X149875641Y-59519982D01*
X149895729Y-59566996D01*
X149925610Y-59604877D01*
X149967505Y-59637138D01*
X150014942Y-59656008D01*
X150062875Y-59661542D01*
X150115488Y-59654990D01*
X150162502Y-59635336D01*
X150200383Y-59606099D01*
X150232783Y-59565009D01*
X150251734Y-59517974D01*
X150257292Y-59470055D01*
X150257292Y-59183314D01*
X150250567Y-59131622D01*
X150230394Y-59085356D01*
X150200383Y-59048004D01*
X150158459Y-59016021D01*
X150110936Y-58997314D01*
X150062875Y-58991828D01*
X150010401Y-58998466D01*
X149963468Y-59018380D01*
X149925610Y-59048004D01*
X149893349Y-59089337D01*
X149874479Y-59136097D01*
X149868946Y-59183314D01*
X149868946Y-59467369D01*
X149742672Y-59467369D01*
X149742672Y-59183558D01*
X149747148Y-59127988D01*
X149760577Y-59076041D01*
X149782959Y-59027717D01*
X149814293Y-58983016D01*
X149836217Y-58959099D01*
X149879132Y-58922650D01*
X149925810Y-58895153D01*
X149976251Y-58876608D01*
X150030455Y-58867016D01*
X150063119Y-58865554D01*
X150119462Y-58870031D01*
G37*
D11*
G36*
X143962107Y-63524002D02*
G01*
X144008514Y-63543541D01*
X144028278Y-63589650D01*
X144028297Y-63591413D01*
X144028297Y-64102613D01*
X144023938Y-64157697D01*
X144010860Y-64209042D01*
X143989063Y-64256646D01*
X143958547Y-64300511D01*
X143937195Y-64323897D01*
X143895537Y-64359395D01*
X143850280Y-64386174D01*
X143801424Y-64404234D01*
X143748967Y-64413576D01*
X143717376Y-64415000D01*
X143667444Y-64411244D01*
X143614226Y-64398042D01*
X143564138Y-64375335D01*
X143532484Y-64354916D01*
X143506139Y-64312636D01*
X143505862Y-64310952D01*
X143517530Y-64262765D01*
X143518562Y-64261371D01*
X143560842Y-64235026D01*
X143562526Y-64234748D01*
X143610942Y-64246187D01*
X143612352Y-64247205D01*
X143655174Y-64271080D01*
X143706451Y-64281824D01*
X143717376Y-64282131D01*
X143769114Y-64274747D01*
X143815150Y-64252593D01*
X143842673Y-64229619D01*
X143872570Y-64190781D01*
X143891031Y-64142552D01*
X143895185Y-64102369D01*
X143895185Y-63656870D01*
X143681717Y-63656870D01*
X143634860Y-63638762D01*
X143633601Y-63637575D01*
X143613836Y-63592153D01*
X143613817Y-63590436D01*
X143632384Y-63544755D01*
X143633601Y-63543541D01*
X143679725Y-63524021D01*
X143681472Y-63524002D01*
X143962107Y-63524002D01*
G37*
G36*
X144895848Y-63782655D02*
G01*
X144890505Y-63836984D01*
X144874477Y-63886885D01*
X144847762Y-63932360D01*
X144810363Y-63973408D01*
X144847762Y-64013693D01*
X144874477Y-64058344D01*
X144890505Y-64107360D01*
X144895848Y-64160743D01*
X144891161Y-64211652D01*
X144877102Y-64258623D01*
X144853670Y-64301656D01*
X144820865Y-64340750D01*
X144781542Y-64373234D01*
X144738311Y-64396437D01*
X144691172Y-64410359D01*
X144640126Y-64415000D01*
X144329693Y-64415000D01*
X144283310Y-64396662D01*
X144282066Y-64395460D01*
X144262545Y-64350497D01*
X144262526Y-64348810D01*
X144280863Y-64303144D01*
X144282066Y-64301915D01*
X144327731Y-64282151D01*
X144329449Y-64282131D01*
X144639881Y-64282131D01*
X144689342Y-64271998D01*
X144726343Y-64246228D01*
X144754739Y-64204151D01*
X144762735Y-64160498D01*
X144752465Y-64111504D01*
X144726343Y-64075258D01*
X144683938Y-64047624D01*
X144639881Y-64039842D01*
X144573936Y-64039842D01*
X144527797Y-64021734D01*
X144526553Y-64020547D01*
X144507032Y-63975126D01*
X144507013Y-63973408D01*
X144525350Y-63927728D01*
X144526553Y-63926514D01*
X144572218Y-63906993D01*
X144573936Y-63906974D01*
X144639881Y-63906974D01*
X144689342Y-63896635D01*
X144726343Y-63870338D01*
X144754739Y-63827138D01*
X144762735Y-63781922D01*
X144752465Y-63731180D01*
X144726343Y-63693506D01*
X144683938Y-63664920D01*
X144639881Y-63656870D01*
X144329449Y-63656870D01*
X144283310Y-63638762D01*
X144282066Y-63637575D01*
X144262545Y-63592153D01*
X144262526Y-63590436D01*
X144280863Y-63544755D01*
X144282066Y-63543541D01*
X144327961Y-63524021D01*
X144329693Y-63524002D01*
X144640126Y-63524002D01*
X144691172Y-63528734D01*
X144738311Y-63542930D01*
X144781542Y-63566591D01*
X144820865Y-63599717D01*
X144853670Y-63639452D01*
X144877102Y-63683187D01*
X144891161Y-63730921D01*
X144895848Y-63782655D01*
G37*
D12*
G36*
X150732624Y-108824002D02*
G01*
X150770970Y-108840854D01*
X150787090Y-108879933D01*
X150787090Y-109402613D01*
X150782731Y-109457792D01*
X150769652Y-109509209D01*
X150747855Y-109556862D01*
X150717340Y-109600751D01*
X150695987Y-109624141D01*
X150654414Y-109659544D01*
X150609193Y-109686251D01*
X150560327Y-109704263D01*
X150507814Y-109713580D01*
X150476169Y-109715000D01*
X150421886Y-109710542D01*
X150370900Y-109697170D01*
X150323212Y-109674883D01*
X150278821Y-109643681D01*
X150258548Y-109605823D01*
X150271738Y-109565279D01*
X150309595Y-109545006D01*
X150350139Y-109558196D01*
X150393508Y-109586325D01*
X150441547Y-109601472D01*
X150476169Y-109604357D01*
X150525451Y-109598609D01*
X150574318Y-109579008D01*
X150613883Y-109549116D01*
X150617585Y-109545495D01*
X150648626Y-109506096D01*
X150669493Y-109457083D01*
X150676390Y-109407366D01*
X150676448Y-109402124D01*
X150676448Y-108934644D01*
X150427320Y-108934644D01*
X150388241Y-108918035D01*
X150371633Y-108879445D01*
X150388241Y-108840610D01*
X150427320Y-108824002D01*
X150732624Y-108824002D01*
G37*
G36*
X151581123Y-109604357D02*
G01*
X151621424Y-109620966D01*
X151637788Y-109660533D01*
X151621668Y-109699124D01*
X151581368Y-109715000D01*
X151068702Y-109715000D01*
X151028646Y-109699124D01*
X151012526Y-109660533D01*
X151028646Y-109620966D01*
X151068458Y-109604357D01*
X151293894Y-109604357D01*
X151293894Y-109017930D01*
X151161026Y-109151043D01*
X151120970Y-109167896D01*
X151081891Y-109151043D01*
X151065771Y-109111231D01*
X151081158Y-109072641D01*
X151309281Y-108844274D01*
X151311968Y-108842076D01*
X151314899Y-108841343D01*
X151327599Y-108831573D01*
X151370830Y-108831573D01*
X151383531Y-108841343D01*
X151385485Y-108842076D01*
X151387683Y-108844274D01*
X151389881Y-108845739D01*
X151390614Y-108846960D01*
X151400384Y-108862348D01*
X151404536Y-108883353D01*
X151404536Y-109604357D01*
X151581123Y-109604357D01*
G37*
D11*
G36*
X50819190Y-121443541D02*
G01*
X50864398Y-121424021D01*
X50866085Y-121424002D01*
X50911751Y-121442339D01*
X50912980Y-121443541D01*
X50932744Y-121489421D01*
X50932763Y-121491168D01*
X50932763Y-122011650D01*
X50928392Y-122065996D01*
X50915279Y-122116837D01*
X50893424Y-122164170D01*
X50862826Y-122207998D01*
X50841417Y-122231468D01*
X50799606Y-122267062D01*
X50754102Y-122293913D01*
X50704904Y-122312021D01*
X50652014Y-122321388D01*
X50620133Y-122322815D01*
X50565132Y-122318444D01*
X50513824Y-122305331D01*
X50466209Y-122283475D01*
X50422288Y-122252878D01*
X50398848Y-122231468D01*
X50363255Y-122189644D01*
X50336404Y-122144314D01*
X50318296Y-122095477D01*
X50308929Y-122043134D01*
X50307502Y-122011650D01*
X50307502Y-121491168D01*
X50325839Y-121444771D01*
X50327041Y-121443541D01*
X50372234Y-121424021D01*
X50373936Y-121424002D01*
X50419846Y-121442339D01*
X50421075Y-121443541D01*
X50440595Y-121489421D01*
X50440614Y-121491168D01*
X50440614Y-122011406D01*
X50448033Y-122063853D01*
X50470290Y-122110187D01*
X50493370Y-122137679D01*
X50532151Y-122167437D01*
X50580185Y-122185813D01*
X50620133Y-122189947D01*
X50672649Y-122182597D01*
X50719188Y-122160546D01*
X50746895Y-122137679D01*
X50779043Y-122095421D01*
X50796354Y-122047050D01*
X50799651Y-122011406D01*
X50799651Y-121491168D01*
X50817988Y-121444771D01*
X50819190Y-121443541D01*
G37*
G36*
X51737788Y-121761057D02*
G01*
X51718004Y-121806730D01*
X51341382Y-122182131D01*
X51670377Y-122182131D01*
X51716760Y-122200698D01*
X51718004Y-122201915D01*
X51737768Y-122247108D01*
X51737788Y-122248810D01*
X51719221Y-122294231D01*
X51718004Y-122295460D01*
X51672353Y-122314980D01*
X51670621Y-122315000D01*
X51181891Y-122315000D01*
X51144033Y-122303764D01*
X51120342Y-122274455D01*
X51118073Y-122224261D01*
X51134264Y-122201915D01*
X51604675Y-121731992D01*
X51604675Y-121697065D01*
X51596167Y-121646716D01*
X51570642Y-121603379D01*
X51560223Y-121592285D01*
X51518175Y-121562732D01*
X51469395Y-121549729D01*
X51454222Y-121549054D01*
X51414654Y-121549054D01*
X51364852Y-121555923D01*
X51317566Y-121578869D01*
X51294976Y-121597903D01*
X51264911Y-121637287D01*
X51247999Y-121686154D01*
X51245638Y-121715139D01*
X51227301Y-121761537D01*
X51226099Y-121762766D01*
X51180677Y-121782287D01*
X51178960Y-121782306D01*
X51133294Y-121764198D01*
X51132066Y-121763011D01*
X51112545Y-121717130D01*
X51112526Y-121715383D01*
X51116757Y-121662937D01*
X51129449Y-121613950D01*
X51150604Y-121568423D01*
X51180220Y-121526355D01*
X51200942Y-121503869D01*
X51241461Y-121469703D01*
X51285439Y-121443929D01*
X51332876Y-121426547D01*
X51383773Y-121417556D01*
X51414410Y-121416186D01*
X51453978Y-121416186D01*
X51503906Y-121420160D01*
X51556846Y-121434432D01*
X51605389Y-121459086D01*
X51644258Y-121489172D01*
X51654745Y-121499228D01*
X51687103Y-121537126D01*
X51714351Y-121584272D01*
X51731219Y-121635510D01*
X51737707Y-121690838D01*
X51737788Y-121698042D01*
X51737788Y-121761057D01*
G37*
G36*
X112369190Y-121443541D02*
G01*
X112414398Y-121424021D01*
X112416085Y-121424002D01*
X112461751Y-121442339D01*
X112462980Y-121443541D01*
X112482744Y-121489421D01*
X112482763Y-121491168D01*
X112482763Y-122011650D01*
X112478392Y-122065996D01*
X112465279Y-122116837D01*
X112443424Y-122164170D01*
X112412826Y-122207998D01*
X112391417Y-122231468D01*
X112349606Y-122267062D01*
X112304102Y-122293913D01*
X112254904Y-122312021D01*
X112202014Y-122321388D01*
X112170133Y-122322815D01*
X112115132Y-122318444D01*
X112063824Y-122305331D01*
X112016209Y-122283475D01*
X111972288Y-122252878D01*
X111948848Y-122231468D01*
X111913255Y-122189644D01*
X111886404Y-122144314D01*
X111868296Y-122095477D01*
X111858929Y-122043134D01*
X111857502Y-122011650D01*
X111857502Y-121491168D01*
X111875839Y-121444771D01*
X111877041Y-121443541D01*
X111922234Y-121424021D01*
X111923936Y-121424002D01*
X111969846Y-121442339D01*
X111971075Y-121443541D01*
X111990595Y-121489421D01*
X111990614Y-121491168D01*
X111990614Y-122011406D01*
X111998033Y-122063853D01*
X112020290Y-122110187D01*
X112043370Y-122137679D01*
X112082151Y-122167437D01*
X112130185Y-122185813D01*
X112170133Y-122189947D01*
X112222649Y-122182597D01*
X112269188Y-122160546D01*
X112296895Y-122137679D01*
X112329043Y-122095421D01*
X112346354Y-122047050D01*
X112349651Y-122011406D01*
X112349651Y-121491168D01*
X112367988Y-121444771D01*
X112369190Y-121443541D01*
G37*
G36*
X113197906Y-121443785D02*
G01*
X113217671Y-121489895D01*
X113217690Y-121491657D01*
X113217690Y-121939842D01*
X113264673Y-121957016D01*
X113267271Y-121959382D01*
X113287768Y-122004574D01*
X113287788Y-122006277D01*
X113268534Y-122051942D01*
X113267271Y-122053171D01*
X113221290Y-122072634D01*
X113217690Y-122072711D01*
X113217690Y-122248321D01*
X113199124Y-122294475D01*
X113197906Y-122295704D01*
X113152714Y-122314981D01*
X113151012Y-122315000D01*
X113105346Y-122296891D01*
X113104117Y-122295704D01*
X113084597Y-122250053D01*
X113084578Y-122248321D01*
X113084578Y-122072711D01*
X112728960Y-122072711D01*
X112705269Y-122068558D01*
X112698186Y-122064162D01*
X112694522Y-122062941D01*
X112689881Y-122060010D01*
X112688416Y-122058545D01*
X112685485Y-122055614D01*
X112677181Y-122045844D01*
X112670098Y-122036074D01*
X112665945Y-122024595D01*
X112663259Y-122010673D01*
X112662526Y-122008719D01*
X112661793Y-122005788D01*
X112662526Y-122002124D01*
X112663259Y-121999193D01*
X112665213Y-121986004D01*
X112671563Y-121972327D01*
X112672296Y-121970373D01*
X112674494Y-121966953D01*
X112693526Y-121939842D01*
X112857676Y-121939842D01*
X113084578Y-121939842D01*
X113084578Y-121617686D01*
X112857676Y-121939842D01*
X112693526Y-121939842D01*
X113036950Y-121450624D01*
X113039637Y-121449403D01*
X113041103Y-121447937D01*
X113051605Y-121438900D01*
X113061375Y-121431817D01*
X113073343Y-121426688D01*
X113086043Y-121424002D01*
X113088730Y-121424002D01*
X113091661Y-121424002D01*
X113151745Y-121424002D01*
X113197906Y-121443785D01*
G37*
D13*
%TO.C,J3*%
X142350000Y-78320000D02*
X142350000Y-62360000D01*
X144920000Y-61190000D02*
X148460000Y-61190000D01*
X144920000Y-79490000D02*
X148460000Y-79490000D01*
D11*
X145020000Y-81210000D02*
G75*
G02*
X144820000Y-81210000I-100000J0D01*
G01*
X144820000Y-81210000D02*
G75*
G02*
X145020000Y-81210000I100000J0D01*
G01*
%TO.C,J1*%
X149250000Y-106555000D02*
X149930000Y-106555000D01*
X149250000Y-115495000D02*
X149930000Y-115495000D01*
X152490000Y-115495000D02*
X152840000Y-115495000D01*
X152840000Y-106555000D02*
X152490000Y-106555000D01*
X152840000Y-115495000D02*
X152840000Y-106555000D01*
X145500000Y-114000000D02*
G75*
G02*
X145300000Y-114000000I-100000J0D01*
G01*
X145300000Y-114000000D02*
G75*
G02*
X145500000Y-114000000I100000J0D01*
G01*
D14*
%TO.C,U2*%
X44370000Y-120620000D02*
X44370000Y-41820000D01*
X44370000Y-123220000D02*
X44370000Y-121890000D01*
X45700000Y-123220000D02*
X44370000Y-123220000D01*
X46970000Y-120620000D02*
X44370000Y-120620000D01*
X46970000Y-123220000D02*
X46970000Y-120620000D01*
X49570000Y-41820000D02*
X44370000Y-41820000D01*
X49570000Y-123220000D02*
X46970000Y-123220000D01*
X49570000Y-123220000D02*
X49570000Y-41820000D01*
%TO.C,U4*%
X105350000Y-41850000D02*
X105350000Y-102920000D01*
X105350000Y-105420000D02*
X105350000Y-123250000D01*
X107950000Y-120650000D02*
X107950000Y-123250000D01*
X107950000Y-123250000D02*
X105350000Y-123250000D01*
X110550000Y-41850000D02*
X105350000Y-41850000D01*
X110550000Y-41850000D02*
X110550000Y-102920000D01*
X110550000Y-102920000D02*
X105350000Y-102920000D01*
X110550000Y-105420000D02*
X105350000Y-105420000D01*
X110550000Y-105420000D02*
X110550000Y-120650000D01*
X110550000Y-120650000D02*
X107950000Y-120650000D01*
X110550000Y-121920000D02*
X110550000Y-123250000D01*
X110550000Y-123250000D02*
X109220000Y-123250000D01*
%TD*%
M02*
