%TF.GenerationSoftware,KiCad,Pcbnew,8.0.7*%
%TF.CreationDate,2024-12-29T04:31:54-08:00*%
%TF.ProjectId,expansionboardA,65787061-6e73-4696-9f6e-626f61726441,3*%
%TF.SameCoordinates,Original*%
%TF.FileFunction,Legend,Top*%
%TF.FilePolarity,Positive*%
%FSLAX46Y46*%
G04 Gerber Fmt 4.6, Leading zero omitted, Abs format (unit mm)*
G04 Created by KiCad (PCBNEW 8.0.7) date 2024-12-29 04:31:54*
%MOMM*%
%LPD*%
G01*
G04 APERTURE LIST*
%ADD10C,0.250000*%
%ADD11C,0.150000*%
%ADD12C,0.200000*%
%ADD13C,0.125000*%
%ADD14C,0.127000*%
%ADD15C,0.120000*%
G04 APERTURE END LIST*
D10*
G36*
X148423370Y-87388032D02*
G01*
X148426762Y-87338756D01*
X148439292Y-87284740D01*
X148461056Y-87234464D01*
X148492053Y-87187928D01*
X148519846Y-87156978D01*
X148557332Y-87124357D01*
X148604605Y-87094830D01*
X148655687Y-87074489D01*
X148710579Y-87063334D01*
X148752121Y-87060990D01*
X148801746Y-87064365D01*
X148856126Y-87076832D01*
X148906719Y-87098486D01*
X148953525Y-87129325D01*
X148984640Y-87156978D01*
X149017427Y-87194264D01*
X149047105Y-87241259D01*
X149067549Y-87292017D01*
X149078761Y-87346539D01*
X149081116Y-87387787D01*
X149081116Y-87398534D01*
X149062798Y-87443719D01*
X149017857Y-87462037D01*
X148973161Y-87443963D01*
X148954842Y-87398778D01*
X148954842Y-87388032D01*
X148949023Y-87338725D01*
X148929177Y-87289777D01*
X148898914Y-87250088D01*
X148895247Y-87246371D01*
X148855486Y-87215201D01*
X148806294Y-87194248D01*
X148756616Y-87187322D01*
X148751388Y-87187264D01*
X148701333Y-87193036D01*
X148651947Y-87212719D01*
X148612210Y-87242734D01*
X148608506Y-87246371D01*
X148577465Y-87285602D01*
X148556599Y-87334046D01*
X148549701Y-87382895D01*
X148549644Y-87388032D01*
X148549644Y-87545568D01*
X149266008Y-87545568D01*
X149311681Y-87564131D01*
X149330000Y-87608827D01*
X149311681Y-87653524D01*
X149266252Y-87671842D01*
X148487117Y-87671842D01*
X148442665Y-87653768D01*
X148423370Y-87608583D01*
X148423370Y-87388032D01*
G37*
G36*
X149075393Y-86244811D02*
G01*
X149127375Y-86258240D01*
X149175758Y-86280621D01*
X149220541Y-86311955D01*
X149244515Y-86333879D01*
X149280869Y-86376617D01*
X149308294Y-86422978D01*
X149326790Y-86472961D01*
X149336357Y-86526568D01*
X149337815Y-86558827D01*
X149337815Y-86559560D01*
X149337815Y-86560781D01*
X149337815Y-86562247D01*
X149337815Y-86564445D01*
X149337815Y-86574214D01*
X149337815Y-86576168D01*
X149337815Y-86577634D01*
X149337815Y-86579099D01*
X149337815Y-86579832D01*
X149333351Y-86635414D01*
X149319957Y-86687396D01*
X149297634Y-86735779D01*
X149266382Y-86780561D01*
X149244515Y-86804535D01*
X149201789Y-86840985D01*
X149155463Y-86868482D01*
X149105538Y-86887027D01*
X149052013Y-86896619D01*
X149019811Y-86898080D01*
X148733558Y-86898080D01*
X148677988Y-86893604D01*
X148626041Y-86880175D01*
X148577717Y-86857794D01*
X148533016Y-86826460D01*
X148509099Y-86804535D01*
X148472650Y-86761810D01*
X148445153Y-86715484D01*
X148426608Y-86665559D01*
X148417016Y-86612034D01*
X148415554Y-86579832D01*
X148415554Y-86579099D01*
X148415554Y-86577634D01*
X148415554Y-86576168D01*
X148415554Y-86574214D01*
X148415554Y-86564445D01*
X148415554Y-86562247D01*
X148415554Y-86560781D01*
X148415554Y-86559560D01*
X148415554Y-86558827D01*
X148541828Y-86558827D01*
X148541828Y-86559560D01*
X148541828Y-86560781D01*
X148541828Y-86562247D01*
X148541828Y-86564445D01*
X148541828Y-86574214D01*
X148541828Y-86576168D01*
X148541828Y-86577634D01*
X148541828Y-86579099D01*
X148541828Y-86579832D01*
X148548466Y-86632440D01*
X148568380Y-86679102D01*
X148598004Y-86716364D01*
X148639337Y-86747930D01*
X148686097Y-86766393D01*
X148733314Y-86771807D01*
X149020055Y-86771807D01*
X149072495Y-86765256D01*
X149118990Y-86745601D01*
X149156099Y-86716364D01*
X149187664Y-86675106D01*
X149206127Y-86627903D01*
X149211542Y-86579832D01*
X149211542Y-86579099D01*
X149211542Y-86577634D01*
X149211542Y-86576168D01*
X149211542Y-86574214D01*
X149211542Y-86564445D01*
X149211542Y-86562247D01*
X149211542Y-86560781D01*
X149211542Y-86559560D01*
X149211542Y-86558827D01*
X149204990Y-86506219D01*
X149185336Y-86459557D01*
X149156099Y-86422295D01*
X149115009Y-86390591D01*
X149067974Y-86372046D01*
X149020055Y-86366608D01*
X148733314Y-86366608D01*
X148681622Y-86373188D01*
X148635356Y-86392929D01*
X148598004Y-86422295D01*
X148566021Y-86463553D01*
X148547314Y-86510756D01*
X148541828Y-86558827D01*
X148415554Y-86558827D01*
X148420031Y-86503150D01*
X148433459Y-86451096D01*
X148455841Y-86402665D01*
X148487175Y-86357857D01*
X148509099Y-86333879D01*
X148551730Y-86297430D01*
X148597984Y-86269933D01*
X148647860Y-86251388D01*
X148701360Y-86241796D01*
X148733558Y-86240334D01*
X149019811Y-86240334D01*
X149075393Y-86244811D01*
G37*
G36*
X148442665Y-85558897D02*
G01*
X148423370Y-85514200D01*
X148442665Y-85469260D01*
X148487117Y-85450942D01*
X149138757Y-85450942D01*
X149190200Y-85457464D01*
X149236391Y-85477032D01*
X149273824Y-85506140D01*
X149305807Y-85546687D01*
X149324514Y-85592429D01*
X149330000Y-85638520D01*
X149324256Y-85687712D01*
X149304890Y-85734463D01*
X149281395Y-85764794D01*
X149311013Y-85805243D01*
X149326962Y-85853316D01*
X149330000Y-85889602D01*
X149323362Y-85940205D01*
X149303448Y-85985556D01*
X149273824Y-86022226D01*
X149232409Y-86053652D01*
X149185741Y-86072034D01*
X149138757Y-86077424D01*
X148487117Y-86077424D01*
X148442665Y-86059106D01*
X148423370Y-86014410D01*
X148442665Y-85969469D01*
X148487117Y-85951151D01*
X149138757Y-85951151D01*
X149184431Y-85932588D01*
X149203726Y-85889357D01*
X149184431Y-85846127D01*
X149138757Y-85827320D01*
X148743572Y-85827320D01*
X148698143Y-85809002D01*
X148679581Y-85764305D01*
X148698143Y-85719609D01*
X148743817Y-85701046D01*
X149139979Y-85701046D01*
X149184919Y-85683217D01*
X149203726Y-85639741D01*
X149185163Y-85595778D01*
X149139979Y-85577215D01*
X148487117Y-85577215D01*
X148442665Y-85558897D01*
G37*
G36*
X148549644Y-85036950D02*
G01*
X148562689Y-85085142D01*
X148577243Y-85103384D01*
X148619705Y-85127847D01*
X148642212Y-85130495D01*
X148814159Y-85130495D01*
X148814159Y-84946336D01*
X148833210Y-84900418D01*
X148878150Y-84881612D01*
X148922358Y-84900418D01*
X148940432Y-84946336D01*
X148940432Y-85130495D01*
X149110669Y-85130495D01*
X149158526Y-85117681D01*
X149176615Y-85103384D01*
X149201078Y-85060229D01*
X149203726Y-85036950D01*
X149203726Y-84718946D01*
X149222288Y-84673517D01*
X149266985Y-84654954D01*
X149311681Y-84673517D01*
X149330000Y-84718946D01*
X149330000Y-85036461D01*
X149324899Y-85085936D01*
X149307268Y-85135786D01*
X149277043Y-85180246D01*
X149265519Y-85192533D01*
X149227103Y-85223584D01*
X149179704Y-85246167D01*
X149127345Y-85256204D01*
X149110669Y-85256769D01*
X148642700Y-85256769D01*
X148594033Y-85251687D01*
X148544717Y-85234123D01*
X148500410Y-85204012D01*
X148488094Y-85192533D01*
X148456807Y-85154217D01*
X148434052Y-85106523D01*
X148423939Y-85053438D01*
X148423370Y-85036461D01*
X148423370Y-84718946D01*
X148442421Y-84673272D01*
X148486629Y-84654954D01*
X148530837Y-84673272D01*
X148549644Y-84718946D01*
X148549644Y-85036950D01*
G37*
G36*
X148924312Y-84039951D02*
G01*
X149231081Y-83838206D01*
X149279197Y-83829413D01*
X149319009Y-83857013D01*
X149330000Y-83892184D01*
X149311135Y-83937603D01*
X149301423Y-83945429D01*
X148910879Y-84200174D01*
X148862061Y-84209241D01*
X148845422Y-84202616D01*
X148813823Y-84163873D01*
X148811716Y-84145952D01*
X148811716Y-84130565D01*
X148802130Y-84080312D01*
X148773370Y-84037997D01*
X148731055Y-84009237D01*
X148680802Y-83999651D01*
X148630366Y-84009481D01*
X148587990Y-84038974D01*
X148559230Y-84082144D01*
X148549644Y-84133496D01*
X148549644Y-84325471D01*
X149266008Y-84325471D01*
X149311681Y-84344033D01*
X149330000Y-84388729D01*
X149311681Y-84433426D01*
X149266252Y-84451744D01*
X148487117Y-84451744D01*
X148442665Y-84433182D01*
X148423370Y-84387264D01*
X148423370Y-84133496D01*
X148428118Y-84082006D01*
X148442360Y-84034272D01*
X148466097Y-83990293D01*
X148499330Y-83950069D01*
X148539141Y-83916516D01*
X148582861Y-83892550D01*
X148630488Y-83878170D01*
X148682023Y-83873377D01*
X148732727Y-83878171D01*
X148780426Y-83892554D01*
X148825120Y-83916525D01*
X148833698Y-83922470D01*
X148871723Y-83955037D01*
X148903357Y-83995214D01*
X148924312Y-84039951D01*
G37*
D11*
X31849819Y-87508333D02*
X32564104Y-87508333D01*
X32564104Y-87508333D02*
X32706961Y-87555952D01*
X32706961Y-87555952D02*
X32802200Y-87651190D01*
X32802200Y-87651190D02*
X32849819Y-87794047D01*
X32849819Y-87794047D02*
X32849819Y-87889285D01*
X32849819Y-86508333D02*
X32849819Y-87079761D01*
X32849819Y-86794047D02*
X31849819Y-86794047D01*
X31849819Y-86794047D02*
X31992676Y-86889285D01*
X31992676Y-86889285D02*
X32087914Y-86984523D01*
X32087914Y-86984523D02*
X32135533Y-87079761D01*
D12*
G36*
X143962107Y-63524002D02*
G01*
X144008514Y-63543541D01*
X144028278Y-63589650D01*
X144028297Y-63591413D01*
X144028297Y-64102613D01*
X144023938Y-64157697D01*
X144010860Y-64209042D01*
X143989063Y-64256646D01*
X143958547Y-64300511D01*
X143937195Y-64323897D01*
X143895537Y-64359395D01*
X143850280Y-64386174D01*
X143801424Y-64404234D01*
X143748967Y-64413576D01*
X143717376Y-64415000D01*
X143667444Y-64411244D01*
X143614226Y-64398042D01*
X143564138Y-64375335D01*
X143532484Y-64354916D01*
X143506139Y-64312636D01*
X143505862Y-64310952D01*
X143517530Y-64262765D01*
X143518562Y-64261371D01*
X143560842Y-64235026D01*
X143562526Y-64234748D01*
X143610942Y-64246187D01*
X143612352Y-64247205D01*
X143655174Y-64271080D01*
X143706451Y-64281824D01*
X143717376Y-64282131D01*
X143769114Y-64274747D01*
X143815150Y-64252593D01*
X143842673Y-64229619D01*
X143872570Y-64190781D01*
X143891031Y-64142552D01*
X143895185Y-64102369D01*
X143895185Y-63656870D01*
X143681717Y-63656870D01*
X143634860Y-63638762D01*
X143633601Y-63637575D01*
X143613836Y-63592153D01*
X143613817Y-63590436D01*
X143632384Y-63544755D01*
X143633601Y-63543541D01*
X143679725Y-63524021D01*
X143681472Y-63524002D01*
X143962107Y-63524002D01*
G37*
G36*
X144895848Y-63782655D02*
G01*
X144890505Y-63836984D01*
X144874477Y-63886885D01*
X144847762Y-63932360D01*
X144810363Y-63973408D01*
X144847762Y-64013693D01*
X144874477Y-64058344D01*
X144890505Y-64107360D01*
X144895848Y-64160743D01*
X144891161Y-64211652D01*
X144877102Y-64258623D01*
X144853670Y-64301656D01*
X144820865Y-64340750D01*
X144781542Y-64373234D01*
X144738311Y-64396437D01*
X144691172Y-64410359D01*
X144640126Y-64415000D01*
X144329693Y-64415000D01*
X144283310Y-64396662D01*
X144282066Y-64395460D01*
X144262545Y-64350497D01*
X144262526Y-64348810D01*
X144280863Y-64303144D01*
X144282066Y-64301915D01*
X144327731Y-64282151D01*
X144329449Y-64282131D01*
X144639881Y-64282131D01*
X144689342Y-64271998D01*
X144726343Y-64246228D01*
X144754739Y-64204151D01*
X144762735Y-64160498D01*
X144752465Y-64111504D01*
X144726343Y-64075258D01*
X144683938Y-64047624D01*
X144639881Y-64039842D01*
X144573936Y-64039842D01*
X144527797Y-64021734D01*
X144526553Y-64020547D01*
X144507032Y-63975126D01*
X144507013Y-63973408D01*
X144525350Y-63927728D01*
X144526553Y-63926514D01*
X144572218Y-63906993D01*
X144573936Y-63906974D01*
X144639881Y-63906974D01*
X144689342Y-63896635D01*
X144726343Y-63870338D01*
X144754739Y-63827138D01*
X144762735Y-63781922D01*
X144752465Y-63731180D01*
X144726343Y-63693506D01*
X144683938Y-63664920D01*
X144639881Y-63656870D01*
X144329449Y-63656870D01*
X144283310Y-63638762D01*
X144282066Y-63637575D01*
X144262545Y-63592153D01*
X144262526Y-63590436D01*
X144280863Y-63544755D01*
X144282066Y-63543541D01*
X144327961Y-63524021D01*
X144329693Y-63524002D01*
X144640126Y-63524002D01*
X144691172Y-63528734D01*
X144738311Y-63542930D01*
X144781542Y-63566591D01*
X144820865Y-63599717D01*
X144853670Y-63639452D01*
X144877102Y-63683187D01*
X144891161Y-63730921D01*
X144895848Y-63782655D01*
G37*
D13*
G36*
X150723917Y-82633242D02*
G01*
X150727832Y-82576596D01*
X150739579Y-82523161D01*
X150759156Y-82472938D01*
X150786565Y-82425926D01*
X150821805Y-82382126D01*
X150835291Y-82368239D01*
X150878602Y-82330970D01*
X150925005Y-82301412D01*
X150974498Y-82279565D01*
X151027083Y-82265428D01*
X151082759Y-82259002D01*
X151102005Y-82258574D01*
X151236827Y-82258574D01*
X151294005Y-82262429D01*
X151347938Y-82273996D01*
X151398625Y-82293273D01*
X151446066Y-82320261D01*
X151490262Y-82354959D01*
X151504272Y-82368239D01*
X151541873Y-82410969D01*
X151571695Y-82456911D01*
X151593737Y-82506064D01*
X151607999Y-82558428D01*
X151614482Y-82614004D01*
X151614915Y-82633242D01*
X151614915Y-82798351D01*
X151598794Y-82837918D01*
X151559716Y-82853794D01*
X151520393Y-82837918D01*
X151504272Y-82798595D01*
X151504272Y-82633731D01*
X151499357Y-82581020D01*
X151484611Y-82532309D01*
X151460034Y-82487597D01*
X151425626Y-82446885D01*
X151384288Y-82412905D01*
X151338920Y-82388633D01*
X151289522Y-82374070D01*
X151236094Y-82369216D01*
X151101272Y-82369216D01*
X151048485Y-82374055D01*
X150999545Y-82388572D01*
X150954451Y-82412768D01*
X150913205Y-82446641D01*
X150878797Y-82487216D01*
X150854220Y-82531760D01*
X150839474Y-82580272D01*
X150834559Y-82632754D01*
X150834559Y-82743152D01*
X151346980Y-82743152D01*
X151387036Y-82759272D01*
X151403156Y-82798595D01*
X151387036Y-82837674D01*
X151347224Y-82853794D01*
X150779848Y-82853794D01*
X150740769Y-82837918D01*
X150723917Y-82798351D01*
X150723917Y-82633242D01*
G37*
G36*
X151504272Y-81495804D02*
G01*
X151520881Y-81455503D01*
X151560448Y-81439139D01*
X151599039Y-81455259D01*
X151614915Y-81495559D01*
X151614915Y-82008225D01*
X151599039Y-82048281D01*
X151560448Y-82064401D01*
X151520881Y-82048281D01*
X151504272Y-82008469D01*
X151504272Y-81783033D01*
X150917845Y-81783033D01*
X151050958Y-81915901D01*
X151067811Y-81955957D01*
X151050958Y-81995036D01*
X151011146Y-82011156D01*
X150972556Y-81995769D01*
X150744189Y-81767646D01*
X150741991Y-81764959D01*
X150741258Y-81762028D01*
X150731488Y-81749328D01*
X150731488Y-81706097D01*
X150741258Y-81693396D01*
X150741991Y-81691442D01*
X150744189Y-81689244D01*
X150745654Y-81687046D01*
X150746875Y-81686313D01*
X150762263Y-81676543D01*
X150783268Y-81672391D01*
X151504272Y-81672391D01*
X151504272Y-81495804D01*
G37*
D12*
G36*
X50819190Y-121443541D02*
G01*
X50864398Y-121424021D01*
X50866085Y-121424002D01*
X50911751Y-121442339D01*
X50912980Y-121443541D01*
X50932744Y-121489421D01*
X50932763Y-121491168D01*
X50932763Y-122011650D01*
X50928392Y-122065996D01*
X50915279Y-122116837D01*
X50893424Y-122164170D01*
X50862826Y-122207998D01*
X50841417Y-122231468D01*
X50799606Y-122267062D01*
X50754102Y-122293913D01*
X50704904Y-122312021D01*
X50652014Y-122321388D01*
X50620133Y-122322815D01*
X50565132Y-122318444D01*
X50513824Y-122305331D01*
X50466209Y-122283475D01*
X50422288Y-122252878D01*
X50398848Y-122231468D01*
X50363255Y-122189644D01*
X50336404Y-122144314D01*
X50318296Y-122095477D01*
X50308929Y-122043134D01*
X50307502Y-122011650D01*
X50307502Y-121491168D01*
X50325839Y-121444771D01*
X50327041Y-121443541D01*
X50372234Y-121424021D01*
X50373936Y-121424002D01*
X50419846Y-121442339D01*
X50421075Y-121443541D01*
X50440595Y-121489421D01*
X50440614Y-121491168D01*
X50440614Y-122011406D01*
X50448033Y-122063853D01*
X50470290Y-122110187D01*
X50493370Y-122137679D01*
X50532151Y-122167437D01*
X50580185Y-122185813D01*
X50620133Y-122189947D01*
X50672649Y-122182597D01*
X50719188Y-122160546D01*
X50746895Y-122137679D01*
X50779043Y-122095421D01*
X50796354Y-122047050D01*
X50799651Y-122011406D01*
X50799651Y-121491168D01*
X50817988Y-121444771D01*
X50819190Y-121443541D01*
G37*
G36*
X51737788Y-121761057D02*
G01*
X51718004Y-121806730D01*
X51341382Y-122182131D01*
X51670377Y-122182131D01*
X51716760Y-122200698D01*
X51718004Y-122201915D01*
X51737768Y-122247108D01*
X51737788Y-122248810D01*
X51719221Y-122294231D01*
X51718004Y-122295460D01*
X51672353Y-122314980D01*
X51670621Y-122315000D01*
X51181891Y-122315000D01*
X51144033Y-122303764D01*
X51120342Y-122274455D01*
X51118073Y-122224261D01*
X51134264Y-122201915D01*
X51604675Y-121731992D01*
X51604675Y-121697065D01*
X51596167Y-121646716D01*
X51570642Y-121603379D01*
X51560223Y-121592285D01*
X51518175Y-121562732D01*
X51469395Y-121549729D01*
X51454222Y-121549054D01*
X51414654Y-121549054D01*
X51364852Y-121555923D01*
X51317566Y-121578869D01*
X51294976Y-121597903D01*
X51264911Y-121637287D01*
X51247999Y-121686154D01*
X51245638Y-121715139D01*
X51227301Y-121761537D01*
X51226099Y-121762766D01*
X51180677Y-121782287D01*
X51178960Y-121782306D01*
X51133294Y-121764198D01*
X51132066Y-121763011D01*
X51112545Y-121717130D01*
X51112526Y-121715383D01*
X51116757Y-121662937D01*
X51129449Y-121613950D01*
X51150604Y-121568423D01*
X51180220Y-121526355D01*
X51200942Y-121503869D01*
X51241461Y-121469703D01*
X51285439Y-121443929D01*
X51332876Y-121426547D01*
X51383773Y-121417556D01*
X51414410Y-121416186D01*
X51453978Y-121416186D01*
X51503906Y-121420160D01*
X51556846Y-121434432D01*
X51605389Y-121459086D01*
X51644258Y-121489172D01*
X51654745Y-121499228D01*
X51687103Y-121537126D01*
X51714351Y-121584272D01*
X51731219Y-121635510D01*
X51737707Y-121690838D01*
X51737788Y-121698042D01*
X51737788Y-121761057D01*
G37*
G36*
X112369190Y-121443541D02*
G01*
X112414398Y-121424021D01*
X112416085Y-121424002D01*
X112461751Y-121442339D01*
X112462980Y-121443541D01*
X112482744Y-121489421D01*
X112482763Y-121491168D01*
X112482763Y-122011650D01*
X112478392Y-122065996D01*
X112465279Y-122116837D01*
X112443424Y-122164170D01*
X112412826Y-122207998D01*
X112391417Y-122231468D01*
X112349606Y-122267062D01*
X112304102Y-122293913D01*
X112254904Y-122312021D01*
X112202014Y-122321388D01*
X112170133Y-122322815D01*
X112115132Y-122318444D01*
X112063824Y-122305331D01*
X112016209Y-122283475D01*
X111972288Y-122252878D01*
X111948848Y-122231468D01*
X111913255Y-122189644D01*
X111886404Y-122144314D01*
X111868296Y-122095477D01*
X111858929Y-122043134D01*
X111857502Y-122011650D01*
X111857502Y-121491168D01*
X111875839Y-121444771D01*
X111877041Y-121443541D01*
X111922234Y-121424021D01*
X111923936Y-121424002D01*
X111969846Y-121442339D01*
X111971075Y-121443541D01*
X111990595Y-121489421D01*
X111990614Y-121491168D01*
X111990614Y-122011406D01*
X111998033Y-122063853D01*
X112020290Y-122110187D01*
X112043370Y-122137679D01*
X112082151Y-122167437D01*
X112130185Y-122185813D01*
X112170133Y-122189947D01*
X112222649Y-122182597D01*
X112269188Y-122160546D01*
X112296895Y-122137679D01*
X112329043Y-122095421D01*
X112346354Y-122047050D01*
X112349651Y-122011406D01*
X112349651Y-121491168D01*
X112367988Y-121444771D01*
X112369190Y-121443541D01*
G37*
G36*
X113197906Y-121443785D02*
G01*
X113217671Y-121489895D01*
X113217690Y-121491657D01*
X113217690Y-121939842D01*
X113264673Y-121957016D01*
X113267271Y-121959382D01*
X113287768Y-122004574D01*
X113287788Y-122006277D01*
X113268534Y-122051942D01*
X113267271Y-122053171D01*
X113221290Y-122072634D01*
X113217690Y-122072711D01*
X113217690Y-122248321D01*
X113199124Y-122294475D01*
X113197906Y-122295704D01*
X113152714Y-122314981D01*
X113151012Y-122315000D01*
X113105346Y-122296891D01*
X113104117Y-122295704D01*
X113084597Y-122250053D01*
X113084578Y-122248321D01*
X113084578Y-122072711D01*
X112728960Y-122072711D01*
X112705269Y-122068558D01*
X112698186Y-122064162D01*
X112694522Y-122062941D01*
X112689881Y-122060010D01*
X112688416Y-122058545D01*
X112685485Y-122055614D01*
X112677181Y-122045844D01*
X112670098Y-122036074D01*
X112665945Y-122024595D01*
X112663259Y-122010673D01*
X112662526Y-122008719D01*
X112661793Y-122005788D01*
X112662526Y-122002124D01*
X112663259Y-121999193D01*
X112665213Y-121986004D01*
X112671563Y-121972327D01*
X112672296Y-121970373D01*
X112674494Y-121966953D01*
X112693526Y-121939842D01*
X112857676Y-121939842D01*
X113084578Y-121939842D01*
X113084578Y-121617686D01*
X112857676Y-121939842D01*
X112693526Y-121939842D01*
X113036950Y-121450624D01*
X113039637Y-121449403D01*
X113041103Y-121447937D01*
X113051605Y-121438900D01*
X113061375Y-121431817D01*
X113073343Y-121426688D01*
X113086043Y-121424002D01*
X113088730Y-121424002D01*
X113091661Y-121424002D01*
X113151745Y-121424002D01*
X113197906Y-121443785D01*
G37*
%TO.C,J1*%
X22100000Y-84555000D02*
X22100000Y-93495000D01*
X22100000Y-93495000D02*
X22450000Y-93495000D01*
X22450000Y-84555000D02*
X22100000Y-84555000D01*
X25690000Y-84555000D02*
X25010000Y-84555000D01*
X25690000Y-93495000D02*
X25010000Y-93495000D01*
X29640000Y-86050000D02*
G75*
G02*
X29440000Y-86050000I-100000J0D01*
G01*
X29440000Y-86050000D02*
G75*
G02*
X29640000Y-86050000I100000J0D01*
G01*
D14*
%TO.C,J3*%
X142350000Y-78320000D02*
X142350000Y-62360000D01*
X144920000Y-61190000D02*
X148460000Y-61190000D01*
X144920000Y-79490000D02*
X148460000Y-79490000D01*
D12*
X145020000Y-81210000D02*
G75*
G02*
X144820000Y-81210000I-100000J0D01*
G01*
X144820000Y-81210000D02*
G75*
G02*
X145020000Y-81210000I100000J0D01*
G01*
D15*
%TO.C,D1*%
X150115000Y-88210000D02*
X150115000Y-84150000D01*
X152385000Y-84150000D02*
X152385000Y-88210000D01*
X152385000Y-88210000D02*
X150115000Y-88210000D01*
%TO.C,U2*%
X44370000Y-120620000D02*
X44370000Y-41820000D01*
X44370000Y-123220000D02*
X44370000Y-121890000D01*
X45700000Y-123220000D02*
X44370000Y-123220000D01*
X46970000Y-120620000D02*
X44370000Y-120620000D01*
X46970000Y-123220000D02*
X46970000Y-120620000D01*
X49570000Y-41820000D02*
X44370000Y-41820000D01*
X49570000Y-123220000D02*
X46970000Y-123220000D01*
X49570000Y-123220000D02*
X49570000Y-41820000D01*
%TO.C,U4*%
X105350000Y-41850000D02*
X105350000Y-123250000D01*
X107950000Y-120650000D02*
X107950000Y-123250000D01*
X107950000Y-123250000D02*
X105350000Y-123250000D01*
X110550000Y-41850000D02*
X105350000Y-41850000D01*
X110550000Y-41850000D02*
X110550000Y-120650000D01*
X110550000Y-120650000D02*
X107950000Y-120650000D01*
%TD*%
M02*
