M48
; DRILL file {KiCad 7.0.8} date Fri Nov 17 18:43:44 2023
; FORMAT={-:-/ absolute / inch / decimal}
; #@! TF.CreationDate,2023-11-17T18:43:44-08:00
; #@! TF.GenerationSoftware,Kicad,Pcbnew,7.0.8
; #@! TF.FileFunction,Plated,1,2,PTH
FMAT,2
INCH
; #@! TA.AperFunction,Plated,PTH,ViaDrill
T1C0.0118
; #@! TA.AperFunction,Plated,PTH,ViaDrill
T2C0.0157
; #@! TA.AperFunction,Plated,PTH,ComponentDrill
T3C0.0157
; #@! TA.AperFunction,Plated,PTH,ComponentDrill
T4C0.0217
; #@! TA.AperFunction,Plated,PTH,ComponentDrill
T5C0.0236
; #@! TA.AperFunction,Plated,PTH,ComponentDrill
T6C0.0315
; #@! TA.AperFunction,Plated,PTH,ComponentDrill
T7C0.0374
; #@! TA.AperFunction,Plated,PTH,ComponentDrill
T8C0.0390
; #@! TA.AperFunction,Plated,PTH,ComponentDrill
T9C0.0394
; #@! TA.AperFunction,Plated,PTH,ComponentDrill
T10C0.0512
; #@! TA.AperFunction,Plated,PTH,ComponentDrill
T11C0.0906
%
G90
G05
T1
X5.1402Y-2.7923
X5.1535Y-2.7667
T2
X1.1Y-2.2
X1.38Y-2.35
X1.4Y-2.01
X1.4272Y-2.587
X1.45Y-2.24
X1.645Y-2.54
X1.685Y-2.8622
X1.7232Y-3.9494
X2.014Y-4.799
X2.0551Y-2.7441
X2.065Y-1.835
X2.0827Y-3.1378
X2.1496Y-3.114
X2.162Y-3.606
X2.296Y-4.072
X2.408Y-3.17
X2.49Y-3.054
X2.552Y-4.09
X2.552Y-4.349
X2.6506Y-2.999
X2.691Y-4.698
X2.7254Y-3.6378
X2.772Y-4.516
X2.843Y-4.31
X2.9213Y-2.6378
X2.9528Y-4.4094
X3.018Y-2.749
X3.161Y-1.927
X3.2661Y-2.861
X3.2685Y-3.0744
X3.31Y-2.571
X3.39Y-1.81
X3.7874Y-3.4587
X3.805Y-4.665
X3.9596Y-2.7943
X4.0433Y-2.4449
X4.071Y-4.791
X4.1457Y-3.3504
X4.1457Y-3.4488
X4.4272Y-2.3898
X4.4321Y-2.7598
X4.4616Y-2.3445
X4.5049Y-2.9843
X4.5374Y-2.5531
X4.7175Y-2.6644
X4.7677Y-2.248
X4.7923Y-2.0472
X4.8012Y-2.7648
X4.9006Y-2.3888
X4.9035Y-3.2441
X5.0512Y-2.0945
X5.0522Y-2.562
X5.1722Y-2.6014
X5.1939Y-3.6447
X5.3254Y-4.378
X5.3543Y-3.4094
X5.3839Y-2.7874
X5.3976Y-2.4291
X5.4321Y-2.9065
X5.4555Y-3.126
X5.5824Y-3.385
X5.5984Y-3.6004
X5.6644Y-3.6762
X5.7024Y-3.835
X5.7024Y-4.27
X5.7244Y-3.6289
X5.7976Y-2.2654
X5.8854Y-1.721
X5.9574Y-4.5003
T3
X5.7847Y-4.3826
X5.7847Y-4.4161
X5.7847Y-4.4495
X5.7847Y-4.483
X5.7847Y-4.5165
X5.7847Y-4.5499
X5.7847Y-4.5834
X5.7847Y-4.6169
X5.8379Y-4.3826
X5.8379Y-4.4161
X5.8379Y-4.4495
X5.8379Y-4.483
X5.8379Y-4.5165
X5.8379Y-4.5499
X5.8379Y-4.5834
X5.8379Y-4.6169
T4
X5.6445Y-2.6118
X5.6445Y-2.6512
X5.6445Y-2.6906
X5.6445Y-2.7299
X5.6445Y-2.7693
X5.6445Y-2.8087
X5.6445Y-2.848
X5.6445Y-2.8874
X5.6445Y-2.9268
X5.7055Y-2.5921
X5.7055Y-2.6315
X5.7055Y-2.6709
X5.7055Y-2.7102
X5.7055Y-2.7496
X5.7055Y-2.789
X5.7055Y-2.8283
X5.7055Y-2.8677
X5.7055Y-2.9071
X5.7055Y-2.9465
T7
X3.0992Y-2.076
X3.1976Y-2.076
X3.2764Y-2.076
X3.3748Y-2.076
T8
X5.7028Y-1.944
X5.8799Y-1.944
T9
X1.4575Y-2.7539
X1.4575Y-2.8539
X1.4575Y-2.9539
X1.4575Y-3.0539
X1.7984Y-1.7
X1.7984Y-1.8
X1.7984Y-1.9
X1.7984Y-2.0
X1.7984Y-2.1
X1.7984Y-2.2
X1.7984Y-2.3
X1.7984Y-2.4
X1.7984Y-2.5
X1.7984Y-2.6
X1.7984Y-2.7
X1.7984Y-2.8
X1.7984Y-2.9
X1.7984Y-3.0
X1.7984Y-3.1
X1.7984Y-3.2
X1.7984Y-3.3
X1.7984Y-3.4
X1.7984Y-3.5
X1.7984Y-3.6
X1.7984Y-3.7
X1.7984Y-3.8
X1.7984Y-3.9
X1.7984Y-4.0
X1.7984Y-4.1
X1.7984Y-4.2
X1.7984Y-4.3
X1.7984Y-4.4
X1.7984Y-4.5
X1.7984Y-4.6
X1.7984Y-4.7
X1.7984Y-4.8
X1.8984Y-1.7
X1.8984Y-1.8
X1.8984Y-1.9
X1.8984Y-2.0
X1.8984Y-2.1
X1.8984Y-2.2
X1.8984Y-2.3
X1.8984Y-2.4
X1.8984Y-2.5
X1.8984Y-2.6
X1.8984Y-2.7
X1.8984Y-2.8
X1.8984Y-2.9
X1.8984Y-3.0
X1.8984Y-3.1
X1.8984Y-3.2
X1.8984Y-3.3
X1.8984Y-3.4
X1.8984Y-3.5
X1.8984Y-3.6
X1.8984Y-3.7
X1.8984Y-3.8
X1.8984Y-3.9
X1.8984Y-4.0
X1.8984Y-4.1
X1.8984Y-4.2
X1.8984Y-4.3
X1.8984Y-4.4
X1.8984Y-4.5
X1.8984Y-4.6
X1.8984Y-4.7
X1.8984Y-4.8
X4.2Y-1.7
X4.2Y-1.8
X4.2Y-1.9
X4.2Y-2.0
X4.2Y-2.1
X4.2Y-2.2
X4.2Y-2.3
X4.2Y-2.4
X4.2Y-2.5
X4.2Y-2.6
X4.2Y-2.7
X4.2Y-2.8
X4.2Y-2.9
X4.2Y-3.0
X4.2Y-3.1
X4.2Y-3.2
X4.2Y-3.3
X4.2Y-3.4
X4.2Y-3.5
X4.2Y-3.6
X4.2Y-3.7
X4.2Y-3.8
X4.2Y-3.9
X4.2Y-4.0
X4.2Y-4.1
X4.2Y-4.2
X4.2Y-4.3
X4.2Y-4.4
X4.2Y-4.6
X4.2Y-4.7
X4.2Y-4.8
X4.3Y-1.7
X4.3Y-1.8
X4.3Y-1.9
X4.3Y-2.0
X4.3Y-2.1
X4.3Y-2.2
X4.3Y-2.3
X4.3Y-2.4
X4.3Y-2.5
X4.3Y-2.6
X4.3Y-2.7
X4.3Y-2.8
X4.3Y-2.9
X4.3Y-3.0
X4.3Y-3.1
X4.3Y-3.2
X4.3Y-3.3
X4.3Y-3.4
X4.3Y-3.5
X4.3Y-3.6
X4.3Y-3.7
X4.3Y-3.8
X4.3Y-3.9
X4.3Y-4.0
X4.3Y-4.1
X4.3Y-4.2
X4.3Y-4.3
X4.3Y-4.4
X4.3Y-4.6
X4.3Y-4.7
X4.3Y-4.8
X5.3616Y-1.74
X5.4616Y-1.74
T10
X5.6533Y-2.042
X5.9293Y-2.042
T11
X2.9783Y-1.9693
X3.4957Y-1.9693
T5
G00X5.8529Y-4.3294
M15
G01X5.7938Y-4.3294
M16
G05
G00X5.8529Y-4.67
M15
G01X5.7938Y-4.67
M16
G05
G00X5.9721Y-4.3294
M15
G01X5.9407Y-4.3294
M16
G05
G00X5.9721Y-4.67
M15
G01X5.9407Y-4.67
M16
G05
T6
G00X5.6122Y-2.4091
M15
G01X5.6634Y-2.4091
M16
G05
G00X5.6122Y-3.1295
M15
G01X5.6634Y-3.1295
M16
G05
G00X5.8917Y-2.4091
M15
G01X5.9429Y-2.4091
M16
G05
G00X5.8917Y-3.1295
M15
G01X5.9429Y-3.1295
M16
G05
T0
M30
