%TF.GenerationSoftware,KiCad,Pcbnew,7.0.8*%
%TF.CreationDate,2023-11-17T18:43:47-08:00*%
%TF.ProjectId,expansionboardA,65787061-6e73-4696-9f6e-626f61726441,3*%
%TF.SameCoordinates,Original*%
%TF.FileFunction,Soldermask,Top*%
%TF.FilePolarity,Negative*%
%FSLAX46Y46*%
G04 Gerber Fmt 4.6, Leading zero omitted, Abs format (unit mm)*
G04 Created by KiCad (PCBNEW 7.0.8) date 2023-11-17 18:43:47*
%MOMM*%
%LPD*%
G01*
G04 APERTURE LIST*
G04 Aperture macros list*
%AMRoundRect*
0 Rectangle with rounded corners*
0 $1 Rounding radius*
0 $2 $3 $4 $5 $6 $7 $8 $9 X,Y pos of 4 corners*
0 Add a 4 corners polygon primitive as box body*
4,1,4,$2,$3,$4,$5,$6,$7,$8,$9,$2,$3,0*
0 Add four circle primitives for the rounded corners*
1,1,$1+$1,$2,$3*
1,1,$1+$1,$4,$5*
1,1,$1+$1,$6,$7*
1,1,$1+$1,$8,$9*
0 Add four rect primitives between the rounded corners*
20,1,$1+$1,$2,$3,$4,$5,0*
20,1,$1+$1,$4,$5,$6,$7,0*
20,1,$1+$1,$6,$7,$8,$9,0*
20,1,$1+$1,$8,$9,$2,$3,0*%
%AMFreePoly0*
4,1,19,0.550000,-0.750000,0.000000,-0.750000,0.000000,-0.744911,-0.071157,-0.744911,-0.207708,-0.704816,-0.327430,-0.627875,-0.420627,-0.520320,-0.479746,-0.390866,-0.500000,-0.250000,-0.500000,0.250000,-0.479746,0.390866,-0.420627,0.520320,-0.327430,0.627875,-0.207708,0.704816,-0.071157,0.744911,0.000000,0.744911,0.000000,0.750000,0.550000,0.750000,0.550000,-0.750000,0.550000,-0.750000,
$1*%
%AMFreePoly1*
4,1,19,0.000000,0.744911,0.071157,0.744911,0.207708,0.704816,0.327430,0.627875,0.420627,0.520320,0.479746,0.390866,0.500000,0.250000,0.500000,-0.250000,0.479746,-0.390866,0.420627,-0.520320,0.327430,-0.627875,0.207708,-0.704816,0.071157,-0.744911,0.000000,-0.744911,0.000000,-0.750000,-0.550000,-0.750000,-0.550000,0.750000,0.000000,0.750000,0.000000,0.744911,0.000000,0.744911,
$1*%
G04 Aperture macros list end*
%ADD10RoundRect,0.237500X-0.300000X-0.237500X0.300000X-0.237500X0.300000X0.237500X-0.300000X0.237500X0*%
%ADD11RoundRect,0.237500X0.250000X0.237500X-0.250000X0.237500X-0.250000X-0.237500X0.250000X-0.237500X0*%
%ADD12RoundRect,0.237500X-0.237500X0.300000X-0.237500X-0.300000X0.237500X-0.300000X0.237500X0.300000X0*%
%ADD13C,1.498000*%
%ADD14C,1.950000*%
%ADD15RoundRect,0.237500X0.300000X0.237500X-0.300000X0.237500X-0.300000X-0.237500X0.300000X-0.237500X0*%
%ADD16C,1.700000*%
%ADD17R,2.200000X2.800000*%
%ADD18R,2.800000X2.800000*%
%ADD19RoundRect,0.237500X-0.237500X0.250000X-0.237500X-0.250000X0.237500X-0.250000X0.237500X0.250000X0*%
%ADD20FreePoly0,0.000000*%
%ADD21R,1.000000X1.500000*%
%ADD22FreePoly1,0.000000*%
%ADD23R,0.270000X1.355601*%
%ADD24R,1.355601X0.270000*%
%ADD25RoundRect,0.237500X-0.250000X-0.237500X0.250000X-0.237500X0.250000X0.237500X-0.250000X0.237500X0*%
%ADD26R,0.800000X0.800000*%
%ADD27C,0.800000*%
%ADD28O,2.800000X1.700000*%
%ADD29RoundRect,0.102000X0.919239X0.070711X0.070711X0.919239X-0.919239X-0.070711X-0.070711X-0.919239X0*%
%ADD30R,1.600000X1.500000*%
%ADD31C,1.600000*%
%ADD32C,3.000000*%
%ADD33RoundRect,0.102000X-0.919239X-0.070711X-0.070711X-0.919239X0.919239X0.070711X0.070711X0.919239X0*%
%ADD34R,1.700000X1.700000*%
%ADD35O,1.700000X1.700000*%
%ADD36RoundRect,0.038500X-0.236500X0.706500X-0.236500X-0.706500X0.236500X-0.706500X0.236500X0.706500X0*%
%ADD37RoundRect,0.038500X-0.706500X-0.236500X0.706500X-0.236500X0.706500X0.236500X-0.706500X0.236500X0*%
%ADD38C,0.650000*%
%ADD39O,1.700000X0.900000*%
%ADD40O,2.400000X0.900000*%
G04 APERTURE END LIST*
D10*
%TO.C,C14*%
X135776500Y-83439000D03*
X137501500Y-83439000D03*
%TD*%
%TO.C,C15*%
X72872600Y-63373000D03*
X74597600Y-63373000D03*
%TD*%
D11*
%TO.C,R10*%
X141359300Y-113030000D03*
X139534300Y-113030000D03*
%TD*%
D12*
%TO.C,C2*%
X67183000Y-101754600D03*
X67183000Y-103479600D03*
%TD*%
D10*
%TO.C,C13*%
X135853500Y-88265000D03*
X137578500Y-88265000D03*
%TD*%
D13*
%TO.C,RESETN1*%
X149350000Y-49377500D03*
X144850000Y-49377500D03*
D14*
X150605000Y-51867500D03*
X143595000Y-51867500D03*
%TD*%
D10*
%TO.C,C16*%
X72821800Y-70332600D03*
X74546800Y-70332600D03*
%TD*%
D15*
%TO.C,C4*%
X75666600Y-108432600D03*
X73941600Y-108432600D03*
%TD*%
D16*
%TO.C,AU1*%
X149297000Y-98916000D03*
X142297000Y-98916000D03*
D17*
X150397000Y-95216000D03*
D18*
X140997000Y-95216000D03*
D17*
X148397000Y-102616000D03*
%TD*%
D19*
%TO.C,R16*%
X81203800Y-58341900D03*
X81203800Y-60166900D03*
%TD*%
D15*
%TO.C,C9*%
X148627500Y-90678000D03*
X146902500Y-90678000D03*
%TD*%
D20*
%TO.C,JP1*%
X138450000Y-55325000D03*
D21*
X139750000Y-55325000D03*
D22*
X141050000Y-55325000D03*
%TD*%
D23*
%TO.C,U7*%
X80457802Y-75999202D03*
X80957801Y-75999202D03*
X81457800Y-75999202D03*
X81957801Y-75999202D03*
X82457801Y-75999202D03*
X82957802Y-75999202D03*
X83457801Y-75999202D03*
X83957800Y-75999202D03*
D24*
X85485602Y-74471400D03*
X85485602Y-73971401D03*
X85485602Y-73471402D03*
X85485602Y-72971401D03*
X85485602Y-72471401D03*
X85485602Y-71971400D03*
X85485602Y-71471401D03*
X85485602Y-70971402D03*
D23*
X83957800Y-69443600D03*
X83457801Y-69443600D03*
X82957802Y-69443600D03*
X82457801Y-69443600D03*
X81957801Y-69443600D03*
X81457800Y-69443600D03*
X80957801Y-69443600D03*
X80457802Y-69443600D03*
D24*
X78930000Y-70971402D03*
X78930000Y-71471401D03*
X78930000Y-71971400D03*
X78930000Y-72471401D03*
X78930000Y-72971401D03*
X78930000Y-73471402D03*
X78930000Y-73971401D03*
X78930000Y-74471400D03*
%TD*%
D25*
%TO.C,R2*%
X69396600Y-117043200D03*
X71221600Y-117043200D03*
%TD*%
D11*
%TO.C,R9*%
X141296300Y-115570000D03*
X139471300Y-115570000D03*
%TD*%
D26*
%TO.C,J3*%
X144920000Y-74840000D03*
D27*
X143370000Y-74340000D03*
X144920000Y-73840000D03*
X143370000Y-73340000D03*
X144920000Y-72840000D03*
X143370000Y-72340000D03*
X144920000Y-71840000D03*
X143370000Y-71340000D03*
X144920000Y-70840000D03*
X143370000Y-70340000D03*
X144920000Y-69840000D03*
X143370000Y-69340000D03*
X144920000Y-68840000D03*
X143370000Y-68340000D03*
X144920000Y-67840000D03*
X143370000Y-67340000D03*
X144920000Y-66840000D03*
X143370000Y-66340000D03*
X144920000Y-65840000D03*
D28*
X143200000Y-61190000D03*
X143200000Y-79490000D03*
X150300000Y-79490000D03*
X150300000Y-61190000D03*
%TD*%
D25*
%TO.C,R13*%
X142304000Y-83439000D03*
X144129000Y-83439000D03*
%TD*%
D29*
%TO.C,Y1*%
X78600000Y-113400000D03*
X80155635Y-111844365D03*
X79024264Y-110712994D03*
X77468629Y-112268629D03*
%TD*%
D19*
%TO.C,R17*%
X83185000Y-58320300D03*
X83185000Y-60145300D03*
%TD*%
D25*
%TO.C,R11*%
X137581500Y-90678000D03*
X139406500Y-90678000D03*
%TD*%
D10*
%TO.C,C8*%
X146799000Y-85852000D03*
X148524000Y-85852000D03*
%TD*%
D30*
%TO.C,J2*%
X85719800Y-52731000D03*
D31*
X83219800Y-52731000D03*
X81219800Y-52731000D03*
X78719800Y-52731000D03*
D32*
X88789800Y-50021000D03*
X75649800Y-50021000D03*
%TD*%
D15*
%TO.C,C3*%
X75641200Y-116052600D03*
X73916200Y-116052600D03*
%TD*%
D25*
%TO.C,R7*%
X146772500Y-83439000D03*
X148597500Y-83439000D03*
%TD*%
D33*
%TO.C,Y2*%
X71000000Y-65600000D03*
X69444365Y-67155635D03*
X70575736Y-68287006D03*
X72131371Y-66731371D03*
%TD*%
D25*
%TO.C,R12*%
X142280500Y-88265000D03*
X144105500Y-88265000D03*
%TD*%
D12*
%TO.C,C18*%
X80010000Y-65125600D03*
X80010000Y-66850600D03*
%TD*%
D15*
%TO.C,C1*%
X75614700Y-118364000D03*
X73889700Y-118364000D03*
%TD*%
D34*
%TO.C,J4*%
X138724600Y-44196000D03*
D35*
X136184600Y-44196000D03*
%TD*%
D36*
%TO.C,U1*%
X68770200Y-106146600D03*
X67970200Y-106146600D03*
X67170200Y-106146600D03*
X66370200Y-106146600D03*
X65570200Y-106146600D03*
X64770200Y-106146600D03*
X63970200Y-106146600D03*
X63170200Y-106146600D03*
D37*
X61800200Y-107516600D03*
X61800200Y-108316600D03*
X61800200Y-109116600D03*
X61800200Y-109916600D03*
X61800200Y-110716600D03*
X61800200Y-111516600D03*
X61800200Y-112316600D03*
X61800200Y-113116600D03*
D36*
X63170200Y-114486600D03*
X63970200Y-114486600D03*
X64770200Y-114486600D03*
X65570200Y-114486600D03*
X66370200Y-114486600D03*
X67170200Y-114486600D03*
X67970200Y-114486600D03*
X68770200Y-114486600D03*
D37*
X70140200Y-113116600D03*
X70140200Y-112316600D03*
X70140200Y-111516600D03*
X70140200Y-110716600D03*
X70140200Y-109916600D03*
X70140200Y-109116600D03*
X70140200Y-108316600D03*
X70140200Y-107516600D03*
%TD*%
D25*
%TO.C,R14*%
X137454500Y-85852000D03*
X139279500Y-85852000D03*
%TD*%
%TO.C,R8*%
X146852500Y-88265000D03*
X148677500Y-88265000D03*
%TD*%
D34*
%TO.C,J5*%
X37020000Y-69950000D03*
D35*
X37020000Y-72490000D03*
X37020000Y-75030000D03*
X37020000Y-77570000D03*
%TD*%
D34*
%TO.C,U2*%
X48220000Y-121920000D03*
D35*
X45680000Y-121920000D03*
X48220000Y-119380000D03*
X45680000Y-119380000D03*
X48220000Y-116840000D03*
X45680000Y-116840000D03*
X48220000Y-114300000D03*
X45680000Y-114300000D03*
X48220000Y-111760000D03*
X45680000Y-111760000D03*
X48220000Y-109220000D03*
X45680000Y-109220000D03*
X48220000Y-106680000D03*
X45680000Y-106680000D03*
X48220000Y-104140000D03*
X45680000Y-104140000D03*
X48220000Y-101600000D03*
X45680000Y-101600000D03*
X48220000Y-99060000D03*
X45680000Y-99060000D03*
X48220000Y-96520000D03*
X45680000Y-96520000D03*
X48220000Y-93980000D03*
X45680000Y-93980000D03*
X48220000Y-91440000D03*
X45680000Y-91440000D03*
X48220000Y-88900000D03*
X45680000Y-88900000D03*
X48220000Y-86360000D03*
X45680000Y-86360000D03*
X48220000Y-83820000D03*
X45680000Y-83820000D03*
X48220000Y-81280000D03*
X45680000Y-81280000D03*
X48220000Y-78740000D03*
X45680000Y-78740000D03*
X48220000Y-76200000D03*
X45680000Y-76200000D03*
X48220000Y-73660000D03*
X45680000Y-73660000D03*
X48220000Y-71120000D03*
X45680000Y-71120000D03*
X48220000Y-68580000D03*
X45680000Y-68580000D03*
X48220000Y-66040000D03*
X45680000Y-66040000D03*
X48220000Y-63500000D03*
X45680000Y-63500000D03*
X48220000Y-60960000D03*
X45680000Y-60960000D03*
X48220000Y-58420000D03*
X45680000Y-58420000D03*
X48220000Y-55880000D03*
X45680000Y-55880000D03*
X48220000Y-53340000D03*
X45680000Y-53340000D03*
X48220000Y-50800000D03*
X45680000Y-50800000D03*
X48220000Y-48260000D03*
X45680000Y-48260000D03*
X48220000Y-45720000D03*
X45680000Y-45720000D03*
X48220000Y-43180000D03*
X45680000Y-43180000D03*
%TD*%
D34*
%TO.C,U4*%
X109220000Y-121920000D03*
D35*
X106680000Y-121920000D03*
X109220000Y-119380000D03*
X106680000Y-119380000D03*
X109220000Y-116840000D03*
X106680000Y-116840000D03*
X109220000Y-111760000D03*
X106680000Y-111760000D03*
X109220000Y-109220000D03*
X106680000Y-109220000D03*
X109220000Y-106680000D03*
X106680000Y-106680000D03*
X109220000Y-104140000D03*
X106680000Y-104140000D03*
X109220000Y-101600000D03*
X106680000Y-101600000D03*
X109220000Y-99060000D03*
X106680000Y-99060000D03*
X109220000Y-96520000D03*
X106680000Y-96520000D03*
X109220000Y-93980000D03*
X106680000Y-93980000D03*
X109220000Y-91440000D03*
X106680000Y-91440000D03*
X109220000Y-88900000D03*
X106680000Y-88900000D03*
X109220000Y-86360000D03*
X106680000Y-86360000D03*
X109220000Y-83820000D03*
X106680000Y-83820000D03*
X109220000Y-81280000D03*
X106680000Y-81280000D03*
X109220000Y-78740000D03*
X106680000Y-78740000D03*
X109220000Y-76200000D03*
X106680000Y-76200000D03*
X109220000Y-73660000D03*
X106680000Y-73660000D03*
X109220000Y-71120000D03*
X106680000Y-71120000D03*
X109220000Y-68580000D03*
X106680000Y-68580000D03*
X109220000Y-66040000D03*
X106680000Y-66040000D03*
X109220000Y-63500000D03*
X106680000Y-63500000D03*
X109220000Y-60960000D03*
X106680000Y-60960000D03*
X109220000Y-58420000D03*
X106680000Y-58420000D03*
X109220000Y-55880000D03*
X106680000Y-55880000D03*
X109220000Y-53340000D03*
X106680000Y-53340000D03*
X109220000Y-50800000D03*
X106680000Y-50800000D03*
X109220000Y-48260000D03*
X106680000Y-48260000D03*
X109220000Y-45720000D03*
X106680000Y-45720000D03*
X109220000Y-43180000D03*
X106680000Y-43180000D03*
%TD*%
D38*
%TO.C,J1*%
X146932600Y-111318000D03*
X146932600Y-112168000D03*
X146932600Y-113018000D03*
X146932600Y-113868000D03*
X146932600Y-114718000D03*
X146932600Y-115568000D03*
X146932600Y-116418000D03*
X146932600Y-117268000D03*
X148282600Y-117268000D03*
X148282600Y-116418000D03*
X148282600Y-115568000D03*
X148282600Y-114718000D03*
X148282600Y-113868000D03*
X148282600Y-113018000D03*
X148282600Y-112168000D03*
X148282600Y-111318000D03*
D39*
X151292600Y-109968000D03*
X151292600Y-118618000D03*
D40*
X147912600Y-109968000D03*
X147912600Y-118618000D03*
%TD*%
M02*
