%TF.GenerationSoftware,KiCad,Pcbnew,8.0.7*%
%TF.CreationDate,2025-01-16T18:05:49-08:00*%
%TF.ProjectId,expansionboardA,65787061-6e73-4696-9f6e-626f61726441,3*%
%TF.SameCoordinates,Original*%
%TF.FileFunction,Soldermask,Bot*%
%TF.FilePolarity,Negative*%
%FSLAX46Y46*%
G04 Gerber Fmt 4.6, Leading zero omitted, Abs format (unit mm)*
G04 Created by KiCad (PCBNEW 8.0.7) date 2025-01-16 18:05:49*
%MOMM*%
%LPD*%
G01*
G04 APERTURE LIST*
G04 Aperture macros list*
%AMRoundRect*
0 Rectangle with rounded corners*
0 $1 Rounding radius*
0 $2 $3 $4 $5 $6 $7 $8 $9 X,Y pos of 4 corners*
0 Add a 4 corners polygon primitive as box body*
4,1,4,$2,$3,$4,$5,$6,$7,$8,$9,$2,$3,0*
0 Add four circle primitives for the rounded corners*
1,1,$1+$1,$2,$3*
1,1,$1+$1,$4,$5*
1,1,$1+$1,$6,$7*
1,1,$1+$1,$8,$9*
0 Add four rect primitives between the rounded corners*
20,1,$1+$1,$2,$3,$4,$5,0*
20,1,$1+$1,$4,$5,$6,$7,0*
20,1,$1+$1,$6,$7,$8,$9,0*
20,1,$1+$1,$8,$9,$2,$3,0*%
G04 Aperture macros list end*
%ADD10C,0.010000*%
%ADD11C,4.400000*%
%ADD12R,1.700000X1.700000*%
%ADD13O,1.700000X1.700000*%
%ADD14C,0.650000*%
%ADD15O,0.900000X1.700000*%
%ADD16O,0.900000X2.400000*%
%ADD17RoundRect,0.102000X0.425000X-0.325000X0.425000X0.325000X-0.425000X0.325000X-0.425000X-0.325000X0*%
%ADD18C,1.000000*%
%ADD19RoundRect,0.237500X-0.250000X-0.237500X0.250000X-0.237500X0.250000X0.237500X-0.250000X0.237500X0*%
%ADD20R,2.150000X0.950000*%
%ADD21R,2.150000X3.250000*%
%ADD22RoundRect,0.237500X-0.237500X0.300000X-0.237500X-0.300000X0.237500X-0.300000X0.237500X0.300000X0*%
%ADD23R,1.500000X0.900000*%
%ADD24R,0.900000X1.500000*%
%ADD25C,0.600000*%
%ADD26R,3.900000X3.900000*%
%ADD27RoundRect,0.237500X0.250000X0.237500X-0.250000X0.237500X-0.250000X-0.237500X0.250000X-0.237500X0*%
%ADD28RoundRect,0.237500X0.300000X0.237500X-0.300000X0.237500X-0.300000X-0.237500X0.300000X-0.237500X0*%
%ADD29RoundRect,0.250001X-0.462499X-0.624999X0.462499X-0.624999X0.462499X0.624999X-0.462499X0.624999X0*%
%ADD30R,1.200000X0.700000*%
%ADD31R,1.200000X1.000000*%
%ADD32R,2.800000X1.000000*%
%ADD33R,1.900000X1.300000*%
%ADD34R,0.800000X1.000000*%
%ADD35RoundRect,0.250000X0.475000X-0.337500X0.475000X0.337500X-0.475000X0.337500X-0.475000X-0.337500X0*%
%ADD36O,3.452400X1.652400*%
%ADD37O,2.452400X1.652400*%
%ADD38RoundRect,0.250001X0.462499X0.624999X-0.462499X0.624999X-0.462499X-0.624999X0.462499X-0.624999X0*%
%ADD39R,1.250000X1.000000*%
G04 APERTURE END LIST*
D10*
%TO.C,J2*%
X144122500Y-54016500D02*
X141395500Y-54016500D01*
X141395500Y-53591500D01*
X144122500Y-53591500D01*
X144122500Y-54016500D01*
G36*
X144122500Y-54016500D02*
G01*
X141395500Y-54016500D01*
X141395500Y-53591500D01*
X144122500Y-53591500D01*
X144122500Y-54016500D01*
G37*
X144122500Y-54516500D02*
X141395500Y-54516500D01*
X141395500Y-54091500D01*
X144122500Y-54091500D01*
X144122500Y-54516500D01*
G36*
X144122500Y-54516500D02*
G01*
X141395500Y-54516500D01*
X141395500Y-54091500D01*
X144122500Y-54091500D01*
X144122500Y-54516500D01*
G37*
X144122500Y-55016500D02*
X141395500Y-55016500D01*
X141395500Y-54591500D01*
X144122500Y-54591500D01*
X144122500Y-55016500D01*
G36*
X144122500Y-55016500D02*
G01*
X141395500Y-55016500D01*
X141395500Y-54591500D01*
X144122500Y-54591500D01*
X144122500Y-55016500D01*
G37*
X144122500Y-55516500D02*
X141395500Y-55516500D01*
X141395500Y-55091500D01*
X144122500Y-55091500D01*
X144122500Y-55516500D01*
G36*
X144122500Y-55516500D02*
G01*
X141395500Y-55516500D01*
X141395500Y-55091500D01*
X144122500Y-55091500D01*
X144122500Y-55516500D01*
G37*
X144122500Y-56016500D02*
X141395500Y-56016500D01*
X141395500Y-55591500D01*
X144122500Y-55591500D01*
X144122500Y-56016500D01*
G36*
X144122500Y-56016500D02*
G01*
X141395500Y-56016500D01*
X141395500Y-55591500D01*
X144122500Y-55591500D01*
X144122500Y-56016500D01*
G37*
X144122500Y-56516500D02*
X141395500Y-56516500D01*
X141395500Y-56091500D01*
X144122500Y-56091500D01*
X144122500Y-56516500D01*
G36*
X144122500Y-56516500D02*
G01*
X141395500Y-56516500D01*
X141395500Y-56091500D01*
X144122500Y-56091500D01*
X144122500Y-56516500D01*
G37*
X144122500Y-57016500D02*
X141395500Y-57016500D01*
X141395500Y-56591500D01*
X144122500Y-56591500D01*
X144122500Y-57016500D01*
G36*
X144122500Y-57016500D02*
G01*
X141395500Y-57016500D01*
X141395500Y-56591500D01*
X144122500Y-56591500D01*
X144122500Y-57016500D01*
G37*
X144122500Y-57516500D02*
X141395500Y-57516500D01*
X141395500Y-57091500D01*
X144122500Y-57091500D01*
X144122500Y-57516500D01*
G36*
X144122500Y-57516500D02*
G01*
X141395500Y-57516500D01*
X141395500Y-57091500D01*
X144122500Y-57091500D01*
X144122500Y-57516500D01*
G37*
X144122500Y-58016500D02*
X141395500Y-58016500D01*
X141395500Y-57591500D01*
X144122500Y-57591500D01*
X144122500Y-58016500D01*
G36*
X144122500Y-58016500D02*
G01*
X141395500Y-58016500D01*
X141395500Y-57591500D01*
X144122500Y-57591500D01*
X144122500Y-58016500D01*
G37*
X144122500Y-58516500D02*
X141395500Y-58516500D01*
X141395500Y-58091500D01*
X144122500Y-58091500D01*
X144122500Y-58516500D01*
G36*
X144122500Y-58516500D02*
G01*
X141395500Y-58516500D01*
X141395500Y-58091500D01*
X144122500Y-58091500D01*
X144122500Y-58516500D01*
G37*
X144122500Y-59016500D02*
X141395500Y-59016500D01*
X141395500Y-58591500D01*
X144122500Y-58591500D01*
X144122500Y-59016500D01*
G36*
X144122500Y-59016500D02*
G01*
X141395500Y-59016500D01*
X141395500Y-58591500D01*
X144122500Y-58591500D01*
X144122500Y-59016500D01*
G37*
X144122500Y-59516500D02*
X141395500Y-59516500D01*
X141395500Y-59091500D01*
X144122500Y-59091500D01*
X144122500Y-59516500D01*
G36*
X144122500Y-59516500D02*
G01*
X141395500Y-59516500D01*
X141395500Y-59091500D01*
X144122500Y-59091500D01*
X144122500Y-59516500D01*
G37*
X144122500Y-60016500D02*
X141395500Y-60016500D01*
X141395500Y-59591500D01*
X144122500Y-59591500D01*
X144122500Y-60016500D01*
G36*
X144122500Y-60016500D02*
G01*
X141395500Y-60016500D01*
X141395500Y-59591500D01*
X144122500Y-59591500D01*
X144122500Y-60016500D01*
G37*
X144122500Y-60516500D02*
X141395500Y-60516500D01*
X141395500Y-60091500D01*
X144122500Y-60091500D01*
X144122500Y-60516500D01*
G36*
X144122500Y-60516500D02*
G01*
X141395500Y-60516500D01*
X141395500Y-60091500D01*
X144122500Y-60091500D01*
X144122500Y-60516500D01*
G37*
X144122500Y-61016500D02*
X141395500Y-61016500D01*
X141395500Y-60591500D01*
X144122500Y-60591500D01*
X144122500Y-61016500D01*
G36*
X144122500Y-61016500D02*
G01*
X141395500Y-61016500D01*
X141395500Y-60591500D01*
X144122500Y-60591500D01*
X144122500Y-61016500D01*
G37*
X144122500Y-61516500D02*
X141395500Y-61516500D01*
X141395500Y-61091500D01*
X144122500Y-61091500D01*
X144122500Y-61516500D01*
G36*
X144122500Y-61516500D02*
G01*
X141395500Y-61516500D01*
X141395500Y-61091500D01*
X144122500Y-61091500D01*
X144122500Y-61516500D01*
G37*
X144122500Y-62016500D02*
X141395500Y-62016500D01*
X141395500Y-61591500D01*
X144122500Y-61591500D01*
X144122500Y-62016500D01*
G36*
X144122500Y-62016500D02*
G01*
X141395500Y-62016500D01*
X141395500Y-61591500D01*
X144122500Y-61591500D01*
X144122500Y-62016500D01*
G37*
X144122500Y-62516500D02*
X141395500Y-62516500D01*
X141395500Y-62091500D01*
X144122500Y-62091500D01*
X144122500Y-62516500D01*
G36*
X144122500Y-62516500D02*
G01*
X141395500Y-62516500D01*
X141395500Y-62091500D01*
X144122500Y-62091500D01*
X144122500Y-62516500D01*
G37*
X144122500Y-63016500D02*
X141395500Y-63016500D01*
X141395500Y-62591500D01*
X144122500Y-62591500D01*
X144122500Y-63016500D01*
G36*
X144122500Y-63016500D02*
G01*
X141395500Y-63016500D01*
X141395500Y-62591500D01*
X144122500Y-62591500D01*
X144122500Y-63016500D01*
G37*
%TD*%
D11*
%TO.C,REF\u002A\u002A*%
X148750000Y-120500000D03*
%TD*%
D12*
%TO.C,JTAG1*%
X135600000Y-120600000D03*
D13*
X133060000Y-120600000D03*
X130520000Y-120600000D03*
X127980000Y-120600000D03*
X125440000Y-120600000D03*
X122900000Y-120600000D03*
%TD*%
D11*
%TO.C,REF\u002A\u002A*%
X26750000Y-120500000D03*
%TD*%
%TO.C,REF\u002A\u002A*%
X26750000Y-44500000D03*
%TD*%
D14*
%TO.C,J1*%
X76276470Y-118395464D03*
X77126470Y-118395464D03*
X77976470Y-118395464D03*
X78826470Y-118395464D03*
X79676470Y-118395464D03*
X80526470Y-118395464D03*
X81376470Y-118395464D03*
X82226470Y-118395464D03*
X82226470Y-119745464D03*
X81376470Y-119745464D03*
X80526470Y-119745464D03*
X79676470Y-119745464D03*
X78826470Y-119745464D03*
X77976470Y-119745464D03*
X77126470Y-119745464D03*
X76276470Y-119745464D03*
D15*
X74926470Y-122755464D03*
X83576470Y-122755464D03*
D16*
X74926470Y-119375464D03*
X83576470Y-119375464D03*
%TD*%
D11*
%TO.C,REF\u002A\u002A*%
X148750000Y-44500000D03*
%TD*%
D17*
%TO.C,U3*%
X25273000Y-81827000D03*
X25273000Y-82677000D03*
X23823000Y-81827000D03*
X23823000Y-82677000D03*
%TD*%
D18*
%TO.C,tEN1*%
X77089000Y-48260000D03*
%TD*%
D19*
%TO.C,R1*%
X94314000Y-47371000D03*
X96139000Y-47371000D03*
%TD*%
D20*
%TO.C,VR1*%
X98044000Y-54455000D03*
X98044000Y-56755000D03*
X98044000Y-59055000D03*
D21*
X92244000Y-56755000D03*
%TD*%
D12*
%TO.C,U2*%
X48220000Y-121920000D03*
D13*
X45680000Y-121920000D03*
X48220000Y-119380000D03*
X45680000Y-119380000D03*
X48220000Y-116840000D03*
X45680000Y-116840000D03*
X48220000Y-114300000D03*
X45680000Y-114300000D03*
X48220000Y-111760000D03*
X45680000Y-111760000D03*
X48220000Y-109220000D03*
X45680000Y-109220000D03*
X48220000Y-106680000D03*
X45680000Y-106680000D03*
X48220000Y-104140000D03*
X45680000Y-104140000D03*
X48220000Y-101600000D03*
X45680000Y-101600000D03*
X48220000Y-99060000D03*
X45680000Y-99060000D03*
X48220000Y-96520000D03*
X45680000Y-96520000D03*
X48220000Y-93980000D03*
X45680000Y-93980000D03*
X48220000Y-91440000D03*
X45680000Y-91440000D03*
X48220000Y-88920000D03*
X45680000Y-88920000D03*
X48220000Y-86360000D03*
X45680000Y-86360000D03*
X48220000Y-83820000D03*
X45680000Y-83820000D03*
X48220000Y-81280000D03*
X45680000Y-81280000D03*
X48220000Y-78740000D03*
X45680000Y-78740000D03*
X48220000Y-76200000D03*
X45680000Y-76200000D03*
X48220000Y-73660000D03*
X45680000Y-73660000D03*
X48220000Y-71120000D03*
X45680000Y-71120000D03*
X48220000Y-68580000D03*
X45680000Y-68580000D03*
X48220000Y-66040000D03*
X45680000Y-66040000D03*
X48220000Y-63500000D03*
X45680000Y-63500000D03*
X48220000Y-60960000D03*
X45680000Y-60960000D03*
X48220000Y-58420000D03*
X45680000Y-58420000D03*
X48220000Y-55880000D03*
X45680000Y-55880000D03*
X48220000Y-53340000D03*
X45680000Y-53340000D03*
X48220000Y-50800000D03*
X45680000Y-50800000D03*
X48220000Y-48260000D03*
X45680000Y-48260000D03*
X48220000Y-45720000D03*
X45680000Y-45720000D03*
X48220000Y-43180000D03*
X45680000Y-43180000D03*
%TD*%
D12*
%TO.C,U4*%
X109220000Y-121920000D03*
D13*
X106680000Y-121920000D03*
X109220000Y-119380000D03*
X106680000Y-119380000D03*
X109220000Y-116840000D03*
X106680000Y-116840000D03*
X109220000Y-114300000D03*
X106680000Y-114300000D03*
X109220000Y-111760000D03*
X106680000Y-111760000D03*
X109220000Y-109220000D03*
X106680000Y-109220000D03*
X109220000Y-106680000D03*
X106680000Y-106680000D03*
X109220000Y-104140000D03*
X106680000Y-104140000D03*
X109220000Y-101600000D03*
X106680000Y-101600000D03*
X109220000Y-99060000D03*
X106680000Y-99060000D03*
X109220000Y-96520000D03*
X106680000Y-96520000D03*
X109220000Y-93980000D03*
X106680000Y-93980000D03*
X109220000Y-91440000D03*
X106680000Y-91440000D03*
X109220000Y-88900000D03*
X106680000Y-88900000D03*
X109220000Y-86360000D03*
X106680000Y-86360000D03*
X109220000Y-83820000D03*
X106680000Y-83820000D03*
X109220000Y-81280000D03*
X106680000Y-81280000D03*
X109220000Y-78740000D03*
X106680000Y-78740000D03*
X109220000Y-76200000D03*
X106680000Y-76200000D03*
X109220000Y-73660000D03*
X106680000Y-73660000D03*
X109220000Y-71120000D03*
X106680000Y-71120000D03*
X109220000Y-68580000D03*
X106680000Y-68580000D03*
X109220000Y-66040000D03*
X106680000Y-66040000D03*
X109220000Y-63500000D03*
X106680000Y-63500000D03*
X109220000Y-60960000D03*
X106680000Y-60960000D03*
X109220000Y-58420000D03*
X106680000Y-58420000D03*
X109220000Y-55880000D03*
X106680000Y-55880000D03*
X109220000Y-53340000D03*
X106680000Y-53340000D03*
X109220000Y-50800000D03*
X106680000Y-50800000D03*
X109220000Y-48260000D03*
X106680000Y-48260000D03*
X109220000Y-45720000D03*
X106680000Y-45720000D03*
X109220000Y-43180000D03*
X106680000Y-43180000D03*
%TD*%
D22*
%TO.C,C4*%
X74295000Y-48286500D03*
X74295000Y-50011500D03*
%TD*%
D23*
%TO.C,U1*%
X70800000Y-42100000D03*
X70800000Y-43370000D03*
X70800000Y-44640000D03*
X70800000Y-45910000D03*
X70800000Y-47180000D03*
X70800000Y-48450000D03*
X70800000Y-49720000D03*
X70800000Y-50990000D03*
X70800000Y-52260000D03*
X70800000Y-53530000D03*
X70800000Y-54800000D03*
X70800000Y-56070000D03*
X70800000Y-57340000D03*
X70800000Y-58610000D03*
D24*
X69035000Y-59860000D03*
X67765000Y-59860000D03*
X66495000Y-59860000D03*
X65225000Y-59860000D03*
X63955000Y-59860000D03*
X62685000Y-59860000D03*
X61415000Y-59860000D03*
X60145000Y-59860000D03*
X58875000Y-59860000D03*
X57605000Y-59860000D03*
X56335000Y-59860000D03*
X55065000Y-59860000D03*
D23*
X53300000Y-58610000D03*
X53300000Y-57340000D03*
X53300000Y-56070000D03*
X53300000Y-54800000D03*
X53300000Y-53530000D03*
X53300000Y-52260000D03*
X53300000Y-50990000D03*
X53300000Y-49720000D03*
X53300000Y-48450000D03*
X53300000Y-47180000D03*
X53300000Y-45910000D03*
X53300000Y-44640000D03*
X53300000Y-43370000D03*
X53300000Y-42100000D03*
D25*
X64950000Y-50520000D03*
X64950000Y-49120000D03*
X64250000Y-51220000D03*
X64250000Y-49820000D03*
X64250000Y-48420000D03*
X63550000Y-50520000D03*
D26*
X63550000Y-49820000D03*
D25*
X63550000Y-49120000D03*
X62850000Y-51220000D03*
X62850000Y-49820000D03*
X62850000Y-48420000D03*
X62150000Y-50520000D03*
X62150000Y-49120000D03*
%TD*%
D27*
%TO.C,R6*%
X33750000Y-68630000D03*
X31925000Y-68630000D03*
%TD*%
D28*
%TO.C,C5*%
X76300000Y-57300000D03*
X74575000Y-57300000D03*
%TD*%
D29*
%TO.C,D4*%
X23387500Y-71170000D03*
X26362500Y-71170000D03*
%TD*%
D30*
%TO.C,CRD1*%
X38671200Y-53492000D03*
X38671200Y-54592000D03*
X38671200Y-55692000D03*
X38671200Y-56792000D03*
X38671200Y-57892000D03*
X38671200Y-58992000D03*
X38671200Y-60092000D03*
X38671200Y-61192000D03*
D31*
X34371200Y-63092000D03*
D32*
X24021200Y-63092000D03*
D33*
X23571200Y-49592000D03*
D31*
X38671200Y-51942000D03*
D34*
X28171200Y-63092000D03*
D30*
X38671200Y-62142000D03*
%TD*%
D35*
%TO.C,C6*%
X99949000Y-52042000D03*
X99949000Y-49967000D03*
%TD*%
D36*
%TO.C,J2*%
X143519000Y-65554000D03*
X143519000Y-51054000D03*
D37*
X149479000Y-65554000D03*
X149479000Y-51054000D03*
%TD*%
D27*
%TO.C,R4*%
X33750000Y-73710000D03*
X31925000Y-73710000D03*
%TD*%
D29*
%TO.C,D5*%
X23387500Y-68581834D03*
X26362500Y-68581834D03*
%TD*%
D18*
%TO.C,t3V3*%
X90932000Y-52197000D03*
%TD*%
D27*
%TO.C,R3*%
X33750000Y-76250000D03*
X31925000Y-76250000D03*
%TD*%
%TO.C,R5*%
X33750000Y-71170000D03*
X31925000Y-71170000D03*
%TD*%
D29*
%TO.C,D2*%
X23389428Y-76267312D03*
X26364428Y-76267312D03*
%TD*%
D18*
%TO.C,t5V0*%
X112572800Y-43180000D03*
%TD*%
D27*
%TO.C,R2*%
X30861000Y-81153000D03*
X29036000Y-81153000D03*
%TD*%
D18*
%TO.C,tPWR1*%
X74295000Y-115189000D03*
%TD*%
D38*
%TO.C,D1*%
X99150500Y-42545000D03*
X96175500Y-42545000D03*
%TD*%
D39*
%TO.C,SW4*%
X90400000Y-45847000D03*
X82650000Y-45847000D03*
%TD*%
D35*
%TO.C,C7*%
X102997000Y-52042000D03*
X102997000Y-49967000D03*
%TD*%
D27*
%TO.C,R7*%
X30861000Y-83312000D03*
X29036000Y-83312000D03*
%TD*%
D29*
%TO.C,D3*%
X23387500Y-73710000D03*
X26362500Y-73710000D03*
%TD*%
M02*
