M48
; DRILL file {KiCad 8.0.7} date 2025-01-13T22:25:18-0800
; FORMAT={-:-/ absolute / inch / decimal}
; #@! TF.CreationDate,2025-01-13T22:25:18-08:00
; #@! TF.GenerationSoftware,Kicad,Pcbnew,8.0.7
; #@! TF.FileFunction,Plated,1,2,PTH
FMAT,2
INCH
; #@! TA.AperFunction,Plated,PTH,ComponentDrill
T1C0.0079
; #@! TA.AperFunction,Plated,PTH,ViaDrill
T2C0.0157
; #@! TA.AperFunction,Plated,PTH,ComponentDrill
T3C0.0157
; #@! TA.AperFunction,Plated,PTH,ComponentDrill
T4C0.0236
; #@! TA.AperFunction,Plated,PTH,ComponentDrill
T5C0.0354
; #@! TA.AperFunction,Plated,PTH,ComponentDrill
T6C0.0394
; #@! TA.AperFunction,Plated,PTH,ComponentDrill
T7C0.0866
%
G90
G05
T1
X2.4469Y-1.9339
X2.4469Y-1.989
X2.4744Y-1.9063
X2.4744Y-1.9614
X2.4744Y-2.0165
X2.502Y-1.9339
X2.502Y-1.989
X2.5295Y-1.9063
X2.5295Y-1.9614
X2.5295Y-2.0165
X2.5571Y-1.9339
X2.5571Y-1.989
T2
X0.9291Y-3.5
X1.1Y-2.2
X1.38Y-2.35
X1.399Y-3.2383
X1.4Y-2.06
X1.41Y-3.1
X1.4961Y-2.6378
X1.6634Y-2.3228
X1.9961Y-2.3504
X2.003Y-1.778
X2.017Y-1.982
X2.1654Y-2.2913
X2.1703Y-2.1407
X2.1708Y-2.0999
X2.1713Y-2.0571
X2.372Y-2.8642
X2.4567Y-1.6496
X2.4724Y-2.2717
X2.638Y-1.739
X2.6811Y-2.1417
X2.7244Y-1.7362
X2.975Y-2.505
X3.0039Y-2.2047
X3.045Y-2.435
X3.075Y-2.7052
X3.075Y-2.95
X3.075Y-3.1777
X3.075Y-3.4224
X3.075Y-3.6501
X3.075Y-3.8949
X3.075Y-4.1226
X3.075Y-4.3673
X3.075Y-4.595
X3.095Y-2.065
X3.165Y-2.7052
X3.165Y-2.95
X3.165Y-3.1777
X3.165Y-3.4224
X3.165Y-3.6501
X3.165Y-3.8949
X3.165Y-4.1226
X3.165Y-4.3673
X3.165Y-4.595
X3.205Y-4.845
X3.325Y-2.315
X3.61Y-1.945
X3.745Y-2.145
X3.96Y-2.63
X4.455Y-4.105
X4.49Y-2.53
X4.53Y-3.195
X4.54Y-2.105
X4.645Y-4.66
X4.85Y-2.42
X4.98Y-2.33
X5.075Y-4.555
X5.095Y-2.23
X5.1Y-2.11
X5.2Y-2.52
X5.27Y-2.28
X5.44Y-2.21
X5.87Y-2.29
T3
X3.003Y-4.6612
X3.003Y-4.7144
X3.0365Y-4.6612
X3.0365Y-4.7144
X3.0699Y-4.6612
X3.0699Y-4.7144
X3.1034Y-4.6612
X3.1034Y-4.7144
X3.1369Y-4.6612
X3.1369Y-4.7144
X3.1703Y-4.6612
X3.1703Y-4.7144
X3.2038Y-4.6612
X3.2038Y-4.7144
X3.2373Y-4.6612
X3.2373Y-4.7144
T6
X1.7984Y-1.7
X1.7984Y-1.8
X1.7984Y-1.9
X1.7984Y-2.0
X1.7984Y-2.1
X1.7984Y-2.2
X1.7984Y-2.3
X1.7984Y-2.4
X1.7984Y-2.5
X1.7984Y-2.6
X1.7984Y-2.7
X1.7984Y-2.8
X1.7984Y-2.9
X1.7984Y-3.0
X1.7984Y-3.1
X1.7984Y-3.2
X1.7984Y-3.3
X1.7984Y-3.4
X1.7984Y-3.5008
X1.7984Y-3.6
X1.7984Y-3.7
X1.7984Y-3.8
X1.7984Y-3.9
X1.7984Y-4.0
X1.7984Y-4.1
X1.7984Y-4.2
X1.7984Y-4.3
X1.7984Y-4.4
X1.7984Y-4.5
X1.7984Y-4.6
X1.7984Y-4.7
X1.7984Y-4.8
X1.8984Y-1.7
X1.8984Y-1.8
X1.8984Y-1.9
X1.8984Y-2.0
X1.8984Y-2.1
X1.8984Y-2.2
X1.8984Y-2.3
X1.8984Y-2.4
X1.8984Y-2.5
X1.8984Y-2.6
X1.8984Y-2.7
X1.8984Y-2.8
X1.8984Y-2.9
X1.8984Y-3.0
X1.8984Y-3.1
X1.8984Y-3.2
X1.8984Y-3.3
X1.8984Y-3.4
X1.8984Y-3.5008
X1.8984Y-3.6
X1.8984Y-3.7
X1.8984Y-3.8
X1.8984Y-3.9
X1.8984Y-4.0
X1.8984Y-4.1
X1.8984Y-4.2
X1.8984Y-4.3
X1.8984Y-4.4
X1.8984Y-4.5
X1.8984Y-4.6
X1.8984Y-4.7
X1.8984Y-4.8
X4.2Y-1.7
X4.2Y-1.8
X4.2Y-1.9
X4.2Y-2.0
X4.2Y-2.1
X4.2Y-2.2
X4.2Y-2.3
X4.2Y-2.4
X4.2Y-2.5
X4.2Y-2.6
X4.2Y-2.7
X4.2Y-2.8
X4.2Y-2.9
X4.2Y-3.0
X4.2Y-3.1
X4.2Y-3.2
X4.2Y-3.3
X4.2Y-3.4
X4.2Y-3.5
X4.2Y-3.6
X4.2Y-3.7
X4.2Y-3.8
X4.2Y-3.9
X4.2Y-4.0
X4.2Y-4.1
X4.2Y-4.2
X4.2Y-4.3
X4.2Y-4.4
X4.2Y-4.5
X4.2Y-4.6
X4.2Y-4.7
X4.2Y-4.8
X4.3Y-1.7
X4.3Y-1.8
X4.3Y-1.9
X4.3Y-2.0
X4.3Y-2.1
X4.3Y-2.2
X4.3Y-2.3
X4.3Y-2.4
X4.3Y-2.5
X4.3Y-2.6
X4.3Y-2.7
X4.3Y-2.8
X4.3Y-2.9
X4.3Y-3.0
X4.3Y-3.1
X4.3Y-3.2
X4.3Y-3.3
X4.3Y-3.4
X4.3Y-3.5
X4.3Y-3.6
X4.3Y-3.7
X4.3Y-3.8
X4.3Y-3.9
X4.3Y-4.0
X4.3Y-4.1
X4.3Y-4.2
X4.3Y-4.3
X4.3Y-4.4
X4.3Y-4.5
X4.3Y-4.6
X4.3Y-4.7
X4.3Y-4.8
X4.8386Y-4.748
X4.9386Y-4.748
X5.0386Y-4.748
X5.1386Y-4.748
X5.2386Y-4.748
X5.3386Y-4.748
T7
X1.0531Y-1.752
X1.0531Y-4.7441
X5.8563Y-1.752
X5.8563Y-4.7441
T4
G00X2.9499Y-4.6703
M15
G01X2.9499Y-4.7293
M16
G05
G00X2.9499Y-4.8171
M15
G01X2.9499Y-4.8486
M16
G05
G00X3.2904Y-4.6703
M15
G01X3.2904Y-4.7293
M16
G05
G00X3.2904Y-4.8171
M15
G01X3.2904Y-4.8486
M16
G05
T5
G00X5.6858Y-2.01
M15
G01X5.6149Y-2.01
M16
G05
G00X5.6858Y-2.5809
M15
G01X5.6149Y-2.5809
M16
G05
G00X5.9007Y-2.01
M15
G01X5.8693Y-2.01
M16
G05
G00X5.9007Y-2.5809
M15
G01X5.8693Y-2.5809
M16
G05
M30
