%TF.GenerationSoftware,KiCad,Pcbnew,7.0.1*%
%TF.CreationDate,2023-08-12T22:54:04-07:00*%
%TF.ProjectId,expansionboardA,65787061-6e73-4696-9f6e-626f61726441,3*%
%TF.SameCoordinates,Original*%
%TF.FileFunction,Drillmap*%
%TF.FilePolarity,Positive*%
%FSLAX45Y45*%
G04 Gerber Fmt 4.5, Leading zero omitted, Abs format (unit mm)*
G04 Created by KiCad (PCBNEW 7.0.1) date 2023-08-12 22:54:04*
%MOMM*%
%LPD*%
G01*
G04 APERTURE LIST*
%ADD10C,0.010000*%
%ADD11C,0.200000*%
%ADD12C,0.170000*%
%ADD13C,0.220000*%
G04 APERTURE END LIST*
D10*
X5281600Y-2803840D02*
G75*
G03*
X5181600Y-2903843I0J-100000D01*
G01*
X2667000Y-10156577D02*
X2667000Y-6627800D01*
X13309599Y-8214711D02*
G75*
G03*
X13291236Y-8094903I-400019J2D01*
G01*
X2229800Y-6235700D02*
G75*
G03*
X2209800Y-6255700I0J-20000D01*
G01*
X4514801Y-12450828D02*
X12909600Y-12450800D01*
X2567000Y-6527800D02*
X2309800Y-6527800D01*
X3167207Y-10690120D02*
X2696413Y-10227410D01*
X8178800Y-6083300D02*
X7073900Y-6083300D01*
X7073900Y-5715000D01*
X8178800Y-5715000D01*
X8178800Y-6083300D01*
X2209800Y-6427800D02*
G75*
G03*
X2309800Y-6527800I100000J0D01*
G01*
X13309600Y-4473843D02*
G75*
G03*
X12909600Y-4073840I-400000J3D01*
G01*
X3923043Y-4749803D02*
G75*
G03*
X4023043Y-4649800I-3J100003D01*
G01*
X5081600Y-3515043D02*
X4423043Y-3515043D01*
X4114800Y-12050828D02*
X4114800Y-10818800D01*
X4114802Y-12050828D02*
G75*
G03*
X4514801Y-12450828I399998J-2D01*
G01*
X2229800Y-5105400D02*
X2238700Y-5105400D01*
X2209800Y-5085400D02*
G75*
G03*
X2229800Y-5105400I20000J0D01*
G01*
X13309600Y-12050800D02*
X13309600Y-8214711D01*
X7389800Y-4073843D02*
X12909600Y-4073840D01*
X2238700Y-6235700D02*
G75*
G03*
X2298700Y-6175700I0J60000D01*
G01*
X4014800Y-10718800D02*
X3237302Y-10718800D01*
X4114800Y-10818800D02*
G75*
G03*
X4014800Y-10718800I-100000J0D01*
G01*
X2298700Y-5165400D02*
X2298700Y-6175700D01*
X4023043Y-3915043D02*
X4023043Y-4649800D01*
X5081600Y-3515040D02*
G75*
G03*
X5181600Y-3415043I0J100000D01*
G01*
X2298700Y-5165400D02*
G75*
G03*
X2238700Y-5105400I-60000J0D01*
G01*
X9588500Y-9283700D02*
X8801100Y-10071100D01*
X8534400Y-9804400D01*
X9321800Y-9017000D01*
X9588500Y-9283700D01*
X3923043Y-4749800D02*
X2309800Y-4749800D01*
X4423043Y-3515043D02*
G75*
G03*
X4023043Y-3915043I0J-400000D01*
G01*
X3167207Y-10690119D02*
G75*
G03*
X3237302Y-10718800I70093J71309D01*
G01*
X13294218Y-5946654D02*
G75*
G03*
X13309600Y-5836792I-384658J109864D01*
G01*
X12909600Y-12450800D02*
G75*
G03*
X13309600Y-12050800I0J400000D01*
G01*
X7289800Y-3973843D02*
G75*
G03*
X7389800Y-4073840I100000J3D01*
G01*
X5181600Y-2903843D02*
X5181600Y-3415043D01*
X7189800Y-2803843D02*
X5281600Y-2803843D01*
X7289797Y-2903843D02*
G75*
G03*
X7189800Y-2803843I-99997J3D01*
G01*
X2309800Y-4749800D02*
G75*
G03*
X2209800Y-4849800I0J-100000D01*
G01*
X2209800Y-4849800D02*
X2209800Y-5085400D01*
X13309600Y-5836792D02*
X13309600Y-4473843D01*
X13245200Y-6118260D02*
X13294217Y-5946654D01*
X2229800Y-6235700D02*
X2238700Y-6235700D01*
X2209800Y-6255700D02*
X2209800Y-6427800D01*
X13291236Y-8094903D02*
X13245200Y-7948260D01*
X2667000Y-6627800D02*
G75*
G03*
X2567000Y-6527800I-100000J0D01*
G01*
X7289800Y-2903843D02*
X7289800Y-3973843D01*
X2666998Y-10156577D02*
G75*
G03*
X2696413Y-10227410I100012J7D01*
G01*
D11*
D12*
X12144700Y-9806600D02*
X12314700Y-9976600D01*
X12314700Y-9806600D02*
X12144700Y-9976600D01*
X12844700Y-9806600D02*
X13014700Y-9976600D01*
X13014700Y-9806600D02*
X12844700Y-9976600D01*
D13*
X8365000Y-7747000D02*
G75*
G03*
X8365000Y-7747000I-110000J0D01*
G01*
D11*
X2456919Y-12763852D02*
X2456919Y-12563852D01*
X2456919Y-12563852D02*
X2504538Y-12563852D01*
X2504538Y-12563852D02*
X2533110Y-12573376D01*
X2533110Y-12573376D02*
X2552157Y-12592423D01*
X2552157Y-12592423D02*
X2561681Y-12611471D01*
X2561681Y-12611471D02*
X2571205Y-12649566D01*
X2571205Y-12649566D02*
X2571205Y-12678137D01*
X2571205Y-12678137D02*
X2561681Y-12716233D01*
X2561681Y-12716233D02*
X2552157Y-12735280D01*
X2552157Y-12735280D02*
X2533110Y-12754328D01*
X2533110Y-12754328D02*
X2504538Y-12763852D01*
X2504538Y-12763852D02*
X2456919Y-12763852D01*
X2656919Y-12763852D02*
X2656919Y-12630518D01*
X2656919Y-12668614D02*
X2666443Y-12649566D01*
X2666443Y-12649566D02*
X2675967Y-12640042D01*
X2675967Y-12640042D02*
X2695014Y-12630518D01*
X2695014Y-12630518D02*
X2714062Y-12630518D01*
X2780729Y-12763852D02*
X2780729Y-12630518D01*
X2780729Y-12563852D02*
X2771205Y-12573376D01*
X2771205Y-12573376D02*
X2780729Y-12582899D01*
X2780729Y-12582899D02*
X2790252Y-12573376D01*
X2790252Y-12573376D02*
X2780729Y-12563852D01*
X2780729Y-12563852D02*
X2780729Y-12582899D01*
X2904538Y-12763852D02*
X2885490Y-12754328D01*
X2885490Y-12754328D02*
X2875967Y-12735280D01*
X2875967Y-12735280D02*
X2875967Y-12563852D01*
X3009300Y-12763852D02*
X2990252Y-12754328D01*
X2990252Y-12754328D02*
X2980728Y-12735280D01*
X2980728Y-12735280D02*
X2980728Y-12563852D01*
X3237871Y-12763852D02*
X3237871Y-12563852D01*
X3237871Y-12563852D02*
X3304538Y-12706709D01*
X3304538Y-12706709D02*
X3371205Y-12563852D01*
X3371205Y-12563852D02*
X3371205Y-12763852D01*
X3552157Y-12763852D02*
X3552157Y-12659090D01*
X3552157Y-12659090D02*
X3542633Y-12640042D01*
X3542633Y-12640042D02*
X3523586Y-12630518D01*
X3523586Y-12630518D02*
X3485490Y-12630518D01*
X3485490Y-12630518D02*
X3466443Y-12640042D01*
X3552157Y-12754328D02*
X3533109Y-12763852D01*
X3533109Y-12763852D02*
X3485490Y-12763852D01*
X3485490Y-12763852D02*
X3466443Y-12754328D01*
X3466443Y-12754328D02*
X3456919Y-12735280D01*
X3456919Y-12735280D02*
X3456919Y-12716233D01*
X3456919Y-12716233D02*
X3466443Y-12697185D01*
X3466443Y-12697185D02*
X3485490Y-12687661D01*
X3485490Y-12687661D02*
X3533109Y-12687661D01*
X3533109Y-12687661D02*
X3552157Y-12678137D01*
X3647395Y-12630518D02*
X3647395Y-12830518D01*
X3647395Y-12640042D02*
X3666443Y-12630518D01*
X3666443Y-12630518D02*
X3704538Y-12630518D01*
X3704538Y-12630518D02*
X3723586Y-12640042D01*
X3723586Y-12640042D02*
X3733109Y-12649566D01*
X3733109Y-12649566D02*
X3742633Y-12668614D01*
X3742633Y-12668614D02*
X3742633Y-12725756D01*
X3742633Y-12725756D02*
X3733109Y-12744804D01*
X3733109Y-12744804D02*
X3723586Y-12754328D01*
X3723586Y-12754328D02*
X3704538Y-12763852D01*
X3704538Y-12763852D02*
X3666443Y-12763852D01*
X3666443Y-12763852D02*
X3647395Y-12754328D01*
X3828348Y-12744804D02*
X3837871Y-12754328D01*
X3837871Y-12754328D02*
X3828348Y-12763852D01*
X3828348Y-12763852D02*
X3818824Y-12754328D01*
X3818824Y-12754328D02*
X3828348Y-12744804D01*
X3828348Y-12744804D02*
X3828348Y-12763852D01*
X3828348Y-12640042D02*
X3837871Y-12649566D01*
X3837871Y-12649566D02*
X3828348Y-12659090D01*
X3828348Y-12659090D02*
X3818824Y-12649566D01*
X3818824Y-12649566D02*
X3828348Y-12640042D01*
X3828348Y-12640042D02*
X3828348Y-12659090D01*
D12*
X2039300Y-13006328D02*
X2209300Y-13176328D01*
X2209300Y-13006328D02*
X2039300Y-13176328D01*
D11*
X2561681Y-13183852D02*
X2447395Y-13183852D01*
X2504538Y-13183852D02*
X2504538Y-12983852D01*
X2504538Y-12983852D02*
X2485490Y-13012423D01*
X2485490Y-13012423D02*
X2466443Y-13031471D01*
X2466443Y-13031471D02*
X2447395Y-13040995D01*
X2647395Y-13164804D02*
X2656919Y-13174328D01*
X2656919Y-13174328D02*
X2647395Y-13183852D01*
X2647395Y-13183852D02*
X2637871Y-13174328D01*
X2637871Y-13174328D02*
X2647395Y-13164804D01*
X2647395Y-13164804D02*
X2647395Y-13183852D01*
X2723586Y-12983852D02*
X2856919Y-12983852D01*
X2856919Y-12983852D02*
X2771205Y-13183852D01*
X2971205Y-12983852D02*
X2990252Y-12983852D01*
X2990252Y-12983852D02*
X3009300Y-12993376D01*
X3009300Y-12993376D02*
X3018824Y-13002899D01*
X3018824Y-13002899D02*
X3028348Y-13021947D01*
X3028348Y-13021947D02*
X3037871Y-13060042D01*
X3037871Y-13060042D02*
X3037871Y-13107661D01*
X3037871Y-13107661D02*
X3028348Y-13145756D01*
X3028348Y-13145756D02*
X3018824Y-13164804D01*
X3018824Y-13164804D02*
X3009300Y-13174328D01*
X3009300Y-13174328D02*
X2990252Y-13183852D01*
X2990252Y-13183852D02*
X2971205Y-13183852D01*
X2971205Y-13183852D02*
X2952157Y-13174328D01*
X2952157Y-13174328D02*
X2942633Y-13164804D01*
X2942633Y-13164804D02*
X2933109Y-13145756D01*
X2933109Y-13145756D02*
X2923586Y-13107661D01*
X2923586Y-13107661D02*
X2923586Y-13060042D01*
X2923586Y-13060042D02*
X2933109Y-13021947D01*
X2933109Y-13021947D02*
X2942633Y-13002899D01*
X2942633Y-13002899D02*
X2952157Y-12993376D01*
X2952157Y-12993376D02*
X2971205Y-12983852D01*
X3161681Y-12983852D02*
X3180729Y-12983852D01*
X3180729Y-12983852D02*
X3199776Y-12993376D01*
X3199776Y-12993376D02*
X3209300Y-13002899D01*
X3209300Y-13002899D02*
X3218824Y-13021947D01*
X3218824Y-13021947D02*
X3228348Y-13060042D01*
X3228348Y-13060042D02*
X3228348Y-13107661D01*
X3228348Y-13107661D02*
X3218824Y-13145756D01*
X3218824Y-13145756D02*
X3209300Y-13164804D01*
X3209300Y-13164804D02*
X3199776Y-13174328D01*
X3199776Y-13174328D02*
X3180729Y-13183852D01*
X3180729Y-13183852D02*
X3161681Y-13183852D01*
X3161681Y-13183852D02*
X3142633Y-13174328D01*
X3142633Y-13174328D02*
X3133109Y-13164804D01*
X3133109Y-13164804D02*
X3123586Y-13145756D01*
X3123586Y-13145756D02*
X3114062Y-13107661D01*
X3114062Y-13107661D02*
X3114062Y-13060042D01*
X3114062Y-13060042D02*
X3123586Y-13021947D01*
X3123586Y-13021947D02*
X3133109Y-13002899D01*
X3133109Y-13002899D02*
X3142633Y-12993376D01*
X3142633Y-12993376D02*
X3161681Y-12983852D01*
X3314062Y-13183852D02*
X3314062Y-13050518D01*
X3314062Y-13069566D02*
X3323586Y-13060042D01*
X3323586Y-13060042D02*
X3342633Y-13050518D01*
X3342633Y-13050518D02*
X3371205Y-13050518D01*
X3371205Y-13050518D02*
X3390252Y-13060042D01*
X3390252Y-13060042D02*
X3399776Y-13079090D01*
X3399776Y-13079090D02*
X3399776Y-13183852D01*
X3399776Y-13079090D02*
X3409300Y-13060042D01*
X3409300Y-13060042D02*
X3428348Y-13050518D01*
X3428348Y-13050518D02*
X3456919Y-13050518D01*
X3456919Y-13050518D02*
X3475967Y-13060042D01*
X3475967Y-13060042D02*
X3485490Y-13079090D01*
X3485490Y-13079090D02*
X3485490Y-13183852D01*
X3580729Y-13183852D02*
X3580729Y-13050518D01*
X3580729Y-13069566D02*
X3590252Y-13060042D01*
X3590252Y-13060042D02*
X3609300Y-13050518D01*
X3609300Y-13050518D02*
X3637871Y-13050518D01*
X3637871Y-13050518D02*
X3656919Y-13060042D01*
X3656919Y-13060042D02*
X3666443Y-13079090D01*
X3666443Y-13079090D02*
X3666443Y-13183852D01*
X3666443Y-13079090D02*
X3675967Y-13060042D01*
X3675967Y-13060042D02*
X3695014Y-13050518D01*
X3695014Y-13050518D02*
X3723586Y-13050518D01*
X3723586Y-13050518D02*
X3742633Y-13060042D01*
X3742633Y-13060042D02*
X3752157Y-13079090D01*
X3752157Y-13079090D02*
X3752157Y-13183852D01*
X4142633Y-12974328D02*
X3971205Y-13231471D01*
X4399776Y-12983852D02*
X4418824Y-12983852D01*
X4418824Y-12983852D02*
X4437872Y-12993376D01*
X4437872Y-12993376D02*
X4447395Y-13002899D01*
X4447395Y-13002899D02*
X4456919Y-13021947D01*
X4456919Y-13021947D02*
X4466443Y-13060042D01*
X4466443Y-13060042D02*
X4466443Y-13107661D01*
X4466443Y-13107661D02*
X4456919Y-13145756D01*
X4456919Y-13145756D02*
X4447395Y-13164804D01*
X4447395Y-13164804D02*
X4437872Y-13174328D01*
X4437872Y-13174328D02*
X4418824Y-13183852D01*
X4418824Y-13183852D02*
X4399776Y-13183852D01*
X4399776Y-13183852D02*
X4380729Y-13174328D01*
X4380729Y-13174328D02*
X4371205Y-13164804D01*
X4371205Y-13164804D02*
X4361681Y-13145756D01*
X4361681Y-13145756D02*
X4352157Y-13107661D01*
X4352157Y-13107661D02*
X4352157Y-13060042D01*
X4352157Y-13060042D02*
X4361681Y-13021947D01*
X4361681Y-13021947D02*
X4371205Y-13002899D01*
X4371205Y-13002899D02*
X4380729Y-12993376D01*
X4380729Y-12993376D02*
X4399776Y-12983852D01*
X4552157Y-13164804D02*
X4561681Y-13174328D01*
X4561681Y-13174328D02*
X4552157Y-13183852D01*
X4552157Y-13183852D02*
X4542634Y-13174328D01*
X4542634Y-13174328D02*
X4552157Y-13164804D01*
X4552157Y-13164804D02*
X4552157Y-13183852D01*
X4685491Y-12983852D02*
X4704538Y-12983852D01*
X4704538Y-12983852D02*
X4723586Y-12993376D01*
X4723586Y-12993376D02*
X4733110Y-13002899D01*
X4733110Y-13002899D02*
X4742634Y-13021947D01*
X4742634Y-13021947D02*
X4752157Y-13060042D01*
X4752157Y-13060042D02*
X4752157Y-13107661D01*
X4752157Y-13107661D02*
X4742634Y-13145756D01*
X4742634Y-13145756D02*
X4733110Y-13164804D01*
X4733110Y-13164804D02*
X4723586Y-13174328D01*
X4723586Y-13174328D02*
X4704538Y-13183852D01*
X4704538Y-13183852D02*
X4685491Y-13183852D01*
X4685491Y-13183852D02*
X4666443Y-13174328D01*
X4666443Y-13174328D02*
X4656919Y-13164804D01*
X4656919Y-13164804D02*
X4647395Y-13145756D01*
X4647395Y-13145756D02*
X4637872Y-13107661D01*
X4637872Y-13107661D02*
X4637872Y-13060042D01*
X4637872Y-13060042D02*
X4647395Y-13021947D01*
X4647395Y-13021947D02*
X4656919Y-13002899D01*
X4656919Y-13002899D02*
X4666443Y-12993376D01*
X4666443Y-12993376D02*
X4685491Y-12983852D01*
X4923586Y-12983852D02*
X4885491Y-12983852D01*
X4885491Y-12983852D02*
X4866443Y-12993376D01*
X4866443Y-12993376D02*
X4856919Y-13002899D01*
X4856919Y-13002899D02*
X4837872Y-13031471D01*
X4837872Y-13031471D02*
X4828348Y-13069566D01*
X4828348Y-13069566D02*
X4828348Y-13145756D01*
X4828348Y-13145756D02*
X4837872Y-13164804D01*
X4837872Y-13164804D02*
X4847395Y-13174328D01*
X4847395Y-13174328D02*
X4866443Y-13183852D01*
X4866443Y-13183852D02*
X4904538Y-13183852D01*
X4904538Y-13183852D02*
X4923586Y-13174328D01*
X4923586Y-13174328D02*
X4933110Y-13164804D01*
X4933110Y-13164804D02*
X4942634Y-13145756D01*
X4942634Y-13145756D02*
X4942634Y-13098137D01*
X4942634Y-13098137D02*
X4933110Y-13079090D01*
X4933110Y-13079090D02*
X4923586Y-13069566D01*
X4923586Y-13069566D02*
X4904538Y-13060042D01*
X4904538Y-13060042D02*
X4866443Y-13060042D01*
X4866443Y-13060042D02*
X4847395Y-13069566D01*
X4847395Y-13069566D02*
X4837872Y-13079090D01*
X4837872Y-13079090D02*
X4828348Y-13098137D01*
X5114062Y-12983852D02*
X5075967Y-12983852D01*
X5075967Y-12983852D02*
X5056919Y-12993376D01*
X5056919Y-12993376D02*
X5047395Y-13002899D01*
X5047395Y-13002899D02*
X5028348Y-13031471D01*
X5028348Y-13031471D02*
X5018824Y-13069566D01*
X5018824Y-13069566D02*
X5018824Y-13145756D01*
X5018824Y-13145756D02*
X5028348Y-13164804D01*
X5028348Y-13164804D02*
X5037872Y-13174328D01*
X5037872Y-13174328D02*
X5056919Y-13183852D01*
X5056919Y-13183852D02*
X5095015Y-13183852D01*
X5095015Y-13183852D02*
X5114062Y-13174328D01*
X5114062Y-13174328D02*
X5123586Y-13164804D01*
X5123586Y-13164804D02*
X5133110Y-13145756D01*
X5133110Y-13145756D02*
X5133110Y-13098137D01*
X5133110Y-13098137D02*
X5123586Y-13079090D01*
X5123586Y-13079090D02*
X5114062Y-13069566D01*
X5114062Y-13069566D02*
X5095015Y-13060042D01*
X5095015Y-13060042D02*
X5056919Y-13060042D01*
X5056919Y-13060042D02*
X5037872Y-13069566D01*
X5037872Y-13069566D02*
X5028348Y-13079090D01*
X5028348Y-13079090D02*
X5018824Y-13098137D01*
X5228348Y-13183852D02*
X5266443Y-13183852D01*
X5266443Y-13183852D02*
X5285491Y-13174328D01*
X5285491Y-13174328D02*
X5295015Y-13164804D01*
X5295015Y-13164804D02*
X5314062Y-13136233D01*
X5314062Y-13136233D02*
X5323586Y-13098137D01*
X5323586Y-13098137D02*
X5323586Y-13021947D01*
X5323586Y-13021947D02*
X5314062Y-13002899D01*
X5314062Y-13002899D02*
X5304538Y-12993376D01*
X5304538Y-12993376D02*
X5285491Y-12983852D01*
X5285491Y-12983852D02*
X5247395Y-12983852D01*
X5247395Y-12983852D02*
X5228348Y-12993376D01*
X5228348Y-12993376D02*
X5218824Y-13002899D01*
X5218824Y-13002899D02*
X5209300Y-13021947D01*
X5209300Y-13021947D02*
X5209300Y-13069566D01*
X5209300Y-13069566D02*
X5218824Y-13088614D01*
X5218824Y-13088614D02*
X5228348Y-13098137D01*
X5228348Y-13098137D02*
X5247395Y-13107661D01*
X5247395Y-13107661D02*
X5285491Y-13107661D01*
X5285491Y-13107661D02*
X5304538Y-13098137D01*
X5304538Y-13098137D02*
X5314062Y-13088614D01*
X5314062Y-13088614D02*
X5323586Y-13069566D01*
X5399776Y-12983852D02*
X5399776Y-13021947D01*
X5475967Y-12983852D02*
X5475967Y-13021947D01*
X5771205Y-13260042D02*
X5761681Y-13250518D01*
X5761681Y-13250518D02*
X5742634Y-13221947D01*
X5742634Y-13221947D02*
X5733110Y-13202899D01*
X5733110Y-13202899D02*
X5723586Y-13174328D01*
X5723586Y-13174328D02*
X5714062Y-13126709D01*
X5714062Y-13126709D02*
X5714062Y-13088614D01*
X5714062Y-13088614D02*
X5723586Y-13040995D01*
X5723586Y-13040995D02*
X5733110Y-13012423D01*
X5733110Y-13012423D02*
X5742634Y-12993376D01*
X5742634Y-12993376D02*
X5761681Y-12964804D01*
X5761681Y-12964804D02*
X5771205Y-12955280D01*
X5837872Y-13002899D02*
X5847395Y-12993376D01*
X5847395Y-12993376D02*
X5866443Y-12983852D01*
X5866443Y-12983852D02*
X5914062Y-12983852D01*
X5914062Y-12983852D02*
X5933110Y-12993376D01*
X5933110Y-12993376D02*
X5942634Y-13002899D01*
X5942634Y-13002899D02*
X5952157Y-13021947D01*
X5952157Y-13021947D02*
X5952157Y-13040995D01*
X5952157Y-13040995D02*
X5942634Y-13069566D01*
X5942634Y-13069566D02*
X5828348Y-13183852D01*
X5828348Y-13183852D02*
X5952157Y-13183852D01*
X6190253Y-13183852D02*
X6190253Y-12983852D01*
X6275967Y-13183852D02*
X6275967Y-13079090D01*
X6275967Y-13079090D02*
X6266443Y-13060042D01*
X6266443Y-13060042D02*
X6247396Y-13050518D01*
X6247396Y-13050518D02*
X6218824Y-13050518D01*
X6218824Y-13050518D02*
X6199776Y-13060042D01*
X6199776Y-13060042D02*
X6190253Y-13069566D01*
X6399776Y-13183852D02*
X6380729Y-13174328D01*
X6380729Y-13174328D02*
X6371205Y-13164804D01*
X6371205Y-13164804D02*
X6361681Y-13145756D01*
X6361681Y-13145756D02*
X6361681Y-13088614D01*
X6361681Y-13088614D02*
X6371205Y-13069566D01*
X6371205Y-13069566D02*
X6380729Y-13060042D01*
X6380729Y-13060042D02*
X6399776Y-13050518D01*
X6399776Y-13050518D02*
X6428348Y-13050518D01*
X6428348Y-13050518D02*
X6447396Y-13060042D01*
X6447396Y-13060042D02*
X6456919Y-13069566D01*
X6456919Y-13069566D02*
X6466443Y-13088614D01*
X6466443Y-13088614D02*
X6466443Y-13145756D01*
X6466443Y-13145756D02*
X6456919Y-13164804D01*
X6456919Y-13164804D02*
X6447396Y-13174328D01*
X6447396Y-13174328D02*
X6428348Y-13183852D01*
X6428348Y-13183852D02*
X6399776Y-13183852D01*
X6580729Y-13183852D02*
X6561681Y-13174328D01*
X6561681Y-13174328D02*
X6552157Y-13155280D01*
X6552157Y-13155280D02*
X6552157Y-12983852D01*
X6733110Y-13174328D02*
X6714062Y-13183852D01*
X6714062Y-13183852D02*
X6675967Y-13183852D01*
X6675967Y-13183852D02*
X6656919Y-13174328D01*
X6656919Y-13174328D02*
X6647396Y-13155280D01*
X6647396Y-13155280D02*
X6647396Y-13079090D01*
X6647396Y-13079090D02*
X6656919Y-13060042D01*
X6656919Y-13060042D02*
X6675967Y-13050518D01*
X6675967Y-13050518D02*
X6714062Y-13050518D01*
X6714062Y-13050518D02*
X6733110Y-13060042D01*
X6733110Y-13060042D02*
X6742634Y-13079090D01*
X6742634Y-13079090D02*
X6742634Y-13098137D01*
X6742634Y-13098137D02*
X6647396Y-13117185D01*
X6818824Y-13174328D02*
X6837872Y-13183852D01*
X6837872Y-13183852D02*
X6875967Y-13183852D01*
X6875967Y-13183852D02*
X6895015Y-13174328D01*
X6895015Y-13174328D02*
X6904538Y-13155280D01*
X6904538Y-13155280D02*
X6904538Y-13145756D01*
X6904538Y-13145756D02*
X6895015Y-13126709D01*
X6895015Y-13126709D02*
X6875967Y-13117185D01*
X6875967Y-13117185D02*
X6847396Y-13117185D01*
X6847396Y-13117185D02*
X6828348Y-13107661D01*
X6828348Y-13107661D02*
X6818824Y-13088614D01*
X6818824Y-13088614D02*
X6818824Y-13079090D01*
X6818824Y-13079090D02*
X6828348Y-13060042D01*
X6828348Y-13060042D02*
X6847396Y-13050518D01*
X6847396Y-13050518D02*
X6875967Y-13050518D01*
X6875967Y-13050518D02*
X6895015Y-13060042D01*
X6971205Y-13260042D02*
X6980729Y-13250518D01*
X6980729Y-13250518D02*
X6999777Y-13221947D01*
X6999777Y-13221947D02*
X7009300Y-13202899D01*
X7009300Y-13202899D02*
X7018824Y-13174328D01*
X7018824Y-13174328D02*
X7028348Y-13126709D01*
X7028348Y-13126709D02*
X7028348Y-13088614D01*
X7028348Y-13088614D02*
X7018824Y-13040995D01*
X7018824Y-13040995D02*
X7009300Y-13012423D01*
X7009300Y-13012423D02*
X6999777Y-12993376D01*
X6999777Y-12993376D02*
X6980729Y-12964804D01*
X6980729Y-12964804D02*
X6971205Y-12955280D01*
X7333110Y-13260042D02*
X7323586Y-13250518D01*
X7323586Y-13250518D02*
X7304538Y-13221947D01*
X7304538Y-13221947D02*
X7295015Y-13202899D01*
X7295015Y-13202899D02*
X7285491Y-13174328D01*
X7285491Y-13174328D02*
X7275967Y-13126709D01*
X7275967Y-13126709D02*
X7275967Y-13088614D01*
X7275967Y-13088614D02*
X7285491Y-13040995D01*
X7285491Y-13040995D02*
X7295015Y-13012423D01*
X7295015Y-13012423D02*
X7304538Y-12993376D01*
X7304538Y-12993376D02*
X7323586Y-12964804D01*
X7323586Y-12964804D02*
X7333110Y-12955280D01*
X7409300Y-13050518D02*
X7409300Y-13183852D01*
X7409300Y-13069566D02*
X7418824Y-13060042D01*
X7418824Y-13060042D02*
X7437872Y-13050518D01*
X7437872Y-13050518D02*
X7466443Y-13050518D01*
X7466443Y-13050518D02*
X7485491Y-13060042D01*
X7485491Y-13060042D02*
X7495015Y-13079090D01*
X7495015Y-13079090D02*
X7495015Y-13183852D01*
X7618824Y-13183852D02*
X7599777Y-13174328D01*
X7599777Y-13174328D02*
X7590253Y-13164804D01*
X7590253Y-13164804D02*
X7580729Y-13145756D01*
X7580729Y-13145756D02*
X7580729Y-13088614D01*
X7580729Y-13088614D02*
X7590253Y-13069566D01*
X7590253Y-13069566D02*
X7599777Y-13060042D01*
X7599777Y-13060042D02*
X7618824Y-13050518D01*
X7618824Y-13050518D02*
X7647396Y-13050518D01*
X7647396Y-13050518D02*
X7666443Y-13060042D01*
X7666443Y-13060042D02*
X7675967Y-13069566D01*
X7675967Y-13069566D02*
X7685491Y-13088614D01*
X7685491Y-13088614D02*
X7685491Y-13145756D01*
X7685491Y-13145756D02*
X7675967Y-13164804D01*
X7675967Y-13164804D02*
X7666443Y-13174328D01*
X7666443Y-13174328D02*
X7647396Y-13183852D01*
X7647396Y-13183852D02*
X7618824Y-13183852D01*
X7742634Y-13050518D02*
X7818824Y-13050518D01*
X7771205Y-12983852D02*
X7771205Y-13155280D01*
X7771205Y-13155280D02*
X7780729Y-13174328D01*
X7780729Y-13174328D02*
X7799777Y-13183852D01*
X7799777Y-13183852D02*
X7818824Y-13183852D01*
X8037872Y-13050518D02*
X8037872Y-13250518D01*
X8037872Y-13060042D02*
X8056919Y-13050518D01*
X8056919Y-13050518D02*
X8095015Y-13050518D01*
X8095015Y-13050518D02*
X8114062Y-13060042D01*
X8114062Y-13060042D02*
X8123586Y-13069566D01*
X8123586Y-13069566D02*
X8133110Y-13088614D01*
X8133110Y-13088614D02*
X8133110Y-13145756D01*
X8133110Y-13145756D02*
X8123586Y-13164804D01*
X8123586Y-13164804D02*
X8114062Y-13174328D01*
X8114062Y-13174328D02*
X8095015Y-13183852D01*
X8095015Y-13183852D02*
X8056919Y-13183852D01*
X8056919Y-13183852D02*
X8037872Y-13174328D01*
X8247396Y-13183852D02*
X8228348Y-13174328D01*
X8228348Y-13174328D02*
X8218824Y-13155280D01*
X8218824Y-13155280D02*
X8218824Y-12983852D01*
X8409301Y-13183852D02*
X8409301Y-13079090D01*
X8409301Y-13079090D02*
X8399777Y-13060042D01*
X8399777Y-13060042D02*
X8380729Y-13050518D01*
X8380729Y-13050518D02*
X8342634Y-13050518D01*
X8342634Y-13050518D02*
X8323586Y-13060042D01*
X8409301Y-13174328D02*
X8390253Y-13183852D01*
X8390253Y-13183852D02*
X8342634Y-13183852D01*
X8342634Y-13183852D02*
X8323586Y-13174328D01*
X8323586Y-13174328D02*
X8314062Y-13155280D01*
X8314062Y-13155280D02*
X8314062Y-13136233D01*
X8314062Y-13136233D02*
X8323586Y-13117185D01*
X8323586Y-13117185D02*
X8342634Y-13107661D01*
X8342634Y-13107661D02*
X8390253Y-13107661D01*
X8390253Y-13107661D02*
X8409301Y-13098137D01*
X8475967Y-13050518D02*
X8552158Y-13050518D01*
X8504539Y-12983852D02*
X8504539Y-13155280D01*
X8504539Y-13155280D02*
X8514062Y-13174328D01*
X8514062Y-13174328D02*
X8533110Y-13183852D01*
X8533110Y-13183852D02*
X8552158Y-13183852D01*
X8695015Y-13174328D02*
X8675967Y-13183852D01*
X8675967Y-13183852D02*
X8637872Y-13183852D01*
X8637872Y-13183852D02*
X8618824Y-13174328D01*
X8618824Y-13174328D02*
X8609301Y-13155280D01*
X8609301Y-13155280D02*
X8609301Y-13079090D01*
X8609301Y-13079090D02*
X8618824Y-13060042D01*
X8618824Y-13060042D02*
X8637872Y-13050518D01*
X8637872Y-13050518D02*
X8675967Y-13050518D01*
X8675967Y-13050518D02*
X8695015Y-13060042D01*
X8695015Y-13060042D02*
X8704539Y-13079090D01*
X8704539Y-13079090D02*
X8704539Y-13098137D01*
X8704539Y-13098137D02*
X8609301Y-13117185D01*
X8875967Y-13183852D02*
X8875967Y-12983852D01*
X8875967Y-13174328D02*
X8856920Y-13183852D01*
X8856920Y-13183852D02*
X8818824Y-13183852D01*
X8818824Y-13183852D02*
X8799777Y-13174328D01*
X8799777Y-13174328D02*
X8790253Y-13164804D01*
X8790253Y-13164804D02*
X8780729Y-13145756D01*
X8780729Y-13145756D02*
X8780729Y-13088614D01*
X8780729Y-13088614D02*
X8790253Y-13069566D01*
X8790253Y-13069566D02*
X8799777Y-13060042D01*
X8799777Y-13060042D02*
X8818824Y-13050518D01*
X8818824Y-13050518D02*
X8856920Y-13050518D01*
X8856920Y-13050518D02*
X8875967Y-13060042D01*
X8952158Y-13260042D02*
X8961682Y-13250518D01*
X8961682Y-13250518D02*
X8980729Y-13221947D01*
X8980729Y-13221947D02*
X8990253Y-13202899D01*
X8990253Y-13202899D02*
X8999777Y-13174328D01*
X8999777Y-13174328D02*
X9009301Y-13126709D01*
X9009301Y-13126709D02*
X9009301Y-13088614D01*
X9009301Y-13088614D02*
X8999777Y-13040995D01*
X8999777Y-13040995D02*
X8990253Y-13012423D01*
X8990253Y-13012423D02*
X8980729Y-12993376D01*
X8980729Y-12993376D02*
X8961682Y-12964804D01*
X8961682Y-12964804D02*
X8952158Y-12955280D01*
X2209300Y-13381328D02*
G75*
G03*
X2209300Y-13381328I-100000J0D01*
G01*
X2447395Y-13292899D02*
X2456919Y-13283376D01*
X2456919Y-13283376D02*
X2475967Y-13273852D01*
X2475967Y-13273852D02*
X2523586Y-13273852D01*
X2523586Y-13273852D02*
X2542633Y-13283376D01*
X2542633Y-13283376D02*
X2552157Y-13292899D01*
X2552157Y-13292899D02*
X2561681Y-13311947D01*
X2561681Y-13311947D02*
X2561681Y-13330995D01*
X2561681Y-13330995D02*
X2552157Y-13359566D01*
X2552157Y-13359566D02*
X2437871Y-13473852D01*
X2437871Y-13473852D02*
X2561681Y-13473852D01*
X2647395Y-13454804D02*
X2656919Y-13464328D01*
X2656919Y-13464328D02*
X2647395Y-13473852D01*
X2647395Y-13473852D02*
X2637871Y-13464328D01*
X2637871Y-13464328D02*
X2647395Y-13454804D01*
X2647395Y-13454804D02*
X2647395Y-13473852D01*
X2733110Y-13292899D02*
X2742633Y-13283376D01*
X2742633Y-13283376D02*
X2761681Y-13273852D01*
X2761681Y-13273852D02*
X2809300Y-13273852D01*
X2809300Y-13273852D02*
X2828348Y-13283376D01*
X2828348Y-13283376D02*
X2837871Y-13292899D01*
X2837871Y-13292899D02*
X2847395Y-13311947D01*
X2847395Y-13311947D02*
X2847395Y-13330995D01*
X2847395Y-13330995D02*
X2837871Y-13359566D01*
X2837871Y-13359566D02*
X2723586Y-13473852D01*
X2723586Y-13473852D02*
X2847395Y-13473852D01*
X2971205Y-13273852D02*
X2990252Y-13273852D01*
X2990252Y-13273852D02*
X3009300Y-13283376D01*
X3009300Y-13283376D02*
X3018824Y-13292899D01*
X3018824Y-13292899D02*
X3028348Y-13311947D01*
X3028348Y-13311947D02*
X3037871Y-13350042D01*
X3037871Y-13350042D02*
X3037871Y-13397661D01*
X3037871Y-13397661D02*
X3028348Y-13435756D01*
X3028348Y-13435756D02*
X3018824Y-13454804D01*
X3018824Y-13454804D02*
X3009300Y-13464328D01*
X3009300Y-13464328D02*
X2990252Y-13473852D01*
X2990252Y-13473852D02*
X2971205Y-13473852D01*
X2971205Y-13473852D02*
X2952157Y-13464328D01*
X2952157Y-13464328D02*
X2942633Y-13454804D01*
X2942633Y-13454804D02*
X2933109Y-13435756D01*
X2933109Y-13435756D02*
X2923586Y-13397661D01*
X2923586Y-13397661D02*
X2923586Y-13350042D01*
X2923586Y-13350042D02*
X2933109Y-13311947D01*
X2933109Y-13311947D02*
X2942633Y-13292899D01*
X2942633Y-13292899D02*
X2952157Y-13283376D01*
X2952157Y-13283376D02*
X2971205Y-13273852D01*
X3161681Y-13273852D02*
X3180729Y-13273852D01*
X3180729Y-13273852D02*
X3199776Y-13283376D01*
X3199776Y-13283376D02*
X3209300Y-13292899D01*
X3209300Y-13292899D02*
X3218824Y-13311947D01*
X3218824Y-13311947D02*
X3228348Y-13350042D01*
X3228348Y-13350042D02*
X3228348Y-13397661D01*
X3228348Y-13397661D02*
X3218824Y-13435756D01*
X3218824Y-13435756D02*
X3209300Y-13454804D01*
X3209300Y-13454804D02*
X3199776Y-13464328D01*
X3199776Y-13464328D02*
X3180729Y-13473852D01*
X3180729Y-13473852D02*
X3161681Y-13473852D01*
X3161681Y-13473852D02*
X3142633Y-13464328D01*
X3142633Y-13464328D02*
X3133109Y-13454804D01*
X3133109Y-13454804D02*
X3123586Y-13435756D01*
X3123586Y-13435756D02*
X3114062Y-13397661D01*
X3114062Y-13397661D02*
X3114062Y-13350042D01*
X3114062Y-13350042D02*
X3123586Y-13311947D01*
X3123586Y-13311947D02*
X3133109Y-13292899D01*
X3133109Y-13292899D02*
X3142633Y-13283376D01*
X3142633Y-13283376D02*
X3161681Y-13273852D01*
X3314062Y-13473852D02*
X3314062Y-13340518D01*
X3314062Y-13359566D02*
X3323586Y-13350042D01*
X3323586Y-13350042D02*
X3342633Y-13340518D01*
X3342633Y-13340518D02*
X3371205Y-13340518D01*
X3371205Y-13340518D02*
X3390252Y-13350042D01*
X3390252Y-13350042D02*
X3399776Y-13369090D01*
X3399776Y-13369090D02*
X3399776Y-13473852D01*
X3399776Y-13369090D02*
X3409300Y-13350042D01*
X3409300Y-13350042D02*
X3428348Y-13340518D01*
X3428348Y-13340518D02*
X3456919Y-13340518D01*
X3456919Y-13340518D02*
X3475967Y-13350042D01*
X3475967Y-13350042D02*
X3485490Y-13369090D01*
X3485490Y-13369090D02*
X3485490Y-13473852D01*
X3580729Y-13473852D02*
X3580729Y-13340518D01*
X3580729Y-13359566D02*
X3590252Y-13350042D01*
X3590252Y-13350042D02*
X3609300Y-13340518D01*
X3609300Y-13340518D02*
X3637871Y-13340518D01*
X3637871Y-13340518D02*
X3656919Y-13350042D01*
X3656919Y-13350042D02*
X3666443Y-13369090D01*
X3666443Y-13369090D02*
X3666443Y-13473852D01*
X3666443Y-13369090D02*
X3675967Y-13350042D01*
X3675967Y-13350042D02*
X3695014Y-13340518D01*
X3695014Y-13340518D02*
X3723586Y-13340518D01*
X3723586Y-13340518D02*
X3742633Y-13350042D01*
X3742633Y-13350042D02*
X3752157Y-13369090D01*
X3752157Y-13369090D02*
X3752157Y-13473852D01*
X4142633Y-13264328D02*
X3971205Y-13521471D01*
X4399776Y-13273852D02*
X4418824Y-13273852D01*
X4418824Y-13273852D02*
X4437872Y-13283376D01*
X4437872Y-13283376D02*
X4447395Y-13292899D01*
X4447395Y-13292899D02*
X4456919Y-13311947D01*
X4456919Y-13311947D02*
X4466443Y-13350042D01*
X4466443Y-13350042D02*
X4466443Y-13397661D01*
X4466443Y-13397661D02*
X4456919Y-13435756D01*
X4456919Y-13435756D02*
X4447395Y-13454804D01*
X4447395Y-13454804D02*
X4437872Y-13464328D01*
X4437872Y-13464328D02*
X4418824Y-13473852D01*
X4418824Y-13473852D02*
X4399776Y-13473852D01*
X4399776Y-13473852D02*
X4380729Y-13464328D01*
X4380729Y-13464328D02*
X4371205Y-13454804D01*
X4371205Y-13454804D02*
X4361681Y-13435756D01*
X4361681Y-13435756D02*
X4352157Y-13397661D01*
X4352157Y-13397661D02*
X4352157Y-13350042D01*
X4352157Y-13350042D02*
X4361681Y-13311947D01*
X4361681Y-13311947D02*
X4371205Y-13292899D01*
X4371205Y-13292899D02*
X4380729Y-13283376D01*
X4380729Y-13283376D02*
X4399776Y-13273852D01*
X4552157Y-13454804D02*
X4561681Y-13464328D01*
X4561681Y-13464328D02*
X4552157Y-13473852D01*
X4552157Y-13473852D02*
X4542634Y-13464328D01*
X4542634Y-13464328D02*
X4552157Y-13454804D01*
X4552157Y-13454804D02*
X4552157Y-13473852D01*
X4685491Y-13273852D02*
X4704538Y-13273852D01*
X4704538Y-13273852D02*
X4723586Y-13283376D01*
X4723586Y-13283376D02*
X4733110Y-13292899D01*
X4733110Y-13292899D02*
X4742634Y-13311947D01*
X4742634Y-13311947D02*
X4752157Y-13350042D01*
X4752157Y-13350042D02*
X4752157Y-13397661D01*
X4752157Y-13397661D02*
X4742634Y-13435756D01*
X4742634Y-13435756D02*
X4733110Y-13454804D01*
X4733110Y-13454804D02*
X4723586Y-13464328D01*
X4723586Y-13464328D02*
X4704538Y-13473852D01*
X4704538Y-13473852D02*
X4685491Y-13473852D01*
X4685491Y-13473852D02*
X4666443Y-13464328D01*
X4666443Y-13464328D02*
X4656919Y-13454804D01*
X4656919Y-13454804D02*
X4647395Y-13435756D01*
X4647395Y-13435756D02*
X4637872Y-13397661D01*
X4637872Y-13397661D02*
X4637872Y-13350042D01*
X4637872Y-13350042D02*
X4647395Y-13311947D01*
X4647395Y-13311947D02*
X4656919Y-13292899D01*
X4656919Y-13292899D02*
X4666443Y-13283376D01*
X4666443Y-13283376D02*
X4685491Y-13273852D01*
X4866443Y-13359566D02*
X4847395Y-13350042D01*
X4847395Y-13350042D02*
X4837872Y-13340518D01*
X4837872Y-13340518D02*
X4828348Y-13321471D01*
X4828348Y-13321471D02*
X4828348Y-13311947D01*
X4828348Y-13311947D02*
X4837872Y-13292899D01*
X4837872Y-13292899D02*
X4847395Y-13283376D01*
X4847395Y-13283376D02*
X4866443Y-13273852D01*
X4866443Y-13273852D02*
X4904538Y-13273852D01*
X4904538Y-13273852D02*
X4923586Y-13283376D01*
X4923586Y-13283376D02*
X4933110Y-13292899D01*
X4933110Y-13292899D02*
X4942634Y-13311947D01*
X4942634Y-13311947D02*
X4942634Y-13321471D01*
X4942634Y-13321471D02*
X4933110Y-13340518D01*
X4933110Y-13340518D02*
X4923586Y-13350042D01*
X4923586Y-13350042D02*
X4904538Y-13359566D01*
X4904538Y-13359566D02*
X4866443Y-13359566D01*
X4866443Y-13359566D02*
X4847395Y-13369090D01*
X4847395Y-13369090D02*
X4837872Y-13378614D01*
X4837872Y-13378614D02*
X4828348Y-13397661D01*
X4828348Y-13397661D02*
X4828348Y-13435756D01*
X4828348Y-13435756D02*
X4837872Y-13454804D01*
X4837872Y-13454804D02*
X4847395Y-13464328D01*
X4847395Y-13464328D02*
X4866443Y-13473852D01*
X4866443Y-13473852D02*
X4904538Y-13473852D01*
X4904538Y-13473852D02*
X4923586Y-13464328D01*
X4923586Y-13464328D02*
X4933110Y-13454804D01*
X4933110Y-13454804D02*
X4942634Y-13435756D01*
X4942634Y-13435756D02*
X4942634Y-13397661D01*
X4942634Y-13397661D02*
X4933110Y-13378614D01*
X4933110Y-13378614D02*
X4923586Y-13369090D01*
X4923586Y-13369090D02*
X4904538Y-13359566D01*
X5114062Y-13273852D02*
X5075967Y-13273852D01*
X5075967Y-13273852D02*
X5056919Y-13283376D01*
X5056919Y-13283376D02*
X5047395Y-13292899D01*
X5047395Y-13292899D02*
X5028348Y-13321471D01*
X5028348Y-13321471D02*
X5018824Y-13359566D01*
X5018824Y-13359566D02*
X5018824Y-13435756D01*
X5018824Y-13435756D02*
X5028348Y-13454804D01*
X5028348Y-13454804D02*
X5037872Y-13464328D01*
X5037872Y-13464328D02*
X5056919Y-13473852D01*
X5056919Y-13473852D02*
X5095015Y-13473852D01*
X5095015Y-13473852D02*
X5114062Y-13464328D01*
X5114062Y-13464328D02*
X5123586Y-13454804D01*
X5123586Y-13454804D02*
X5133110Y-13435756D01*
X5133110Y-13435756D02*
X5133110Y-13388137D01*
X5133110Y-13388137D02*
X5123586Y-13369090D01*
X5123586Y-13369090D02*
X5114062Y-13359566D01*
X5114062Y-13359566D02*
X5095015Y-13350042D01*
X5095015Y-13350042D02*
X5056919Y-13350042D01*
X5056919Y-13350042D02*
X5037872Y-13359566D01*
X5037872Y-13359566D02*
X5028348Y-13369090D01*
X5028348Y-13369090D02*
X5018824Y-13388137D01*
X5304538Y-13273852D02*
X5266443Y-13273852D01*
X5266443Y-13273852D02*
X5247395Y-13283376D01*
X5247395Y-13283376D02*
X5237872Y-13292899D01*
X5237872Y-13292899D02*
X5218824Y-13321471D01*
X5218824Y-13321471D02*
X5209300Y-13359566D01*
X5209300Y-13359566D02*
X5209300Y-13435756D01*
X5209300Y-13435756D02*
X5218824Y-13454804D01*
X5218824Y-13454804D02*
X5228348Y-13464328D01*
X5228348Y-13464328D02*
X5247395Y-13473852D01*
X5247395Y-13473852D02*
X5285491Y-13473852D01*
X5285491Y-13473852D02*
X5304538Y-13464328D01*
X5304538Y-13464328D02*
X5314062Y-13454804D01*
X5314062Y-13454804D02*
X5323586Y-13435756D01*
X5323586Y-13435756D02*
X5323586Y-13388137D01*
X5323586Y-13388137D02*
X5314062Y-13369090D01*
X5314062Y-13369090D02*
X5304538Y-13359566D01*
X5304538Y-13359566D02*
X5285491Y-13350042D01*
X5285491Y-13350042D02*
X5247395Y-13350042D01*
X5247395Y-13350042D02*
X5228348Y-13359566D01*
X5228348Y-13359566D02*
X5218824Y-13369090D01*
X5218824Y-13369090D02*
X5209300Y-13388137D01*
X5399776Y-13273852D02*
X5399776Y-13311947D01*
X5475967Y-13273852D02*
X5475967Y-13311947D01*
X5771205Y-13550042D02*
X5761681Y-13540518D01*
X5761681Y-13540518D02*
X5742634Y-13511947D01*
X5742634Y-13511947D02*
X5733110Y-13492899D01*
X5733110Y-13492899D02*
X5723586Y-13464328D01*
X5723586Y-13464328D02*
X5714062Y-13416709D01*
X5714062Y-13416709D02*
X5714062Y-13378614D01*
X5714062Y-13378614D02*
X5723586Y-13330995D01*
X5723586Y-13330995D02*
X5733110Y-13302423D01*
X5733110Y-13302423D02*
X5742634Y-13283376D01*
X5742634Y-13283376D02*
X5761681Y-13254804D01*
X5761681Y-13254804D02*
X5771205Y-13245280D01*
X5952157Y-13473852D02*
X5837872Y-13473852D01*
X5895014Y-13473852D02*
X5895014Y-13273852D01*
X5895014Y-13273852D02*
X5875967Y-13302423D01*
X5875967Y-13302423D02*
X5856919Y-13321471D01*
X5856919Y-13321471D02*
X5837872Y-13330995D01*
X6190253Y-13473852D02*
X6190253Y-13273852D01*
X6275967Y-13473852D02*
X6275967Y-13369090D01*
X6275967Y-13369090D02*
X6266443Y-13350042D01*
X6266443Y-13350042D02*
X6247396Y-13340518D01*
X6247396Y-13340518D02*
X6218824Y-13340518D01*
X6218824Y-13340518D02*
X6199776Y-13350042D01*
X6199776Y-13350042D02*
X6190253Y-13359566D01*
X6399776Y-13473852D02*
X6380729Y-13464328D01*
X6380729Y-13464328D02*
X6371205Y-13454804D01*
X6371205Y-13454804D02*
X6361681Y-13435756D01*
X6361681Y-13435756D02*
X6361681Y-13378614D01*
X6361681Y-13378614D02*
X6371205Y-13359566D01*
X6371205Y-13359566D02*
X6380729Y-13350042D01*
X6380729Y-13350042D02*
X6399776Y-13340518D01*
X6399776Y-13340518D02*
X6428348Y-13340518D01*
X6428348Y-13340518D02*
X6447396Y-13350042D01*
X6447396Y-13350042D02*
X6456919Y-13359566D01*
X6456919Y-13359566D02*
X6466443Y-13378614D01*
X6466443Y-13378614D02*
X6466443Y-13435756D01*
X6466443Y-13435756D02*
X6456919Y-13454804D01*
X6456919Y-13454804D02*
X6447396Y-13464328D01*
X6447396Y-13464328D02*
X6428348Y-13473852D01*
X6428348Y-13473852D02*
X6399776Y-13473852D01*
X6580729Y-13473852D02*
X6561681Y-13464328D01*
X6561681Y-13464328D02*
X6552157Y-13445280D01*
X6552157Y-13445280D02*
X6552157Y-13273852D01*
X6733110Y-13464328D02*
X6714062Y-13473852D01*
X6714062Y-13473852D02*
X6675967Y-13473852D01*
X6675967Y-13473852D02*
X6656919Y-13464328D01*
X6656919Y-13464328D02*
X6647396Y-13445280D01*
X6647396Y-13445280D02*
X6647396Y-13369090D01*
X6647396Y-13369090D02*
X6656919Y-13350042D01*
X6656919Y-13350042D02*
X6675967Y-13340518D01*
X6675967Y-13340518D02*
X6714062Y-13340518D01*
X6714062Y-13340518D02*
X6733110Y-13350042D01*
X6733110Y-13350042D02*
X6742634Y-13369090D01*
X6742634Y-13369090D02*
X6742634Y-13388137D01*
X6742634Y-13388137D02*
X6647396Y-13407185D01*
X6809300Y-13550042D02*
X6818824Y-13540518D01*
X6818824Y-13540518D02*
X6837872Y-13511947D01*
X6837872Y-13511947D02*
X6847396Y-13492899D01*
X6847396Y-13492899D02*
X6856919Y-13464328D01*
X6856919Y-13464328D02*
X6866443Y-13416709D01*
X6866443Y-13416709D02*
X6866443Y-13378614D01*
X6866443Y-13378614D02*
X6856919Y-13330995D01*
X6856919Y-13330995D02*
X6847396Y-13302423D01*
X6847396Y-13302423D02*
X6837872Y-13283376D01*
X6837872Y-13283376D02*
X6818824Y-13254804D01*
X6818824Y-13254804D02*
X6809300Y-13245280D01*
X7171205Y-13550042D02*
X7161681Y-13540518D01*
X7161681Y-13540518D02*
X7142634Y-13511947D01*
X7142634Y-13511947D02*
X7133110Y-13492899D01*
X7133110Y-13492899D02*
X7123586Y-13464328D01*
X7123586Y-13464328D02*
X7114062Y-13416709D01*
X7114062Y-13416709D02*
X7114062Y-13378614D01*
X7114062Y-13378614D02*
X7123586Y-13330995D01*
X7123586Y-13330995D02*
X7133110Y-13302423D01*
X7133110Y-13302423D02*
X7142634Y-13283376D01*
X7142634Y-13283376D02*
X7161681Y-13254804D01*
X7161681Y-13254804D02*
X7171205Y-13245280D01*
X7247396Y-13340518D02*
X7247396Y-13473852D01*
X7247396Y-13359566D02*
X7256919Y-13350042D01*
X7256919Y-13350042D02*
X7275967Y-13340518D01*
X7275967Y-13340518D02*
X7304538Y-13340518D01*
X7304538Y-13340518D02*
X7323586Y-13350042D01*
X7323586Y-13350042D02*
X7333110Y-13369090D01*
X7333110Y-13369090D02*
X7333110Y-13473852D01*
X7456919Y-13473852D02*
X7437872Y-13464328D01*
X7437872Y-13464328D02*
X7428348Y-13454804D01*
X7428348Y-13454804D02*
X7418824Y-13435756D01*
X7418824Y-13435756D02*
X7418824Y-13378614D01*
X7418824Y-13378614D02*
X7428348Y-13359566D01*
X7428348Y-13359566D02*
X7437872Y-13350042D01*
X7437872Y-13350042D02*
X7456919Y-13340518D01*
X7456919Y-13340518D02*
X7485491Y-13340518D01*
X7485491Y-13340518D02*
X7504538Y-13350042D01*
X7504538Y-13350042D02*
X7514062Y-13359566D01*
X7514062Y-13359566D02*
X7523586Y-13378614D01*
X7523586Y-13378614D02*
X7523586Y-13435756D01*
X7523586Y-13435756D02*
X7514062Y-13454804D01*
X7514062Y-13454804D02*
X7504538Y-13464328D01*
X7504538Y-13464328D02*
X7485491Y-13473852D01*
X7485491Y-13473852D02*
X7456919Y-13473852D01*
X7580729Y-13340518D02*
X7656919Y-13340518D01*
X7609300Y-13273852D02*
X7609300Y-13445280D01*
X7609300Y-13445280D02*
X7618824Y-13464328D01*
X7618824Y-13464328D02*
X7637872Y-13473852D01*
X7637872Y-13473852D02*
X7656919Y-13473852D01*
X7875967Y-13340518D02*
X7875967Y-13540518D01*
X7875967Y-13350042D02*
X7895015Y-13340518D01*
X7895015Y-13340518D02*
X7933110Y-13340518D01*
X7933110Y-13340518D02*
X7952158Y-13350042D01*
X7952158Y-13350042D02*
X7961681Y-13359566D01*
X7961681Y-13359566D02*
X7971205Y-13378614D01*
X7971205Y-13378614D02*
X7971205Y-13435756D01*
X7971205Y-13435756D02*
X7961681Y-13454804D01*
X7961681Y-13454804D02*
X7952158Y-13464328D01*
X7952158Y-13464328D02*
X7933110Y-13473852D01*
X7933110Y-13473852D02*
X7895015Y-13473852D01*
X7895015Y-13473852D02*
X7875967Y-13464328D01*
X8085491Y-13473852D02*
X8066443Y-13464328D01*
X8066443Y-13464328D02*
X8056919Y-13445280D01*
X8056919Y-13445280D02*
X8056919Y-13273852D01*
X8247396Y-13473852D02*
X8247396Y-13369090D01*
X8247396Y-13369090D02*
X8237872Y-13350042D01*
X8237872Y-13350042D02*
X8218824Y-13340518D01*
X8218824Y-13340518D02*
X8180729Y-13340518D01*
X8180729Y-13340518D02*
X8161681Y-13350042D01*
X8247396Y-13464328D02*
X8228348Y-13473852D01*
X8228348Y-13473852D02*
X8180729Y-13473852D01*
X8180729Y-13473852D02*
X8161681Y-13464328D01*
X8161681Y-13464328D02*
X8152158Y-13445280D01*
X8152158Y-13445280D02*
X8152158Y-13426233D01*
X8152158Y-13426233D02*
X8161681Y-13407185D01*
X8161681Y-13407185D02*
X8180729Y-13397661D01*
X8180729Y-13397661D02*
X8228348Y-13397661D01*
X8228348Y-13397661D02*
X8247396Y-13388137D01*
X8314062Y-13340518D02*
X8390253Y-13340518D01*
X8342634Y-13273852D02*
X8342634Y-13445280D01*
X8342634Y-13445280D02*
X8352158Y-13464328D01*
X8352158Y-13464328D02*
X8371205Y-13473852D01*
X8371205Y-13473852D02*
X8390253Y-13473852D01*
X8533110Y-13464328D02*
X8514062Y-13473852D01*
X8514062Y-13473852D02*
X8475967Y-13473852D01*
X8475967Y-13473852D02*
X8456920Y-13464328D01*
X8456920Y-13464328D02*
X8447396Y-13445280D01*
X8447396Y-13445280D02*
X8447396Y-13369090D01*
X8447396Y-13369090D02*
X8456920Y-13350042D01*
X8456920Y-13350042D02*
X8475967Y-13340518D01*
X8475967Y-13340518D02*
X8514062Y-13340518D01*
X8514062Y-13340518D02*
X8533110Y-13350042D01*
X8533110Y-13350042D02*
X8542634Y-13369090D01*
X8542634Y-13369090D02*
X8542634Y-13388137D01*
X8542634Y-13388137D02*
X8447396Y-13407185D01*
X8714062Y-13473852D02*
X8714062Y-13273852D01*
X8714062Y-13464328D02*
X8695015Y-13473852D01*
X8695015Y-13473852D02*
X8656920Y-13473852D01*
X8656920Y-13473852D02*
X8637872Y-13464328D01*
X8637872Y-13464328D02*
X8628348Y-13454804D01*
X8628348Y-13454804D02*
X8618824Y-13435756D01*
X8618824Y-13435756D02*
X8618824Y-13378614D01*
X8618824Y-13378614D02*
X8628348Y-13359566D01*
X8628348Y-13359566D02*
X8637872Y-13350042D01*
X8637872Y-13350042D02*
X8656920Y-13340518D01*
X8656920Y-13340518D02*
X8695015Y-13340518D01*
X8695015Y-13340518D02*
X8714062Y-13350042D01*
X8790253Y-13550042D02*
X8799777Y-13540518D01*
X8799777Y-13540518D02*
X8818824Y-13511947D01*
X8818824Y-13511947D02*
X8828348Y-13492899D01*
X8828348Y-13492899D02*
X8837872Y-13464328D01*
X8837872Y-13464328D02*
X8847396Y-13416709D01*
X8847396Y-13416709D02*
X8847396Y-13378614D01*
X8847396Y-13378614D02*
X8837872Y-13330995D01*
X8837872Y-13330995D02*
X8828348Y-13302423D01*
X8828348Y-13302423D02*
X8818824Y-13283376D01*
X8818824Y-13283376D02*
X8799777Y-13254804D01*
X8799777Y-13254804D02*
X8790253Y-13245280D01*
M02*
