%TF.GenerationSoftware,KiCad,Pcbnew,7.0.8*%
%TF.CreationDate,2023-11-22T19:36:53-08:00*%
%TF.ProjectId,expansionboardA,65787061-6e73-4696-9f6e-626f61726441,3*%
%TF.SameCoordinates,Original*%
%TF.FileFunction,Soldermask,Top*%
%TF.FilePolarity,Negative*%
%FSLAX46Y46*%
G04 Gerber Fmt 4.6, Leading zero omitted, Abs format (unit mm)*
G04 Created by KiCad (PCBNEW 7.0.8) date 2023-11-22 19:36:53*
%MOMM*%
%LPD*%
G01*
G04 APERTURE LIST*
G04 Aperture macros list*
%AMRoundRect*
0 Rectangle with rounded corners*
0 $1 Rounding radius*
0 $2 $3 $4 $5 $6 $7 $8 $9 X,Y pos of 4 corners*
0 Add a 4 corners polygon primitive as box body*
4,1,4,$2,$3,$4,$5,$6,$7,$8,$9,$2,$3,0*
0 Add four circle primitives for the rounded corners*
1,1,$1+$1,$2,$3*
1,1,$1+$1,$4,$5*
1,1,$1+$1,$6,$7*
1,1,$1+$1,$8,$9*
0 Add four rect primitives between the rounded corners*
20,1,$1+$1,$2,$3,$4,$5,0*
20,1,$1+$1,$4,$5,$6,$7,0*
20,1,$1+$1,$6,$7,$8,$9,0*
20,1,$1+$1,$8,$9,$2,$3,0*%
%AMFreePoly0*
4,1,19,0.550000,-0.750000,0.000000,-0.750000,0.000000,-0.744911,-0.071157,-0.744911,-0.207708,-0.704816,-0.327430,-0.627875,-0.420627,-0.520320,-0.479746,-0.390866,-0.500000,-0.250000,-0.500000,0.250000,-0.479746,0.390866,-0.420627,0.520320,-0.327430,0.627875,-0.207708,0.704816,-0.071157,0.744911,0.000000,0.744911,0.000000,0.750000,0.550000,0.750000,0.550000,-0.750000,0.550000,-0.750000,
$1*%
%AMFreePoly1*
4,1,19,0.000000,0.744911,0.071157,0.744911,0.207708,0.704816,0.327430,0.627875,0.420627,0.520320,0.479746,0.390866,0.500000,0.250000,0.500000,-0.250000,0.479746,-0.390866,0.420627,-0.520320,0.327430,-0.627875,0.207708,-0.704816,0.071157,-0.744911,0.000000,-0.744911,0.000000,-0.750000,-0.550000,-0.750000,-0.550000,0.750000,0.000000,0.750000,0.000000,0.744911,0.000000,0.744911,
$1*%
G04 Aperture macros list end*
%ADD10C,0.150000*%
%ADD11RoundRect,0.237500X-0.237500X0.300000X-0.237500X-0.300000X0.237500X-0.300000X0.237500X0.300000X0*%
%ADD12RoundRect,0.237500X-0.300000X-0.237500X0.300000X-0.237500X0.300000X0.237500X-0.300000X0.237500X0*%
%ADD13RoundRect,0.237500X0.250000X0.237500X-0.250000X0.237500X-0.250000X-0.237500X0.250000X-0.237500X0*%
%ADD14C,1.498000*%
%ADD15C,1.950000*%
%ADD16RoundRect,0.237500X0.300000X0.237500X-0.300000X0.237500X-0.300000X-0.237500X0.300000X-0.237500X0*%
%ADD17C,1.700000*%
%ADD18R,2.200000X2.800000*%
%ADD19R,2.800000X2.800000*%
%ADD20RoundRect,0.237500X-0.344715X0.008839X0.008839X-0.344715X0.344715X-0.008839X-0.008839X0.344715X0*%
%ADD21FreePoly0,0.000000*%
%ADD22R,1.000000X1.500000*%
%ADD23FreePoly1,0.000000*%
%ADD24C,4.400000*%
%ADD25R,0.270000X1.355601*%
%ADD26R,1.355601X0.270000*%
%ADD27RoundRect,0.237500X-0.250000X-0.237500X0.250000X-0.237500X0.250000X0.237500X-0.250000X0.237500X0*%
%ADD28R,0.800000X0.800000*%
%ADD29C,0.800000*%
%ADD30O,2.800000X1.700000*%
%ADD31RoundRect,0.237500X0.237500X-0.250000X0.237500X0.250000X-0.237500X0.250000X-0.237500X-0.250000X0*%
%ADD32RoundRect,0.102000X0.919239X0.070711X0.070711X0.919239X-0.919239X-0.070711X-0.070711X-0.919239X0*%
%ADD33R,1.600000X1.500000*%
%ADD34C,1.600000*%
%ADD35C,3.000000*%
%ADD36RoundRect,0.237500X-0.237500X0.250000X-0.237500X-0.250000X0.237500X-0.250000X0.237500X0.250000X0*%
%ADD37RoundRect,0.102000X-0.919239X-0.070711X-0.070711X-0.919239X0.919239X0.070711X0.070711X0.919239X0*%
%ADD38R,1.700000X1.700000*%
%ADD39O,1.700000X1.700000*%
%ADD40RoundRect,0.038500X-0.236500X0.706500X-0.236500X-0.706500X0.236500X-0.706500X0.236500X0.706500X0*%
%ADD41RoundRect,0.038500X-0.706500X-0.236500X0.706500X-0.236500X0.706500X0.236500X-0.706500X0.236500X0*%
%ADD42C,0.650000*%
%ADD43O,1.700000X0.900000*%
%ADD44O,2.400000X0.900000*%
G04 APERTURE END LIST*
D10*
X117350000Y-72800000D02*
X118000000Y-72800000D01*
X118000000Y-73000000D01*
X117350000Y-73000000D01*
X117350000Y-72800000D01*
G36*
X117350000Y-72800000D02*
G01*
X118000000Y-72800000D01*
X118000000Y-73000000D01*
X117350000Y-73000000D01*
X117350000Y-72800000D01*
G37*
X120750000Y-70900000D02*
X121400000Y-70900000D01*
X121400000Y-71100000D01*
X120750000Y-71100000D01*
X120750000Y-70900000D01*
G36*
X120750000Y-70900000D02*
G01*
X121400000Y-70900000D01*
X121400000Y-71100000D01*
X120750000Y-71100000D01*
X120750000Y-70900000D01*
G37*
X116400000Y-68600000D02*
X117050000Y-68600000D01*
X117050000Y-68800000D01*
X116400000Y-68800000D01*
X116400000Y-68600000D01*
G36*
X116400000Y-68600000D02*
G01*
X117050000Y-68600000D01*
X117050000Y-68800000D01*
X116400000Y-68800000D01*
X116400000Y-68600000D01*
G37*
X116400000Y-71300000D02*
X117050000Y-71300000D01*
X117050000Y-71500000D01*
X116400000Y-71500000D01*
X116400000Y-71300000D01*
G36*
X116400000Y-71300000D02*
G01*
X117050000Y-71300000D01*
X117050000Y-71500000D01*
X116400000Y-71500000D01*
X116400000Y-71300000D01*
G37*
X119800000Y-72400000D02*
X120450000Y-72400000D01*
X120450000Y-72600000D01*
X119800000Y-72600000D01*
X119800000Y-72400000D01*
G36*
X119800000Y-72400000D02*
G01*
X120450000Y-72400000D01*
X120450000Y-72600000D01*
X119800000Y-72600000D01*
X119800000Y-72400000D01*
G37*
X120750000Y-72400000D02*
X121400000Y-72400000D01*
X121400000Y-72600000D01*
X120750000Y-72600000D01*
X120750000Y-72400000D01*
G36*
X120750000Y-72400000D02*
G01*
X121400000Y-72400000D01*
X121400000Y-72600000D01*
X120750000Y-72600000D01*
X120750000Y-72400000D01*
G37*
X116400000Y-72800000D02*
X117050000Y-72800000D01*
X117050000Y-73000000D01*
X116400000Y-73000000D01*
X116400000Y-72800000D01*
G36*
X116400000Y-72800000D02*
G01*
X117050000Y-72800000D01*
X117050000Y-73000000D01*
X116400000Y-73000000D01*
X116400000Y-72800000D01*
G37*
X117350000Y-71300000D02*
X118000000Y-71300000D01*
X118000000Y-71500000D01*
X117350000Y-71500000D01*
X117350000Y-71300000D01*
G36*
X117350000Y-71300000D02*
G01*
X118000000Y-71300000D01*
X118000000Y-71500000D01*
X117350000Y-71500000D01*
X117350000Y-71300000D01*
G37*
X120750000Y-68200000D02*
X121400000Y-68200000D01*
X121400000Y-68400000D01*
X120750000Y-68400000D01*
X120750000Y-68200000D01*
G36*
X120750000Y-68200000D02*
G01*
X121400000Y-68200000D01*
X121400000Y-68400000D01*
X120750000Y-68400000D01*
X120750000Y-68200000D01*
G37*
X117350000Y-70300000D02*
X118000000Y-70300000D01*
X118000000Y-70500000D01*
X117350000Y-70500000D01*
X117350000Y-70300000D01*
G36*
X117350000Y-70300000D02*
G01*
X118000000Y-70300000D01*
X118000000Y-70500000D01*
X117350000Y-70500000D01*
X117350000Y-70300000D01*
G37*
X119800000Y-70900000D02*
X120450000Y-70900000D01*
X120450000Y-71100000D01*
X119800000Y-71100000D01*
X119800000Y-70900000D01*
G36*
X119800000Y-70900000D02*
G01*
X120450000Y-70900000D01*
X120450000Y-71100000D01*
X119800000Y-71100000D01*
X119800000Y-70900000D01*
G37*
X119800000Y-68200000D02*
X120450000Y-68200000D01*
X120450000Y-68400000D01*
X119800000Y-68400000D01*
X119800000Y-68200000D01*
G36*
X119800000Y-68200000D02*
G01*
X120450000Y-68200000D01*
X120450000Y-68400000D01*
X119800000Y-68400000D01*
X119800000Y-68200000D01*
G37*
X116400000Y-70300000D02*
X117050000Y-70300000D01*
X117050000Y-70500000D01*
X116400000Y-70500000D01*
X116400000Y-70300000D01*
G36*
X116400000Y-70300000D02*
G01*
X117050000Y-70300000D01*
X117050000Y-70500000D01*
X116400000Y-70500000D01*
X116400000Y-70300000D01*
G37*
X117350000Y-68600000D02*
X118000000Y-68600000D01*
X118000000Y-68800000D01*
X117350000Y-68800000D01*
X117350000Y-68600000D01*
G36*
X117350000Y-68600000D02*
G01*
X118000000Y-68600000D01*
X118000000Y-68800000D01*
X117350000Y-68800000D01*
X117350000Y-68600000D01*
G37*
X119800000Y-69900000D02*
X120450000Y-69900000D01*
X120450000Y-70100000D01*
X119800000Y-70100000D01*
X119800000Y-69900000D01*
G36*
X119800000Y-69900000D02*
G01*
X120450000Y-69900000D01*
X120450000Y-70100000D01*
X119800000Y-70100000D01*
X119800000Y-69900000D01*
G37*
X120750000Y-69900000D02*
X121400000Y-69900000D01*
X121400000Y-70100000D01*
X120750000Y-70100000D01*
X120750000Y-69900000D01*
G36*
X120750000Y-69900000D02*
G01*
X121400000Y-69900000D01*
X121400000Y-70100000D01*
X120750000Y-70100000D01*
X120750000Y-69900000D01*
G37*
D11*
%TO.C,C14*%
X124516667Y-102100000D03*
X124516667Y-100375000D03*
%TD*%
D12*
%TO.C,C15*%
X85714800Y-46129400D03*
X87439800Y-46129400D03*
%TD*%
D13*
%TO.C,R10*%
X141391700Y-109712000D03*
X139566700Y-109712000D03*
%TD*%
D11*
%TO.C,C2*%
X67183000Y-101754600D03*
X67183000Y-103479600D03*
%TD*%
D12*
%TO.C,C13*%
X134125000Y-96261111D03*
X135850000Y-96261111D03*
%TD*%
D14*
%TO.C,RESETN1*%
X124475000Y-46402500D03*
X119975000Y-46402500D03*
D15*
X125730000Y-48892500D03*
X118720000Y-48892500D03*
%TD*%
D12*
%TO.C,C16*%
X85664000Y-53089000D03*
X87389000Y-53089000D03*
%TD*%
D16*
%TO.C,C4*%
X75666600Y-108432600D03*
X73941600Y-108432600D03*
%TD*%
D17*
%TO.C,AU1*%
X149297000Y-98916000D03*
X142297000Y-98916000D03*
D18*
X150397000Y-95216000D03*
D19*
X140997000Y-95216000D03*
D18*
X148397000Y-102616000D03*
%TD*%
D20*
%TO.C,R16*%
X63154765Y-58054765D03*
X64445235Y-59345235D03*
%TD*%
D16*
%TO.C,C9*%
X135850000Y-89927778D03*
X134125000Y-89927778D03*
%TD*%
D21*
%TO.C,JP1*%
X138450000Y-55325000D03*
D22*
X139750000Y-55325000D03*
D23*
X141050000Y-55325000D03*
%TD*%
D24*
%TO.C,REF\u002A\u002A*%
X25750000Y-121000000D03*
%TD*%
D25*
%TO.C,U7*%
X93300002Y-58755602D03*
X93800001Y-58755602D03*
X94300000Y-58755602D03*
X94800001Y-58755602D03*
X95300001Y-58755602D03*
X95800002Y-58755602D03*
X96300001Y-58755602D03*
X96800000Y-58755602D03*
D26*
X98327802Y-57227800D03*
X98327802Y-56727801D03*
X98327802Y-56227802D03*
X98327802Y-55727801D03*
X98327802Y-55227801D03*
X98327802Y-54727800D03*
X98327802Y-54227801D03*
X98327802Y-53727802D03*
D25*
X96800000Y-52200000D03*
X96300001Y-52200000D03*
X95800002Y-52200000D03*
X95300001Y-52200000D03*
X94800001Y-52200000D03*
X94300000Y-52200000D03*
X93800001Y-52200000D03*
X93300002Y-52200000D03*
D26*
X91772200Y-53727802D03*
X91772200Y-54227801D03*
X91772200Y-54727800D03*
X91772200Y-55227801D03*
X91772200Y-55727801D03*
X91772200Y-56227802D03*
X91772200Y-56727801D03*
X91772200Y-57227800D03*
%TD*%
D27*
%TO.C,R2*%
X69396600Y-117043200D03*
X71221600Y-117043200D03*
%TD*%
D13*
%TO.C,R9*%
X141328700Y-112252000D03*
X139503700Y-112252000D03*
%TD*%
D28*
%TO.C,J3*%
X144920000Y-74840000D03*
D29*
X143370000Y-74340000D03*
X144920000Y-73840000D03*
X143370000Y-73340000D03*
X144920000Y-72840000D03*
X143370000Y-72340000D03*
X144920000Y-71840000D03*
X143370000Y-71340000D03*
X144920000Y-70840000D03*
X143370000Y-70340000D03*
X144920000Y-69840000D03*
X143370000Y-69340000D03*
X144920000Y-68840000D03*
X143370000Y-68340000D03*
X144920000Y-67840000D03*
X143370000Y-67340000D03*
X144920000Y-66840000D03*
X143370000Y-66340000D03*
X144920000Y-65840000D03*
D30*
X143200000Y-61190000D03*
X143200000Y-79490000D03*
X150300000Y-79490000D03*
X150300000Y-61190000D03*
%TD*%
D31*
%TO.C,R13*%
X126627778Y-102150000D03*
X126627778Y-100325000D03*
%TD*%
D24*
%TO.C,REF\u002A\u002A*%
X149500000Y-44500000D03*
%TD*%
D32*
%TO.C,Y1*%
X78600000Y-113400000D03*
X80155635Y-111844365D03*
X79024264Y-110712994D03*
X77468629Y-112268629D03*
%TD*%
D20*
%TO.C,R17*%
X64654765Y-56754765D03*
X65945235Y-58045235D03*
%TD*%
D13*
%TO.C,R11*%
X135900000Y-98372222D03*
X134075000Y-98372222D03*
%TD*%
D11*
%TO.C,C8*%
X130850000Y-100375000D03*
X130850000Y-102100000D03*
%TD*%
D33*
%TO.C,J2*%
X65930000Y-52810000D03*
D34*
X63430000Y-52810000D03*
X61430000Y-52810000D03*
X58930000Y-52810000D03*
D35*
X69000000Y-50100000D03*
X55860000Y-50100000D03*
%TD*%
D16*
%TO.C,C3*%
X75641200Y-116052600D03*
X73916200Y-116052600D03*
%TD*%
D36*
%TO.C,R7*%
X128738889Y-102150000D03*
X128738889Y-100325000D03*
%TD*%
D37*
%TO.C,Y2*%
X83842200Y-48356400D03*
X82286565Y-49912035D03*
X83417936Y-51043406D03*
X84973571Y-49487771D03*
%TD*%
D13*
%TO.C,R12*%
X135900000Y-94150000D03*
X134075000Y-94150000D03*
%TD*%
D11*
%TO.C,C18*%
X92852200Y-47882000D03*
X92852200Y-49607000D03*
%TD*%
D16*
%TO.C,C1*%
X75614700Y-118364000D03*
X73889700Y-118364000D03*
%TD*%
D24*
%TO.C,REF\u002A\u002A*%
X149500000Y-121000000D03*
%TD*%
D38*
%TO.C,J4*%
X138724600Y-44196000D03*
D39*
X136184600Y-44196000D03*
%TD*%
D40*
%TO.C,U1*%
X68770200Y-106146600D03*
X67970200Y-106146600D03*
X67170200Y-106146600D03*
X66370200Y-106146600D03*
X65570200Y-106146600D03*
X64770200Y-106146600D03*
X63970200Y-106146600D03*
X63170200Y-106146600D03*
D41*
X61800200Y-107516600D03*
X61800200Y-108316600D03*
X61800200Y-109116600D03*
X61800200Y-109916600D03*
X61800200Y-110716600D03*
X61800200Y-111516600D03*
X61800200Y-112316600D03*
X61800200Y-113116600D03*
D40*
X63170200Y-114486600D03*
X63970200Y-114486600D03*
X64770200Y-114486600D03*
X65570200Y-114486600D03*
X66370200Y-114486600D03*
X67170200Y-114486600D03*
X67970200Y-114486600D03*
X68770200Y-114486600D03*
D41*
X70140200Y-113116600D03*
X70140200Y-112316600D03*
X70140200Y-111516600D03*
X70140200Y-110716600D03*
X70140200Y-109916600D03*
X70140200Y-109116600D03*
X70140200Y-108316600D03*
X70140200Y-107516600D03*
%TD*%
D31*
%TO.C,R14*%
X122405555Y-100325000D03*
X122405555Y-102150000D03*
%TD*%
D27*
%TO.C,R8*%
X134075000Y-92038889D03*
X135900000Y-92038889D03*
%TD*%
D24*
%TO.C,REF\u002A\u002A*%
X25750000Y-44500000D03*
%TD*%
D38*
%TO.C,J5*%
X24900000Y-67000000D03*
D39*
X24900000Y-69540000D03*
X24900000Y-72080000D03*
X24900000Y-74620000D03*
%TD*%
D38*
%TO.C,U2*%
X48220000Y-121920000D03*
D39*
X45680000Y-121920000D03*
X48220000Y-119380000D03*
X45680000Y-119380000D03*
X48220000Y-116840000D03*
X45680000Y-116840000D03*
X48220000Y-114300000D03*
X45680000Y-114300000D03*
X48220000Y-111760000D03*
X45680000Y-111760000D03*
X48220000Y-109220000D03*
X45680000Y-109220000D03*
X48220000Y-106680000D03*
X45680000Y-106680000D03*
X48220000Y-104140000D03*
X45680000Y-104140000D03*
X48220000Y-101600000D03*
X45680000Y-101600000D03*
X48220000Y-99060000D03*
X45680000Y-99060000D03*
X48220000Y-96520000D03*
X45680000Y-96520000D03*
X48220000Y-93980000D03*
X45680000Y-93980000D03*
X48220000Y-91440000D03*
X45680000Y-91440000D03*
X48220000Y-88900000D03*
X45680000Y-88900000D03*
X48220000Y-86360000D03*
X45680000Y-86360000D03*
X48220000Y-83820000D03*
X45680000Y-83820000D03*
X48220000Y-81280000D03*
X45680000Y-81280000D03*
X48220000Y-78740000D03*
X45680000Y-78740000D03*
X48220000Y-76200000D03*
X45680000Y-76200000D03*
X48220000Y-73660000D03*
X45680000Y-73660000D03*
X48220000Y-71120000D03*
X45680000Y-71120000D03*
X48220000Y-68580000D03*
X45680000Y-68580000D03*
X48220000Y-66040000D03*
X45680000Y-66040000D03*
X48220000Y-63500000D03*
X45680000Y-63500000D03*
X48220000Y-60960000D03*
X45680000Y-60960000D03*
X48220000Y-58420000D03*
X45680000Y-58420000D03*
X48220000Y-55880000D03*
X45680000Y-55880000D03*
X48220000Y-53340000D03*
X45680000Y-53340000D03*
X48220000Y-50800000D03*
X45680000Y-50800000D03*
X48220000Y-48260000D03*
X45680000Y-48260000D03*
X48220000Y-45720000D03*
X45680000Y-45720000D03*
X48220000Y-43180000D03*
X45680000Y-43180000D03*
%TD*%
D38*
%TO.C,U4*%
X109220000Y-121920000D03*
D39*
X106680000Y-121920000D03*
X109220000Y-119380000D03*
X106680000Y-119380000D03*
X109220000Y-116840000D03*
X106680000Y-116840000D03*
X109220000Y-111760000D03*
X106680000Y-111760000D03*
X109220000Y-109220000D03*
X106680000Y-109220000D03*
X109220000Y-106680000D03*
X106680000Y-106680000D03*
X109220000Y-104140000D03*
X106680000Y-104140000D03*
X109220000Y-101600000D03*
X106680000Y-101600000D03*
X109220000Y-99060000D03*
X106680000Y-99060000D03*
X109220000Y-96520000D03*
X106680000Y-96520000D03*
X109220000Y-93980000D03*
X106680000Y-93980000D03*
X109220000Y-91440000D03*
X106680000Y-91440000D03*
X109220000Y-88900000D03*
X106680000Y-88900000D03*
X109220000Y-86360000D03*
X106680000Y-86360000D03*
X109220000Y-83820000D03*
X106680000Y-83820000D03*
X109220000Y-81280000D03*
X106680000Y-81280000D03*
X109220000Y-78740000D03*
X106680000Y-78740000D03*
X109220000Y-76200000D03*
X106680000Y-76200000D03*
X109220000Y-73660000D03*
X106680000Y-73660000D03*
X109220000Y-71120000D03*
X106680000Y-71120000D03*
X109220000Y-68580000D03*
X106680000Y-68580000D03*
X109220000Y-66040000D03*
X106680000Y-66040000D03*
X109220000Y-63500000D03*
X106680000Y-63500000D03*
X109220000Y-60960000D03*
X106680000Y-60960000D03*
X109220000Y-58420000D03*
X106680000Y-58420000D03*
X109220000Y-55880000D03*
X106680000Y-55880000D03*
X109220000Y-53340000D03*
X106680000Y-53340000D03*
X109220000Y-50800000D03*
X106680000Y-50800000D03*
X109220000Y-48260000D03*
X106680000Y-48260000D03*
X109220000Y-45720000D03*
X106680000Y-45720000D03*
X109220000Y-43180000D03*
X106680000Y-43180000D03*
%TD*%
D42*
%TO.C,J1*%
X146965000Y-108000000D03*
X146965000Y-108850000D03*
X146965000Y-109700000D03*
X146965000Y-110550000D03*
X146965000Y-111400000D03*
X146965000Y-112250000D03*
X146965000Y-113100000D03*
X146965000Y-113950000D03*
X148315000Y-113950000D03*
X148315000Y-113100000D03*
X148315000Y-112250000D03*
X148315000Y-111400000D03*
X148315000Y-110550000D03*
X148315000Y-109700000D03*
X148315000Y-108850000D03*
X148315000Y-108000000D03*
D43*
X151325000Y-106650000D03*
X151325000Y-115300000D03*
D44*
X147945000Y-106650000D03*
X147945000Y-115300000D03*
%TD*%
M02*
