%TF.GenerationSoftware,KiCad,Pcbnew,7.0.1*%
%TF.CreationDate,2023-09-15T22:49:00-07:00*%
%TF.ProjectId,expansionboardA,65787061-6e73-4696-9f6e-626f61726441,3*%
%TF.SameCoordinates,Original*%
%TF.FileFunction,Drillmap*%
%TF.FilePolarity,Positive*%
%FSLAX45Y45*%
G04 Gerber Fmt 4.5, Leading zero omitted, Abs format (unit mm)*
G04 Created by KiCad (PCBNEW 7.0.1) date 2023-09-15 22:49:00*
%MOMM*%
%LPD*%
G01*
G04 APERTURE LIST*
%ADD10C,0.010000*%
%ADD11C,0.200000*%
%ADD12C,0.040000*%
%ADD13C,0.050000*%
%ADD14C,0.055000*%
%ADD15C,0.060000*%
%ADD16C,0.080000*%
%ADD17C,0.095000*%
%ADD18C,0.099000*%
%ADD19C,0.100000*%
%ADD20C,0.130000*%
%ADD21C,0.230000*%
G04 APERTURE END LIST*
D10*
X13309599Y-8214711D02*
G75*
G03*
X13291236Y-8094903I-400019J2D01*
G01*
X2229800Y-6235700D02*
G75*
G03*
X2209800Y-6255700I0J-20000D01*
G01*
X4464001Y-12450828D02*
X12909600Y-12450800D01*
X7183120Y-6868160D02*
X6078220Y-6868160D01*
X6078220Y-6499860D01*
X7183120Y-6499860D01*
X7183120Y-6868160D01*
X2209800Y-6500000D02*
G75*
G03*
X2309800Y-6600000I100000J0D01*
G01*
X13309600Y-4473843D02*
G75*
G03*
X12909600Y-4073840I-400000J3D01*
G01*
X4064000Y-12050828D02*
X4064023Y-8816106D01*
X4064002Y-12050828D02*
G75*
G03*
X4464001Y-12450828I399998J-2D01*
G01*
X2229800Y-5105400D02*
X2238700Y-5105400D01*
X2209800Y-5085400D02*
G75*
G03*
X2229800Y-5105400I20000J0D01*
G01*
X13309600Y-12050800D02*
X13309600Y-8214711D01*
X4463986Y-4074142D02*
X12909600Y-4073840D01*
X2238700Y-6235700D02*
G75*
G03*
X2298700Y-6175700I0J60000D01*
G01*
X4006384Y-8675631D02*
X3451155Y-8056997D01*
X2298700Y-5165400D02*
X2298700Y-6175700D01*
X4064000Y-4474142D02*
X4064000Y-4549800D01*
X4463986Y-4074142D02*
G75*
G03*
X4064000Y-4474142I14J-400000D01*
G01*
X2298700Y-5165400D02*
G75*
G03*
X2238700Y-5105400I-60000J0D01*
G01*
X3864000Y-4749800D02*
X2309800Y-4749800D01*
X4064021Y-8816106D02*
G75*
G03*
X4006384Y-8675631I-200011J-4D01*
G01*
X2309800Y-6600000D02*
X3199978Y-6600000D01*
X8768080Y-11414760D02*
X7663180Y-11414760D01*
X7663180Y-11046460D01*
X8768080Y-11046460D01*
X8768080Y-11414760D01*
X3399999Y-7923413D02*
G75*
G03*
X3451155Y-8056997I200001J3D01*
G01*
X13294218Y-5946654D02*
G75*
G03*
X13309600Y-5836792I-384658J109864D01*
G01*
X12909600Y-12450800D02*
G75*
G03*
X13309600Y-12050800I0J400000D01*
G01*
X2309800Y-4749800D02*
G75*
G03*
X2209800Y-4849800I0J-100000D01*
G01*
X3399980Y-6799997D02*
G75*
G03*
X3199978Y-6600000I-200000J-3D01*
G01*
X3864000Y-4749800D02*
G75*
G03*
X4064000Y-4549800I0J200000D01*
G01*
X2209800Y-4849800D02*
X2209800Y-5085400D01*
X13309600Y-5836792D02*
X13309600Y-4473843D01*
X13245200Y-6118260D02*
X13294217Y-5946654D01*
X2229800Y-6235700D02*
X2238700Y-6235700D01*
X2209800Y-6255700D02*
X2209800Y-6500000D01*
X3399978Y-6799997D02*
X3399999Y-7923413D01*
X13291236Y-8094903D02*
X13245200Y-7948260D01*
D11*
D12*
X2774000Y-5568000D02*
X2814000Y-5608000D01*
X2814000Y-5568000D02*
X2774000Y-5608000D01*
X3485200Y-5949000D02*
X3525200Y-5989000D01*
X3525200Y-5949000D02*
X3485200Y-5989000D01*
X3536000Y-5085400D02*
X3576000Y-5125400D01*
X3576000Y-5085400D02*
X3536000Y-5125400D01*
X3605000Y-6551000D02*
X3645000Y-6591000D01*
X3645000Y-6551000D02*
X3605000Y-6591000D01*
X3663000Y-5669600D02*
X3703000Y-5709600D01*
X3703000Y-5669600D02*
X3663000Y-5709600D01*
X3958840Y-6519160D02*
X3998840Y-6559160D01*
X3998840Y-6519160D02*
X3958840Y-6559160D01*
X4158300Y-6431600D02*
X4198300Y-6471600D01*
X4198300Y-6431600D02*
X4158300Y-6471600D01*
X4239000Y-7278000D02*
X4279000Y-7318000D01*
X4279000Y-7278000D02*
X4239000Y-7318000D01*
X4356898Y-10011568D02*
X4396898Y-10051568D01*
X4396898Y-10011568D02*
X4356898Y-10051568D01*
X5095560Y-12169460D02*
X5135560Y-12209460D01*
X5135560Y-12169460D02*
X5095560Y-12209460D01*
X5225100Y-4640900D02*
X5265100Y-4680900D01*
X5265100Y-4640900D02*
X5225100Y-4680900D01*
X5471480Y-9139240D02*
X5511480Y-9179240D01*
X5511480Y-9139240D02*
X5471480Y-9179240D01*
X5537520Y-7889560D02*
X5577520Y-7929560D01*
X5577520Y-7889560D02*
X5537520Y-7929560D01*
X5811840Y-10322880D02*
X5851840Y-10362880D01*
X5851840Y-10322880D02*
X5811840Y-10362880D01*
X6096320Y-8031800D02*
X6136320Y-8071800D01*
X6136320Y-8031800D02*
X6096320Y-8071800D01*
X6304600Y-7737160D02*
X6344600Y-7777160D01*
X6344600Y-7737160D02*
X6304600Y-7777160D01*
X6462080Y-10368600D02*
X6502080Y-10408600D01*
X6502080Y-10368600D02*
X6462080Y-10408600D01*
X6462080Y-11026460D02*
X6502080Y-11066460D01*
X6502080Y-11026460D02*
X6462080Y-11066460D01*
X6815140Y-11912920D02*
X6855140Y-11952920D01*
X6855140Y-11912920D02*
X6815140Y-11952920D01*
X6863400Y-10327960D02*
X6903400Y-10367960D01*
X6903400Y-10327960D02*
X6863400Y-10367960D01*
X7020880Y-11450640D02*
X7060880Y-11490640D01*
X7060880Y-11450640D02*
X7020880Y-11490640D01*
X7201220Y-10927400D02*
X7241220Y-10967400D01*
X7241220Y-10927400D02*
X7201220Y-10967400D01*
X7269800Y-9139240D02*
X7309800Y-9179240D01*
X7309800Y-9139240D02*
X7269800Y-9179240D01*
X7285040Y-6665280D02*
X7325040Y-6705280D01*
X7325040Y-6665280D02*
X7285040Y-6705280D01*
X7526340Y-11189020D02*
X7566340Y-11229020D01*
X7566340Y-11189020D02*
X7526340Y-11229020D01*
X7645720Y-6962460D02*
X7685720Y-7002460D01*
X7685720Y-6962460D02*
X7645720Y-7002460D01*
X7848920Y-9286560D02*
X7888920Y-9326560D01*
X7888920Y-9286560D02*
X7848920Y-9326560D01*
X8008940Y-4874580D02*
X8048940Y-4914580D01*
X8048940Y-4874580D02*
X8008940Y-4914580D01*
X8275780Y-7246940D02*
X8315780Y-7286940D01*
X8315780Y-7246940D02*
X8275780Y-7286940D01*
X8282000Y-7789000D02*
X8322000Y-7829000D01*
X8322000Y-7789000D02*
X8282000Y-7829000D01*
X8387400Y-6510340D02*
X8427400Y-6550340D01*
X8427400Y-6510340D02*
X8387400Y-6550340D01*
X8468680Y-9078280D02*
X8508680Y-9118280D01*
X8508680Y-9078280D02*
X8468680Y-9118280D01*
X8499040Y-9718133D02*
X8539040Y-9758133D01*
X8539040Y-9718133D02*
X8499040Y-9758133D01*
X8590600Y-4577400D02*
X8630600Y-4617400D01*
X8630600Y-4577400D02*
X8590600Y-4617400D01*
X8946200Y-9144320D02*
X8986200Y-9184320D01*
X8986200Y-9144320D02*
X8946200Y-9184320D01*
X9644700Y-11829100D02*
X9684700Y-11869100D01*
X9684700Y-11829100D02*
X9644700Y-11869100D01*
X9780000Y-6980000D02*
X9820000Y-7020000D01*
X9820000Y-6980000D02*
X9780000Y-7020000D01*
X10067000Y-8686000D02*
X10107000Y-8726000D01*
X10107000Y-8686000D02*
X10067000Y-8726000D01*
X10220504Y-7608566D02*
X10260504Y-7648566D01*
X10260504Y-7608566D02*
X10220504Y-7648566D01*
X10320340Y-12149140D02*
X10360340Y-12189140D01*
X10360340Y-12149140D02*
X10320340Y-12189140D01*
X11122000Y-6489000D02*
X11162000Y-6529000D01*
X11162000Y-6489000D02*
X11122000Y-6529000D01*
X11140760Y-7732080D02*
X11180760Y-7772080D01*
X11180760Y-7732080D02*
X11140760Y-7772080D01*
X11150180Y-8015820D02*
X11190180Y-8055820D01*
X11190180Y-8015820D02*
X11150180Y-8055820D01*
X11460800Y-8527100D02*
X11500800Y-8567100D01*
X11500800Y-8527100D02*
X11460800Y-8567100D01*
X11506520Y-11100120D02*
X11546520Y-11140120D01*
X11546520Y-11100120D02*
X11506520Y-11140120D01*
X11523000Y-5966000D02*
X11563000Y-6006000D01*
X11563000Y-5966000D02*
X11523000Y-6006000D01*
X11837000Y-7920000D02*
X11877000Y-7960000D01*
X11877000Y-7920000D02*
X11837000Y-7960000D01*
X12093000Y-6981000D02*
X12133000Y-7021000D01*
X12133000Y-6981000D02*
X12093000Y-7021000D01*
X12159300Y-8577900D02*
X12199300Y-8617900D01*
X12199300Y-8577900D02*
X12159300Y-8617900D01*
X12299000Y-9124000D02*
X12339000Y-9164000D01*
X12339000Y-9124000D02*
X12299000Y-9164000D01*
X12390550Y-8641400D02*
X12430550Y-8681400D01*
X12430550Y-8641400D02*
X12390550Y-8681400D01*
X12406000Y-6332000D02*
X12446000Y-6372000D01*
X12446000Y-6332000D02*
X12406000Y-6372000D01*
X12464100Y-9720900D02*
X12504100Y-9760900D01*
X12504100Y-9720900D02*
X12464100Y-9760900D01*
X12464100Y-10825800D02*
X12504100Y-10865800D01*
X12504100Y-10825800D02*
X12464100Y-10865800D01*
X12706000Y-5734000D02*
X12746000Y-5774000D01*
X12746000Y-5734000D02*
X12706000Y-5774000D01*
X12928920Y-4351340D02*
X12968920Y-4391340D01*
X12968920Y-4351340D02*
X12928920Y-4391340D01*
X13111800Y-11410700D02*
X13151800Y-11450700D01*
X13151800Y-11410700D02*
X13111800Y-11450700D01*
X12713260Y-11131800D02*
G75*
G03*
X12713260Y-11131800I-20000J0D01*
G01*
X12713260Y-11216800D02*
G75*
G03*
X12713260Y-11216800I-20000J0D01*
G01*
X12713260Y-11301800D02*
G75*
G03*
X12713260Y-11301800I-20000J0D01*
G01*
X12713260Y-11386800D02*
G75*
G03*
X12713260Y-11386800I-20000J0D01*
G01*
X12713260Y-11471800D02*
G75*
G03*
X12713260Y-11471800I-20000J0D01*
G01*
X12713260Y-11556800D02*
G75*
G03*
X12713260Y-11556800I-20000J0D01*
G01*
X12713260Y-11641800D02*
G75*
G03*
X12713260Y-11641800I-20000J0D01*
G01*
X12713260Y-11726800D02*
G75*
G03*
X12713260Y-11726800I-20000J0D01*
G01*
X12848260Y-11131800D02*
G75*
G03*
X12848260Y-11131800I-20000J0D01*
G01*
X12848260Y-11216800D02*
G75*
G03*
X12848260Y-11216800I-20000J0D01*
G01*
X12848260Y-11301800D02*
G75*
G03*
X12848260Y-11301800I-20000J0D01*
G01*
X12848260Y-11386800D02*
G75*
G03*
X12848260Y-11386800I-20000J0D01*
G01*
X12848260Y-11471800D02*
G75*
G03*
X12848260Y-11471800I-20000J0D01*
G01*
X12848260Y-11556800D02*
G75*
G03*
X12848260Y-11556800I-20000J0D01*
G01*
X12848260Y-11641800D02*
G75*
G03*
X12848260Y-11641800I-20000J0D01*
G01*
X12848260Y-11726800D02*
G75*
G03*
X12848260Y-11726800I-20000J0D01*
G01*
D13*
X7395037Y-11080141D02*
X7395037Y-11130141D01*
X7370037Y-11105141D02*
X7420037Y-11105141D01*
X7395037Y-11334141D02*
X7395037Y-11384141D01*
X7370037Y-11359141D02*
X7420037Y-11359141D01*
X7456690Y-6532820D02*
X7456690Y-6582820D01*
X7431690Y-6557820D02*
X7481690Y-6557820D01*
X7456690Y-6786820D02*
X7456690Y-6836820D01*
X7431690Y-6811820D02*
X7481690Y-6811820D01*
D14*
X12356446Y-6653446D02*
X12356446Y-6614554D01*
X12317554Y-6614554D01*
X12317554Y-6653446D01*
X12356446Y-6653446D01*
X12356446Y-6753446D02*
X12356446Y-6714554D01*
X12317554Y-6714554D01*
X12317554Y-6753446D01*
X12356446Y-6753446D01*
X12356446Y-6853446D02*
X12356446Y-6814554D01*
X12317554Y-6814554D01*
X12317554Y-6853446D01*
X12356446Y-6853446D01*
X12356446Y-6953446D02*
X12356446Y-6914554D01*
X12317554Y-6914554D01*
X12317554Y-6953446D01*
X12356446Y-6953446D01*
X12356446Y-7053446D02*
X12356446Y-7014554D01*
X12317554Y-7014554D01*
X12317554Y-7053446D01*
X12356446Y-7053446D01*
X12356446Y-7153446D02*
X12356446Y-7114554D01*
X12317554Y-7114554D01*
X12317554Y-7153446D01*
X12356446Y-7153446D01*
X12356446Y-7253446D02*
X12356446Y-7214554D01*
X12317554Y-7214554D01*
X12317554Y-7253446D01*
X12356446Y-7253446D01*
X12356446Y-7353446D02*
X12356446Y-7314554D01*
X12317554Y-7314554D01*
X12317554Y-7353446D01*
X12356446Y-7353446D01*
X12356446Y-7453446D02*
X12356446Y-7414554D01*
X12317554Y-7414554D01*
X12317554Y-7453446D01*
X12356446Y-7453446D01*
X12511446Y-6603446D02*
X12511446Y-6564554D01*
X12472554Y-6564554D01*
X12472554Y-6603446D01*
X12511446Y-6603446D01*
X12511446Y-6703446D02*
X12511446Y-6664554D01*
X12472554Y-6664554D01*
X12472554Y-6703446D01*
X12511446Y-6703446D01*
X12511446Y-6803446D02*
X12511446Y-6764554D01*
X12472554Y-6764554D01*
X12472554Y-6803446D01*
X12511446Y-6803446D01*
X12511446Y-6903446D02*
X12511446Y-6864554D01*
X12472554Y-6864554D01*
X12472554Y-6903446D01*
X12511446Y-6903446D01*
X12511446Y-7003446D02*
X12511446Y-6964554D01*
X12472554Y-6964554D01*
X12472554Y-7003446D01*
X12511446Y-7003446D01*
X12511446Y-7103446D02*
X12511446Y-7064554D01*
X12472554Y-7064554D01*
X12472554Y-7103446D01*
X12511446Y-7103446D01*
X12511446Y-7203446D02*
X12511446Y-7164554D01*
X12472554Y-7164554D01*
X12472554Y-7203446D01*
X12511446Y-7203446D01*
X12511446Y-7303446D02*
X12511446Y-7264554D01*
X12472554Y-7264554D01*
X12472554Y-7303446D01*
X12511446Y-7303446D01*
X12511446Y-7403446D02*
X12511446Y-7364554D01*
X12472554Y-7364554D01*
X12472554Y-7403446D01*
X12511446Y-7403446D01*
X12511446Y-7503446D02*
X12511446Y-7464554D01*
X12472554Y-7464554D01*
X12472554Y-7503446D01*
X12511446Y-7503446D01*
D15*
X12791260Y-11026800D02*
X12821260Y-10996800D01*
X12791260Y-10966800D01*
X12761260Y-10996800D01*
X12791260Y-11026800D01*
D11*
X12866260Y-10966800D02*
X12716260Y-10966800D01*
X12716260Y-10966800D02*
G75*
G03*
X12716260Y-11026800I0J-30000D01*
G01*
X12716260Y-11026800D02*
X12866260Y-11026800D01*
X12866260Y-11026800D02*
G75*
G03*
X12866260Y-10966800I0J30000D01*
G01*
D15*
X12791260Y-11891800D02*
X12821260Y-11861800D01*
X12791260Y-11831800D01*
X12761260Y-11861800D01*
X12791260Y-11891800D01*
D11*
X12866260Y-11831800D02*
X12716260Y-11831800D01*
X12716260Y-11831800D02*
G75*
G03*
X12716260Y-11891800I0J-30000D01*
G01*
X12716260Y-11891800D02*
X12866260Y-11891800D01*
X12866260Y-11891800D02*
G75*
G03*
X12866260Y-11831800I0J30000D01*
G01*
D15*
X13129260Y-11026800D02*
X13159260Y-10996800D01*
X13129260Y-10966800D01*
X13099260Y-10996800D01*
X13129260Y-11026800D01*
D11*
X13169260Y-10966800D02*
X13089260Y-10966800D01*
X13089260Y-10966800D02*
G75*
G03*
X13089260Y-11026800I0J-30000D01*
G01*
X13089260Y-11026800D02*
X13169260Y-11026800D01*
X13169260Y-11026800D02*
G75*
G03*
X13169260Y-10966800I0J30000D01*
G01*
D15*
X13129260Y-11891800D02*
X13159260Y-11861800D01*
X13129260Y-11831800D01*
X13099260Y-11861800D01*
X13129260Y-11891800D01*
D11*
X13169260Y-11831800D02*
X13089260Y-11831800D01*
X13089260Y-11831800D02*
G75*
G03*
X13089260Y-11891800I0J-30000D01*
G01*
X13089260Y-11891800D02*
X13169260Y-11891800D01*
X13169260Y-11891800D02*
G75*
G03*
X13169260Y-11831800I0J30000D01*
G01*
D16*
X12280000Y-6079000D02*
X12360000Y-6159000D01*
X12360000Y-6079000D02*
X12280000Y-6159000D01*
X12360000Y-6119000D02*
G75*
G03*
X12360000Y-6119000I-40000J0D01*
G01*
D11*
X12255000Y-6159000D02*
X12385000Y-6159000D01*
X12385000Y-6159000D02*
G75*
G03*
X12385000Y-6079000I0J40000D01*
G01*
X12385000Y-6079000D02*
X12255000Y-6079000D01*
X12255000Y-6079000D02*
G75*
G03*
X12255000Y-6159000I0J-40000D01*
G01*
D16*
X12280000Y-7909000D02*
X12360000Y-7989000D01*
X12360000Y-7909000D02*
X12280000Y-7989000D01*
X12360000Y-7949000D02*
G75*
G03*
X12360000Y-7949000I-40000J0D01*
G01*
D11*
X12255000Y-7989000D02*
X12385000Y-7989000D01*
X12385000Y-7989000D02*
G75*
G03*
X12385000Y-7909000I0J40000D01*
G01*
X12385000Y-7909000D02*
X12255000Y-7909000D01*
X12255000Y-7909000D02*
G75*
G03*
X12255000Y-7989000I0J-40000D01*
G01*
D16*
X12990000Y-6079000D02*
X13070000Y-6159000D01*
X13070000Y-6079000D02*
X12990000Y-6159000D01*
X13070000Y-6119000D02*
G75*
G03*
X13070000Y-6119000I-40000J0D01*
G01*
D11*
X12965000Y-6159000D02*
X13095000Y-6159000D01*
X13095000Y-6159000D02*
G75*
G03*
X13095000Y-6079000I0J40000D01*
G01*
X13095000Y-6079000D02*
X12965000Y-6079000D01*
X12965000Y-6079000D02*
G75*
G03*
X12965000Y-6159000I0J-40000D01*
G01*
D16*
X12990000Y-7909000D02*
X13070000Y-7989000D01*
X13070000Y-7909000D02*
X12990000Y-7989000D01*
X13070000Y-7949000D02*
G75*
G03*
X13070000Y-7949000I-40000J0D01*
G01*
D11*
X12965000Y-7989000D02*
X13095000Y-7989000D01*
X13095000Y-7989000D02*
G75*
G03*
X13095000Y-7909000I0J40000D01*
G01*
X13095000Y-7909000D02*
X12965000Y-7909000D01*
X12965000Y-7909000D02*
G75*
G03*
X12965000Y-7989000I0J-40000D01*
G01*
D17*
X7824480Y-5225600D02*
X7919480Y-5320600D01*
X7919480Y-5225600D02*
X7824480Y-5320600D01*
X7871980Y-5225600D02*
X7871980Y-5320600D01*
X7824480Y-5273100D02*
X7919480Y-5273100D01*
X8074480Y-5225600D02*
X8169480Y-5320600D01*
X8169480Y-5225600D02*
X8074480Y-5320600D01*
X8121980Y-5225600D02*
X8121980Y-5320600D01*
X8074480Y-5273100D02*
X8169480Y-5273100D01*
X8274480Y-5225600D02*
X8369480Y-5320600D01*
X8369480Y-5225600D02*
X8274480Y-5320600D01*
X8321980Y-5225600D02*
X8321980Y-5320600D01*
X8274480Y-5273100D02*
X8369480Y-5273100D01*
X8524480Y-5225600D02*
X8619480Y-5320600D01*
X8619480Y-5225600D02*
X8524480Y-5320600D01*
X8571980Y-5225600D02*
X8571980Y-5320600D01*
X8524480Y-5273100D02*
X8619480Y-5273100D01*
D18*
X12621500Y-4622500D02*
X12720500Y-4721500D01*
X12720500Y-4622500D02*
X12621500Y-4721500D01*
X12706002Y-4707002D02*
X12706002Y-4636998D01*
X12635998Y-4636998D01*
X12635998Y-4707002D01*
X12706002Y-4707002D01*
X12621500Y-5072500D02*
X12720500Y-5171500D01*
X12720500Y-5072500D02*
X12621500Y-5171500D01*
X12706002Y-5157002D02*
X12706002Y-5086998D01*
X12635998Y-5086998D01*
X12635998Y-5157002D01*
X12706002Y-5157002D01*
D19*
X3652000Y-6945000D02*
X3752000Y-7045000D01*
X3752000Y-6945000D02*
X3652000Y-7045000D01*
X3702000Y-7045000D02*
X3752000Y-6995000D01*
X3702000Y-6945000D01*
X3652000Y-6995000D01*
X3702000Y-7045000D01*
X3652000Y-7199000D02*
X3752000Y-7299000D01*
X3752000Y-7199000D02*
X3652000Y-7299000D01*
X3702000Y-7299000D02*
X3752000Y-7249000D01*
X3702000Y-7199000D01*
X3652000Y-7249000D01*
X3702000Y-7299000D01*
X3652000Y-7453000D02*
X3752000Y-7553000D01*
X3752000Y-7453000D02*
X3652000Y-7553000D01*
X3702000Y-7553000D02*
X3752000Y-7503000D01*
X3702000Y-7453000D01*
X3652000Y-7503000D01*
X3702000Y-7553000D01*
X3652000Y-7707000D02*
X3752000Y-7807000D01*
X3752000Y-7707000D02*
X3652000Y-7807000D01*
X3702000Y-7807000D02*
X3752000Y-7757000D01*
X3702000Y-7707000D01*
X3652000Y-7757000D01*
X3702000Y-7807000D01*
X4518000Y-4268000D02*
X4618000Y-4368000D01*
X4618000Y-4268000D02*
X4518000Y-4368000D01*
X4568000Y-4368000D02*
X4618000Y-4318000D01*
X4568000Y-4268000D01*
X4518000Y-4318000D01*
X4568000Y-4368000D01*
X4518000Y-4522000D02*
X4618000Y-4622000D01*
X4618000Y-4522000D02*
X4518000Y-4622000D01*
X4568000Y-4622000D02*
X4618000Y-4572000D01*
X4568000Y-4522000D01*
X4518000Y-4572000D01*
X4568000Y-4622000D01*
X4518000Y-4776000D02*
X4618000Y-4876000D01*
X4618000Y-4776000D02*
X4518000Y-4876000D01*
X4568000Y-4876000D02*
X4618000Y-4826000D01*
X4568000Y-4776000D01*
X4518000Y-4826000D01*
X4568000Y-4876000D01*
X4518000Y-5030000D02*
X4618000Y-5130000D01*
X4618000Y-5030000D02*
X4518000Y-5130000D01*
X4568000Y-5130000D02*
X4618000Y-5080000D01*
X4568000Y-5030000D01*
X4518000Y-5080000D01*
X4568000Y-5130000D01*
X4518000Y-5284000D02*
X4618000Y-5384000D01*
X4618000Y-5284000D02*
X4518000Y-5384000D01*
X4568000Y-5384000D02*
X4618000Y-5334000D01*
X4568000Y-5284000D01*
X4518000Y-5334000D01*
X4568000Y-5384000D01*
X4518000Y-5538000D02*
X4618000Y-5638000D01*
X4618000Y-5538000D02*
X4518000Y-5638000D01*
X4568000Y-5638000D02*
X4618000Y-5588000D01*
X4568000Y-5538000D01*
X4518000Y-5588000D01*
X4568000Y-5638000D01*
X4518000Y-5792000D02*
X4618000Y-5892000D01*
X4618000Y-5792000D02*
X4518000Y-5892000D01*
X4568000Y-5892000D02*
X4618000Y-5842000D01*
X4568000Y-5792000D01*
X4518000Y-5842000D01*
X4568000Y-5892000D01*
X4518000Y-6046000D02*
X4618000Y-6146000D01*
X4618000Y-6046000D02*
X4518000Y-6146000D01*
X4568000Y-6146000D02*
X4618000Y-6096000D01*
X4568000Y-6046000D01*
X4518000Y-6096000D01*
X4568000Y-6146000D01*
X4518000Y-6300000D02*
X4618000Y-6400000D01*
X4618000Y-6300000D02*
X4518000Y-6400000D01*
X4568000Y-6400000D02*
X4618000Y-6350000D01*
X4568000Y-6300000D01*
X4518000Y-6350000D01*
X4568000Y-6400000D01*
X4518000Y-6554000D02*
X4618000Y-6654000D01*
X4618000Y-6554000D02*
X4518000Y-6654000D01*
X4568000Y-6654000D02*
X4618000Y-6604000D01*
X4568000Y-6554000D01*
X4518000Y-6604000D01*
X4568000Y-6654000D01*
X4518000Y-6808000D02*
X4618000Y-6908000D01*
X4618000Y-6808000D02*
X4518000Y-6908000D01*
X4568000Y-6908000D02*
X4618000Y-6858000D01*
X4568000Y-6808000D01*
X4518000Y-6858000D01*
X4568000Y-6908000D01*
X4518000Y-7062000D02*
X4618000Y-7162000D01*
X4618000Y-7062000D02*
X4518000Y-7162000D01*
X4568000Y-7162000D02*
X4618000Y-7112000D01*
X4568000Y-7062000D01*
X4518000Y-7112000D01*
X4568000Y-7162000D01*
X4518000Y-7316000D02*
X4618000Y-7416000D01*
X4618000Y-7316000D02*
X4518000Y-7416000D01*
X4568000Y-7416000D02*
X4618000Y-7366000D01*
X4568000Y-7316000D01*
X4518000Y-7366000D01*
X4568000Y-7416000D01*
X4518000Y-7570000D02*
X4618000Y-7670000D01*
X4618000Y-7570000D02*
X4518000Y-7670000D01*
X4568000Y-7670000D02*
X4618000Y-7620000D01*
X4568000Y-7570000D01*
X4518000Y-7620000D01*
X4568000Y-7670000D01*
X4518000Y-7824000D02*
X4618000Y-7924000D01*
X4618000Y-7824000D02*
X4518000Y-7924000D01*
X4568000Y-7924000D02*
X4618000Y-7874000D01*
X4568000Y-7824000D01*
X4518000Y-7874000D01*
X4568000Y-7924000D01*
X4518000Y-8078000D02*
X4618000Y-8178000D01*
X4618000Y-8078000D02*
X4518000Y-8178000D01*
X4568000Y-8178000D02*
X4618000Y-8128000D01*
X4568000Y-8078000D01*
X4518000Y-8128000D01*
X4568000Y-8178000D01*
X4518000Y-8332000D02*
X4618000Y-8432000D01*
X4618000Y-8332000D02*
X4518000Y-8432000D01*
X4568000Y-8432000D02*
X4618000Y-8382000D01*
X4568000Y-8332000D01*
X4518000Y-8382000D01*
X4568000Y-8432000D01*
X4518000Y-8586000D02*
X4618000Y-8686000D01*
X4618000Y-8586000D02*
X4518000Y-8686000D01*
X4568000Y-8686000D02*
X4618000Y-8636000D01*
X4568000Y-8586000D01*
X4518000Y-8636000D01*
X4568000Y-8686000D01*
X4518000Y-8840000D02*
X4618000Y-8940000D01*
X4618000Y-8840000D02*
X4518000Y-8940000D01*
X4568000Y-8940000D02*
X4618000Y-8890000D01*
X4568000Y-8840000D01*
X4518000Y-8890000D01*
X4568000Y-8940000D01*
X4518000Y-9094000D02*
X4618000Y-9194000D01*
X4618000Y-9094000D02*
X4518000Y-9194000D01*
X4568000Y-9194000D02*
X4618000Y-9144000D01*
X4568000Y-9094000D01*
X4518000Y-9144000D01*
X4568000Y-9194000D01*
X4518000Y-9348000D02*
X4618000Y-9448000D01*
X4618000Y-9348000D02*
X4518000Y-9448000D01*
X4568000Y-9448000D02*
X4618000Y-9398000D01*
X4568000Y-9348000D01*
X4518000Y-9398000D01*
X4568000Y-9448000D01*
X4518000Y-9602000D02*
X4618000Y-9702000D01*
X4618000Y-9602000D02*
X4518000Y-9702000D01*
X4568000Y-9702000D02*
X4618000Y-9652000D01*
X4568000Y-9602000D01*
X4518000Y-9652000D01*
X4568000Y-9702000D01*
X4518000Y-9856000D02*
X4618000Y-9956000D01*
X4618000Y-9856000D02*
X4518000Y-9956000D01*
X4568000Y-9956000D02*
X4618000Y-9906000D01*
X4568000Y-9856000D01*
X4518000Y-9906000D01*
X4568000Y-9956000D01*
X4518000Y-10110000D02*
X4618000Y-10210000D01*
X4618000Y-10110000D02*
X4518000Y-10210000D01*
X4568000Y-10210000D02*
X4618000Y-10160000D01*
X4568000Y-10110000D01*
X4518000Y-10160000D01*
X4568000Y-10210000D01*
X4518000Y-10364000D02*
X4618000Y-10464000D01*
X4618000Y-10364000D02*
X4518000Y-10464000D01*
X4568000Y-10464000D02*
X4618000Y-10414000D01*
X4568000Y-10364000D01*
X4518000Y-10414000D01*
X4568000Y-10464000D01*
X4518000Y-10618000D02*
X4618000Y-10718000D01*
X4618000Y-10618000D02*
X4518000Y-10718000D01*
X4568000Y-10718000D02*
X4618000Y-10668000D01*
X4568000Y-10618000D01*
X4518000Y-10668000D01*
X4568000Y-10718000D01*
X4518000Y-10872000D02*
X4618000Y-10972000D01*
X4618000Y-10872000D02*
X4518000Y-10972000D01*
X4568000Y-10972000D02*
X4618000Y-10922000D01*
X4568000Y-10872000D01*
X4518000Y-10922000D01*
X4568000Y-10972000D01*
X4518000Y-11126000D02*
X4618000Y-11226000D01*
X4618000Y-11126000D02*
X4518000Y-11226000D01*
X4568000Y-11226000D02*
X4618000Y-11176000D01*
X4568000Y-11126000D01*
X4518000Y-11176000D01*
X4568000Y-11226000D01*
X4518000Y-11380000D02*
X4618000Y-11480000D01*
X4618000Y-11380000D02*
X4518000Y-11480000D01*
X4568000Y-11480000D02*
X4618000Y-11430000D01*
X4568000Y-11380000D01*
X4518000Y-11430000D01*
X4568000Y-11480000D01*
X4518000Y-11634000D02*
X4618000Y-11734000D01*
X4618000Y-11634000D02*
X4518000Y-11734000D01*
X4568000Y-11734000D02*
X4618000Y-11684000D01*
X4568000Y-11634000D01*
X4518000Y-11684000D01*
X4568000Y-11734000D01*
X4518000Y-11888000D02*
X4618000Y-11988000D01*
X4618000Y-11888000D02*
X4518000Y-11988000D01*
X4568000Y-11988000D02*
X4618000Y-11938000D01*
X4568000Y-11888000D01*
X4518000Y-11938000D01*
X4568000Y-11988000D01*
X4518000Y-12142000D02*
X4618000Y-12242000D01*
X4618000Y-12142000D02*
X4518000Y-12242000D01*
X4568000Y-12242000D02*
X4618000Y-12192000D01*
X4568000Y-12142000D01*
X4518000Y-12192000D01*
X4568000Y-12242000D01*
X4772000Y-4268000D02*
X4872000Y-4368000D01*
X4872000Y-4268000D02*
X4772000Y-4368000D01*
X4822000Y-4368000D02*
X4872000Y-4318000D01*
X4822000Y-4268000D01*
X4772000Y-4318000D01*
X4822000Y-4368000D01*
X4772000Y-4522000D02*
X4872000Y-4622000D01*
X4872000Y-4522000D02*
X4772000Y-4622000D01*
X4822000Y-4622000D02*
X4872000Y-4572000D01*
X4822000Y-4522000D01*
X4772000Y-4572000D01*
X4822000Y-4622000D01*
X4772000Y-4776000D02*
X4872000Y-4876000D01*
X4872000Y-4776000D02*
X4772000Y-4876000D01*
X4822000Y-4876000D02*
X4872000Y-4826000D01*
X4822000Y-4776000D01*
X4772000Y-4826000D01*
X4822000Y-4876000D01*
X4772000Y-5030000D02*
X4872000Y-5130000D01*
X4872000Y-5030000D02*
X4772000Y-5130000D01*
X4822000Y-5130000D02*
X4872000Y-5080000D01*
X4822000Y-5030000D01*
X4772000Y-5080000D01*
X4822000Y-5130000D01*
X4772000Y-5284000D02*
X4872000Y-5384000D01*
X4872000Y-5284000D02*
X4772000Y-5384000D01*
X4822000Y-5384000D02*
X4872000Y-5334000D01*
X4822000Y-5284000D01*
X4772000Y-5334000D01*
X4822000Y-5384000D01*
X4772000Y-5538000D02*
X4872000Y-5638000D01*
X4872000Y-5538000D02*
X4772000Y-5638000D01*
X4822000Y-5638000D02*
X4872000Y-5588000D01*
X4822000Y-5538000D01*
X4772000Y-5588000D01*
X4822000Y-5638000D01*
X4772000Y-5792000D02*
X4872000Y-5892000D01*
X4872000Y-5792000D02*
X4772000Y-5892000D01*
X4822000Y-5892000D02*
X4872000Y-5842000D01*
X4822000Y-5792000D01*
X4772000Y-5842000D01*
X4822000Y-5892000D01*
X4772000Y-6046000D02*
X4872000Y-6146000D01*
X4872000Y-6046000D02*
X4772000Y-6146000D01*
X4822000Y-6146000D02*
X4872000Y-6096000D01*
X4822000Y-6046000D01*
X4772000Y-6096000D01*
X4822000Y-6146000D01*
X4772000Y-6300000D02*
X4872000Y-6400000D01*
X4872000Y-6300000D02*
X4772000Y-6400000D01*
X4822000Y-6400000D02*
X4872000Y-6350000D01*
X4822000Y-6300000D01*
X4772000Y-6350000D01*
X4822000Y-6400000D01*
X4772000Y-6554000D02*
X4872000Y-6654000D01*
X4872000Y-6554000D02*
X4772000Y-6654000D01*
X4822000Y-6654000D02*
X4872000Y-6604000D01*
X4822000Y-6554000D01*
X4772000Y-6604000D01*
X4822000Y-6654000D01*
X4772000Y-6808000D02*
X4872000Y-6908000D01*
X4872000Y-6808000D02*
X4772000Y-6908000D01*
X4822000Y-6908000D02*
X4872000Y-6858000D01*
X4822000Y-6808000D01*
X4772000Y-6858000D01*
X4822000Y-6908000D01*
X4772000Y-7062000D02*
X4872000Y-7162000D01*
X4872000Y-7062000D02*
X4772000Y-7162000D01*
X4822000Y-7162000D02*
X4872000Y-7112000D01*
X4822000Y-7062000D01*
X4772000Y-7112000D01*
X4822000Y-7162000D01*
X4772000Y-7316000D02*
X4872000Y-7416000D01*
X4872000Y-7316000D02*
X4772000Y-7416000D01*
X4822000Y-7416000D02*
X4872000Y-7366000D01*
X4822000Y-7316000D01*
X4772000Y-7366000D01*
X4822000Y-7416000D01*
X4772000Y-7570000D02*
X4872000Y-7670000D01*
X4872000Y-7570000D02*
X4772000Y-7670000D01*
X4822000Y-7670000D02*
X4872000Y-7620000D01*
X4822000Y-7570000D01*
X4772000Y-7620000D01*
X4822000Y-7670000D01*
X4772000Y-7824000D02*
X4872000Y-7924000D01*
X4872000Y-7824000D02*
X4772000Y-7924000D01*
X4822000Y-7924000D02*
X4872000Y-7874000D01*
X4822000Y-7824000D01*
X4772000Y-7874000D01*
X4822000Y-7924000D01*
X4772000Y-8078000D02*
X4872000Y-8178000D01*
X4872000Y-8078000D02*
X4772000Y-8178000D01*
X4822000Y-8178000D02*
X4872000Y-8128000D01*
X4822000Y-8078000D01*
X4772000Y-8128000D01*
X4822000Y-8178000D01*
X4772000Y-8332000D02*
X4872000Y-8432000D01*
X4872000Y-8332000D02*
X4772000Y-8432000D01*
X4822000Y-8432000D02*
X4872000Y-8382000D01*
X4822000Y-8332000D01*
X4772000Y-8382000D01*
X4822000Y-8432000D01*
X4772000Y-8586000D02*
X4872000Y-8686000D01*
X4872000Y-8586000D02*
X4772000Y-8686000D01*
X4822000Y-8686000D02*
X4872000Y-8636000D01*
X4822000Y-8586000D01*
X4772000Y-8636000D01*
X4822000Y-8686000D01*
X4772000Y-8840000D02*
X4872000Y-8940000D01*
X4872000Y-8840000D02*
X4772000Y-8940000D01*
X4822000Y-8940000D02*
X4872000Y-8890000D01*
X4822000Y-8840000D01*
X4772000Y-8890000D01*
X4822000Y-8940000D01*
X4772000Y-9094000D02*
X4872000Y-9194000D01*
X4872000Y-9094000D02*
X4772000Y-9194000D01*
X4822000Y-9194000D02*
X4872000Y-9144000D01*
X4822000Y-9094000D01*
X4772000Y-9144000D01*
X4822000Y-9194000D01*
X4772000Y-9348000D02*
X4872000Y-9448000D01*
X4872000Y-9348000D02*
X4772000Y-9448000D01*
X4822000Y-9448000D02*
X4872000Y-9398000D01*
X4822000Y-9348000D01*
X4772000Y-9398000D01*
X4822000Y-9448000D01*
X4772000Y-9602000D02*
X4872000Y-9702000D01*
X4872000Y-9602000D02*
X4772000Y-9702000D01*
X4822000Y-9702000D02*
X4872000Y-9652000D01*
X4822000Y-9602000D01*
X4772000Y-9652000D01*
X4822000Y-9702000D01*
X4772000Y-9856000D02*
X4872000Y-9956000D01*
X4872000Y-9856000D02*
X4772000Y-9956000D01*
X4822000Y-9956000D02*
X4872000Y-9906000D01*
X4822000Y-9856000D01*
X4772000Y-9906000D01*
X4822000Y-9956000D01*
X4772000Y-10110000D02*
X4872000Y-10210000D01*
X4872000Y-10110000D02*
X4772000Y-10210000D01*
X4822000Y-10210000D02*
X4872000Y-10160000D01*
X4822000Y-10110000D01*
X4772000Y-10160000D01*
X4822000Y-10210000D01*
X4772000Y-10364000D02*
X4872000Y-10464000D01*
X4872000Y-10364000D02*
X4772000Y-10464000D01*
X4822000Y-10464000D02*
X4872000Y-10414000D01*
X4822000Y-10364000D01*
X4772000Y-10414000D01*
X4822000Y-10464000D01*
X4772000Y-10618000D02*
X4872000Y-10718000D01*
X4872000Y-10618000D02*
X4772000Y-10718000D01*
X4822000Y-10718000D02*
X4872000Y-10668000D01*
X4822000Y-10618000D01*
X4772000Y-10668000D01*
X4822000Y-10718000D01*
X4772000Y-10872000D02*
X4872000Y-10972000D01*
X4872000Y-10872000D02*
X4772000Y-10972000D01*
X4822000Y-10972000D02*
X4872000Y-10922000D01*
X4822000Y-10872000D01*
X4772000Y-10922000D01*
X4822000Y-10972000D01*
X4772000Y-11126000D02*
X4872000Y-11226000D01*
X4872000Y-11126000D02*
X4772000Y-11226000D01*
X4822000Y-11226000D02*
X4872000Y-11176000D01*
X4822000Y-11126000D01*
X4772000Y-11176000D01*
X4822000Y-11226000D01*
X4772000Y-11380000D02*
X4872000Y-11480000D01*
X4872000Y-11380000D02*
X4772000Y-11480000D01*
X4822000Y-11480000D02*
X4872000Y-11430000D01*
X4822000Y-11380000D01*
X4772000Y-11430000D01*
X4822000Y-11480000D01*
X4772000Y-11634000D02*
X4872000Y-11734000D01*
X4872000Y-11634000D02*
X4772000Y-11734000D01*
X4822000Y-11734000D02*
X4872000Y-11684000D01*
X4822000Y-11634000D01*
X4772000Y-11684000D01*
X4822000Y-11734000D01*
X4772000Y-11888000D02*
X4872000Y-11988000D01*
X4872000Y-11888000D02*
X4772000Y-11988000D01*
X4822000Y-11988000D02*
X4872000Y-11938000D01*
X4822000Y-11888000D01*
X4772000Y-11938000D01*
X4822000Y-11988000D01*
X4772000Y-12142000D02*
X4872000Y-12242000D01*
X4872000Y-12142000D02*
X4772000Y-12242000D01*
X4822000Y-12242000D02*
X4872000Y-12192000D01*
X4822000Y-12142000D01*
X4772000Y-12192000D01*
X4822000Y-12242000D01*
X10618000Y-4268000D02*
X10718000Y-4368000D01*
X10718000Y-4268000D02*
X10618000Y-4368000D01*
X10668000Y-4368000D02*
X10718000Y-4318000D01*
X10668000Y-4268000D01*
X10618000Y-4318000D01*
X10668000Y-4368000D01*
X10618000Y-4522000D02*
X10718000Y-4622000D01*
X10718000Y-4522000D02*
X10618000Y-4622000D01*
X10668000Y-4622000D02*
X10718000Y-4572000D01*
X10668000Y-4522000D01*
X10618000Y-4572000D01*
X10668000Y-4622000D01*
X10618000Y-4776000D02*
X10718000Y-4876000D01*
X10718000Y-4776000D02*
X10618000Y-4876000D01*
X10668000Y-4876000D02*
X10718000Y-4826000D01*
X10668000Y-4776000D01*
X10618000Y-4826000D01*
X10668000Y-4876000D01*
X10618000Y-5030000D02*
X10718000Y-5130000D01*
X10718000Y-5030000D02*
X10618000Y-5130000D01*
X10668000Y-5130000D02*
X10718000Y-5080000D01*
X10668000Y-5030000D01*
X10618000Y-5080000D01*
X10668000Y-5130000D01*
X10618000Y-5284000D02*
X10718000Y-5384000D01*
X10718000Y-5284000D02*
X10618000Y-5384000D01*
X10668000Y-5384000D02*
X10718000Y-5334000D01*
X10668000Y-5284000D01*
X10618000Y-5334000D01*
X10668000Y-5384000D01*
X10618000Y-5538000D02*
X10718000Y-5638000D01*
X10718000Y-5538000D02*
X10618000Y-5638000D01*
X10668000Y-5638000D02*
X10718000Y-5588000D01*
X10668000Y-5538000D01*
X10618000Y-5588000D01*
X10668000Y-5638000D01*
X10618000Y-5792000D02*
X10718000Y-5892000D01*
X10718000Y-5792000D02*
X10618000Y-5892000D01*
X10668000Y-5892000D02*
X10718000Y-5842000D01*
X10668000Y-5792000D01*
X10618000Y-5842000D01*
X10668000Y-5892000D01*
X10618000Y-6046000D02*
X10718000Y-6146000D01*
X10718000Y-6046000D02*
X10618000Y-6146000D01*
X10668000Y-6146000D02*
X10718000Y-6096000D01*
X10668000Y-6046000D01*
X10618000Y-6096000D01*
X10668000Y-6146000D01*
X10618000Y-6300000D02*
X10718000Y-6400000D01*
X10718000Y-6300000D02*
X10618000Y-6400000D01*
X10668000Y-6400000D02*
X10718000Y-6350000D01*
X10668000Y-6300000D01*
X10618000Y-6350000D01*
X10668000Y-6400000D01*
X10618000Y-6554000D02*
X10718000Y-6654000D01*
X10718000Y-6554000D02*
X10618000Y-6654000D01*
X10668000Y-6654000D02*
X10718000Y-6604000D01*
X10668000Y-6554000D01*
X10618000Y-6604000D01*
X10668000Y-6654000D01*
X10618000Y-6808000D02*
X10718000Y-6908000D01*
X10718000Y-6808000D02*
X10618000Y-6908000D01*
X10668000Y-6908000D02*
X10718000Y-6858000D01*
X10668000Y-6808000D01*
X10618000Y-6858000D01*
X10668000Y-6908000D01*
X10618000Y-7062000D02*
X10718000Y-7162000D01*
X10718000Y-7062000D02*
X10618000Y-7162000D01*
X10668000Y-7162000D02*
X10718000Y-7112000D01*
X10668000Y-7062000D01*
X10618000Y-7112000D01*
X10668000Y-7162000D01*
X10618000Y-7316000D02*
X10718000Y-7416000D01*
X10718000Y-7316000D02*
X10618000Y-7416000D01*
X10668000Y-7416000D02*
X10718000Y-7366000D01*
X10668000Y-7316000D01*
X10618000Y-7366000D01*
X10668000Y-7416000D01*
X10618000Y-7570000D02*
X10718000Y-7670000D01*
X10718000Y-7570000D02*
X10618000Y-7670000D01*
X10668000Y-7670000D02*
X10718000Y-7620000D01*
X10668000Y-7570000D01*
X10618000Y-7620000D01*
X10668000Y-7670000D01*
X10618000Y-7824000D02*
X10718000Y-7924000D01*
X10718000Y-7824000D02*
X10618000Y-7924000D01*
X10668000Y-7924000D02*
X10718000Y-7874000D01*
X10668000Y-7824000D01*
X10618000Y-7874000D01*
X10668000Y-7924000D01*
X10618000Y-8078000D02*
X10718000Y-8178000D01*
X10718000Y-8078000D02*
X10618000Y-8178000D01*
X10668000Y-8178000D02*
X10718000Y-8128000D01*
X10668000Y-8078000D01*
X10618000Y-8128000D01*
X10668000Y-8178000D01*
X10618000Y-8332000D02*
X10718000Y-8432000D01*
X10718000Y-8332000D02*
X10618000Y-8432000D01*
X10668000Y-8432000D02*
X10718000Y-8382000D01*
X10668000Y-8332000D01*
X10618000Y-8382000D01*
X10668000Y-8432000D01*
X10618000Y-8586000D02*
X10718000Y-8686000D01*
X10718000Y-8586000D02*
X10618000Y-8686000D01*
X10668000Y-8686000D02*
X10718000Y-8636000D01*
X10668000Y-8586000D01*
X10618000Y-8636000D01*
X10668000Y-8686000D01*
X10618000Y-8840000D02*
X10718000Y-8940000D01*
X10718000Y-8840000D02*
X10618000Y-8940000D01*
X10668000Y-8940000D02*
X10718000Y-8890000D01*
X10668000Y-8840000D01*
X10618000Y-8890000D01*
X10668000Y-8940000D01*
X10618000Y-9094000D02*
X10718000Y-9194000D01*
X10718000Y-9094000D02*
X10618000Y-9194000D01*
X10668000Y-9194000D02*
X10718000Y-9144000D01*
X10668000Y-9094000D01*
X10618000Y-9144000D01*
X10668000Y-9194000D01*
X10618000Y-9348000D02*
X10718000Y-9448000D01*
X10718000Y-9348000D02*
X10618000Y-9448000D01*
X10668000Y-9448000D02*
X10718000Y-9398000D01*
X10668000Y-9348000D01*
X10618000Y-9398000D01*
X10668000Y-9448000D01*
X10618000Y-9602000D02*
X10718000Y-9702000D01*
X10718000Y-9602000D02*
X10618000Y-9702000D01*
X10668000Y-9702000D02*
X10718000Y-9652000D01*
X10668000Y-9602000D01*
X10618000Y-9652000D01*
X10668000Y-9702000D01*
X10618000Y-9856000D02*
X10718000Y-9956000D01*
X10718000Y-9856000D02*
X10618000Y-9956000D01*
X10668000Y-9956000D02*
X10718000Y-9906000D01*
X10668000Y-9856000D01*
X10618000Y-9906000D01*
X10668000Y-9956000D01*
X10618000Y-10110000D02*
X10718000Y-10210000D01*
X10718000Y-10110000D02*
X10618000Y-10210000D01*
X10668000Y-10210000D02*
X10718000Y-10160000D01*
X10668000Y-10110000D01*
X10618000Y-10160000D01*
X10668000Y-10210000D01*
X10618000Y-10364000D02*
X10718000Y-10464000D01*
X10718000Y-10364000D02*
X10618000Y-10464000D01*
X10668000Y-10464000D02*
X10718000Y-10414000D01*
X10668000Y-10364000D01*
X10618000Y-10414000D01*
X10668000Y-10464000D01*
X10618000Y-10618000D02*
X10718000Y-10718000D01*
X10718000Y-10618000D02*
X10618000Y-10718000D01*
X10668000Y-10718000D02*
X10718000Y-10668000D01*
X10668000Y-10618000D01*
X10618000Y-10668000D01*
X10668000Y-10718000D01*
X10618000Y-10872000D02*
X10718000Y-10972000D01*
X10718000Y-10872000D02*
X10618000Y-10972000D01*
X10668000Y-10972000D02*
X10718000Y-10922000D01*
X10668000Y-10872000D01*
X10618000Y-10922000D01*
X10668000Y-10972000D01*
X10618000Y-11126000D02*
X10718000Y-11226000D01*
X10718000Y-11126000D02*
X10618000Y-11226000D01*
X10668000Y-11226000D02*
X10718000Y-11176000D01*
X10668000Y-11126000D01*
X10618000Y-11176000D01*
X10668000Y-11226000D01*
X10618000Y-11634000D02*
X10718000Y-11734000D01*
X10718000Y-11634000D02*
X10618000Y-11734000D01*
X10668000Y-11734000D02*
X10718000Y-11684000D01*
X10668000Y-11634000D01*
X10618000Y-11684000D01*
X10668000Y-11734000D01*
X10618000Y-11888000D02*
X10718000Y-11988000D01*
X10718000Y-11888000D02*
X10618000Y-11988000D01*
X10668000Y-11988000D02*
X10718000Y-11938000D01*
X10668000Y-11888000D01*
X10618000Y-11938000D01*
X10668000Y-11988000D01*
X10618000Y-12142000D02*
X10718000Y-12242000D01*
X10718000Y-12142000D02*
X10618000Y-12242000D01*
X10668000Y-12242000D02*
X10718000Y-12192000D01*
X10668000Y-12142000D01*
X10618000Y-12192000D01*
X10668000Y-12242000D01*
X10872000Y-4268000D02*
X10972000Y-4368000D01*
X10972000Y-4268000D02*
X10872000Y-4368000D01*
X10922000Y-4368000D02*
X10972000Y-4318000D01*
X10922000Y-4268000D01*
X10872000Y-4318000D01*
X10922000Y-4368000D01*
X10872000Y-4522000D02*
X10972000Y-4622000D01*
X10972000Y-4522000D02*
X10872000Y-4622000D01*
X10922000Y-4622000D02*
X10972000Y-4572000D01*
X10922000Y-4522000D01*
X10872000Y-4572000D01*
X10922000Y-4622000D01*
X10872000Y-4776000D02*
X10972000Y-4876000D01*
X10972000Y-4776000D02*
X10872000Y-4876000D01*
X10922000Y-4876000D02*
X10972000Y-4826000D01*
X10922000Y-4776000D01*
X10872000Y-4826000D01*
X10922000Y-4876000D01*
X10872000Y-5030000D02*
X10972000Y-5130000D01*
X10972000Y-5030000D02*
X10872000Y-5130000D01*
X10922000Y-5130000D02*
X10972000Y-5080000D01*
X10922000Y-5030000D01*
X10872000Y-5080000D01*
X10922000Y-5130000D01*
X10872000Y-5284000D02*
X10972000Y-5384000D01*
X10972000Y-5284000D02*
X10872000Y-5384000D01*
X10922000Y-5384000D02*
X10972000Y-5334000D01*
X10922000Y-5284000D01*
X10872000Y-5334000D01*
X10922000Y-5384000D01*
X10872000Y-5538000D02*
X10972000Y-5638000D01*
X10972000Y-5538000D02*
X10872000Y-5638000D01*
X10922000Y-5638000D02*
X10972000Y-5588000D01*
X10922000Y-5538000D01*
X10872000Y-5588000D01*
X10922000Y-5638000D01*
X10872000Y-5792000D02*
X10972000Y-5892000D01*
X10972000Y-5792000D02*
X10872000Y-5892000D01*
X10922000Y-5892000D02*
X10972000Y-5842000D01*
X10922000Y-5792000D01*
X10872000Y-5842000D01*
X10922000Y-5892000D01*
X10872000Y-6046000D02*
X10972000Y-6146000D01*
X10972000Y-6046000D02*
X10872000Y-6146000D01*
X10922000Y-6146000D02*
X10972000Y-6096000D01*
X10922000Y-6046000D01*
X10872000Y-6096000D01*
X10922000Y-6146000D01*
X10872000Y-6300000D02*
X10972000Y-6400000D01*
X10972000Y-6300000D02*
X10872000Y-6400000D01*
X10922000Y-6400000D02*
X10972000Y-6350000D01*
X10922000Y-6300000D01*
X10872000Y-6350000D01*
X10922000Y-6400000D01*
X10872000Y-6554000D02*
X10972000Y-6654000D01*
X10972000Y-6554000D02*
X10872000Y-6654000D01*
X10922000Y-6654000D02*
X10972000Y-6604000D01*
X10922000Y-6554000D01*
X10872000Y-6604000D01*
X10922000Y-6654000D01*
X10872000Y-6808000D02*
X10972000Y-6908000D01*
X10972000Y-6808000D02*
X10872000Y-6908000D01*
X10922000Y-6908000D02*
X10972000Y-6858000D01*
X10922000Y-6808000D01*
X10872000Y-6858000D01*
X10922000Y-6908000D01*
X10872000Y-7062000D02*
X10972000Y-7162000D01*
X10972000Y-7062000D02*
X10872000Y-7162000D01*
X10922000Y-7162000D02*
X10972000Y-7112000D01*
X10922000Y-7062000D01*
X10872000Y-7112000D01*
X10922000Y-7162000D01*
X10872000Y-7316000D02*
X10972000Y-7416000D01*
X10972000Y-7316000D02*
X10872000Y-7416000D01*
X10922000Y-7416000D02*
X10972000Y-7366000D01*
X10922000Y-7316000D01*
X10872000Y-7366000D01*
X10922000Y-7416000D01*
X10872000Y-7570000D02*
X10972000Y-7670000D01*
X10972000Y-7570000D02*
X10872000Y-7670000D01*
X10922000Y-7670000D02*
X10972000Y-7620000D01*
X10922000Y-7570000D01*
X10872000Y-7620000D01*
X10922000Y-7670000D01*
X10872000Y-7824000D02*
X10972000Y-7924000D01*
X10972000Y-7824000D02*
X10872000Y-7924000D01*
X10922000Y-7924000D02*
X10972000Y-7874000D01*
X10922000Y-7824000D01*
X10872000Y-7874000D01*
X10922000Y-7924000D01*
X10872000Y-8078000D02*
X10972000Y-8178000D01*
X10972000Y-8078000D02*
X10872000Y-8178000D01*
X10922000Y-8178000D02*
X10972000Y-8128000D01*
X10922000Y-8078000D01*
X10872000Y-8128000D01*
X10922000Y-8178000D01*
X10872000Y-8332000D02*
X10972000Y-8432000D01*
X10972000Y-8332000D02*
X10872000Y-8432000D01*
X10922000Y-8432000D02*
X10972000Y-8382000D01*
X10922000Y-8332000D01*
X10872000Y-8382000D01*
X10922000Y-8432000D01*
X10872000Y-8586000D02*
X10972000Y-8686000D01*
X10972000Y-8586000D02*
X10872000Y-8686000D01*
X10922000Y-8686000D02*
X10972000Y-8636000D01*
X10922000Y-8586000D01*
X10872000Y-8636000D01*
X10922000Y-8686000D01*
X10872000Y-8840000D02*
X10972000Y-8940000D01*
X10972000Y-8840000D02*
X10872000Y-8940000D01*
X10922000Y-8940000D02*
X10972000Y-8890000D01*
X10922000Y-8840000D01*
X10872000Y-8890000D01*
X10922000Y-8940000D01*
X10872000Y-9094000D02*
X10972000Y-9194000D01*
X10972000Y-9094000D02*
X10872000Y-9194000D01*
X10922000Y-9194000D02*
X10972000Y-9144000D01*
X10922000Y-9094000D01*
X10872000Y-9144000D01*
X10922000Y-9194000D01*
X10872000Y-9348000D02*
X10972000Y-9448000D01*
X10972000Y-9348000D02*
X10872000Y-9448000D01*
X10922000Y-9448000D02*
X10972000Y-9398000D01*
X10922000Y-9348000D01*
X10872000Y-9398000D01*
X10922000Y-9448000D01*
X10872000Y-9602000D02*
X10972000Y-9702000D01*
X10972000Y-9602000D02*
X10872000Y-9702000D01*
X10922000Y-9702000D02*
X10972000Y-9652000D01*
X10922000Y-9602000D01*
X10872000Y-9652000D01*
X10922000Y-9702000D01*
X10872000Y-9856000D02*
X10972000Y-9956000D01*
X10972000Y-9856000D02*
X10872000Y-9956000D01*
X10922000Y-9956000D02*
X10972000Y-9906000D01*
X10922000Y-9856000D01*
X10872000Y-9906000D01*
X10922000Y-9956000D01*
X10872000Y-10110000D02*
X10972000Y-10210000D01*
X10972000Y-10110000D02*
X10872000Y-10210000D01*
X10922000Y-10210000D02*
X10972000Y-10160000D01*
X10922000Y-10110000D01*
X10872000Y-10160000D01*
X10922000Y-10210000D01*
X10872000Y-10364000D02*
X10972000Y-10464000D01*
X10972000Y-10364000D02*
X10872000Y-10464000D01*
X10922000Y-10464000D02*
X10972000Y-10414000D01*
X10922000Y-10364000D01*
X10872000Y-10414000D01*
X10922000Y-10464000D01*
X10872000Y-10618000D02*
X10972000Y-10718000D01*
X10972000Y-10618000D02*
X10872000Y-10718000D01*
X10922000Y-10718000D02*
X10972000Y-10668000D01*
X10922000Y-10618000D01*
X10872000Y-10668000D01*
X10922000Y-10718000D01*
X10872000Y-10872000D02*
X10972000Y-10972000D01*
X10972000Y-10872000D02*
X10872000Y-10972000D01*
X10922000Y-10972000D02*
X10972000Y-10922000D01*
X10922000Y-10872000D01*
X10872000Y-10922000D01*
X10922000Y-10972000D01*
X10872000Y-11126000D02*
X10972000Y-11226000D01*
X10972000Y-11126000D02*
X10872000Y-11226000D01*
X10922000Y-11226000D02*
X10972000Y-11176000D01*
X10922000Y-11126000D01*
X10872000Y-11176000D01*
X10922000Y-11226000D01*
X10872000Y-11634000D02*
X10972000Y-11734000D01*
X10972000Y-11634000D02*
X10872000Y-11734000D01*
X10922000Y-11734000D02*
X10972000Y-11684000D01*
X10922000Y-11634000D01*
X10872000Y-11684000D01*
X10922000Y-11734000D01*
X10872000Y-11888000D02*
X10972000Y-11988000D01*
X10972000Y-11888000D02*
X10872000Y-11988000D01*
X10922000Y-11988000D02*
X10972000Y-11938000D01*
X10922000Y-11888000D01*
X10872000Y-11938000D01*
X10922000Y-11988000D01*
X10872000Y-12142000D02*
X10972000Y-12242000D01*
X10972000Y-12142000D02*
X10872000Y-12242000D01*
X10922000Y-12242000D02*
X10972000Y-12192000D01*
X10922000Y-12142000D01*
X10872000Y-12192000D01*
X10922000Y-12242000D01*
X11568460Y-4369600D02*
X11668460Y-4469600D01*
X11668460Y-4369600D02*
X11568460Y-4469600D01*
X11618460Y-4469600D02*
X11668460Y-4419600D01*
X11618460Y-4369600D01*
X11568460Y-4419600D01*
X11618460Y-4469600D01*
X11822460Y-4369600D02*
X11922460Y-4469600D01*
X11922460Y-4369600D02*
X11822460Y-4469600D01*
X11872460Y-4469600D02*
X11922460Y-4419600D01*
X11872460Y-4369600D01*
X11822460Y-4419600D01*
X11872460Y-4469600D01*
D20*
X12422000Y-4481500D02*
X12422000Y-4611500D01*
X12357000Y-4546500D02*
X12487000Y-4546500D01*
X12487000Y-4546500D02*
G75*
G03*
X12487000Y-4546500I-65000J0D01*
G01*
X12422000Y-5182500D02*
X12422000Y-5312500D01*
X12357000Y-5247500D02*
X12487000Y-5247500D01*
X12487000Y-5247500D02*
G75*
G03*
X12487000Y-5247500I-65000J0D01*
G01*
D21*
X7646298Y-5083418D02*
X7646298Y-4920782D01*
X7483662Y-4920782D01*
X7483662Y-5083418D01*
X7646298Y-5083418D01*
X7679980Y-5002100D02*
G75*
G03*
X7679980Y-5002100I-115000J0D01*
G01*
X8960298Y-5083418D02*
X8960298Y-4920782D01*
X8797662Y-4920782D01*
X8797662Y-5083418D01*
X8960298Y-5083418D01*
X8993980Y-5002100D02*
G75*
G03*
X8993980Y-5002100I-115000J0D01*
G01*
D11*
X2456919Y-12763852D02*
X2456919Y-12563852D01*
X2456919Y-12563852D02*
X2504538Y-12563852D01*
X2504538Y-12563852D02*
X2533110Y-12573376D01*
X2533110Y-12573376D02*
X2552157Y-12592423D01*
X2552157Y-12592423D02*
X2561681Y-12611471D01*
X2561681Y-12611471D02*
X2571205Y-12649566D01*
X2571205Y-12649566D02*
X2571205Y-12678137D01*
X2571205Y-12678137D02*
X2561681Y-12716233D01*
X2561681Y-12716233D02*
X2552157Y-12735280D01*
X2552157Y-12735280D02*
X2533110Y-12754328D01*
X2533110Y-12754328D02*
X2504538Y-12763852D01*
X2504538Y-12763852D02*
X2456919Y-12763852D01*
X2656919Y-12763852D02*
X2656919Y-12630518D01*
X2656919Y-12668614D02*
X2666443Y-12649566D01*
X2666443Y-12649566D02*
X2675967Y-12640042D01*
X2675967Y-12640042D02*
X2695014Y-12630518D01*
X2695014Y-12630518D02*
X2714062Y-12630518D01*
X2780729Y-12763852D02*
X2780729Y-12630518D01*
X2780729Y-12563852D02*
X2771205Y-12573376D01*
X2771205Y-12573376D02*
X2780729Y-12582899D01*
X2780729Y-12582899D02*
X2790252Y-12573376D01*
X2790252Y-12573376D02*
X2780729Y-12563852D01*
X2780729Y-12563852D02*
X2780729Y-12582899D01*
X2904538Y-12763852D02*
X2885490Y-12754328D01*
X2885490Y-12754328D02*
X2875967Y-12735280D01*
X2875967Y-12735280D02*
X2875967Y-12563852D01*
X3009300Y-12763852D02*
X2990252Y-12754328D01*
X2990252Y-12754328D02*
X2980728Y-12735280D01*
X2980728Y-12735280D02*
X2980728Y-12563852D01*
X3237871Y-12763852D02*
X3237871Y-12563852D01*
X3237871Y-12563852D02*
X3304538Y-12706709D01*
X3304538Y-12706709D02*
X3371205Y-12563852D01*
X3371205Y-12563852D02*
X3371205Y-12763852D01*
X3552157Y-12763852D02*
X3552157Y-12659090D01*
X3552157Y-12659090D02*
X3542633Y-12640042D01*
X3542633Y-12640042D02*
X3523586Y-12630518D01*
X3523586Y-12630518D02*
X3485490Y-12630518D01*
X3485490Y-12630518D02*
X3466443Y-12640042D01*
X3552157Y-12754328D02*
X3533109Y-12763852D01*
X3533109Y-12763852D02*
X3485490Y-12763852D01*
X3485490Y-12763852D02*
X3466443Y-12754328D01*
X3466443Y-12754328D02*
X3456919Y-12735280D01*
X3456919Y-12735280D02*
X3456919Y-12716233D01*
X3456919Y-12716233D02*
X3466443Y-12697185D01*
X3466443Y-12697185D02*
X3485490Y-12687661D01*
X3485490Y-12687661D02*
X3533109Y-12687661D01*
X3533109Y-12687661D02*
X3552157Y-12678137D01*
X3647395Y-12630518D02*
X3647395Y-12830518D01*
X3647395Y-12640042D02*
X3666443Y-12630518D01*
X3666443Y-12630518D02*
X3704538Y-12630518D01*
X3704538Y-12630518D02*
X3723586Y-12640042D01*
X3723586Y-12640042D02*
X3733109Y-12649566D01*
X3733109Y-12649566D02*
X3742633Y-12668614D01*
X3742633Y-12668614D02*
X3742633Y-12725756D01*
X3742633Y-12725756D02*
X3733109Y-12744804D01*
X3733109Y-12744804D02*
X3723586Y-12754328D01*
X3723586Y-12754328D02*
X3704538Y-12763852D01*
X3704538Y-12763852D02*
X3666443Y-12763852D01*
X3666443Y-12763852D02*
X3647395Y-12754328D01*
X3828348Y-12744804D02*
X3837871Y-12754328D01*
X3837871Y-12754328D02*
X3828348Y-12763852D01*
X3828348Y-12763852D02*
X3818824Y-12754328D01*
X3818824Y-12754328D02*
X3828348Y-12744804D01*
X3828348Y-12744804D02*
X3828348Y-12763852D01*
X3828348Y-12640042D02*
X3837871Y-12649566D01*
X3837871Y-12649566D02*
X3828348Y-12659090D01*
X3828348Y-12659090D02*
X3818824Y-12649566D01*
X3818824Y-12649566D02*
X3828348Y-12640042D01*
X3828348Y-12640042D02*
X3828348Y-12659090D01*
D12*
X2169300Y-13071328D02*
X2209300Y-13111328D01*
X2209300Y-13071328D02*
X2169300Y-13111328D01*
D11*
X2495014Y-12983852D02*
X2514062Y-12983852D01*
X2514062Y-12983852D02*
X2533110Y-12993376D01*
X2533110Y-12993376D02*
X2542633Y-13002899D01*
X2542633Y-13002899D02*
X2552157Y-13021947D01*
X2552157Y-13021947D02*
X2561681Y-13060042D01*
X2561681Y-13060042D02*
X2561681Y-13107661D01*
X2561681Y-13107661D02*
X2552157Y-13145756D01*
X2552157Y-13145756D02*
X2542633Y-13164804D01*
X2542633Y-13164804D02*
X2533110Y-13174328D01*
X2533110Y-13174328D02*
X2514062Y-13183852D01*
X2514062Y-13183852D02*
X2495014Y-13183852D01*
X2495014Y-13183852D02*
X2475967Y-13174328D01*
X2475967Y-13174328D02*
X2466443Y-13164804D01*
X2466443Y-13164804D02*
X2456919Y-13145756D01*
X2456919Y-13145756D02*
X2447395Y-13107661D01*
X2447395Y-13107661D02*
X2447395Y-13060042D01*
X2447395Y-13060042D02*
X2456919Y-13021947D01*
X2456919Y-13021947D02*
X2466443Y-13002899D01*
X2466443Y-13002899D02*
X2475967Y-12993376D01*
X2475967Y-12993376D02*
X2495014Y-12983852D01*
X2647395Y-13164804D02*
X2656919Y-13174328D01*
X2656919Y-13174328D02*
X2647395Y-13183852D01*
X2647395Y-13183852D02*
X2637871Y-13174328D01*
X2637871Y-13174328D02*
X2647395Y-13164804D01*
X2647395Y-13164804D02*
X2647395Y-13183852D01*
X2828348Y-13050518D02*
X2828348Y-13183852D01*
X2780729Y-12974328D02*
X2733110Y-13117185D01*
X2733110Y-13117185D02*
X2856919Y-13117185D01*
X2971205Y-12983852D02*
X2990252Y-12983852D01*
X2990252Y-12983852D02*
X3009300Y-12993376D01*
X3009300Y-12993376D02*
X3018824Y-13002899D01*
X3018824Y-13002899D02*
X3028348Y-13021947D01*
X3028348Y-13021947D02*
X3037871Y-13060042D01*
X3037871Y-13060042D02*
X3037871Y-13107661D01*
X3037871Y-13107661D02*
X3028348Y-13145756D01*
X3028348Y-13145756D02*
X3018824Y-13164804D01*
X3018824Y-13164804D02*
X3009300Y-13174328D01*
X3009300Y-13174328D02*
X2990252Y-13183852D01*
X2990252Y-13183852D02*
X2971205Y-13183852D01*
X2971205Y-13183852D02*
X2952157Y-13174328D01*
X2952157Y-13174328D02*
X2942633Y-13164804D01*
X2942633Y-13164804D02*
X2933109Y-13145756D01*
X2933109Y-13145756D02*
X2923586Y-13107661D01*
X2923586Y-13107661D02*
X2923586Y-13060042D01*
X2923586Y-13060042D02*
X2933109Y-13021947D01*
X2933109Y-13021947D02*
X2942633Y-13002899D01*
X2942633Y-13002899D02*
X2952157Y-12993376D01*
X2952157Y-12993376D02*
X2971205Y-12983852D01*
X3161681Y-12983852D02*
X3180729Y-12983852D01*
X3180729Y-12983852D02*
X3199776Y-12993376D01*
X3199776Y-12993376D02*
X3209300Y-13002899D01*
X3209300Y-13002899D02*
X3218824Y-13021947D01*
X3218824Y-13021947D02*
X3228348Y-13060042D01*
X3228348Y-13060042D02*
X3228348Y-13107661D01*
X3228348Y-13107661D02*
X3218824Y-13145756D01*
X3218824Y-13145756D02*
X3209300Y-13164804D01*
X3209300Y-13164804D02*
X3199776Y-13174328D01*
X3199776Y-13174328D02*
X3180729Y-13183852D01*
X3180729Y-13183852D02*
X3161681Y-13183852D01*
X3161681Y-13183852D02*
X3142633Y-13174328D01*
X3142633Y-13174328D02*
X3133109Y-13164804D01*
X3133109Y-13164804D02*
X3123586Y-13145756D01*
X3123586Y-13145756D02*
X3114062Y-13107661D01*
X3114062Y-13107661D02*
X3114062Y-13060042D01*
X3114062Y-13060042D02*
X3123586Y-13021947D01*
X3123586Y-13021947D02*
X3133109Y-13002899D01*
X3133109Y-13002899D02*
X3142633Y-12993376D01*
X3142633Y-12993376D02*
X3161681Y-12983852D01*
X3314062Y-13183852D02*
X3314062Y-13050518D01*
X3314062Y-13069566D02*
X3323586Y-13060042D01*
X3323586Y-13060042D02*
X3342633Y-13050518D01*
X3342633Y-13050518D02*
X3371205Y-13050518D01*
X3371205Y-13050518D02*
X3390252Y-13060042D01*
X3390252Y-13060042D02*
X3399776Y-13079090D01*
X3399776Y-13079090D02*
X3399776Y-13183852D01*
X3399776Y-13079090D02*
X3409300Y-13060042D01*
X3409300Y-13060042D02*
X3428348Y-13050518D01*
X3428348Y-13050518D02*
X3456919Y-13050518D01*
X3456919Y-13050518D02*
X3475967Y-13060042D01*
X3475967Y-13060042D02*
X3485490Y-13079090D01*
X3485490Y-13079090D02*
X3485490Y-13183852D01*
X3580729Y-13183852D02*
X3580729Y-13050518D01*
X3580729Y-13069566D02*
X3590252Y-13060042D01*
X3590252Y-13060042D02*
X3609300Y-13050518D01*
X3609300Y-13050518D02*
X3637871Y-13050518D01*
X3637871Y-13050518D02*
X3656919Y-13060042D01*
X3656919Y-13060042D02*
X3666443Y-13079090D01*
X3666443Y-13079090D02*
X3666443Y-13183852D01*
X3666443Y-13079090D02*
X3675967Y-13060042D01*
X3675967Y-13060042D02*
X3695014Y-13050518D01*
X3695014Y-13050518D02*
X3723586Y-13050518D01*
X3723586Y-13050518D02*
X3742633Y-13060042D01*
X3742633Y-13060042D02*
X3752157Y-13079090D01*
X3752157Y-13079090D02*
X3752157Y-13183852D01*
X4142633Y-12974328D02*
X3971205Y-13231471D01*
X4399776Y-12983852D02*
X4418824Y-12983852D01*
X4418824Y-12983852D02*
X4437872Y-12993376D01*
X4437872Y-12993376D02*
X4447395Y-13002899D01*
X4447395Y-13002899D02*
X4456919Y-13021947D01*
X4456919Y-13021947D02*
X4466443Y-13060042D01*
X4466443Y-13060042D02*
X4466443Y-13107661D01*
X4466443Y-13107661D02*
X4456919Y-13145756D01*
X4456919Y-13145756D02*
X4447395Y-13164804D01*
X4447395Y-13164804D02*
X4437872Y-13174328D01*
X4437872Y-13174328D02*
X4418824Y-13183852D01*
X4418824Y-13183852D02*
X4399776Y-13183852D01*
X4399776Y-13183852D02*
X4380729Y-13174328D01*
X4380729Y-13174328D02*
X4371205Y-13164804D01*
X4371205Y-13164804D02*
X4361681Y-13145756D01*
X4361681Y-13145756D02*
X4352157Y-13107661D01*
X4352157Y-13107661D02*
X4352157Y-13060042D01*
X4352157Y-13060042D02*
X4361681Y-13021947D01*
X4361681Y-13021947D02*
X4371205Y-13002899D01*
X4371205Y-13002899D02*
X4380729Y-12993376D01*
X4380729Y-12993376D02*
X4399776Y-12983852D01*
X4552157Y-13164804D02*
X4561681Y-13174328D01*
X4561681Y-13174328D02*
X4552157Y-13183852D01*
X4552157Y-13183852D02*
X4542634Y-13174328D01*
X4542634Y-13174328D02*
X4552157Y-13164804D01*
X4552157Y-13164804D02*
X4552157Y-13183852D01*
X4685491Y-12983852D02*
X4704538Y-12983852D01*
X4704538Y-12983852D02*
X4723586Y-12993376D01*
X4723586Y-12993376D02*
X4733110Y-13002899D01*
X4733110Y-13002899D02*
X4742634Y-13021947D01*
X4742634Y-13021947D02*
X4752157Y-13060042D01*
X4752157Y-13060042D02*
X4752157Y-13107661D01*
X4752157Y-13107661D02*
X4742634Y-13145756D01*
X4742634Y-13145756D02*
X4733110Y-13164804D01*
X4733110Y-13164804D02*
X4723586Y-13174328D01*
X4723586Y-13174328D02*
X4704538Y-13183852D01*
X4704538Y-13183852D02*
X4685491Y-13183852D01*
X4685491Y-13183852D02*
X4666443Y-13174328D01*
X4666443Y-13174328D02*
X4656919Y-13164804D01*
X4656919Y-13164804D02*
X4647395Y-13145756D01*
X4647395Y-13145756D02*
X4637872Y-13107661D01*
X4637872Y-13107661D02*
X4637872Y-13060042D01*
X4637872Y-13060042D02*
X4647395Y-13021947D01*
X4647395Y-13021947D02*
X4656919Y-13002899D01*
X4656919Y-13002899D02*
X4666443Y-12993376D01*
X4666443Y-12993376D02*
X4685491Y-12983852D01*
X4942634Y-13183852D02*
X4828348Y-13183852D01*
X4885491Y-13183852D02*
X4885491Y-12983852D01*
X4885491Y-12983852D02*
X4866443Y-13012423D01*
X4866443Y-13012423D02*
X4847395Y-13031471D01*
X4847395Y-13031471D02*
X4828348Y-13040995D01*
X5123586Y-12983852D02*
X5028348Y-12983852D01*
X5028348Y-12983852D02*
X5018824Y-13079090D01*
X5018824Y-13079090D02*
X5028348Y-13069566D01*
X5028348Y-13069566D02*
X5047395Y-13060042D01*
X5047395Y-13060042D02*
X5095015Y-13060042D01*
X5095015Y-13060042D02*
X5114062Y-13069566D01*
X5114062Y-13069566D02*
X5123586Y-13079090D01*
X5123586Y-13079090D02*
X5133110Y-13098137D01*
X5133110Y-13098137D02*
X5133110Y-13145756D01*
X5133110Y-13145756D02*
X5123586Y-13164804D01*
X5123586Y-13164804D02*
X5114062Y-13174328D01*
X5114062Y-13174328D02*
X5095015Y-13183852D01*
X5095015Y-13183852D02*
X5047395Y-13183852D01*
X5047395Y-13183852D02*
X5028348Y-13174328D01*
X5028348Y-13174328D02*
X5018824Y-13164804D01*
X5199776Y-12983852D02*
X5333110Y-12983852D01*
X5333110Y-12983852D02*
X5247395Y-13183852D01*
X5399776Y-12983852D02*
X5399776Y-13021947D01*
X5475967Y-12983852D02*
X5475967Y-13021947D01*
X5771205Y-13260042D02*
X5761681Y-13250518D01*
X5761681Y-13250518D02*
X5742634Y-13221947D01*
X5742634Y-13221947D02*
X5733110Y-13202899D01*
X5733110Y-13202899D02*
X5723586Y-13174328D01*
X5723586Y-13174328D02*
X5714062Y-13126709D01*
X5714062Y-13126709D02*
X5714062Y-13088614D01*
X5714062Y-13088614D02*
X5723586Y-13040995D01*
X5723586Y-13040995D02*
X5733110Y-13012423D01*
X5733110Y-13012423D02*
X5742634Y-12993376D01*
X5742634Y-12993376D02*
X5761681Y-12964804D01*
X5761681Y-12964804D02*
X5771205Y-12955280D01*
X5942634Y-12983852D02*
X5847395Y-12983852D01*
X5847395Y-12983852D02*
X5837872Y-13079090D01*
X5837872Y-13079090D02*
X5847395Y-13069566D01*
X5847395Y-13069566D02*
X5866443Y-13060042D01*
X5866443Y-13060042D02*
X5914062Y-13060042D01*
X5914062Y-13060042D02*
X5933110Y-13069566D01*
X5933110Y-13069566D02*
X5942634Y-13079090D01*
X5942634Y-13079090D02*
X5952157Y-13098137D01*
X5952157Y-13098137D02*
X5952157Y-13145756D01*
X5952157Y-13145756D02*
X5942634Y-13164804D01*
X5942634Y-13164804D02*
X5933110Y-13174328D01*
X5933110Y-13174328D02*
X5914062Y-13183852D01*
X5914062Y-13183852D02*
X5866443Y-13183852D01*
X5866443Y-13183852D02*
X5847395Y-13174328D01*
X5847395Y-13174328D02*
X5837872Y-13164804D01*
X6018824Y-12983852D02*
X6152157Y-12983852D01*
X6152157Y-12983852D02*
X6066443Y-13183852D01*
X6380729Y-13183852D02*
X6380729Y-12983852D01*
X6466443Y-13183852D02*
X6466443Y-13079090D01*
X6466443Y-13079090D02*
X6456919Y-13060042D01*
X6456919Y-13060042D02*
X6437872Y-13050518D01*
X6437872Y-13050518D02*
X6409300Y-13050518D01*
X6409300Y-13050518D02*
X6390253Y-13060042D01*
X6390253Y-13060042D02*
X6380729Y-13069566D01*
X6590253Y-13183852D02*
X6571205Y-13174328D01*
X6571205Y-13174328D02*
X6561681Y-13164804D01*
X6561681Y-13164804D02*
X6552157Y-13145756D01*
X6552157Y-13145756D02*
X6552157Y-13088614D01*
X6552157Y-13088614D02*
X6561681Y-13069566D01*
X6561681Y-13069566D02*
X6571205Y-13060042D01*
X6571205Y-13060042D02*
X6590253Y-13050518D01*
X6590253Y-13050518D02*
X6618824Y-13050518D01*
X6618824Y-13050518D02*
X6637872Y-13060042D01*
X6637872Y-13060042D02*
X6647396Y-13069566D01*
X6647396Y-13069566D02*
X6656919Y-13088614D01*
X6656919Y-13088614D02*
X6656919Y-13145756D01*
X6656919Y-13145756D02*
X6647396Y-13164804D01*
X6647396Y-13164804D02*
X6637872Y-13174328D01*
X6637872Y-13174328D02*
X6618824Y-13183852D01*
X6618824Y-13183852D02*
X6590253Y-13183852D01*
X6771205Y-13183852D02*
X6752157Y-13174328D01*
X6752157Y-13174328D02*
X6742634Y-13155280D01*
X6742634Y-13155280D02*
X6742634Y-12983852D01*
X6923586Y-13174328D02*
X6904538Y-13183852D01*
X6904538Y-13183852D02*
X6866443Y-13183852D01*
X6866443Y-13183852D02*
X6847396Y-13174328D01*
X6847396Y-13174328D02*
X6837872Y-13155280D01*
X6837872Y-13155280D02*
X6837872Y-13079090D01*
X6837872Y-13079090D02*
X6847396Y-13060042D01*
X6847396Y-13060042D02*
X6866443Y-13050518D01*
X6866443Y-13050518D02*
X6904538Y-13050518D01*
X6904538Y-13050518D02*
X6923586Y-13060042D01*
X6923586Y-13060042D02*
X6933110Y-13079090D01*
X6933110Y-13079090D02*
X6933110Y-13098137D01*
X6933110Y-13098137D02*
X6837872Y-13117185D01*
X7009300Y-13174328D02*
X7028348Y-13183852D01*
X7028348Y-13183852D02*
X7066443Y-13183852D01*
X7066443Y-13183852D02*
X7085491Y-13174328D01*
X7085491Y-13174328D02*
X7095015Y-13155280D01*
X7095015Y-13155280D02*
X7095015Y-13145756D01*
X7095015Y-13145756D02*
X7085491Y-13126709D01*
X7085491Y-13126709D02*
X7066443Y-13117185D01*
X7066443Y-13117185D02*
X7037872Y-13117185D01*
X7037872Y-13117185D02*
X7018824Y-13107661D01*
X7018824Y-13107661D02*
X7009300Y-13088614D01*
X7009300Y-13088614D02*
X7009300Y-13079090D01*
X7009300Y-13079090D02*
X7018824Y-13060042D01*
X7018824Y-13060042D02*
X7037872Y-13050518D01*
X7037872Y-13050518D02*
X7066443Y-13050518D01*
X7066443Y-13050518D02*
X7085491Y-13060042D01*
X7161681Y-13260042D02*
X7171205Y-13250518D01*
X7171205Y-13250518D02*
X7190253Y-13221947D01*
X7190253Y-13221947D02*
X7199777Y-13202899D01*
X7199777Y-13202899D02*
X7209300Y-13174328D01*
X7209300Y-13174328D02*
X7218824Y-13126709D01*
X7218824Y-13126709D02*
X7218824Y-13088614D01*
X7218824Y-13088614D02*
X7209300Y-13040995D01*
X7209300Y-13040995D02*
X7199777Y-13012423D01*
X7199777Y-13012423D02*
X7190253Y-12993376D01*
X7190253Y-12993376D02*
X7171205Y-12964804D01*
X7171205Y-12964804D02*
X7161681Y-12955280D01*
D12*
X2209300Y-13355328D02*
G75*
G03*
X2209300Y-13355328I-20000J0D01*
G01*
D11*
X2495014Y-13247852D02*
X2514062Y-13247852D01*
X2514062Y-13247852D02*
X2533110Y-13257376D01*
X2533110Y-13257376D02*
X2542633Y-13266899D01*
X2542633Y-13266899D02*
X2552157Y-13285947D01*
X2552157Y-13285947D02*
X2561681Y-13324042D01*
X2561681Y-13324042D02*
X2561681Y-13371661D01*
X2561681Y-13371661D02*
X2552157Y-13409756D01*
X2552157Y-13409756D02*
X2542633Y-13428804D01*
X2542633Y-13428804D02*
X2533110Y-13438328D01*
X2533110Y-13438328D02*
X2514062Y-13447852D01*
X2514062Y-13447852D02*
X2495014Y-13447852D01*
X2495014Y-13447852D02*
X2475967Y-13438328D01*
X2475967Y-13438328D02*
X2466443Y-13428804D01*
X2466443Y-13428804D02*
X2456919Y-13409756D01*
X2456919Y-13409756D02*
X2447395Y-13371661D01*
X2447395Y-13371661D02*
X2447395Y-13324042D01*
X2447395Y-13324042D02*
X2456919Y-13285947D01*
X2456919Y-13285947D02*
X2466443Y-13266899D01*
X2466443Y-13266899D02*
X2475967Y-13257376D01*
X2475967Y-13257376D02*
X2495014Y-13247852D01*
X2647395Y-13428804D02*
X2656919Y-13438328D01*
X2656919Y-13438328D02*
X2647395Y-13447852D01*
X2647395Y-13447852D02*
X2637871Y-13438328D01*
X2637871Y-13438328D02*
X2647395Y-13428804D01*
X2647395Y-13428804D02*
X2647395Y-13447852D01*
X2828348Y-13314518D02*
X2828348Y-13447852D01*
X2780729Y-13238328D02*
X2733110Y-13381185D01*
X2733110Y-13381185D02*
X2856919Y-13381185D01*
X2971205Y-13247852D02*
X2990252Y-13247852D01*
X2990252Y-13247852D02*
X3009300Y-13257376D01*
X3009300Y-13257376D02*
X3018824Y-13266899D01*
X3018824Y-13266899D02*
X3028348Y-13285947D01*
X3028348Y-13285947D02*
X3037871Y-13324042D01*
X3037871Y-13324042D02*
X3037871Y-13371661D01*
X3037871Y-13371661D02*
X3028348Y-13409756D01*
X3028348Y-13409756D02*
X3018824Y-13428804D01*
X3018824Y-13428804D02*
X3009300Y-13438328D01*
X3009300Y-13438328D02*
X2990252Y-13447852D01*
X2990252Y-13447852D02*
X2971205Y-13447852D01*
X2971205Y-13447852D02*
X2952157Y-13438328D01*
X2952157Y-13438328D02*
X2942633Y-13428804D01*
X2942633Y-13428804D02*
X2933109Y-13409756D01*
X2933109Y-13409756D02*
X2923586Y-13371661D01*
X2923586Y-13371661D02*
X2923586Y-13324042D01*
X2923586Y-13324042D02*
X2933109Y-13285947D01*
X2933109Y-13285947D02*
X2942633Y-13266899D01*
X2942633Y-13266899D02*
X2952157Y-13257376D01*
X2952157Y-13257376D02*
X2971205Y-13247852D01*
X3161681Y-13247852D02*
X3180729Y-13247852D01*
X3180729Y-13247852D02*
X3199776Y-13257376D01*
X3199776Y-13257376D02*
X3209300Y-13266899D01*
X3209300Y-13266899D02*
X3218824Y-13285947D01*
X3218824Y-13285947D02*
X3228348Y-13324042D01*
X3228348Y-13324042D02*
X3228348Y-13371661D01*
X3228348Y-13371661D02*
X3218824Y-13409756D01*
X3218824Y-13409756D02*
X3209300Y-13428804D01*
X3209300Y-13428804D02*
X3199776Y-13438328D01*
X3199776Y-13438328D02*
X3180729Y-13447852D01*
X3180729Y-13447852D02*
X3161681Y-13447852D01*
X3161681Y-13447852D02*
X3142633Y-13438328D01*
X3142633Y-13438328D02*
X3133109Y-13428804D01*
X3133109Y-13428804D02*
X3123586Y-13409756D01*
X3123586Y-13409756D02*
X3114062Y-13371661D01*
X3114062Y-13371661D02*
X3114062Y-13324042D01*
X3114062Y-13324042D02*
X3123586Y-13285947D01*
X3123586Y-13285947D02*
X3133109Y-13266899D01*
X3133109Y-13266899D02*
X3142633Y-13257376D01*
X3142633Y-13257376D02*
X3161681Y-13247852D01*
X3314062Y-13447852D02*
X3314062Y-13314518D01*
X3314062Y-13333566D02*
X3323586Y-13324042D01*
X3323586Y-13324042D02*
X3342633Y-13314518D01*
X3342633Y-13314518D02*
X3371205Y-13314518D01*
X3371205Y-13314518D02*
X3390252Y-13324042D01*
X3390252Y-13324042D02*
X3399776Y-13343090D01*
X3399776Y-13343090D02*
X3399776Y-13447852D01*
X3399776Y-13343090D02*
X3409300Y-13324042D01*
X3409300Y-13324042D02*
X3428348Y-13314518D01*
X3428348Y-13314518D02*
X3456919Y-13314518D01*
X3456919Y-13314518D02*
X3475967Y-13324042D01*
X3475967Y-13324042D02*
X3485490Y-13343090D01*
X3485490Y-13343090D02*
X3485490Y-13447852D01*
X3580729Y-13447852D02*
X3580729Y-13314518D01*
X3580729Y-13333566D02*
X3590252Y-13324042D01*
X3590252Y-13324042D02*
X3609300Y-13314518D01*
X3609300Y-13314518D02*
X3637871Y-13314518D01*
X3637871Y-13314518D02*
X3656919Y-13324042D01*
X3656919Y-13324042D02*
X3666443Y-13343090D01*
X3666443Y-13343090D02*
X3666443Y-13447852D01*
X3666443Y-13343090D02*
X3675967Y-13324042D01*
X3675967Y-13324042D02*
X3695014Y-13314518D01*
X3695014Y-13314518D02*
X3723586Y-13314518D01*
X3723586Y-13314518D02*
X3742633Y-13324042D01*
X3742633Y-13324042D02*
X3752157Y-13343090D01*
X3752157Y-13343090D02*
X3752157Y-13447852D01*
X4142633Y-13238328D02*
X3971205Y-13495471D01*
X4399776Y-13247852D02*
X4418824Y-13247852D01*
X4418824Y-13247852D02*
X4437872Y-13257376D01*
X4437872Y-13257376D02*
X4447395Y-13266899D01*
X4447395Y-13266899D02*
X4456919Y-13285947D01*
X4456919Y-13285947D02*
X4466443Y-13324042D01*
X4466443Y-13324042D02*
X4466443Y-13371661D01*
X4466443Y-13371661D02*
X4456919Y-13409756D01*
X4456919Y-13409756D02*
X4447395Y-13428804D01*
X4447395Y-13428804D02*
X4437872Y-13438328D01*
X4437872Y-13438328D02*
X4418824Y-13447852D01*
X4418824Y-13447852D02*
X4399776Y-13447852D01*
X4399776Y-13447852D02*
X4380729Y-13438328D01*
X4380729Y-13438328D02*
X4371205Y-13428804D01*
X4371205Y-13428804D02*
X4361681Y-13409756D01*
X4361681Y-13409756D02*
X4352157Y-13371661D01*
X4352157Y-13371661D02*
X4352157Y-13324042D01*
X4352157Y-13324042D02*
X4361681Y-13285947D01*
X4361681Y-13285947D02*
X4371205Y-13266899D01*
X4371205Y-13266899D02*
X4380729Y-13257376D01*
X4380729Y-13257376D02*
X4399776Y-13247852D01*
X4552157Y-13428804D02*
X4561681Y-13438328D01*
X4561681Y-13438328D02*
X4552157Y-13447852D01*
X4552157Y-13447852D02*
X4542634Y-13438328D01*
X4542634Y-13438328D02*
X4552157Y-13428804D01*
X4552157Y-13428804D02*
X4552157Y-13447852D01*
X4685491Y-13247852D02*
X4704538Y-13247852D01*
X4704538Y-13247852D02*
X4723586Y-13257376D01*
X4723586Y-13257376D02*
X4733110Y-13266899D01*
X4733110Y-13266899D02*
X4742634Y-13285947D01*
X4742634Y-13285947D02*
X4752157Y-13324042D01*
X4752157Y-13324042D02*
X4752157Y-13371661D01*
X4752157Y-13371661D02*
X4742634Y-13409756D01*
X4742634Y-13409756D02*
X4733110Y-13428804D01*
X4733110Y-13428804D02*
X4723586Y-13438328D01*
X4723586Y-13438328D02*
X4704538Y-13447852D01*
X4704538Y-13447852D02*
X4685491Y-13447852D01*
X4685491Y-13447852D02*
X4666443Y-13438328D01*
X4666443Y-13438328D02*
X4656919Y-13428804D01*
X4656919Y-13428804D02*
X4647395Y-13409756D01*
X4647395Y-13409756D02*
X4637872Y-13371661D01*
X4637872Y-13371661D02*
X4637872Y-13324042D01*
X4637872Y-13324042D02*
X4647395Y-13285947D01*
X4647395Y-13285947D02*
X4656919Y-13266899D01*
X4656919Y-13266899D02*
X4666443Y-13257376D01*
X4666443Y-13257376D02*
X4685491Y-13247852D01*
X4942634Y-13447852D02*
X4828348Y-13447852D01*
X4885491Y-13447852D02*
X4885491Y-13247852D01*
X4885491Y-13247852D02*
X4866443Y-13276423D01*
X4866443Y-13276423D02*
X4847395Y-13295471D01*
X4847395Y-13295471D02*
X4828348Y-13304995D01*
X5123586Y-13247852D02*
X5028348Y-13247852D01*
X5028348Y-13247852D02*
X5018824Y-13343090D01*
X5018824Y-13343090D02*
X5028348Y-13333566D01*
X5028348Y-13333566D02*
X5047395Y-13324042D01*
X5047395Y-13324042D02*
X5095015Y-13324042D01*
X5095015Y-13324042D02*
X5114062Y-13333566D01*
X5114062Y-13333566D02*
X5123586Y-13343090D01*
X5123586Y-13343090D02*
X5133110Y-13362137D01*
X5133110Y-13362137D02*
X5133110Y-13409756D01*
X5133110Y-13409756D02*
X5123586Y-13428804D01*
X5123586Y-13428804D02*
X5114062Y-13438328D01*
X5114062Y-13438328D02*
X5095015Y-13447852D01*
X5095015Y-13447852D02*
X5047395Y-13447852D01*
X5047395Y-13447852D02*
X5028348Y-13438328D01*
X5028348Y-13438328D02*
X5018824Y-13428804D01*
X5199776Y-13247852D02*
X5333110Y-13247852D01*
X5333110Y-13247852D02*
X5247395Y-13447852D01*
X5399776Y-13247852D02*
X5399776Y-13285947D01*
X5475967Y-13247852D02*
X5475967Y-13285947D01*
X5771205Y-13524042D02*
X5761681Y-13514518D01*
X5761681Y-13514518D02*
X5742634Y-13485947D01*
X5742634Y-13485947D02*
X5733110Y-13466899D01*
X5733110Y-13466899D02*
X5723586Y-13438328D01*
X5723586Y-13438328D02*
X5714062Y-13390709D01*
X5714062Y-13390709D02*
X5714062Y-13352614D01*
X5714062Y-13352614D02*
X5723586Y-13304995D01*
X5723586Y-13304995D02*
X5733110Y-13276423D01*
X5733110Y-13276423D02*
X5742634Y-13257376D01*
X5742634Y-13257376D02*
X5761681Y-13228804D01*
X5761681Y-13228804D02*
X5771205Y-13219280D01*
X5952157Y-13447852D02*
X5837872Y-13447852D01*
X5895014Y-13447852D02*
X5895014Y-13247852D01*
X5895014Y-13247852D02*
X5875967Y-13276423D01*
X5875967Y-13276423D02*
X5856919Y-13295471D01*
X5856919Y-13295471D02*
X5837872Y-13304995D01*
X6123586Y-13247852D02*
X6085491Y-13247852D01*
X6085491Y-13247852D02*
X6066443Y-13257376D01*
X6066443Y-13257376D02*
X6056919Y-13266899D01*
X6056919Y-13266899D02*
X6037872Y-13295471D01*
X6037872Y-13295471D02*
X6028348Y-13333566D01*
X6028348Y-13333566D02*
X6028348Y-13409756D01*
X6028348Y-13409756D02*
X6037872Y-13428804D01*
X6037872Y-13428804D02*
X6047395Y-13438328D01*
X6047395Y-13438328D02*
X6066443Y-13447852D01*
X6066443Y-13447852D02*
X6104538Y-13447852D01*
X6104538Y-13447852D02*
X6123586Y-13438328D01*
X6123586Y-13438328D02*
X6133110Y-13428804D01*
X6133110Y-13428804D02*
X6142634Y-13409756D01*
X6142634Y-13409756D02*
X6142634Y-13362137D01*
X6142634Y-13362137D02*
X6133110Y-13343090D01*
X6133110Y-13343090D02*
X6123586Y-13333566D01*
X6123586Y-13333566D02*
X6104538Y-13324042D01*
X6104538Y-13324042D02*
X6066443Y-13324042D01*
X6066443Y-13324042D02*
X6047395Y-13333566D01*
X6047395Y-13333566D02*
X6037872Y-13343090D01*
X6037872Y-13343090D02*
X6028348Y-13362137D01*
X6380729Y-13447852D02*
X6380729Y-13247852D01*
X6466443Y-13447852D02*
X6466443Y-13343090D01*
X6466443Y-13343090D02*
X6456919Y-13324042D01*
X6456919Y-13324042D02*
X6437872Y-13314518D01*
X6437872Y-13314518D02*
X6409300Y-13314518D01*
X6409300Y-13314518D02*
X6390253Y-13324042D01*
X6390253Y-13324042D02*
X6380729Y-13333566D01*
X6590253Y-13447852D02*
X6571205Y-13438328D01*
X6571205Y-13438328D02*
X6561681Y-13428804D01*
X6561681Y-13428804D02*
X6552157Y-13409756D01*
X6552157Y-13409756D02*
X6552157Y-13352614D01*
X6552157Y-13352614D02*
X6561681Y-13333566D01*
X6561681Y-13333566D02*
X6571205Y-13324042D01*
X6571205Y-13324042D02*
X6590253Y-13314518D01*
X6590253Y-13314518D02*
X6618824Y-13314518D01*
X6618824Y-13314518D02*
X6637872Y-13324042D01*
X6637872Y-13324042D02*
X6647396Y-13333566D01*
X6647396Y-13333566D02*
X6656919Y-13352614D01*
X6656919Y-13352614D02*
X6656919Y-13409756D01*
X6656919Y-13409756D02*
X6647396Y-13428804D01*
X6647396Y-13428804D02*
X6637872Y-13438328D01*
X6637872Y-13438328D02*
X6618824Y-13447852D01*
X6618824Y-13447852D02*
X6590253Y-13447852D01*
X6771205Y-13447852D02*
X6752157Y-13438328D01*
X6752157Y-13438328D02*
X6742634Y-13419280D01*
X6742634Y-13419280D02*
X6742634Y-13247852D01*
X6923586Y-13438328D02*
X6904538Y-13447852D01*
X6904538Y-13447852D02*
X6866443Y-13447852D01*
X6866443Y-13447852D02*
X6847396Y-13438328D01*
X6847396Y-13438328D02*
X6837872Y-13419280D01*
X6837872Y-13419280D02*
X6837872Y-13343090D01*
X6837872Y-13343090D02*
X6847396Y-13324042D01*
X6847396Y-13324042D02*
X6866443Y-13314518D01*
X6866443Y-13314518D02*
X6904538Y-13314518D01*
X6904538Y-13314518D02*
X6923586Y-13324042D01*
X6923586Y-13324042D02*
X6933110Y-13343090D01*
X6933110Y-13343090D02*
X6933110Y-13362137D01*
X6933110Y-13362137D02*
X6837872Y-13381185D01*
X7009300Y-13438328D02*
X7028348Y-13447852D01*
X7028348Y-13447852D02*
X7066443Y-13447852D01*
X7066443Y-13447852D02*
X7085491Y-13438328D01*
X7085491Y-13438328D02*
X7095015Y-13419280D01*
X7095015Y-13419280D02*
X7095015Y-13409756D01*
X7095015Y-13409756D02*
X7085491Y-13390709D01*
X7085491Y-13390709D02*
X7066443Y-13381185D01*
X7066443Y-13381185D02*
X7037872Y-13381185D01*
X7037872Y-13381185D02*
X7018824Y-13371661D01*
X7018824Y-13371661D02*
X7009300Y-13352614D01*
X7009300Y-13352614D02*
X7009300Y-13343090D01*
X7009300Y-13343090D02*
X7018824Y-13324042D01*
X7018824Y-13324042D02*
X7037872Y-13314518D01*
X7037872Y-13314518D02*
X7066443Y-13314518D01*
X7066443Y-13314518D02*
X7085491Y-13324042D01*
X7161681Y-13524042D02*
X7171205Y-13514518D01*
X7171205Y-13514518D02*
X7190253Y-13485947D01*
X7190253Y-13485947D02*
X7199777Y-13466899D01*
X7199777Y-13466899D02*
X7209300Y-13438328D01*
X7209300Y-13438328D02*
X7218824Y-13390709D01*
X7218824Y-13390709D02*
X7218824Y-13352614D01*
X7218824Y-13352614D02*
X7209300Y-13304995D01*
X7209300Y-13304995D02*
X7199777Y-13276423D01*
X7199777Y-13276423D02*
X7190253Y-13257376D01*
X7190253Y-13257376D02*
X7171205Y-13228804D01*
X7171205Y-13228804D02*
X7161681Y-13219280D01*
D13*
X2184300Y-13594328D02*
X2184300Y-13644328D01*
X2159300Y-13619328D02*
X2209300Y-13619328D01*
D11*
X2495014Y-13511852D02*
X2514062Y-13511852D01*
X2514062Y-13511852D02*
X2533110Y-13521376D01*
X2533110Y-13521376D02*
X2542633Y-13530899D01*
X2542633Y-13530899D02*
X2552157Y-13549947D01*
X2552157Y-13549947D02*
X2561681Y-13588042D01*
X2561681Y-13588042D02*
X2561681Y-13635661D01*
X2561681Y-13635661D02*
X2552157Y-13673756D01*
X2552157Y-13673756D02*
X2542633Y-13692804D01*
X2542633Y-13692804D02*
X2533110Y-13702328D01*
X2533110Y-13702328D02*
X2514062Y-13711852D01*
X2514062Y-13711852D02*
X2495014Y-13711852D01*
X2495014Y-13711852D02*
X2475967Y-13702328D01*
X2475967Y-13702328D02*
X2466443Y-13692804D01*
X2466443Y-13692804D02*
X2456919Y-13673756D01*
X2456919Y-13673756D02*
X2447395Y-13635661D01*
X2447395Y-13635661D02*
X2447395Y-13588042D01*
X2447395Y-13588042D02*
X2456919Y-13549947D01*
X2456919Y-13549947D02*
X2466443Y-13530899D01*
X2466443Y-13530899D02*
X2475967Y-13521376D01*
X2475967Y-13521376D02*
X2495014Y-13511852D01*
X2647395Y-13692804D02*
X2656919Y-13702328D01*
X2656919Y-13702328D02*
X2647395Y-13711852D01*
X2647395Y-13711852D02*
X2637871Y-13702328D01*
X2637871Y-13702328D02*
X2647395Y-13692804D01*
X2647395Y-13692804D02*
X2647395Y-13711852D01*
X2837871Y-13511852D02*
X2742633Y-13511852D01*
X2742633Y-13511852D02*
X2733110Y-13607090D01*
X2733110Y-13607090D02*
X2742633Y-13597566D01*
X2742633Y-13597566D02*
X2761681Y-13588042D01*
X2761681Y-13588042D02*
X2809300Y-13588042D01*
X2809300Y-13588042D02*
X2828348Y-13597566D01*
X2828348Y-13597566D02*
X2837871Y-13607090D01*
X2837871Y-13607090D02*
X2847395Y-13626137D01*
X2847395Y-13626137D02*
X2847395Y-13673756D01*
X2847395Y-13673756D02*
X2837871Y-13692804D01*
X2837871Y-13692804D02*
X2828348Y-13702328D01*
X2828348Y-13702328D02*
X2809300Y-13711852D01*
X2809300Y-13711852D02*
X2761681Y-13711852D01*
X2761681Y-13711852D02*
X2742633Y-13702328D01*
X2742633Y-13702328D02*
X2733110Y-13692804D01*
X2971205Y-13511852D02*
X2990252Y-13511852D01*
X2990252Y-13511852D02*
X3009300Y-13521376D01*
X3009300Y-13521376D02*
X3018824Y-13530899D01*
X3018824Y-13530899D02*
X3028348Y-13549947D01*
X3028348Y-13549947D02*
X3037871Y-13588042D01*
X3037871Y-13588042D02*
X3037871Y-13635661D01*
X3037871Y-13635661D02*
X3028348Y-13673756D01*
X3028348Y-13673756D02*
X3018824Y-13692804D01*
X3018824Y-13692804D02*
X3009300Y-13702328D01*
X3009300Y-13702328D02*
X2990252Y-13711852D01*
X2990252Y-13711852D02*
X2971205Y-13711852D01*
X2971205Y-13711852D02*
X2952157Y-13702328D01*
X2952157Y-13702328D02*
X2942633Y-13692804D01*
X2942633Y-13692804D02*
X2933109Y-13673756D01*
X2933109Y-13673756D02*
X2923586Y-13635661D01*
X2923586Y-13635661D02*
X2923586Y-13588042D01*
X2923586Y-13588042D02*
X2933109Y-13549947D01*
X2933109Y-13549947D02*
X2942633Y-13530899D01*
X2942633Y-13530899D02*
X2952157Y-13521376D01*
X2952157Y-13521376D02*
X2971205Y-13511852D01*
X3161681Y-13511852D02*
X3180729Y-13511852D01*
X3180729Y-13511852D02*
X3199776Y-13521376D01*
X3199776Y-13521376D02*
X3209300Y-13530899D01*
X3209300Y-13530899D02*
X3218824Y-13549947D01*
X3218824Y-13549947D02*
X3228348Y-13588042D01*
X3228348Y-13588042D02*
X3228348Y-13635661D01*
X3228348Y-13635661D02*
X3218824Y-13673756D01*
X3218824Y-13673756D02*
X3209300Y-13692804D01*
X3209300Y-13692804D02*
X3199776Y-13702328D01*
X3199776Y-13702328D02*
X3180729Y-13711852D01*
X3180729Y-13711852D02*
X3161681Y-13711852D01*
X3161681Y-13711852D02*
X3142633Y-13702328D01*
X3142633Y-13702328D02*
X3133109Y-13692804D01*
X3133109Y-13692804D02*
X3123586Y-13673756D01*
X3123586Y-13673756D02*
X3114062Y-13635661D01*
X3114062Y-13635661D02*
X3114062Y-13588042D01*
X3114062Y-13588042D02*
X3123586Y-13549947D01*
X3123586Y-13549947D02*
X3133109Y-13530899D01*
X3133109Y-13530899D02*
X3142633Y-13521376D01*
X3142633Y-13521376D02*
X3161681Y-13511852D01*
X3314062Y-13711852D02*
X3314062Y-13578518D01*
X3314062Y-13597566D02*
X3323586Y-13588042D01*
X3323586Y-13588042D02*
X3342633Y-13578518D01*
X3342633Y-13578518D02*
X3371205Y-13578518D01*
X3371205Y-13578518D02*
X3390252Y-13588042D01*
X3390252Y-13588042D02*
X3399776Y-13607090D01*
X3399776Y-13607090D02*
X3399776Y-13711852D01*
X3399776Y-13607090D02*
X3409300Y-13588042D01*
X3409300Y-13588042D02*
X3428348Y-13578518D01*
X3428348Y-13578518D02*
X3456919Y-13578518D01*
X3456919Y-13578518D02*
X3475967Y-13588042D01*
X3475967Y-13588042D02*
X3485490Y-13607090D01*
X3485490Y-13607090D02*
X3485490Y-13711852D01*
X3580729Y-13711852D02*
X3580729Y-13578518D01*
X3580729Y-13597566D02*
X3590252Y-13588042D01*
X3590252Y-13588042D02*
X3609300Y-13578518D01*
X3609300Y-13578518D02*
X3637871Y-13578518D01*
X3637871Y-13578518D02*
X3656919Y-13588042D01*
X3656919Y-13588042D02*
X3666443Y-13607090D01*
X3666443Y-13607090D02*
X3666443Y-13711852D01*
X3666443Y-13607090D02*
X3675967Y-13588042D01*
X3675967Y-13588042D02*
X3695014Y-13578518D01*
X3695014Y-13578518D02*
X3723586Y-13578518D01*
X3723586Y-13578518D02*
X3742633Y-13588042D01*
X3742633Y-13588042D02*
X3752157Y-13607090D01*
X3752157Y-13607090D02*
X3752157Y-13711852D01*
X4142633Y-13502328D02*
X3971205Y-13759471D01*
X4399776Y-13511852D02*
X4418824Y-13511852D01*
X4418824Y-13511852D02*
X4437872Y-13521376D01*
X4437872Y-13521376D02*
X4447395Y-13530899D01*
X4447395Y-13530899D02*
X4456919Y-13549947D01*
X4456919Y-13549947D02*
X4466443Y-13588042D01*
X4466443Y-13588042D02*
X4466443Y-13635661D01*
X4466443Y-13635661D02*
X4456919Y-13673756D01*
X4456919Y-13673756D02*
X4447395Y-13692804D01*
X4447395Y-13692804D02*
X4437872Y-13702328D01*
X4437872Y-13702328D02*
X4418824Y-13711852D01*
X4418824Y-13711852D02*
X4399776Y-13711852D01*
X4399776Y-13711852D02*
X4380729Y-13702328D01*
X4380729Y-13702328D02*
X4371205Y-13692804D01*
X4371205Y-13692804D02*
X4361681Y-13673756D01*
X4361681Y-13673756D02*
X4352157Y-13635661D01*
X4352157Y-13635661D02*
X4352157Y-13588042D01*
X4352157Y-13588042D02*
X4361681Y-13549947D01*
X4361681Y-13549947D02*
X4371205Y-13530899D01*
X4371205Y-13530899D02*
X4380729Y-13521376D01*
X4380729Y-13521376D02*
X4399776Y-13511852D01*
X4552157Y-13692804D02*
X4561681Y-13702328D01*
X4561681Y-13702328D02*
X4552157Y-13711852D01*
X4552157Y-13711852D02*
X4542634Y-13702328D01*
X4542634Y-13702328D02*
X4552157Y-13692804D01*
X4552157Y-13692804D02*
X4552157Y-13711852D01*
X4685491Y-13511852D02*
X4704538Y-13511852D01*
X4704538Y-13511852D02*
X4723586Y-13521376D01*
X4723586Y-13521376D02*
X4733110Y-13530899D01*
X4733110Y-13530899D02*
X4742634Y-13549947D01*
X4742634Y-13549947D02*
X4752157Y-13588042D01*
X4752157Y-13588042D02*
X4752157Y-13635661D01*
X4752157Y-13635661D02*
X4742634Y-13673756D01*
X4742634Y-13673756D02*
X4733110Y-13692804D01*
X4733110Y-13692804D02*
X4723586Y-13702328D01*
X4723586Y-13702328D02*
X4704538Y-13711852D01*
X4704538Y-13711852D02*
X4685491Y-13711852D01*
X4685491Y-13711852D02*
X4666443Y-13702328D01*
X4666443Y-13702328D02*
X4656919Y-13692804D01*
X4656919Y-13692804D02*
X4647395Y-13673756D01*
X4647395Y-13673756D02*
X4637872Y-13635661D01*
X4637872Y-13635661D02*
X4637872Y-13588042D01*
X4637872Y-13588042D02*
X4647395Y-13549947D01*
X4647395Y-13549947D02*
X4656919Y-13530899D01*
X4656919Y-13530899D02*
X4666443Y-13521376D01*
X4666443Y-13521376D02*
X4685491Y-13511852D01*
X4942634Y-13711852D02*
X4828348Y-13711852D01*
X4885491Y-13711852D02*
X4885491Y-13511852D01*
X4885491Y-13511852D02*
X4866443Y-13540423D01*
X4866443Y-13540423D02*
X4847395Y-13559471D01*
X4847395Y-13559471D02*
X4828348Y-13568995D01*
X5037872Y-13711852D02*
X5075967Y-13711852D01*
X5075967Y-13711852D02*
X5095015Y-13702328D01*
X5095015Y-13702328D02*
X5104538Y-13692804D01*
X5104538Y-13692804D02*
X5123586Y-13664233D01*
X5123586Y-13664233D02*
X5133110Y-13626137D01*
X5133110Y-13626137D02*
X5133110Y-13549947D01*
X5133110Y-13549947D02*
X5123586Y-13530899D01*
X5123586Y-13530899D02*
X5114062Y-13521376D01*
X5114062Y-13521376D02*
X5095015Y-13511852D01*
X5095015Y-13511852D02*
X5056919Y-13511852D01*
X5056919Y-13511852D02*
X5037872Y-13521376D01*
X5037872Y-13521376D02*
X5028348Y-13530899D01*
X5028348Y-13530899D02*
X5018824Y-13549947D01*
X5018824Y-13549947D02*
X5018824Y-13597566D01*
X5018824Y-13597566D02*
X5028348Y-13616614D01*
X5028348Y-13616614D02*
X5037872Y-13626137D01*
X5037872Y-13626137D02*
X5056919Y-13635661D01*
X5056919Y-13635661D02*
X5095015Y-13635661D01*
X5095015Y-13635661D02*
X5114062Y-13626137D01*
X5114062Y-13626137D02*
X5123586Y-13616614D01*
X5123586Y-13616614D02*
X5133110Y-13597566D01*
X5199776Y-13511852D02*
X5333110Y-13511852D01*
X5333110Y-13511852D02*
X5247395Y-13711852D01*
X5399776Y-13511852D02*
X5399776Y-13549947D01*
X5475967Y-13511852D02*
X5475967Y-13549947D01*
X5771205Y-13788042D02*
X5761681Y-13778518D01*
X5761681Y-13778518D02*
X5742634Y-13749947D01*
X5742634Y-13749947D02*
X5733110Y-13730899D01*
X5733110Y-13730899D02*
X5723586Y-13702328D01*
X5723586Y-13702328D02*
X5714062Y-13654709D01*
X5714062Y-13654709D02*
X5714062Y-13616614D01*
X5714062Y-13616614D02*
X5723586Y-13568995D01*
X5723586Y-13568995D02*
X5733110Y-13540423D01*
X5733110Y-13540423D02*
X5742634Y-13521376D01*
X5742634Y-13521376D02*
X5761681Y-13492804D01*
X5761681Y-13492804D02*
X5771205Y-13483280D01*
X5933110Y-13578518D02*
X5933110Y-13711852D01*
X5885491Y-13502328D02*
X5837872Y-13645185D01*
X5837872Y-13645185D02*
X5961681Y-13645185D01*
X6190253Y-13711852D02*
X6190253Y-13511852D01*
X6275967Y-13711852D02*
X6275967Y-13607090D01*
X6275967Y-13607090D02*
X6266443Y-13588042D01*
X6266443Y-13588042D02*
X6247396Y-13578518D01*
X6247396Y-13578518D02*
X6218824Y-13578518D01*
X6218824Y-13578518D02*
X6199776Y-13588042D01*
X6199776Y-13588042D02*
X6190253Y-13597566D01*
X6399776Y-13711852D02*
X6380729Y-13702328D01*
X6380729Y-13702328D02*
X6371205Y-13692804D01*
X6371205Y-13692804D02*
X6361681Y-13673756D01*
X6361681Y-13673756D02*
X6361681Y-13616614D01*
X6361681Y-13616614D02*
X6371205Y-13597566D01*
X6371205Y-13597566D02*
X6380729Y-13588042D01*
X6380729Y-13588042D02*
X6399776Y-13578518D01*
X6399776Y-13578518D02*
X6428348Y-13578518D01*
X6428348Y-13578518D02*
X6447396Y-13588042D01*
X6447396Y-13588042D02*
X6456919Y-13597566D01*
X6456919Y-13597566D02*
X6466443Y-13616614D01*
X6466443Y-13616614D02*
X6466443Y-13673756D01*
X6466443Y-13673756D02*
X6456919Y-13692804D01*
X6456919Y-13692804D02*
X6447396Y-13702328D01*
X6447396Y-13702328D02*
X6428348Y-13711852D01*
X6428348Y-13711852D02*
X6399776Y-13711852D01*
X6580729Y-13711852D02*
X6561681Y-13702328D01*
X6561681Y-13702328D02*
X6552157Y-13683280D01*
X6552157Y-13683280D02*
X6552157Y-13511852D01*
X6733110Y-13702328D02*
X6714062Y-13711852D01*
X6714062Y-13711852D02*
X6675967Y-13711852D01*
X6675967Y-13711852D02*
X6656919Y-13702328D01*
X6656919Y-13702328D02*
X6647396Y-13683280D01*
X6647396Y-13683280D02*
X6647396Y-13607090D01*
X6647396Y-13607090D02*
X6656919Y-13588042D01*
X6656919Y-13588042D02*
X6675967Y-13578518D01*
X6675967Y-13578518D02*
X6714062Y-13578518D01*
X6714062Y-13578518D02*
X6733110Y-13588042D01*
X6733110Y-13588042D02*
X6742634Y-13607090D01*
X6742634Y-13607090D02*
X6742634Y-13626137D01*
X6742634Y-13626137D02*
X6647396Y-13645185D01*
X6818824Y-13702328D02*
X6837872Y-13711852D01*
X6837872Y-13711852D02*
X6875967Y-13711852D01*
X6875967Y-13711852D02*
X6895015Y-13702328D01*
X6895015Y-13702328D02*
X6904538Y-13683280D01*
X6904538Y-13683280D02*
X6904538Y-13673756D01*
X6904538Y-13673756D02*
X6895015Y-13654709D01*
X6895015Y-13654709D02*
X6875967Y-13645185D01*
X6875967Y-13645185D02*
X6847396Y-13645185D01*
X6847396Y-13645185D02*
X6828348Y-13635661D01*
X6828348Y-13635661D02*
X6818824Y-13616614D01*
X6818824Y-13616614D02*
X6818824Y-13607090D01*
X6818824Y-13607090D02*
X6828348Y-13588042D01*
X6828348Y-13588042D02*
X6847396Y-13578518D01*
X6847396Y-13578518D02*
X6875967Y-13578518D01*
X6875967Y-13578518D02*
X6895015Y-13588042D01*
X6971205Y-13788042D02*
X6980729Y-13778518D01*
X6980729Y-13778518D02*
X6999777Y-13749947D01*
X6999777Y-13749947D02*
X7009300Y-13730899D01*
X7009300Y-13730899D02*
X7018824Y-13702328D01*
X7018824Y-13702328D02*
X7028348Y-13654709D01*
X7028348Y-13654709D02*
X7028348Y-13616614D01*
X7028348Y-13616614D02*
X7018824Y-13568995D01*
X7018824Y-13568995D02*
X7009300Y-13540423D01*
X7009300Y-13540423D02*
X6999777Y-13521376D01*
X6999777Y-13521376D02*
X6980729Y-13492804D01*
X6980729Y-13492804D02*
X6971205Y-13483280D01*
D14*
X2201246Y-13902774D02*
X2201246Y-13863882D01*
X2162354Y-13863882D01*
X2162354Y-13902774D01*
X2201246Y-13902774D01*
D11*
X2495014Y-13775852D02*
X2514062Y-13775852D01*
X2514062Y-13775852D02*
X2533110Y-13785376D01*
X2533110Y-13785376D02*
X2542633Y-13794899D01*
X2542633Y-13794899D02*
X2552157Y-13813947D01*
X2552157Y-13813947D02*
X2561681Y-13852042D01*
X2561681Y-13852042D02*
X2561681Y-13899661D01*
X2561681Y-13899661D02*
X2552157Y-13937756D01*
X2552157Y-13937756D02*
X2542633Y-13956804D01*
X2542633Y-13956804D02*
X2533110Y-13966328D01*
X2533110Y-13966328D02*
X2514062Y-13975852D01*
X2514062Y-13975852D02*
X2495014Y-13975852D01*
X2495014Y-13975852D02*
X2475967Y-13966328D01*
X2475967Y-13966328D02*
X2466443Y-13956804D01*
X2466443Y-13956804D02*
X2456919Y-13937756D01*
X2456919Y-13937756D02*
X2447395Y-13899661D01*
X2447395Y-13899661D02*
X2447395Y-13852042D01*
X2447395Y-13852042D02*
X2456919Y-13813947D01*
X2456919Y-13813947D02*
X2466443Y-13794899D01*
X2466443Y-13794899D02*
X2475967Y-13785376D01*
X2475967Y-13785376D02*
X2495014Y-13775852D01*
X2647395Y-13956804D02*
X2656919Y-13966328D01*
X2656919Y-13966328D02*
X2647395Y-13975852D01*
X2647395Y-13975852D02*
X2637871Y-13966328D01*
X2637871Y-13966328D02*
X2647395Y-13956804D01*
X2647395Y-13956804D02*
X2647395Y-13975852D01*
X2837871Y-13775852D02*
X2742633Y-13775852D01*
X2742633Y-13775852D02*
X2733110Y-13871090D01*
X2733110Y-13871090D02*
X2742633Y-13861566D01*
X2742633Y-13861566D02*
X2761681Y-13852042D01*
X2761681Y-13852042D02*
X2809300Y-13852042D01*
X2809300Y-13852042D02*
X2828348Y-13861566D01*
X2828348Y-13861566D02*
X2837871Y-13871090D01*
X2837871Y-13871090D02*
X2847395Y-13890137D01*
X2847395Y-13890137D02*
X2847395Y-13937756D01*
X2847395Y-13937756D02*
X2837871Y-13956804D01*
X2837871Y-13956804D02*
X2828348Y-13966328D01*
X2828348Y-13966328D02*
X2809300Y-13975852D01*
X2809300Y-13975852D02*
X2761681Y-13975852D01*
X2761681Y-13975852D02*
X2742633Y-13966328D01*
X2742633Y-13966328D02*
X2733110Y-13956804D01*
X3028348Y-13775852D02*
X2933109Y-13775852D01*
X2933109Y-13775852D02*
X2923586Y-13871090D01*
X2923586Y-13871090D02*
X2933109Y-13861566D01*
X2933109Y-13861566D02*
X2952157Y-13852042D01*
X2952157Y-13852042D02*
X2999776Y-13852042D01*
X2999776Y-13852042D02*
X3018824Y-13861566D01*
X3018824Y-13861566D02*
X3028348Y-13871090D01*
X3028348Y-13871090D02*
X3037871Y-13890137D01*
X3037871Y-13890137D02*
X3037871Y-13937756D01*
X3037871Y-13937756D02*
X3028348Y-13956804D01*
X3028348Y-13956804D02*
X3018824Y-13966328D01*
X3018824Y-13966328D02*
X2999776Y-13975852D01*
X2999776Y-13975852D02*
X2952157Y-13975852D01*
X2952157Y-13975852D02*
X2933109Y-13966328D01*
X2933109Y-13966328D02*
X2923586Y-13956804D01*
X3161681Y-13775852D02*
X3180729Y-13775852D01*
X3180729Y-13775852D02*
X3199776Y-13785376D01*
X3199776Y-13785376D02*
X3209300Y-13794899D01*
X3209300Y-13794899D02*
X3218824Y-13813947D01*
X3218824Y-13813947D02*
X3228348Y-13852042D01*
X3228348Y-13852042D02*
X3228348Y-13899661D01*
X3228348Y-13899661D02*
X3218824Y-13937756D01*
X3218824Y-13937756D02*
X3209300Y-13956804D01*
X3209300Y-13956804D02*
X3199776Y-13966328D01*
X3199776Y-13966328D02*
X3180729Y-13975852D01*
X3180729Y-13975852D02*
X3161681Y-13975852D01*
X3161681Y-13975852D02*
X3142633Y-13966328D01*
X3142633Y-13966328D02*
X3133109Y-13956804D01*
X3133109Y-13956804D02*
X3123586Y-13937756D01*
X3123586Y-13937756D02*
X3114062Y-13899661D01*
X3114062Y-13899661D02*
X3114062Y-13852042D01*
X3114062Y-13852042D02*
X3123586Y-13813947D01*
X3123586Y-13813947D02*
X3133109Y-13794899D01*
X3133109Y-13794899D02*
X3142633Y-13785376D01*
X3142633Y-13785376D02*
X3161681Y-13775852D01*
X3314062Y-13975852D02*
X3314062Y-13842518D01*
X3314062Y-13861566D02*
X3323586Y-13852042D01*
X3323586Y-13852042D02*
X3342633Y-13842518D01*
X3342633Y-13842518D02*
X3371205Y-13842518D01*
X3371205Y-13842518D02*
X3390252Y-13852042D01*
X3390252Y-13852042D02*
X3399776Y-13871090D01*
X3399776Y-13871090D02*
X3399776Y-13975852D01*
X3399776Y-13871090D02*
X3409300Y-13852042D01*
X3409300Y-13852042D02*
X3428348Y-13842518D01*
X3428348Y-13842518D02*
X3456919Y-13842518D01*
X3456919Y-13842518D02*
X3475967Y-13852042D01*
X3475967Y-13852042D02*
X3485490Y-13871090D01*
X3485490Y-13871090D02*
X3485490Y-13975852D01*
X3580729Y-13975852D02*
X3580729Y-13842518D01*
X3580729Y-13861566D02*
X3590252Y-13852042D01*
X3590252Y-13852042D02*
X3609300Y-13842518D01*
X3609300Y-13842518D02*
X3637871Y-13842518D01*
X3637871Y-13842518D02*
X3656919Y-13852042D01*
X3656919Y-13852042D02*
X3666443Y-13871090D01*
X3666443Y-13871090D02*
X3666443Y-13975852D01*
X3666443Y-13871090D02*
X3675967Y-13852042D01*
X3675967Y-13852042D02*
X3695014Y-13842518D01*
X3695014Y-13842518D02*
X3723586Y-13842518D01*
X3723586Y-13842518D02*
X3742633Y-13852042D01*
X3742633Y-13852042D02*
X3752157Y-13871090D01*
X3752157Y-13871090D02*
X3752157Y-13975852D01*
X4142633Y-13766328D02*
X3971205Y-14023471D01*
X4399776Y-13775852D02*
X4418824Y-13775852D01*
X4418824Y-13775852D02*
X4437872Y-13785376D01*
X4437872Y-13785376D02*
X4447395Y-13794899D01*
X4447395Y-13794899D02*
X4456919Y-13813947D01*
X4456919Y-13813947D02*
X4466443Y-13852042D01*
X4466443Y-13852042D02*
X4466443Y-13899661D01*
X4466443Y-13899661D02*
X4456919Y-13937756D01*
X4456919Y-13937756D02*
X4447395Y-13956804D01*
X4447395Y-13956804D02*
X4437872Y-13966328D01*
X4437872Y-13966328D02*
X4418824Y-13975852D01*
X4418824Y-13975852D02*
X4399776Y-13975852D01*
X4399776Y-13975852D02*
X4380729Y-13966328D01*
X4380729Y-13966328D02*
X4371205Y-13956804D01*
X4371205Y-13956804D02*
X4361681Y-13937756D01*
X4361681Y-13937756D02*
X4352157Y-13899661D01*
X4352157Y-13899661D02*
X4352157Y-13852042D01*
X4352157Y-13852042D02*
X4361681Y-13813947D01*
X4361681Y-13813947D02*
X4371205Y-13794899D01*
X4371205Y-13794899D02*
X4380729Y-13785376D01*
X4380729Y-13785376D02*
X4399776Y-13775852D01*
X4552157Y-13956804D02*
X4561681Y-13966328D01*
X4561681Y-13966328D02*
X4552157Y-13975852D01*
X4552157Y-13975852D02*
X4542634Y-13966328D01*
X4542634Y-13966328D02*
X4552157Y-13956804D01*
X4552157Y-13956804D02*
X4552157Y-13975852D01*
X4685491Y-13775852D02*
X4704538Y-13775852D01*
X4704538Y-13775852D02*
X4723586Y-13785376D01*
X4723586Y-13785376D02*
X4733110Y-13794899D01*
X4733110Y-13794899D02*
X4742634Y-13813947D01*
X4742634Y-13813947D02*
X4752157Y-13852042D01*
X4752157Y-13852042D02*
X4752157Y-13899661D01*
X4752157Y-13899661D02*
X4742634Y-13937756D01*
X4742634Y-13937756D02*
X4733110Y-13956804D01*
X4733110Y-13956804D02*
X4723586Y-13966328D01*
X4723586Y-13966328D02*
X4704538Y-13975852D01*
X4704538Y-13975852D02*
X4685491Y-13975852D01*
X4685491Y-13975852D02*
X4666443Y-13966328D01*
X4666443Y-13966328D02*
X4656919Y-13956804D01*
X4656919Y-13956804D02*
X4647395Y-13937756D01*
X4647395Y-13937756D02*
X4637872Y-13899661D01*
X4637872Y-13899661D02*
X4637872Y-13852042D01*
X4637872Y-13852042D02*
X4647395Y-13813947D01*
X4647395Y-13813947D02*
X4656919Y-13794899D01*
X4656919Y-13794899D02*
X4666443Y-13785376D01*
X4666443Y-13785376D02*
X4685491Y-13775852D01*
X4828348Y-13794899D02*
X4837872Y-13785376D01*
X4837872Y-13785376D02*
X4856919Y-13775852D01*
X4856919Y-13775852D02*
X4904538Y-13775852D01*
X4904538Y-13775852D02*
X4923586Y-13785376D01*
X4923586Y-13785376D02*
X4933110Y-13794899D01*
X4933110Y-13794899D02*
X4942634Y-13813947D01*
X4942634Y-13813947D02*
X4942634Y-13832995D01*
X4942634Y-13832995D02*
X4933110Y-13861566D01*
X4933110Y-13861566D02*
X4818824Y-13975852D01*
X4818824Y-13975852D02*
X4942634Y-13975852D01*
X5133110Y-13975852D02*
X5018824Y-13975852D01*
X5075967Y-13975852D02*
X5075967Y-13775852D01*
X5075967Y-13775852D02*
X5056919Y-13804423D01*
X5056919Y-13804423D02*
X5037872Y-13823471D01*
X5037872Y-13823471D02*
X5018824Y-13832995D01*
X5199776Y-13775852D02*
X5333110Y-13775852D01*
X5333110Y-13775852D02*
X5247395Y-13975852D01*
X5399776Y-13775852D02*
X5399776Y-13813947D01*
X5475967Y-13775852D02*
X5475967Y-13813947D01*
X5771205Y-14052042D02*
X5761681Y-14042518D01*
X5761681Y-14042518D02*
X5742634Y-14013947D01*
X5742634Y-14013947D02*
X5733110Y-13994899D01*
X5733110Y-13994899D02*
X5723586Y-13966328D01*
X5723586Y-13966328D02*
X5714062Y-13918709D01*
X5714062Y-13918709D02*
X5714062Y-13880614D01*
X5714062Y-13880614D02*
X5723586Y-13832995D01*
X5723586Y-13832995D02*
X5733110Y-13804423D01*
X5733110Y-13804423D02*
X5742634Y-13785376D01*
X5742634Y-13785376D02*
X5761681Y-13756804D01*
X5761681Y-13756804D02*
X5771205Y-13747280D01*
X5952157Y-13975852D02*
X5837872Y-13975852D01*
X5895014Y-13975852D02*
X5895014Y-13775852D01*
X5895014Y-13775852D02*
X5875967Y-13804423D01*
X5875967Y-13804423D02*
X5856919Y-13823471D01*
X5856919Y-13823471D02*
X5837872Y-13832995D01*
X6047395Y-13975852D02*
X6085491Y-13975852D01*
X6085491Y-13975852D02*
X6104538Y-13966328D01*
X6104538Y-13966328D02*
X6114062Y-13956804D01*
X6114062Y-13956804D02*
X6133110Y-13928233D01*
X6133110Y-13928233D02*
X6142634Y-13890137D01*
X6142634Y-13890137D02*
X6142634Y-13813947D01*
X6142634Y-13813947D02*
X6133110Y-13794899D01*
X6133110Y-13794899D02*
X6123586Y-13785376D01*
X6123586Y-13785376D02*
X6104538Y-13775852D01*
X6104538Y-13775852D02*
X6066443Y-13775852D01*
X6066443Y-13775852D02*
X6047395Y-13785376D01*
X6047395Y-13785376D02*
X6037872Y-13794899D01*
X6037872Y-13794899D02*
X6028348Y-13813947D01*
X6028348Y-13813947D02*
X6028348Y-13861566D01*
X6028348Y-13861566D02*
X6037872Y-13880614D01*
X6037872Y-13880614D02*
X6047395Y-13890137D01*
X6047395Y-13890137D02*
X6066443Y-13899661D01*
X6066443Y-13899661D02*
X6104538Y-13899661D01*
X6104538Y-13899661D02*
X6123586Y-13890137D01*
X6123586Y-13890137D02*
X6133110Y-13880614D01*
X6133110Y-13880614D02*
X6142634Y-13861566D01*
X6380729Y-13975852D02*
X6380729Y-13775852D01*
X6466443Y-13975852D02*
X6466443Y-13871090D01*
X6466443Y-13871090D02*
X6456919Y-13852042D01*
X6456919Y-13852042D02*
X6437872Y-13842518D01*
X6437872Y-13842518D02*
X6409300Y-13842518D01*
X6409300Y-13842518D02*
X6390253Y-13852042D01*
X6390253Y-13852042D02*
X6380729Y-13861566D01*
X6590253Y-13975852D02*
X6571205Y-13966328D01*
X6571205Y-13966328D02*
X6561681Y-13956804D01*
X6561681Y-13956804D02*
X6552157Y-13937756D01*
X6552157Y-13937756D02*
X6552157Y-13880614D01*
X6552157Y-13880614D02*
X6561681Y-13861566D01*
X6561681Y-13861566D02*
X6571205Y-13852042D01*
X6571205Y-13852042D02*
X6590253Y-13842518D01*
X6590253Y-13842518D02*
X6618824Y-13842518D01*
X6618824Y-13842518D02*
X6637872Y-13852042D01*
X6637872Y-13852042D02*
X6647396Y-13861566D01*
X6647396Y-13861566D02*
X6656919Y-13880614D01*
X6656919Y-13880614D02*
X6656919Y-13937756D01*
X6656919Y-13937756D02*
X6647396Y-13956804D01*
X6647396Y-13956804D02*
X6637872Y-13966328D01*
X6637872Y-13966328D02*
X6618824Y-13975852D01*
X6618824Y-13975852D02*
X6590253Y-13975852D01*
X6771205Y-13975852D02*
X6752157Y-13966328D01*
X6752157Y-13966328D02*
X6742634Y-13947280D01*
X6742634Y-13947280D02*
X6742634Y-13775852D01*
X6923586Y-13966328D02*
X6904538Y-13975852D01*
X6904538Y-13975852D02*
X6866443Y-13975852D01*
X6866443Y-13975852D02*
X6847396Y-13966328D01*
X6847396Y-13966328D02*
X6837872Y-13947280D01*
X6837872Y-13947280D02*
X6837872Y-13871090D01*
X6837872Y-13871090D02*
X6847396Y-13852042D01*
X6847396Y-13852042D02*
X6866443Y-13842518D01*
X6866443Y-13842518D02*
X6904538Y-13842518D01*
X6904538Y-13842518D02*
X6923586Y-13852042D01*
X6923586Y-13852042D02*
X6933110Y-13871090D01*
X6933110Y-13871090D02*
X6933110Y-13890137D01*
X6933110Y-13890137D02*
X6837872Y-13909185D01*
X7009300Y-13966328D02*
X7028348Y-13975852D01*
X7028348Y-13975852D02*
X7066443Y-13975852D01*
X7066443Y-13975852D02*
X7085491Y-13966328D01*
X7085491Y-13966328D02*
X7095015Y-13947280D01*
X7095015Y-13947280D02*
X7095015Y-13937756D01*
X7095015Y-13937756D02*
X7085491Y-13918709D01*
X7085491Y-13918709D02*
X7066443Y-13909185D01*
X7066443Y-13909185D02*
X7037872Y-13909185D01*
X7037872Y-13909185D02*
X7018824Y-13899661D01*
X7018824Y-13899661D02*
X7009300Y-13880614D01*
X7009300Y-13880614D02*
X7009300Y-13871090D01*
X7009300Y-13871090D02*
X7018824Y-13852042D01*
X7018824Y-13852042D02*
X7037872Y-13842518D01*
X7037872Y-13842518D02*
X7066443Y-13842518D01*
X7066443Y-13842518D02*
X7085491Y-13852042D01*
X7161681Y-14052042D02*
X7171205Y-14042518D01*
X7171205Y-14042518D02*
X7190253Y-14013947D01*
X7190253Y-14013947D02*
X7199777Y-13994899D01*
X7199777Y-13994899D02*
X7209300Y-13966328D01*
X7209300Y-13966328D02*
X7218824Y-13918709D01*
X7218824Y-13918709D02*
X7218824Y-13880614D01*
X7218824Y-13880614D02*
X7209300Y-13832995D01*
X7209300Y-13832995D02*
X7199777Y-13804423D01*
X7199777Y-13804423D02*
X7190253Y-13785376D01*
X7190253Y-13785376D02*
X7171205Y-13756804D01*
X7171205Y-13756804D02*
X7161681Y-13747280D01*
D15*
X2179300Y-14177328D02*
X2209300Y-14147328D01*
X2179300Y-14117328D01*
X2149300Y-14147328D01*
X2179300Y-14177328D01*
D11*
X2495014Y-14039852D02*
X2514062Y-14039852D01*
X2514062Y-14039852D02*
X2533110Y-14049376D01*
X2533110Y-14049376D02*
X2542633Y-14058899D01*
X2542633Y-14058899D02*
X2552157Y-14077947D01*
X2552157Y-14077947D02*
X2561681Y-14116042D01*
X2561681Y-14116042D02*
X2561681Y-14163661D01*
X2561681Y-14163661D02*
X2552157Y-14201756D01*
X2552157Y-14201756D02*
X2542633Y-14220804D01*
X2542633Y-14220804D02*
X2533110Y-14230328D01*
X2533110Y-14230328D02*
X2514062Y-14239852D01*
X2514062Y-14239852D02*
X2495014Y-14239852D01*
X2495014Y-14239852D02*
X2475967Y-14230328D01*
X2475967Y-14230328D02*
X2466443Y-14220804D01*
X2466443Y-14220804D02*
X2456919Y-14201756D01*
X2456919Y-14201756D02*
X2447395Y-14163661D01*
X2447395Y-14163661D02*
X2447395Y-14116042D01*
X2447395Y-14116042D02*
X2456919Y-14077947D01*
X2456919Y-14077947D02*
X2466443Y-14058899D01*
X2466443Y-14058899D02*
X2475967Y-14049376D01*
X2475967Y-14049376D02*
X2495014Y-14039852D01*
X2647395Y-14220804D02*
X2656919Y-14230328D01*
X2656919Y-14230328D02*
X2647395Y-14239852D01*
X2647395Y-14239852D02*
X2637871Y-14230328D01*
X2637871Y-14230328D02*
X2647395Y-14220804D01*
X2647395Y-14220804D02*
X2647395Y-14239852D01*
X2828348Y-14039852D02*
X2790252Y-14039852D01*
X2790252Y-14039852D02*
X2771205Y-14049376D01*
X2771205Y-14049376D02*
X2761681Y-14058899D01*
X2761681Y-14058899D02*
X2742633Y-14087471D01*
X2742633Y-14087471D02*
X2733110Y-14125566D01*
X2733110Y-14125566D02*
X2733110Y-14201756D01*
X2733110Y-14201756D02*
X2742633Y-14220804D01*
X2742633Y-14220804D02*
X2752157Y-14230328D01*
X2752157Y-14230328D02*
X2771205Y-14239852D01*
X2771205Y-14239852D02*
X2809300Y-14239852D01*
X2809300Y-14239852D02*
X2828348Y-14230328D01*
X2828348Y-14230328D02*
X2837871Y-14220804D01*
X2837871Y-14220804D02*
X2847395Y-14201756D01*
X2847395Y-14201756D02*
X2847395Y-14154137D01*
X2847395Y-14154137D02*
X2837871Y-14135090D01*
X2837871Y-14135090D02*
X2828348Y-14125566D01*
X2828348Y-14125566D02*
X2809300Y-14116042D01*
X2809300Y-14116042D02*
X2771205Y-14116042D01*
X2771205Y-14116042D02*
X2752157Y-14125566D01*
X2752157Y-14125566D02*
X2742633Y-14135090D01*
X2742633Y-14135090D02*
X2733110Y-14154137D01*
X2971205Y-14039852D02*
X2990252Y-14039852D01*
X2990252Y-14039852D02*
X3009300Y-14049376D01*
X3009300Y-14049376D02*
X3018824Y-14058899D01*
X3018824Y-14058899D02*
X3028348Y-14077947D01*
X3028348Y-14077947D02*
X3037871Y-14116042D01*
X3037871Y-14116042D02*
X3037871Y-14163661D01*
X3037871Y-14163661D02*
X3028348Y-14201756D01*
X3028348Y-14201756D02*
X3018824Y-14220804D01*
X3018824Y-14220804D02*
X3009300Y-14230328D01*
X3009300Y-14230328D02*
X2990252Y-14239852D01*
X2990252Y-14239852D02*
X2971205Y-14239852D01*
X2971205Y-14239852D02*
X2952157Y-14230328D01*
X2952157Y-14230328D02*
X2942633Y-14220804D01*
X2942633Y-14220804D02*
X2933109Y-14201756D01*
X2933109Y-14201756D02*
X2923586Y-14163661D01*
X2923586Y-14163661D02*
X2923586Y-14116042D01*
X2923586Y-14116042D02*
X2933109Y-14077947D01*
X2933109Y-14077947D02*
X2942633Y-14058899D01*
X2942633Y-14058899D02*
X2952157Y-14049376D01*
X2952157Y-14049376D02*
X2971205Y-14039852D01*
X3161681Y-14039852D02*
X3180729Y-14039852D01*
X3180729Y-14039852D02*
X3199776Y-14049376D01*
X3199776Y-14049376D02*
X3209300Y-14058899D01*
X3209300Y-14058899D02*
X3218824Y-14077947D01*
X3218824Y-14077947D02*
X3228348Y-14116042D01*
X3228348Y-14116042D02*
X3228348Y-14163661D01*
X3228348Y-14163661D02*
X3218824Y-14201756D01*
X3218824Y-14201756D02*
X3209300Y-14220804D01*
X3209300Y-14220804D02*
X3199776Y-14230328D01*
X3199776Y-14230328D02*
X3180729Y-14239852D01*
X3180729Y-14239852D02*
X3161681Y-14239852D01*
X3161681Y-14239852D02*
X3142633Y-14230328D01*
X3142633Y-14230328D02*
X3133109Y-14220804D01*
X3133109Y-14220804D02*
X3123586Y-14201756D01*
X3123586Y-14201756D02*
X3114062Y-14163661D01*
X3114062Y-14163661D02*
X3114062Y-14116042D01*
X3114062Y-14116042D02*
X3123586Y-14077947D01*
X3123586Y-14077947D02*
X3133109Y-14058899D01*
X3133109Y-14058899D02*
X3142633Y-14049376D01*
X3142633Y-14049376D02*
X3161681Y-14039852D01*
X3314062Y-14239852D02*
X3314062Y-14106518D01*
X3314062Y-14125566D02*
X3323586Y-14116042D01*
X3323586Y-14116042D02*
X3342633Y-14106518D01*
X3342633Y-14106518D02*
X3371205Y-14106518D01*
X3371205Y-14106518D02*
X3390252Y-14116042D01*
X3390252Y-14116042D02*
X3399776Y-14135090D01*
X3399776Y-14135090D02*
X3399776Y-14239852D01*
X3399776Y-14135090D02*
X3409300Y-14116042D01*
X3409300Y-14116042D02*
X3428348Y-14106518D01*
X3428348Y-14106518D02*
X3456919Y-14106518D01*
X3456919Y-14106518D02*
X3475967Y-14116042D01*
X3475967Y-14116042D02*
X3485490Y-14135090D01*
X3485490Y-14135090D02*
X3485490Y-14239852D01*
X3580729Y-14239852D02*
X3580729Y-14106518D01*
X3580729Y-14125566D02*
X3590252Y-14116042D01*
X3590252Y-14116042D02*
X3609300Y-14106518D01*
X3609300Y-14106518D02*
X3637871Y-14106518D01*
X3637871Y-14106518D02*
X3656919Y-14116042D01*
X3656919Y-14116042D02*
X3666443Y-14135090D01*
X3666443Y-14135090D02*
X3666443Y-14239852D01*
X3666443Y-14135090D02*
X3675967Y-14116042D01*
X3675967Y-14116042D02*
X3695014Y-14106518D01*
X3695014Y-14106518D02*
X3723586Y-14106518D01*
X3723586Y-14106518D02*
X3742633Y-14116042D01*
X3742633Y-14116042D02*
X3752157Y-14135090D01*
X3752157Y-14135090D02*
X3752157Y-14239852D01*
X4142633Y-14030328D02*
X3971205Y-14287471D01*
X4399776Y-14039852D02*
X4418824Y-14039852D01*
X4418824Y-14039852D02*
X4437872Y-14049376D01*
X4437872Y-14049376D02*
X4447395Y-14058899D01*
X4447395Y-14058899D02*
X4456919Y-14077947D01*
X4456919Y-14077947D02*
X4466443Y-14116042D01*
X4466443Y-14116042D02*
X4466443Y-14163661D01*
X4466443Y-14163661D02*
X4456919Y-14201756D01*
X4456919Y-14201756D02*
X4447395Y-14220804D01*
X4447395Y-14220804D02*
X4437872Y-14230328D01*
X4437872Y-14230328D02*
X4418824Y-14239852D01*
X4418824Y-14239852D02*
X4399776Y-14239852D01*
X4399776Y-14239852D02*
X4380729Y-14230328D01*
X4380729Y-14230328D02*
X4371205Y-14220804D01*
X4371205Y-14220804D02*
X4361681Y-14201756D01*
X4361681Y-14201756D02*
X4352157Y-14163661D01*
X4352157Y-14163661D02*
X4352157Y-14116042D01*
X4352157Y-14116042D02*
X4361681Y-14077947D01*
X4361681Y-14077947D02*
X4371205Y-14058899D01*
X4371205Y-14058899D02*
X4380729Y-14049376D01*
X4380729Y-14049376D02*
X4399776Y-14039852D01*
X4552157Y-14220804D02*
X4561681Y-14230328D01*
X4561681Y-14230328D02*
X4552157Y-14239852D01*
X4552157Y-14239852D02*
X4542634Y-14230328D01*
X4542634Y-14230328D02*
X4552157Y-14220804D01*
X4552157Y-14220804D02*
X4552157Y-14239852D01*
X4685491Y-14039852D02*
X4704538Y-14039852D01*
X4704538Y-14039852D02*
X4723586Y-14049376D01*
X4723586Y-14049376D02*
X4733110Y-14058899D01*
X4733110Y-14058899D02*
X4742634Y-14077947D01*
X4742634Y-14077947D02*
X4752157Y-14116042D01*
X4752157Y-14116042D02*
X4752157Y-14163661D01*
X4752157Y-14163661D02*
X4742634Y-14201756D01*
X4742634Y-14201756D02*
X4733110Y-14220804D01*
X4733110Y-14220804D02*
X4723586Y-14230328D01*
X4723586Y-14230328D02*
X4704538Y-14239852D01*
X4704538Y-14239852D02*
X4685491Y-14239852D01*
X4685491Y-14239852D02*
X4666443Y-14230328D01*
X4666443Y-14230328D02*
X4656919Y-14220804D01*
X4656919Y-14220804D02*
X4647395Y-14201756D01*
X4647395Y-14201756D02*
X4637872Y-14163661D01*
X4637872Y-14163661D02*
X4637872Y-14116042D01*
X4637872Y-14116042D02*
X4647395Y-14077947D01*
X4647395Y-14077947D02*
X4656919Y-14058899D01*
X4656919Y-14058899D02*
X4666443Y-14049376D01*
X4666443Y-14049376D02*
X4685491Y-14039852D01*
X4828348Y-14058899D02*
X4837872Y-14049376D01*
X4837872Y-14049376D02*
X4856919Y-14039852D01*
X4856919Y-14039852D02*
X4904538Y-14039852D01*
X4904538Y-14039852D02*
X4923586Y-14049376D01*
X4923586Y-14049376D02*
X4933110Y-14058899D01*
X4933110Y-14058899D02*
X4942634Y-14077947D01*
X4942634Y-14077947D02*
X4942634Y-14096995D01*
X4942634Y-14096995D02*
X4933110Y-14125566D01*
X4933110Y-14125566D02*
X4818824Y-14239852D01*
X4818824Y-14239852D02*
X4942634Y-14239852D01*
X5009300Y-14039852D02*
X5133110Y-14039852D01*
X5133110Y-14039852D02*
X5066443Y-14116042D01*
X5066443Y-14116042D02*
X5095015Y-14116042D01*
X5095015Y-14116042D02*
X5114062Y-14125566D01*
X5114062Y-14125566D02*
X5123586Y-14135090D01*
X5123586Y-14135090D02*
X5133110Y-14154137D01*
X5133110Y-14154137D02*
X5133110Y-14201756D01*
X5133110Y-14201756D02*
X5123586Y-14220804D01*
X5123586Y-14220804D02*
X5114062Y-14230328D01*
X5114062Y-14230328D02*
X5095015Y-14239852D01*
X5095015Y-14239852D02*
X5037872Y-14239852D01*
X5037872Y-14239852D02*
X5018824Y-14230328D01*
X5018824Y-14230328D02*
X5009300Y-14220804D01*
X5304538Y-14039852D02*
X5266443Y-14039852D01*
X5266443Y-14039852D02*
X5247395Y-14049376D01*
X5247395Y-14049376D02*
X5237872Y-14058899D01*
X5237872Y-14058899D02*
X5218824Y-14087471D01*
X5218824Y-14087471D02*
X5209300Y-14125566D01*
X5209300Y-14125566D02*
X5209300Y-14201756D01*
X5209300Y-14201756D02*
X5218824Y-14220804D01*
X5218824Y-14220804D02*
X5228348Y-14230328D01*
X5228348Y-14230328D02*
X5247395Y-14239852D01*
X5247395Y-14239852D02*
X5285491Y-14239852D01*
X5285491Y-14239852D02*
X5304538Y-14230328D01*
X5304538Y-14230328D02*
X5314062Y-14220804D01*
X5314062Y-14220804D02*
X5323586Y-14201756D01*
X5323586Y-14201756D02*
X5323586Y-14154137D01*
X5323586Y-14154137D02*
X5314062Y-14135090D01*
X5314062Y-14135090D02*
X5304538Y-14125566D01*
X5304538Y-14125566D02*
X5285491Y-14116042D01*
X5285491Y-14116042D02*
X5247395Y-14116042D01*
X5247395Y-14116042D02*
X5228348Y-14125566D01*
X5228348Y-14125566D02*
X5218824Y-14135090D01*
X5218824Y-14135090D02*
X5209300Y-14154137D01*
X5399776Y-14039852D02*
X5399776Y-14077947D01*
X5475967Y-14039852D02*
X5475967Y-14077947D01*
X5771205Y-14316042D02*
X5761681Y-14306518D01*
X5761681Y-14306518D02*
X5742634Y-14277947D01*
X5742634Y-14277947D02*
X5733110Y-14258899D01*
X5733110Y-14258899D02*
X5723586Y-14230328D01*
X5723586Y-14230328D02*
X5714062Y-14182709D01*
X5714062Y-14182709D02*
X5714062Y-14144614D01*
X5714062Y-14144614D02*
X5723586Y-14096995D01*
X5723586Y-14096995D02*
X5733110Y-14068423D01*
X5733110Y-14068423D02*
X5742634Y-14049376D01*
X5742634Y-14049376D02*
X5761681Y-14020804D01*
X5761681Y-14020804D02*
X5771205Y-14011280D01*
X5885491Y-14039852D02*
X5904538Y-14039852D01*
X5904538Y-14039852D02*
X5923586Y-14049376D01*
X5923586Y-14049376D02*
X5933110Y-14058899D01*
X5933110Y-14058899D02*
X5942634Y-14077947D01*
X5942634Y-14077947D02*
X5952157Y-14116042D01*
X5952157Y-14116042D02*
X5952157Y-14163661D01*
X5952157Y-14163661D02*
X5942634Y-14201756D01*
X5942634Y-14201756D02*
X5933110Y-14220804D01*
X5933110Y-14220804D02*
X5923586Y-14230328D01*
X5923586Y-14230328D02*
X5904538Y-14239852D01*
X5904538Y-14239852D02*
X5885491Y-14239852D01*
X5885491Y-14239852D02*
X5866443Y-14230328D01*
X5866443Y-14230328D02*
X5856919Y-14220804D01*
X5856919Y-14220804D02*
X5847395Y-14201756D01*
X5847395Y-14201756D02*
X5837872Y-14163661D01*
X5837872Y-14163661D02*
X5837872Y-14116042D01*
X5837872Y-14116042D02*
X5847395Y-14077947D01*
X5847395Y-14077947D02*
X5856919Y-14058899D01*
X5856919Y-14058899D02*
X5866443Y-14049376D01*
X5866443Y-14049376D02*
X5885491Y-14039852D01*
X6190253Y-14239852D02*
X6190253Y-14039852D01*
X6275967Y-14239852D02*
X6275967Y-14135090D01*
X6275967Y-14135090D02*
X6266443Y-14116042D01*
X6266443Y-14116042D02*
X6247396Y-14106518D01*
X6247396Y-14106518D02*
X6218824Y-14106518D01*
X6218824Y-14106518D02*
X6199776Y-14116042D01*
X6199776Y-14116042D02*
X6190253Y-14125566D01*
X6399776Y-14239852D02*
X6380729Y-14230328D01*
X6380729Y-14230328D02*
X6371205Y-14220804D01*
X6371205Y-14220804D02*
X6361681Y-14201756D01*
X6361681Y-14201756D02*
X6361681Y-14144614D01*
X6361681Y-14144614D02*
X6371205Y-14125566D01*
X6371205Y-14125566D02*
X6380729Y-14116042D01*
X6380729Y-14116042D02*
X6399776Y-14106518D01*
X6399776Y-14106518D02*
X6428348Y-14106518D01*
X6428348Y-14106518D02*
X6447396Y-14116042D01*
X6447396Y-14116042D02*
X6456919Y-14125566D01*
X6456919Y-14125566D02*
X6466443Y-14144614D01*
X6466443Y-14144614D02*
X6466443Y-14201756D01*
X6466443Y-14201756D02*
X6456919Y-14220804D01*
X6456919Y-14220804D02*
X6447396Y-14230328D01*
X6447396Y-14230328D02*
X6428348Y-14239852D01*
X6428348Y-14239852D02*
X6399776Y-14239852D01*
X6580729Y-14239852D02*
X6561681Y-14230328D01*
X6561681Y-14230328D02*
X6552157Y-14211280D01*
X6552157Y-14211280D02*
X6552157Y-14039852D01*
X6733110Y-14230328D02*
X6714062Y-14239852D01*
X6714062Y-14239852D02*
X6675967Y-14239852D01*
X6675967Y-14239852D02*
X6656919Y-14230328D01*
X6656919Y-14230328D02*
X6647396Y-14211280D01*
X6647396Y-14211280D02*
X6647396Y-14135090D01*
X6647396Y-14135090D02*
X6656919Y-14116042D01*
X6656919Y-14116042D02*
X6675967Y-14106518D01*
X6675967Y-14106518D02*
X6714062Y-14106518D01*
X6714062Y-14106518D02*
X6733110Y-14116042D01*
X6733110Y-14116042D02*
X6742634Y-14135090D01*
X6742634Y-14135090D02*
X6742634Y-14154137D01*
X6742634Y-14154137D02*
X6647396Y-14173185D01*
X6818824Y-14230328D02*
X6837872Y-14239852D01*
X6837872Y-14239852D02*
X6875967Y-14239852D01*
X6875967Y-14239852D02*
X6895015Y-14230328D01*
X6895015Y-14230328D02*
X6904538Y-14211280D01*
X6904538Y-14211280D02*
X6904538Y-14201756D01*
X6904538Y-14201756D02*
X6895015Y-14182709D01*
X6895015Y-14182709D02*
X6875967Y-14173185D01*
X6875967Y-14173185D02*
X6847396Y-14173185D01*
X6847396Y-14173185D02*
X6828348Y-14163661D01*
X6828348Y-14163661D02*
X6818824Y-14144614D01*
X6818824Y-14144614D02*
X6818824Y-14135090D01*
X6818824Y-14135090D02*
X6828348Y-14116042D01*
X6828348Y-14116042D02*
X6847396Y-14106518D01*
X6847396Y-14106518D02*
X6875967Y-14106518D01*
X6875967Y-14106518D02*
X6895015Y-14116042D01*
X7142634Y-14163661D02*
X7295015Y-14163661D01*
X7218824Y-14239852D02*
X7218824Y-14087471D01*
X7628348Y-14106518D02*
X7628348Y-14239852D01*
X7580729Y-14030328D02*
X7533110Y-14173185D01*
X7533110Y-14173185D02*
X7656919Y-14173185D01*
X7875967Y-14230328D02*
X7895015Y-14239852D01*
X7895015Y-14239852D02*
X7933110Y-14239852D01*
X7933110Y-14239852D02*
X7952158Y-14230328D01*
X7952158Y-14230328D02*
X7961681Y-14211280D01*
X7961681Y-14211280D02*
X7961681Y-14201756D01*
X7961681Y-14201756D02*
X7952158Y-14182709D01*
X7952158Y-14182709D02*
X7933110Y-14173185D01*
X7933110Y-14173185D02*
X7904539Y-14173185D01*
X7904539Y-14173185D02*
X7885491Y-14163661D01*
X7885491Y-14163661D02*
X7875967Y-14144614D01*
X7875967Y-14144614D02*
X7875967Y-14135090D01*
X7875967Y-14135090D02*
X7885491Y-14116042D01*
X7885491Y-14116042D02*
X7904539Y-14106518D01*
X7904539Y-14106518D02*
X7933110Y-14106518D01*
X7933110Y-14106518D02*
X7952158Y-14116042D01*
X8075967Y-14239852D02*
X8056920Y-14230328D01*
X8056920Y-14230328D02*
X8047396Y-14211280D01*
X8047396Y-14211280D02*
X8047396Y-14039852D01*
X8180729Y-14239852D02*
X8161681Y-14230328D01*
X8161681Y-14230328D02*
X8152158Y-14220804D01*
X8152158Y-14220804D02*
X8142634Y-14201756D01*
X8142634Y-14201756D02*
X8142634Y-14144614D01*
X8142634Y-14144614D02*
X8152158Y-14125566D01*
X8152158Y-14125566D02*
X8161681Y-14116042D01*
X8161681Y-14116042D02*
X8180729Y-14106518D01*
X8180729Y-14106518D02*
X8209301Y-14106518D01*
X8209301Y-14106518D02*
X8228348Y-14116042D01*
X8228348Y-14116042D02*
X8237872Y-14125566D01*
X8237872Y-14125566D02*
X8247396Y-14144614D01*
X8247396Y-14144614D02*
X8247396Y-14201756D01*
X8247396Y-14201756D02*
X8237872Y-14220804D01*
X8237872Y-14220804D02*
X8228348Y-14230328D01*
X8228348Y-14230328D02*
X8209301Y-14239852D01*
X8209301Y-14239852D02*
X8180729Y-14239852D01*
X8304539Y-14106518D02*
X8380729Y-14106518D01*
X8333110Y-14039852D02*
X8333110Y-14211280D01*
X8333110Y-14211280D02*
X8342634Y-14230328D01*
X8342634Y-14230328D02*
X8361681Y-14239852D01*
X8361681Y-14239852D02*
X8380729Y-14239852D01*
X8437872Y-14230328D02*
X8456920Y-14239852D01*
X8456920Y-14239852D02*
X8495015Y-14239852D01*
X8495015Y-14239852D02*
X8514063Y-14230328D01*
X8514063Y-14230328D02*
X8523586Y-14211280D01*
X8523586Y-14211280D02*
X8523586Y-14201756D01*
X8523586Y-14201756D02*
X8514063Y-14182709D01*
X8514063Y-14182709D02*
X8495015Y-14173185D01*
X8495015Y-14173185D02*
X8466443Y-14173185D01*
X8466443Y-14173185D02*
X8447396Y-14163661D01*
X8447396Y-14163661D02*
X8437872Y-14144614D01*
X8437872Y-14144614D02*
X8437872Y-14135090D01*
X8437872Y-14135090D02*
X8447396Y-14116042D01*
X8447396Y-14116042D02*
X8466443Y-14106518D01*
X8466443Y-14106518D02*
X8495015Y-14106518D01*
X8495015Y-14106518D02*
X8514063Y-14116042D01*
X8590253Y-14316042D02*
X8599777Y-14306518D01*
X8599777Y-14306518D02*
X8618824Y-14277947D01*
X8618824Y-14277947D02*
X8628348Y-14258899D01*
X8628348Y-14258899D02*
X8637872Y-14230328D01*
X8637872Y-14230328D02*
X8647396Y-14182709D01*
X8647396Y-14182709D02*
X8647396Y-14144614D01*
X8647396Y-14144614D02*
X8637872Y-14096995D01*
X8637872Y-14096995D02*
X8628348Y-14068423D01*
X8628348Y-14068423D02*
X8618824Y-14049376D01*
X8618824Y-14049376D02*
X8599777Y-14020804D01*
X8599777Y-14020804D02*
X8590253Y-14011280D01*
D16*
X2129300Y-14371328D02*
X2209300Y-14451328D01*
X2209300Y-14371328D02*
X2129300Y-14451328D01*
X2209300Y-14411328D02*
G75*
G03*
X2209300Y-14411328I-40000J0D01*
G01*
D11*
X2495014Y-14303852D02*
X2514062Y-14303852D01*
X2514062Y-14303852D02*
X2533110Y-14313376D01*
X2533110Y-14313376D02*
X2542633Y-14322899D01*
X2542633Y-14322899D02*
X2552157Y-14341947D01*
X2552157Y-14341947D02*
X2561681Y-14380042D01*
X2561681Y-14380042D02*
X2561681Y-14427661D01*
X2561681Y-14427661D02*
X2552157Y-14465756D01*
X2552157Y-14465756D02*
X2542633Y-14484804D01*
X2542633Y-14484804D02*
X2533110Y-14494328D01*
X2533110Y-14494328D02*
X2514062Y-14503852D01*
X2514062Y-14503852D02*
X2495014Y-14503852D01*
X2495014Y-14503852D02*
X2475967Y-14494328D01*
X2475967Y-14494328D02*
X2466443Y-14484804D01*
X2466443Y-14484804D02*
X2456919Y-14465756D01*
X2456919Y-14465756D02*
X2447395Y-14427661D01*
X2447395Y-14427661D02*
X2447395Y-14380042D01*
X2447395Y-14380042D02*
X2456919Y-14341947D01*
X2456919Y-14341947D02*
X2466443Y-14322899D01*
X2466443Y-14322899D02*
X2475967Y-14313376D01*
X2475967Y-14313376D02*
X2495014Y-14303852D01*
X2647395Y-14484804D02*
X2656919Y-14494328D01*
X2656919Y-14494328D02*
X2647395Y-14503852D01*
X2647395Y-14503852D02*
X2637871Y-14494328D01*
X2637871Y-14494328D02*
X2647395Y-14484804D01*
X2647395Y-14484804D02*
X2647395Y-14503852D01*
X2771205Y-14389566D02*
X2752157Y-14380042D01*
X2752157Y-14380042D02*
X2742633Y-14370518D01*
X2742633Y-14370518D02*
X2733110Y-14351471D01*
X2733110Y-14351471D02*
X2733110Y-14341947D01*
X2733110Y-14341947D02*
X2742633Y-14322899D01*
X2742633Y-14322899D02*
X2752157Y-14313376D01*
X2752157Y-14313376D02*
X2771205Y-14303852D01*
X2771205Y-14303852D02*
X2809300Y-14303852D01*
X2809300Y-14303852D02*
X2828348Y-14313376D01*
X2828348Y-14313376D02*
X2837871Y-14322899D01*
X2837871Y-14322899D02*
X2847395Y-14341947D01*
X2847395Y-14341947D02*
X2847395Y-14351471D01*
X2847395Y-14351471D02*
X2837871Y-14370518D01*
X2837871Y-14370518D02*
X2828348Y-14380042D01*
X2828348Y-14380042D02*
X2809300Y-14389566D01*
X2809300Y-14389566D02*
X2771205Y-14389566D01*
X2771205Y-14389566D02*
X2752157Y-14399090D01*
X2752157Y-14399090D02*
X2742633Y-14408614D01*
X2742633Y-14408614D02*
X2733110Y-14427661D01*
X2733110Y-14427661D02*
X2733110Y-14465756D01*
X2733110Y-14465756D02*
X2742633Y-14484804D01*
X2742633Y-14484804D02*
X2752157Y-14494328D01*
X2752157Y-14494328D02*
X2771205Y-14503852D01*
X2771205Y-14503852D02*
X2809300Y-14503852D01*
X2809300Y-14503852D02*
X2828348Y-14494328D01*
X2828348Y-14494328D02*
X2837871Y-14484804D01*
X2837871Y-14484804D02*
X2847395Y-14465756D01*
X2847395Y-14465756D02*
X2847395Y-14427661D01*
X2847395Y-14427661D02*
X2837871Y-14408614D01*
X2837871Y-14408614D02*
X2828348Y-14399090D01*
X2828348Y-14399090D02*
X2809300Y-14389566D01*
X2971205Y-14303852D02*
X2990252Y-14303852D01*
X2990252Y-14303852D02*
X3009300Y-14313376D01*
X3009300Y-14313376D02*
X3018824Y-14322899D01*
X3018824Y-14322899D02*
X3028348Y-14341947D01*
X3028348Y-14341947D02*
X3037871Y-14380042D01*
X3037871Y-14380042D02*
X3037871Y-14427661D01*
X3037871Y-14427661D02*
X3028348Y-14465756D01*
X3028348Y-14465756D02*
X3018824Y-14484804D01*
X3018824Y-14484804D02*
X3009300Y-14494328D01*
X3009300Y-14494328D02*
X2990252Y-14503852D01*
X2990252Y-14503852D02*
X2971205Y-14503852D01*
X2971205Y-14503852D02*
X2952157Y-14494328D01*
X2952157Y-14494328D02*
X2942633Y-14484804D01*
X2942633Y-14484804D02*
X2933109Y-14465756D01*
X2933109Y-14465756D02*
X2923586Y-14427661D01*
X2923586Y-14427661D02*
X2923586Y-14380042D01*
X2923586Y-14380042D02*
X2933109Y-14341947D01*
X2933109Y-14341947D02*
X2942633Y-14322899D01*
X2942633Y-14322899D02*
X2952157Y-14313376D01*
X2952157Y-14313376D02*
X2971205Y-14303852D01*
X3161681Y-14303852D02*
X3180729Y-14303852D01*
X3180729Y-14303852D02*
X3199776Y-14313376D01*
X3199776Y-14313376D02*
X3209300Y-14322899D01*
X3209300Y-14322899D02*
X3218824Y-14341947D01*
X3218824Y-14341947D02*
X3228348Y-14380042D01*
X3228348Y-14380042D02*
X3228348Y-14427661D01*
X3228348Y-14427661D02*
X3218824Y-14465756D01*
X3218824Y-14465756D02*
X3209300Y-14484804D01*
X3209300Y-14484804D02*
X3199776Y-14494328D01*
X3199776Y-14494328D02*
X3180729Y-14503852D01*
X3180729Y-14503852D02*
X3161681Y-14503852D01*
X3161681Y-14503852D02*
X3142633Y-14494328D01*
X3142633Y-14494328D02*
X3133109Y-14484804D01*
X3133109Y-14484804D02*
X3123586Y-14465756D01*
X3123586Y-14465756D02*
X3114062Y-14427661D01*
X3114062Y-14427661D02*
X3114062Y-14380042D01*
X3114062Y-14380042D02*
X3123586Y-14341947D01*
X3123586Y-14341947D02*
X3133109Y-14322899D01*
X3133109Y-14322899D02*
X3142633Y-14313376D01*
X3142633Y-14313376D02*
X3161681Y-14303852D01*
X3314062Y-14503852D02*
X3314062Y-14370518D01*
X3314062Y-14389566D02*
X3323586Y-14380042D01*
X3323586Y-14380042D02*
X3342633Y-14370518D01*
X3342633Y-14370518D02*
X3371205Y-14370518D01*
X3371205Y-14370518D02*
X3390252Y-14380042D01*
X3390252Y-14380042D02*
X3399776Y-14399090D01*
X3399776Y-14399090D02*
X3399776Y-14503852D01*
X3399776Y-14399090D02*
X3409300Y-14380042D01*
X3409300Y-14380042D02*
X3428348Y-14370518D01*
X3428348Y-14370518D02*
X3456919Y-14370518D01*
X3456919Y-14370518D02*
X3475967Y-14380042D01*
X3475967Y-14380042D02*
X3485490Y-14399090D01*
X3485490Y-14399090D02*
X3485490Y-14503852D01*
X3580729Y-14503852D02*
X3580729Y-14370518D01*
X3580729Y-14389566D02*
X3590252Y-14380042D01*
X3590252Y-14380042D02*
X3609300Y-14370518D01*
X3609300Y-14370518D02*
X3637871Y-14370518D01*
X3637871Y-14370518D02*
X3656919Y-14380042D01*
X3656919Y-14380042D02*
X3666443Y-14399090D01*
X3666443Y-14399090D02*
X3666443Y-14503852D01*
X3666443Y-14399090D02*
X3675967Y-14380042D01*
X3675967Y-14380042D02*
X3695014Y-14370518D01*
X3695014Y-14370518D02*
X3723586Y-14370518D01*
X3723586Y-14370518D02*
X3742633Y-14380042D01*
X3742633Y-14380042D02*
X3752157Y-14399090D01*
X3752157Y-14399090D02*
X3752157Y-14503852D01*
X4142633Y-14294328D02*
X3971205Y-14551471D01*
X4399776Y-14303852D02*
X4418824Y-14303852D01*
X4418824Y-14303852D02*
X4437872Y-14313376D01*
X4437872Y-14313376D02*
X4447395Y-14322899D01*
X4447395Y-14322899D02*
X4456919Y-14341947D01*
X4456919Y-14341947D02*
X4466443Y-14380042D01*
X4466443Y-14380042D02*
X4466443Y-14427661D01*
X4466443Y-14427661D02*
X4456919Y-14465756D01*
X4456919Y-14465756D02*
X4447395Y-14484804D01*
X4447395Y-14484804D02*
X4437872Y-14494328D01*
X4437872Y-14494328D02*
X4418824Y-14503852D01*
X4418824Y-14503852D02*
X4399776Y-14503852D01*
X4399776Y-14503852D02*
X4380729Y-14494328D01*
X4380729Y-14494328D02*
X4371205Y-14484804D01*
X4371205Y-14484804D02*
X4361681Y-14465756D01*
X4361681Y-14465756D02*
X4352157Y-14427661D01*
X4352157Y-14427661D02*
X4352157Y-14380042D01*
X4352157Y-14380042D02*
X4361681Y-14341947D01*
X4361681Y-14341947D02*
X4371205Y-14322899D01*
X4371205Y-14322899D02*
X4380729Y-14313376D01*
X4380729Y-14313376D02*
X4399776Y-14303852D01*
X4552157Y-14484804D02*
X4561681Y-14494328D01*
X4561681Y-14494328D02*
X4552157Y-14503852D01*
X4552157Y-14503852D02*
X4542634Y-14494328D01*
X4542634Y-14494328D02*
X4552157Y-14484804D01*
X4552157Y-14484804D02*
X4552157Y-14503852D01*
X4685491Y-14303852D02*
X4704538Y-14303852D01*
X4704538Y-14303852D02*
X4723586Y-14313376D01*
X4723586Y-14313376D02*
X4733110Y-14322899D01*
X4733110Y-14322899D02*
X4742634Y-14341947D01*
X4742634Y-14341947D02*
X4752157Y-14380042D01*
X4752157Y-14380042D02*
X4752157Y-14427661D01*
X4752157Y-14427661D02*
X4742634Y-14465756D01*
X4742634Y-14465756D02*
X4733110Y-14484804D01*
X4733110Y-14484804D02*
X4723586Y-14494328D01*
X4723586Y-14494328D02*
X4704538Y-14503852D01*
X4704538Y-14503852D02*
X4685491Y-14503852D01*
X4685491Y-14503852D02*
X4666443Y-14494328D01*
X4666443Y-14494328D02*
X4656919Y-14484804D01*
X4656919Y-14484804D02*
X4647395Y-14465756D01*
X4647395Y-14465756D02*
X4637872Y-14427661D01*
X4637872Y-14427661D02*
X4637872Y-14380042D01*
X4637872Y-14380042D02*
X4647395Y-14341947D01*
X4647395Y-14341947D02*
X4656919Y-14322899D01*
X4656919Y-14322899D02*
X4666443Y-14313376D01*
X4666443Y-14313376D02*
X4685491Y-14303852D01*
X4818824Y-14303852D02*
X4942634Y-14303852D01*
X4942634Y-14303852D02*
X4875967Y-14380042D01*
X4875967Y-14380042D02*
X4904538Y-14380042D01*
X4904538Y-14380042D02*
X4923586Y-14389566D01*
X4923586Y-14389566D02*
X4933110Y-14399090D01*
X4933110Y-14399090D02*
X4942634Y-14418137D01*
X4942634Y-14418137D02*
X4942634Y-14465756D01*
X4942634Y-14465756D02*
X4933110Y-14484804D01*
X4933110Y-14484804D02*
X4923586Y-14494328D01*
X4923586Y-14494328D02*
X4904538Y-14503852D01*
X4904538Y-14503852D02*
X4847395Y-14503852D01*
X4847395Y-14503852D02*
X4828348Y-14494328D01*
X4828348Y-14494328D02*
X4818824Y-14484804D01*
X5133110Y-14503852D02*
X5018824Y-14503852D01*
X5075967Y-14503852D02*
X5075967Y-14303852D01*
X5075967Y-14303852D02*
X5056919Y-14332423D01*
X5056919Y-14332423D02*
X5037872Y-14351471D01*
X5037872Y-14351471D02*
X5018824Y-14360995D01*
X5314062Y-14303852D02*
X5218824Y-14303852D01*
X5218824Y-14303852D02*
X5209300Y-14399090D01*
X5209300Y-14399090D02*
X5218824Y-14389566D01*
X5218824Y-14389566D02*
X5237872Y-14380042D01*
X5237872Y-14380042D02*
X5285491Y-14380042D01*
X5285491Y-14380042D02*
X5304538Y-14389566D01*
X5304538Y-14389566D02*
X5314062Y-14399090D01*
X5314062Y-14399090D02*
X5323586Y-14418137D01*
X5323586Y-14418137D02*
X5323586Y-14465756D01*
X5323586Y-14465756D02*
X5314062Y-14484804D01*
X5314062Y-14484804D02*
X5304538Y-14494328D01*
X5304538Y-14494328D02*
X5285491Y-14503852D01*
X5285491Y-14503852D02*
X5237872Y-14503852D01*
X5237872Y-14503852D02*
X5218824Y-14494328D01*
X5218824Y-14494328D02*
X5209300Y-14484804D01*
X5399776Y-14303852D02*
X5399776Y-14341947D01*
X5475967Y-14303852D02*
X5475967Y-14341947D01*
X5771205Y-14580042D02*
X5761681Y-14570518D01*
X5761681Y-14570518D02*
X5742634Y-14541947D01*
X5742634Y-14541947D02*
X5733110Y-14522899D01*
X5733110Y-14522899D02*
X5723586Y-14494328D01*
X5723586Y-14494328D02*
X5714062Y-14446709D01*
X5714062Y-14446709D02*
X5714062Y-14408614D01*
X5714062Y-14408614D02*
X5723586Y-14360995D01*
X5723586Y-14360995D02*
X5733110Y-14332423D01*
X5733110Y-14332423D02*
X5742634Y-14313376D01*
X5742634Y-14313376D02*
X5761681Y-14284804D01*
X5761681Y-14284804D02*
X5771205Y-14275280D01*
X5885491Y-14303852D02*
X5904538Y-14303852D01*
X5904538Y-14303852D02*
X5923586Y-14313376D01*
X5923586Y-14313376D02*
X5933110Y-14322899D01*
X5933110Y-14322899D02*
X5942634Y-14341947D01*
X5942634Y-14341947D02*
X5952157Y-14380042D01*
X5952157Y-14380042D02*
X5952157Y-14427661D01*
X5952157Y-14427661D02*
X5942634Y-14465756D01*
X5942634Y-14465756D02*
X5933110Y-14484804D01*
X5933110Y-14484804D02*
X5923586Y-14494328D01*
X5923586Y-14494328D02*
X5904538Y-14503852D01*
X5904538Y-14503852D02*
X5885491Y-14503852D01*
X5885491Y-14503852D02*
X5866443Y-14494328D01*
X5866443Y-14494328D02*
X5856919Y-14484804D01*
X5856919Y-14484804D02*
X5847395Y-14465756D01*
X5847395Y-14465756D02*
X5837872Y-14427661D01*
X5837872Y-14427661D02*
X5837872Y-14380042D01*
X5837872Y-14380042D02*
X5847395Y-14341947D01*
X5847395Y-14341947D02*
X5856919Y-14322899D01*
X5856919Y-14322899D02*
X5866443Y-14313376D01*
X5866443Y-14313376D02*
X5885491Y-14303852D01*
X6190253Y-14503852D02*
X6190253Y-14303852D01*
X6275967Y-14503852D02*
X6275967Y-14399090D01*
X6275967Y-14399090D02*
X6266443Y-14380042D01*
X6266443Y-14380042D02*
X6247396Y-14370518D01*
X6247396Y-14370518D02*
X6218824Y-14370518D01*
X6218824Y-14370518D02*
X6199776Y-14380042D01*
X6199776Y-14380042D02*
X6190253Y-14389566D01*
X6399776Y-14503852D02*
X6380729Y-14494328D01*
X6380729Y-14494328D02*
X6371205Y-14484804D01*
X6371205Y-14484804D02*
X6361681Y-14465756D01*
X6361681Y-14465756D02*
X6361681Y-14408614D01*
X6361681Y-14408614D02*
X6371205Y-14389566D01*
X6371205Y-14389566D02*
X6380729Y-14380042D01*
X6380729Y-14380042D02*
X6399776Y-14370518D01*
X6399776Y-14370518D02*
X6428348Y-14370518D01*
X6428348Y-14370518D02*
X6447396Y-14380042D01*
X6447396Y-14380042D02*
X6456919Y-14389566D01*
X6456919Y-14389566D02*
X6466443Y-14408614D01*
X6466443Y-14408614D02*
X6466443Y-14465756D01*
X6466443Y-14465756D02*
X6456919Y-14484804D01*
X6456919Y-14484804D02*
X6447396Y-14494328D01*
X6447396Y-14494328D02*
X6428348Y-14503852D01*
X6428348Y-14503852D02*
X6399776Y-14503852D01*
X6580729Y-14503852D02*
X6561681Y-14494328D01*
X6561681Y-14494328D02*
X6552157Y-14475280D01*
X6552157Y-14475280D02*
X6552157Y-14303852D01*
X6733110Y-14494328D02*
X6714062Y-14503852D01*
X6714062Y-14503852D02*
X6675967Y-14503852D01*
X6675967Y-14503852D02*
X6656919Y-14494328D01*
X6656919Y-14494328D02*
X6647396Y-14475280D01*
X6647396Y-14475280D02*
X6647396Y-14399090D01*
X6647396Y-14399090D02*
X6656919Y-14380042D01*
X6656919Y-14380042D02*
X6675967Y-14370518D01*
X6675967Y-14370518D02*
X6714062Y-14370518D01*
X6714062Y-14370518D02*
X6733110Y-14380042D01*
X6733110Y-14380042D02*
X6742634Y-14399090D01*
X6742634Y-14399090D02*
X6742634Y-14418137D01*
X6742634Y-14418137D02*
X6647396Y-14437185D01*
X6818824Y-14494328D02*
X6837872Y-14503852D01*
X6837872Y-14503852D02*
X6875967Y-14503852D01*
X6875967Y-14503852D02*
X6895015Y-14494328D01*
X6895015Y-14494328D02*
X6904538Y-14475280D01*
X6904538Y-14475280D02*
X6904538Y-14465756D01*
X6904538Y-14465756D02*
X6895015Y-14446709D01*
X6895015Y-14446709D02*
X6875967Y-14437185D01*
X6875967Y-14437185D02*
X6847396Y-14437185D01*
X6847396Y-14437185D02*
X6828348Y-14427661D01*
X6828348Y-14427661D02*
X6818824Y-14408614D01*
X6818824Y-14408614D02*
X6818824Y-14399090D01*
X6818824Y-14399090D02*
X6828348Y-14380042D01*
X6828348Y-14380042D02*
X6847396Y-14370518D01*
X6847396Y-14370518D02*
X6875967Y-14370518D01*
X6875967Y-14370518D02*
X6895015Y-14380042D01*
X7142634Y-14427661D02*
X7295015Y-14427661D01*
X7218824Y-14503852D02*
X7218824Y-14351471D01*
X7628348Y-14370518D02*
X7628348Y-14503852D01*
X7580729Y-14294328D02*
X7533110Y-14437185D01*
X7533110Y-14437185D02*
X7656919Y-14437185D01*
X7875967Y-14494328D02*
X7895015Y-14503852D01*
X7895015Y-14503852D02*
X7933110Y-14503852D01*
X7933110Y-14503852D02*
X7952158Y-14494328D01*
X7952158Y-14494328D02*
X7961681Y-14475280D01*
X7961681Y-14475280D02*
X7961681Y-14465756D01*
X7961681Y-14465756D02*
X7952158Y-14446709D01*
X7952158Y-14446709D02*
X7933110Y-14437185D01*
X7933110Y-14437185D02*
X7904539Y-14437185D01*
X7904539Y-14437185D02*
X7885491Y-14427661D01*
X7885491Y-14427661D02*
X7875967Y-14408614D01*
X7875967Y-14408614D02*
X7875967Y-14399090D01*
X7875967Y-14399090D02*
X7885491Y-14380042D01*
X7885491Y-14380042D02*
X7904539Y-14370518D01*
X7904539Y-14370518D02*
X7933110Y-14370518D01*
X7933110Y-14370518D02*
X7952158Y-14380042D01*
X8075967Y-14503852D02*
X8056920Y-14494328D01*
X8056920Y-14494328D02*
X8047396Y-14475280D01*
X8047396Y-14475280D02*
X8047396Y-14303852D01*
X8180729Y-14503852D02*
X8161681Y-14494328D01*
X8161681Y-14494328D02*
X8152158Y-14484804D01*
X8152158Y-14484804D02*
X8142634Y-14465756D01*
X8142634Y-14465756D02*
X8142634Y-14408614D01*
X8142634Y-14408614D02*
X8152158Y-14389566D01*
X8152158Y-14389566D02*
X8161681Y-14380042D01*
X8161681Y-14380042D02*
X8180729Y-14370518D01*
X8180729Y-14370518D02*
X8209301Y-14370518D01*
X8209301Y-14370518D02*
X8228348Y-14380042D01*
X8228348Y-14380042D02*
X8237872Y-14389566D01*
X8237872Y-14389566D02*
X8247396Y-14408614D01*
X8247396Y-14408614D02*
X8247396Y-14465756D01*
X8247396Y-14465756D02*
X8237872Y-14484804D01*
X8237872Y-14484804D02*
X8228348Y-14494328D01*
X8228348Y-14494328D02*
X8209301Y-14503852D01*
X8209301Y-14503852D02*
X8180729Y-14503852D01*
X8304539Y-14370518D02*
X8380729Y-14370518D01*
X8333110Y-14303852D02*
X8333110Y-14475280D01*
X8333110Y-14475280D02*
X8342634Y-14494328D01*
X8342634Y-14494328D02*
X8361681Y-14503852D01*
X8361681Y-14503852D02*
X8380729Y-14503852D01*
X8437872Y-14494328D02*
X8456920Y-14503852D01*
X8456920Y-14503852D02*
X8495015Y-14503852D01*
X8495015Y-14503852D02*
X8514063Y-14494328D01*
X8514063Y-14494328D02*
X8523586Y-14475280D01*
X8523586Y-14475280D02*
X8523586Y-14465756D01*
X8523586Y-14465756D02*
X8514063Y-14446709D01*
X8514063Y-14446709D02*
X8495015Y-14437185D01*
X8495015Y-14437185D02*
X8466443Y-14437185D01*
X8466443Y-14437185D02*
X8447396Y-14427661D01*
X8447396Y-14427661D02*
X8437872Y-14408614D01*
X8437872Y-14408614D02*
X8437872Y-14399090D01*
X8437872Y-14399090D02*
X8447396Y-14380042D01*
X8447396Y-14380042D02*
X8466443Y-14370518D01*
X8466443Y-14370518D02*
X8495015Y-14370518D01*
X8495015Y-14370518D02*
X8514063Y-14380042D01*
X8590253Y-14580042D02*
X8599777Y-14570518D01*
X8599777Y-14570518D02*
X8618824Y-14541947D01*
X8618824Y-14541947D02*
X8628348Y-14522899D01*
X8628348Y-14522899D02*
X8637872Y-14494328D01*
X8637872Y-14494328D02*
X8647396Y-14446709D01*
X8647396Y-14446709D02*
X8647396Y-14408614D01*
X8647396Y-14408614D02*
X8637872Y-14360995D01*
X8637872Y-14360995D02*
X8628348Y-14332423D01*
X8628348Y-14332423D02*
X8618824Y-14313376D01*
X8618824Y-14313376D02*
X8599777Y-14284804D01*
X8599777Y-14284804D02*
X8590253Y-14275280D01*
D17*
X2114300Y-14627828D02*
X2209300Y-14722828D01*
X2209300Y-14627828D02*
X2114300Y-14722828D01*
X2161800Y-14627828D02*
X2161800Y-14722828D01*
X2114300Y-14675328D02*
X2209300Y-14675328D01*
D11*
X2495014Y-14567852D02*
X2514062Y-14567852D01*
X2514062Y-14567852D02*
X2533110Y-14577376D01*
X2533110Y-14577376D02*
X2542633Y-14586899D01*
X2542633Y-14586899D02*
X2552157Y-14605947D01*
X2552157Y-14605947D02*
X2561681Y-14644042D01*
X2561681Y-14644042D02*
X2561681Y-14691661D01*
X2561681Y-14691661D02*
X2552157Y-14729756D01*
X2552157Y-14729756D02*
X2542633Y-14748804D01*
X2542633Y-14748804D02*
X2533110Y-14758328D01*
X2533110Y-14758328D02*
X2514062Y-14767852D01*
X2514062Y-14767852D02*
X2495014Y-14767852D01*
X2495014Y-14767852D02*
X2475967Y-14758328D01*
X2475967Y-14758328D02*
X2466443Y-14748804D01*
X2466443Y-14748804D02*
X2456919Y-14729756D01*
X2456919Y-14729756D02*
X2447395Y-14691661D01*
X2447395Y-14691661D02*
X2447395Y-14644042D01*
X2447395Y-14644042D02*
X2456919Y-14605947D01*
X2456919Y-14605947D02*
X2466443Y-14586899D01*
X2466443Y-14586899D02*
X2475967Y-14577376D01*
X2475967Y-14577376D02*
X2495014Y-14567852D01*
X2647395Y-14748804D02*
X2656919Y-14758328D01*
X2656919Y-14758328D02*
X2647395Y-14767852D01*
X2647395Y-14767852D02*
X2637871Y-14758328D01*
X2637871Y-14758328D02*
X2647395Y-14748804D01*
X2647395Y-14748804D02*
X2647395Y-14767852D01*
X2752157Y-14767852D02*
X2790252Y-14767852D01*
X2790252Y-14767852D02*
X2809300Y-14758328D01*
X2809300Y-14758328D02*
X2818824Y-14748804D01*
X2818824Y-14748804D02*
X2837871Y-14720233D01*
X2837871Y-14720233D02*
X2847395Y-14682137D01*
X2847395Y-14682137D02*
X2847395Y-14605947D01*
X2847395Y-14605947D02*
X2837871Y-14586899D01*
X2837871Y-14586899D02*
X2828348Y-14577376D01*
X2828348Y-14577376D02*
X2809300Y-14567852D01*
X2809300Y-14567852D02*
X2771205Y-14567852D01*
X2771205Y-14567852D02*
X2752157Y-14577376D01*
X2752157Y-14577376D02*
X2742633Y-14586899D01*
X2742633Y-14586899D02*
X2733110Y-14605947D01*
X2733110Y-14605947D02*
X2733110Y-14653566D01*
X2733110Y-14653566D02*
X2742633Y-14672614D01*
X2742633Y-14672614D02*
X2752157Y-14682137D01*
X2752157Y-14682137D02*
X2771205Y-14691661D01*
X2771205Y-14691661D02*
X2809300Y-14691661D01*
X2809300Y-14691661D02*
X2828348Y-14682137D01*
X2828348Y-14682137D02*
X2837871Y-14672614D01*
X2837871Y-14672614D02*
X2847395Y-14653566D01*
X3028348Y-14567852D02*
X2933109Y-14567852D01*
X2933109Y-14567852D02*
X2923586Y-14663090D01*
X2923586Y-14663090D02*
X2933109Y-14653566D01*
X2933109Y-14653566D02*
X2952157Y-14644042D01*
X2952157Y-14644042D02*
X2999776Y-14644042D01*
X2999776Y-14644042D02*
X3018824Y-14653566D01*
X3018824Y-14653566D02*
X3028348Y-14663090D01*
X3028348Y-14663090D02*
X3037871Y-14682137D01*
X3037871Y-14682137D02*
X3037871Y-14729756D01*
X3037871Y-14729756D02*
X3028348Y-14748804D01*
X3028348Y-14748804D02*
X3018824Y-14758328D01*
X3018824Y-14758328D02*
X2999776Y-14767852D01*
X2999776Y-14767852D02*
X2952157Y-14767852D01*
X2952157Y-14767852D02*
X2933109Y-14758328D01*
X2933109Y-14758328D02*
X2923586Y-14748804D01*
X3161681Y-14567852D02*
X3180729Y-14567852D01*
X3180729Y-14567852D02*
X3199776Y-14577376D01*
X3199776Y-14577376D02*
X3209300Y-14586899D01*
X3209300Y-14586899D02*
X3218824Y-14605947D01*
X3218824Y-14605947D02*
X3228348Y-14644042D01*
X3228348Y-14644042D02*
X3228348Y-14691661D01*
X3228348Y-14691661D02*
X3218824Y-14729756D01*
X3218824Y-14729756D02*
X3209300Y-14748804D01*
X3209300Y-14748804D02*
X3199776Y-14758328D01*
X3199776Y-14758328D02*
X3180729Y-14767852D01*
X3180729Y-14767852D02*
X3161681Y-14767852D01*
X3161681Y-14767852D02*
X3142633Y-14758328D01*
X3142633Y-14758328D02*
X3133109Y-14748804D01*
X3133109Y-14748804D02*
X3123586Y-14729756D01*
X3123586Y-14729756D02*
X3114062Y-14691661D01*
X3114062Y-14691661D02*
X3114062Y-14644042D01*
X3114062Y-14644042D02*
X3123586Y-14605947D01*
X3123586Y-14605947D02*
X3133109Y-14586899D01*
X3133109Y-14586899D02*
X3142633Y-14577376D01*
X3142633Y-14577376D02*
X3161681Y-14567852D01*
X3314062Y-14767852D02*
X3314062Y-14634518D01*
X3314062Y-14653566D02*
X3323586Y-14644042D01*
X3323586Y-14644042D02*
X3342633Y-14634518D01*
X3342633Y-14634518D02*
X3371205Y-14634518D01*
X3371205Y-14634518D02*
X3390252Y-14644042D01*
X3390252Y-14644042D02*
X3399776Y-14663090D01*
X3399776Y-14663090D02*
X3399776Y-14767852D01*
X3399776Y-14663090D02*
X3409300Y-14644042D01*
X3409300Y-14644042D02*
X3428348Y-14634518D01*
X3428348Y-14634518D02*
X3456919Y-14634518D01*
X3456919Y-14634518D02*
X3475967Y-14644042D01*
X3475967Y-14644042D02*
X3485490Y-14663090D01*
X3485490Y-14663090D02*
X3485490Y-14767852D01*
X3580729Y-14767852D02*
X3580729Y-14634518D01*
X3580729Y-14653566D02*
X3590252Y-14644042D01*
X3590252Y-14644042D02*
X3609300Y-14634518D01*
X3609300Y-14634518D02*
X3637871Y-14634518D01*
X3637871Y-14634518D02*
X3656919Y-14644042D01*
X3656919Y-14644042D02*
X3666443Y-14663090D01*
X3666443Y-14663090D02*
X3666443Y-14767852D01*
X3666443Y-14663090D02*
X3675967Y-14644042D01*
X3675967Y-14644042D02*
X3695014Y-14634518D01*
X3695014Y-14634518D02*
X3723586Y-14634518D01*
X3723586Y-14634518D02*
X3742633Y-14644042D01*
X3742633Y-14644042D02*
X3752157Y-14663090D01*
X3752157Y-14663090D02*
X3752157Y-14767852D01*
X4142633Y-14558328D02*
X3971205Y-14815471D01*
X4399776Y-14567852D02*
X4418824Y-14567852D01*
X4418824Y-14567852D02*
X4437872Y-14577376D01*
X4437872Y-14577376D02*
X4447395Y-14586899D01*
X4447395Y-14586899D02*
X4456919Y-14605947D01*
X4456919Y-14605947D02*
X4466443Y-14644042D01*
X4466443Y-14644042D02*
X4466443Y-14691661D01*
X4466443Y-14691661D02*
X4456919Y-14729756D01*
X4456919Y-14729756D02*
X4447395Y-14748804D01*
X4447395Y-14748804D02*
X4437872Y-14758328D01*
X4437872Y-14758328D02*
X4418824Y-14767852D01*
X4418824Y-14767852D02*
X4399776Y-14767852D01*
X4399776Y-14767852D02*
X4380729Y-14758328D01*
X4380729Y-14758328D02*
X4371205Y-14748804D01*
X4371205Y-14748804D02*
X4361681Y-14729756D01*
X4361681Y-14729756D02*
X4352157Y-14691661D01*
X4352157Y-14691661D02*
X4352157Y-14644042D01*
X4352157Y-14644042D02*
X4361681Y-14605947D01*
X4361681Y-14605947D02*
X4371205Y-14586899D01*
X4371205Y-14586899D02*
X4380729Y-14577376D01*
X4380729Y-14577376D02*
X4399776Y-14567852D01*
X4552157Y-14748804D02*
X4561681Y-14758328D01*
X4561681Y-14758328D02*
X4552157Y-14767852D01*
X4552157Y-14767852D02*
X4542634Y-14758328D01*
X4542634Y-14758328D02*
X4552157Y-14748804D01*
X4552157Y-14748804D02*
X4552157Y-14767852D01*
X4685491Y-14567852D02*
X4704538Y-14567852D01*
X4704538Y-14567852D02*
X4723586Y-14577376D01*
X4723586Y-14577376D02*
X4733110Y-14586899D01*
X4733110Y-14586899D02*
X4742634Y-14605947D01*
X4742634Y-14605947D02*
X4752157Y-14644042D01*
X4752157Y-14644042D02*
X4752157Y-14691661D01*
X4752157Y-14691661D02*
X4742634Y-14729756D01*
X4742634Y-14729756D02*
X4733110Y-14748804D01*
X4733110Y-14748804D02*
X4723586Y-14758328D01*
X4723586Y-14758328D02*
X4704538Y-14767852D01*
X4704538Y-14767852D02*
X4685491Y-14767852D01*
X4685491Y-14767852D02*
X4666443Y-14758328D01*
X4666443Y-14758328D02*
X4656919Y-14748804D01*
X4656919Y-14748804D02*
X4647395Y-14729756D01*
X4647395Y-14729756D02*
X4637872Y-14691661D01*
X4637872Y-14691661D02*
X4637872Y-14644042D01*
X4637872Y-14644042D02*
X4647395Y-14605947D01*
X4647395Y-14605947D02*
X4656919Y-14586899D01*
X4656919Y-14586899D02*
X4666443Y-14577376D01*
X4666443Y-14577376D02*
X4685491Y-14567852D01*
X4818824Y-14567852D02*
X4942634Y-14567852D01*
X4942634Y-14567852D02*
X4875967Y-14644042D01*
X4875967Y-14644042D02*
X4904538Y-14644042D01*
X4904538Y-14644042D02*
X4923586Y-14653566D01*
X4923586Y-14653566D02*
X4933110Y-14663090D01*
X4933110Y-14663090D02*
X4942634Y-14682137D01*
X4942634Y-14682137D02*
X4942634Y-14729756D01*
X4942634Y-14729756D02*
X4933110Y-14748804D01*
X4933110Y-14748804D02*
X4923586Y-14758328D01*
X4923586Y-14758328D02*
X4904538Y-14767852D01*
X4904538Y-14767852D02*
X4847395Y-14767852D01*
X4847395Y-14767852D02*
X4828348Y-14758328D01*
X4828348Y-14758328D02*
X4818824Y-14748804D01*
X5009300Y-14567852D02*
X5142634Y-14567852D01*
X5142634Y-14567852D02*
X5056919Y-14767852D01*
X5304538Y-14634518D02*
X5304538Y-14767852D01*
X5256919Y-14558328D02*
X5209300Y-14701185D01*
X5209300Y-14701185D02*
X5333110Y-14701185D01*
X5399776Y-14567852D02*
X5399776Y-14605947D01*
X5475967Y-14567852D02*
X5475967Y-14605947D01*
X5771205Y-14844042D02*
X5761681Y-14834518D01*
X5761681Y-14834518D02*
X5742634Y-14805947D01*
X5742634Y-14805947D02*
X5733110Y-14786899D01*
X5733110Y-14786899D02*
X5723586Y-14758328D01*
X5723586Y-14758328D02*
X5714062Y-14710709D01*
X5714062Y-14710709D02*
X5714062Y-14672614D01*
X5714062Y-14672614D02*
X5723586Y-14624995D01*
X5723586Y-14624995D02*
X5733110Y-14596423D01*
X5733110Y-14596423D02*
X5742634Y-14577376D01*
X5742634Y-14577376D02*
X5761681Y-14548804D01*
X5761681Y-14548804D02*
X5771205Y-14539280D01*
X5933110Y-14634518D02*
X5933110Y-14767852D01*
X5885491Y-14558328D02*
X5837872Y-14701185D01*
X5837872Y-14701185D02*
X5961681Y-14701185D01*
X6190253Y-14767852D02*
X6190253Y-14567852D01*
X6275967Y-14767852D02*
X6275967Y-14663090D01*
X6275967Y-14663090D02*
X6266443Y-14644042D01*
X6266443Y-14644042D02*
X6247396Y-14634518D01*
X6247396Y-14634518D02*
X6218824Y-14634518D01*
X6218824Y-14634518D02*
X6199776Y-14644042D01*
X6199776Y-14644042D02*
X6190253Y-14653566D01*
X6399776Y-14767852D02*
X6380729Y-14758328D01*
X6380729Y-14758328D02*
X6371205Y-14748804D01*
X6371205Y-14748804D02*
X6361681Y-14729756D01*
X6361681Y-14729756D02*
X6361681Y-14672614D01*
X6361681Y-14672614D02*
X6371205Y-14653566D01*
X6371205Y-14653566D02*
X6380729Y-14644042D01*
X6380729Y-14644042D02*
X6399776Y-14634518D01*
X6399776Y-14634518D02*
X6428348Y-14634518D01*
X6428348Y-14634518D02*
X6447396Y-14644042D01*
X6447396Y-14644042D02*
X6456919Y-14653566D01*
X6456919Y-14653566D02*
X6466443Y-14672614D01*
X6466443Y-14672614D02*
X6466443Y-14729756D01*
X6466443Y-14729756D02*
X6456919Y-14748804D01*
X6456919Y-14748804D02*
X6447396Y-14758328D01*
X6447396Y-14758328D02*
X6428348Y-14767852D01*
X6428348Y-14767852D02*
X6399776Y-14767852D01*
X6580729Y-14767852D02*
X6561681Y-14758328D01*
X6561681Y-14758328D02*
X6552157Y-14739280D01*
X6552157Y-14739280D02*
X6552157Y-14567852D01*
X6733110Y-14758328D02*
X6714062Y-14767852D01*
X6714062Y-14767852D02*
X6675967Y-14767852D01*
X6675967Y-14767852D02*
X6656919Y-14758328D01*
X6656919Y-14758328D02*
X6647396Y-14739280D01*
X6647396Y-14739280D02*
X6647396Y-14663090D01*
X6647396Y-14663090D02*
X6656919Y-14644042D01*
X6656919Y-14644042D02*
X6675967Y-14634518D01*
X6675967Y-14634518D02*
X6714062Y-14634518D01*
X6714062Y-14634518D02*
X6733110Y-14644042D01*
X6733110Y-14644042D02*
X6742634Y-14663090D01*
X6742634Y-14663090D02*
X6742634Y-14682137D01*
X6742634Y-14682137D02*
X6647396Y-14701185D01*
X6818824Y-14758328D02*
X6837872Y-14767852D01*
X6837872Y-14767852D02*
X6875967Y-14767852D01*
X6875967Y-14767852D02*
X6895015Y-14758328D01*
X6895015Y-14758328D02*
X6904538Y-14739280D01*
X6904538Y-14739280D02*
X6904538Y-14729756D01*
X6904538Y-14729756D02*
X6895015Y-14710709D01*
X6895015Y-14710709D02*
X6875967Y-14701185D01*
X6875967Y-14701185D02*
X6847396Y-14701185D01*
X6847396Y-14701185D02*
X6828348Y-14691661D01*
X6828348Y-14691661D02*
X6818824Y-14672614D01*
X6818824Y-14672614D02*
X6818824Y-14663090D01*
X6818824Y-14663090D02*
X6828348Y-14644042D01*
X6828348Y-14644042D02*
X6847396Y-14634518D01*
X6847396Y-14634518D02*
X6875967Y-14634518D01*
X6875967Y-14634518D02*
X6895015Y-14644042D01*
X6971205Y-14844042D02*
X6980729Y-14834518D01*
X6980729Y-14834518D02*
X6999777Y-14805947D01*
X6999777Y-14805947D02*
X7009300Y-14786899D01*
X7009300Y-14786899D02*
X7018824Y-14758328D01*
X7018824Y-14758328D02*
X7028348Y-14710709D01*
X7028348Y-14710709D02*
X7028348Y-14672614D01*
X7028348Y-14672614D02*
X7018824Y-14624995D01*
X7018824Y-14624995D02*
X7009300Y-14596423D01*
X7009300Y-14596423D02*
X6999777Y-14577376D01*
X6999777Y-14577376D02*
X6980729Y-14548804D01*
X6980729Y-14548804D02*
X6971205Y-14539280D01*
D18*
X2110300Y-14889828D02*
X2209300Y-14988828D01*
X2209300Y-14889828D02*
X2110300Y-14988828D01*
X2194802Y-14974330D02*
X2194802Y-14904326D01*
X2124798Y-14904326D01*
X2124798Y-14974330D01*
X2194802Y-14974330D01*
D11*
X2495014Y-14831852D02*
X2514062Y-14831852D01*
X2514062Y-14831852D02*
X2533110Y-14841376D01*
X2533110Y-14841376D02*
X2542633Y-14850899D01*
X2542633Y-14850899D02*
X2552157Y-14869947D01*
X2552157Y-14869947D02*
X2561681Y-14908042D01*
X2561681Y-14908042D02*
X2561681Y-14955661D01*
X2561681Y-14955661D02*
X2552157Y-14993756D01*
X2552157Y-14993756D02*
X2542633Y-15012804D01*
X2542633Y-15012804D02*
X2533110Y-15022328D01*
X2533110Y-15022328D02*
X2514062Y-15031852D01*
X2514062Y-15031852D02*
X2495014Y-15031852D01*
X2495014Y-15031852D02*
X2475967Y-15022328D01*
X2475967Y-15022328D02*
X2466443Y-15012804D01*
X2466443Y-15012804D02*
X2456919Y-14993756D01*
X2456919Y-14993756D02*
X2447395Y-14955661D01*
X2447395Y-14955661D02*
X2447395Y-14908042D01*
X2447395Y-14908042D02*
X2456919Y-14869947D01*
X2456919Y-14869947D02*
X2466443Y-14850899D01*
X2466443Y-14850899D02*
X2475967Y-14841376D01*
X2475967Y-14841376D02*
X2495014Y-14831852D01*
X2647395Y-15012804D02*
X2656919Y-15022328D01*
X2656919Y-15022328D02*
X2647395Y-15031852D01*
X2647395Y-15031852D02*
X2637871Y-15022328D01*
X2637871Y-15022328D02*
X2647395Y-15012804D01*
X2647395Y-15012804D02*
X2647395Y-15031852D01*
X2752157Y-15031852D02*
X2790252Y-15031852D01*
X2790252Y-15031852D02*
X2809300Y-15022328D01*
X2809300Y-15022328D02*
X2818824Y-15012804D01*
X2818824Y-15012804D02*
X2837871Y-14984233D01*
X2837871Y-14984233D02*
X2847395Y-14946137D01*
X2847395Y-14946137D02*
X2847395Y-14869947D01*
X2847395Y-14869947D02*
X2837871Y-14850899D01*
X2837871Y-14850899D02*
X2828348Y-14841376D01*
X2828348Y-14841376D02*
X2809300Y-14831852D01*
X2809300Y-14831852D02*
X2771205Y-14831852D01*
X2771205Y-14831852D02*
X2752157Y-14841376D01*
X2752157Y-14841376D02*
X2742633Y-14850899D01*
X2742633Y-14850899D02*
X2733110Y-14869947D01*
X2733110Y-14869947D02*
X2733110Y-14917566D01*
X2733110Y-14917566D02*
X2742633Y-14936614D01*
X2742633Y-14936614D02*
X2752157Y-14946137D01*
X2752157Y-14946137D02*
X2771205Y-14955661D01*
X2771205Y-14955661D02*
X2809300Y-14955661D01*
X2809300Y-14955661D02*
X2828348Y-14946137D01*
X2828348Y-14946137D02*
X2837871Y-14936614D01*
X2837871Y-14936614D02*
X2847395Y-14917566D01*
X2942633Y-15031852D02*
X2980728Y-15031852D01*
X2980728Y-15031852D02*
X2999776Y-15022328D01*
X2999776Y-15022328D02*
X3009300Y-15012804D01*
X3009300Y-15012804D02*
X3028348Y-14984233D01*
X3028348Y-14984233D02*
X3037871Y-14946137D01*
X3037871Y-14946137D02*
X3037871Y-14869947D01*
X3037871Y-14869947D02*
X3028348Y-14850899D01*
X3028348Y-14850899D02*
X3018824Y-14841376D01*
X3018824Y-14841376D02*
X2999776Y-14831852D01*
X2999776Y-14831852D02*
X2961681Y-14831852D01*
X2961681Y-14831852D02*
X2942633Y-14841376D01*
X2942633Y-14841376D02*
X2933109Y-14850899D01*
X2933109Y-14850899D02*
X2923586Y-14869947D01*
X2923586Y-14869947D02*
X2923586Y-14917566D01*
X2923586Y-14917566D02*
X2933109Y-14936614D01*
X2933109Y-14936614D02*
X2942633Y-14946137D01*
X2942633Y-14946137D02*
X2961681Y-14955661D01*
X2961681Y-14955661D02*
X2999776Y-14955661D01*
X2999776Y-14955661D02*
X3018824Y-14946137D01*
X3018824Y-14946137D02*
X3028348Y-14936614D01*
X3028348Y-14936614D02*
X3037871Y-14917566D01*
X3161681Y-14831852D02*
X3180729Y-14831852D01*
X3180729Y-14831852D02*
X3199776Y-14841376D01*
X3199776Y-14841376D02*
X3209300Y-14850899D01*
X3209300Y-14850899D02*
X3218824Y-14869947D01*
X3218824Y-14869947D02*
X3228348Y-14908042D01*
X3228348Y-14908042D02*
X3228348Y-14955661D01*
X3228348Y-14955661D02*
X3218824Y-14993756D01*
X3218824Y-14993756D02*
X3209300Y-15012804D01*
X3209300Y-15012804D02*
X3199776Y-15022328D01*
X3199776Y-15022328D02*
X3180729Y-15031852D01*
X3180729Y-15031852D02*
X3161681Y-15031852D01*
X3161681Y-15031852D02*
X3142633Y-15022328D01*
X3142633Y-15022328D02*
X3133109Y-15012804D01*
X3133109Y-15012804D02*
X3123586Y-14993756D01*
X3123586Y-14993756D02*
X3114062Y-14955661D01*
X3114062Y-14955661D02*
X3114062Y-14908042D01*
X3114062Y-14908042D02*
X3123586Y-14869947D01*
X3123586Y-14869947D02*
X3133109Y-14850899D01*
X3133109Y-14850899D02*
X3142633Y-14841376D01*
X3142633Y-14841376D02*
X3161681Y-14831852D01*
X3314062Y-15031852D02*
X3314062Y-14898518D01*
X3314062Y-14917566D02*
X3323586Y-14908042D01*
X3323586Y-14908042D02*
X3342633Y-14898518D01*
X3342633Y-14898518D02*
X3371205Y-14898518D01*
X3371205Y-14898518D02*
X3390252Y-14908042D01*
X3390252Y-14908042D02*
X3399776Y-14927090D01*
X3399776Y-14927090D02*
X3399776Y-15031852D01*
X3399776Y-14927090D02*
X3409300Y-14908042D01*
X3409300Y-14908042D02*
X3428348Y-14898518D01*
X3428348Y-14898518D02*
X3456919Y-14898518D01*
X3456919Y-14898518D02*
X3475967Y-14908042D01*
X3475967Y-14908042D02*
X3485490Y-14927090D01*
X3485490Y-14927090D02*
X3485490Y-15031852D01*
X3580729Y-15031852D02*
X3580729Y-14898518D01*
X3580729Y-14917566D02*
X3590252Y-14908042D01*
X3590252Y-14908042D02*
X3609300Y-14898518D01*
X3609300Y-14898518D02*
X3637871Y-14898518D01*
X3637871Y-14898518D02*
X3656919Y-14908042D01*
X3656919Y-14908042D02*
X3666443Y-14927090D01*
X3666443Y-14927090D02*
X3666443Y-15031852D01*
X3666443Y-14927090D02*
X3675967Y-14908042D01*
X3675967Y-14908042D02*
X3695014Y-14898518D01*
X3695014Y-14898518D02*
X3723586Y-14898518D01*
X3723586Y-14898518D02*
X3742633Y-14908042D01*
X3742633Y-14908042D02*
X3752157Y-14927090D01*
X3752157Y-14927090D02*
X3752157Y-15031852D01*
X4142633Y-14822328D02*
X3971205Y-15079471D01*
X4399776Y-14831852D02*
X4418824Y-14831852D01*
X4418824Y-14831852D02*
X4437872Y-14841376D01*
X4437872Y-14841376D02*
X4447395Y-14850899D01*
X4447395Y-14850899D02*
X4456919Y-14869947D01*
X4456919Y-14869947D02*
X4466443Y-14908042D01*
X4466443Y-14908042D02*
X4466443Y-14955661D01*
X4466443Y-14955661D02*
X4456919Y-14993756D01*
X4456919Y-14993756D02*
X4447395Y-15012804D01*
X4447395Y-15012804D02*
X4437872Y-15022328D01*
X4437872Y-15022328D02*
X4418824Y-15031852D01*
X4418824Y-15031852D02*
X4399776Y-15031852D01*
X4399776Y-15031852D02*
X4380729Y-15022328D01*
X4380729Y-15022328D02*
X4371205Y-15012804D01*
X4371205Y-15012804D02*
X4361681Y-14993756D01*
X4361681Y-14993756D02*
X4352157Y-14955661D01*
X4352157Y-14955661D02*
X4352157Y-14908042D01*
X4352157Y-14908042D02*
X4361681Y-14869947D01*
X4361681Y-14869947D02*
X4371205Y-14850899D01*
X4371205Y-14850899D02*
X4380729Y-14841376D01*
X4380729Y-14841376D02*
X4399776Y-14831852D01*
X4552157Y-15012804D02*
X4561681Y-15022328D01*
X4561681Y-15022328D02*
X4552157Y-15031852D01*
X4552157Y-15031852D02*
X4542634Y-15022328D01*
X4542634Y-15022328D02*
X4552157Y-15012804D01*
X4552157Y-15012804D02*
X4552157Y-15031852D01*
X4685491Y-14831852D02*
X4704538Y-14831852D01*
X4704538Y-14831852D02*
X4723586Y-14841376D01*
X4723586Y-14841376D02*
X4733110Y-14850899D01*
X4733110Y-14850899D02*
X4742634Y-14869947D01*
X4742634Y-14869947D02*
X4752157Y-14908042D01*
X4752157Y-14908042D02*
X4752157Y-14955661D01*
X4752157Y-14955661D02*
X4742634Y-14993756D01*
X4742634Y-14993756D02*
X4733110Y-15012804D01*
X4733110Y-15012804D02*
X4723586Y-15022328D01*
X4723586Y-15022328D02*
X4704538Y-15031852D01*
X4704538Y-15031852D02*
X4685491Y-15031852D01*
X4685491Y-15031852D02*
X4666443Y-15022328D01*
X4666443Y-15022328D02*
X4656919Y-15012804D01*
X4656919Y-15012804D02*
X4647395Y-14993756D01*
X4647395Y-14993756D02*
X4637872Y-14955661D01*
X4637872Y-14955661D02*
X4637872Y-14908042D01*
X4637872Y-14908042D02*
X4647395Y-14869947D01*
X4647395Y-14869947D02*
X4656919Y-14850899D01*
X4656919Y-14850899D02*
X4666443Y-14841376D01*
X4666443Y-14841376D02*
X4685491Y-14831852D01*
X4818824Y-14831852D02*
X4942634Y-14831852D01*
X4942634Y-14831852D02*
X4875967Y-14908042D01*
X4875967Y-14908042D02*
X4904538Y-14908042D01*
X4904538Y-14908042D02*
X4923586Y-14917566D01*
X4923586Y-14917566D02*
X4933110Y-14927090D01*
X4933110Y-14927090D02*
X4942634Y-14946137D01*
X4942634Y-14946137D02*
X4942634Y-14993756D01*
X4942634Y-14993756D02*
X4933110Y-15012804D01*
X4933110Y-15012804D02*
X4923586Y-15022328D01*
X4923586Y-15022328D02*
X4904538Y-15031852D01*
X4904538Y-15031852D02*
X4847395Y-15031852D01*
X4847395Y-15031852D02*
X4828348Y-15022328D01*
X4828348Y-15022328D02*
X4818824Y-15012804D01*
X5037872Y-15031852D02*
X5075967Y-15031852D01*
X5075967Y-15031852D02*
X5095015Y-15022328D01*
X5095015Y-15022328D02*
X5104538Y-15012804D01*
X5104538Y-15012804D02*
X5123586Y-14984233D01*
X5123586Y-14984233D02*
X5133110Y-14946137D01*
X5133110Y-14946137D02*
X5133110Y-14869947D01*
X5133110Y-14869947D02*
X5123586Y-14850899D01*
X5123586Y-14850899D02*
X5114062Y-14841376D01*
X5114062Y-14841376D02*
X5095015Y-14831852D01*
X5095015Y-14831852D02*
X5056919Y-14831852D01*
X5056919Y-14831852D02*
X5037872Y-14841376D01*
X5037872Y-14841376D02*
X5028348Y-14850899D01*
X5028348Y-14850899D02*
X5018824Y-14869947D01*
X5018824Y-14869947D02*
X5018824Y-14917566D01*
X5018824Y-14917566D02*
X5028348Y-14936614D01*
X5028348Y-14936614D02*
X5037872Y-14946137D01*
X5037872Y-14946137D02*
X5056919Y-14955661D01*
X5056919Y-14955661D02*
X5095015Y-14955661D01*
X5095015Y-14955661D02*
X5114062Y-14946137D01*
X5114062Y-14946137D02*
X5123586Y-14936614D01*
X5123586Y-14936614D02*
X5133110Y-14917566D01*
X5256919Y-14831852D02*
X5275967Y-14831852D01*
X5275967Y-14831852D02*
X5295015Y-14841376D01*
X5295015Y-14841376D02*
X5304538Y-14850899D01*
X5304538Y-14850899D02*
X5314062Y-14869947D01*
X5314062Y-14869947D02*
X5323586Y-14908042D01*
X5323586Y-14908042D02*
X5323586Y-14955661D01*
X5323586Y-14955661D02*
X5314062Y-14993756D01*
X5314062Y-14993756D02*
X5304538Y-15012804D01*
X5304538Y-15012804D02*
X5295015Y-15022328D01*
X5295015Y-15022328D02*
X5275967Y-15031852D01*
X5275967Y-15031852D02*
X5256919Y-15031852D01*
X5256919Y-15031852D02*
X5237872Y-15022328D01*
X5237872Y-15022328D02*
X5228348Y-15012804D01*
X5228348Y-15012804D02*
X5218824Y-14993756D01*
X5218824Y-14993756D02*
X5209300Y-14955661D01*
X5209300Y-14955661D02*
X5209300Y-14908042D01*
X5209300Y-14908042D02*
X5218824Y-14869947D01*
X5218824Y-14869947D02*
X5228348Y-14850899D01*
X5228348Y-14850899D02*
X5237872Y-14841376D01*
X5237872Y-14841376D02*
X5256919Y-14831852D01*
X5399776Y-14831852D02*
X5399776Y-14869947D01*
X5475967Y-14831852D02*
X5475967Y-14869947D01*
X5771205Y-15108042D02*
X5761681Y-15098518D01*
X5761681Y-15098518D02*
X5742634Y-15069947D01*
X5742634Y-15069947D02*
X5733110Y-15050899D01*
X5733110Y-15050899D02*
X5723586Y-15022328D01*
X5723586Y-15022328D02*
X5714062Y-14974709D01*
X5714062Y-14974709D02*
X5714062Y-14936614D01*
X5714062Y-14936614D02*
X5723586Y-14888995D01*
X5723586Y-14888995D02*
X5733110Y-14860423D01*
X5733110Y-14860423D02*
X5742634Y-14841376D01*
X5742634Y-14841376D02*
X5761681Y-14812804D01*
X5761681Y-14812804D02*
X5771205Y-14803280D01*
X5837872Y-14850899D02*
X5847395Y-14841376D01*
X5847395Y-14841376D02*
X5866443Y-14831852D01*
X5866443Y-14831852D02*
X5914062Y-14831852D01*
X5914062Y-14831852D02*
X5933110Y-14841376D01*
X5933110Y-14841376D02*
X5942634Y-14850899D01*
X5942634Y-14850899D02*
X5952157Y-14869947D01*
X5952157Y-14869947D02*
X5952157Y-14888995D01*
X5952157Y-14888995D02*
X5942634Y-14917566D01*
X5942634Y-14917566D02*
X5828348Y-15031852D01*
X5828348Y-15031852D02*
X5952157Y-15031852D01*
X6190253Y-15031852D02*
X6190253Y-14831852D01*
X6275967Y-15031852D02*
X6275967Y-14927090D01*
X6275967Y-14927090D02*
X6266443Y-14908042D01*
X6266443Y-14908042D02*
X6247396Y-14898518D01*
X6247396Y-14898518D02*
X6218824Y-14898518D01*
X6218824Y-14898518D02*
X6199776Y-14908042D01*
X6199776Y-14908042D02*
X6190253Y-14917566D01*
X6399776Y-15031852D02*
X6380729Y-15022328D01*
X6380729Y-15022328D02*
X6371205Y-15012804D01*
X6371205Y-15012804D02*
X6361681Y-14993756D01*
X6361681Y-14993756D02*
X6361681Y-14936614D01*
X6361681Y-14936614D02*
X6371205Y-14917566D01*
X6371205Y-14917566D02*
X6380729Y-14908042D01*
X6380729Y-14908042D02*
X6399776Y-14898518D01*
X6399776Y-14898518D02*
X6428348Y-14898518D01*
X6428348Y-14898518D02*
X6447396Y-14908042D01*
X6447396Y-14908042D02*
X6456919Y-14917566D01*
X6456919Y-14917566D02*
X6466443Y-14936614D01*
X6466443Y-14936614D02*
X6466443Y-14993756D01*
X6466443Y-14993756D02*
X6456919Y-15012804D01*
X6456919Y-15012804D02*
X6447396Y-15022328D01*
X6447396Y-15022328D02*
X6428348Y-15031852D01*
X6428348Y-15031852D02*
X6399776Y-15031852D01*
X6580729Y-15031852D02*
X6561681Y-15022328D01*
X6561681Y-15022328D02*
X6552157Y-15003280D01*
X6552157Y-15003280D02*
X6552157Y-14831852D01*
X6733110Y-15022328D02*
X6714062Y-15031852D01*
X6714062Y-15031852D02*
X6675967Y-15031852D01*
X6675967Y-15031852D02*
X6656919Y-15022328D01*
X6656919Y-15022328D02*
X6647396Y-15003280D01*
X6647396Y-15003280D02*
X6647396Y-14927090D01*
X6647396Y-14927090D02*
X6656919Y-14908042D01*
X6656919Y-14908042D02*
X6675967Y-14898518D01*
X6675967Y-14898518D02*
X6714062Y-14898518D01*
X6714062Y-14898518D02*
X6733110Y-14908042D01*
X6733110Y-14908042D02*
X6742634Y-14927090D01*
X6742634Y-14927090D02*
X6742634Y-14946137D01*
X6742634Y-14946137D02*
X6647396Y-14965185D01*
X6818824Y-15022328D02*
X6837872Y-15031852D01*
X6837872Y-15031852D02*
X6875967Y-15031852D01*
X6875967Y-15031852D02*
X6895015Y-15022328D01*
X6895015Y-15022328D02*
X6904538Y-15003280D01*
X6904538Y-15003280D02*
X6904538Y-14993756D01*
X6904538Y-14993756D02*
X6895015Y-14974709D01*
X6895015Y-14974709D02*
X6875967Y-14965185D01*
X6875967Y-14965185D02*
X6847396Y-14965185D01*
X6847396Y-14965185D02*
X6828348Y-14955661D01*
X6828348Y-14955661D02*
X6818824Y-14936614D01*
X6818824Y-14936614D02*
X6818824Y-14927090D01*
X6818824Y-14927090D02*
X6828348Y-14908042D01*
X6828348Y-14908042D02*
X6847396Y-14898518D01*
X6847396Y-14898518D02*
X6875967Y-14898518D01*
X6875967Y-14898518D02*
X6895015Y-14908042D01*
X6971205Y-15108042D02*
X6980729Y-15098518D01*
X6980729Y-15098518D02*
X6999777Y-15069947D01*
X6999777Y-15069947D02*
X7009300Y-15050899D01*
X7009300Y-15050899D02*
X7018824Y-15022328D01*
X7018824Y-15022328D02*
X7028348Y-14974709D01*
X7028348Y-14974709D02*
X7028348Y-14936614D01*
X7028348Y-14936614D02*
X7018824Y-14888995D01*
X7018824Y-14888995D02*
X7009300Y-14860423D01*
X7009300Y-14860423D02*
X6999777Y-14841376D01*
X6999777Y-14841376D02*
X6980729Y-14812804D01*
X6980729Y-14812804D02*
X6971205Y-14803280D01*
D19*
X2109300Y-15153328D02*
X2209300Y-15253328D01*
X2209300Y-15153328D02*
X2109300Y-15253328D01*
X2159300Y-15253328D02*
X2209300Y-15203328D01*
X2159300Y-15153328D01*
X2109300Y-15203328D01*
X2159300Y-15253328D01*
D11*
X2561681Y-15295852D02*
X2447395Y-15295852D01*
X2504538Y-15295852D02*
X2504538Y-15095852D01*
X2504538Y-15095852D02*
X2485490Y-15124423D01*
X2485490Y-15124423D02*
X2466443Y-15143471D01*
X2466443Y-15143471D02*
X2447395Y-15152995D01*
X2647395Y-15276804D02*
X2656919Y-15286328D01*
X2656919Y-15286328D02*
X2647395Y-15295852D01*
X2647395Y-15295852D02*
X2637871Y-15286328D01*
X2637871Y-15286328D02*
X2647395Y-15276804D01*
X2647395Y-15276804D02*
X2647395Y-15295852D01*
X2780729Y-15095852D02*
X2799776Y-15095852D01*
X2799776Y-15095852D02*
X2818824Y-15105376D01*
X2818824Y-15105376D02*
X2828348Y-15114899D01*
X2828348Y-15114899D02*
X2837871Y-15133947D01*
X2837871Y-15133947D02*
X2847395Y-15172042D01*
X2847395Y-15172042D02*
X2847395Y-15219661D01*
X2847395Y-15219661D02*
X2837871Y-15257756D01*
X2837871Y-15257756D02*
X2828348Y-15276804D01*
X2828348Y-15276804D02*
X2818824Y-15286328D01*
X2818824Y-15286328D02*
X2799776Y-15295852D01*
X2799776Y-15295852D02*
X2780729Y-15295852D01*
X2780729Y-15295852D02*
X2761681Y-15286328D01*
X2761681Y-15286328D02*
X2752157Y-15276804D01*
X2752157Y-15276804D02*
X2742633Y-15257756D01*
X2742633Y-15257756D02*
X2733110Y-15219661D01*
X2733110Y-15219661D02*
X2733110Y-15172042D01*
X2733110Y-15172042D02*
X2742633Y-15133947D01*
X2742633Y-15133947D02*
X2752157Y-15114899D01*
X2752157Y-15114899D02*
X2761681Y-15105376D01*
X2761681Y-15105376D02*
X2780729Y-15095852D01*
X2971205Y-15095852D02*
X2990252Y-15095852D01*
X2990252Y-15095852D02*
X3009300Y-15105376D01*
X3009300Y-15105376D02*
X3018824Y-15114899D01*
X3018824Y-15114899D02*
X3028348Y-15133947D01*
X3028348Y-15133947D02*
X3037871Y-15172042D01*
X3037871Y-15172042D02*
X3037871Y-15219661D01*
X3037871Y-15219661D02*
X3028348Y-15257756D01*
X3028348Y-15257756D02*
X3018824Y-15276804D01*
X3018824Y-15276804D02*
X3009300Y-15286328D01*
X3009300Y-15286328D02*
X2990252Y-15295852D01*
X2990252Y-15295852D02*
X2971205Y-15295852D01*
X2971205Y-15295852D02*
X2952157Y-15286328D01*
X2952157Y-15286328D02*
X2942633Y-15276804D01*
X2942633Y-15276804D02*
X2933109Y-15257756D01*
X2933109Y-15257756D02*
X2923586Y-15219661D01*
X2923586Y-15219661D02*
X2923586Y-15172042D01*
X2923586Y-15172042D02*
X2933109Y-15133947D01*
X2933109Y-15133947D02*
X2942633Y-15114899D01*
X2942633Y-15114899D02*
X2952157Y-15105376D01*
X2952157Y-15105376D02*
X2971205Y-15095852D01*
X3161681Y-15095852D02*
X3180729Y-15095852D01*
X3180729Y-15095852D02*
X3199776Y-15105376D01*
X3199776Y-15105376D02*
X3209300Y-15114899D01*
X3209300Y-15114899D02*
X3218824Y-15133947D01*
X3218824Y-15133947D02*
X3228348Y-15172042D01*
X3228348Y-15172042D02*
X3228348Y-15219661D01*
X3228348Y-15219661D02*
X3218824Y-15257756D01*
X3218824Y-15257756D02*
X3209300Y-15276804D01*
X3209300Y-15276804D02*
X3199776Y-15286328D01*
X3199776Y-15286328D02*
X3180729Y-15295852D01*
X3180729Y-15295852D02*
X3161681Y-15295852D01*
X3161681Y-15295852D02*
X3142633Y-15286328D01*
X3142633Y-15286328D02*
X3133109Y-15276804D01*
X3133109Y-15276804D02*
X3123586Y-15257756D01*
X3123586Y-15257756D02*
X3114062Y-15219661D01*
X3114062Y-15219661D02*
X3114062Y-15172042D01*
X3114062Y-15172042D02*
X3123586Y-15133947D01*
X3123586Y-15133947D02*
X3133109Y-15114899D01*
X3133109Y-15114899D02*
X3142633Y-15105376D01*
X3142633Y-15105376D02*
X3161681Y-15095852D01*
X3314062Y-15295852D02*
X3314062Y-15162518D01*
X3314062Y-15181566D02*
X3323586Y-15172042D01*
X3323586Y-15172042D02*
X3342633Y-15162518D01*
X3342633Y-15162518D02*
X3371205Y-15162518D01*
X3371205Y-15162518D02*
X3390252Y-15172042D01*
X3390252Y-15172042D02*
X3399776Y-15191090D01*
X3399776Y-15191090D02*
X3399776Y-15295852D01*
X3399776Y-15191090D02*
X3409300Y-15172042D01*
X3409300Y-15172042D02*
X3428348Y-15162518D01*
X3428348Y-15162518D02*
X3456919Y-15162518D01*
X3456919Y-15162518D02*
X3475967Y-15172042D01*
X3475967Y-15172042D02*
X3485490Y-15191090D01*
X3485490Y-15191090D02*
X3485490Y-15295852D01*
X3580729Y-15295852D02*
X3580729Y-15162518D01*
X3580729Y-15181566D02*
X3590252Y-15172042D01*
X3590252Y-15172042D02*
X3609300Y-15162518D01*
X3609300Y-15162518D02*
X3637871Y-15162518D01*
X3637871Y-15162518D02*
X3656919Y-15172042D01*
X3656919Y-15172042D02*
X3666443Y-15191090D01*
X3666443Y-15191090D02*
X3666443Y-15295852D01*
X3666443Y-15191090D02*
X3675967Y-15172042D01*
X3675967Y-15172042D02*
X3695014Y-15162518D01*
X3695014Y-15162518D02*
X3723586Y-15162518D01*
X3723586Y-15162518D02*
X3742633Y-15172042D01*
X3742633Y-15172042D02*
X3752157Y-15191090D01*
X3752157Y-15191090D02*
X3752157Y-15295852D01*
X4142633Y-15086328D02*
X3971205Y-15343471D01*
X4399776Y-15095852D02*
X4418824Y-15095852D01*
X4418824Y-15095852D02*
X4437872Y-15105376D01*
X4437872Y-15105376D02*
X4447395Y-15114899D01*
X4447395Y-15114899D02*
X4456919Y-15133947D01*
X4456919Y-15133947D02*
X4466443Y-15172042D01*
X4466443Y-15172042D02*
X4466443Y-15219661D01*
X4466443Y-15219661D02*
X4456919Y-15257756D01*
X4456919Y-15257756D02*
X4447395Y-15276804D01*
X4447395Y-15276804D02*
X4437872Y-15286328D01*
X4437872Y-15286328D02*
X4418824Y-15295852D01*
X4418824Y-15295852D02*
X4399776Y-15295852D01*
X4399776Y-15295852D02*
X4380729Y-15286328D01*
X4380729Y-15286328D02*
X4371205Y-15276804D01*
X4371205Y-15276804D02*
X4361681Y-15257756D01*
X4361681Y-15257756D02*
X4352157Y-15219661D01*
X4352157Y-15219661D02*
X4352157Y-15172042D01*
X4352157Y-15172042D02*
X4361681Y-15133947D01*
X4361681Y-15133947D02*
X4371205Y-15114899D01*
X4371205Y-15114899D02*
X4380729Y-15105376D01*
X4380729Y-15105376D02*
X4399776Y-15095852D01*
X4552157Y-15276804D02*
X4561681Y-15286328D01*
X4561681Y-15286328D02*
X4552157Y-15295852D01*
X4552157Y-15295852D02*
X4542634Y-15286328D01*
X4542634Y-15286328D02*
X4552157Y-15276804D01*
X4552157Y-15276804D02*
X4552157Y-15295852D01*
X4685491Y-15095852D02*
X4704538Y-15095852D01*
X4704538Y-15095852D02*
X4723586Y-15105376D01*
X4723586Y-15105376D02*
X4733110Y-15114899D01*
X4733110Y-15114899D02*
X4742634Y-15133947D01*
X4742634Y-15133947D02*
X4752157Y-15172042D01*
X4752157Y-15172042D02*
X4752157Y-15219661D01*
X4752157Y-15219661D02*
X4742634Y-15257756D01*
X4742634Y-15257756D02*
X4733110Y-15276804D01*
X4733110Y-15276804D02*
X4723586Y-15286328D01*
X4723586Y-15286328D02*
X4704538Y-15295852D01*
X4704538Y-15295852D02*
X4685491Y-15295852D01*
X4685491Y-15295852D02*
X4666443Y-15286328D01*
X4666443Y-15286328D02*
X4656919Y-15276804D01*
X4656919Y-15276804D02*
X4647395Y-15257756D01*
X4647395Y-15257756D02*
X4637872Y-15219661D01*
X4637872Y-15219661D02*
X4637872Y-15172042D01*
X4637872Y-15172042D02*
X4647395Y-15133947D01*
X4647395Y-15133947D02*
X4656919Y-15114899D01*
X4656919Y-15114899D02*
X4666443Y-15105376D01*
X4666443Y-15105376D02*
X4685491Y-15095852D01*
X4818824Y-15095852D02*
X4942634Y-15095852D01*
X4942634Y-15095852D02*
X4875967Y-15172042D01*
X4875967Y-15172042D02*
X4904538Y-15172042D01*
X4904538Y-15172042D02*
X4923586Y-15181566D01*
X4923586Y-15181566D02*
X4933110Y-15191090D01*
X4933110Y-15191090D02*
X4942634Y-15210137D01*
X4942634Y-15210137D02*
X4942634Y-15257756D01*
X4942634Y-15257756D02*
X4933110Y-15276804D01*
X4933110Y-15276804D02*
X4923586Y-15286328D01*
X4923586Y-15286328D02*
X4904538Y-15295852D01*
X4904538Y-15295852D02*
X4847395Y-15295852D01*
X4847395Y-15295852D02*
X4828348Y-15286328D01*
X4828348Y-15286328D02*
X4818824Y-15276804D01*
X5037872Y-15295852D02*
X5075967Y-15295852D01*
X5075967Y-15295852D02*
X5095015Y-15286328D01*
X5095015Y-15286328D02*
X5104538Y-15276804D01*
X5104538Y-15276804D02*
X5123586Y-15248233D01*
X5123586Y-15248233D02*
X5133110Y-15210137D01*
X5133110Y-15210137D02*
X5133110Y-15133947D01*
X5133110Y-15133947D02*
X5123586Y-15114899D01*
X5123586Y-15114899D02*
X5114062Y-15105376D01*
X5114062Y-15105376D02*
X5095015Y-15095852D01*
X5095015Y-15095852D02*
X5056919Y-15095852D01*
X5056919Y-15095852D02*
X5037872Y-15105376D01*
X5037872Y-15105376D02*
X5028348Y-15114899D01*
X5028348Y-15114899D02*
X5018824Y-15133947D01*
X5018824Y-15133947D02*
X5018824Y-15181566D01*
X5018824Y-15181566D02*
X5028348Y-15200614D01*
X5028348Y-15200614D02*
X5037872Y-15210137D01*
X5037872Y-15210137D02*
X5056919Y-15219661D01*
X5056919Y-15219661D02*
X5095015Y-15219661D01*
X5095015Y-15219661D02*
X5114062Y-15210137D01*
X5114062Y-15210137D02*
X5123586Y-15200614D01*
X5123586Y-15200614D02*
X5133110Y-15181566D01*
X5304538Y-15162518D02*
X5304538Y-15295852D01*
X5256919Y-15086328D02*
X5209300Y-15229185D01*
X5209300Y-15229185D02*
X5333110Y-15229185D01*
X5399776Y-15095852D02*
X5399776Y-15133947D01*
X5475967Y-15095852D02*
X5475967Y-15133947D01*
X5771205Y-15372042D02*
X5761681Y-15362518D01*
X5761681Y-15362518D02*
X5742634Y-15333947D01*
X5742634Y-15333947D02*
X5733110Y-15314899D01*
X5733110Y-15314899D02*
X5723586Y-15286328D01*
X5723586Y-15286328D02*
X5714062Y-15238709D01*
X5714062Y-15238709D02*
X5714062Y-15200614D01*
X5714062Y-15200614D02*
X5723586Y-15152995D01*
X5723586Y-15152995D02*
X5733110Y-15124423D01*
X5733110Y-15124423D02*
X5742634Y-15105376D01*
X5742634Y-15105376D02*
X5761681Y-15076804D01*
X5761681Y-15076804D02*
X5771205Y-15067280D01*
X5952157Y-15295852D02*
X5837872Y-15295852D01*
X5895014Y-15295852D02*
X5895014Y-15095852D01*
X5895014Y-15095852D02*
X5875967Y-15124423D01*
X5875967Y-15124423D02*
X5856919Y-15143471D01*
X5856919Y-15143471D02*
X5837872Y-15152995D01*
X6018824Y-15095852D02*
X6142634Y-15095852D01*
X6142634Y-15095852D02*
X6075967Y-15172042D01*
X6075967Y-15172042D02*
X6104538Y-15172042D01*
X6104538Y-15172042D02*
X6123586Y-15181566D01*
X6123586Y-15181566D02*
X6133110Y-15191090D01*
X6133110Y-15191090D02*
X6142634Y-15210137D01*
X6142634Y-15210137D02*
X6142634Y-15257756D01*
X6142634Y-15257756D02*
X6133110Y-15276804D01*
X6133110Y-15276804D02*
X6123586Y-15286328D01*
X6123586Y-15286328D02*
X6104538Y-15295852D01*
X6104538Y-15295852D02*
X6047395Y-15295852D01*
X6047395Y-15295852D02*
X6028348Y-15286328D01*
X6028348Y-15286328D02*
X6018824Y-15276804D01*
X6218824Y-15114899D02*
X6228348Y-15105376D01*
X6228348Y-15105376D02*
X6247395Y-15095852D01*
X6247395Y-15095852D02*
X6295015Y-15095852D01*
X6295015Y-15095852D02*
X6314062Y-15105376D01*
X6314062Y-15105376D02*
X6323586Y-15114899D01*
X6323586Y-15114899D02*
X6333110Y-15133947D01*
X6333110Y-15133947D02*
X6333110Y-15152995D01*
X6333110Y-15152995D02*
X6323586Y-15181566D01*
X6323586Y-15181566D02*
X6209300Y-15295852D01*
X6209300Y-15295852D02*
X6333110Y-15295852D01*
X6571205Y-15295852D02*
X6571205Y-15095852D01*
X6656919Y-15295852D02*
X6656919Y-15191090D01*
X6656919Y-15191090D02*
X6647396Y-15172042D01*
X6647396Y-15172042D02*
X6628348Y-15162518D01*
X6628348Y-15162518D02*
X6599776Y-15162518D01*
X6599776Y-15162518D02*
X6580729Y-15172042D01*
X6580729Y-15172042D02*
X6571205Y-15181566D01*
X6780729Y-15295852D02*
X6761681Y-15286328D01*
X6761681Y-15286328D02*
X6752157Y-15276804D01*
X6752157Y-15276804D02*
X6742634Y-15257756D01*
X6742634Y-15257756D02*
X6742634Y-15200614D01*
X6742634Y-15200614D02*
X6752157Y-15181566D01*
X6752157Y-15181566D02*
X6761681Y-15172042D01*
X6761681Y-15172042D02*
X6780729Y-15162518D01*
X6780729Y-15162518D02*
X6809300Y-15162518D01*
X6809300Y-15162518D02*
X6828348Y-15172042D01*
X6828348Y-15172042D02*
X6837872Y-15181566D01*
X6837872Y-15181566D02*
X6847396Y-15200614D01*
X6847396Y-15200614D02*
X6847396Y-15257756D01*
X6847396Y-15257756D02*
X6837872Y-15276804D01*
X6837872Y-15276804D02*
X6828348Y-15286328D01*
X6828348Y-15286328D02*
X6809300Y-15295852D01*
X6809300Y-15295852D02*
X6780729Y-15295852D01*
X6961681Y-15295852D02*
X6942634Y-15286328D01*
X6942634Y-15286328D02*
X6933110Y-15267280D01*
X6933110Y-15267280D02*
X6933110Y-15095852D01*
X7114062Y-15286328D02*
X7095015Y-15295852D01*
X7095015Y-15295852D02*
X7056919Y-15295852D01*
X7056919Y-15295852D02*
X7037872Y-15286328D01*
X7037872Y-15286328D02*
X7028348Y-15267280D01*
X7028348Y-15267280D02*
X7028348Y-15191090D01*
X7028348Y-15191090D02*
X7037872Y-15172042D01*
X7037872Y-15172042D02*
X7056919Y-15162518D01*
X7056919Y-15162518D02*
X7095015Y-15162518D01*
X7095015Y-15162518D02*
X7114062Y-15172042D01*
X7114062Y-15172042D02*
X7123586Y-15191090D01*
X7123586Y-15191090D02*
X7123586Y-15210137D01*
X7123586Y-15210137D02*
X7028348Y-15229185D01*
X7199777Y-15286328D02*
X7218824Y-15295852D01*
X7218824Y-15295852D02*
X7256919Y-15295852D01*
X7256919Y-15295852D02*
X7275967Y-15286328D01*
X7275967Y-15286328D02*
X7285491Y-15267280D01*
X7285491Y-15267280D02*
X7285491Y-15257756D01*
X7285491Y-15257756D02*
X7275967Y-15238709D01*
X7275967Y-15238709D02*
X7256919Y-15229185D01*
X7256919Y-15229185D02*
X7228348Y-15229185D01*
X7228348Y-15229185D02*
X7209300Y-15219661D01*
X7209300Y-15219661D02*
X7199777Y-15200614D01*
X7199777Y-15200614D02*
X7199777Y-15191090D01*
X7199777Y-15191090D02*
X7209300Y-15172042D01*
X7209300Y-15172042D02*
X7228348Y-15162518D01*
X7228348Y-15162518D02*
X7256919Y-15162518D01*
X7256919Y-15162518D02*
X7275967Y-15172042D01*
X7352158Y-15372042D02*
X7361681Y-15362518D01*
X7361681Y-15362518D02*
X7380729Y-15333947D01*
X7380729Y-15333947D02*
X7390253Y-15314899D01*
X7390253Y-15314899D02*
X7399777Y-15286328D01*
X7399777Y-15286328D02*
X7409300Y-15238709D01*
X7409300Y-15238709D02*
X7409300Y-15200614D01*
X7409300Y-15200614D02*
X7399777Y-15152995D01*
X7399777Y-15152995D02*
X7390253Y-15124423D01*
X7390253Y-15124423D02*
X7380729Y-15105376D01*
X7380729Y-15105376D02*
X7361681Y-15076804D01*
X7361681Y-15076804D02*
X7352158Y-15067280D01*
D20*
X2144300Y-15402328D02*
X2144300Y-15532328D01*
X2079300Y-15467328D02*
X2209300Y-15467328D01*
X2209300Y-15467328D02*
G75*
G03*
X2209300Y-15467328I-65000J0D01*
G01*
D11*
X2561681Y-15559852D02*
X2447395Y-15559852D01*
X2504538Y-15559852D02*
X2504538Y-15359852D01*
X2504538Y-15359852D02*
X2485490Y-15388423D01*
X2485490Y-15388423D02*
X2466443Y-15407471D01*
X2466443Y-15407471D02*
X2447395Y-15416995D01*
X2647395Y-15540804D02*
X2656919Y-15550328D01*
X2656919Y-15550328D02*
X2647395Y-15559852D01*
X2647395Y-15559852D02*
X2637871Y-15550328D01*
X2637871Y-15550328D02*
X2647395Y-15540804D01*
X2647395Y-15540804D02*
X2647395Y-15559852D01*
X2723586Y-15359852D02*
X2847395Y-15359852D01*
X2847395Y-15359852D02*
X2780729Y-15436042D01*
X2780729Y-15436042D02*
X2809300Y-15436042D01*
X2809300Y-15436042D02*
X2828348Y-15445566D01*
X2828348Y-15445566D02*
X2837871Y-15455090D01*
X2837871Y-15455090D02*
X2847395Y-15474137D01*
X2847395Y-15474137D02*
X2847395Y-15521756D01*
X2847395Y-15521756D02*
X2837871Y-15540804D01*
X2837871Y-15540804D02*
X2828348Y-15550328D01*
X2828348Y-15550328D02*
X2809300Y-15559852D01*
X2809300Y-15559852D02*
X2752157Y-15559852D01*
X2752157Y-15559852D02*
X2733110Y-15550328D01*
X2733110Y-15550328D02*
X2723586Y-15540804D01*
X2971205Y-15359852D02*
X2990252Y-15359852D01*
X2990252Y-15359852D02*
X3009300Y-15369376D01*
X3009300Y-15369376D02*
X3018824Y-15378899D01*
X3018824Y-15378899D02*
X3028348Y-15397947D01*
X3028348Y-15397947D02*
X3037871Y-15436042D01*
X3037871Y-15436042D02*
X3037871Y-15483661D01*
X3037871Y-15483661D02*
X3028348Y-15521756D01*
X3028348Y-15521756D02*
X3018824Y-15540804D01*
X3018824Y-15540804D02*
X3009300Y-15550328D01*
X3009300Y-15550328D02*
X2990252Y-15559852D01*
X2990252Y-15559852D02*
X2971205Y-15559852D01*
X2971205Y-15559852D02*
X2952157Y-15550328D01*
X2952157Y-15550328D02*
X2942633Y-15540804D01*
X2942633Y-15540804D02*
X2933109Y-15521756D01*
X2933109Y-15521756D02*
X2923586Y-15483661D01*
X2923586Y-15483661D02*
X2923586Y-15436042D01*
X2923586Y-15436042D02*
X2933109Y-15397947D01*
X2933109Y-15397947D02*
X2942633Y-15378899D01*
X2942633Y-15378899D02*
X2952157Y-15369376D01*
X2952157Y-15369376D02*
X2971205Y-15359852D01*
X3161681Y-15359852D02*
X3180729Y-15359852D01*
X3180729Y-15359852D02*
X3199776Y-15369376D01*
X3199776Y-15369376D02*
X3209300Y-15378899D01*
X3209300Y-15378899D02*
X3218824Y-15397947D01*
X3218824Y-15397947D02*
X3228348Y-15436042D01*
X3228348Y-15436042D02*
X3228348Y-15483661D01*
X3228348Y-15483661D02*
X3218824Y-15521756D01*
X3218824Y-15521756D02*
X3209300Y-15540804D01*
X3209300Y-15540804D02*
X3199776Y-15550328D01*
X3199776Y-15550328D02*
X3180729Y-15559852D01*
X3180729Y-15559852D02*
X3161681Y-15559852D01*
X3161681Y-15559852D02*
X3142633Y-15550328D01*
X3142633Y-15550328D02*
X3133109Y-15540804D01*
X3133109Y-15540804D02*
X3123586Y-15521756D01*
X3123586Y-15521756D02*
X3114062Y-15483661D01*
X3114062Y-15483661D02*
X3114062Y-15436042D01*
X3114062Y-15436042D02*
X3123586Y-15397947D01*
X3123586Y-15397947D02*
X3133109Y-15378899D01*
X3133109Y-15378899D02*
X3142633Y-15369376D01*
X3142633Y-15369376D02*
X3161681Y-15359852D01*
X3314062Y-15559852D02*
X3314062Y-15426518D01*
X3314062Y-15445566D02*
X3323586Y-15436042D01*
X3323586Y-15436042D02*
X3342633Y-15426518D01*
X3342633Y-15426518D02*
X3371205Y-15426518D01*
X3371205Y-15426518D02*
X3390252Y-15436042D01*
X3390252Y-15436042D02*
X3399776Y-15455090D01*
X3399776Y-15455090D02*
X3399776Y-15559852D01*
X3399776Y-15455090D02*
X3409300Y-15436042D01*
X3409300Y-15436042D02*
X3428348Y-15426518D01*
X3428348Y-15426518D02*
X3456919Y-15426518D01*
X3456919Y-15426518D02*
X3475967Y-15436042D01*
X3475967Y-15436042D02*
X3485490Y-15455090D01*
X3485490Y-15455090D02*
X3485490Y-15559852D01*
X3580729Y-15559852D02*
X3580729Y-15426518D01*
X3580729Y-15445566D02*
X3590252Y-15436042D01*
X3590252Y-15436042D02*
X3609300Y-15426518D01*
X3609300Y-15426518D02*
X3637871Y-15426518D01*
X3637871Y-15426518D02*
X3656919Y-15436042D01*
X3656919Y-15436042D02*
X3666443Y-15455090D01*
X3666443Y-15455090D02*
X3666443Y-15559852D01*
X3666443Y-15455090D02*
X3675967Y-15436042D01*
X3675967Y-15436042D02*
X3695014Y-15426518D01*
X3695014Y-15426518D02*
X3723586Y-15426518D01*
X3723586Y-15426518D02*
X3742633Y-15436042D01*
X3742633Y-15436042D02*
X3752157Y-15455090D01*
X3752157Y-15455090D02*
X3752157Y-15559852D01*
X4142633Y-15350328D02*
X3971205Y-15607471D01*
X4399776Y-15359852D02*
X4418824Y-15359852D01*
X4418824Y-15359852D02*
X4437872Y-15369376D01*
X4437872Y-15369376D02*
X4447395Y-15378899D01*
X4447395Y-15378899D02*
X4456919Y-15397947D01*
X4456919Y-15397947D02*
X4466443Y-15436042D01*
X4466443Y-15436042D02*
X4466443Y-15483661D01*
X4466443Y-15483661D02*
X4456919Y-15521756D01*
X4456919Y-15521756D02*
X4447395Y-15540804D01*
X4447395Y-15540804D02*
X4437872Y-15550328D01*
X4437872Y-15550328D02*
X4418824Y-15559852D01*
X4418824Y-15559852D02*
X4399776Y-15559852D01*
X4399776Y-15559852D02*
X4380729Y-15550328D01*
X4380729Y-15550328D02*
X4371205Y-15540804D01*
X4371205Y-15540804D02*
X4361681Y-15521756D01*
X4361681Y-15521756D02*
X4352157Y-15483661D01*
X4352157Y-15483661D02*
X4352157Y-15436042D01*
X4352157Y-15436042D02*
X4361681Y-15397947D01*
X4361681Y-15397947D02*
X4371205Y-15378899D01*
X4371205Y-15378899D02*
X4380729Y-15369376D01*
X4380729Y-15369376D02*
X4399776Y-15359852D01*
X4552157Y-15540804D02*
X4561681Y-15550328D01*
X4561681Y-15550328D02*
X4552157Y-15559852D01*
X4552157Y-15559852D02*
X4542634Y-15550328D01*
X4542634Y-15550328D02*
X4552157Y-15540804D01*
X4552157Y-15540804D02*
X4552157Y-15559852D01*
X4685491Y-15359852D02*
X4704538Y-15359852D01*
X4704538Y-15359852D02*
X4723586Y-15369376D01*
X4723586Y-15369376D02*
X4733110Y-15378899D01*
X4733110Y-15378899D02*
X4742634Y-15397947D01*
X4742634Y-15397947D02*
X4752157Y-15436042D01*
X4752157Y-15436042D02*
X4752157Y-15483661D01*
X4752157Y-15483661D02*
X4742634Y-15521756D01*
X4742634Y-15521756D02*
X4733110Y-15540804D01*
X4733110Y-15540804D02*
X4723586Y-15550328D01*
X4723586Y-15550328D02*
X4704538Y-15559852D01*
X4704538Y-15559852D02*
X4685491Y-15559852D01*
X4685491Y-15559852D02*
X4666443Y-15550328D01*
X4666443Y-15550328D02*
X4656919Y-15540804D01*
X4656919Y-15540804D02*
X4647395Y-15521756D01*
X4647395Y-15521756D02*
X4637872Y-15483661D01*
X4637872Y-15483661D02*
X4637872Y-15436042D01*
X4637872Y-15436042D02*
X4647395Y-15397947D01*
X4647395Y-15397947D02*
X4656919Y-15378899D01*
X4656919Y-15378899D02*
X4666443Y-15369376D01*
X4666443Y-15369376D02*
X4685491Y-15359852D01*
X4933110Y-15359852D02*
X4837872Y-15359852D01*
X4837872Y-15359852D02*
X4828348Y-15455090D01*
X4828348Y-15455090D02*
X4837872Y-15445566D01*
X4837872Y-15445566D02*
X4856919Y-15436042D01*
X4856919Y-15436042D02*
X4904538Y-15436042D01*
X4904538Y-15436042D02*
X4923586Y-15445566D01*
X4923586Y-15445566D02*
X4933110Y-15455090D01*
X4933110Y-15455090D02*
X4942634Y-15474137D01*
X4942634Y-15474137D02*
X4942634Y-15521756D01*
X4942634Y-15521756D02*
X4933110Y-15540804D01*
X4933110Y-15540804D02*
X4923586Y-15550328D01*
X4923586Y-15550328D02*
X4904538Y-15559852D01*
X4904538Y-15559852D02*
X4856919Y-15559852D01*
X4856919Y-15559852D02*
X4837872Y-15550328D01*
X4837872Y-15550328D02*
X4828348Y-15540804D01*
X5133110Y-15559852D02*
X5018824Y-15559852D01*
X5075967Y-15559852D02*
X5075967Y-15359852D01*
X5075967Y-15359852D02*
X5056919Y-15388423D01*
X5056919Y-15388423D02*
X5037872Y-15407471D01*
X5037872Y-15407471D02*
X5018824Y-15416995D01*
X5209300Y-15378899D02*
X5218824Y-15369376D01*
X5218824Y-15369376D02*
X5237872Y-15359852D01*
X5237872Y-15359852D02*
X5285491Y-15359852D01*
X5285491Y-15359852D02*
X5304538Y-15369376D01*
X5304538Y-15369376D02*
X5314062Y-15378899D01*
X5314062Y-15378899D02*
X5323586Y-15397947D01*
X5323586Y-15397947D02*
X5323586Y-15416995D01*
X5323586Y-15416995D02*
X5314062Y-15445566D01*
X5314062Y-15445566D02*
X5199776Y-15559852D01*
X5199776Y-15559852D02*
X5323586Y-15559852D01*
X5399776Y-15359852D02*
X5399776Y-15397947D01*
X5475967Y-15359852D02*
X5475967Y-15397947D01*
X5771205Y-15636042D02*
X5761681Y-15626518D01*
X5761681Y-15626518D02*
X5742634Y-15597947D01*
X5742634Y-15597947D02*
X5733110Y-15578899D01*
X5733110Y-15578899D02*
X5723586Y-15550328D01*
X5723586Y-15550328D02*
X5714062Y-15502709D01*
X5714062Y-15502709D02*
X5714062Y-15464614D01*
X5714062Y-15464614D02*
X5723586Y-15416995D01*
X5723586Y-15416995D02*
X5733110Y-15388423D01*
X5733110Y-15388423D02*
X5742634Y-15369376D01*
X5742634Y-15369376D02*
X5761681Y-15340804D01*
X5761681Y-15340804D02*
X5771205Y-15331280D01*
X5837872Y-15378899D02*
X5847395Y-15369376D01*
X5847395Y-15369376D02*
X5866443Y-15359852D01*
X5866443Y-15359852D02*
X5914062Y-15359852D01*
X5914062Y-15359852D02*
X5933110Y-15369376D01*
X5933110Y-15369376D02*
X5942634Y-15378899D01*
X5942634Y-15378899D02*
X5952157Y-15397947D01*
X5952157Y-15397947D02*
X5952157Y-15416995D01*
X5952157Y-15416995D02*
X5942634Y-15445566D01*
X5942634Y-15445566D02*
X5828348Y-15559852D01*
X5828348Y-15559852D02*
X5952157Y-15559852D01*
X6190253Y-15559852D02*
X6190253Y-15359852D01*
X6275967Y-15559852D02*
X6275967Y-15455090D01*
X6275967Y-15455090D02*
X6266443Y-15436042D01*
X6266443Y-15436042D02*
X6247396Y-15426518D01*
X6247396Y-15426518D02*
X6218824Y-15426518D01*
X6218824Y-15426518D02*
X6199776Y-15436042D01*
X6199776Y-15436042D02*
X6190253Y-15445566D01*
X6399776Y-15559852D02*
X6380729Y-15550328D01*
X6380729Y-15550328D02*
X6371205Y-15540804D01*
X6371205Y-15540804D02*
X6361681Y-15521756D01*
X6361681Y-15521756D02*
X6361681Y-15464614D01*
X6361681Y-15464614D02*
X6371205Y-15445566D01*
X6371205Y-15445566D02*
X6380729Y-15436042D01*
X6380729Y-15436042D02*
X6399776Y-15426518D01*
X6399776Y-15426518D02*
X6428348Y-15426518D01*
X6428348Y-15426518D02*
X6447396Y-15436042D01*
X6447396Y-15436042D02*
X6456919Y-15445566D01*
X6456919Y-15445566D02*
X6466443Y-15464614D01*
X6466443Y-15464614D02*
X6466443Y-15521756D01*
X6466443Y-15521756D02*
X6456919Y-15540804D01*
X6456919Y-15540804D02*
X6447396Y-15550328D01*
X6447396Y-15550328D02*
X6428348Y-15559852D01*
X6428348Y-15559852D02*
X6399776Y-15559852D01*
X6580729Y-15559852D02*
X6561681Y-15550328D01*
X6561681Y-15550328D02*
X6552157Y-15531280D01*
X6552157Y-15531280D02*
X6552157Y-15359852D01*
X6733110Y-15550328D02*
X6714062Y-15559852D01*
X6714062Y-15559852D02*
X6675967Y-15559852D01*
X6675967Y-15559852D02*
X6656919Y-15550328D01*
X6656919Y-15550328D02*
X6647396Y-15531280D01*
X6647396Y-15531280D02*
X6647396Y-15455090D01*
X6647396Y-15455090D02*
X6656919Y-15436042D01*
X6656919Y-15436042D02*
X6675967Y-15426518D01*
X6675967Y-15426518D02*
X6714062Y-15426518D01*
X6714062Y-15426518D02*
X6733110Y-15436042D01*
X6733110Y-15436042D02*
X6742634Y-15455090D01*
X6742634Y-15455090D02*
X6742634Y-15474137D01*
X6742634Y-15474137D02*
X6647396Y-15493185D01*
X6818824Y-15550328D02*
X6837872Y-15559852D01*
X6837872Y-15559852D02*
X6875967Y-15559852D01*
X6875967Y-15559852D02*
X6895015Y-15550328D01*
X6895015Y-15550328D02*
X6904538Y-15531280D01*
X6904538Y-15531280D02*
X6904538Y-15521756D01*
X6904538Y-15521756D02*
X6895015Y-15502709D01*
X6895015Y-15502709D02*
X6875967Y-15493185D01*
X6875967Y-15493185D02*
X6847396Y-15493185D01*
X6847396Y-15493185D02*
X6828348Y-15483661D01*
X6828348Y-15483661D02*
X6818824Y-15464614D01*
X6818824Y-15464614D02*
X6818824Y-15455090D01*
X6818824Y-15455090D02*
X6828348Y-15436042D01*
X6828348Y-15436042D02*
X6847396Y-15426518D01*
X6847396Y-15426518D02*
X6875967Y-15426518D01*
X6875967Y-15426518D02*
X6895015Y-15436042D01*
X6971205Y-15636042D02*
X6980729Y-15626518D01*
X6980729Y-15626518D02*
X6999777Y-15597947D01*
X6999777Y-15597947D02*
X7009300Y-15578899D01*
X7009300Y-15578899D02*
X7018824Y-15550328D01*
X7018824Y-15550328D02*
X7028348Y-15502709D01*
X7028348Y-15502709D02*
X7028348Y-15464614D01*
X7028348Y-15464614D02*
X7018824Y-15416995D01*
X7018824Y-15416995D02*
X7009300Y-15388423D01*
X7009300Y-15388423D02*
X6999777Y-15369376D01*
X6999777Y-15369376D02*
X6980729Y-15340804D01*
X6980729Y-15340804D02*
X6971205Y-15331280D01*
X2180011Y-15802039D02*
X2180011Y-15660617D01*
X2038589Y-15660617D01*
X2038589Y-15802039D01*
X2180011Y-15802039D01*
X2209300Y-15731328D02*
G75*
G03*
X2209300Y-15731328I-100000J0D01*
G01*
X2447395Y-15642899D02*
X2456919Y-15633376D01*
X2456919Y-15633376D02*
X2475967Y-15623852D01*
X2475967Y-15623852D02*
X2523586Y-15623852D01*
X2523586Y-15623852D02*
X2542633Y-15633376D01*
X2542633Y-15633376D02*
X2552157Y-15642899D01*
X2552157Y-15642899D02*
X2561681Y-15661947D01*
X2561681Y-15661947D02*
X2561681Y-15680995D01*
X2561681Y-15680995D02*
X2552157Y-15709566D01*
X2552157Y-15709566D02*
X2437871Y-15823852D01*
X2437871Y-15823852D02*
X2561681Y-15823852D01*
X2647395Y-15804804D02*
X2656919Y-15814328D01*
X2656919Y-15814328D02*
X2647395Y-15823852D01*
X2647395Y-15823852D02*
X2637871Y-15814328D01*
X2637871Y-15814328D02*
X2647395Y-15804804D01*
X2647395Y-15804804D02*
X2647395Y-15823852D01*
X2723586Y-15623852D02*
X2847395Y-15623852D01*
X2847395Y-15623852D02*
X2780729Y-15700042D01*
X2780729Y-15700042D02*
X2809300Y-15700042D01*
X2809300Y-15700042D02*
X2828348Y-15709566D01*
X2828348Y-15709566D02*
X2837871Y-15719090D01*
X2837871Y-15719090D02*
X2847395Y-15738137D01*
X2847395Y-15738137D02*
X2847395Y-15785756D01*
X2847395Y-15785756D02*
X2837871Y-15804804D01*
X2837871Y-15804804D02*
X2828348Y-15814328D01*
X2828348Y-15814328D02*
X2809300Y-15823852D01*
X2809300Y-15823852D02*
X2752157Y-15823852D01*
X2752157Y-15823852D02*
X2733110Y-15814328D01*
X2733110Y-15814328D02*
X2723586Y-15804804D01*
X2971205Y-15623852D02*
X2990252Y-15623852D01*
X2990252Y-15623852D02*
X3009300Y-15633376D01*
X3009300Y-15633376D02*
X3018824Y-15642899D01*
X3018824Y-15642899D02*
X3028348Y-15661947D01*
X3028348Y-15661947D02*
X3037871Y-15700042D01*
X3037871Y-15700042D02*
X3037871Y-15747661D01*
X3037871Y-15747661D02*
X3028348Y-15785756D01*
X3028348Y-15785756D02*
X3018824Y-15804804D01*
X3018824Y-15804804D02*
X3009300Y-15814328D01*
X3009300Y-15814328D02*
X2990252Y-15823852D01*
X2990252Y-15823852D02*
X2971205Y-15823852D01*
X2971205Y-15823852D02*
X2952157Y-15814328D01*
X2952157Y-15814328D02*
X2942633Y-15804804D01*
X2942633Y-15804804D02*
X2933109Y-15785756D01*
X2933109Y-15785756D02*
X2923586Y-15747661D01*
X2923586Y-15747661D02*
X2923586Y-15700042D01*
X2923586Y-15700042D02*
X2933109Y-15661947D01*
X2933109Y-15661947D02*
X2942633Y-15642899D01*
X2942633Y-15642899D02*
X2952157Y-15633376D01*
X2952157Y-15633376D02*
X2971205Y-15623852D01*
X3161681Y-15623852D02*
X3180729Y-15623852D01*
X3180729Y-15623852D02*
X3199776Y-15633376D01*
X3199776Y-15633376D02*
X3209300Y-15642899D01*
X3209300Y-15642899D02*
X3218824Y-15661947D01*
X3218824Y-15661947D02*
X3228348Y-15700042D01*
X3228348Y-15700042D02*
X3228348Y-15747661D01*
X3228348Y-15747661D02*
X3218824Y-15785756D01*
X3218824Y-15785756D02*
X3209300Y-15804804D01*
X3209300Y-15804804D02*
X3199776Y-15814328D01*
X3199776Y-15814328D02*
X3180729Y-15823852D01*
X3180729Y-15823852D02*
X3161681Y-15823852D01*
X3161681Y-15823852D02*
X3142633Y-15814328D01*
X3142633Y-15814328D02*
X3133109Y-15804804D01*
X3133109Y-15804804D02*
X3123586Y-15785756D01*
X3123586Y-15785756D02*
X3114062Y-15747661D01*
X3114062Y-15747661D02*
X3114062Y-15700042D01*
X3114062Y-15700042D02*
X3123586Y-15661947D01*
X3123586Y-15661947D02*
X3133109Y-15642899D01*
X3133109Y-15642899D02*
X3142633Y-15633376D01*
X3142633Y-15633376D02*
X3161681Y-15623852D01*
X3314062Y-15823852D02*
X3314062Y-15690518D01*
X3314062Y-15709566D02*
X3323586Y-15700042D01*
X3323586Y-15700042D02*
X3342633Y-15690518D01*
X3342633Y-15690518D02*
X3371205Y-15690518D01*
X3371205Y-15690518D02*
X3390252Y-15700042D01*
X3390252Y-15700042D02*
X3399776Y-15719090D01*
X3399776Y-15719090D02*
X3399776Y-15823852D01*
X3399776Y-15719090D02*
X3409300Y-15700042D01*
X3409300Y-15700042D02*
X3428348Y-15690518D01*
X3428348Y-15690518D02*
X3456919Y-15690518D01*
X3456919Y-15690518D02*
X3475967Y-15700042D01*
X3475967Y-15700042D02*
X3485490Y-15719090D01*
X3485490Y-15719090D02*
X3485490Y-15823852D01*
X3580729Y-15823852D02*
X3580729Y-15690518D01*
X3580729Y-15709566D02*
X3590252Y-15700042D01*
X3590252Y-15700042D02*
X3609300Y-15690518D01*
X3609300Y-15690518D02*
X3637871Y-15690518D01*
X3637871Y-15690518D02*
X3656919Y-15700042D01*
X3656919Y-15700042D02*
X3666443Y-15719090D01*
X3666443Y-15719090D02*
X3666443Y-15823852D01*
X3666443Y-15719090D02*
X3675967Y-15700042D01*
X3675967Y-15700042D02*
X3695014Y-15690518D01*
X3695014Y-15690518D02*
X3723586Y-15690518D01*
X3723586Y-15690518D02*
X3742633Y-15700042D01*
X3742633Y-15700042D02*
X3752157Y-15719090D01*
X3752157Y-15719090D02*
X3752157Y-15823852D01*
X4142633Y-15614328D02*
X3971205Y-15871471D01*
X4399776Y-15623852D02*
X4418824Y-15623852D01*
X4418824Y-15623852D02*
X4437872Y-15633376D01*
X4437872Y-15633376D02*
X4447395Y-15642899D01*
X4447395Y-15642899D02*
X4456919Y-15661947D01*
X4456919Y-15661947D02*
X4466443Y-15700042D01*
X4466443Y-15700042D02*
X4466443Y-15747661D01*
X4466443Y-15747661D02*
X4456919Y-15785756D01*
X4456919Y-15785756D02*
X4447395Y-15804804D01*
X4447395Y-15804804D02*
X4437872Y-15814328D01*
X4437872Y-15814328D02*
X4418824Y-15823852D01*
X4418824Y-15823852D02*
X4399776Y-15823852D01*
X4399776Y-15823852D02*
X4380729Y-15814328D01*
X4380729Y-15814328D02*
X4371205Y-15804804D01*
X4371205Y-15804804D02*
X4361681Y-15785756D01*
X4361681Y-15785756D02*
X4352157Y-15747661D01*
X4352157Y-15747661D02*
X4352157Y-15700042D01*
X4352157Y-15700042D02*
X4361681Y-15661947D01*
X4361681Y-15661947D02*
X4371205Y-15642899D01*
X4371205Y-15642899D02*
X4380729Y-15633376D01*
X4380729Y-15633376D02*
X4399776Y-15623852D01*
X4552157Y-15804804D02*
X4561681Y-15814328D01*
X4561681Y-15814328D02*
X4552157Y-15823852D01*
X4552157Y-15823852D02*
X4542634Y-15814328D01*
X4542634Y-15814328D02*
X4552157Y-15804804D01*
X4552157Y-15804804D02*
X4552157Y-15823852D01*
X4685491Y-15623852D02*
X4704538Y-15623852D01*
X4704538Y-15623852D02*
X4723586Y-15633376D01*
X4723586Y-15633376D02*
X4733110Y-15642899D01*
X4733110Y-15642899D02*
X4742634Y-15661947D01*
X4742634Y-15661947D02*
X4752157Y-15700042D01*
X4752157Y-15700042D02*
X4752157Y-15747661D01*
X4752157Y-15747661D02*
X4742634Y-15785756D01*
X4742634Y-15785756D02*
X4733110Y-15804804D01*
X4733110Y-15804804D02*
X4723586Y-15814328D01*
X4723586Y-15814328D02*
X4704538Y-15823852D01*
X4704538Y-15823852D02*
X4685491Y-15823852D01*
X4685491Y-15823852D02*
X4666443Y-15814328D01*
X4666443Y-15814328D02*
X4656919Y-15804804D01*
X4656919Y-15804804D02*
X4647395Y-15785756D01*
X4647395Y-15785756D02*
X4637872Y-15747661D01*
X4637872Y-15747661D02*
X4637872Y-15700042D01*
X4637872Y-15700042D02*
X4647395Y-15661947D01*
X4647395Y-15661947D02*
X4656919Y-15642899D01*
X4656919Y-15642899D02*
X4666443Y-15633376D01*
X4666443Y-15633376D02*
X4685491Y-15623852D01*
X4847395Y-15823852D02*
X4885491Y-15823852D01*
X4885491Y-15823852D02*
X4904538Y-15814328D01*
X4904538Y-15814328D02*
X4914062Y-15804804D01*
X4914062Y-15804804D02*
X4933110Y-15776233D01*
X4933110Y-15776233D02*
X4942634Y-15738137D01*
X4942634Y-15738137D02*
X4942634Y-15661947D01*
X4942634Y-15661947D02*
X4933110Y-15642899D01*
X4933110Y-15642899D02*
X4923586Y-15633376D01*
X4923586Y-15633376D02*
X4904538Y-15623852D01*
X4904538Y-15623852D02*
X4866443Y-15623852D01*
X4866443Y-15623852D02*
X4847395Y-15633376D01*
X4847395Y-15633376D02*
X4837872Y-15642899D01*
X4837872Y-15642899D02*
X4828348Y-15661947D01*
X4828348Y-15661947D02*
X4828348Y-15709566D01*
X4828348Y-15709566D02*
X4837872Y-15728614D01*
X4837872Y-15728614D02*
X4847395Y-15738137D01*
X4847395Y-15738137D02*
X4866443Y-15747661D01*
X4866443Y-15747661D02*
X4904538Y-15747661D01*
X4904538Y-15747661D02*
X4923586Y-15738137D01*
X4923586Y-15738137D02*
X4933110Y-15728614D01*
X4933110Y-15728614D02*
X4942634Y-15709566D01*
X5066443Y-15623852D02*
X5085491Y-15623852D01*
X5085491Y-15623852D02*
X5104538Y-15633376D01*
X5104538Y-15633376D02*
X5114062Y-15642899D01*
X5114062Y-15642899D02*
X5123586Y-15661947D01*
X5123586Y-15661947D02*
X5133110Y-15700042D01*
X5133110Y-15700042D02*
X5133110Y-15747661D01*
X5133110Y-15747661D02*
X5123586Y-15785756D01*
X5123586Y-15785756D02*
X5114062Y-15804804D01*
X5114062Y-15804804D02*
X5104538Y-15814328D01*
X5104538Y-15814328D02*
X5085491Y-15823852D01*
X5085491Y-15823852D02*
X5066443Y-15823852D01*
X5066443Y-15823852D02*
X5047395Y-15814328D01*
X5047395Y-15814328D02*
X5037872Y-15804804D01*
X5037872Y-15804804D02*
X5028348Y-15785756D01*
X5028348Y-15785756D02*
X5018824Y-15747661D01*
X5018824Y-15747661D02*
X5018824Y-15700042D01*
X5018824Y-15700042D02*
X5028348Y-15661947D01*
X5028348Y-15661947D02*
X5037872Y-15642899D01*
X5037872Y-15642899D02*
X5047395Y-15633376D01*
X5047395Y-15633376D02*
X5066443Y-15623852D01*
X5304538Y-15623852D02*
X5266443Y-15623852D01*
X5266443Y-15623852D02*
X5247395Y-15633376D01*
X5247395Y-15633376D02*
X5237872Y-15642899D01*
X5237872Y-15642899D02*
X5218824Y-15671471D01*
X5218824Y-15671471D02*
X5209300Y-15709566D01*
X5209300Y-15709566D02*
X5209300Y-15785756D01*
X5209300Y-15785756D02*
X5218824Y-15804804D01*
X5218824Y-15804804D02*
X5228348Y-15814328D01*
X5228348Y-15814328D02*
X5247395Y-15823852D01*
X5247395Y-15823852D02*
X5285491Y-15823852D01*
X5285491Y-15823852D02*
X5304538Y-15814328D01*
X5304538Y-15814328D02*
X5314062Y-15804804D01*
X5314062Y-15804804D02*
X5323586Y-15785756D01*
X5323586Y-15785756D02*
X5323586Y-15738137D01*
X5323586Y-15738137D02*
X5314062Y-15719090D01*
X5314062Y-15719090D02*
X5304538Y-15709566D01*
X5304538Y-15709566D02*
X5285491Y-15700042D01*
X5285491Y-15700042D02*
X5247395Y-15700042D01*
X5247395Y-15700042D02*
X5228348Y-15709566D01*
X5228348Y-15709566D02*
X5218824Y-15719090D01*
X5218824Y-15719090D02*
X5209300Y-15738137D01*
X5399776Y-15623852D02*
X5399776Y-15661947D01*
X5475967Y-15623852D02*
X5475967Y-15661947D01*
X5771205Y-15900042D02*
X5761681Y-15890518D01*
X5761681Y-15890518D02*
X5742634Y-15861947D01*
X5742634Y-15861947D02*
X5733110Y-15842899D01*
X5733110Y-15842899D02*
X5723586Y-15814328D01*
X5723586Y-15814328D02*
X5714062Y-15766709D01*
X5714062Y-15766709D02*
X5714062Y-15728614D01*
X5714062Y-15728614D02*
X5723586Y-15680995D01*
X5723586Y-15680995D02*
X5733110Y-15652423D01*
X5733110Y-15652423D02*
X5742634Y-15633376D01*
X5742634Y-15633376D02*
X5761681Y-15604804D01*
X5761681Y-15604804D02*
X5771205Y-15595280D01*
X5837872Y-15642899D02*
X5847395Y-15633376D01*
X5847395Y-15633376D02*
X5866443Y-15623852D01*
X5866443Y-15623852D02*
X5914062Y-15623852D01*
X5914062Y-15623852D02*
X5933110Y-15633376D01*
X5933110Y-15633376D02*
X5942634Y-15642899D01*
X5942634Y-15642899D02*
X5952157Y-15661947D01*
X5952157Y-15661947D02*
X5952157Y-15680995D01*
X5952157Y-15680995D02*
X5942634Y-15709566D01*
X5942634Y-15709566D02*
X5828348Y-15823852D01*
X5828348Y-15823852D02*
X5952157Y-15823852D01*
X6190253Y-15823852D02*
X6190253Y-15623852D01*
X6275967Y-15823852D02*
X6275967Y-15719090D01*
X6275967Y-15719090D02*
X6266443Y-15700042D01*
X6266443Y-15700042D02*
X6247396Y-15690518D01*
X6247396Y-15690518D02*
X6218824Y-15690518D01*
X6218824Y-15690518D02*
X6199776Y-15700042D01*
X6199776Y-15700042D02*
X6190253Y-15709566D01*
X6399776Y-15823852D02*
X6380729Y-15814328D01*
X6380729Y-15814328D02*
X6371205Y-15804804D01*
X6371205Y-15804804D02*
X6361681Y-15785756D01*
X6361681Y-15785756D02*
X6361681Y-15728614D01*
X6361681Y-15728614D02*
X6371205Y-15709566D01*
X6371205Y-15709566D02*
X6380729Y-15700042D01*
X6380729Y-15700042D02*
X6399776Y-15690518D01*
X6399776Y-15690518D02*
X6428348Y-15690518D01*
X6428348Y-15690518D02*
X6447396Y-15700042D01*
X6447396Y-15700042D02*
X6456919Y-15709566D01*
X6456919Y-15709566D02*
X6466443Y-15728614D01*
X6466443Y-15728614D02*
X6466443Y-15785756D01*
X6466443Y-15785756D02*
X6456919Y-15804804D01*
X6456919Y-15804804D02*
X6447396Y-15814328D01*
X6447396Y-15814328D02*
X6428348Y-15823852D01*
X6428348Y-15823852D02*
X6399776Y-15823852D01*
X6580729Y-15823852D02*
X6561681Y-15814328D01*
X6561681Y-15814328D02*
X6552157Y-15795280D01*
X6552157Y-15795280D02*
X6552157Y-15623852D01*
X6733110Y-15814328D02*
X6714062Y-15823852D01*
X6714062Y-15823852D02*
X6675967Y-15823852D01*
X6675967Y-15823852D02*
X6656919Y-15814328D01*
X6656919Y-15814328D02*
X6647396Y-15795280D01*
X6647396Y-15795280D02*
X6647396Y-15719090D01*
X6647396Y-15719090D02*
X6656919Y-15700042D01*
X6656919Y-15700042D02*
X6675967Y-15690518D01*
X6675967Y-15690518D02*
X6714062Y-15690518D01*
X6714062Y-15690518D02*
X6733110Y-15700042D01*
X6733110Y-15700042D02*
X6742634Y-15719090D01*
X6742634Y-15719090D02*
X6742634Y-15738137D01*
X6742634Y-15738137D02*
X6647396Y-15757185D01*
X6818824Y-15814328D02*
X6837872Y-15823852D01*
X6837872Y-15823852D02*
X6875967Y-15823852D01*
X6875967Y-15823852D02*
X6895015Y-15814328D01*
X6895015Y-15814328D02*
X6904538Y-15795280D01*
X6904538Y-15795280D02*
X6904538Y-15785756D01*
X6904538Y-15785756D02*
X6895015Y-15766709D01*
X6895015Y-15766709D02*
X6875967Y-15757185D01*
X6875967Y-15757185D02*
X6847396Y-15757185D01*
X6847396Y-15757185D02*
X6828348Y-15747661D01*
X6828348Y-15747661D02*
X6818824Y-15728614D01*
X6818824Y-15728614D02*
X6818824Y-15719090D01*
X6818824Y-15719090D02*
X6828348Y-15700042D01*
X6828348Y-15700042D02*
X6847396Y-15690518D01*
X6847396Y-15690518D02*
X6875967Y-15690518D01*
X6875967Y-15690518D02*
X6895015Y-15700042D01*
X6971205Y-15900042D02*
X6980729Y-15890518D01*
X6980729Y-15890518D02*
X6999777Y-15861947D01*
X6999777Y-15861947D02*
X7009300Y-15842899D01*
X7009300Y-15842899D02*
X7018824Y-15814328D01*
X7018824Y-15814328D02*
X7028348Y-15766709D01*
X7028348Y-15766709D02*
X7028348Y-15728614D01*
X7028348Y-15728614D02*
X7018824Y-15680995D01*
X7018824Y-15680995D02*
X7009300Y-15652423D01*
X7009300Y-15652423D02*
X6999777Y-15633376D01*
X6999777Y-15633376D02*
X6980729Y-15604804D01*
X6980729Y-15604804D02*
X6971205Y-15595280D01*
M02*
