%TF.GenerationSoftware,KiCad,Pcbnew,7.0.1*%
%TF.CreationDate,2023-10-29T18:03:12-07:00*%
%TF.ProjectId,expansionboardA,65787061-6e73-4696-9f6e-626f61726441,3*%
%TF.SameCoordinates,Original*%
%TF.FileFunction,Profile,NP*%
%FSLAX46Y46*%
G04 Gerber Fmt 4.6, Leading zero omitted, Abs format (unit mm)*
G04 Created by KiCad (PCBNEW 7.0.1) date 2023-10-29 18:03:12*
%MOMM*%
%LPD*%
G01*
G04 APERTURE LIST*
%TA.AperFunction,Profile*%
%ADD10C,0.010000*%
%TD*%
G04 APERTURE END LIST*
D10*
X133095986Y-82147115D02*
G75*
G03*
X132912359Y-80949034I-4000186J15D01*
G01*
X22298000Y-62357000D02*
G75*
G03*
X22098000Y-62557000I0J-200000D01*
G01*
X44640013Y-124508280D02*
X129096000Y-124508000D01*
X71831200Y-68681600D02*
X60782200Y-68681600D01*
X60782200Y-64998600D01*
X71831200Y-64998600D01*
X71831200Y-68681600D01*
X22098000Y-65000000D02*
G75*
G03*
X23098000Y-66000000I1000000J0D01*
G01*
X133096000Y-44738427D02*
G75*
G03*
X129096000Y-40738400I-4000000J27D01*
G01*
X40640000Y-120508280D02*
X40640226Y-88161064D01*
X40640020Y-120508280D02*
G75*
G03*
X44640013Y-124508280I3999980J-20D01*
G01*
X22298000Y-51054000D02*
X22387000Y-51054000D01*
X22098000Y-50854000D02*
G75*
G03*
X22298000Y-51054000I200000J0D01*
G01*
X133096000Y-120508000D02*
X133096000Y-82147115D01*
X44639857Y-40741421D02*
X129096000Y-40738400D01*
X22387000Y-62357000D02*
G75*
G03*
X22987000Y-61757000I0J600000D01*
G01*
X40063838Y-86756312D02*
X34511554Y-80569972D01*
X22987000Y-51654000D02*
X22987000Y-61757000D01*
X40640000Y-44741421D02*
X40640000Y-45498000D01*
X44639857Y-40741420D02*
G75*
G03*
X40640000Y-44741421I143J-4000000D01*
G01*
X22987000Y-51654000D02*
G75*
G03*
X22387000Y-51054000I-600000J0D01*
G01*
X38640000Y-47498000D02*
X23098000Y-47498000D01*
X40640214Y-88161064D02*
G75*
G03*
X40063837Y-86756313I-2000114J-36D01*
G01*
X23098000Y-66000000D02*
X31999782Y-66000000D01*
X87680800Y-114147600D02*
X76631800Y-114147600D01*
X76631800Y-110464600D01*
X87680800Y-110464600D01*
X87680800Y-114147600D01*
X33999994Y-79234130D02*
G75*
G03*
X34511554Y-80569972I2000006J30D01*
G01*
X132942182Y-59466540D02*
G75*
G03*
X133096000Y-58367925I-3846582J1098640D01*
G01*
X129096000Y-124508000D02*
G75*
G03*
X133096000Y-120508000I0J4000000D01*
G01*
X23098000Y-47498000D02*
G75*
G03*
X22098000Y-48498000I0J-1000000D01*
G01*
X33999800Y-67999970D02*
G75*
G03*
X31999782Y-66000000I-2000000J-30D01*
G01*
X38640000Y-47498000D02*
G75*
G03*
X40640000Y-45498000I0J2000000D01*
G01*
X22098000Y-48498000D02*
X22098000Y-50854000D01*
X133096000Y-58367925D02*
X133096000Y-44738427D01*
X132452000Y-61182600D02*
X132942173Y-59466537D01*
X22298000Y-62357000D02*
X22387000Y-62357000D01*
X22098000Y-62557000D02*
X22098000Y-65000000D01*
X33999782Y-67999970D02*
X33999986Y-79234130D01*
X132912360Y-80949034D02*
X132452000Y-79482600D01*
%TO.C,J3*%
X132450000Y-78090000D02*
X132450000Y-79490000D01*
X132450000Y-78090000D02*
X126150000Y-78090000D01*
X126150000Y-77090000D02*
X126150000Y-63590000D01*
X126150000Y-62590000D02*
X132450000Y-62590000D01*
X132450000Y-62590000D02*
X132450000Y-61190000D01*
X126150000Y-77090000D02*
G75*
G03*
X126150000Y-78090000I0J-500000D01*
G01*
X126150000Y-62590000D02*
G75*
G03*
X126150000Y-63590000I0J-500000D01*
G01*
%TD*%
M02*
