M48
; DRILL file {KiCad 7.0.1} date Mon Jul 31 18:04:33 2023
; FORMAT={-:-/ absolute / inch / decimal}
; #@! TF.CreationDate,2023-07-31T18:04:33-07:00
; #@! TF.GenerationSoftware,Kicad,Pcbnew,7.0.1
; #@! TF.FileFunction,Plated,1,2,PTH
FMAT,2
INCH
; #@! TA.AperFunction,Plated,PTH,ViaDrill
T1C0.0157
; #@! TA.AperFunction,Plated,PTH,ComponentDrill
T2C0.0157
; #@! TA.AperFunction,Plated,PTH,ComponentDrill
T3C0.0197
; #@! TA.AperFunction,Plated,PTH,ComponentDrill
T4C0.0217
; #@! TA.AperFunction,Plated,PTH,ComponentDrill
T5C0.0236
; #@! TA.AperFunction,Plated,PTH,ComponentDrill
T6C0.0315
; #@! TA.AperFunction,Plated,PTH,ComponentDrill
T7C0.0374
; #@! TA.AperFunction,Plated,PTH,ComponentDrill
T8C0.0390
; #@! TA.AperFunction,Plated,PTH,ComponentDrill
T9C0.0394
; #@! TA.AperFunction,Plated,PTH,ComponentDrill
T10C0.0512
; #@! TA.AperFunction,Plated,PTH,ComponentDrill
T11C0.0906
%
G90
G05
T1
X1.1Y-2.2
X1.157Y-3.124
X1.176Y-2.864
X1.179Y-2.965
X1.18Y-3.02
X1.185Y-3.239
X1.2125Y-3.364
X1.2564Y-3.03
X1.321Y-3.478
X1.327Y-3.091
X1.38Y-2.35
X1.387Y-2.707
X1.4Y-2.01
X1.4021Y-3.1672
X1.45Y-2.24
X1.48Y-4.26
X1.53Y-2.62
X1.55Y-2.74
X1.611Y-2.683
X1.62Y-3.779
X1.65Y-3.57
X1.701Y-3.952
X2.02Y-2.37
X2.027Y-1.757
X2.057Y-3.578
X2.14Y-3.94
X2.15Y-1.5
X2.17Y-3.35
X2.26Y-2.27
X2.348Y-1.867
X2.39Y-3.48
X2.459Y-3.94
X2.465Y-3.385
X2.4815Y-2.0695
X2.52Y-4.855
X2.525Y-4.645
X2.57Y-3.17
X2.57Y-3.28
X2.578Y-2.754
X2.62Y-3.221
X2.68Y-3.82
X2.695Y-2.085
X2.745Y-2.32
X3.02Y-4.26
X3.07Y-4.51
X3.09Y-4.12
X3.12Y-4.25
X3.18Y-4.19
X3.21Y-3.97
X3.23Y-4.51
X3.2683Y-1.615
X3.43Y-3.3
X3.5083Y-1.61
X3.72Y-3.92
X3.7433Y-1.615
X3.775Y-4.615
X3.88Y-1.87
X3.935Y-3.3
X3.9633Y-1.615
X3.969Y-4.167
X4.075Y-2.245
X4.415Y-1.8
X4.485Y-3.335
X4.575Y-3.025
X4.59Y-2.31
X4.622Y-4.71
X4.795Y-3.385
X4.8146Y-3.0256
X4.85Y-3.6
X4.886Y-3.41
X4.915Y-3.835
X4.915Y-4.27
X5.075Y-1.51
X5.17Y-4.5003
T2
X4.9983Y-4.3831
X4.9983Y-4.4166
X4.9983Y-4.4501
X4.9983Y-4.4835
X4.9983Y-4.517
X4.9983Y-4.5505
X4.9983Y-4.5839
X4.9983Y-4.6174
X5.0515Y-4.3831
X5.0515Y-4.4166
X5.0515Y-4.4501
X5.0515Y-4.4835
X5.0515Y-4.517
X5.0515Y-4.5505
X5.0515Y-4.5839
X5.0515Y-4.6174
T3
X2.6763Y-2.2732
X2.6763Y-2.3732
X3.2997Y-3.9534
X3.3704Y-4.0241
T4
X4.8572Y-2.6115
X4.8572Y-2.6509
X4.8572Y-2.6903
X4.8572Y-2.7296
X4.8572Y-2.769
X4.8572Y-2.8084
X4.8572Y-2.8477
X4.8572Y-2.8871
X4.8572Y-2.9265
X4.9182Y-2.5918
X4.9182Y-2.6312
X4.9182Y-2.6706
X4.9182Y-2.7099
X4.9182Y-2.7493
X4.9182Y-2.7887
X4.9182Y-2.8281
X4.9182Y-2.8674
X4.9182Y-2.9068
X4.9182Y-2.9462
T7
X2.3079Y-1.586
X2.4063Y-1.586
X2.485Y-1.586
X2.5835Y-1.586
T8
X5.005Y-1.665
X5.005Y-1.8422
T9
X1.28Y-3.6837
X1.28Y-3.7837
X1.28Y-3.8837
X1.28Y-3.9837
X1.28Y-4.0837
X1.38Y-3.6837
X1.38Y-3.7837
X1.38Y-3.8837
X1.38Y-3.9837
X1.38Y-4.0837
X1.7984Y-1.7
X1.7984Y-1.8
X1.7984Y-1.9
X1.7984Y-2.0
X1.7984Y-2.1
X1.7984Y-2.2
X1.7984Y-2.3
X1.7984Y-2.4
X1.7984Y-2.5
X1.7984Y-2.6
X1.7984Y-2.7
X1.7984Y-2.8
X1.7984Y-2.9
X1.7984Y-3.0
X1.7984Y-3.1
X1.7984Y-3.2
X1.7984Y-3.3
X1.7984Y-3.4
X1.7984Y-3.5
X1.7984Y-3.6
X1.7984Y-3.7
X1.7984Y-3.8
X1.7984Y-3.9
X1.7984Y-4.0
X1.7984Y-4.1
X1.7984Y-4.2
X1.7984Y-4.3
X1.7984Y-4.4
X1.7984Y-4.5
X1.7984Y-4.6
X1.7984Y-4.7
X1.7984Y-4.8
X1.8984Y-1.7
X1.8984Y-1.8
X1.8984Y-1.9
X1.8984Y-2.0
X1.8984Y-2.1
X1.8984Y-2.2
X1.8984Y-2.3
X1.8984Y-2.4
X1.8984Y-2.5
X1.8984Y-2.6
X1.8984Y-2.7
X1.8984Y-2.8
X1.8984Y-2.9
X1.8984Y-3.0
X1.8984Y-3.1
X1.8984Y-3.2
X1.8984Y-3.3
X1.8984Y-3.4
X1.8984Y-3.5
X1.8984Y-3.6
X1.8984Y-3.7
X1.8984Y-3.8
X1.8984Y-3.9
X1.8984Y-4.0
X1.8984Y-4.1
X1.8984Y-4.2
X1.8984Y-4.3
X1.8984Y-4.4
X1.8984Y-4.5
X1.8984Y-4.6
X1.8984Y-4.7
X1.8984Y-4.8
X4.2Y-1.7
X4.2Y-1.8
X4.2Y-1.9
X4.2Y-2.0
X4.2Y-2.1
X4.2Y-2.2
X4.2Y-2.3
X4.2Y-2.4
X4.2Y-2.5
X4.2Y-2.6
X4.2Y-2.7
X4.2Y-2.8
X4.2Y-2.9
X4.2Y-3.0
X4.2Y-3.1
X4.2Y-3.2
X4.2Y-3.3
X4.2Y-3.4
X4.2Y-3.5
X4.2Y-3.6
X4.2Y-3.7
X4.2Y-3.8
X4.2Y-3.9
X4.2Y-4.0
X4.2Y-4.1
X4.2Y-4.2
X4.2Y-4.3
X4.2Y-4.4
X4.2Y-4.6
X4.2Y-4.7
X4.2Y-4.8
X4.3Y-1.7
X4.3Y-1.8
X4.3Y-1.9
X4.3Y-2.0
X4.3Y-2.1
X4.3Y-2.2
X4.3Y-2.3
X4.3Y-2.4
X4.3Y-2.5
X4.3Y-2.6
X4.3Y-2.7
X4.3Y-2.8
X4.3Y-2.9
X4.3Y-3.0
X4.3Y-3.1
X4.3Y-3.2
X4.3Y-3.3
X4.3Y-3.4
X4.3Y-3.5
X4.3Y-3.6
X4.3Y-3.7
X4.3Y-3.8
X4.3Y-3.9
X4.3Y-4.0
X4.3Y-4.1
X4.3Y-4.2
X4.3Y-4.3
X4.3Y-4.4
X4.3Y-4.6
X4.3Y-4.7
X4.3Y-4.8
X4.5002Y-1.7
X4.6002Y-1.7
T10
X4.907Y-1.6156
X4.907Y-1.8916
T11
X2.187Y-1.4793
X2.7043Y-1.4793
T5
G00X5.0665Y-4.33
M15
G01X5.0074Y-4.33
M16
G05
G00X5.0665Y-4.6706
M15
G01X5.0074Y-4.6706
M16
G05
G00X5.1857Y-4.33
M15
G01X5.1543Y-4.33
M16
G05
G00X5.1857Y-4.6706
M15
G01X5.1543Y-4.6706
M16
G05
T6
G00X4.8761Y-2.4088
M15
G01X4.8249Y-2.4088
M16
G05
G00X4.8761Y-3.1292
M15
G01X4.8249Y-3.1292
M16
G05
G00X5.1556Y-2.4088
M15
G01X5.1044Y-2.4088
M16
G05
G00X5.1556Y-3.1292
M15
G01X5.1044Y-3.1292
M16
G05
T0
M30
