M48
; DRILL file {KiCad 7.0.8} date Mon Dec 18 15:19:53 2023
; FORMAT={-:-/ absolute / inch / decimal}
; #@! TF.CreationDate,2023-12-18T15:19:53-08:00
; #@! TF.GenerationSoftware,Kicad,Pcbnew,7.0.8
; #@! TF.FileFunction,Plated,1,2,PTH
FMAT,2
INCH
; #@! TA.AperFunction,Plated,PTH,ViaDrill
T1C0.0118
; #@! TA.AperFunction,Plated,PTH,ViaDrill
T2C0.0157
; #@! TA.AperFunction,Plated,PTH,ComponentDrill
T3C0.0157
; #@! TA.AperFunction,Plated,PTH,ComponentDrill
T4C0.0217
; #@! TA.AperFunction,Plated,PTH,ComponentDrill
T5C0.0236
; #@! TA.AperFunction,Plated,PTH,ComponentDrill
T6C0.0315
; #@! TA.AperFunction,Plated,PTH,ComponentDrill
T7C0.0374
; #@! TA.AperFunction,Plated,PTH,ComponentDrill
T8C0.0390
; #@! TA.AperFunction,Plated,PTH,ComponentDrill
T9C0.0394
; #@! TA.AperFunction,Plated,PTH,ComponentDrill
T10C0.0512
; #@! TA.AperFunction,Plated,PTH,ComponentDrill
T11C0.0866
; #@! TA.AperFunction,Plated,PTH,ComponentDrill
T12C0.0906
%
G90
G05
T1
X5.1402Y-2.7923
X5.1535Y-2.7667
T2
X1.1Y-2.2
X1.38Y-2.35
X1.3937Y-2.6299
X1.4Y-2.01
X1.6634Y-2.3228
X1.7165Y-2.2402
X2.0472Y-2.248
X2.8189Y-4.4705
X2.9409Y-4.3858
X3.5157Y-2.124
X3.7165Y-2.0315
X4.0866Y-4.3465
X4.3819Y-2.3504
X4.4321Y-2.7598
X4.5138Y-2.3573
X4.5374Y-2.5531
X4.622Y-3.313
X4.6929Y-2.6496
X4.7677Y-2.7382
X4.7953Y-4.1713
X4.8622Y-2.8701
X4.9449Y-2.7047
X4.9685Y-2.7953
X5.0522Y-2.562
X5.1555Y-2.5394
X5.3386Y-2.2087
X5.3839Y-2.7874
X5.3976Y-2.4291
X5.4321Y-2.9065
X5.7441Y-3.75
X5.7982Y-2.2283
X5.9587Y-4.3696
T3
X0.9488Y-4.753
X0.9596Y-1.75
X0.9678Y-4.707
X0.9678Y-4.7989
X0.9787Y-1.7041
X0.9787Y-1.7959
X1.0138Y-4.688
X1.0138Y-4.8179
X1.0246Y-1.685
X1.0246Y-1.815
X1.0597Y-4.707
X1.0597Y-4.7989
X1.0705Y-1.7041
X1.0705Y-1.7959
X1.0787Y-4.753
X1.0896Y-1.75
X2.958Y-3.2297
X2.977Y-3.1837
X2.977Y-3.2756
X3.023Y-3.1647
X3.023Y-3.2946
X3.0689Y-3.1837
X3.0689Y-3.2756
X3.0879Y-3.2297
X5.7772Y-4.2539
X5.7772Y-4.2874
X5.7772Y-4.3209
X5.7772Y-4.3543
X5.7772Y-4.3878
X5.7772Y-4.4213
X5.7772Y-4.4547
X5.7772Y-4.4882
X5.81Y-4.7638
X5.8209Y-1.75
X5.8291Y-4.7178
X5.8291Y-4.8097
X5.8303Y-4.2539
X5.8303Y-4.2874
X5.8303Y-4.3209
X5.8303Y-4.3543
X5.8303Y-4.3878
X5.8303Y-4.4213
X5.8303Y-4.4547
X5.8303Y-4.4882
X5.8399Y-1.7041
X5.8399Y-1.7959
X5.875Y-4.6988
X5.875Y-4.8287
X5.8858Y-1.685
X5.8858Y-1.815
X5.9209Y-4.7178
X5.9209Y-4.8097
X5.9318Y-1.7041
X5.9318Y-1.7959
X5.94Y-4.7638
X5.9508Y-1.75
T4
X5.6445Y-2.6118
X5.6445Y-2.6512
X5.6445Y-2.6906
X5.6445Y-2.7299
X5.6445Y-2.7693
X5.6445Y-2.8087
X5.6445Y-2.848
X5.6445Y-2.8874
X5.6445Y-2.9268
X5.7055Y-2.5921
X5.7055Y-2.6315
X5.7055Y-2.6709
X5.7055Y-2.7102
X5.7055Y-2.7496
X5.7055Y-2.789
X5.7055Y-2.8283
X5.7055Y-2.8677
X5.7055Y-2.9071
X5.7055Y-2.9465
T7
X2.4252Y-2.0787
X2.5236Y-2.0787
X2.6024Y-2.0787
X2.7008Y-2.0787
T8
X1.0673Y-4.3659
X1.0673Y-4.5431
T9
X0.9803Y-2.6378
X0.9803Y-2.7378
X0.9803Y-2.8378
X0.9803Y-2.9378
X1.7984Y-1.7
X1.7984Y-1.8
X1.7984Y-1.9
X1.7984Y-2.0
X1.7984Y-2.1
X1.7984Y-2.2
X1.7984Y-2.3
X1.7984Y-2.4
X1.7984Y-2.5
X1.7984Y-2.6
X1.7984Y-2.7
X1.7984Y-2.8
X1.7984Y-2.9
X1.7984Y-3.0
X1.7984Y-3.1
X1.7984Y-3.2
X1.7984Y-3.3
X1.7984Y-3.4
X1.7984Y-3.5
X1.7984Y-3.6
X1.7984Y-3.7
X1.7984Y-3.8
X1.7984Y-3.9
X1.7984Y-4.0
X1.7984Y-4.1
X1.7984Y-4.2
X1.7984Y-4.3
X1.7984Y-4.4
X1.7984Y-4.5
X1.7984Y-4.6
X1.7984Y-4.7
X1.7984Y-4.8
X1.8984Y-1.7
X1.8984Y-1.8
X1.8984Y-1.9
X1.8984Y-2.0
X1.8984Y-2.1
X1.8984Y-2.2
X1.8984Y-2.3
X1.8984Y-2.4
X1.8984Y-2.5
X1.8984Y-2.6
X1.8984Y-2.7
X1.8984Y-2.8
X1.8984Y-2.9
X1.8984Y-3.0
X1.8984Y-3.1
X1.8984Y-3.2
X1.8984Y-3.3
X1.8984Y-3.4
X1.8984Y-3.5
X1.8984Y-3.6
X1.8984Y-3.7
X1.8984Y-3.8
X1.8984Y-3.9
X1.8984Y-4.0
X1.8984Y-4.1
X1.8984Y-4.2
X1.8984Y-4.3
X1.8984Y-4.4
X1.8984Y-4.5
X1.8984Y-4.6
X1.8984Y-4.7
X1.8984Y-4.8
X4.2Y-1.7
X4.2Y-1.8
X4.2Y-1.9
X4.2Y-2.0
X4.2Y-2.1
X4.2Y-2.2
X4.2Y-2.3
X4.2Y-2.4
X4.2Y-2.5
X4.2Y-2.6
X4.2Y-2.7
X4.2Y-2.8
X4.2Y-2.9
X4.2Y-3.0
X4.2Y-3.1
X4.2Y-3.2
X4.2Y-3.3
X4.2Y-3.4
X4.2Y-3.5
X4.2Y-3.6
X4.2Y-3.7
X4.2Y-3.8
X4.2Y-3.9
X4.2Y-4.0
X4.2Y-4.1
X4.2Y-4.2
X4.2Y-4.3
X4.2Y-4.4
X4.2Y-4.6
X4.2Y-4.7
X4.2Y-4.8
X4.3Y-1.7
X4.3Y-1.8
X4.3Y-1.9
X4.3Y-2.0
X4.3Y-2.1
X4.3Y-2.2
X4.3Y-2.3
X4.3Y-2.4
X4.3Y-2.5
X4.3Y-2.6
X4.3Y-2.7
X4.3Y-2.8
X4.3Y-2.9
X4.3Y-3.0
X4.3Y-3.1
X4.3Y-3.2
X4.3Y-3.3
X4.3Y-3.4
X4.3Y-3.5
X4.3Y-3.6
X4.3Y-3.7
X4.3Y-3.8
X4.3Y-3.9
X4.3Y-4.0
X4.3Y-4.1
X4.3Y-4.2
X4.3Y-4.3
X4.3Y-4.4
X4.3Y-4.6
X4.3Y-4.7
X4.3Y-4.8
X5.3616Y-1.74
X5.4616Y-1.74
T10
X1.1654Y-4.3165
X1.1654Y-4.5925
T11
X1.0138Y-4.753
X1.0246Y-1.75
X3.023Y-3.2297
X5.875Y-4.7638
X5.8858Y-1.75
T12
X2.3043Y-1.972
X2.8217Y-1.972
T5
G00X5.7862Y-4.2008
M15
G01X5.8453Y-4.2008
M16
G05
G00X5.7862Y-4.5413
M15
G01X5.8453Y-4.5413
M16
G05
G00X5.9331Y-4.2008
M15
G01X5.9646Y-4.2008
M16
G05
G00X5.9331Y-4.5413
M15
G01X5.9646Y-4.5413
M16
G05
T6
G00X5.6122Y-2.4091
M15
G01X5.6634Y-2.4091
M16
G05
G00X5.6122Y-3.1295
M15
G01X5.6634Y-3.1295
M16
G05
G00X5.8917Y-2.4091
M15
G01X5.9429Y-2.4091
M16
G05
G00X5.8917Y-3.1295
M15
G01X5.9429Y-3.1295
M16
G05
T0
M30
