%TF.GenerationSoftware,KiCad,Pcbnew,8.0.0*%
%TF.CreationDate,2024-03-17T00:30:10-07:00*%
%TF.ProjectId,expansionboardA,65787061-6e73-4696-9f6e-626f61726441,3*%
%TF.SameCoordinates,Original*%
%TF.FileFunction,Paste,Bot*%
%TF.FilePolarity,Positive*%
%FSLAX46Y46*%
G04 Gerber Fmt 4.6, Leading zero omitted, Abs format (unit mm)*
G04 Created by KiCad (PCBNEW 8.0.0) date 2024-03-17 00:30:10*
%MOMM*%
%LPD*%
G01*
G04 APERTURE LIST*
G04 Aperture macros list*
%AMRoundRect*
0 Rectangle with rounded corners*
0 $1 Rounding radius*
0 $2 $3 $4 $5 $6 $7 $8 $9 X,Y pos of 4 corners*
0 Add a 4 corners polygon primitive as box body*
4,1,4,$2,$3,$4,$5,$6,$7,$8,$9,$2,$3,0*
0 Add four circle primitives for the rounded corners*
1,1,$1+$1,$2,$3*
1,1,$1+$1,$4,$5*
1,1,$1+$1,$6,$7*
1,1,$1+$1,$8,$9*
0 Add four rect primitives between the rounded corners*
20,1,$1+$1,$2,$3,$4,$5,0*
20,1,$1+$1,$4,$5,$6,$7,0*
20,1,$1+$1,$6,$7,$8,$9,0*
20,1,$1+$1,$8,$9,$2,$3,0*%
%AMRotRect*
0 Rectangle, with rotation*
0 The origin of the aperture is its center*
0 $1 length*
0 $2 width*
0 $3 Rotation angle, in degrees counterclockwise*
0 Add horizontal line*
21,1,$1,$2,0,0,$3*%
G04 Aperture macros list end*
%ADD10RoundRect,0.237500X0.237500X-0.300000X0.237500X0.300000X-0.237500X0.300000X-0.237500X-0.300000X0*%
%ADD11RoundRect,0.237500X-0.300000X-0.237500X0.300000X-0.237500X0.300000X0.237500X-0.300000X0.237500X0*%
%ADD12RoundRect,0.237500X0.250000X0.237500X-0.250000X0.237500X-0.250000X-0.237500X0.250000X-0.237500X0*%
%ADD13RoundRect,0.237500X-0.237500X0.300000X-0.237500X-0.300000X0.237500X-0.300000X0.237500X0.300000X0*%
%ADD14RoundRect,0.237500X-0.237500X0.250000X-0.237500X-0.250000X0.237500X-0.250000X0.237500X0.250000X0*%
%ADD15R,2.200000X2.800000*%
%ADD16R,2.800000X2.800000*%
%ADD17R,2.150000X0.950000*%
%ADD18R,2.150000X3.250000*%
%ADD19RoundRect,0.011600X-0.133400X0.793400X-0.133400X-0.793400X0.133400X-0.793400X0.133400X0.793400X0*%
%ADD20RoundRect,0.011600X0.793400X0.133400X-0.793400X0.133400X-0.793400X-0.133400X0.793400X-0.133400X0*%
%ADD21RoundRect,0.250000X1.050000X0.550000X-1.050000X0.550000X-1.050000X-0.550000X1.050000X-0.550000X0*%
%ADD22RoundRect,0.250000X-0.550000X1.050000X-0.550000X-1.050000X0.550000X-1.050000X0.550000X1.050000X0*%
%ADD23RoundRect,0.237500X-0.250000X-0.237500X0.250000X-0.237500X0.250000X0.237500X-0.250000X0.237500X0*%
%ADD24R,1.308100X0.304800*%
%ADD25R,0.270000X1.355601*%
%ADD26R,1.355601X0.270000*%
%ADD27RoundRect,0.250001X-0.462499X-0.624999X0.462499X-0.624999X0.462499X0.624999X-0.462499X0.624999X0*%
%ADD28R,1.200000X0.700000*%
%ADD29R,1.200000X1.000000*%
%ADD30R,2.800000X1.000000*%
%ADD31R,1.900000X1.300000*%
%ADD32R,0.800000X1.000000*%
%ADD33RoundRect,0.250000X-0.337500X-0.475000X0.337500X-0.475000X0.337500X0.475000X-0.337500X0.475000X0*%
%ADD34RotRect,1.200000X1.400000X135.000000*%
%ADD35RoundRect,0.237500X0.237500X-0.250000X0.237500X0.250000X-0.237500X0.250000X-0.237500X-0.250000X0*%
%ADD36RoundRect,0.237500X0.300000X0.237500X-0.300000X0.237500X-0.300000X-0.237500X0.300000X-0.237500X0*%
%ADD37R,1.400000X1.200000*%
%ADD38RoundRect,0.038500X-0.706500X-0.236500X0.706500X-0.236500X0.706500X0.236500X-0.706500X0.236500X0*%
%ADD39RoundRect,0.038500X-0.236500X0.706500X-0.236500X-0.706500X0.236500X-0.706500X0.236500X0.706500X0*%
%ADD40R,0.889000X1.498600*%
%ADD41R,0.812800X0.812800*%
G04 APERTURE END LIST*
D10*
%TO.C,C14*%
X129347222Y-89875000D03*
X129347222Y-88150000D03*
%TD*%
D11*
%TO.C,C15*%
X88375000Y-59700000D03*
X90100000Y-59700000D03*
%TD*%
D12*
%TO.C,R10*%
X141200000Y-112200000D03*
X139375000Y-112200000D03*
%TD*%
D10*
%TO.C,C2*%
X87500000Y-106225000D03*
X87500000Y-104500000D03*
%TD*%
D12*
%TO.C,R23*%
X115625000Y-61675000D03*
X113800000Y-61675000D03*
%TD*%
D13*
%TO.C,C13*%
X126238889Y-99225000D03*
X126238889Y-100950000D03*
%TD*%
D11*
%TO.C,C16*%
X86237500Y-53500000D03*
X87962500Y-53500000D03*
%TD*%
D14*
%TO.C,R1*%
X58500000Y-118587500D03*
X58500000Y-120412500D03*
%TD*%
D10*
%TO.C,C4*%
X92130000Y-115120000D03*
X92130000Y-113395000D03*
%TD*%
D15*
%TO.C,AU1*%
X150400000Y-98500000D03*
D16*
X141000000Y-98500000D03*
D15*
X148400000Y-91100000D03*
%TD*%
D17*
%TO.C,VR1*%
X64335001Y-111885001D03*
X64335001Y-114185001D03*
X64335001Y-116485001D03*
D18*
X58535001Y-114185001D03*
%TD*%
D19*
%TO.C,U3*%
X118900000Y-65100000D03*
X119400000Y-65100000D03*
X119900000Y-65100000D03*
X120400000Y-65100000D03*
X120900000Y-65100000D03*
X121400000Y-65100000D03*
X121900000Y-65100000D03*
X122400000Y-65100000D03*
X122900000Y-65100000D03*
X123400000Y-65100000D03*
X123900000Y-65100000D03*
X124400000Y-65100000D03*
X124900000Y-65100000D03*
X125400000Y-65100000D03*
X125900000Y-65100000D03*
X126400000Y-65100000D03*
D20*
X128250000Y-66950000D03*
X128250000Y-67450000D03*
X128250000Y-67950000D03*
X128250000Y-68450000D03*
X128250000Y-68950000D03*
X128250000Y-69450000D03*
X128250000Y-69950000D03*
X128250000Y-70450000D03*
X128250000Y-70950000D03*
X128250000Y-71450000D03*
X128250000Y-71950000D03*
X128250000Y-72450000D03*
X128250000Y-72950000D03*
X128250000Y-73450000D03*
X128250000Y-73950000D03*
X128250000Y-74450000D03*
D19*
X126400000Y-76300000D03*
X125900000Y-76300000D03*
X125400000Y-76300000D03*
X124900000Y-76300000D03*
X124400000Y-76300000D03*
X123900000Y-76300000D03*
X123400000Y-76300000D03*
X122900000Y-76300000D03*
X122400000Y-76300000D03*
X121900000Y-76300000D03*
X121400000Y-76300000D03*
X120900000Y-76300000D03*
X120400000Y-76300000D03*
X119900000Y-76300000D03*
X119400000Y-76300000D03*
X118900000Y-76300000D03*
D20*
X117050000Y-74450000D03*
X117050000Y-73950000D03*
X117050000Y-73450000D03*
X117050000Y-72950000D03*
X117050000Y-72450000D03*
X117050000Y-71950000D03*
X117050000Y-71450000D03*
X117050000Y-70950000D03*
X117050000Y-70450000D03*
X117050000Y-69950000D03*
X117050000Y-69450000D03*
X117050000Y-68950000D03*
X117050000Y-68450000D03*
X117050000Y-67950000D03*
X117050000Y-67450000D03*
X117050000Y-66950000D03*
%TD*%
D21*
%TO.C,C5*%
X141500000Y-105000000D03*
X137900000Y-105000000D03*
%TD*%
D11*
%TO.C,C12*%
X130975000Y-93500000D03*
X132700000Y-93500000D03*
%TD*%
D14*
%TO.C,R16*%
X66100000Y-56775000D03*
X66100000Y-58600000D03*
%TD*%
D10*
%TO.C,C9*%
X132572223Y-100950000D03*
X132572223Y-99225000D03*
%TD*%
D22*
%TO.C,C20*%
X59400000Y-57700000D03*
X59400000Y-61300000D03*
%TD*%
D23*
%TO.C,R20*%
X131000000Y-59100000D03*
X132825000Y-59100000D03*
%TD*%
%TO.C,R19*%
X131000000Y-61075000D03*
X132825000Y-61075000D03*
%TD*%
D24*
%TO.C,U6*%
X124157200Y-95632000D03*
X124157200Y-95124000D03*
X124157200Y-94616000D03*
X124157200Y-94108000D03*
X124157200Y-93600000D03*
X128462500Y-93600000D03*
X128462500Y-94108000D03*
X128462500Y-94616000D03*
X128462500Y-95124000D03*
X128462500Y-95632000D03*
%TD*%
D25*
%TO.C,U7*%
X92500002Y-48044398D03*
X93000001Y-48044398D03*
X93500000Y-48044398D03*
X94000001Y-48044398D03*
X94500001Y-48044398D03*
X95000002Y-48044398D03*
X95500001Y-48044398D03*
X96000000Y-48044398D03*
D26*
X97527802Y-49572200D03*
X97527802Y-50072199D03*
X97527802Y-50572198D03*
X97527802Y-51072199D03*
X97527802Y-51572199D03*
X97527802Y-52072200D03*
X97527802Y-52572199D03*
X97527802Y-53072198D03*
D25*
X96000000Y-54600000D03*
X95500001Y-54600000D03*
X95000002Y-54600000D03*
X94500001Y-54600000D03*
X94000001Y-54600000D03*
X93500000Y-54600000D03*
X93000001Y-54600000D03*
X92500002Y-54600000D03*
D26*
X90972200Y-53072198D03*
X90972200Y-52572199D03*
X90972200Y-52072200D03*
X90972200Y-51572199D03*
X90972200Y-51072199D03*
X90972200Y-50572198D03*
X90972200Y-50072199D03*
X90972200Y-49572200D03*
%TD*%
D23*
%TO.C,R2*%
X101675000Y-104750000D03*
X103500000Y-104750000D03*
%TD*%
D12*
%TO.C,R6*%
X33750000Y-68630000D03*
X31925000Y-68630000D03*
%TD*%
%TO.C,R9*%
X141200000Y-109900000D03*
X139375000Y-109900000D03*
%TD*%
D27*
%TO.C,D4*%
X23387500Y-71170000D03*
X26362500Y-71170000D03*
%TD*%
D23*
%TO.C,R15*%
X131000000Y-57125000D03*
X132825000Y-57125000D03*
%TD*%
D28*
%TO.C,CRD1*%
X38671200Y-53492000D03*
X38671200Y-54592000D03*
X38671200Y-55692000D03*
X38671200Y-56792000D03*
X38671200Y-57892000D03*
X38671200Y-58992000D03*
X38671200Y-60092000D03*
X38671200Y-61192000D03*
D29*
X34371200Y-63092000D03*
D30*
X24021200Y-63092000D03*
D31*
X23571200Y-49592000D03*
D29*
X38671200Y-51942000D03*
D32*
X28171200Y-63092000D03*
D28*
X38671200Y-62142000D03*
%TD*%
D23*
%TO.C,R21*%
X125400000Y-80800000D03*
X127225000Y-80800000D03*
%TD*%
D33*
%TO.C,C6*%
X68555301Y-114058001D03*
X70630301Y-114058001D03*
%TD*%
D14*
%TO.C,R13*%
X131458333Y-88100000D03*
X131458333Y-89925000D03*
%TD*%
D12*
%TO.C,R4*%
X33750000Y-73710000D03*
X31925000Y-73710000D03*
%TD*%
D27*
%TO.C,D5*%
X23387500Y-68581834D03*
X26362500Y-68581834D03*
%TD*%
D34*
%TO.C,Y1*%
X97185634Y-112814366D03*
X95630000Y-114370000D03*
X94498630Y-113238628D03*
X96054264Y-111682994D03*
%TD*%
D14*
%TO.C,R17*%
X64100000Y-56775000D03*
X64100000Y-58600000D03*
%TD*%
D12*
%TO.C,R3*%
X33750000Y-76250000D03*
X31925000Y-76250000D03*
%TD*%
D35*
%TO.C,R11*%
X124127778Y-101000000D03*
X124127778Y-99175000D03*
%TD*%
D12*
%TO.C,R5*%
X33750000Y-71170000D03*
X31925000Y-71170000D03*
%TD*%
D36*
%TO.C,C11*%
X122275000Y-92062500D03*
X120550000Y-92062500D03*
%TD*%
D27*
%TO.C,D2*%
X23389428Y-76267312D03*
X26364428Y-76267312D03*
%TD*%
D12*
%TO.C,R18*%
X132825000Y-55150000D03*
X131000000Y-55150000D03*
%TD*%
D10*
%TO.C,C8*%
X135680555Y-89875000D03*
X135680555Y-88150000D03*
%TD*%
%TO.C,C3*%
X99380000Y-114370000D03*
X99380000Y-112645000D03*
%TD*%
D35*
%TO.C,R7*%
X133569444Y-89925000D03*
X133569444Y-88100000D03*
%TD*%
D36*
%TO.C,C10*%
X122300000Y-89762500D03*
X120575000Y-89762500D03*
%TD*%
D27*
%TO.C,D1*%
X53801928Y-122699915D03*
X56776928Y-122699915D03*
%TD*%
D37*
%TO.C,Y2*%
X90156497Y-57187868D03*
X87956497Y-57187868D03*
X87956497Y-55587868D03*
X90156497Y-55587868D03*
%TD*%
D33*
%TO.C,C7*%
X68555301Y-117106001D03*
X70630301Y-117106001D03*
%TD*%
D35*
%TO.C,R12*%
X128350000Y-101000000D03*
X128350000Y-99175000D03*
%TD*%
D11*
%TO.C,C18*%
X91202802Y-45372200D03*
X92927802Y-45372200D03*
%TD*%
D10*
%TO.C,C1*%
X85620000Y-106242500D03*
X85620000Y-104517500D03*
%TD*%
D38*
%TO.C,U1*%
X90160000Y-106000000D03*
X90160000Y-105200000D03*
X90160000Y-104400000D03*
X90160000Y-103600000D03*
X90160000Y-102800000D03*
X90160000Y-102000000D03*
X90160000Y-101200000D03*
X90160000Y-100400000D03*
D39*
X91530000Y-99030000D03*
X92330000Y-99030000D03*
X93130000Y-99030000D03*
X93930000Y-99030000D03*
X94730000Y-99030000D03*
X95530000Y-99030000D03*
X96330000Y-99030000D03*
X97130000Y-99030000D03*
D38*
X98500000Y-100400000D03*
X98500000Y-101200000D03*
X98500000Y-102000000D03*
X98500000Y-102800000D03*
X98500000Y-103600000D03*
X98500000Y-104400000D03*
X98500000Y-105200000D03*
X98500000Y-106000000D03*
D39*
X97130000Y-107370000D03*
X96330000Y-107370000D03*
X95530000Y-107370000D03*
X94730000Y-107370000D03*
X93930000Y-107370000D03*
X93130000Y-107370000D03*
X92330000Y-107370000D03*
X91530000Y-107370000D03*
%TD*%
D27*
%TO.C,D3*%
X23387500Y-73710000D03*
X26362500Y-73710000D03*
%TD*%
D14*
%TO.C,R14*%
X127236110Y-88100000D03*
X127236110Y-89925000D03*
%TD*%
D12*
%TO.C,R24*%
X132825000Y-63150000D03*
X131000000Y-63150000D03*
%TD*%
D40*
%TO.C,U5*%
X22980000Y-90179450D03*
X24250000Y-90179450D03*
X25520000Y-90179450D03*
X26790000Y-90179450D03*
X28060000Y-90179450D03*
X29330000Y-90179450D03*
X30600000Y-90179450D03*
X31870000Y-90179450D03*
X33140000Y-90179450D03*
X34410000Y-90179450D03*
X35680000Y-90179450D03*
X36950000Y-90179450D03*
X38220000Y-90179450D03*
X39490000Y-90179450D03*
X39490000Y-107679450D03*
X38220000Y-107679450D03*
X36950000Y-107679450D03*
X35680000Y-107679450D03*
X34410000Y-107679450D03*
X33140000Y-107679450D03*
X31870000Y-107679450D03*
X30600000Y-107679450D03*
X29330000Y-107679450D03*
X28060000Y-107679450D03*
X26790000Y-107679450D03*
X25520000Y-107679450D03*
X24250000Y-107679450D03*
X22980000Y-107679450D03*
D41*
X28700000Y-97424450D03*
X27450000Y-96174450D03*
X28700000Y-96174450D03*
X29950000Y-96174450D03*
X29950000Y-97424450D03*
X29950000Y-98674450D03*
X28700000Y-98674450D03*
X27450000Y-98674450D03*
X27450000Y-97424450D03*
%TD*%
D23*
%TO.C,R22*%
X131012500Y-53175000D03*
X132837500Y-53175000D03*
%TD*%
D14*
%TO.C,R8*%
X130461111Y-99175000D03*
X130461111Y-101000000D03*
%TD*%
D11*
%TO.C,C17*%
X68660001Y-110635001D03*
X70385001Y-110635001D03*
%TD*%
M02*
