%TF.GenerationSoftware,KiCad,Pcbnew,7.0.8*%
%TF.CreationDate,2023-12-18T20:09:05-08:00*%
%TF.ProjectId,expansionboardA,65787061-6e73-4696-9f6e-626f61726441,3*%
%TF.SameCoordinates,Original*%
%TF.FileFunction,Soldermask,Top*%
%TF.FilePolarity,Negative*%
%FSLAX46Y46*%
G04 Gerber Fmt 4.6, Leading zero omitted, Abs format (unit mm)*
G04 Created by KiCad (PCBNEW 7.0.8) date 2023-12-18 20:09:05*
%MOMM*%
%LPD*%
G01*
G04 APERTURE LIST*
G04 Aperture macros list*
%AMFreePoly0*
4,1,19,0.550000,-0.750000,0.000000,-0.750000,0.000000,-0.744911,-0.071157,-0.744911,-0.207708,-0.704816,-0.327430,-0.627875,-0.420627,-0.520320,-0.479746,-0.390866,-0.500000,-0.250000,-0.500000,0.250000,-0.479746,0.390866,-0.420627,0.520320,-0.327430,0.627875,-0.207708,0.704816,-0.071157,0.744911,0.000000,0.744911,0.000000,0.750000,0.550000,0.750000,0.550000,-0.750000,0.550000,-0.750000,
$1*%
%AMFreePoly1*
4,1,19,0.000000,0.744911,0.071157,0.744911,0.207708,0.704816,0.327430,0.627875,0.420627,0.520320,0.479746,0.390866,0.500000,0.250000,0.500000,-0.250000,0.479746,-0.390866,0.420627,-0.520320,0.327430,-0.627875,0.207708,-0.704816,0.071157,-0.744911,0.000000,-0.744911,0.000000,-0.750000,-0.550000,-0.750000,-0.550000,0.750000,0.000000,0.750000,0.000000,0.744911,0.000000,0.744911,
$1*%
G04 Aperture macros list end*
%ADD10FreePoly0,0.000000*%
%ADD11R,1.000000X1.500000*%
%ADD12FreePoly1,0.000000*%
%ADD13R,1.700000X1.700000*%
%ADD14O,1.700000X1.700000*%
%ADD15R,0.800000X0.800000*%
%ADD16C,0.800000*%
%ADD17O,2.800000X1.700000*%
%ADD18C,0.700000*%
%ADD19C,4.400000*%
%ADD20C,0.650000*%
%ADD21O,1.700000X0.900000*%
%ADD22O,2.400000X0.900000*%
%ADD23C,1.498000*%
%ADD24C,1.950000*%
%ADD25C,1.700000*%
%ADD26R,1.600000X1.500000*%
%ADD27C,1.600000*%
%ADD28C,3.000000*%
G04 APERTURE END LIST*
D10*
%TO.C,JP1*%
X138450000Y-55325000D03*
D11*
X139750000Y-55325000D03*
D12*
X141050000Y-55325000D03*
%TD*%
D13*
%TO.C,J5*%
X24900000Y-67000000D03*
D14*
X24900000Y-69540000D03*
X24900000Y-72080000D03*
X24900000Y-74620000D03*
%TD*%
D15*
%TO.C,J3*%
X144920000Y-74840000D03*
D16*
X143370000Y-74340000D03*
X144920000Y-73840000D03*
X143370000Y-73340000D03*
X144920000Y-72840000D03*
X143370000Y-72340000D03*
X144920000Y-71840000D03*
X143370000Y-71340000D03*
X144920000Y-70840000D03*
X143370000Y-70340000D03*
X144920000Y-69840000D03*
X143370000Y-69340000D03*
X144920000Y-68840000D03*
X143370000Y-68340000D03*
X144920000Y-67840000D03*
X143370000Y-67340000D03*
X144920000Y-66840000D03*
X143370000Y-66340000D03*
X144920000Y-65840000D03*
D17*
X143200000Y-61190000D03*
X143200000Y-79490000D03*
X150300000Y-79490000D03*
X150300000Y-61190000D03*
%TD*%
D18*
%TO.C,REF\u002A\u002A*%
X75133274Y-82033274D03*
X75616548Y-80866548D03*
X75616548Y-83200000D03*
X76783274Y-80383274D03*
D19*
X76783274Y-82033274D03*
D18*
X76783274Y-83683274D03*
X77950000Y-80866548D03*
X77950000Y-83200000D03*
X78433274Y-82033274D03*
%TD*%
%TO.C,REF\u002A\u002A*%
X147575000Y-121000000D03*
X148058274Y-119833274D03*
X148058274Y-122166726D03*
X149225000Y-119350000D03*
D19*
X149225000Y-121000000D03*
D18*
X149225000Y-122650000D03*
X150391726Y-119833274D03*
X150391726Y-122166726D03*
X150875000Y-121000000D03*
%TD*%
%TO.C,REF\u002A\u002A*%
X24375000Y-44450000D03*
X24858274Y-43283274D03*
X24858274Y-45616726D03*
X26025000Y-42800000D03*
D19*
X26025000Y-44450000D03*
D18*
X26025000Y-46100000D03*
X27191726Y-43283274D03*
X27191726Y-45616726D03*
X27675000Y-44450000D03*
%TD*%
%TO.C,REF\u002A\u002A*%
X147850000Y-44450000D03*
X148333274Y-43283274D03*
X148333274Y-45616726D03*
X149500000Y-42800000D03*
D19*
X149500000Y-44450000D03*
D18*
X149500000Y-46100000D03*
X150666726Y-43283274D03*
X150666726Y-45616726D03*
X151150000Y-44450000D03*
%TD*%
D13*
%TO.C,J4*%
X138724600Y-44196000D03*
D14*
X136184600Y-44196000D03*
%TD*%
D18*
%TO.C,REF\u002A\u002A*%
X24100000Y-120725000D03*
X24583274Y-119558274D03*
X24583274Y-121891726D03*
X25750000Y-119075000D03*
D19*
X25750000Y-120725000D03*
D18*
X25750000Y-122375000D03*
X26916726Y-119558274D03*
X26916726Y-121891726D03*
X27400000Y-120725000D03*
%TD*%
D20*
%TO.C,J1*%
X146740000Y-114000000D03*
X146740000Y-113150000D03*
X146740000Y-112300000D03*
X146740000Y-111450000D03*
X146740000Y-110600000D03*
X146740000Y-109750000D03*
X146740000Y-108900000D03*
X146740000Y-108050000D03*
X148090000Y-108050000D03*
X148090000Y-108900000D03*
X148090000Y-109750000D03*
X148090000Y-110600000D03*
X148090000Y-111450000D03*
X148090000Y-112300000D03*
X148090000Y-113150000D03*
X148090000Y-114000000D03*
D21*
X151100000Y-115350000D03*
X151100000Y-106700000D03*
D22*
X147720000Y-115350000D03*
X147720000Y-106700000D03*
%TD*%
D23*
%TO.C,RESETN1*%
X27110000Y-115395000D03*
X27110000Y-110895000D03*
D24*
X29600000Y-116650000D03*
X29600000Y-109640000D03*
%TD*%
D25*
%TO.C,AU1*%
X149300000Y-94800000D03*
X142300000Y-94800000D03*
%TD*%
D13*
%TO.C,U2*%
X48220000Y-121920000D03*
D14*
X45680000Y-121920000D03*
X48220000Y-119380000D03*
X45680000Y-119380000D03*
X48220000Y-116840000D03*
X45680000Y-116840000D03*
X48220000Y-114300000D03*
X45680000Y-114300000D03*
X48220000Y-111760000D03*
X45680000Y-111760000D03*
X48220000Y-109220000D03*
X45680000Y-109220000D03*
X48220000Y-106680000D03*
X45680000Y-106680000D03*
X48220000Y-104140000D03*
X45680000Y-104140000D03*
X48220000Y-101600000D03*
X45680000Y-101600000D03*
X48220000Y-99060000D03*
X45680000Y-99060000D03*
X48220000Y-96520000D03*
X45680000Y-96520000D03*
X48220000Y-93980000D03*
X45680000Y-93980000D03*
X48220000Y-91440000D03*
X45680000Y-91440000D03*
X48220000Y-88900000D03*
X45680000Y-88900000D03*
X48220000Y-86360000D03*
X45680000Y-86360000D03*
X48220000Y-83820000D03*
X45680000Y-83820000D03*
X48220000Y-81280000D03*
X45680000Y-81280000D03*
X48220000Y-78740000D03*
X45680000Y-78740000D03*
X48220000Y-76200000D03*
X45680000Y-76200000D03*
X48220000Y-73660000D03*
X45680000Y-73660000D03*
X48220000Y-71120000D03*
X45680000Y-71120000D03*
X48220000Y-68580000D03*
X45680000Y-68580000D03*
X48220000Y-66040000D03*
X45680000Y-66040000D03*
X48220000Y-63500000D03*
X45680000Y-63500000D03*
X48220000Y-60960000D03*
X45680000Y-60960000D03*
X48220000Y-58420000D03*
X45680000Y-58420000D03*
X48220000Y-55880000D03*
X45680000Y-55880000D03*
X48220000Y-53340000D03*
X45680000Y-53340000D03*
X48220000Y-50800000D03*
X45680000Y-50800000D03*
X48220000Y-48260000D03*
X45680000Y-48260000D03*
X48220000Y-45720000D03*
X45680000Y-45720000D03*
X48220000Y-43180000D03*
X45680000Y-43180000D03*
%TD*%
D13*
%TO.C,U4*%
X109220000Y-121920000D03*
D14*
X106680000Y-121920000D03*
X109220000Y-119380000D03*
X106680000Y-119380000D03*
X109220000Y-116840000D03*
X106680000Y-116840000D03*
X109220000Y-111760000D03*
X106680000Y-111760000D03*
X109220000Y-109220000D03*
X106680000Y-109220000D03*
X109220000Y-106680000D03*
X106680000Y-106680000D03*
X109220000Y-104140000D03*
X106680000Y-104140000D03*
X109220000Y-101600000D03*
X106680000Y-101600000D03*
X109220000Y-99060000D03*
X106680000Y-99060000D03*
X109220000Y-96520000D03*
X106680000Y-96520000D03*
X109220000Y-93980000D03*
X106680000Y-93980000D03*
X109220000Y-91440000D03*
X106680000Y-91440000D03*
X109220000Y-88900000D03*
X106680000Y-88900000D03*
X109220000Y-86360000D03*
X106680000Y-86360000D03*
X109220000Y-83820000D03*
X106680000Y-83820000D03*
X109220000Y-81280000D03*
X106680000Y-81280000D03*
X109220000Y-78740000D03*
X106680000Y-78740000D03*
X109220000Y-76200000D03*
X106680000Y-76200000D03*
X109220000Y-73660000D03*
X106680000Y-73660000D03*
X109220000Y-71120000D03*
X106680000Y-71120000D03*
X109220000Y-68580000D03*
X106680000Y-68580000D03*
X109220000Y-66040000D03*
X106680000Y-66040000D03*
X109220000Y-63500000D03*
X106680000Y-63500000D03*
X109220000Y-60960000D03*
X106680000Y-60960000D03*
X109220000Y-58420000D03*
X106680000Y-58420000D03*
X109220000Y-55880000D03*
X106680000Y-55880000D03*
X109220000Y-53340000D03*
X106680000Y-53340000D03*
X109220000Y-50800000D03*
X106680000Y-50800000D03*
X109220000Y-48260000D03*
X106680000Y-48260000D03*
X109220000Y-45720000D03*
X106680000Y-45720000D03*
X109220000Y-43180000D03*
X106680000Y-43180000D03*
%TD*%
D26*
%TO.C,J2*%
X61600000Y-52800000D03*
D27*
X64100000Y-52800000D03*
X66100000Y-52800000D03*
X68600000Y-52800000D03*
D28*
X58530000Y-50090000D03*
X71670000Y-50090000D03*
%TD*%
M02*
