M48
; DRILL file {KiCad 8.0.0} date 2024-03-23T01:07:24-0700
; FORMAT={-:-/ absolute / inch / decimal}
; #@! TF.CreationDate,2024-03-23T01:07:24-07:00
; #@! TF.GenerationSoftware,Kicad,Pcbnew,8.0.0
; #@! TF.FileFunction,Plated,1,2,PTH
FMAT,2
INCH
; #@! TA.AperFunction,Plated,PTH,ViaDrill
T1C0.0118
; #@! TA.AperFunction,Plated,PTH,ViaDrill
T2C0.0157
; #@! TA.AperFunction,Plated,PTH,ComponentDrill
T3C0.0157
; #@! TA.AperFunction,Plated,PTH,ComponentDrill
T4C0.0217
; #@! TA.AperFunction,Plated,PTH,ComponentDrill
T5C0.0236
; #@! TA.AperFunction,Plated,PTH,ComponentDrill
T6C0.0315
; #@! TA.AperFunction,Plated,PTH,ComponentDrill
T7C0.0374
; #@! TA.AperFunction,Plated,PTH,ComponentDrill
T8C0.0394
; #@! TA.AperFunction,Plated,PTH,ComponentDrill
T9C0.0866
; #@! TA.AperFunction,Plated,PTH,ComponentDrill
T10C0.0906
%
G90
G05
T1
X5.1402Y-2.7923
X5.1535Y-2.7667
T2
X0.9646Y-3.1496
X0.9744Y-3.6909
X0.9941Y-4.0551
X1.1Y-2.2
X1.2008Y-4.1142
X1.3386Y-3.2579
X1.38Y-2.35
X1.3976Y-4.0453
X1.4Y-2.01
X1.4961Y-2.6378
X1.6043Y-4.2421
X1.6634Y-2.3228
X2.0472Y-2.248
X2.586Y-3.8077
X3.0512Y-4.2717
X3.5157Y-2.124
X3.7165Y-2.0315
X3.7205Y-4.0157
X3.7697Y-4.1535
X3.7787Y-4.3247
X3.7992Y-4.6555
X4.0059Y-3.9075
X4.3819Y-2.3504
X4.4321Y-2.7598
X4.5138Y-2.3573
X4.5374Y-2.5531
X4.6929Y-2.6496
X4.7677Y-2.7382
X4.7736Y-4.0157
X4.8622Y-2.8701
X4.8622Y-3.2776
X4.8819Y-3.5827
X4.9449Y-2.7047
X4.9685Y-2.7953
X5.0522Y-2.562
X5.1083Y-3.2382
X5.3248Y-3.7992
X5.3642Y-2.5492
X5.3839Y-2.7874
X5.4321Y-2.9065
X5.7874Y-3.7795
X5.9587Y-4.3696
T3
X2.2988Y-4.6621
X2.2988Y-4.7153
X2.3323Y-4.6621
X2.3323Y-4.7153
X2.3658Y-4.6621
X2.3658Y-4.7153
X2.3992Y-4.6621
X2.3992Y-4.7153
X2.4327Y-4.6621
X2.4327Y-4.7153
X2.4662Y-4.6621
X2.4662Y-4.7153
X2.4996Y-4.6621
X2.4996Y-4.7153
X2.5331Y-4.6621
X2.5331Y-4.7153
X5.7772Y-4.2539
X5.7772Y-4.2874
X5.7772Y-4.3209
X5.7772Y-4.3543
X5.7772Y-4.3878
X5.7772Y-4.4213
X5.7772Y-4.4547
X5.7772Y-4.4882
X5.8303Y-4.2539
X5.8303Y-4.2874
X5.8303Y-4.3209
X5.8303Y-4.3543
X5.8303Y-4.3878
X5.8303Y-4.4213
X5.8303Y-4.4547
X5.8303Y-4.4882
T4
X5.6445Y-2.6118
X5.6445Y-2.6512
X5.6445Y-2.6906
X5.6445Y-2.7299
X5.6445Y-2.7693
X5.6445Y-2.8087
X5.6445Y-2.848
X5.6445Y-2.8874
X5.6445Y-2.9268
X5.7055Y-2.5921
X5.7055Y-2.6315
X5.7055Y-2.6709
X5.7055Y-2.7102
X5.7055Y-2.7496
X5.7055Y-2.789
X5.7055Y-2.8283
X5.7055Y-2.8677
X5.7055Y-2.9071
X5.7055Y-2.9465
T7
X2.4252Y-2.0787
X2.5236Y-2.0787
X2.6024Y-2.0787
X2.7008Y-2.0787
T8
X1.7984Y-1.7
X1.7984Y-1.8
X1.7984Y-1.9
X1.7984Y-2.0
X1.7984Y-2.1
X1.7984Y-2.2
X1.7984Y-2.3
X1.7984Y-2.4
X1.7984Y-2.5
X1.7984Y-2.6
X1.7984Y-2.7
X1.7984Y-2.8
X1.7984Y-2.9
X1.7984Y-3.0
X1.7984Y-3.1
X1.7984Y-3.2
X1.7984Y-3.3
X1.7984Y-3.4
X1.7984Y-3.6
X1.7984Y-3.7
X1.7984Y-3.8
X1.7984Y-3.9
X1.7984Y-4.0
X1.7984Y-4.1
X1.7984Y-4.2
X1.7984Y-4.3
X1.7984Y-4.4
X1.7984Y-4.5
X1.7984Y-4.6
X1.7984Y-4.7
X1.7984Y-4.8
X1.8984Y-1.7
X1.8984Y-1.8
X1.8984Y-1.9
X1.8984Y-2.0
X1.8984Y-2.1
X1.8984Y-2.2
X1.8984Y-2.3
X1.8984Y-2.4
X1.8984Y-2.5
X1.8984Y-2.6
X1.8984Y-2.7
X1.8984Y-2.8
X1.8984Y-2.9
X1.8984Y-3.0
X1.8984Y-3.1
X1.8984Y-3.2
X1.8984Y-3.3
X1.8984Y-3.4
X1.8984Y-3.6
X1.8984Y-3.7
X1.8984Y-3.8
X1.8984Y-3.9
X1.8984Y-4.0
X1.8984Y-4.1
X1.8984Y-4.2
X1.8984Y-4.3
X1.8984Y-4.4
X1.8984Y-4.5
X1.8984Y-4.6
X1.8984Y-4.7
X1.8984Y-4.8
X4.2Y-1.7
X4.2Y-1.8
X4.2Y-1.9
X4.2Y-2.0
X4.2Y-2.1
X4.2Y-2.2
X4.2Y-2.3
X4.2Y-2.4
X4.2Y-2.5
X4.2Y-2.6
X4.2Y-2.7
X4.2Y-2.8
X4.2Y-2.9
X4.2Y-3.0
X4.2Y-3.1
X4.2Y-3.2
X4.2Y-3.3
X4.2Y-3.4
X4.2Y-3.5
X4.2Y-3.6
X4.2Y-3.7
X4.2Y-3.8
X4.2Y-3.9
X4.2Y-4.0
X4.2Y-4.2
X4.2Y-4.3
X4.2Y-4.4
X4.2Y-4.5
X4.2Y-4.6
X4.2Y-4.7
X4.2Y-4.8
X4.3Y-1.7
X4.3Y-1.8
X4.3Y-1.9
X4.3Y-2.0
X4.3Y-2.1
X4.3Y-2.2
X4.3Y-2.3
X4.3Y-2.4
X4.3Y-2.5
X4.3Y-2.6
X4.3Y-2.7
X4.3Y-2.8
X4.3Y-2.9
X4.3Y-3.0
X4.3Y-3.1
X4.3Y-3.2
X4.3Y-3.3
X4.3Y-3.4
X4.3Y-3.5
X4.3Y-3.6
X4.3Y-3.7
X4.3Y-3.8
X4.3Y-3.9
X4.3Y-4.0
X4.3Y-4.2
X4.3Y-4.3
X4.3Y-4.4
X4.3Y-4.5
X4.3Y-4.6
X4.3Y-4.7
X4.3Y-4.8
T9
X1.0531Y-1.752
X1.0531Y-4.7441
X5.8563Y-1.752
X5.8563Y-4.7441
T10
X2.3043Y-1.972
X2.8217Y-1.972
T5
G00X2.2457Y-4.6712
M15
G01X2.2457Y-4.7302
M16
G05
G00X2.2457Y-4.818
M15
G01X2.2457Y-4.8495
M16
G05
G00X2.5862Y-4.6712
M15
G01X2.5862Y-4.7302
M16
G05
G00X2.5862Y-4.818
M15
G01X2.5862Y-4.8495
M16
G05
G00X5.7862Y-4.2008
M15
G01X5.8453Y-4.2008
M16
G05
G00X5.7862Y-4.5413
M15
G01X5.8453Y-4.5413
M16
G05
G00X5.9331Y-4.2008
M15
G01X5.9646Y-4.2008
M16
G05
G00X5.9331Y-4.5413
M15
G01X5.9646Y-4.5413
M16
G05
T6
G00X5.6122Y-2.4091
M15
G01X5.6634Y-2.4091
M16
G05
G00X5.6122Y-3.1295
M15
G01X5.6634Y-3.1295
M16
G05
G00X5.8917Y-2.4091
M15
G01X5.9429Y-2.4091
M16
G05
G00X5.8917Y-3.1295
M15
G01X5.9429Y-3.1295
M16
G05
M30
