M48
; DRILL file {KiCad 7.0.8} date Wed Nov 22 19:36:50 2023
; FORMAT={-:-/ absolute / inch / decimal}
; #@! TF.CreationDate,2023-11-22T19:36:50-08:00
; #@! TF.GenerationSoftware,Kicad,Pcbnew,7.0.8
; #@! TF.FileFunction,Plated,1,2,PTH
FMAT,2
INCH
; #@! TA.AperFunction,Plated,PTH,ViaDrill
T1C0.0118
; #@! TA.AperFunction,Plated,PTH,ViaDrill
T2C0.0157
; #@! TA.AperFunction,Plated,PTH,ComponentDrill
T3C0.0157
; #@! TA.AperFunction,Plated,PTH,ComponentDrill
T4C0.0217
; #@! TA.AperFunction,Plated,PTH,ComponentDrill
T5C0.0236
; #@! TA.AperFunction,Plated,PTH,ComponentDrill
T6C0.0315
; #@! TA.AperFunction,Plated,PTH,ComponentDrill
T7C0.0374
; #@! TA.AperFunction,Plated,PTH,ComponentDrill
T8C0.0390
; #@! TA.AperFunction,Plated,PTH,ComponentDrill
T9C0.0394
; #@! TA.AperFunction,Plated,PTH,ComponentDrill
T10C0.0512
; #@! TA.AperFunction,Plated,PTH,ComponentDrill
T11C0.0866
; #@! TA.AperFunction,Plated,PTH,ComponentDrill
T12C0.0906
%
G90
G05
T1
X5.1402Y-2.7923
X5.1535Y-2.7667
T2
X1.1Y-2.2
X1.38Y-2.35
X1.4Y-2.01
X1.4035Y-3.5039
X1.4272Y-2.587
X1.45Y-2.24
X1.645Y-2.54
X2.0Y-3.4488
X2.0472Y-2.248
X2.0591Y-4.0551
X2.772Y-4.516
X2.9528Y-4.4094
X3.4269Y-1.9589
X3.5056Y-2.0337
X3.5512Y-1.7953
X3.7717Y-2.1821
X3.8009Y-1.9392
X4.3819Y-2.3504
X4.4321Y-2.7598
X4.5049Y-2.9843
X4.5138Y-2.3573
X4.5374Y-2.5531
X4.6693Y-2.8976
X4.6911Y-2.6235
X4.7677Y-2.248
X4.7913Y-2.9252
X4.8442Y-2.847
X4.878Y-2.8268
X4.8996Y-3.8504
X4.9006Y-2.3888
X4.9213Y-2.7835
X4.9213Y-2.9006
X4.943Y-2.7242
X4.9606Y-2.689
X4.9606Y-2.8071
X4.9685Y-2.9193
X4.9724Y-3.5591
X5.0512Y-2.0945
X5.0522Y-2.562
X5.1024Y-3.0
X5.1142Y-3.7953
X5.126Y-3.185
X5.1722Y-2.6014
X5.3386Y-2.2087
X5.3839Y-2.7874
X5.3976Y-2.4291
X5.4321Y-2.9065
X5.7441Y-3.75
X5.7982Y-2.2283
X5.9587Y-4.3696
T3
X5.786Y-4.252
X5.786Y-4.2854
X5.786Y-4.3189
X5.786Y-4.3524
X5.786Y-4.3858
X5.786Y-4.4193
X5.786Y-4.4528
X5.786Y-4.4862
X5.8392Y-4.252
X5.8392Y-4.2854
X5.8392Y-4.3189
X5.8392Y-4.3524
X5.8392Y-4.3858
X5.8392Y-4.4193
X5.8392Y-4.4528
X5.8392Y-4.4862
T4
X5.6445Y-2.6118
X5.6445Y-2.6512
X5.6445Y-2.6906
X5.6445Y-2.7299
X5.6445Y-2.7693
X5.6445Y-2.8087
X5.6445Y-2.848
X5.6445Y-2.8874
X5.6445Y-2.9268
X5.7055Y-2.5921
X5.7055Y-2.6315
X5.7055Y-2.6709
X5.7055Y-2.7102
X5.7055Y-2.7496
X5.7055Y-2.789
X5.7055Y-2.8283
X5.7055Y-2.8677
X5.7055Y-2.9071
X5.7055Y-2.9465
T7
X2.3201Y-2.0791
X2.4185Y-2.0791
X2.4972Y-2.0791
X2.5957Y-2.0791
T8
X4.7234Y-1.8269
X4.9006Y-1.8269
T9
X0.9803Y-2.6378
X0.9803Y-2.7378
X0.9803Y-2.8378
X0.9803Y-2.9378
X1.7984Y-1.7
X1.7984Y-1.8
X1.7984Y-1.9
X1.7984Y-2.0
X1.7984Y-2.1
X1.7984Y-2.2
X1.7984Y-2.3
X1.7984Y-2.4
X1.7984Y-2.5
X1.7984Y-2.6
X1.7984Y-2.7
X1.7984Y-2.8
X1.7984Y-2.9
X1.7984Y-3.0
X1.7984Y-3.1
X1.7984Y-3.2
X1.7984Y-3.3
X1.7984Y-3.4
X1.7984Y-3.5
X1.7984Y-3.6
X1.7984Y-3.7
X1.7984Y-3.8
X1.7984Y-3.9
X1.7984Y-4.0
X1.7984Y-4.1
X1.7984Y-4.2
X1.7984Y-4.3
X1.7984Y-4.4
X1.7984Y-4.5
X1.7984Y-4.6
X1.7984Y-4.7
X1.7984Y-4.8
X1.8984Y-1.7
X1.8984Y-1.8
X1.8984Y-1.9
X1.8984Y-2.0
X1.8984Y-2.1
X1.8984Y-2.2
X1.8984Y-2.3
X1.8984Y-2.4
X1.8984Y-2.5
X1.8984Y-2.6
X1.8984Y-2.7
X1.8984Y-2.8
X1.8984Y-2.9
X1.8984Y-3.0
X1.8984Y-3.1
X1.8984Y-3.2
X1.8984Y-3.3
X1.8984Y-3.4
X1.8984Y-3.5
X1.8984Y-3.6
X1.8984Y-3.7
X1.8984Y-3.8
X1.8984Y-3.9
X1.8984Y-4.0
X1.8984Y-4.1
X1.8984Y-4.2
X1.8984Y-4.3
X1.8984Y-4.4
X1.8984Y-4.5
X1.8984Y-4.6
X1.8984Y-4.7
X1.8984Y-4.8
X4.2Y-1.7
X4.2Y-1.8
X4.2Y-1.9
X4.2Y-2.0
X4.2Y-2.1
X4.2Y-2.2
X4.2Y-2.3
X4.2Y-2.4
X4.2Y-2.5
X4.2Y-2.6
X4.2Y-2.7
X4.2Y-2.8
X4.2Y-2.9
X4.2Y-3.0
X4.2Y-3.1
X4.2Y-3.2
X4.2Y-3.3
X4.2Y-3.4
X4.2Y-3.5
X4.2Y-3.6
X4.2Y-3.7
X4.2Y-3.8
X4.2Y-3.9
X4.2Y-4.0
X4.2Y-4.1
X4.2Y-4.2
X4.2Y-4.3
X4.2Y-4.4
X4.2Y-4.6
X4.2Y-4.7
X4.2Y-4.8
X4.3Y-1.7
X4.3Y-1.8
X4.3Y-1.9
X4.3Y-2.0
X4.3Y-2.1
X4.3Y-2.2
X4.3Y-2.3
X4.3Y-2.4
X4.3Y-2.5
X4.3Y-2.6
X4.3Y-2.7
X4.3Y-2.8
X4.3Y-2.9
X4.3Y-3.0
X4.3Y-3.1
X4.3Y-3.2
X4.3Y-3.3
X4.3Y-3.4
X4.3Y-3.5
X4.3Y-3.6
X4.3Y-3.7
X4.3Y-3.8
X4.3Y-3.9
X4.3Y-4.0
X4.3Y-4.1
X4.3Y-4.2
X4.3Y-4.3
X4.3Y-4.4
X4.3Y-4.6
X4.3Y-4.7
X4.3Y-4.8
X5.3616Y-1.74
X5.4616Y-1.74
T10
X4.674Y-1.9249
X4.95Y-1.9249
T11
X1.0138Y-1.752
X1.0138Y-4.7638
X5.8858Y-1.752
X5.8858Y-4.7638
T12
X2.1992Y-1.9724
X2.7165Y-1.9724
T5
G00X5.8541Y-4.1988
M15
G01X5.7951Y-4.1988
M16
G05
G00X5.8541Y-4.5394
M15
G01X5.7951Y-4.5394
M16
G05
G00X5.9734Y-4.1988
M15
G01X5.9419Y-4.1988
M16
G05
G00X5.9734Y-4.5394
M15
G01X5.9419Y-4.5394
M16
G05
T6
G00X5.6122Y-2.4091
M15
G01X5.6634Y-2.4091
M16
G05
G00X5.6122Y-3.1295
M15
G01X5.6634Y-3.1295
M16
G05
G00X5.8917Y-2.4091
M15
G01X5.9429Y-2.4091
M16
G05
G00X5.8917Y-3.1295
M15
G01X5.9429Y-3.1295
M16
G05
T0
M30
