%TF.GenerationSoftware,KiCad,Pcbnew,8.0.7*%
%TF.CreationDate,2025-01-13T22:25:20-08:00*%
%TF.ProjectId,expansionboardA,65787061-6e73-4696-9f6e-626f61726441,3*%
%TF.SameCoordinates,Original*%
%TF.FileFunction,Paste,Bot*%
%TF.FilePolarity,Positive*%
%FSLAX46Y46*%
G04 Gerber Fmt 4.6, Leading zero omitted, Abs format (unit mm)*
G04 Created by KiCad (PCBNEW 8.0.7) date 2025-01-13 22:25:20*
%MOMM*%
%LPD*%
G01*
G04 APERTURE LIST*
G04 Aperture macros list*
%AMRoundRect*
0 Rectangle with rounded corners*
0 $1 Rounding radius*
0 $2 $3 $4 $5 $6 $7 $8 $9 X,Y pos of 4 corners*
0 Add a 4 corners polygon primitive as box body*
4,1,4,$2,$3,$4,$5,$6,$7,$8,$9,$2,$3,0*
0 Add four circle primitives for the rounded corners*
1,1,$1+$1,$2,$3*
1,1,$1+$1,$4,$5*
1,1,$1+$1,$6,$7*
1,1,$1+$1,$8,$9*
0 Add four rect primitives between the rounded corners*
20,1,$1+$1,$2,$3,$4,$5,0*
20,1,$1+$1,$4,$5,$6,$7,0*
20,1,$1+$1,$6,$7,$8,$9,0*
20,1,$1+$1,$8,$9,$2,$3,0*%
G04 Aperture macros list end*
%ADD10R,0.850000X0.650000*%
%ADD11RoundRect,0.237500X0.250000X0.237500X-0.250000X0.237500X-0.250000X-0.237500X0.250000X-0.237500X0*%
%ADD12RoundRect,0.237500X-0.250000X-0.237500X0.250000X-0.237500X0.250000X0.237500X-0.250000X0.237500X0*%
%ADD13R,2.150000X0.950000*%
%ADD14R,2.150000X3.250000*%
%ADD15RoundRect,0.237500X-0.237500X0.300000X-0.237500X-0.300000X0.237500X-0.300000X0.237500X0.300000X0*%
%ADD16R,0.900000X0.900000*%
%ADD17R,1.500000X0.900000*%
%ADD18R,0.900000X1.500000*%
%ADD19RoundRect,0.237500X0.300000X0.237500X-0.300000X0.237500X-0.300000X-0.237500X0.300000X-0.237500X0*%
%ADD20RoundRect,0.250001X-0.462499X-0.624999X0.462499X-0.624999X0.462499X0.624999X-0.462499X0.624999X0*%
%ADD21R,1.200000X0.700000*%
%ADD22R,1.200000X1.000000*%
%ADD23R,2.800000X1.000000*%
%ADD24R,1.900000X1.300000*%
%ADD25R,0.800000X1.000000*%
%ADD26RoundRect,0.250000X0.475000X-0.337500X0.475000X0.337500X-0.475000X0.337500X-0.475000X-0.337500X0*%
%ADD27R,2.600000X0.298000*%
%ADD28RoundRect,0.250001X0.462499X0.624999X-0.462499X0.624999X-0.462499X-0.624999X0.462499X-0.624999X0*%
%ADD29R,1.250000X1.000000*%
G04 APERTURE END LIST*
D10*
%TO.C,U3*%
X25273000Y-81827000D03*
X25273000Y-82677000D03*
X23823000Y-81827000D03*
X23823000Y-82677000D03*
%TD*%
D11*
%TO.C,R7*%
X30861000Y-83312000D03*
X29036000Y-83312000D03*
%TD*%
%TO.C,R2*%
X30861000Y-81153000D03*
X29036000Y-81153000D03*
%TD*%
D12*
%TO.C,R1*%
X94314000Y-47371000D03*
X96139000Y-47371000D03*
%TD*%
D13*
%TO.C,VR1*%
X98044000Y-54455000D03*
X98044000Y-56755000D03*
X98044000Y-59055000D03*
D14*
X92244000Y-56755000D03*
%TD*%
D15*
%TO.C,C4*%
X74295000Y-48286500D03*
X74295000Y-50011500D03*
%TD*%
D16*
%TO.C,U1*%
X64950000Y-51220000D03*
X64950000Y-49820000D03*
X64950000Y-48420000D03*
X63550000Y-51220000D03*
X63550000Y-49820000D03*
X63550000Y-48420000D03*
X62150000Y-51220000D03*
X62150000Y-49820000D03*
X62150000Y-48420000D03*
D17*
X70800000Y-42100000D03*
X70800000Y-43370000D03*
X70800000Y-44640000D03*
X70800000Y-45910000D03*
X70800000Y-47180000D03*
X70800000Y-48450000D03*
X70800000Y-49720000D03*
X70800000Y-50990000D03*
X70800000Y-52260000D03*
X70800000Y-53530000D03*
X70800000Y-54800000D03*
X70800000Y-56070000D03*
X70800000Y-57340000D03*
X70800000Y-58610000D03*
D18*
X69035000Y-59860000D03*
X67765000Y-59860000D03*
X66495000Y-59860000D03*
X65225000Y-59860000D03*
X63955000Y-59860000D03*
X62685000Y-59860000D03*
X61415000Y-59860000D03*
X60145000Y-59860000D03*
X58875000Y-59860000D03*
X57605000Y-59860000D03*
X56335000Y-59860000D03*
X55065000Y-59860000D03*
D17*
X53300000Y-58610000D03*
X53300000Y-57340000D03*
X53300000Y-56070000D03*
X53300000Y-54800000D03*
X53300000Y-53530000D03*
X53300000Y-52260000D03*
X53300000Y-50990000D03*
X53300000Y-49720000D03*
X53300000Y-48450000D03*
X53300000Y-47180000D03*
X53300000Y-45910000D03*
X53300000Y-44640000D03*
X53300000Y-43370000D03*
X53300000Y-42100000D03*
%TD*%
D11*
%TO.C,R6*%
X33750000Y-68630000D03*
X31925000Y-68630000D03*
%TD*%
D19*
%TO.C,C5*%
X76300000Y-57300000D03*
X74575000Y-57300000D03*
%TD*%
D20*
%TO.C,D4*%
X23387500Y-71170000D03*
X26362500Y-71170000D03*
%TD*%
D21*
%TO.C,CRD1*%
X38671200Y-53492000D03*
X38671200Y-54592000D03*
X38671200Y-55692000D03*
X38671200Y-56792000D03*
X38671200Y-57892000D03*
X38671200Y-58992000D03*
X38671200Y-60092000D03*
X38671200Y-61192000D03*
D22*
X34371200Y-63092000D03*
D23*
X24021200Y-63092000D03*
D24*
X23571200Y-49592000D03*
D22*
X38671200Y-51942000D03*
D25*
X28171200Y-63092000D03*
D21*
X38671200Y-62142000D03*
%TD*%
D26*
%TO.C,C6*%
X99949000Y-52042000D03*
X99949000Y-49967000D03*
%TD*%
D27*
%TO.C,J2*%
X142759000Y-62804000D03*
X142759000Y-62304000D03*
X142759000Y-61804000D03*
X142759000Y-61304000D03*
X142759000Y-60804000D03*
X142759000Y-60304000D03*
X142759000Y-59804000D03*
X142759000Y-59304000D03*
X142759000Y-58804000D03*
X142759000Y-58304000D03*
X142759000Y-57804000D03*
X142759000Y-57304000D03*
X142759000Y-56804000D03*
X142759000Y-56304000D03*
X142759000Y-55804000D03*
X142759000Y-55304000D03*
X142759000Y-54804000D03*
X142759000Y-54304000D03*
X142759000Y-53804000D03*
%TD*%
D11*
%TO.C,R4*%
X33750000Y-73710000D03*
X31925000Y-73710000D03*
%TD*%
D20*
%TO.C,D5*%
X23387500Y-68581834D03*
X26362500Y-68581834D03*
%TD*%
D11*
%TO.C,R3*%
X33750000Y-76250000D03*
X31925000Y-76250000D03*
%TD*%
%TO.C,R5*%
X33750000Y-71170000D03*
X31925000Y-71170000D03*
%TD*%
D20*
%TO.C,D2*%
X23389428Y-76267312D03*
X26364428Y-76267312D03*
%TD*%
D28*
%TO.C,D1*%
X99150500Y-42545000D03*
X96175500Y-42545000D03*
%TD*%
D29*
%TO.C,SW4*%
X90400000Y-45847000D03*
X82650000Y-45847000D03*
%TD*%
D26*
%TO.C,C7*%
X102997000Y-52042000D03*
X102997000Y-49967000D03*
%TD*%
D20*
%TO.C,D3*%
X23387500Y-73710000D03*
X26362500Y-73710000D03*
%TD*%
M02*
