%TF.GenerationSoftware,KiCad,Pcbnew,8.0.7*%
%TF.CreationDate,2025-01-16T18:05:46-08:00*%
%TF.ProjectId,expansionboardA,65787061-6e73-4696-9f6e-626f61726441,3*%
%TF.SameCoordinates,Original*%
%TF.FileFunction,Drillmap*%
%TF.FilePolarity,Positive*%
%FSLAX45Y45*%
G04 Gerber Fmt 4.5, Leading zero omitted, Abs format (unit mm)*
G04 Created by KiCad (PCBNEW 8.0.7) date 2025-01-16 18:05:46*
%MOMM*%
%LPD*%
G01*
G04 APERTURE LIST*
%ADD10C,0.010000*%
%ADD11C,0.200000*%
%ADD12C,0.100000*%
%ADD13C,0.220000*%
G04 APERTURE END LIST*
D10*
X2238153Y-12347410D02*
G75*
G02*
X2209801Y-12244759I171647J102650D01*
G01*
X2209800Y-6255700D02*
G75*
G02*
X2229800Y-6235700I20000J0D01*
G01*
X2413430Y-12450827D02*
X14909600Y-12450800D01*
X2295182Y-4121603D02*
G75*
G02*
X2424701Y-4074001I129518J-152397D01*
G01*
X2238153Y-12347410D02*
X2241782Y-12353478D01*
X14909600Y-4073840D02*
G75*
G02*
X15309600Y-4473843I0J-400000D01*
G01*
X2229800Y-5105400D02*
X2238700Y-5105400D01*
X2229800Y-5105400D02*
G75*
G02*
X2209800Y-5085400I0J20000D01*
G01*
X15309600Y-12050800D02*
X15309600Y-4473843D01*
X2424701Y-4073998D02*
X14909600Y-4073840D01*
X2298700Y-6175700D02*
G75*
G02*
X2238700Y-6235700I-60000J0D01*
G01*
X2298700Y-5165400D02*
X2298700Y-6175700D01*
X2413430Y-12450827D02*
G75*
G02*
X2241779Y-12353480I1J200008D01*
G01*
X2238700Y-5105400D02*
G75*
G02*
X2298700Y-5165400I0J-60000D01*
G01*
X15309600Y-12050800D02*
G75*
G02*
X14909600Y-12450800I-400000J0D01*
G01*
X2209979Y-4286468D02*
X2209800Y-5085400D01*
X2229800Y-6235700D02*
X2238700Y-6235700D01*
X2209800Y-6255700D02*
X2209800Y-12244759D01*
X2280458Y-4134117D02*
X2295182Y-4121603D01*
X2209979Y-4286468D02*
G75*
G02*
X2280459Y-4134119I199991J-43D01*
G01*
D11*
D12*
X6205000Y-4902000D02*
X6225000Y-4922000D01*
X6225000Y-4902000D02*
X6205000Y-4922000D01*
X6205000Y-5042000D02*
X6225000Y-5062000D01*
X6225000Y-5042000D02*
X6205000Y-5062000D01*
X6275000Y-4832000D02*
X6295000Y-4852000D01*
X6295000Y-4832000D02*
X6275000Y-4852000D01*
X6275000Y-4972000D02*
X6295000Y-4992000D01*
X6295000Y-4972000D02*
X6275000Y-4992000D01*
X6275000Y-5112000D02*
X6295000Y-5132000D01*
X6295000Y-5112000D02*
X6275000Y-5132000D01*
X6345000Y-4902000D02*
X6365000Y-4922000D01*
X6365000Y-4902000D02*
X6345000Y-4922000D01*
X6345000Y-5042000D02*
X6365000Y-5062000D01*
X6365000Y-5042000D02*
X6345000Y-5062000D01*
X6415000Y-4832000D02*
X6435000Y-4852000D01*
X6435000Y-4832000D02*
X6415000Y-4852000D01*
X6415000Y-4972000D02*
X6435000Y-4992000D01*
X6435000Y-4972000D02*
X6415000Y-4992000D01*
X6415000Y-5112000D02*
X6435000Y-5132000D01*
X6435000Y-5112000D02*
X6415000Y-5132000D01*
X6485000Y-4902000D02*
X6505000Y-4922000D01*
X6505000Y-4902000D02*
X6485000Y-4922000D01*
X6485000Y-5042000D02*
X6505000Y-5062000D01*
X6505000Y-5042000D02*
X6485000Y-5062000D01*
X2380000Y-8890000D02*
G75*
G02*
X2340000Y-8890000I-20000J0D01*
G01*
X2340000Y-8890000D02*
G75*
G02*
X2380000Y-8890000I20000J0D01*
G01*
X2814000Y-5588000D02*
G75*
G02*
X2774000Y-5588000I-20000J0D01*
G01*
X2774000Y-5588000D02*
G75*
G02*
X2814000Y-5588000I20000J0D01*
G01*
X3525200Y-5969000D02*
G75*
G02*
X3485200Y-5969000I-20000J0D01*
G01*
X3485200Y-5969000D02*
G75*
G02*
X3525200Y-5969000I20000J0D01*
G01*
X3573504Y-8225273D02*
G75*
G02*
X3533504Y-8225273I-20000J0D01*
G01*
X3533504Y-8225273D02*
G75*
G02*
X3573504Y-8225273I20000J0D01*
G01*
X3576000Y-5232400D02*
G75*
G02*
X3536000Y-5232400I-20000J0D01*
G01*
X3536000Y-5232400D02*
G75*
G02*
X3576000Y-5232400I20000J0D01*
G01*
X3601400Y-7874000D02*
G75*
G02*
X3561400Y-7874000I-20000J0D01*
G01*
X3561400Y-7874000D02*
G75*
G02*
X3601400Y-7874000I20000J0D01*
G01*
X3820000Y-6700000D02*
G75*
G02*
X3780000Y-6700000I-20000J0D01*
G01*
X3780000Y-6700000D02*
G75*
G02*
X3820000Y-6700000I20000J0D01*
G01*
X4245000Y-5900000D02*
G75*
G02*
X4205000Y-5900000I-20000J0D01*
G01*
X4205000Y-5900000D02*
G75*
G02*
X4245000Y-5900000I20000J0D01*
G01*
X5090000Y-5970000D02*
G75*
G02*
X5050000Y-5970000I-20000J0D01*
G01*
X5050000Y-5970000D02*
G75*
G02*
X5090000Y-5970000I20000J0D01*
G01*
X5107620Y-4516120D02*
G75*
G02*
X5067620Y-4516120I-20000J0D01*
G01*
X5067620Y-4516120D02*
G75*
G02*
X5107620Y-4516120I20000J0D01*
G01*
X5143180Y-5034280D02*
G75*
G02*
X5103180Y-5034280I-20000J0D01*
G01*
X5103180Y-5034280D02*
G75*
G02*
X5143180Y-5034280I20000J0D01*
G01*
X5520000Y-5820000D02*
G75*
G02*
X5480000Y-5820000I-20000J0D01*
G01*
X5480000Y-5820000D02*
G75*
G02*
X5520000Y-5820000I20000J0D01*
G01*
X5532614Y-5437386D02*
G75*
G02*
X5492614Y-5437386I-20000J0D01*
G01*
X5492614Y-5437386D02*
G75*
G02*
X5532614Y-5437386I20000J0D01*
G01*
X5533735Y-5333735D02*
G75*
G02*
X5493735Y-5333735I-20000J0D01*
G01*
X5493735Y-5333735D02*
G75*
G02*
X5533735Y-5333735I20000J0D01*
G01*
X5535000Y-5225000D02*
G75*
G02*
X5495000Y-5225000I-20000J0D01*
G01*
X5495000Y-5225000D02*
G75*
G02*
X5535000Y-5225000I20000J0D01*
G01*
X6045000Y-7275000D02*
G75*
G02*
X6005000Y-7275000I-20000J0D01*
G01*
X6005000Y-7275000D02*
G75*
G02*
X6045000Y-7275000I20000J0D01*
G01*
X6260000Y-4190000D02*
G75*
G02*
X6220000Y-4190000I-20000J0D01*
G01*
X6220000Y-4190000D02*
G75*
G02*
X6260000Y-4190000I20000J0D01*
G01*
X6300000Y-5770000D02*
G75*
G02*
X6260000Y-5770000I-20000J0D01*
G01*
X6260000Y-5770000D02*
G75*
G02*
X6300000Y-5770000I20000J0D01*
G01*
X6720520Y-4417060D02*
G75*
G02*
X6680520Y-4417060I-20000J0D01*
G01*
X6680520Y-4417060D02*
G75*
G02*
X6720520Y-4417060I20000J0D01*
G01*
X6830000Y-5440000D02*
G75*
G02*
X6790000Y-5440000I-20000J0D01*
G01*
X6790000Y-5440000D02*
G75*
G02*
X6830000Y-5440000I20000J0D01*
G01*
X6940000Y-4410000D02*
G75*
G02*
X6900000Y-4410000I-20000J0D01*
G01*
X6900000Y-4410000D02*
G75*
G02*
X6940000Y-4410000I20000J0D01*
G01*
X7576500Y-6362700D02*
G75*
G02*
X7536500Y-6362700I-20000J0D01*
G01*
X7536500Y-6362700D02*
G75*
G02*
X7576500Y-6362700I20000J0D01*
G01*
X7650000Y-5600000D02*
G75*
G02*
X7610000Y-5600000I-20000J0D01*
G01*
X7610000Y-5600000D02*
G75*
G02*
X7650000Y-5600000I20000J0D01*
G01*
X7754300Y-6184900D02*
G75*
G02*
X7714300Y-6184900I-20000J0D01*
G01*
X7714300Y-6184900D02*
G75*
G02*
X7754300Y-6184900I20000J0D01*
G01*
X7830500Y-6871300D02*
G75*
G02*
X7790500Y-6871300I-20000J0D01*
G01*
X7790500Y-6871300D02*
G75*
G02*
X7830500Y-6871300I20000J0D01*
G01*
X7830500Y-7493000D02*
G75*
G02*
X7790500Y-7493000I-20000J0D01*
G01*
X7790500Y-7493000D02*
G75*
G02*
X7830500Y-7493000I20000J0D01*
G01*
X7830500Y-8071300D02*
G75*
G02*
X7790500Y-8071300I-20000J0D01*
G01*
X7790500Y-8071300D02*
G75*
G02*
X7830500Y-8071300I20000J0D01*
G01*
X7830500Y-8693000D02*
G75*
G02*
X7790500Y-8693000I-20000J0D01*
G01*
X7790500Y-8693000D02*
G75*
G02*
X7830500Y-8693000I20000J0D01*
G01*
X7830500Y-9271300D02*
G75*
G02*
X7790500Y-9271300I-20000J0D01*
G01*
X7790500Y-9271300D02*
G75*
G02*
X7830500Y-9271300I20000J0D01*
G01*
X7830500Y-9893000D02*
G75*
G02*
X7790500Y-9893000I-20000J0D01*
G01*
X7790500Y-9893000D02*
G75*
G02*
X7830500Y-9893000I20000J0D01*
G01*
X7830500Y-10471300D02*
G75*
G02*
X7790500Y-10471300I-20000J0D01*
G01*
X7790500Y-10471300D02*
G75*
G02*
X7830500Y-10471300I20000J0D01*
G01*
X7830500Y-11093000D02*
G75*
G02*
X7790500Y-11093000I-20000J0D01*
G01*
X7790500Y-11093000D02*
G75*
G02*
X7830500Y-11093000I20000J0D01*
G01*
X7830500Y-11671300D02*
G75*
G02*
X7790500Y-11671300I-20000J0D01*
G01*
X7790500Y-11671300D02*
G75*
G02*
X7830500Y-11671300I20000J0D01*
G01*
X7881300Y-5245100D02*
G75*
G02*
X7841300Y-5245100I-20000J0D01*
G01*
X7841300Y-5245100D02*
G75*
G02*
X7881300Y-5245100I20000J0D01*
G01*
X8059100Y-6871300D02*
G75*
G02*
X8019100Y-6871300I-20000J0D01*
G01*
X8019100Y-6871300D02*
G75*
G02*
X8059100Y-6871300I20000J0D01*
G01*
X8059100Y-7493000D02*
G75*
G02*
X8019100Y-7493000I-20000J0D01*
G01*
X8019100Y-7493000D02*
G75*
G02*
X8059100Y-7493000I20000J0D01*
G01*
X8059100Y-8071300D02*
G75*
G02*
X8019100Y-8071300I-20000J0D01*
G01*
X8019100Y-8071300D02*
G75*
G02*
X8059100Y-8071300I20000J0D01*
G01*
X8059100Y-8693000D02*
G75*
G02*
X8019100Y-8693000I-20000J0D01*
G01*
X8019100Y-8693000D02*
G75*
G02*
X8059100Y-8693000I20000J0D01*
G01*
X8059100Y-9271300D02*
G75*
G02*
X8019100Y-9271300I-20000J0D01*
G01*
X8019100Y-9271300D02*
G75*
G02*
X8059100Y-9271300I20000J0D01*
G01*
X8059100Y-9893000D02*
G75*
G02*
X8019100Y-9893000I-20000J0D01*
G01*
X8019100Y-9893000D02*
G75*
G02*
X8059100Y-9893000I20000J0D01*
G01*
X8059100Y-10471300D02*
G75*
G02*
X8019100Y-10471300I-20000J0D01*
G01*
X8019100Y-10471300D02*
G75*
G02*
X8059100Y-10471300I20000J0D01*
G01*
X8059100Y-11093000D02*
G75*
G02*
X8019100Y-11093000I-20000J0D01*
G01*
X8019100Y-11093000D02*
G75*
G02*
X8059100Y-11093000I20000J0D01*
G01*
X8059100Y-11671300D02*
G75*
G02*
X8019100Y-11671300I-20000J0D01*
G01*
X8019100Y-11671300D02*
G75*
G02*
X8059100Y-11671300I20000J0D01*
G01*
X8160700Y-12306300D02*
G75*
G02*
X8120700Y-12306300I-20000J0D01*
G01*
X8120700Y-12306300D02*
G75*
G02*
X8160700Y-12306300I20000J0D01*
G01*
X8465500Y-5880100D02*
G75*
G02*
X8425500Y-5880100I-20000J0D01*
G01*
X8425500Y-5880100D02*
G75*
G02*
X8465500Y-5880100I20000J0D01*
G01*
X9189400Y-4940300D02*
G75*
G02*
X9149400Y-4940300I-20000J0D01*
G01*
X9149400Y-4940300D02*
G75*
G02*
X9189400Y-4940300I20000J0D01*
G01*
X9532300Y-5448300D02*
G75*
G02*
X9492300Y-5448300I-20000J0D01*
G01*
X9492300Y-5448300D02*
G75*
G02*
X9532300Y-5448300I20000J0D01*
G01*
X10078400Y-6680200D02*
G75*
G02*
X10038400Y-6680200I-20000J0D01*
G01*
X10038400Y-6680200D02*
G75*
G02*
X10078400Y-6680200I20000J0D01*
G01*
X11335700Y-10426700D02*
G75*
G02*
X11295700Y-10426700I-20000J0D01*
G01*
X11295700Y-10426700D02*
G75*
G02*
X11335700Y-10426700I20000J0D01*
G01*
X11424600Y-6426200D02*
G75*
G02*
X11384600Y-6426200I-20000J0D01*
G01*
X11384600Y-6426200D02*
G75*
G02*
X11424600Y-6426200I20000J0D01*
G01*
X11526200Y-8115300D02*
G75*
G02*
X11486200Y-8115300I-20000J0D01*
G01*
X11486200Y-8115300D02*
G75*
G02*
X11526200Y-8115300I20000J0D01*
G01*
X11551600Y-5346700D02*
G75*
G02*
X11511600Y-5346700I-20000J0D01*
G01*
X11511600Y-5346700D02*
G75*
G02*
X11551600Y-5346700I20000J0D01*
G01*
X11818300Y-11836400D02*
G75*
G02*
X11778300Y-11836400I-20000J0D01*
G01*
X11778300Y-11836400D02*
G75*
G02*
X11818300Y-11836400I20000J0D01*
G01*
X12339000Y-6146800D02*
G75*
G02*
X12299000Y-6146800I-20000J0D01*
G01*
X12299000Y-6146800D02*
G75*
G02*
X12339000Y-6146800I20000J0D01*
G01*
X12669200Y-5918200D02*
G75*
G02*
X12629200Y-5918200I-20000J0D01*
G01*
X12629200Y-5918200D02*
G75*
G02*
X12669200Y-5918200I20000J0D01*
G01*
X12910500Y-11569700D02*
G75*
G02*
X12870500Y-11569700I-20000J0D01*
G01*
X12870500Y-11569700D02*
G75*
G02*
X12910500Y-11569700I20000J0D01*
G01*
X12961300Y-5664200D02*
G75*
G02*
X12921300Y-5664200I-20000J0D01*
G01*
X12921300Y-5664200D02*
G75*
G02*
X12961300Y-5664200I20000J0D01*
G01*
X12974000Y-5359400D02*
G75*
G02*
X12934000Y-5359400I-20000J0D01*
G01*
X12934000Y-5359400D02*
G75*
G02*
X12974000Y-5359400I20000J0D01*
G01*
X13228000Y-6400800D02*
G75*
G02*
X13188000Y-6400800I-20000J0D01*
G01*
X13188000Y-6400800D02*
G75*
G02*
X13228000Y-6400800I20000J0D01*
G01*
X13405800Y-5791200D02*
G75*
G02*
X13365800Y-5791200I-20000J0D01*
G01*
X13365800Y-5791200D02*
G75*
G02*
X13405800Y-5791200I20000J0D01*
G01*
X13837600Y-5613400D02*
G75*
G02*
X13797600Y-5613400I-20000J0D01*
G01*
X13797600Y-5613400D02*
G75*
G02*
X13837600Y-5613400I20000J0D01*
G01*
X14929800Y-5816600D02*
G75*
G02*
X14889800Y-5816600I-20000J0D01*
G01*
X14889800Y-5816600D02*
G75*
G02*
X14929800Y-5816600I20000J0D01*
G01*
X7627647Y-11819546D02*
X7627647Y-11859546D01*
X7607647Y-11839546D02*
X7647647Y-11839546D01*
X7627647Y-11954546D02*
X7627647Y-11994546D01*
X7607647Y-11974546D02*
X7647647Y-11974546D01*
X7712647Y-11819546D02*
X7712647Y-11859546D01*
X7692647Y-11839546D02*
X7732647Y-11839546D01*
X7712647Y-11954546D02*
X7712647Y-11994546D01*
X7692647Y-11974546D02*
X7732647Y-11974546D01*
X7797647Y-11819546D02*
X7797647Y-11859546D01*
X7777647Y-11839546D02*
X7817647Y-11839546D01*
X7797647Y-11954546D02*
X7797647Y-11994546D01*
X7777647Y-11974546D02*
X7817647Y-11974546D01*
X7882647Y-11819546D02*
X7882647Y-11859546D01*
X7862647Y-11839546D02*
X7902647Y-11839546D01*
X7882647Y-11954546D02*
X7882647Y-11994546D01*
X7862647Y-11974546D02*
X7902647Y-11974546D01*
X7967647Y-11819546D02*
X7967647Y-11859546D01*
X7947647Y-11839546D02*
X7987647Y-11839546D01*
X7967647Y-11954546D02*
X7967647Y-11994546D01*
X7947647Y-11974546D02*
X7987647Y-11974546D01*
X8052647Y-11819546D02*
X8052647Y-11859546D01*
X8032647Y-11839546D02*
X8072647Y-11839546D01*
X8052647Y-11954546D02*
X8052647Y-11994546D01*
X8032647Y-11974546D02*
X8072647Y-11974546D01*
X8137647Y-11819546D02*
X8137647Y-11859546D01*
X8117647Y-11839546D02*
X8157647Y-11839546D01*
X8137647Y-11954546D02*
X8137647Y-11994546D01*
X8117647Y-11974546D02*
X8157647Y-11974546D01*
X8222647Y-11819546D02*
X8222647Y-11859546D01*
X8202647Y-11839546D02*
X8242647Y-11839546D01*
X8222647Y-11954546D02*
X8222647Y-11994546D01*
X8202647Y-11974546D02*
X8242647Y-11974546D01*
X7513860Y-11958760D02*
X7513860Y-11916333D01*
X7471434Y-11916333D01*
X7471434Y-11958760D01*
X7513860Y-11958760D01*
X7462647Y-11862546D02*
X7462647Y-12012546D01*
X7522647Y-12012546D02*
G75*
G02*
X7462647Y-12012546I-30000J0D01*
G01*
X7522647Y-12012546D02*
X7522647Y-11862546D01*
X7522647Y-11862546D02*
G75*
G03*
X7462647Y-11862546I-30000J0D01*
G01*
X7513860Y-12296760D02*
X7513860Y-12254333D01*
X7471434Y-12254333D01*
X7471434Y-12296760D01*
X7513860Y-12296760D01*
X7462647Y-12235546D02*
X7462647Y-12315546D01*
X7522647Y-12315546D02*
G75*
G02*
X7462647Y-12315546I-30000J0D01*
G01*
X7522647Y-12315546D02*
X7522647Y-12235546D01*
X7522647Y-12235546D02*
G75*
G03*
X7462647Y-12235546I-30000J0D01*
G01*
X8378860Y-11958760D02*
X8378860Y-11916333D01*
X8336434Y-11916333D01*
X8336434Y-11958760D01*
X8378860Y-11958760D01*
X8327647Y-11862546D02*
X8327647Y-12012546D01*
X8387647Y-12012546D02*
G75*
G02*
X8327647Y-12012546I-30000J0D01*
G01*
X8387647Y-12012546D02*
X8387647Y-11862546D01*
X8387647Y-11862546D02*
G75*
G03*
X8327647Y-11862546I-30000J0D01*
G01*
X8378860Y-12296760D02*
X8378860Y-12254333D01*
X8336434Y-12254333D01*
X8336434Y-12296760D01*
X8378860Y-12296760D01*
X8327647Y-12235546D02*
X8327647Y-12315546D01*
X8387647Y-12315546D02*
G75*
G02*
X8327647Y-12315546I-30000J0D01*
G01*
X8387647Y-12315546D02*
X8387647Y-12235546D01*
X8387647Y-12235546D02*
G75*
G03*
X8327647Y-12235546I-30000J0D01*
G01*
X14351900Y-5150400D02*
X14396900Y-5105400D01*
X14351900Y-5060400D01*
X14306900Y-5105400D01*
X14351900Y-5150400D01*
X14441900Y-5060400D02*
X14261900Y-5060400D01*
X14261900Y-5150400D02*
G75*
G02*
X14261900Y-5060400I0J45000D01*
G01*
X14261900Y-5150400D02*
X14441900Y-5150400D01*
X14441900Y-5150400D02*
G75*
G03*
X14441900Y-5060400I0J45000D01*
G01*
X14351900Y-6600400D02*
X14396900Y-6555400D01*
X14351900Y-6510400D01*
X14306900Y-6555400D01*
X14351900Y-6600400D01*
X14441900Y-6510400D02*
X14261900Y-6510400D01*
X14261900Y-6600400D02*
G75*
G02*
X14261900Y-6510400I0J45000D01*
G01*
X14261900Y-6600400D02*
X14441900Y-6600400D01*
X14441900Y-6600400D02*
G75*
G03*
X14441900Y-6510400I0J45000D01*
G01*
X14947900Y-5150400D02*
X14992900Y-5105400D01*
X14947900Y-5060400D01*
X14902900Y-5105400D01*
X14947900Y-5150400D01*
X14987900Y-5060400D02*
X14907900Y-5060400D01*
X14907900Y-5150400D02*
G75*
G02*
X14907900Y-5060400I0J45000D01*
G01*
X14907900Y-5150400D02*
X14987900Y-5150400D01*
X14987900Y-5150400D02*
G75*
G03*
X14987900Y-5060400I0J45000D01*
G01*
X14947900Y-6600400D02*
X14992900Y-6555400D01*
X14947900Y-6510400D01*
X14902900Y-6555400D01*
X14947900Y-6600400D01*
X14987900Y-6510400D02*
X14907900Y-6510400D01*
X14907900Y-6600400D02*
G75*
G02*
X14907900Y-6510400I0J45000D01*
G01*
X14907900Y-6600400D02*
X14987900Y-6600400D01*
X14987900Y-6600400D02*
G75*
G03*
X14987900Y-6510400I0J45000D01*
G01*
X4518000Y-4268000D02*
X4618000Y-4368000D01*
X4618000Y-4268000D02*
X4518000Y-4368000D01*
X4618000Y-4318000D02*
G75*
G02*
X4518000Y-4318000I-50000J0D01*
G01*
X4518000Y-4318000D02*
G75*
G02*
X4618000Y-4318000I50000J0D01*
G01*
X4518000Y-4522000D02*
X4618000Y-4622000D01*
X4618000Y-4522000D02*
X4518000Y-4622000D01*
X4618000Y-4572000D02*
G75*
G02*
X4518000Y-4572000I-50000J0D01*
G01*
X4518000Y-4572000D02*
G75*
G02*
X4618000Y-4572000I50000J0D01*
G01*
X4518000Y-4776000D02*
X4618000Y-4876000D01*
X4618000Y-4776000D02*
X4518000Y-4876000D01*
X4618000Y-4826000D02*
G75*
G02*
X4518000Y-4826000I-50000J0D01*
G01*
X4518000Y-4826000D02*
G75*
G02*
X4618000Y-4826000I50000J0D01*
G01*
X4518000Y-5030000D02*
X4618000Y-5130000D01*
X4618000Y-5030000D02*
X4518000Y-5130000D01*
X4618000Y-5080000D02*
G75*
G02*
X4518000Y-5080000I-50000J0D01*
G01*
X4518000Y-5080000D02*
G75*
G02*
X4618000Y-5080000I50000J0D01*
G01*
X4518000Y-5284000D02*
X4618000Y-5384000D01*
X4618000Y-5284000D02*
X4518000Y-5384000D01*
X4618000Y-5334000D02*
G75*
G02*
X4518000Y-5334000I-50000J0D01*
G01*
X4518000Y-5334000D02*
G75*
G02*
X4618000Y-5334000I50000J0D01*
G01*
X4518000Y-5538000D02*
X4618000Y-5638000D01*
X4618000Y-5538000D02*
X4518000Y-5638000D01*
X4618000Y-5588000D02*
G75*
G02*
X4518000Y-5588000I-50000J0D01*
G01*
X4518000Y-5588000D02*
G75*
G02*
X4618000Y-5588000I50000J0D01*
G01*
X4518000Y-5792000D02*
X4618000Y-5892000D01*
X4618000Y-5792000D02*
X4518000Y-5892000D01*
X4618000Y-5842000D02*
G75*
G02*
X4518000Y-5842000I-50000J0D01*
G01*
X4518000Y-5842000D02*
G75*
G02*
X4618000Y-5842000I50000J0D01*
G01*
X4518000Y-6046000D02*
X4618000Y-6146000D01*
X4618000Y-6046000D02*
X4518000Y-6146000D01*
X4618000Y-6096000D02*
G75*
G02*
X4518000Y-6096000I-50000J0D01*
G01*
X4518000Y-6096000D02*
G75*
G02*
X4618000Y-6096000I50000J0D01*
G01*
X4518000Y-6300000D02*
X4618000Y-6400000D01*
X4618000Y-6300000D02*
X4518000Y-6400000D01*
X4618000Y-6350000D02*
G75*
G02*
X4518000Y-6350000I-50000J0D01*
G01*
X4518000Y-6350000D02*
G75*
G02*
X4618000Y-6350000I50000J0D01*
G01*
X4518000Y-6554000D02*
X4618000Y-6654000D01*
X4618000Y-6554000D02*
X4518000Y-6654000D01*
X4618000Y-6604000D02*
G75*
G02*
X4518000Y-6604000I-50000J0D01*
G01*
X4518000Y-6604000D02*
G75*
G02*
X4618000Y-6604000I50000J0D01*
G01*
X4518000Y-6808000D02*
X4618000Y-6908000D01*
X4618000Y-6808000D02*
X4518000Y-6908000D01*
X4618000Y-6858000D02*
G75*
G02*
X4518000Y-6858000I-50000J0D01*
G01*
X4518000Y-6858000D02*
G75*
G02*
X4618000Y-6858000I50000J0D01*
G01*
X4518000Y-7062000D02*
X4618000Y-7162000D01*
X4618000Y-7062000D02*
X4518000Y-7162000D01*
X4618000Y-7112000D02*
G75*
G02*
X4518000Y-7112000I-50000J0D01*
G01*
X4518000Y-7112000D02*
G75*
G02*
X4618000Y-7112000I50000J0D01*
G01*
X4518000Y-7316000D02*
X4618000Y-7416000D01*
X4618000Y-7316000D02*
X4518000Y-7416000D01*
X4618000Y-7366000D02*
G75*
G02*
X4518000Y-7366000I-50000J0D01*
G01*
X4518000Y-7366000D02*
G75*
G02*
X4618000Y-7366000I50000J0D01*
G01*
X4518000Y-7570000D02*
X4618000Y-7670000D01*
X4618000Y-7570000D02*
X4518000Y-7670000D01*
X4618000Y-7620000D02*
G75*
G02*
X4518000Y-7620000I-50000J0D01*
G01*
X4518000Y-7620000D02*
G75*
G02*
X4618000Y-7620000I50000J0D01*
G01*
X4518000Y-7824000D02*
X4618000Y-7924000D01*
X4618000Y-7824000D02*
X4518000Y-7924000D01*
X4618000Y-7874000D02*
G75*
G02*
X4518000Y-7874000I-50000J0D01*
G01*
X4518000Y-7874000D02*
G75*
G02*
X4618000Y-7874000I50000J0D01*
G01*
X4518000Y-8078000D02*
X4618000Y-8178000D01*
X4618000Y-8078000D02*
X4518000Y-8178000D01*
X4618000Y-8128000D02*
G75*
G02*
X4518000Y-8128000I-50000J0D01*
G01*
X4518000Y-8128000D02*
G75*
G02*
X4618000Y-8128000I50000J0D01*
G01*
X4518000Y-8332000D02*
X4618000Y-8432000D01*
X4618000Y-8332000D02*
X4518000Y-8432000D01*
X4618000Y-8382000D02*
G75*
G02*
X4518000Y-8382000I-50000J0D01*
G01*
X4518000Y-8382000D02*
G75*
G02*
X4618000Y-8382000I50000J0D01*
G01*
X4518000Y-8586000D02*
X4618000Y-8686000D01*
X4618000Y-8586000D02*
X4518000Y-8686000D01*
X4618000Y-8636000D02*
G75*
G02*
X4518000Y-8636000I-50000J0D01*
G01*
X4518000Y-8636000D02*
G75*
G02*
X4618000Y-8636000I50000J0D01*
G01*
X4518000Y-8842000D02*
X4618000Y-8942000D01*
X4618000Y-8842000D02*
X4518000Y-8942000D01*
X4618000Y-8892000D02*
G75*
G02*
X4518000Y-8892000I-50000J0D01*
G01*
X4518000Y-8892000D02*
G75*
G02*
X4618000Y-8892000I50000J0D01*
G01*
X4518000Y-9094000D02*
X4618000Y-9194000D01*
X4618000Y-9094000D02*
X4518000Y-9194000D01*
X4618000Y-9144000D02*
G75*
G02*
X4518000Y-9144000I-50000J0D01*
G01*
X4518000Y-9144000D02*
G75*
G02*
X4618000Y-9144000I50000J0D01*
G01*
X4518000Y-9348000D02*
X4618000Y-9448000D01*
X4618000Y-9348000D02*
X4518000Y-9448000D01*
X4618000Y-9398000D02*
G75*
G02*
X4518000Y-9398000I-50000J0D01*
G01*
X4518000Y-9398000D02*
G75*
G02*
X4618000Y-9398000I50000J0D01*
G01*
X4518000Y-9602000D02*
X4618000Y-9702000D01*
X4618000Y-9602000D02*
X4518000Y-9702000D01*
X4618000Y-9652000D02*
G75*
G02*
X4518000Y-9652000I-50000J0D01*
G01*
X4518000Y-9652000D02*
G75*
G02*
X4618000Y-9652000I50000J0D01*
G01*
X4518000Y-9856000D02*
X4618000Y-9956000D01*
X4618000Y-9856000D02*
X4518000Y-9956000D01*
X4618000Y-9906000D02*
G75*
G02*
X4518000Y-9906000I-50000J0D01*
G01*
X4518000Y-9906000D02*
G75*
G02*
X4618000Y-9906000I50000J0D01*
G01*
X4518000Y-10110000D02*
X4618000Y-10210000D01*
X4618000Y-10110000D02*
X4518000Y-10210000D01*
X4618000Y-10160000D02*
G75*
G02*
X4518000Y-10160000I-50000J0D01*
G01*
X4518000Y-10160000D02*
G75*
G02*
X4618000Y-10160000I50000J0D01*
G01*
X4518000Y-10364000D02*
X4618000Y-10464000D01*
X4618000Y-10364000D02*
X4518000Y-10464000D01*
X4618000Y-10414000D02*
G75*
G02*
X4518000Y-10414000I-50000J0D01*
G01*
X4518000Y-10414000D02*
G75*
G02*
X4618000Y-10414000I50000J0D01*
G01*
X4518000Y-10618000D02*
X4618000Y-10718000D01*
X4618000Y-10618000D02*
X4518000Y-10718000D01*
X4618000Y-10668000D02*
G75*
G02*
X4518000Y-10668000I-50000J0D01*
G01*
X4518000Y-10668000D02*
G75*
G02*
X4618000Y-10668000I50000J0D01*
G01*
X4518000Y-10872000D02*
X4618000Y-10972000D01*
X4618000Y-10872000D02*
X4518000Y-10972000D01*
X4618000Y-10922000D02*
G75*
G02*
X4518000Y-10922000I-50000J0D01*
G01*
X4518000Y-10922000D02*
G75*
G02*
X4618000Y-10922000I50000J0D01*
G01*
X4518000Y-11126000D02*
X4618000Y-11226000D01*
X4618000Y-11126000D02*
X4518000Y-11226000D01*
X4618000Y-11176000D02*
G75*
G02*
X4518000Y-11176000I-50000J0D01*
G01*
X4518000Y-11176000D02*
G75*
G02*
X4618000Y-11176000I50000J0D01*
G01*
X4518000Y-11380000D02*
X4618000Y-11480000D01*
X4618000Y-11380000D02*
X4518000Y-11480000D01*
X4618000Y-11430000D02*
G75*
G02*
X4518000Y-11430000I-50000J0D01*
G01*
X4518000Y-11430000D02*
G75*
G02*
X4618000Y-11430000I50000J0D01*
G01*
X4518000Y-11634000D02*
X4618000Y-11734000D01*
X4618000Y-11634000D02*
X4518000Y-11734000D01*
X4618000Y-11684000D02*
G75*
G02*
X4518000Y-11684000I-50000J0D01*
G01*
X4518000Y-11684000D02*
G75*
G02*
X4618000Y-11684000I50000J0D01*
G01*
X4518000Y-11888000D02*
X4618000Y-11988000D01*
X4618000Y-11888000D02*
X4518000Y-11988000D01*
X4618000Y-11938000D02*
G75*
G02*
X4518000Y-11938000I-50000J0D01*
G01*
X4518000Y-11938000D02*
G75*
G02*
X4618000Y-11938000I50000J0D01*
G01*
X4518000Y-12142000D02*
X4618000Y-12242000D01*
X4618000Y-12142000D02*
X4518000Y-12242000D01*
X4618000Y-12192000D02*
G75*
G02*
X4518000Y-12192000I-50000J0D01*
G01*
X4518000Y-12192000D02*
G75*
G02*
X4618000Y-12192000I50000J0D01*
G01*
X4772000Y-4268000D02*
X4872000Y-4368000D01*
X4872000Y-4268000D02*
X4772000Y-4368000D01*
X4872000Y-4318000D02*
G75*
G02*
X4772000Y-4318000I-50000J0D01*
G01*
X4772000Y-4318000D02*
G75*
G02*
X4872000Y-4318000I50000J0D01*
G01*
X4772000Y-4522000D02*
X4872000Y-4622000D01*
X4872000Y-4522000D02*
X4772000Y-4622000D01*
X4872000Y-4572000D02*
G75*
G02*
X4772000Y-4572000I-50000J0D01*
G01*
X4772000Y-4572000D02*
G75*
G02*
X4872000Y-4572000I50000J0D01*
G01*
X4772000Y-4776000D02*
X4872000Y-4876000D01*
X4872000Y-4776000D02*
X4772000Y-4876000D01*
X4872000Y-4826000D02*
G75*
G02*
X4772000Y-4826000I-50000J0D01*
G01*
X4772000Y-4826000D02*
G75*
G02*
X4872000Y-4826000I50000J0D01*
G01*
X4772000Y-5030000D02*
X4872000Y-5130000D01*
X4872000Y-5030000D02*
X4772000Y-5130000D01*
X4872000Y-5080000D02*
G75*
G02*
X4772000Y-5080000I-50000J0D01*
G01*
X4772000Y-5080000D02*
G75*
G02*
X4872000Y-5080000I50000J0D01*
G01*
X4772000Y-5284000D02*
X4872000Y-5384000D01*
X4872000Y-5284000D02*
X4772000Y-5384000D01*
X4872000Y-5334000D02*
G75*
G02*
X4772000Y-5334000I-50000J0D01*
G01*
X4772000Y-5334000D02*
G75*
G02*
X4872000Y-5334000I50000J0D01*
G01*
X4772000Y-5538000D02*
X4872000Y-5638000D01*
X4872000Y-5538000D02*
X4772000Y-5638000D01*
X4872000Y-5588000D02*
G75*
G02*
X4772000Y-5588000I-50000J0D01*
G01*
X4772000Y-5588000D02*
G75*
G02*
X4872000Y-5588000I50000J0D01*
G01*
X4772000Y-5792000D02*
X4872000Y-5892000D01*
X4872000Y-5792000D02*
X4772000Y-5892000D01*
X4872000Y-5842000D02*
G75*
G02*
X4772000Y-5842000I-50000J0D01*
G01*
X4772000Y-5842000D02*
G75*
G02*
X4872000Y-5842000I50000J0D01*
G01*
X4772000Y-6046000D02*
X4872000Y-6146000D01*
X4872000Y-6046000D02*
X4772000Y-6146000D01*
X4872000Y-6096000D02*
G75*
G02*
X4772000Y-6096000I-50000J0D01*
G01*
X4772000Y-6096000D02*
G75*
G02*
X4872000Y-6096000I50000J0D01*
G01*
X4772000Y-6300000D02*
X4872000Y-6400000D01*
X4872000Y-6300000D02*
X4772000Y-6400000D01*
X4872000Y-6350000D02*
G75*
G02*
X4772000Y-6350000I-50000J0D01*
G01*
X4772000Y-6350000D02*
G75*
G02*
X4872000Y-6350000I50000J0D01*
G01*
X4772000Y-6554000D02*
X4872000Y-6654000D01*
X4872000Y-6554000D02*
X4772000Y-6654000D01*
X4872000Y-6604000D02*
G75*
G02*
X4772000Y-6604000I-50000J0D01*
G01*
X4772000Y-6604000D02*
G75*
G02*
X4872000Y-6604000I50000J0D01*
G01*
X4772000Y-6808000D02*
X4872000Y-6908000D01*
X4872000Y-6808000D02*
X4772000Y-6908000D01*
X4872000Y-6858000D02*
G75*
G02*
X4772000Y-6858000I-50000J0D01*
G01*
X4772000Y-6858000D02*
G75*
G02*
X4872000Y-6858000I50000J0D01*
G01*
X4772000Y-7062000D02*
X4872000Y-7162000D01*
X4872000Y-7062000D02*
X4772000Y-7162000D01*
X4872000Y-7112000D02*
G75*
G02*
X4772000Y-7112000I-50000J0D01*
G01*
X4772000Y-7112000D02*
G75*
G02*
X4872000Y-7112000I50000J0D01*
G01*
X4772000Y-7316000D02*
X4872000Y-7416000D01*
X4872000Y-7316000D02*
X4772000Y-7416000D01*
X4872000Y-7366000D02*
G75*
G02*
X4772000Y-7366000I-50000J0D01*
G01*
X4772000Y-7366000D02*
G75*
G02*
X4872000Y-7366000I50000J0D01*
G01*
X4772000Y-7570000D02*
X4872000Y-7670000D01*
X4872000Y-7570000D02*
X4772000Y-7670000D01*
X4872000Y-7620000D02*
G75*
G02*
X4772000Y-7620000I-50000J0D01*
G01*
X4772000Y-7620000D02*
G75*
G02*
X4872000Y-7620000I50000J0D01*
G01*
X4772000Y-7824000D02*
X4872000Y-7924000D01*
X4872000Y-7824000D02*
X4772000Y-7924000D01*
X4872000Y-7874000D02*
G75*
G02*
X4772000Y-7874000I-50000J0D01*
G01*
X4772000Y-7874000D02*
G75*
G02*
X4872000Y-7874000I50000J0D01*
G01*
X4772000Y-8078000D02*
X4872000Y-8178000D01*
X4872000Y-8078000D02*
X4772000Y-8178000D01*
X4872000Y-8128000D02*
G75*
G02*
X4772000Y-8128000I-50000J0D01*
G01*
X4772000Y-8128000D02*
G75*
G02*
X4872000Y-8128000I50000J0D01*
G01*
X4772000Y-8332000D02*
X4872000Y-8432000D01*
X4872000Y-8332000D02*
X4772000Y-8432000D01*
X4872000Y-8382000D02*
G75*
G02*
X4772000Y-8382000I-50000J0D01*
G01*
X4772000Y-8382000D02*
G75*
G02*
X4872000Y-8382000I50000J0D01*
G01*
X4772000Y-8586000D02*
X4872000Y-8686000D01*
X4872000Y-8586000D02*
X4772000Y-8686000D01*
X4872000Y-8636000D02*
G75*
G02*
X4772000Y-8636000I-50000J0D01*
G01*
X4772000Y-8636000D02*
G75*
G02*
X4872000Y-8636000I50000J0D01*
G01*
X4772000Y-8842000D02*
X4872000Y-8942000D01*
X4872000Y-8842000D02*
X4772000Y-8942000D01*
X4872000Y-8892000D02*
G75*
G02*
X4772000Y-8892000I-50000J0D01*
G01*
X4772000Y-8892000D02*
G75*
G02*
X4872000Y-8892000I50000J0D01*
G01*
X4772000Y-9094000D02*
X4872000Y-9194000D01*
X4872000Y-9094000D02*
X4772000Y-9194000D01*
X4872000Y-9144000D02*
G75*
G02*
X4772000Y-9144000I-50000J0D01*
G01*
X4772000Y-9144000D02*
G75*
G02*
X4872000Y-9144000I50000J0D01*
G01*
X4772000Y-9348000D02*
X4872000Y-9448000D01*
X4872000Y-9348000D02*
X4772000Y-9448000D01*
X4872000Y-9398000D02*
G75*
G02*
X4772000Y-9398000I-50000J0D01*
G01*
X4772000Y-9398000D02*
G75*
G02*
X4872000Y-9398000I50000J0D01*
G01*
X4772000Y-9602000D02*
X4872000Y-9702000D01*
X4872000Y-9602000D02*
X4772000Y-9702000D01*
X4872000Y-9652000D02*
G75*
G02*
X4772000Y-9652000I-50000J0D01*
G01*
X4772000Y-9652000D02*
G75*
G02*
X4872000Y-9652000I50000J0D01*
G01*
X4772000Y-9856000D02*
X4872000Y-9956000D01*
X4872000Y-9856000D02*
X4772000Y-9956000D01*
X4872000Y-9906000D02*
G75*
G02*
X4772000Y-9906000I-50000J0D01*
G01*
X4772000Y-9906000D02*
G75*
G02*
X4872000Y-9906000I50000J0D01*
G01*
X4772000Y-10110000D02*
X4872000Y-10210000D01*
X4872000Y-10110000D02*
X4772000Y-10210000D01*
X4872000Y-10160000D02*
G75*
G02*
X4772000Y-10160000I-50000J0D01*
G01*
X4772000Y-10160000D02*
G75*
G02*
X4872000Y-10160000I50000J0D01*
G01*
X4772000Y-10364000D02*
X4872000Y-10464000D01*
X4872000Y-10364000D02*
X4772000Y-10464000D01*
X4872000Y-10414000D02*
G75*
G02*
X4772000Y-10414000I-50000J0D01*
G01*
X4772000Y-10414000D02*
G75*
G02*
X4872000Y-10414000I50000J0D01*
G01*
X4772000Y-10618000D02*
X4872000Y-10718000D01*
X4872000Y-10618000D02*
X4772000Y-10718000D01*
X4872000Y-10668000D02*
G75*
G02*
X4772000Y-10668000I-50000J0D01*
G01*
X4772000Y-10668000D02*
G75*
G02*
X4872000Y-10668000I50000J0D01*
G01*
X4772000Y-10872000D02*
X4872000Y-10972000D01*
X4872000Y-10872000D02*
X4772000Y-10972000D01*
X4872000Y-10922000D02*
G75*
G02*
X4772000Y-10922000I-50000J0D01*
G01*
X4772000Y-10922000D02*
G75*
G02*
X4872000Y-10922000I50000J0D01*
G01*
X4772000Y-11126000D02*
X4872000Y-11226000D01*
X4872000Y-11126000D02*
X4772000Y-11226000D01*
X4872000Y-11176000D02*
G75*
G02*
X4772000Y-11176000I-50000J0D01*
G01*
X4772000Y-11176000D02*
G75*
G02*
X4872000Y-11176000I50000J0D01*
G01*
X4772000Y-11380000D02*
X4872000Y-11480000D01*
X4872000Y-11380000D02*
X4772000Y-11480000D01*
X4872000Y-11430000D02*
G75*
G02*
X4772000Y-11430000I-50000J0D01*
G01*
X4772000Y-11430000D02*
G75*
G02*
X4872000Y-11430000I50000J0D01*
G01*
X4772000Y-11634000D02*
X4872000Y-11734000D01*
X4872000Y-11634000D02*
X4772000Y-11734000D01*
X4872000Y-11684000D02*
G75*
G02*
X4772000Y-11684000I-50000J0D01*
G01*
X4772000Y-11684000D02*
G75*
G02*
X4872000Y-11684000I50000J0D01*
G01*
X4772000Y-11888000D02*
X4872000Y-11988000D01*
X4872000Y-11888000D02*
X4772000Y-11988000D01*
X4872000Y-11938000D02*
G75*
G02*
X4772000Y-11938000I-50000J0D01*
G01*
X4772000Y-11938000D02*
G75*
G02*
X4872000Y-11938000I50000J0D01*
G01*
X4772000Y-12142000D02*
X4872000Y-12242000D01*
X4872000Y-12142000D02*
X4772000Y-12242000D01*
X4872000Y-12192000D02*
G75*
G02*
X4772000Y-12192000I-50000J0D01*
G01*
X4772000Y-12192000D02*
G75*
G02*
X4872000Y-12192000I50000J0D01*
G01*
X10618000Y-4268000D02*
X10718000Y-4368000D01*
X10718000Y-4268000D02*
X10618000Y-4368000D01*
X10718000Y-4318000D02*
G75*
G02*
X10618000Y-4318000I-50000J0D01*
G01*
X10618000Y-4318000D02*
G75*
G02*
X10718000Y-4318000I50000J0D01*
G01*
X10618000Y-4522000D02*
X10718000Y-4622000D01*
X10718000Y-4522000D02*
X10618000Y-4622000D01*
X10718000Y-4572000D02*
G75*
G02*
X10618000Y-4572000I-50000J0D01*
G01*
X10618000Y-4572000D02*
G75*
G02*
X10718000Y-4572000I50000J0D01*
G01*
X10618000Y-4776000D02*
X10718000Y-4876000D01*
X10718000Y-4776000D02*
X10618000Y-4876000D01*
X10718000Y-4826000D02*
G75*
G02*
X10618000Y-4826000I-50000J0D01*
G01*
X10618000Y-4826000D02*
G75*
G02*
X10718000Y-4826000I50000J0D01*
G01*
X10618000Y-5030000D02*
X10718000Y-5130000D01*
X10718000Y-5030000D02*
X10618000Y-5130000D01*
X10718000Y-5080000D02*
G75*
G02*
X10618000Y-5080000I-50000J0D01*
G01*
X10618000Y-5080000D02*
G75*
G02*
X10718000Y-5080000I50000J0D01*
G01*
X10618000Y-5284000D02*
X10718000Y-5384000D01*
X10718000Y-5284000D02*
X10618000Y-5384000D01*
X10718000Y-5334000D02*
G75*
G02*
X10618000Y-5334000I-50000J0D01*
G01*
X10618000Y-5334000D02*
G75*
G02*
X10718000Y-5334000I50000J0D01*
G01*
X10618000Y-5538000D02*
X10718000Y-5638000D01*
X10718000Y-5538000D02*
X10618000Y-5638000D01*
X10718000Y-5588000D02*
G75*
G02*
X10618000Y-5588000I-50000J0D01*
G01*
X10618000Y-5588000D02*
G75*
G02*
X10718000Y-5588000I50000J0D01*
G01*
X10618000Y-5792000D02*
X10718000Y-5892000D01*
X10718000Y-5792000D02*
X10618000Y-5892000D01*
X10718000Y-5842000D02*
G75*
G02*
X10618000Y-5842000I-50000J0D01*
G01*
X10618000Y-5842000D02*
G75*
G02*
X10718000Y-5842000I50000J0D01*
G01*
X10618000Y-6046000D02*
X10718000Y-6146000D01*
X10718000Y-6046000D02*
X10618000Y-6146000D01*
X10718000Y-6096000D02*
G75*
G02*
X10618000Y-6096000I-50000J0D01*
G01*
X10618000Y-6096000D02*
G75*
G02*
X10718000Y-6096000I50000J0D01*
G01*
X10618000Y-6300000D02*
X10718000Y-6400000D01*
X10718000Y-6300000D02*
X10618000Y-6400000D01*
X10718000Y-6350000D02*
G75*
G02*
X10618000Y-6350000I-50000J0D01*
G01*
X10618000Y-6350000D02*
G75*
G02*
X10718000Y-6350000I50000J0D01*
G01*
X10618000Y-6554000D02*
X10718000Y-6654000D01*
X10718000Y-6554000D02*
X10618000Y-6654000D01*
X10718000Y-6604000D02*
G75*
G02*
X10618000Y-6604000I-50000J0D01*
G01*
X10618000Y-6604000D02*
G75*
G02*
X10718000Y-6604000I50000J0D01*
G01*
X10618000Y-6808000D02*
X10718000Y-6908000D01*
X10718000Y-6808000D02*
X10618000Y-6908000D01*
X10718000Y-6858000D02*
G75*
G02*
X10618000Y-6858000I-50000J0D01*
G01*
X10618000Y-6858000D02*
G75*
G02*
X10718000Y-6858000I50000J0D01*
G01*
X10618000Y-7062000D02*
X10718000Y-7162000D01*
X10718000Y-7062000D02*
X10618000Y-7162000D01*
X10718000Y-7112000D02*
G75*
G02*
X10618000Y-7112000I-50000J0D01*
G01*
X10618000Y-7112000D02*
G75*
G02*
X10718000Y-7112000I50000J0D01*
G01*
X10618000Y-7316000D02*
X10718000Y-7416000D01*
X10718000Y-7316000D02*
X10618000Y-7416000D01*
X10718000Y-7366000D02*
G75*
G02*
X10618000Y-7366000I-50000J0D01*
G01*
X10618000Y-7366000D02*
G75*
G02*
X10718000Y-7366000I50000J0D01*
G01*
X10618000Y-7570000D02*
X10718000Y-7670000D01*
X10718000Y-7570000D02*
X10618000Y-7670000D01*
X10718000Y-7620000D02*
G75*
G02*
X10618000Y-7620000I-50000J0D01*
G01*
X10618000Y-7620000D02*
G75*
G02*
X10718000Y-7620000I50000J0D01*
G01*
X10618000Y-7824000D02*
X10718000Y-7924000D01*
X10718000Y-7824000D02*
X10618000Y-7924000D01*
X10718000Y-7874000D02*
G75*
G02*
X10618000Y-7874000I-50000J0D01*
G01*
X10618000Y-7874000D02*
G75*
G02*
X10718000Y-7874000I50000J0D01*
G01*
X10618000Y-8078000D02*
X10718000Y-8178000D01*
X10718000Y-8078000D02*
X10618000Y-8178000D01*
X10718000Y-8128000D02*
G75*
G02*
X10618000Y-8128000I-50000J0D01*
G01*
X10618000Y-8128000D02*
G75*
G02*
X10718000Y-8128000I50000J0D01*
G01*
X10618000Y-8332000D02*
X10718000Y-8432000D01*
X10718000Y-8332000D02*
X10618000Y-8432000D01*
X10718000Y-8382000D02*
G75*
G02*
X10618000Y-8382000I-50000J0D01*
G01*
X10618000Y-8382000D02*
G75*
G02*
X10718000Y-8382000I50000J0D01*
G01*
X10618000Y-8586000D02*
X10718000Y-8686000D01*
X10718000Y-8586000D02*
X10618000Y-8686000D01*
X10718000Y-8636000D02*
G75*
G02*
X10618000Y-8636000I-50000J0D01*
G01*
X10618000Y-8636000D02*
G75*
G02*
X10718000Y-8636000I50000J0D01*
G01*
X10618000Y-8840000D02*
X10718000Y-8940000D01*
X10718000Y-8840000D02*
X10618000Y-8940000D01*
X10718000Y-8890000D02*
G75*
G02*
X10618000Y-8890000I-50000J0D01*
G01*
X10618000Y-8890000D02*
G75*
G02*
X10718000Y-8890000I50000J0D01*
G01*
X10618000Y-9094000D02*
X10718000Y-9194000D01*
X10718000Y-9094000D02*
X10618000Y-9194000D01*
X10718000Y-9144000D02*
G75*
G02*
X10618000Y-9144000I-50000J0D01*
G01*
X10618000Y-9144000D02*
G75*
G02*
X10718000Y-9144000I50000J0D01*
G01*
X10618000Y-9348000D02*
X10718000Y-9448000D01*
X10718000Y-9348000D02*
X10618000Y-9448000D01*
X10718000Y-9398000D02*
G75*
G02*
X10618000Y-9398000I-50000J0D01*
G01*
X10618000Y-9398000D02*
G75*
G02*
X10718000Y-9398000I50000J0D01*
G01*
X10618000Y-9602000D02*
X10718000Y-9702000D01*
X10718000Y-9602000D02*
X10618000Y-9702000D01*
X10718000Y-9652000D02*
G75*
G02*
X10618000Y-9652000I-50000J0D01*
G01*
X10618000Y-9652000D02*
G75*
G02*
X10718000Y-9652000I50000J0D01*
G01*
X10618000Y-9856000D02*
X10718000Y-9956000D01*
X10718000Y-9856000D02*
X10618000Y-9956000D01*
X10718000Y-9906000D02*
G75*
G02*
X10618000Y-9906000I-50000J0D01*
G01*
X10618000Y-9906000D02*
G75*
G02*
X10718000Y-9906000I50000J0D01*
G01*
X10618000Y-10110000D02*
X10718000Y-10210000D01*
X10718000Y-10110000D02*
X10618000Y-10210000D01*
X10718000Y-10160000D02*
G75*
G02*
X10618000Y-10160000I-50000J0D01*
G01*
X10618000Y-10160000D02*
G75*
G02*
X10718000Y-10160000I50000J0D01*
G01*
X10618000Y-10364000D02*
X10718000Y-10464000D01*
X10718000Y-10364000D02*
X10618000Y-10464000D01*
X10718000Y-10414000D02*
G75*
G02*
X10618000Y-10414000I-50000J0D01*
G01*
X10618000Y-10414000D02*
G75*
G02*
X10718000Y-10414000I50000J0D01*
G01*
X10618000Y-10618000D02*
X10718000Y-10718000D01*
X10718000Y-10618000D02*
X10618000Y-10718000D01*
X10718000Y-10668000D02*
G75*
G02*
X10618000Y-10668000I-50000J0D01*
G01*
X10618000Y-10668000D02*
G75*
G02*
X10718000Y-10668000I50000J0D01*
G01*
X10618000Y-10872000D02*
X10718000Y-10972000D01*
X10718000Y-10872000D02*
X10618000Y-10972000D01*
X10718000Y-10922000D02*
G75*
G02*
X10618000Y-10922000I-50000J0D01*
G01*
X10618000Y-10922000D02*
G75*
G02*
X10718000Y-10922000I50000J0D01*
G01*
X10618000Y-11126000D02*
X10718000Y-11226000D01*
X10718000Y-11126000D02*
X10618000Y-11226000D01*
X10718000Y-11176000D02*
G75*
G02*
X10618000Y-11176000I-50000J0D01*
G01*
X10618000Y-11176000D02*
G75*
G02*
X10718000Y-11176000I50000J0D01*
G01*
X10618000Y-11380000D02*
X10718000Y-11480000D01*
X10718000Y-11380000D02*
X10618000Y-11480000D01*
X10718000Y-11430000D02*
G75*
G02*
X10618000Y-11430000I-50000J0D01*
G01*
X10618000Y-11430000D02*
G75*
G02*
X10718000Y-11430000I50000J0D01*
G01*
X10618000Y-11634000D02*
X10718000Y-11734000D01*
X10718000Y-11634000D02*
X10618000Y-11734000D01*
X10718000Y-11684000D02*
G75*
G02*
X10618000Y-11684000I-50000J0D01*
G01*
X10618000Y-11684000D02*
G75*
G02*
X10718000Y-11684000I50000J0D01*
G01*
X10618000Y-11888000D02*
X10718000Y-11988000D01*
X10718000Y-11888000D02*
X10618000Y-11988000D01*
X10718000Y-11938000D02*
G75*
G02*
X10618000Y-11938000I-50000J0D01*
G01*
X10618000Y-11938000D02*
G75*
G02*
X10718000Y-11938000I50000J0D01*
G01*
X10618000Y-12142000D02*
X10718000Y-12242000D01*
X10718000Y-12142000D02*
X10618000Y-12242000D01*
X10718000Y-12192000D02*
G75*
G02*
X10618000Y-12192000I-50000J0D01*
G01*
X10618000Y-12192000D02*
G75*
G02*
X10718000Y-12192000I50000J0D01*
G01*
X10872000Y-4268000D02*
X10972000Y-4368000D01*
X10972000Y-4268000D02*
X10872000Y-4368000D01*
X10972000Y-4318000D02*
G75*
G02*
X10872000Y-4318000I-50000J0D01*
G01*
X10872000Y-4318000D02*
G75*
G02*
X10972000Y-4318000I50000J0D01*
G01*
X10872000Y-4522000D02*
X10972000Y-4622000D01*
X10972000Y-4522000D02*
X10872000Y-4622000D01*
X10972000Y-4572000D02*
G75*
G02*
X10872000Y-4572000I-50000J0D01*
G01*
X10872000Y-4572000D02*
G75*
G02*
X10972000Y-4572000I50000J0D01*
G01*
X10872000Y-4776000D02*
X10972000Y-4876000D01*
X10972000Y-4776000D02*
X10872000Y-4876000D01*
X10972000Y-4826000D02*
G75*
G02*
X10872000Y-4826000I-50000J0D01*
G01*
X10872000Y-4826000D02*
G75*
G02*
X10972000Y-4826000I50000J0D01*
G01*
X10872000Y-5030000D02*
X10972000Y-5130000D01*
X10972000Y-5030000D02*
X10872000Y-5130000D01*
X10972000Y-5080000D02*
G75*
G02*
X10872000Y-5080000I-50000J0D01*
G01*
X10872000Y-5080000D02*
G75*
G02*
X10972000Y-5080000I50000J0D01*
G01*
X10872000Y-5284000D02*
X10972000Y-5384000D01*
X10972000Y-5284000D02*
X10872000Y-5384000D01*
X10972000Y-5334000D02*
G75*
G02*
X10872000Y-5334000I-50000J0D01*
G01*
X10872000Y-5334000D02*
G75*
G02*
X10972000Y-5334000I50000J0D01*
G01*
X10872000Y-5538000D02*
X10972000Y-5638000D01*
X10972000Y-5538000D02*
X10872000Y-5638000D01*
X10972000Y-5588000D02*
G75*
G02*
X10872000Y-5588000I-50000J0D01*
G01*
X10872000Y-5588000D02*
G75*
G02*
X10972000Y-5588000I50000J0D01*
G01*
X10872000Y-5792000D02*
X10972000Y-5892000D01*
X10972000Y-5792000D02*
X10872000Y-5892000D01*
X10972000Y-5842000D02*
G75*
G02*
X10872000Y-5842000I-50000J0D01*
G01*
X10872000Y-5842000D02*
G75*
G02*
X10972000Y-5842000I50000J0D01*
G01*
X10872000Y-6046000D02*
X10972000Y-6146000D01*
X10972000Y-6046000D02*
X10872000Y-6146000D01*
X10972000Y-6096000D02*
G75*
G02*
X10872000Y-6096000I-50000J0D01*
G01*
X10872000Y-6096000D02*
G75*
G02*
X10972000Y-6096000I50000J0D01*
G01*
X10872000Y-6300000D02*
X10972000Y-6400000D01*
X10972000Y-6300000D02*
X10872000Y-6400000D01*
X10972000Y-6350000D02*
G75*
G02*
X10872000Y-6350000I-50000J0D01*
G01*
X10872000Y-6350000D02*
G75*
G02*
X10972000Y-6350000I50000J0D01*
G01*
X10872000Y-6554000D02*
X10972000Y-6654000D01*
X10972000Y-6554000D02*
X10872000Y-6654000D01*
X10972000Y-6604000D02*
G75*
G02*
X10872000Y-6604000I-50000J0D01*
G01*
X10872000Y-6604000D02*
G75*
G02*
X10972000Y-6604000I50000J0D01*
G01*
X10872000Y-6808000D02*
X10972000Y-6908000D01*
X10972000Y-6808000D02*
X10872000Y-6908000D01*
X10972000Y-6858000D02*
G75*
G02*
X10872000Y-6858000I-50000J0D01*
G01*
X10872000Y-6858000D02*
G75*
G02*
X10972000Y-6858000I50000J0D01*
G01*
X10872000Y-7062000D02*
X10972000Y-7162000D01*
X10972000Y-7062000D02*
X10872000Y-7162000D01*
X10972000Y-7112000D02*
G75*
G02*
X10872000Y-7112000I-50000J0D01*
G01*
X10872000Y-7112000D02*
G75*
G02*
X10972000Y-7112000I50000J0D01*
G01*
X10872000Y-7316000D02*
X10972000Y-7416000D01*
X10972000Y-7316000D02*
X10872000Y-7416000D01*
X10972000Y-7366000D02*
G75*
G02*
X10872000Y-7366000I-50000J0D01*
G01*
X10872000Y-7366000D02*
G75*
G02*
X10972000Y-7366000I50000J0D01*
G01*
X10872000Y-7570000D02*
X10972000Y-7670000D01*
X10972000Y-7570000D02*
X10872000Y-7670000D01*
X10972000Y-7620000D02*
G75*
G02*
X10872000Y-7620000I-50000J0D01*
G01*
X10872000Y-7620000D02*
G75*
G02*
X10972000Y-7620000I50000J0D01*
G01*
X10872000Y-7824000D02*
X10972000Y-7924000D01*
X10972000Y-7824000D02*
X10872000Y-7924000D01*
X10972000Y-7874000D02*
G75*
G02*
X10872000Y-7874000I-50000J0D01*
G01*
X10872000Y-7874000D02*
G75*
G02*
X10972000Y-7874000I50000J0D01*
G01*
X10872000Y-8078000D02*
X10972000Y-8178000D01*
X10972000Y-8078000D02*
X10872000Y-8178000D01*
X10972000Y-8128000D02*
G75*
G02*
X10872000Y-8128000I-50000J0D01*
G01*
X10872000Y-8128000D02*
G75*
G02*
X10972000Y-8128000I50000J0D01*
G01*
X10872000Y-8332000D02*
X10972000Y-8432000D01*
X10972000Y-8332000D02*
X10872000Y-8432000D01*
X10972000Y-8382000D02*
G75*
G02*
X10872000Y-8382000I-50000J0D01*
G01*
X10872000Y-8382000D02*
G75*
G02*
X10972000Y-8382000I50000J0D01*
G01*
X10872000Y-8586000D02*
X10972000Y-8686000D01*
X10972000Y-8586000D02*
X10872000Y-8686000D01*
X10972000Y-8636000D02*
G75*
G02*
X10872000Y-8636000I-50000J0D01*
G01*
X10872000Y-8636000D02*
G75*
G02*
X10972000Y-8636000I50000J0D01*
G01*
X10872000Y-8840000D02*
X10972000Y-8940000D01*
X10972000Y-8840000D02*
X10872000Y-8940000D01*
X10972000Y-8890000D02*
G75*
G02*
X10872000Y-8890000I-50000J0D01*
G01*
X10872000Y-8890000D02*
G75*
G02*
X10972000Y-8890000I50000J0D01*
G01*
X10872000Y-9094000D02*
X10972000Y-9194000D01*
X10972000Y-9094000D02*
X10872000Y-9194000D01*
X10972000Y-9144000D02*
G75*
G02*
X10872000Y-9144000I-50000J0D01*
G01*
X10872000Y-9144000D02*
G75*
G02*
X10972000Y-9144000I50000J0D01*
G01*
X10872000Y-9348000D02*
X10972000Y-9448000D01*
X10972000Y-9348000D02*
X10872000Y-9448000D01*
X10972000Y-9398000D02*
G75*
G02*
X10872000Y-9398000I-50000J0D01*
G01*
X10872000Y-9398000D02*
G75*
G02*
X10972000Y-9398000I50000J0D01*
G01*
X10872000Y-9602000D02*
X10972000Y-9702000D01*
X10972000Y-9602000D02*
X10872000Y-9702000D01*
X10972000Y-9652000D02*
G75*
G02*
X10872000Y-9652000I-50000J0D01*
G01*
X10872000Y-9652000D02*
G75*
G02*
X10972000Y-9652000I50000J0D01*
G01*
X10872000Y-9856000D02*
X10972000Y-9956000D01*
X10972000Y-9856000D02*
X10872000Y-9956000D01*
X10972000Y-9906000D02*
G75*
G02*
X10872000Y-9906000I-50000J0D01*
G01*
X10872000Y-9906000D02*
G75*
G02*
X10972000Y-9906000I50000J0D01*
G01*
X10872000Y-10110000D02*
X10972000Y-10210000D01*
X10972000Y-10110000D02*
X10872000Y-10210000D01*
X10972000Y-10160000D02*
G75*
G02*
X10872000Y-10160000I-50000J0D01*
G01*
X10872000Y-10160000D02*
G75*
G02*
X10972000Y-10160000I50000J0D01*
G01*
X10872000Y-10364000D02*
X10972000Y-10464000D01*
X10972000Y-10364000D02*
X10872000Y-10464000D01*
X10972000Y-10414000D02*
G75*
G02*
X10872000Y-10414000I-50000J0D01*
G01*
X10872000Y-10414000D02*
G75*
G02*
X10972000Y-10414000I50000J0D01*
G01*
X10872000Y-10618000D02*
X10972000Y-10718000D01*
X10972000Y-10618000D02*
X10872000Y-10718000D01*
X10972000Y-10668000D02*
G75*
G02*
X10872000Y-10668000I-50000J0D01*
G01*
X10872000Y-10668000D02*
G75*
G02*
X10972000Y-10668000I50000J0D01*
G01*
X10872000Y-10872000D02*
X10972000Y-10972000D01*
X10972000Y-10872000D02*
X10872000Y-10972000D01*
X10972000Y-10922000D02*
G75*
G02*
X10872000Y-10922000I-50000J0D01*
G01*
X10872000Y-10922000D02*
G75*
G02*
X10972000Y-10922000I50000J0D01*
G01*
X10872000Y-11126000D02*
X10972000Y-11226000D01*
X10972000Y-11126000D02*
X10872000Y-11226000D01*
X10972000Y-11176000D02*
G75*
G02*
X10872000Y-11176000I-50000J0D01*
G01*
X10872000Y-11176000D02*
G75*
G02*
X10972000Y-11176000I50000J0D01*
G01*
X10872000Y-11380000D02*
X10972000Y-11480000D01*
X10972000Y-11380000D02*
X10872000Y-11480000D01*
X10972000Y-11430000D02*
G75*
G02*
X10872000Y-11430000I-50000J0D01*
G01*
X10872000Y-11430000D02*
G75*
G02*
X10972000Y-11430000I50000J0D01*
G01*
X10872000Y-11634000D02*
X10972000Y-11734000D01*
X10972000Y-11634000D02*
X10872000Y-11734000D01*
X10972000Y-11684000D02*
G75*
G02*
X10872000Y-11684000I-50000J0D01*
G01*
X10872000Y-11684000D02*
G75*
G02*
X10972000Y-11684000I50000J0D01*
G01*
X10872000Y-11888000D02*
X10972000Y-11988000D01*
X10972000Y-11888000D02*
X10872000Y-11988000D01*
X10972000Y-11938000D02*
G75*
G02*
X10872000Y-11938000I-50000J0D01*
G01*
X10872000Y-11938000D02*
G75*
G02*
X10972000Y-11938000I50000J0D01*
G01*
X10872000Y-12142000D02*
X10972000Y-12242000D01*
X10972000Y-12142000D02*
X10872000Y-12242000D01*
X10972000Y-12192000D02*
G75*
G02*
X10872000Y-12192000I-50000J0D01*
G01*
X10872000Y-12192000D02*
G75*
G02*
X10972000Y-12192000I50000J0D01*
G01*
X12240000Y-12010000D02*
X12340000Y-12110000D01*
X12340000Y-12010000D02*
X12240000Y-12110000D01*
X12340000Y-12060000D02*
G75*
G02*
X12240000Y-12060000I-50000J0D01*
G01*
X12240000Y-12060000D02*
G75*
G02*
X12340000Y-12060000I50000J0D01*
G01*
X12494000Y-12010000D02*
X12594000Y-12110000D01*
X12594000Y-12010000D02*
X12494000Y-12110000D01*
X12594000Y-12060000D02*
G75*
G02*
X12494000Y-12060000I-50000J0D01*
G01*
X12494000Y-12060000D02*
G75*
G02*
X12594000Y-12060000I50000J0D01*
G01*
X12748000Y-12010000D02*
X12848000Y-12110000D01*
X12848000Y-12010000D02*
X12748000Y-12110000D01*
X12848000Y-12060000D02*
G75*
G02*
X12748000Y-12060000I-50000J0D01*
G01*
X12748000Y-12060000D02*
G75*
G02*
X12848000Y-12060000I50000J0D01*
G01*
X13002000Y-12010000D02*
X13102000Y-12110000D01*
X13102000Y-12010000D02*
X13002000Y-12110000D01*
X13102000Y-12060000D02*
G75*
G02*
X13002000Y-12060000I-50000J0D01*
G01*
X13002000Y-12060000D02*
G75*
G02*
X13102000Y-12060000I50000J0D01*
G01*
X13256000Y-12010000D02*
X13356000Y-12110000D01*
X13356000Y-12010000D02*
X13256000Y-12110000D01*
X13356000Y-12060000D02*
G75*
G02*
X13256000Y-12060000I-50000J0D01*
G01*
X13256000Y-12060000D02*
G75*
G02*
X13356000Y-12060000I50000J0D01*
G01*
X13510000Y-12010000D02*
X13610000Y-12110000D01*
X13610000Y-12010000D02*
X13510000Y-12110000D01*
X13610000Y-12060000D02*
G75*
G02*
X13510000Y-12060000I-50000J0D01*
G01*
X13510000Y-12060000D02*
G75*
G02*
X13610000Y-12060000I50000J0D01*
G01*
D13*
X2565000Y-4340000D02*
X2785000Y-4560000D01*
X2785000Y-4340000D02*
X2565000Y-4560000D01*
X2675000Y-4340000D02*
X2675000Y-4560000D01*
X2565000Y-4450000D02*
X2785000Y-4450000D01*
X2565000Y-11940000D02*
X2785000Y-12160000D01*
X2785000Y-11940000D02*
X2565000Y-12160000D01*
X2675000Y-11940000D02*
X2675000Y-12160000D01*
X2565000Y-12050000D02*
X2785000Y-12050000D01*
X14765000Y-4340000D02*
X14985000Y-4560000D01*
X14985000Y-4340000D02*
X14765000Y-4560000D01*
X14875000Y-4340000D02*
X14875000Y-4560000D01*
X14765000Y-4450000D02*
X14985000Y-4450000D01*
X14765000Y-11940000D02*
X14985000Y-12160000D01*
X14985000Y-11940000D02*
X14765000Y-12160000D01*
X14875000Y-11940000D02*
X14875000Y-12160000D01*
X14765000Y-12050000D02*
X14985000Y-12050000D01*
D11*
X2470077Y-12762811D02*
X2470077Y-12562811D01*
X2470077Y-12562811D02*
X2517696Y-12562811D01*
X2517696Y-12562811D02*
X2546267Y-12572335D01*
X2546267Y-12572335D02*
X2565315Y-12591383D01*
X2565315Y-12591383D02*
X2574839Y-12610430D01*
X2574839Y-12610430D02*
X2584363Y-12648525D01*
X2584363Y-12648525D02*
X2584363Y-12677097D01*
X2584363Y-12677097D02*
X2574839Y-12715192D01*
X2574839Y-12715192D02*
X2565315Y-12734240D01*
X2565315Y-12734240D02*
X2546267Y-12753287D01*
X2546267Y-12753287D02*
X2517696Y-12762811D01*
X2517696Y-12762811D02*
X2470077Y-12762811D01*
X2670077Y-12762811D02*
X2670077Y-12629478D01*
X2670077Y-12667573D02*
X2679601Y-12648525D01*
X2679601Y-12648525D02*
X2689124Y-12639002D01*
X2689124Y-12639002D02*
X2708172Y-12629478D01*
X2708172Y-12629478D02*
X2727220Y-12629478D01*
X2793886Y-12762811D02*
X2793886Y-12629478D01*
X2793886Y-12562811D02*
X2784363Y-12572335D01*
X2784363Y-12572335D02*
X2793886Y-12581859D01*
X2793886Y-12581859D02*
X2803410Y-12572335D01*
X2803410Y-12572335D02*
X2793886Y-12562811D01*
X2793886Y-12562811D02*
X2793886Y-12581859D01*
X2917696Y-12762811D02*
X2898648Y-12753287D01*
X2898648Y-12753287D02*
X2889124Y-12734240D01*
X2889124Y-12734240D02*
X2889124Y-12562811D01*
X3022458Y-12762811D02*
X3003410Y-12753287D01*
X3003410Y-12753287D02*
X2993886Y-12734240D01*
X2993886Y-12734240D02*
X2993886Y-12562811D01*
X3251029Y-12762811D02*
X3251029Y-12562811D01*
X3251029Y-12562811D02*
X3317696Y-12705668D01*
X3317696Y-12705668D02*
X3384362Y-12562811D01*
X3384362Y-12562811D02*
X3384362Y-12762811D01*
X3565315Y-12762811D02*
X3565315Y-12658049D01*
X3565315Y-12658049D02*
X3555791Y-12639002D01*
X3555791Y-12639002D02*
X3536743Y-12629478D01*
X3536743Y-12629478D02*
X3498648Y-12629478D01*
X3498648Y-12629478D02*
X3479601Y-12639002D01*
X3565315Y-12753287D02*
X3546267Y-12762811D01*
X3546267Y-12762811D02*
X3498648Y-12762811D01*
X3498648Y-12762811D02*
X3479601Y-12753287D01*
X3479601Y-12753287D02*
X3470077Y-12734240D01*
X3470077Y-12734240D02*
X3470077Y-12715192D01*
X3470077Y-12715192D02*
X3479601Y-12696145D01*
X3479601Y-12696145D02*
X3498648Y-12686621D01*
X3498648Y-12686621D02*
X3546267Y-12686621D01*
X3546267Y-12686621D02*
X3565315Y-12677097D01*
X3660553Y-12629478D02*
X3660553Y-12829478D01*
X3660553Y-12639002D02*
X3679601Y-12629478D01*
X3679601Y-12629478D02*
X3717696Y-12629478D01*
X3717696Y-12629478D02*
X3736743Y-12639002D01*
X3736743Y-12639002D02*
X3746267Y-12648525D01*
X3746267Y-12648525D02*
X3755791Y-12667573D01*
X3755791Y-12667573D02*
X3755791Y-12724716D01*
X3755791Y-12724716D02*
X3746267Y-12743764D01*
X3746267Y-12743764D02*
X3736743Y-12753287D01*
X3736743Y-12753287D02*
X3717696Y-12762811D01*
X3717696Y-12762811D02*
X3679601Y-12762811D01*
X3679601Y-12762811D02*
X3660553Y-12753287D01*
X3841505Y-12743764D02*
X3851029Y-12753287D01*
X3851029Y-12753287D02*
X3841505Y-12762811D01*
X3841505Y-12762811D02*
X3831982Y-12753287D01*
X3831982Y-12753287D02*
X3841505Y-12743764D01*
X3841505Y-12743764D02*
X3841505Y-12762811D01*
X3841505Y-12639002D02*
X3851029Y-12648525D01*
X3851029Y-12648525D02*
X3841505Y-12658049D01*
X3841505Y-12658049D02*
X3831982Y-12648525D01*
X3831982Y-12648525D02*
X3841505Y-12639002D01*
X3841505Y-12639002D02*
X3841505Y-12658049D01*
D12*
X2189300Y-13081327D02*
X2209300Y-13101327D01*
X2209300Y-13081327D02*
X2189300Y-13101327D01*
D11*
X2508172Y-12982811D02*
X2527220Y-12982811D01*
X2527220Y-12982811D02*
X2546267Y-12992335D01*
X2546267Y-12992335D02*
X2555791Y-13001859D01*
X2555791Y-13001859D02*
X2565315Y-13020906D01*
X2565315Y-13020906D02*
X2574839Y-13059002D01*
X2574839Y-13059002D02*
X2574839Y-13106621D01*
X2574839Y-13106621D02*
X2565315Y-13144716D01*
X2565315Y-13144716D02*
X2555791Y-13163764D01*
X2555791Y-13163764D02*
X2546267Y-13173287D01*
X2546267Y-13173287D02*
X2527220Y-13182811D01*
X2527220Y-13182811D02*
X2508172Y-13182811D01*
X2508172Y-13182811D02*
X2489124Y-13173287D01*
X2489124Y-13173287D02*
X2479601Y-13163764D01*
X2479601Y-13163764D02*
X2470077Y-13144716D01*
X2470077Y-13144716D02*
X2460553Y-13106621D01*
X2460553Y-13106621D02*
X2460553Y-13059002D01*
X2460553Y-13059002D02*
X2470077Y-13020906D01*
X2470077Y-13020906D02*
X2479601Y-13001859D01*
X2479601Y-13001859D02*
X2489124Y-12992335D01*
X2489124Y-12992335D02*
X2508172Y-12982811D01*
X2660553Y-13163764D02*
X2670077Y-13173287D01*
X2670077Y-13173287D02*
X2660553Y-13182811D01*
X2660553Y-13182811D02*
X2651029Y-13173287D01*
X2651029Y-13173287D02*
X2660553Y-13163764D01*
X2660553Y-13163764D02*
X2660553Y-13182811D01*
X2746267Y-13001859D02*
X2755791Y-12992335D01*
X2755791Y-12992335D02*
X2774839Y-12982811D01*
X2774839Y-12982811D02*
X2822458Y-12982811D01*
X2822458Y-12982811D02*
X2841505Y-12992335D01*
X2841505Y-12992335D02*
X2851029Y-13001859D01*
X2851029Y-13001859D02*
X2860553Y-13020906D01*
X2860553Y-13020906D02*
X2860553Y-13039954D01*
X2860553Y-13039954D02*
X2851029Y-13068525D01*
X2851029Y-13068525D02*
X2736744Y-13182811D01*
X2736744Y-13182811D02*
X2860553Y-13182811D01*
X2984362Y-12982811D02*
X3003410Y-12982811D01*
X3003410Y-12982811D02*
X3022458Y-12992335D01*
X3022458Y-12992335D02*
X3031982Y-13001859D01*
X3031982Y-13001859D02*
X3041505Y-13020906D01*
X3041505Y-13020906D02*
X3051029Y-13059002D01*
X3051029Y-13059002D02*
X3051029Y-13106621D01*
X3051029Y-13106621D02*
X3041505Y-13144716D01*
X3041505Y-13144716D02*
X3031982Y-13163764D01*
X3031982Y-13163764D02*
X3022458Y-13173287D01*
X3022458Y-13173287D02*
X3003410Y-13182811D01*
X3003410Y-13182811D02*
X2984362Y-13182811D01*
X2984362Y-13182811D02*
X2965315Y-13173287D01*
X2965315Y-13173287D02*
X2955791Y-13163764D01*
X2955791Y-13163764D02*
X2946267Y-13144716D01*
X2946267Y-13144716D02*
X2936743Y-13106621D01*
X2936743Y-13106621D02*
X2936743Y-13059002D01*
X2936743Y-13059002D02*
X2946267Y-13020906D01*
X2946267Y-13020906D02*
X2955791Y-13001859D01*
X2955791Y-13001859D02*
X2965315Y-12992335D01*
X2965315Y-12992335D02*
X2984362Y-12982811D01*
X3174839Y-12982811D02*
X3193886Y-12982811D01*
X3193886Y-12982811D02*
X3212934Y-12992335D01*
X3212934Y-12992335D02*
X3222458Y-13001859D01*
X3222458Y-13001859D02*
X3231982Y-13020906D01*
X3231982Y-13020906D02*
X3241505Y-13059002D01*
X3241505Y-13059002D02*
X3241505Y-13106621D01*
X3241505Y-13106621D02*
X3231982Y-13144716D01*
X3231982Y-13144716D02*
X3222458Y-13163764D01*
X3222458Y-13163764D02*
X3212934Y-13173287D01*
X3212934Y-13173287D02*
X3193886Y-13182811D01*
X3193886Y-13182811D02*
X3174839Y-13182811D01*
X3174839Y-13182811D02*
X3155791Y-13173287D01*
X3155791Y-13173287D02*
X3146267Y-13163764D01*
X3146267Y-13163764D02*
X3136743Y-13144716D01*
X3136743Y-13144716D02*
X3127220Y-13106621D01*
X3127220Y-13106621D02*
X3127220Y-13059002D01*
X3127220Y-13059002D02*
X3136743Y-13020906D01*
X3136743Y-13020906D02*
X3146267Y-13001859D01*
X3146267Y-13001859D02*
X3155791Y-12992335D01*
X3155791Y-12992335D02*
X3174839Y-12982811D01*
X3327220Y-13182811D02*
X3327220Y-13049478D01*
X3327220Y-13068525D02*
X3336743Y-13059002D01*
X3336743Y-13059002D02*
X3355791Y-13049478D01*
X3355791Y-13049478D02*
X3384363Y-13049478D01*
X3384363Y-13049478D02*
X3403410Y-13059002D01*
X3403410Y-13059002D02*
X3412934Y-13078049D01*
X3412934Y-13078049D02*
X3412934Y-13182811D01*
X3412934Y-13078049D02*
X3422458Y-13059002D01*
X3422458Y-13059002D02*
X3441505Y-13049478D01*
X3441505Y-13049478D02*
X3470077Y-13049478D01*
X3470077Y-13049478D02*
X3489124Y-13059002D01*
X3489124Y-13059002D02*
X3498648Y-13078049D01*
X3498648Y-13078049D02*
X3498648Y-13182811D01*
X3593886Y-13182811D02*
X3593886Y-13049478D01*
X3593886Y-13068525D02*
X3603410Y-13059002D01*
X3603410Y-13059002D02*
X3622458Y-13049478D01*
X3622458Y-13049478D02*
X3651029Y-13049478D01*
X3651029Y-13049478D02*
X3670077Y-13059002D01*
X3670077Y-13059002D02*
X3679601Y-13078049D01*
X3679601Y-13078049D02*
X3679601Y-13182811D01*
X3679601Y-13078049D02*
X3689124Y-13059002D01*
X3689124Y-13059002D02*
X3708172Y-13049478D01*
X3708172Y-13049478D02*
X3736743Y-13049478D01*
X3736743Y-13049478D02*
X3755791Y-13059002D01*
X3755791Y-13059002D02*
X3765315Y-13078049D01*
X3765315Y-13078049D02*
X3765315Y-13182811D01*
X4155791Y-12973287D02*
X3984363Y-13230430D01*
X4412934Y-12982811D02*
X4431982Y-12982811D01*
X4431982Y-12982811D02*
X4451029Y-12992335D01*
X4451029Y-12992335D02*
X4460553Y-13001859D01*
X4460553Y-13001859D02*
X4470077Y-13020906D01*
X4470077Y-13020906D02*
X4479601Y-13059002D01*
X4479601Y-13059002D02*
X4479601Y-13106621D01*
X4479601Y-13106621D02*
X4470077Y-13144716D01*
X4470077Y-13144716D02*
X4460553Y-13163764D01*
X4460553Y-13163764D02*
X4451029Y-13173287D01*
X4451029Y-13173287D02*
X4431982Y-13182811D01*
X4431982Y-13182811D02*
X4412934Y-13182811D01*
X4412934Y-13182811D02*
X4393887Y-13173287D01*
X4393887Y-13173287D02*
X4384363Y-13163764D01*
X4384363Y-13163764D02*
X4374839Y-13144716D01*
X4374839Y-13144716D02*
X4365315Y-13106621D01*
X4365315Y-13106621D02*
X4365315Y-13059002D01*
X4365315Y-13059002D02*
X4374839Y-13020906D01*
X4374839Y-13020906D02*
X4384363Y-13001859D01*
X4384363Y-13001859D02*
X4393887Y-12992335D01*
X4393887Y-12992335D02*
X4412934Y-12982811D01*
X4565315Y-13163764D02*
X4574839Y-13173287D01*
X4574839Y-13173287D02*
X4565315Y-13182811D01*
X4565315Y-13182811D02*
X4555791Y-13173287D01*
X4555791Y-13173287D02*
X4565315Y-13163764D01*
X4565315Y-13163764D02*
X4565315Y-13182811D01*
X4698648Y-12982811D02*
X4717696Y-12982811D01*
X4717696Y-12982811D02*
X4736744Y-12992335D01*
X4736744Y-12992335D02*
X4746268Y-13001859D01*
X4746268Y-13001859D02*
X4755791Y-13020906D01*
X4755791Y-13020906D02*
X4765315Y-13059002D01*
X4765315Y-13059002D02*
X4765315Y-13106621D01*
X4765315Y-13106621D02*
X4755791Y-13144716D01*
X4755791Y-13144716D02*
X4746268Y-13163764D01*
X4746268Y-13163764D02*
X4736744Y-13173287D01*
X4736744Y-13173287D02*
X4717696Y-13182811D01*
X4717696Y-13182811D02*
X4698648Y-13182811D01*
X4698648Y-13182811D02*
X4679601Y-13173287D01*
X4679601Y-13173287D02*
X4670077Y-13163764D01*
X4670077Y-13163764D02*
X4660553Y-13144716D01*
X4660553Y-13144716D02*
X4651029Y-13106621D01*
X4651029Y-13106621D02*
X4651029Y-13059002D01*
X4651029Y-13059002D02*
X4660553Y-13020906D01*
X4660553Y-13020906D02*
X4670077Y-13001859D01*
X4670077Y-13001859D02*
X4679601Y-12992335D01*
X4679601Y-12992335D02*
X4698648Y-12982811D01*
X4889125Y-12982811D02*
X4908172Y-12982811D01*
X4908172Y-12982811D02*
X4927220Y-12992335D01*
X4927220Y-12992335D02*
X4936744Y-13001859D01*
X4936744Y-13001859D02*
X4946268Y-13020906D01*
X4946268Y-13020906D02*
X4955791Y-13059002D01*
X4955791Y-13059002D02*
X4955791Y-13106621D01*
X4955791Y-13106621D02*
X4946268Y-13144716D01*
X4946268Y-13144716D02*
X4936744Y-13163764D01*
X4936744Y-13163764D02*
X4927220Y-13173287D01*
X4927220Y-13173287D02*
X4908172Y-13182811D01*
X4908172Y-13182811D02*
X4889125Y-13182811D01*
X4889125Y-13182811D02*
X4870077Y-13173287D01*
X4870077Y-13173287D02*
X4860553Y-13163764D01*
X4860553Y-13163764D02*
X4851029Y-13144716D01*
X4851029Y-13144716D02*
X4841506Y-13106621D01*
X4841506Y-13106621D02*
X4841506Y-13059002D01*
X4841506Y-13059002D02*
X4851029Y-13020906D01*
X4851029Y-13020906D02*
X4860553Y-13001859D01*
X4860553Y-13001859D02*
X4870077Y-12992335D01*
X4870077Y-12992335D02*
X4889125Y-12982811D01*
X5022458Y-12982811D02*
X5155791Y-12982811D01*
X5155791Y-12982811D02*
X5070077Y-13182811D01*
X5241506Y-13182811D02*
X5279601Y-13182811D01*
X5279601Y-13182811D02*
X5298649Y-13173287D01*
X5298649Y-13173287D02*
X5308172Y-13163764D01*
X5308172Y-13163764D02*
X5327220Y-13135192D01*
X5327220Y-13135192D02*
X5336744Y-13097097D01*
X5336744Y-13097097D02*
X5336744Y-13020906D01*
X5336744Y-13020906D02*
X5327220Y-13001859D01*
X5327220Y-13001859D02*
X5317696Y-12992335D01*
X5317696Y-12992335D02*
X5298649Y-12982811D01*
X5298649Y-12982811D02*
X5260553Y-12982811D01*
X5260553Y-12982811D02*
X5241506Y-12992335D01*
X5241506Y-12992335D02*
X5231982Y-13001859D01*
X5231982Y-13001859D02*
X5222458Y-13020906D01*
X5222458Y-13020906D02*
X5222458Y-13068525D01*
X5222458Y-13068525D02*
X5231982Y-13087573D01*
X5231982Y-13087573D02*
X5241506Y-13097097D01*
X5241506Y-13097097D02*
X5260553Y-13106621D01*
X5260553Y-13106621D02*
X5298649Y-13106621D01*
X5298649Y-13106621D02*
X5317696Y-13097097D01*
X5317696Y-13097097D02*
X5327220Y-13087573D01*
X5327220Y-13087573D02*
X5336744Y-13068525D01*
X5412934Y-12982811D02*
X5412934Y-13020906D01*
X5489125Y-12982811D02*
X5489125Y-13020906D01*
X5784363Y-13259002D02*
X5774839Y-13249478D01*
X5774839Y-13249478D02*
X5755791Y-13220906D01*
X5755791Y-13220906D02*
X5746268Y-13201859D01*
X5746268Y-13201859D02*
X5736744Y-13173287D01*
X5736744Y-13173287D02*
X5727220Y-13125668D01*
X5727220Y-13125668D02*
X5727220Y-13087573D01*
X5727220Y-13087573D02*
X5736744Y-13039954D01*
X5736744Y-13039954D02*
X5746268Y-13011383D01*
X5746268Y-13011383D02*
X5755791Y-12992335D01*
X5755791Y-12992335D02*
X5774839Y-12963764D01*
X5774839Y-12963764D02*
X5784363Y-12954240D01*
X5965315Y-13182811D02*
X5851029Y-13182811D01*
X5908172Y-13182811D02*
X5908172Y-12982811D01*
X5908172Y-12982811D02*
X5889125Y-13011383D01*
X5889125Y-13011383D02*
X5870077Y-13030430D01*
X5870077Y-13030430D02*
X5851029Y-13039954D01*
X6041506Y-13001859D02*
X6051029Y-12992335D01*
X6051029Y-12992335D02*
X6070077Y-12982811D01*
X6070077Y-12982811D02*
X6117696Y-12982811D01*
X6117696Y-12982811D02*
X6136744Y-12992335D01*
X6136744Y-12992335D02*
X6146268Y-13001859D01*
X6146268Y-13001859D02*
X6155791Y-13020906D01*
X6155791Y-13020906D02*
X6155791Y-13039954D01*
X6155791Y-13039954D02*
X6146268Y-13068525D01*
X6146268Y-13068525D02*
X6031982Y-13182811D01*
X6031982Y-13182811D02*
X6155791Y-13182811D01*
X6393887Y-13182811D02*
X6393887Y-12982811D01*
X6479601Y-13182811D02*
X6479601Y-13078049D01*
X6479601Y-13078049D02*
X6470077Y-13059002D01*
X6470077Y-13059002D02*
X6451030Y-13049478D01*
X6451030Y-13049478D02*
X6422458Y-13049478D01*
X6422458Y-13049478D02*
X6403410Y-13059002D01*
X6403410Y-13059002D02*
X6393887Y-13068525D01*
X6603410Y-13182811D02*
X6584363Y-13173287D01*
X6584363Y-13173287D02*
X6574839Y-13163764D01*
X6574839Y-13163764D02*
X6565315Y-13144716D01*
X6565315Y-13144716D02*
X6565315Y-13087573D01*
X6565315Y-13087573D02*
X6574839Y-13068525D01*
X6574839Y-13068525D02*
X6584363Y-13059002D01*
X6584363Y-13059002D02*
X6603410Y-13049478D01*
X6603410Y-13049478D02*
X6631982Y-13049478D01*
X6631982Y-13049478D02*
X6651030Y-13059002D01*
X6651030Y-13059002D02*
X6660553Y-13068525D01*
X6660553Y-13068525D02*
X6670077Y-13087573D01*
X6670077Y-13087573D02*
X6670077Y-13144716D01*
X6670077Y-13144716D02*
X6660553Y-13163764D01*
X6660553Y-13163764D02*
X6651030Y-13173287D01*
X6651030Y-13173287D02*
X6631982Y-13182811D01*
X6631982Y-13182811D02*
X6603410Y-13182811D01*
X6784363Y-13182811D02*
X6765315Y-13173287D01*
X6765315Y-13173287D02*
X6755791Y-13154240D01*
X6755791Y-13154240D02*
X6755791Y-12982811D01*
X6936744Y-13173287D02*
X6917696Y-13182811D01*
X6917696Y-13182811D02*
X6879601Y-13182811D01*
X6879601Y-13182811D02*
X6860553Y-13173287D01*
X6860553Y-13173287D02*
X6851030Y-13154240D01*
X6851030Y-13154240D02*
X6851030Y-13078049D01*
X6851030Y-13078049D02*
X6860553Y-13059002D01*
X6860553Y-13059002D02*
X6879601Y-13049478D01*
X6879601Y-13049478D02*
X6917696Y-13049478D01*
X6917696Y-13049478D02*
X6936744Y-13059002D01*
X6936744Y-13059002D02*
X6946268Y-13078049D01*
X6946268Y-13078049D02*
X6946268Y-13097097D01*
X6946268Y-13097097D02*
X6851030Y-13116145D01*
X7022458Y-13173287D02*
X7041506Y-13182811D01*
X7041506Y-13182811D02*
X7079601Y-13182811D01*
X7079601Y-13182811D02*
X7098649Y-13173287D01*
X7098649Y-13173287D02*
X7108172Y-13154240D01*
X7108172Y-13154240D02*
X7108172Y-13144716D01*
X7108172Y-13144716D02*
X7098649Y-13125668D01*
X7098649Y-13125668D02*
X7079601Y-13116145D01*
X7079601Y-13116145D02*
X7051030Y-13116145D01*
X7051030Y-13116145D02*
X7031982Y-13106621D01*
X7031982Y-13106621D02*
X7022458Y-13087573D01*
X7022458Y-13087573D02*
X7022458Y-13078049D01*
X7022458Y-13078049D02*
X7031982Y-13059002D01*
X7031982Y-13059002D02*
X7051030Y-13049478D01*
X7051030Y-13049478D02*
X7079601Y-13049478D01*
X7079601Y-13049478D02*
X7098649Y-13059002D01*
X7174839Y-13259002D02*
X7184363Y-13249478D01*
X7184363Y-13249478D02*
X7203411Y-13220906D01*
X7203411Y-13220906D02*
X7212934Y-13201859D01*
X7212934Y-13201859D02*
X7222458Y-13173287D01*
X7222458Y-13173287D02*
X7231982Y-13125668D01*
X7231982Y-13125668D02*
X7231982Y-13087573D01*
X7231982Y-13087573D02*
X7222458Y-13039954D01*
X7222458Y-13039954D02*
X7212934Y-13011383D01*
X7212934Y-13011383D02*
X7203411Y-12992335D01*
X7203411Y-12992335D02*
X7184363Y-12963764D01*
X7184363Y-12963764D02*
X7174839Y-12954240D01*
D12*
X2209300Y-13355327D02*
G75*
G02*
X2169300Y-13355327I-20000J0D01*
G01*
X2169300Y-13355327D02*
G75*
G02*
X2209300Y-13355327I20000J0D01*
G01*
D11*
X2508172Y-13246811D02*
X2527220Y-13246811D01*
X2527220Y-13246811D02*
X2546267Y-13256335D01*
X2546267Y-13256335D02*
X2555791Y-13265859D01*
X2555791Y-13265859D02*
X2565315Y-13284906D01*
X2565315Y-13284906D02*
X2574839Y-13323002D01*
X2574839Y-13323002D02*
X2574839Y-13370621D01*
X2574839Y-13370621D02*
X2565315Y-13408716D01*
X2565315Y-13408716D02*
X2555791Y-13427764D01*
X2555791Y-13427764D02*
X2546267Y-13437287D01*
X2546267Y-13437287D02*
X2527220Y-13446811D01*
X2527220Y-13446811D02*
X2508172Y-13446811D01*
X2508172Y-13446811D02*
X2489124Y-13437287D01*
X2489124Y-13437287D02*
X2479601Y-13427764D01*
X2479601Y-13427764D02*
X2470077Y-13408716D01*
X2470077Y-13408716D02*
X2460553Y-13370621D01*
X2460553Y-13370621D02*
X2460553Y-13323002D01*
X2460553Y-13323002D02*
X2470077Y-13284906D01*
X2470077Y-13284906D02*
X2479601Y-13265859D01*
X2479601Y-13265859D02*
X2489124Y-13256335D01*
X2489124Y-13256335D02*
X2508172Y-13246811D01*
X2660553Y-13427764D02*
X2670077Y-13437287D01*
X2670077Y-13437287D02*
X2660553Y-13446811D01*
X2660553Y-13446811D02*
X2651029Y-13437287D01*
X2651029Y-13437287D02*
X2660553Y-13427764D01*
X2660553Y-13427764D02*
X2660553Y-13446811D01*
X2841505Y-13313478D02*
X2841505Y-13446811D01*
X2793886Y-13237287D02*
X2746267Y-13380145D01*
X2746267Y-13380145D02*
X2870077Y-13380145D01*
X2984362Y-13246811D02*
X3003410Y-13246811D01*
X3003410Y-13246811D02*
X3022458Y-13256335D01*
X3022458Y-13256335D02*
X3031982Y-13265859D01*
X3031982Y-13265859D02*
X3041505Y-13284906D01*
X3041505Y-13284906D02*
X3051029Y-13323002D01*
X3051029Y-13323002D02*
X3051029Y-13370621D01*
X3051029Y-13370621D02*
X3041505Y-13408716D01*
X3041505Y-13408716D02*
X3031982Y-13427764D01*
X3031982Y-13427764D02*
X3022458Y-13437287D01*
X3022458Y-13437287D02*
X3003410Y-13446811D01*
X3003410Y-13446811D02*
X2984362Y-13446811D01*
X2984362Y-13446811D02*
X2965315Y-13437287D01*
X2965315Y-13437287D02*
X2955791Y-13427764D01*
X2955791Y-13427764D02*
X2946267Y-13408716D01*
X2946267Y-13408716D02*
X2936743Y-13370621D01*
X2936743Y-13370621D02*
X2936743Y-13323002D01*
X2936743Y-13323002D02*
X2946267Y-13284906D01*
X2946267Y-13284906D02*
X2955791Y-13265859D01*
X2955791Y-13265859D02*
X2965315Y-13256335D01*
X2965315Y-13256335D02*
X2984362Y-13246811D01*
X3174839Y-13246811D02*
X3193886Y-13246811D01*
X3193886Y-13246811D02*
X3212934Y-13256335D01*
X3212934Y-13256335D02*
X3222458Y-13265859D01*
X3222458Y-13265859D02*
X3231982Y-13284906D01*
X3231982Y-13284906D02*
X3241505Y-13323002D01*
X3241505Y-13323002D02*
X3241505Y-13370621D01*
X3241505Y-13370621D02*
X3231982Y-13408716D01*
X3231982Y-13408716D02*
X3222458Y-13427764D01*
X3222458Y-13427764D02*
X3212934Y-13437287D01*
X3212934Y-13437287D02*
X3193886Y-13446811D01*
X3193886Y-13446811D02*
X3174839Y-13446811D01*
X3174839Y-13446811D02*
X3155791Y-13437287D01*
X3155791Y-13437287D02*
X3146267Y-13427764D01*
X3146267Y-13427764D02*
X3136743Y-13408716D01*
X3136743Y-13408716D02*
X3127220Y-13370621D01*
X3127220Y-13370621D02*
X3127220Y-13323002D01*
X3127220Y-13323002D02*
X3136743Y-13284906D01*
X3136743Y-13284906D02*
X3146267Y-13265859D01*
X3146267Y-13265859D02*
X3155791Y-13256335D01*
X3155791Y-13256335D02*
X3174839Y-13246811D01*
X3327220Y-13446811D02*
X3327220Y-13313478D01*
X3327220Y-13332525D02*
X3336743Y-13323002D01*
X3336743Y-13323002D02*
X3355791Y-13313478D01*
X3355791Y-13313478D02*
X3384363Y-13313478D01*
X3384363Y-13313478D02*
X3403410Y-13323002D01*
X3403410Y-13323002D02*
X3412934Y-13342049D01*
X3412934Y-13342049D02*
X3412934Y-13446811D01*
X3412934Y-13342049D02*
X3422458Y-13323002D01*
X3422458Y-13323002D02*
X3441505Y-13313478D01*
X3441505Y-13313478D02*
X3470077Y-13313478D01*
X3470077Y-13313478D02*
X3489124Y-13323002D01*
X3489124Y-13323002D02*
X3498648Y-13342049D01*
X3498648Y-13342049D02*
X3498648Y-13446811D01*
X3593886Y-13446811D02*
X3593886Y-13313478D01*
X3593886Y-13332525D02*
X3603410Y-13323002D01*
X3603410Y-13323002D02*
X3622458Y-13313478D01*
X3622458Y-13313478D02*
X3651029Y-13313478D01*
X3651029Y-13313478D02*
X3670077Y-13323002D01*
X3670077Y-13323002D02*
X3679601Y-13342049D01*
X3679601Y-13342049D02*
X3679601Y-13446811D01*
X3679601Y-13342049D02*
X3689124Y-13323002D01*
X3689124Y-13323002D02*
X3708172Y-13313478D01*
X3708172Y-13313478D02*
X3736743Y-13313478D01*
X3736743Y-13313478D02*
X3755791Y-13323002D01*
X3755791Y-13323002D02*
X3765315Y-13342049D01*
X3765315Y-13342049D02*
X3765315Y-13446811D01*
X4155791Y-13237287D02*
X3984363Y-13494430D01*
X4412934Y-13246811D02*
X4431982Y-13246811D01*
X4431982Y-13246811D02*
X4451029Y-13256335D01*
X4451029Y-13256335D02*
X4460553Y-13265859D01*
X4460553Y-13265859D02*
X4470077Y-13284906D01*
X4470077Y-13284906D02*
X4479601Y-13323002D01*
X4479601Y-13323002D02*
X4479601Y-13370621D01*
X4479601Y-13370621D02*
X4470077Y-13408716D01*
X4470077Y-13408716D02*
X4460553Y-13427764D01*
X4460553Y-13427764D02*
X4451029Y-13437287D01*
X4451029Y-13437287D02*
X4431982Y-13446811D01*
X4431982Y-13446811D02*
X4412934Y-13446811D01*
X4412934Y-13446811D02*
X4393887Y-13437287D01*
X4393887Y-13437287D02*
X4384363Y-13427764D01*
X4384363Y-13427764D02*
X4374839Y-13408716D01*
X4374839Y-13408716D02*
X4365315Y-13370621D01*
X4365315Y-13370621D02*
X4365315Y-13323002D01*
X4365315Y-13323002D02*
X4374839Y-13284906D01*
X4374839Y-13284906D02*
X4384363Y-13265859D01*
X4384363Y-13265859D02*
X4393887Y-13256335D01*
X4393887Y-13256335D02*
X4412934Y-13246811D01*
X4565315Y-13427764D02*
X4574839Y-13437287D01*
X4574839Y-13437287D02*
X4565315Y-13446811D01*
X4565315Y-13446811D02*
X4555791Y-13437287D01*
X4555791Y-13437287D02*
X4565315Y-13427764D01*
X4565315Y-13427764D02*
X4565315Y-13446811D01*
X4698648Y-13246811D02*
X4717696Y-13246811D01*
X4717696Y-13246811D02*
X4736744Y-13256335D01*
X4736744Y-13256335D02*
X4746268Y-13265859D01*
X4746268Y-13265859D02*
X4755791Y-13284906D01*
X4755791Y-13284906D02*
X4765315Y-13323002D01*
X4765315Y-13323002D02*
X4765315Y-13370621D01*
X4765315Y-13370621D02*
X4755791Y-13408716D01*
X4755791Y-13408716D02*
X4746268Y-13427764D01*
X4746268Y-13427764D02*
X4736744Y-13437287D01*
X4736744Y-13437287D02*
X4717696Y-13446811D01*
X4717696Y-13446811D02*
X4698648Y-13446811D01*
X4698648Y-13446811D02*
X4679601Y-13437287D01*
X4679601Y-13437287D02*
X4670077Y-13427764D01*
X4670077Y-13427764D02*
X4660553Y-13408716D01*
X4660553Y-13408716D02*
X4651029Y-13370621D01*
X4651029Y-13370621D02*
X4651029Y-13323002D01*
X4651029Y-13323002D02*
X4660553Y-13284906D01*
X4660553Y-13284906D02*
X4670077Y-13265859D01*
X4670077Y-13265859D02*
X4679601Y-13256335D01*
X4679601Y-13256335D02*
X4698648Y-13246811D01*
X4955791Y-13446811D02*
X4841506Y-13446811D01*
X4898648Y-13446811D02*
X4898648Y-13246811D01*
X4898648Y-13246811D02*
X4879601Y-13275383D01*
X4879601Y-13275383D02*
X4860553Y-13294430D01*
X4860553Y-13294430D02*
X4841506Y-13303954D01*
X5136744Y-13246811D02*
X5041506Y-13246811D01*
X5041506Y-13246811D02*
X5031982Y-13342049D01*
X5031982Y-13342049D02*
X5041506Y-13332525D01*
X5041506Y-13332525D02*
X5060553Y-13323002D01*
X5060553Y-13323002D02*
X5108172Y-13323002D01*
X5108172Y-13323002D02*
X5127220Y-13332525D01*
X5127220Y-13332525D02*
X5136744Y-13342049D01*
X5136744Y-13342049D02*
X5146268Y-13361097D01*
X5146268Y-13361097D02*
X5146268Y-13408716D01*
X5146268Y-13408716D02*
X5136744Y-13427764D01*
X5136744Y-13427764D02*
X5127220Y-13437287D01*
X5127220Y-13437287D02*
X5108172Y-13446811D01*
X5108172Y-13446811D02*
X5060553Y-13446811D01*
X5060553Y-13446811D02*
X5041506Y-13437287D01*
X5041506Y-13437287D02*
X5031982Y-13427764D01*
X5212934Y-13246811D02*
X5346268Y-13246811D01*
X5346268Y-13246811D02*
X5260553Y-13446811D01*
X5412934Y-13246811D02*
X5412934Y-13284906D01*
X5489125Y-13246811D02*
X5489125Y-13284906D01*
X5784363Y-13523002D02*
X5774839Y-13513478D01*
X5774839Y-13513478D02*
X5755791Y-13484906D01*
X5755791Y-13484906D02*
X5746268Y-13465859D01*
X5746268Y-13465859D02*
X5736744Y-13437287D01*
X5736744Y-13437287D02*
X5727220Y-13389668D01*
X5727220Y-13389668D02*
X5727220Y-13351573D01*
X5727220Y-13351573D02*
X5736744Y-13303954D01*
X5736744Y-13303954D02*
X5746268Y-13275383D01*
X5746268Y-13275383D02*
X5755791Y-13256335D01*
X5755791Y-13256335D02*
X5774839Y-13227764D01*
X5774839Y-13227764D02*
X5784363Y-13218240D01*
X5946268Y-13246811D02*
X5908172Y-13246811D01*
X5908172Y-13246811D02*
X5889125Y-13256335D01*
X5889125Y-13256335D02*
X5879601Y-13265859D01*
X5879601Y-13265859D02*
X5860553Y-13294430D01*
X5860553Y-13294430D02*
X5851029Y-13332525D01*
X5851029Y-13332525D02*
X5851029Y-13408716D01*
X5851029Y-13408716D02*
X5860553Y-13427764D01*
X5860553Y-13427764D02*
X5870077Y-13437287D01*
X5870077Y-13437287D02*
X5889125Y-13446811D01*
X5889125Y-13446811D02*
X5927220Y-13446811D01*
X5927220Y-13446811D02*
X5946268Y-13437287D01*
X5946268Y-13437287D02*
X5955791Y-13427764D01*
X5955791Y-13427764D02*
X5965315Y-13408716D01*
X5965315Y-13408716D02*
X5965315Y-13361097D01*
X5965315Y-13361097D02*
X5955791Y-13342049D01*
X5955791Y-13342049D02*
X5946268Y-13332525D01*
X5946268Y-13332525D02*
X5927220Y-13323002D01*
X5927220Y-13323002D02*
X5889125Y-13323002D01*
X5889125Y-13323002D02*
X5870077Y-13332525D01*
X5870077Y-13332525D02*
X5860553Y-13342049D01*
X5860553Y-13342049D02*
X5851029Y-13361097D01*
X6041506Y-13265859D02*
X6051029Y-13256335D01*
X6051029Y-13256335D02*
X6070077Y-13246811D01*
X6070077Y-13246811D02*
X6117696Y-13246811D01*
X6117696Y-13246811D02*
X6136744Y-13256335D01*
X6136744Y-13256335D02*
X6146268Y-13265859D01*
X6146268Y-13265859D02*
X6155791Y-13284906D01*
X6155791Y-13284906D02*
X6155791Y-13303954D01*
X6155791Y-13303954D02*
X6146268Y-13332525D01*
X6146268Y-13332525D02*
X6031982Y-13446811D01*
X6031982Y-13446811D02*
X6155791Y-13446811D01*
X6393887Y-13446811D02*
X6393887Y-13246811D01*
X6479601Y-13446811D02*
X6479601Y-13342049D01*
X6479601Y-13342049D02*
X6470077Y-13323002D01*
X6470077Y-13323002D02*
X6451030Y-13313478D01*
X6451030Y-13313478D02*
X6422458Y-13313478D01*
X6422458Y-13313478D02*
X6403410Y-13323002D01*
X6403410Y-13323002D02*
X6393887Y-13332525D01*
X6603410Y-13446811D02*
X6584363Y-13437287D01*
X6584363Y-13437287D02*
X6574839Y-13427764D01*
X6574839Y-13427764D02*
X6565315Y-13408716D01*
X6565315Y-13408716D02*
X6565315Y-13351573D01*
X6565315Y-13351573D02*
X6574839Y-13332525D01*
X6574839Y-13332525D02*
X6584363Y-13323002D01*
X6584363Y-13323002D02*
X6603410Y-13313478D01*
X6603410Y-13313478D02*
X6631982Y-13313478D01*
X6631982Y-13313478D02*
X6651030Y-13323002D01*
X6651030Y-13323002D02*
X6660553Y-13332525D01*
X6660553Y-13332525D02*
X6670077Y-13351573D01*
X6670077Y-13351573D02*
X6670077Y-13408716D01*
X6670077Y-13408716D02*
X6660553Y-13427764D01*
X6660553Y-13427764D02*
X6651030Y-13437287D01*
X6651030Y-13437287D02*
X6631982Y-13446811D01*
X6631982Y-13446811D02*
X6603410Y-13446811D01*
X6784363Y-13446811D02*
X6765315Y-13437287D01*
X6765315Y-13437287D02*
X6755791Y-13418240D01*
X6755791Y-13418240D02*
X6755791Y-13246811D01*
X6936744Y-13437287D02*
X6917696Y-13446811D01*
X6917696Y-13446811D02*
X6879601Y-13446811D01*
X6879601Y-13446811D02*
X6860553Y-13437287D01*
X6860553Y-13437287D02*
X6851030Y-13418240D01*
X6851030Y-13418240D02*
X6851030Y-13342049D01*
X6851030Y-13342049D02*
X6860553Y-13323002D01*
X6860553Y-13323002D02*
X6879601Y-13313478D01*
X6879601Y-13313478D02*
X6917696Y-13313478D01*
X6917696Y-13313478D02*
X6936744Y-13323002D01*
X6936744Y-13323002D02*
X6946268Y-13342049D01*
X6946268Y-13342049D02*
X6946268Y-13361097D01*
X6946268Y-13361097D02*
X6851030Y-13380145D01*
X7022458Y-13437287D02*
X7041506Y-13446811D01*
X7041506Y-13446811D02*
X7079601Y-13446811D01*
X7079601Y-13446811D02*
X7098649Y-13437287D01*
X7098649Y-13437287D02*
X7108172Y-13418240D01*
X7108172Y-13418240D02*
X7108172Y-13408716D01*
X7108172Y-13408716D02*
X7098649Y-13389668D01*
X7098649Y-13389668D02*
X7079601Y-13380145D01*
X7079601Y-13380145D02*
X7051030Y-13380145D01*
X7051030Y-13380145D02*
X7031982Y-13370621D01*
X7031982Y-13370621D02*
X7022458Y-13351573D01*
X7022458Y-13351573D02*
X7022458Y-13342049D01*
X7022458Y-13342049D02*
X7031982Y-13323002D01*
X7031982Y-13323002D02*
X7051030Y-13313478D01*
X7051030Y-13313478D02*
X7079601Y-13313478D01*
X7079601Y-13313478D02*
X7098649Y-13323002D01*
X7174839Y-13523002D02*
X7184363Y-13513478D01*
X7184363Y-13513478D02*
X7203411Y-13484906D01*
X7203411Y-13484906D02*
X7212934Y-13465859D01*
X7212934Y-13465859D02*
X7222458Y-13437287D01*
X7222458Y-13437287D02*
X7231982Y-13389668D01*
X7231982Y-13389668D02*
X7231982Y-13351573D01*
X7231982Y-13351573D02*
X7222458Y-13303954D01*
X7222458Y-13303954D02*
X7212934Y-13275383D01*
X7212934Y-13275383D02*
X7203411Y-13256335D01*
X7203411Y-13256335D02*
X7184363Y-13227764D01*
X7184363Y-13227764D02*
X7174839Y-13218240D01*
D12*
X2189300Y-13599327D02*
X2189300Y-13639327D01*
X2169300Y-13619327D02*
X2209300Y-13619327D01*
D11*
X2508172Y-13510811D02*
X2527220Y-13510811D01*
X2527220Y-13510811D02*
X2546267Y-13520335D01*
X2546267Y-13520335D02*
X2555791Y-13529859D01*
X2555791Y-13529859D02*
X2565315Y-13548906D01*
X2565315Y-13548906D02*
X2574839Y-13587002D01*
X2574839Y-13587002D02*
X2574839Y-13634621D01*
X2574839Y-13634621D02*
X2565315Y-13672716D01*
X2565315Y-13672716D02*
X2555791Y-13691764D01*
X2555791Y-13691764D02*
X2546267Y-13701287D01*
X2546267Y-13701287D02*
X2527220Y-13710811D01*
X2527220Y-13710811D02*
X2508172Y-13710811D01*
X2508172Y-13710811D02*
X2489124Y-13701287D01*
X2489124Y-13701287D02*
X2479601Y-13691764D01*
X2479601Y-13691764D02*
X2470077Y-13672716D01*
X2470077Y-13672716D02*
X2460553Y-13634621D01*
X2460553Y-13634621D02*
X2460553Y-13587002D01*
X2460553Y-13587002D02*
X2470077Y-13548906D01*
X2470077Y-13548906D02*
X2479601Y-13529859D01*
X2479601Y-13529859D02*
X2489124Y-13520335D01*
X2489124Y-13520335D02*
X2508172Y-13510811D01*
X2660553Y-13691764D02*
X2670077Y-13701287D01*
X2670077Y-13701287D02*
X2660553Y-13710811D01*
X2660553Y-13710811D02*
X2651029Y-13701287D01*
X2651029Y-13701287D02*
X2660553Y-13691764D01*
X2660553Y-13691764D02*
X2660553Y-13710811D01*
X2841505Y-13577478D02*
X2841505Y-13710811D01*
X2793886Y-13501287D02*
X2746267Y-13644145D01*
X2746267Y-13644145D02*
X2870077Y-13644145D01*
X2984362Y-13510811D02*
X3003410Y-13510811D01*
X3003410Y-13510811D02*
X3022458Y-13520335D01*
X3022458Y-13520335D02*
X3031982Y-13529859D01*
X3031982Y-13529859D02*
X3041505Y-13548906D01*
X3041505Y-13548906D02*
X3051029Y-13587002D01*
X3051029Y-13587002D02*
X3051029Y-13634621D01*
X3051029Y-13634621D02*
X3041505Y-13672716D01*
X3041505Y-13672716D02*
X3031982Y-13691764D01*
X3031982Y-13691764D02*
X3022458Y-13701287D01*
X3022458Y-13701287D02*
X3003410Y-13710811D01*
X3003410Y-13710811D02*
X2984362Y-13710811D01*
X2984362Y-13710811D02*
X2965315Y-13701287D01*
X2965315Y-13701287D02*
X2955791Y-13691764D01*
X2955791Y-13691764D02*
X2946267Y-13672716D01*
X2946267Y-13672716D02*
X2936743Y-13634621D01*
X2936743Y-13634621D02*
X2936743Y-13587002D01*
X2936743Y-13587002D02*
X2946267Y-13548906D01*
X2946267Y-13548906D02*
X2955791Y-13529859D01*
X2955791Y-13529859D02*
X2965315Y-13520335D01*
X2965315Y-13520335D02*
X2984362Y-13510811D01*
X3174839Y-13510811D02*
X3193886Y-13510811D01*
X3193886Y-13510811D02*
X3212934Y-13520335D01*
X3212934Y-13520335D02*
X3222458Y-13529859D01*
X3222458Y-13529859D02*
X3231982Y-13548906D01*
X3231982Y-13548906D02*
X3241505Y-13587002D01*
X3241505Y-13587002D02*
X3241505Y-13634621D01*
X3241505Y-13634621D02*
X3231982Y-13672716D01*
X3231982Y-13672716D02*
X3222458Y-13691764D01*
X3222458Y-13691764D02*
X3212934Y-13701287D01*
X3212934Y-13701287D02*
X3193886Y-13710811D01*
X3193886Y-13710811D02*
X3174839Y-13710811D01*
X3174839Y-13710811D02*
X3155791Y-13701287D01*
X3155791Y-13701287D02*
X3146267Y-13691764D01*
X3146267Y-13691764D02*
X3136743Y-13672716D01*
X3136743Y-13672716D02*
X3127220Y-13634621D01*
X3127220Y-13634621D02*
X3127220Y-13587002D01*
X3127220Y-13587002D02*
X3136743Y-13548906D01*
X3136743Y-13548906D02*
X3146267Y-13529859D01*
X3146267Y-13529859D02*
X3155791Y-13520335D01*
X3155791Y-13520335D02*
X3174839Y-13510811D01*
X3327220Y-13710811D02*
X3327220Y-13577478D01*
X3327220Y-13596525D02*
X3336743Y-13587002D01*
X3336743Y-13587002D02*
X3355791Y-13577478D01*
X3355791Y-13577478D02*
X3384363Y-13577478D01*
X3384363Y-13577478D02*
X3403410Y-13587002D01*
X3403410Y-13587002D02*
X3412934Y-13606049D01*
X3412934Y-13606049D02*
X3412934Y-13710811D01*
X3412934Y-13606049D02*
X3422458Y-13587002D01*
X3422458Y-13587002D02*
X3441505Y-13577478D01*
X3441505Y-13577478D02*
X3470077Y-13577478D01*
X3470077Y-13577478D02*
X3489124Y-13587002D01*
X3489124Y-13587002D02*
X3498648Y-13606049D01*
X3498648Y-13606049D02*
X3498648Y-13710811D01*
X3593886Y-13710811D02*
X3593886Y-13577478D01*
X3593886Y-13596525D02*
X3603410Y-13587002D01*
X3603410Y-13587002D02*
X3622458Y-13577478D01*
X3622458Y-13577478D02*
X3651029Y-13577478D01*
X3651029Y-13577478D02*
X3670077Y-13587002D01*
X3670077Y-13587002D02*
X3679601Y-13606049D01*
X3679601Y-13606049D02*
X3679601Y-13710811D01*
X3679601Y-13606049D02*
X3689124Y-13587002D01*
X3689124Y-13587002D02*
X3708172Y-13577478D01*
X3708172Y-13577478D02*
X3736743Y-13577478D01*
X3736743Y-13577478D02*
X3755791Y-13587002D01*
X3755791Y-13587002D02*
X3765315Y-13606049D01*
X3765315Y-13606049D02*
X3765315Y-13710811D01*
X4155791Y-13501287D02*
X3984363Y-13758430D01*
X4412934Y-13510811D02*
X4431982Y-13510811D01*
X4431982Y-13510811D02*
X4451029Y-13520335D01*
X4451029Y-13520335D02*
X4460553Y-13529859D01*
X4460553Y-13529859D02*
X4470077Y-13548906D01*
X4470077Y-13548906D02*
X4479601Y-13587002D01*
X4479601Y-13587002D02*
X4479601Y-13634621D01*
X4479601Y-13634621D02*
X4470077Y-13672716D01*
X4470077Y-13672716D02*
X4460553Y-13691764D01*
X4460553Y-13691764D02*
X4451029Y-13701287D01*
X4451029Y-13701287D02*
X4431982Y-13710811D01*
X4431982Y-13710811D02*
X4412934Y-13710811D01*
X4412934Y-13710811D02*
X4393887Y-13701287D01*
X4393887Y-13701287D02*
X4384363Y-13691764D01*
X4384363Y-13691764D02*
X4374839Y-13672716D01*
X4374839Y-13672716D02*
X4365315Y-13634621D01*
X4365315Y-13634621D02*
X4365315Y-13587002D01*
X4365315Y-13587002D02*
X4374839Y-13548906D01*
X4374839Y-13548906D02*
X4384363Y-13529859D01*
X4384363Y-13529859D02*
X4393887Y-13520335D01*
X4393887Y-13520335D02*
X4412934Y-13510811D01*
X4565315Y-13691764D02*
X4574839Y-13701287D01*
X4574839Y-13701287D02*
X4565315Y-13710811D01*
X4565315Y-13710811D02*
X4555791Y-13701287D01*
X4555791Y-13701287D02*
X4565315Y-13691764D01*
X4565315Y-13691764D02*
X4565315Y-13710811D01*
X4698648Y-13510811D02*
X4717696Y-13510811D01*
X4717696Y-13510811D02*
X4736744Y-13520335D01*
X4736744Y-13520335D02*
X4746268Y-13529859D01*
X4746268Y-13529859D02*
X4755791Y-13548906D01*
X4755791Y-13548906D02*
X4765315Y-13587002D01*
X4765315Y-13587002D02*
X4765315Y-13634621D01*
X4765315Y-13634621D02*
X4755791Y-13672716D01*
X4755791Y-13672716D02*
X4746268Y-13691764D01*
X4746268Y-13691764D02*
X4736744Y-13701287D01*
X4736744Y-13701287D02*
X4717696Y-13710811D01*
X4717696Y-13710811D02*
X4698648Y-13710811D01*
X4698648Y-13710811D02*
X4679601Y-13701287D01*
X4679601Y-13701287D02*
X4670077Y-13691764D01*
X4670077Y-13691764D02*
X4660553Y-13672716D01*
X4660553Y-13672716D02*
X4651029Y-13634621D01*
X4651029Y-13634621D02*
X4651029Y-13587002D01*
X4651029Y-13587002D02*
X4660553Y-13548906D01*
X4660553Y-13548906D02*
X4670077Y-13529859D01*
X4670077Y-13529859D02*
X4679601Y-13520335D01*
X4679601Y-13520335D02*
X4698648Y-13510811D01*
X4955791Y-13710811D02*
X4841506Y-13710811D01*
X4898648Y-13710811D02*
X4898648Y-13510811D01*
X4898648Y-13510811D02*
X4879601Y-13539383D01*
X4879601Y-13539383D02*
X4860553Y-13558430D01*
X4860553Y-13558430D02*
X4841506Y-13567954D01*
X5136744Y-13510811D02*
X5041506Y-13510811D01*
X5041506Y-13510811D02*
X5031982Y-13606049D01*
X5031982Y-13606049D02*
X5041506Y-13596525D01*
X5041506Y-13596525D02*
X5060553Y-13587002D01*
X5060553Y-13587002D02*
X5108172Y-13587002D01*
X5108172Y-13587002D02*
X5127220Y-13596525D01*
X5127220Y-13596525D02*
X5136744Y-13606049D01*
X5136744Y-13606049D02*
X5146268Y-13625097D01*
X5146268Y-13625097D02*
X5146268Y-13672716D01*
X5146268Y-13672716D02*
X5136744Y-13691764D01*
X5136744Y-13691764D02*
X5127220Y-13701287D01*
X5127220Y-13701287D02*
X5108172Y-13710811D01*
X5108172Y-13710811D02*
X5060553Y-13710811D01*
X5060553Y-13710811D02*
X5041506Y-13701287D01*
X5041506Y-13701287D02*
X5031982Y-13691764D01*
X5212934Y-13510811D02*
X5346268Y-13510811D01*
X5346268Y-13510811D02*
X5260553Y-13710811D01*
X5412934Y-13510811D02*
X5412934Y-13548906D01*
X5489125Y-13510811D02*
X5489125Y-13548906D01*
X5784363Y-13787002D02*
X5774839Y-13777478D01*
X5774839Y-13777478D02*
X5755791Y-13748906D01*
X5755791Y-13748906D02*
X5746268Y-13729859D01*
X5746268Y-13729859D02*
X5736744Y-13701287D01*
X5736744Y-13701287D02*
X5727220Y-13653668D01*
X5727220Y-13653668D02*
X5727220Y-13615573D01*
X5727220Y-13615573D02*
X5736744Y-13567954D01*
X5736744Y-13567954D02*
X5746268Y-13539383D01*
X5746268Y-13539383D02*
X5755791Y-13520335D01*
X5755791Y-13520335D02*
X5774839Y-13491764D01*
X5774839Y-13491764D02*
X5784363Y-13482240D01*
X5965315Y-13710811D02*
X5851029Y-13710811D01*
X5908172Y-13710811D02*
X5908172Y-13510811D01*
X5908172Y-13510811D02*
X5889125Y-13539383D01*
X5889125Y-13539383D02*
X5870077Y-13558430D01*
X5870077Y-13558430D02*
X5851029Y-13567954D01*
X6136744Y-13510811D02*
X6098648Y-13510811D01*
X6098648Y-13510811D02*
X6079601Y-13520335D01*
X6079601Y-13520335D02*
X6070077Y-13529859D01*
X6070077Y-13529859D02*
X6051029Y-13558430D01*
X6051029Y-13558430D02*
X6041506Y-13596525D01*
X6041506Y-13596525D02*
X6041506Y-13672716D01*
X6041506Y-13672716D02*
X6051029Y-13691764D01*
X6051029Y-13691764D02*
X6060553Y-13701287D01*
X6060553Y-13701287D02*
X6079601Y-13710811D01*
X6079601Y-13710811D02*
X6117696Y-13710811D01*
X6117696Y-13710811D02*
X6136744Y-13701287D01*
X6136744Y-13701287D02*
X6146268Y-13691764D01*
X6146268Y-13691764D02*
X6155791Y-13672716D01*
X6155791Y-13672716D02*
X6155791Y-13625097D01*
X6155791Y-13625097D02*
X6146268Y-13606049D01*
X6146268Y-13606049D02*
X6136744Y-13596525D01*
X6136744Y-13596525D02*
X6117696Y-13587002D01*
X6117696Y-13587002D02*
X6079601Y-13587002D01*
X6079601Y-13587002D02*
X6060553Y-13596525D01*
X6060553Y-13596525D02*
X6051029Y-13606049D01*
X6051029Y-13606049D02*
X6041506Y-13625097D01*
X6393887Y-13710811D02*
X6393887Y-13510811D01*
X6479601Y-13710811D02*
X6479601Y-13606049D01*
X6479601Y-13606049D02*
X6470077Y-13587002D01*
X6470077Y-13587002D02*
X6451030Y-13577478D01*
X6451030Y-13577478D02*
X6422458Y-13577478D01*
X6422458Y-13577478D02*
X6403410Y-13587002D01*
X6403410Y-13587002D02*
X6393887Y-13596525D01*
X6603410Y-13710811D02*
X6584363Y-13701287D01*
X6584363Y-13701287D02*
X6574839Y-13691764D01*
X6574839Y-13691764D02*
X6565315Y-13672716D01*
X6565315Y-13672716D02*
X6565315Y-13615573D01*
X6565315Y-13615573D02*
X6574839Y-13596525D01*
X6574839Y-13596525D02*
X6584363Y-13587002D01*
X6584363Y-13587002D02*
X6603410Y-13577478D01*
X6603410Y-13577478D02*
X6631982Y-13577478D01*
X6631982Y-13577478D02*
X6651030Y-13587002D01*
X6651030Y-13587002D02*
X6660553Y-13596525D01*
X6660553Y-13596525D02*
X6670077Y-13615573D01*
X6670077Y-13615573D02*
X6670077Y-13672716D01*
X6670077Y-13672716D02*
X6660553Y-13691764D01*
X6660553Y-13691764D02*
X6651030Y-13701287D01*
X6651030Y-13701287D02*
X6631982Y-13710811D01*
X6631982Y-13710811D02*
X6603410Y-13710811D01*
X6784363Y-13710811D02*
X6765315Y-13701287D01*
X6765315Y-13701287D02*
X6755791Y-13682240D01*
X6755791Y-13682240D02*
X6755791Y-13510811D01*
X6936744Y-13701287D02*
X6917696Y-13710811D01*
X6917696Y-13710811D02*
X6879601Y-13710811D01*
X6879601Y-13710811D02*
X6860553Y-13701287D01*
X6860553Y-13701287D02*
X6851030Y-13682240D01*
X6851030Y-13682240D02*
X6851030Y-13606049D01*
X6851030Y-13606049D02*
X6860553Y-13587002D01*
X6860553Y-13587002D02*
X6879601Y-13577478D01*
X6879601Y-13577478D02*
X6917696Y-13577478D01*
X6917696Y-13577478D02*
X6936744Y-13587002D01*
X6936744Y-13587002D02*
X6946268Y-13606049D01*
X6946268Y-13606049D02*
X6946268Y-13625097D01*
X6946268Y-13625097D02*
X6851030Y-13644145D01*
X7022458Y-13701287D02*
X7041506Y-13710811D01*
X7041506Y-13710811D02*
X7079601Y-13710811D01*
X7079601Y-13710811D02*
X7098649Y-13701287D01*
X7098649Y-13701287D02*
X7108172Y-13682240D01*
X7108172Y-13682240D02*
X7108172Y-13672716D01*
X7108172Y-13672716D02*
X7098649Y-13653668D01*
X7098649Y-13653668D02*
X7079601Y-13644145D01*
X7079601Y-13644145D02*
X7051030Y-13644145D01*
X7051030Y-13644145D02*
X7031982Y-13634621D01*
X7031982Y-13634621D02*
X7022458Y-13615573D01*
X7022458Y-13615573D02*
X7022458Y-13606049D01*
X7022458Y-13606049D02*
X7031982Y-13587002D01*
X7031982Y-13587002D02*
X7051030Y-13577478D01*
X7051030Y-13577478D02*
X7079601Y-13577478D01*
X7079601Y-13577478D02*
X7098649Y-13587002D01*
X7174839Y-13787002D02*
X7184363Y-13777478D01*
X7184363Y-13777478D02*
X7203411Y-13748906D01*
X7203411Y-13748906D02*
X7212934Y-13729859D01*
X7212934Y-13729859D02*
X7222458Y-13701287D01*
X7222458Y-13701287D02*
X7231982Y-13653668D01*
X7231982Y-13653668D02*
X7231982Y-13615573D01*
X7231982Y-13615573D02*
X7222458Y-13567954D01*
X7222458Y-13567954D02*
X7212934Y-13539383D01*
X7212934Y-13539383D02*
X7203411Y-13520335D01*
X7203411Y-13520335D02*
X7184363Y-13491764D01*
X7184363Y-13491764D02*
X7174839Y-13482240D01*
D12*
X2200513Y-13904541D02*
X2200513Y-13862114D01*
X2158087Y-13862114D01*
X2158087Y-13904541D01*
X2200513Y-13904541D01*
D11*
X2508172Y-13774811D02*
X2527220Y-13774811D01*
X2527220Y-13774811D02*
X2546267Y-13784335D01*
X2546267Y-13784335D02*
X2555791Y-13793859D01*
X2555791Y-13793859D02*
X2565315Y-13812906D01*
X2565315Y-13812906D02*
X2574839Y-13851002D01*
X2574839Y-13851002D02*
X2574839Y-13898621D01*
X2574839Y-13898621D02*
X2565315Y-13936716D01*
X2565315Y-13936716D02*
X2555791Y-13955764D01*
X2555791Y-13955764D02*
X2546267Y-13965287D01*
X2546267Y-13965287D02*
X2527220Y-13974811D01*
X2527220Y-13974811D02*
X2508172Y-13974811D01*
X2508172Y-13974811D02*
X2489124Y-13965287D01*
X2489124Y-13965287D02*
X2479601Y-13955764D01*
X2479601Y-13955764D02*
X2470077Y-13936716D01*
X2470077Y-13936716D02*
X2460553Y-13898621D01*
X2460553Y-13898621D02*
X2460553Y-13851002D01*
X2460553Y-13851002D02*
X2470077Y-13812906D01*
X2470077Y-13812906D02*
X2479601Y-13793859D01*
X2479601Y-13793859D02*
X2489124Y-13784335D01*
X2489124Y-13784335D02*
X2508172Y-13774811D01*
X2660553Y-13955764D02*
X2670077Y-13965287D01*
X2670077Y-13965287D02*
X2660553Y-13974811D01*
X2660553Y-13974811D02*
X2651029Y-13965287D01*
X2651029Y-13965287D02*
X2660553Y-13955764D01*
X2660553Y-13955764D02*
X2660553Y-13974811D01*
X2841505Y-13774811D02*
X2803410Y-13774811D01*
X2803410Y-13774811D02*
X2784363Y-13784335D01*
X2784363Y-13784335D02*
X2774839Y-13793859D01*
X2774839Y-13793859D02*
X2755791Y-13822430D01*
X2755791Y-13822430D02*
X2746267Y-13860525D01*
X2746267Y-13860525D02*
X2746267Y-13936716D01*
X2746267Y-13936716D02*
X2755791Y-13955764D01*
X2755791Y-13955764D02*
X2765315Y-13965287D01*
X2765315Y-13965287D02*
X2784363Y-13974811D01*
X2784363Y-13974811D02*
X2822458Y-13974811D01*
X2822458Y-13974811D02*
X2841505Y-13965287D01*
X2841505Y-13965287D02*
X2851029Y-13955764D01*
X2851029Y-13955764D02*
X2860553Y-13936716D01*
X2860553Y-13936716D02*
X2860553Y-13889097D01*
X2860553Y-13889097D02*
X2851029Y-13870049D01*
X2851029Y-13870049D02*
X2841505Y-13860525D01*
X2841505Y-13860525D02*
X2822458Y-13851002D01*
X2822458Y-13851002D02*
X2784363Y-13851002D01*
X2784363Y-13851002D02*
X2765315Y-13860525D01*
X2765315Y-13860525D02*
X2755791Y-13870049D01*
X2755791Y-13870049D02*
X2746267Y-13889097D01*
X2984362Y-13774811D02*
X3003410Y-13774811D01*
X3003410Y-13774811D02*
X3022458Y-13784335D01*
X3022458Y-13784335D02*
X3031982Y-13793859D01*
X3031982Y-13793859D02*
X3041505Y-13812906D01*
X3041505Y-13812906D02*
X3051029Y-13851002D01*
X3051029Y-13851002D02*
X3051029Y-13898621D01*
X3051029Y-13898621D02*
X3041505Y-13936716D01*
X3041505Y-13936716D02*
X3031982Y-13955764D01*
X3031982Y-13955764D02*
X3022458Y-13965287D01*
X3022458Y-13965287D02*
X3003410Y-13974811D01*
X3003410Y-13974811D02*
X2984362Y-13974811D01*
X2984362Y-13974811D02*
X2965315Y-13965287D01*
X2965315Y-13965287D02*
X2955791Y-13955764D01*
X2955791Y-13955764D02*
X2946267Y-13936716D01*
X2946267Y-13936716D02*
X2936743Y-13898621D01*
X2936743Y-13898621D02*
X2936743Y-13851002D01*
X2936743Y-13851002D02*
X2946267Y-13812906D01*
X2946267Y-13812906D02*
X2955791Y-13793859D01*
X2955791Y-13793859D02*
X2965315Y-13784335D01*
X2965315Y-13784335D02*
X2984362Y-13774811D01*
X3174839Y-13774811D02*
X3193886Y-13774811D01*
X3193886Y-13774811D02*
X3212934Y-13784335D01*
X3212934Y-13784335D02*
X3222458Y-13793859D01*
X3222458Y-13793859D02*
X3231982Y-13812906D01*
X3231982Y-13812906D02*
X3241505Y-13851002D01*
X3241505Y-13851002D02*
X3241505Y-13898621D01*
X3241505Y-13898621D02*
X3231982Y-13936716D01*
X3231982Y-13936716D02*
X3222458Y-13955764D01*
X3222458Y-13955764D02*
X3212934Y-13965287D01*
X3212934Y-13965287D02*
X3193886Y-13974811D01*
X3193886Y-13974811D02*
X3174839Y-13974811D01*
X3174839Y-13974811D02*
X3155791Y-13965287D01*
X3155791Y-13965287D02*
X3146267Y-13955764D01*
X3146267Y-13955764D02*
X3136743Y-13936716D01*
X3136743Y-13936716D02*
X3127220Y-13898621D01*
X3127220Y-13898621D02*
X3127220Y-13851002D01*
X3127220Y-13851002D02*
X3136743Y-13812906D01*
X3136743Y-13812906D02*
X3146267Y-13793859D01*
X3146267Y-13793859D02*
X3155791Y-13784335D01*
X3155791Y-13784335D02*
X3174839Y-13774811D01*
X3327220Y-13974811D02*
X3327220Y-13841478D01*
X3327220Y-13860525D02*
X3336743Y-13851002D01*
X3336743Y-13851002D02*
X3355791Y-13841478D01*
X3355791Y-13841478D02*
X3384363Y-13841478D01*
X3384363Y-13841478D02*
X3403410Y-13851002D01*
X3403410Y-13851002D02*
X3412934Y-13870049D01*
X3412934Y-13870049D02*
X3412934Y-13974811D01*
X3412934Y-13870049D02*
X3422458Y-13851002D01*
X3422458Y-13851002D02*
X3441505Y-13841478D01*
X3441505Y-13841478D02*
X3470077Y-13841478D01*
X3470077Y-13841478D02*
X3489124Y-13851002D01*
X3489124Y-13851002D02*
X3498648Y-13870049D01*
X3498648Y-13870049D02*
X3498648Y-13974811D01*
X3593886Y-13974811D02*
X3593886Y-13841478D01*
X3593886Y-13860525D02*
X3603410Y-13851002D01*
X3603410Y-13851002D02*
X3622458Y-13841478D01*
X3622458Y-13841478D02*
X3651029Y-13841478D01*
X3651029Y-13841478D02*
X3670077Y-13851002D01*
X3670077Y-13851002D02*
X3679601Y-13870049D01*
X3679601Y-13870049D02*
X3679601Y-13974811D01*
X3679601Y-13870049D02*
X3689124Y-13851002D01*
X3689124Y-13851002D02*
X3708172Y-13841478D01*
X3708172Y-13841478D02*
X3736743Y-13841478D01*
X3736743Y-13841478D02*
X3755791Y-13851002D01*
X3755791Y-13851002D02*
X3765315Y-13870049D01*
X3765315Y-13870049D02*
X3765315Y-13974811D01*
X4155791Y-13765287D02*
X3984363Y-14022430D01*
X4412934Y-13774811D02*
X4431982Y-13774811D01*
X4431982Y-13774811D02*
X4451029Y-13784335D01*
X4451029Y-13784335D02*
X4460553Y-13793859D01*
X4460553Y-13793859D02*
X4470077Y-13812906D01*
X4470077Y-13812906D02*
X4479601Y-13851002D01*
X4479601Y-13851002D02*
X4479601Y-13898621D01*
X4479601Y-13898621D02*
X4470077Y-13936716D01*
X4470077Y-13936716D02*
X4460553Y-13955764D01*
X4460553Y-13955764D02*
X4451029Y-13965287D01*
X4451029Y-13965287D02*
X4431982Y-13974811D01*
X4431982Y-13974811D02*
X4412934Y-13974811D01*
X4412934Y-13974811D02*
X4393887Y-13965287D01*
X4393887Y-13965287D02*
X4384363Y-13955764D01*
X4384363Y-13955764D02*
X4374839Y-13936716D01*
X4374839Y-13936716D02*
X4365315Y-13898621D01*
X4365315Y-13898621D02*
X4365315Y-13851002D01*
X4365315Y-13851002D02*
X4374839Y-13812906D01*
X4374839Y-13812906D02*
X4384363Y-13793859D01*
X4384363Y-13793859D02*
X4393887Y-13784335D01*
X4393887Y-13784335D02*
X4412934Y-13774811D01*
X4565315Y-13955764D02*
X4574839Y-13965287D01*
X4574839Y-13965287D02*
X4565315Y-13974811D01*
X4565315Y-13974811D02*
X4555791Y-13965287D01*
X4555791Y-13965287D02*
X4565315Y-13955764D01*
X4565315Y-13955764D02*
X4565315Y-13974811D01*
X4698648Y-13774811D02*
X4717696Y-13774811D01*
X4717696Y-13774811D02*
X4736744Y-13784335D01*
X4736744Y-13784335D02*
X4746268Y-13793859D01*
X4746268Y-13793859D02*
X4755791Y-13812906D01*
X4755791Y-13812906D02*
X4765315Y-13851002D01*
X4765315Y-13851002D02*
X4765315Y-13898621D01*
X4765315Y-13898621D02*
X4755791Y-13936716D01*
X4755791Y-13936716D02*
X4746268Y-13955764D01*
X4746268Y-13955764D02*
X4736744Y-13965287D01*
X4736744Y-13965287D02*
X4717696Y-13974811D01*
X4717696Y-13974811D02*
X4698648Y-13974811D01*
X4698648Y-13974811D02*
X4679601Y-13965287D01*
X4679601Y-13965287D02*
X4670077Y-13955764D01*
X4670077Y-13955764D02*
X4660553Y-13936716D01*
X4660553Y-13936716D02*
X4651029Y-13898621D01*
X4651029Y-13898621D02*
X4651029Y-13851002D01*
X4651029Y-13851002D02*
X4660553Y-13812906D01*
X4660553Y-13812906D02*
X4670077Y-13793859D01*
X4670077Y-13793859D02*
X4679601Y-13784335D01*
X4679601Y-13784335D02*
X4698648Y-13774811D01*
X4841506Y-13793859D02*
X4851029Y-13784335D01*
X4851029Y-13784335D02*
X4870077Y-13774811D01*
X4870077Y-13774811D02*
X4917696Y-13774811D01*
X4917696Y-13774811D02*
X4936744Y-13784335D01*
X4936744Y-13784335D02*
X4946268Y-13793859D01*
X4946268Y-13793859D02*
X4955791Y-13812906D01*
X4955791Y-13812906D02*
X4955791Y-13831954D01*
X4955791Y-13831954D02*
X4946268Y-13860525D01*
X4946268Y-13860525D02*
X4831982Y-13974811D01*
X4831982Y-13974811D02*
X4955791Y-13974811D01*
X5022458Y-13774811D02*
X5146268Y-13774811D01*
X5146268Y-13774811D02*
X5079601Y-13851002D01*
X5079601Y-13851002D02*
X5108172Y-13851002D01*
X5108172Y-13851002D02*
X5127220Y-13860525D01*
X5127220Y-13860525D02*
X5136744Y-13870049D01*
X5136744Y-13870049D02*
X5146268Y-13889097D01*
X5146268Y-13889097D02*
X5146268Y-13936716D01*
X5146268Y-13936716D02*
X5136744Y-13955764D01*
X5136744Y-13955764D02*
X5127220Y-13965287D01*
X5127220Y-13965287D02*
X5108172Y-13974811D01*
X5108172Y-13974811D02*
X5051029Y-13974811D01*
X5051029Y-13974811D02*
X5031982Y-13965287D01*
X5031982Y-13965287D02*
X5022458Y-13955764D01*
X5317696Y-13774811D02*
X5279601Y-13774811D01*
X5279601Y-13774811D02*
X5260553Y-13784335D01*
X5260553Y-13784335D02*
X5251029Y-13793859D01*
X5251029Y-13793859D02*
X5231982Y-13822430D01*
X5231982Y-13822430D02*
X5222458Y-13860525D01*
X5222458Y-13860525D02*
X5222458Y-13936716D01*
X5222458Y-13936716D02*
X5231982Y-13955764D01*
X5231982Y-13955764D02*
X5241506Y-13965287D01*
X5241506Y-13965287D02*
X5260553Y-13974811D01*
X5260553Y-13974811D02*
X5298649Y-13974811D01*
X5298649Y-13974811D02*
X5317696Y-13965287D01*
X5317696Y-13965287D02*
X5327220Y-13955764D01*
X5327220Y-13955764D02*
X5336744Y-13936716D01*
X5336744Y-13936716D02*
X5336744Y-13889097D01*
X5336744Y-13889097D02*
X5327220Y-13870049D01*
X5327220Y-13870049D02*
X5317696Y-13860525D01*
X5317696Y-13860525D02*
X5298649Y-13851002D01*
X5298649Y-13851002D02*
X5260553Y-13851002D01*
X5260553Y-13851002D02*
X5241506Y-13860525D01*
X5241506Y-13860525D02*
X5231982Y-13870049D01*
X5231982Y-13870049D02*
X5222458Y-13889097D01*
X5412934Y-13774811D02*
X5412934Y-13812906D01*
X5489125Y-13774811D02*
X5489125Y-13812906D01*
X5784363Y-14051002D02*
X5774839Y-14041478D01*
X5774839Y-14041478D02*
X5755791Y-14012906D01*
X5755791Y-14012906D02*
X5746268Y-13993859D01*
X5746268Y-13993859D02*
X5736744Y-13965287D01*
X5736744Y-13965287D02*
X5727220Y-13917668D01*
X5727220Y-13917668D02*
X5727220Y-13879573D01*
X5727220Y-13879573D02*
X5736744Y-13831954D01*
X5736744Y-13831954D02*
X5746268Y-13803383D01*
X5746268Y-13803383D02*
X5755791Y-13784335D01*
X5755791Y-13784335D02*
X5774839Y-13755764D01*
X5774839Y-13755764D02*
X5784363Y-13746240D01*
X5898648Y-13774811D02*
X5917696Y-13774811D01*
X5917696Y-13774811D02*
X5936744Y-13784335D01*
X5936744Y-13784335D02*
X5946268Y-13793859D01*
X5946268Y-13793859D02*
X5955791Y-13812906D01*
X5955791Y-13812906D02*
X5965315Y-13851002D01*
X5965315Y-13851002D02*
X5965315Y-13898621D01*
X5965315Y-13898621D02*
X5955791Y-13936716D01*
X5955791Y-13936716D02*
X5946268Y-13955764D01*
X5946268Y-13955764D02*
X5936744Y-13965287D01*
X5936744Y-13965287D02*
X5917696Y-13974811D01*
X5917696Y-13974811D02*
X5898648Y-13974811D01*
X5898648Y-13974811D02*
X5879601Y-13965287D01*
X5879601Y-13965287D02*
X5870077Y-13955764D01*
X5870077Y-13955764D02*
X5860553Y-13936716D01*
X5860553Y-13936716D02*
X5851029Y-13898621D01*
X5851029Y-13898621D02*
X5851029Y-13851002D01*
X5851029Y-13851002D02*
X5860553Y-13812906D01*
X5860553Y-13812906D02*
X5870077Y-13793859D01*
X5870077Y-13793859D02*
X5879601Y-13784335D01*
X5879601Y-13784335D02*
X5898648Y-13774811D01*
X6203410Y-13974811D02*
X6203410Y-13774811D01*
X6289125Y-13974811D02*
X6289125Y-13870049D01*
X6289125Y-13870049D02*
X6279601Y-13851002D01*
X6279601Y-13851002D02*
X6260553Y-13841478D01*
X6260553Y-13841478D02*
X6231982Y-13841478D01*
X6231982Y-13841478D02*
X6212934Y-13851002D01*
X6212934Y-13851002D02*
X6203410Y-13860525D01*
X6412934Y-13974811D02*
X6393887Y-13965287D01*
X6393887Y-13965287D02*
X6384363Y-13955764D01*
X6384363Y-13955764D02*
X6374839Y-13936716D01*
X6374839Y-13936716D02*
X6374839Y-13879573D01*
X6374839Y-13879573D02*
X6384363Y-13860525D01*
X6384363Y-13860525D02*
X6393887Y-13851002D01*
X6393887Y-13851002D02*
X6412934Y-13841478D01*
X6412934Y-13841478D02*
X6441506Y-13841478D01*
X6441506Y-13841478D02*
X6460553Y-13851002D01*
X6460553Y-13851002D02*
X6470077Y-13860525D01*
X6470077Y-13860525D02*
X6479601Y-13879573D01*
X6479601Y-13879573D02*
X6479601Y-13936716D01*
X6479601Y-13936716D02*
X6470077Y-13955764D01*
X6470077Y-13955764D02*
X6460553Y-13965287D01*
X6460553Y-13965287D02*
X6441506Y-13974811D01*
X6441506Y-13974811D02*
X6412934Y-13974811D01*
X6593887Y-13974811D02*
X6574839Y-13965287D01*
X6574839Y-13965287D02*
X6565315Y-13946240D01*
X6565315Y-13946240D02*
X6565315Y-13774811D01*
X6746268Y-13965287D02*
X6727220Y-13974811D01*
X6727220Y-13974811D02*
X6689125Y-13974811D01*
X6689125Y-13974811D02*
X6670077Y-13965287D01*
X6670077Y-13965287D02*
X6660553Y-13946240D01*
X6660553Y-13946240D02*
X6660553Y-13870049D01*
X6660553Y-13870049D02*
X6670077Y-13851002D01*
X6670077Y-13851002D02*
X6689125Y-13841478D01*
X6689125Y-13841478D02*
X6727220Y-13841478D01*
X6727220Y-13841478D02*
X6746268Y-13851002D01*
X6746268Y-13851002D02*
X6755791Y-13870049D01*
X6755791Y-13870049D02*
X6755791Y-13889097D01*
X6755791Y-13889097D02*
X6660553Y-13908145D01*
X6831982Y-13965287D02*
X6851030Y-13974811D01*
X6851030Y-13974811D02*
X6889125Y-13974811D01*
X6889125Y-13974811D02*
X6908172Y-13965287D01*
X6908172Y-13965287D02*
X6917696Y-13946240D01*
X6917696Y-13946240D02*
X6917696Y-13936716D01*
X6917696Y-13936716D02*
X6908172Y-13917668D01*
X6908172Y-13917668D02*
X6889125Y-13908145D01*
X6889125Y-13908145D02*
X6860553Y-13908145D01*
X6860553Y-13908145D02*
X6841506Y-13898621D01*
X6841506Y-13898621D02*
X6831982Y-13879573D01*
X6831982Y-13879573D02*
X6831982Y-13870049D01*
X6831982Y-13870049D02*
X6841506Y-13851002D01*
X6841506Y-13851002D02*
X6860553Y-13841478D01*
X6860553Y-13841478D02*
X6889125Y-13841478D01*
X6889125Y-13841478D02*
X6908172Y-13851002D01*
X7155792Y-13898621D02*
X7308173Y-13898621D01*
X7231982Y-13974811D02*
X7231982Y-13822430D01*
X7641506Y-13841478D02*
X7641506Y-13974811D01*
X7593887Y-13765287D02*
X7546268Y-13908145D01*
X7546268Y-13908145D02*
X7670077Y-13908145D01*
X7889125Y-13965287D02*
X7908173Y-13974811D01*
X7908173Y-13974811D02*
X7946268Y-13974811D01*
X7946268Y-13974811D02*
X7965315Y-13965287D01*
X7965315Y-13965287D02*
X7974839Y-13946240D01*
X7974839Y-13946240D02*
X7974839Y-13936716D01*
X7974839Y-13936716D02*
X7965315Y-13917668D01*
X7965315Y-13917668D02*
X7946268Y-13908145D01*
X7946268Y-13908145D02*
X7917696Y-13908145D01*
X7917696Y-13908145D02*
X7898649Y-13898621D01*
X7898649Y-13898621D02*
X7889125Y-13879573D01*
X7889125Y-13879573D02*
X7889125Y-13870049D01*
X7889125Y-13870049D02*
X7898649Y-13851002D01*
X7898649Y-13851002D02*
X7917696Y-13841478D01*
X7917696Y-13841478D02*
X7946268Y-13841478D01*
X7946268Y-13841478D02*
X7965315Y-13851002D01*
X8089125Y-13974811D02*
X8070077Y-13965287D01*
X8070077Y-13965287D02*
X8060554Y-13946240D01*
X8060554Y-13946240D02*
X8060554Y-13774811D01*
X8193887Y-13974811D02*
X8174839Y-13965287D01*
X8174839Y-13965287D02*
X8165315Y-13955764D01*
X8165315Y-13955764D02*
X8155792Y-13936716D01*
X8155792Y-13936716D02*
X8155792Y-13879573D01*
X8155792Y-13879573D02*
X8165315Y-13860525D01*
X8165315Y-13860525D02*
X8174839Y-13851002D01*
X8174839Y-13851002D02*
X8193887Y-13841478D01*
X8193887Y-13841478D02*
X8222458Y-13841478D01*
X8222458Y-13841478D02*
X8241506Y-13851002D01*
X8241506Y-13851002D02*
X8251030Y-13860525D01*
X8251030Y-13860525D02*
X8260554Y-13879573D01*
X8260554Y-13879573D02*
X8260554Y-13936716D01*
X8260554Y-13936716D02*
X8251030Y-13955764D01*
X8251030Y-13955764D02*
X8241506Y-13965287D01*
X8241506Y-13965287D02*
X8222458Y-13974811D01*
X8222458Y-13974811D02*
X8193887Y-13974811D01*
X8317696Y-13841478D02*
X8393887Y-13841478D01*
X8346268Y-13774811D02*
X8346268Y-13946240D01*
X8346268Y-13946240D02*
X8355792Y-13965287D01*
X8355792Y-13965287D02*
X8374839Y-13974811D01*
X8374839Y-13974811D02*
X8393887Y-13974811D01*
X8451030Y-13965287D02*
X8470077Y-13974811D01*
X8470077Y-13974811D02*
X8508173Y-13974811D01*
X8508173Y-13974811D02*
X8527220Y-13965287D01*
X8527220Y-13965287D02*
X8536744Y-13946240D01*
X8536744Y-13946240D02*
X8536744Y-13936716D01*
X8536744Y-13936716D02*
X8527220Y-13917668D01*
X8527220Y-13917668D02*
X8508173Y-13908145D01*
X8508173Y-13908145D02*
X8479601Y-13908145D01*
X8479601Y-13908145D02*
X8460554Y-13898621D01*
X8460554Y-13898621D02*
X8451030Y-13879573D01*
X8451030Y-13879573D02*
X8451030Y-13870049D01*
X8451030Y-13870049D02*
X8460554Y-13851002D01*
X8460554Y-13851002D02*
X8479601Y-13841478D01*
X8479601Y-13841478D02*
X8508173Y-13841478D01*
X8508173Y-13841478D02*
X8527220Y-13851002D01*
X8603411Y-14051002D02*
X8612935Y-14041478D01*
X8612935Y-14041478D02*
X8631982Y-14012906D01*
X8631982Y-14012906D02*
X8641506Y-13993859D01*
X8641506Y-13993859D02*
X8651030Y-13965287D01*
X8651030Y-13965287D02*
X8660554Y-13917668D01*
X8660554Y-13917668D02*
X8660554Y-13879573D01*
X8660554Y-13879573D02*
X8651030Y-13831954D01*
X8651030Y-13831954D02*
X8641506Y-13803383D01*
X8641506Y-13803383D02*
X8631982Y-13784335D01*
X8631982Y-13784335D02*
X8612935Y-13755764D01*
X8612935Y-13755764D02*
X8603411Y-13746240D01*
D12*
X2164300Y-14192327D02*
X2209300Y-14147327D01*
X2164300Y-14102327D01*
X2119300Y-14147327D01*
X2164300Y-14192327D01*
D11*
X2508172Y-14038811D02*
X2527220Y-14038811D01*
X2527220Y-14038811D02*
X2546267Y-14048335D01*
X2546267Y-14048335D02*
X2555791Y-14057859D01*
X2555791Y-14057859D02*
X2565315Y-14076906D01*
X2565315Y-14076906D02*
X2574839Y-14115002D01*
X2574839Y-14115002D02*
X2574839Y-14162621D01*
X2574839Y-14162621D02*
X2565315Y-14200716D01*
X2565315Y-14200716D02*
X2555791Y-14219764D01*
X2555791Y-14219764D02*
X2546267Y-14229287D01*
X2546267Y-14229287D02*
X2527220Y-14238811D01*
X2527220Y-14238811D02*
X2508172Y-14238811D01*
X2508172Y-14238811D02*
X2489124Y-14229287D01*
X2489124Y-14229287D02*
X2479601Y-14219764D01*
X2479601Y-14219764D02*
X2470077Y-14200716D01*
X2470077Y-14200716D02*
X2460553Y-14162621D01*
X2460553Y-14162621D02*
X2460553Y-14115002D01*
X2460553Y-14115002D02*
X2470077Y-14076906D01*
X2470077Y-14076906D02*
X2479601Y-14057859D01*
X2479601Y-14057859D02*
X2489124Y-14048335D01*
X2489124Y-14048335D02*
X2508172Y-14038811D01*
X2660553Y-14219764D02*
X2670077Y-14229287D01*
X2670077Y-14229287D02*
X2660553Y-14238811D01*
X2660553Y-14238811D02*
X2651029Y-14229287D01*
X2651029Y-14229287D02*
X2660553Y-14219764D01*
X2660553Y-14219764D02*
X2660553Y-14238811D01*
X2765315Y-14238811D02*
X2803410Y-14238811D01*
X2803410Y-14238811D02*
X2822458Y-14229287D01*
X2822458Y-14229287D02*
X2831982Y-14219764D01*
X2831982Y-14219764D02*
X2851029Y-14191192D01*
X2851029Y-14191192D02*
X2860553Y-14153097D01*
X2860553Y-14153097D02*
X2860553Y-14076906D01*
X2860553Y-14076906D02*
X2851029Y-14057859D01*
X2851029Y-14057859D02*
X2841505Y-14048335D01*
X2841505Y-14048335D02*
X2822458Y-14038811D01*
X2822458Y-14038811D02*
X2784363Y-14038811D01*
X2784363Y-14038811D02*
X2765315Y-14048335D01*
X2765315Y-14048335D02*
X2755791Y-14057859D01*
X2755791Y-14057859D02*
X2746267Y-14076906D01*
X2746267Y-14076906D02*
X2746267Y-14124525D01*
X2746267Y-14124525D02*
X2755791Y-14143573D01*
X2755791Y-14143573D02*
X2765315Y-14153097D01*
X2765315Y-14153097D02*
X2784363Y-14162621D01*
X2784363Y-14162621D02*
X2822458Y-14162621D01*
X2822458Y-14162621D02*
X2841505Y-14153097D01*
X2841505Y-14153097D02*
X2851029Y-14143573D01*
X2851029Y-14143573D02*
X2860553Y-14124525D01*
X2984362Y-14038811D02*
X3003410Y-14038811D01*
X3003410Y-14038811D02*
X3022458Y-14048335D01*
X3022458Y-14048335D02*
X3031982Y-14057859D01*
X3031982Y-14057859D02*
X3041505Y-14076906D01*
X3041505Y-14076906D02*
X3051029Y-14115002D01*
X3051029Y-14115002D02*
X3051029Y-14162621D01*
X3051029Y-14162621D02*
X3041505Y-14200716D01*
X3041505Y-14200716D02*
X3031982Y-14219764D01*
X3031982Y-14219764D02*
X3022458Y-14229287D01*
X3022458Y-14229287D02*
X3003410Y-14238811D01*
X3003410Y-14238811D02*
X2984362Y-14238811D01*
X2984362Y-14238811D02*
X2965315Y-14229287D01*
X2965315Y-14229287D02*
X2955791Y-14219764D01*
X2955791Y-14219764D02*
X2946267Y-14200716D01*
X2946267Y-14200716D02*
X2936743Y-14162621D01*
X2936743Y-14162621D02*
X2936743Y-14115002D01*
X2936743Y-14115002D02*
X2946267Y-14076906D01*
X2946267Y-14076906D02*
X2955791Y-14057859D01*
X2955791Y-14057859D02*
X2965315Y-14048335D01*
X2965315Y-14048335D02*
X2984362Y-14038811D01*
X3174839Y-14038811D02*
X3193886Y-14038811D01*
X3193886Y-14038811D02*
X3212934Y-14048335D01*
X3212934Y-14048335D02*
X3222458Y-14057859D01*
X3222458Y-14057859D02*
X3231982Y-14076906D01*
X3231982Y-14076906D02*
X3241505Y-14115002D01*
X3241505Y-14115002D02*
X3241505Y-14162621D01*
X3241505Y-14162621D02*
X3231982Y-14200716D01*
X3231982Y-14200716D02*
X3222458Y-14219764D01*
X3222458Y-14219764D02*
X3212934Y-14229287D01*
X3212934Y-14229287D02*
X3193886Y-14238811D01*
X3193886Y-14238811D02*
X3174839Y-14238811D01*
X3174839Y-14238811D02*
X3155791Y-14229287D01*
X3155791Y-14229287D02*
X3146267Y-14219764D01*
X3146267Y-14219764D02*
X3136743Y-14200716D01*
X3136743Y-14200716D02*
X3127220Y-14162621D01*
X3127220Y-14162621D02*
X3127220Y-14115002D01*
X3127220Y-14115002D02*
X3136743Y-14076906D01*
X3136743Y-14076906D02*
X3146267Y-14057859D01*
X3146267Y-14057859D02*
X3155791Y-14048335D01*
X3155791Y-14048335D02*
X3174839Y-14038811D01*
X3327220Y-14238811D02*
X3327220Y-14105478D01*
X3327220Y-14124525D02*
X3336743Y-14115002D01*
X3336743Y-14115002D02*
X3355791Y-14105478D01*
X3355791Y-14105478D02*
X3384363Y-14105478D01*
X3384363Y-14105478D02*
X3403410Y-14115002D01*
X3403410Y-14115002D02*
X3412934Y-14134049D01*
X3412934Y-14134049D02*
X3412934Y-14238811D01*
X3412934Y-14134049D02*
X3422458Y-14115002D01*
X3422458Y-14115002D02*
X3441505Y-14105478D01*
X3441505Y-14105478D02*
X3470077Y-14105478D01*
X3470077Y-14105478D02*
X3489124Y-14115002D01*
X3489124Y-14115002D02*
X3498648Y-14134049D01*
X3498648Y-14134049D02*
X3498648Y-14238811D01*
X3593886Y-14238811D02*
X3593886Y-14105478D01*
X3593886Y-14124525D02*
X3603410Y-14115002D01*
X3603410Y-14115002D02*
X3622458Y-14105478D01*
X3622458Y-14105478D02*
X3651029Y-14105478D01*
X3651029Y-14105478D02*
X3670077Y-14115002D01*
X3670077Y-14115002D02*
X3679601Y-14134049D01*
X3679601Y-14134049D02*
X3679601Y-14238811D01*
X3679601Y-14134049D02*
X3689124Y-14115002D01*
X3689124Y-14115002D02*
X3708172Y-14105478D01*
X3708172Y-14105478D02*
X3736743Y-14105478D01*
X3736743Y-14105478D02*
X3755791Y-14115002D01*
X3755791Y-14115002D02*
X3765315Y-14134049D01*
X3765315Y-14134049D02*
X3765315Y-14238811D01*
X4155791Y-14029287D02*
X3984363Y-14286430D01*
X4412934Y-14038811D02*
X4431982Y-14038811D01*
X4431982Y-14038811D02*
X4451029Y-14048335D01*
X4451029Y-14048335D02*
X4460553Y-14057859D01*
X4460553Y-14057859D02*
X4470077Y-14076906D01*
X4470077Y-14076906D02*
X4479601Y-14115002D01*
X4479601Y-14115002D02*
X4479601Y-14162621D01*
X4479601Y-14162621D02*
X4470077Y-14200716D01*
X4470077Y-14200716D02*
X4460553Y-14219764D01*
X4460553Y-14219764D02*
X4451029Y-14229287D01*
X4451029Y-14229287D02*
X4431982Y-14238811D01*
X4431982Y-14238811D02*
X4412934Y-14238811D01*
X4412934Y-14238811D02*
X4393887Y-14229287D01*
X4393887Y-14229287D02*
X4384363Y-14219764D01*
X4384363Y-14219764D02*
X4374839Y-14200716D01*
X4374839Y-14200716D02*
X4365315Y-14162621D01*
X4365315Y-14162621D02*
X4365315Y-14115002D01*
X4365315Y-14115002D02*
X4374839Y-14076906D01*
X4374839Y-14076906D02*
X4384363Y-14057859D01*
X4384363Y-14057859D02*
X4393887Y-14048335D01*
X4393887Y-14048335D02*
X4412934Y-14038811D01*
X4565315Y-14219764D02*
X4574839Y-14229287D01*
X4574839Y-14229287D02*
X4565315Y-14238811D01*
X4565315Y-14238811D02*
X4555791Y-14229287D01*
X4555791Y-14229287D02*
X4565315Y-14219764D01*
X4565315Y-14219764D02*
X4565315Y-14238811D01*
X4698648Y-14038811D02*
X4717696Y-14038811D01*
X4717696Y-14038811D02*
X4736744Y-14048335D01*
X4736744Y-14048335D02*
X4746268Y-14057859D01*
X4746268Y-14057859D02*
X4755791Y-14076906D01*
X4755791Y-14076906D02*
X4765315Y-14115002D01*
X4765315Y-14115002D02*
X4765315Y-14162621D01*
X4765315Y-14162621D02*
X4755791Y-14200716D01*
X4755791Y-14200716D02*
X4746268Y-14219764D01*
X4746268Y-14219764D02*
X4736744Y-14229287D01*
X4736744Y-14229287D02*
X4717696Y-14238811D01*
X4717696Y-14238811D02*
X4698648Y-14238811D01*
X4698648Y-14238811D02*
X4679601Y-14229287D01*
X4679601Y-14229287D02*
X4670077Y-14219764D01*
X4670077Y-14219764D02*
X4660553Y-14200716D01*
X4660553Y-14200716D02*
X4651029Y-14162621D01*
X4651029Y-14162621D02*
X4651029Y-14115002D01*
X4651029Y-14115002D02*
X4660553Y-14076906D01*
X4660553Y-14076906D02*
X4670077Y-14057859D01*
X4670077Y-14057859D02*
X4679601Y-14048335D01*
X4679601Y-14048335D02*
X4698648Y-14038811D01*
X4831982Y-14038811D02*
X4955791Y-14038811D01*
X4955791Y-14038811D02*
X4889125Y-14115002D01*
X4889125Y-14115002D02*
X4917696Y-14115002D01*
X4917696Y-14115002D02*
X4936744Y-14124525D01*
X4936744Y-14124525D02*
X4946268Y-14134049D01*
X4946268Y-14134049D02*
X4955791Y-14153097D01*
X4955791Y-14153097D02*
X4955791Y-14200716D01*
X4955791Y-14200716D02*
X4946268Y-14219764D01*
X4946268Y-14219764D02*
X4936744Y-14229287D01*
X4936744Y-14229287D02*
X4917696Y-14238811D01*
X4917696Y-14238811D02*
X4860553Y-14238811D01*
X4860553Y-14238811D02*
X4841506Y-14229287D01*
X4841506Y-14229287D02*
X4831982Y-14219764D01*
X5136744Y-14038811D02*
X5041506Y-14038811D01*
X5041506Y-14038811D02*
X5031982Y-14134049D01*
X5031982Y-14134049D02*
X5041506Y-14124525D01*
X5041506Y-14124525D02*
X5060553Y-14115002D01*
X5060553Y-14115002D02*
X5108172Y-14115002D01*
X5108172Y-14115002D02*
X5127220Y-14124525D01*
X5127220Y-14124525D02*
X5136744Y-14134049D01*
X5136744Y-14134049D02*
X5146268Y-14153097D01*
X5146268Y-14153097D02*
X5146268Y-14200716D01*
X5146268Y-14200716D02*
X5136744Y-14219764D01*
X5136744Y-14219764D02*
X5127220Y-14229287D01*
X5127220Y-14229287D02*
X5108172Y-14238811D01*
X5108172Y-14238811D02*
X5060553Y-14238811D01*
X5060553Y-14238811D02*
X5041506Y-14229287D01*
X5041506Y-14229287D02*
X5031982Y-14219764D01*
X5317696Y-14105478D02*
X5317696Y-14238811D01*
X5270077Y-14029287D02*
X5222458Y-14172145D01*
X5222458Y-14172145D02*
X5346268Y-14172145D01*
X5412934Y-14038811D02*
X5412934Y-14076906D01*
X5489125Y-14038811D02*
X5489125Y-14076906D01*
X5784363Y-14315002D02*
X5774839Y-14305478D01*
X5774839Y-14305478D02*
X5755791Y-14276906D01*
X5755791Y-14276906D02*
X5746268Y-14257859D01*
X5746268Y-14257859D02*
X5736744Y-14229287D01*
X5736744Y-14229287D02*
X5727220Y-14181668D01*
X5727220Y-14181668D02*
X5727220Y-14143573D01*
X5727220Y-14143573D02*
X5736744Y-14095954D01*
X5736744Y-14095954D02*
X5746268Y-14067383D01*
X5746268Y-14067383D02*
X5755791Y-14048335D01*
X5755791Y-14048335D02*
X5774839Y-14019764D01*
X5774839Y-14019764D02*
X5784363Y-14010240D01*
X5898648Y-14038811D02*
X5917696Y-14038811D01*
X5917696Y-14038811D02*
X5936744Y-14048335D01*
X5936744Y-14048335D02*
X5946268Y-14057859D01*
X5946268Y-14057859D02*
X5955791Y-14076906D01*
X5955791Y-14076906D02*
X5965315Y-14115002D01*
X5965315Y-14115002D02*
X5965315Y-14162621D01*
X5965315Y-14162621D02*
X5955791Y-14200716D01*
X5955791Y-14200716D02*
X5946268Y-14219764D01*
X5946268Y-14219764D02*
X5936744Y-14229287D01*
X5936744Y-14229287D02*
X5917696Y-14238811D01*
X5917696Y-14238811D02*
X5898648Y-14238811D01*
X5898648Y-14238811D02*
X5879601Y-14229287D01*
X5879601Y-14229287D02*
X5870077Y-14219764D01*
X5870077Y-14219764D02*
X5860553Y-14200716D01*
X5860553Y-14200716D02*
X5851029Y-14162621D01*
X5851029Y-14162621D02*
X5851029Y-14115002D01*
X5851029Y-14115002D02*
X5860553Y-14076906D01*
X5860553Y-14076906D02*
X5870077Y-14057859D01*
X5870077Y-14057859D02*
X5879601Y-14048335D01*
X5879601Y-14048335D02*
X5898648Y-14038811D01*
X6203410Y-14238811D02*
X6203410Y-14038811D01*
X6289125Y-14238811D02*
X6289125Y-14134049D01*
X6289125Y-14134049D02*
X6279601Y-14115002D01*
X6279601Y-14115002D02*
X6260553Y-14105478D01*
X6260553Y-14105478D02*
X6231982Y-14105478D01*
X6231982Y-14105478D02*
X6212934Y-14115002D01*
X6212934Y-14115002D02*
X6203410Y-14124525D01*
X6412934Y-14238811D02*
X6393887Y-14229287D01*
X6393887Y-14229287D02*
X6384363Y-14219764D01*
X6384363Y-14219764D02*
X6374839Y-14200716D01*
X6374839Y-14200716D02*
X6374839Y-14143573D01*
X6374839Y-14143573D02*
X6384363Y-14124525D01*
X6384363Y-14124525D02*
X6393887Y-14115002D01*
X6393887Y-14115002D02*
X6412934Y-14105478D01*
X6412934Y-14105478D02*
X6441506Y-14105478D01*
X6441506Y-14105478D02*
X6460553Y-14115002D01*
X6460553Y-14115002D02*
X6470077Y-14124525D01*
X6470077Y-14124525D02*
X6479601Y-14143573D01*
X6479601Y-14143573D02*
X6479601Y-14200716D01*
X6479601Y-14200716D02*
X6470077Y-14219764D01*
X6470077Y-14219764D02*
X6460553Y-14229287D01*
X6460553Y-14229287D02*
X6441506Y-14238811D01*
X6441506Y-14238811D02*
X6412934Y-14238811D01*
X6593887Y-14238811D02*
X6574839Y-14229287D01*
X6574839Y-14229287D02*
X6565315Y-14210240D01*
X6565315Y-14210240D02*
X6565315Y-14038811D01*
X6746268Y-14229287D02*
X6727220Y-14238811D01*
X6727220Y-14238811D02*
X6689125Y-14238811D01*
X6689125Y-14238811D02*
X6670077Y-14229287D01*
X6670077Y-14229287D02*
X6660553Y-14210240D01*
X6660553Y-14210240D02*
X6660553Y-14134049D01*
X6660553Y-14134049D02*
X6670077Y-14115002D01*
X6670077Y-14115002D02*
X6689125Y-14105478D01*
X6689125Y-14105478D02*
X6727220Y-14105478D01*
X6727220Y-14105478D02*
X6746268Y-14115002D01*
X6746268Y-14115002D02*
X6755791Y-14134049D01*
X6755791Y-14134049D02*
X6755791Y-14153097D01*
X6755791Y-14153097D02*
X6660553Y-14172145D01*
X6831982Y-14229287D02*
X6851030Y-14238811D01*
X6851030Y-14238811D02*
X6889125Y-14238811D01*
X6889125Y-14238811D02*
X6908172Y-14229287D01*
X6908172Y-14229287D02*
X6917696Y-14210240D01*
X6917696Y-14210240D02*
X6917696Y-14200716D01*
X6917696Y-14200716D02*
X6908172Y-14181668D01*
X6908172Y-14181668D02*
X6889125Y-14172145D01*
X6889125Y-14172145D02*
X6860553Y-14172145D01*
X6860553Y-14172145D02*
X6841506Y-14162621D01*
X6841506Y-14162621D02*
X6831982Y-14143573D01*
X6831982Y-14143573D02*
X6831982Y-14134049D01*
X6831982Y-14134049D02*
X6841506Y-14115002D01*
X6841506Y-14115002D02*
X6860553Y-14105478D01*
X6860553Y-14105478D02*
X6889125Y-14105478D01*
X6889125Y-14105478D02*
X6908172Y-14115002D01*
X7155792Y-14162621D02*
X7308173Y-14162621D01*
X7231982Y-14238811D02*
X7231982Y-14086430D01*
X7641506Y-14105478D02*
X7641506Y-14238811D01*
X7593887Y-14029287D02*
X7546268Y-14172145D01*
X7546268Y-14172145D02*
X7670077Y-14172145D01*
X7889125Y-14229287D02*
X7908173Y-14238811D01*
X7908173Y-14238811D02*
X7946268Y-14238811D01*
X7946268Y-14238811D02*
X7965315Y-14229287D01*
X7965315Y-14229287D02*
X7974839Y-14210240D01*
X7974839Y-14210240D02*
X7974839Y-14200716D01*
X7974839Y-14200716D02*
X7965315Y-14181668D01*
X7965315Y-14181668D02*
X7946268Y-14172145D01*
X7946268Y-14172145D02*
X7917696Y-14172145D01*
X7917696Y-14172145D02*
X7898649Y-14162621D01*
X7898649Y-14162621D02*
X7889125Y-14143573D01*
X7889125Y-14143573D02*
X7889125Y-14134049D01*
X7889125Y-14134049D02*
X7898649Y-14115002D01*
X7898649Y-14115002D02*
X7917696Y-14105478D01*
X7917696Y-14105478D02*
X7946268Y-14105478D01*
X7946268Y-14105478D02*
X7965315Y-14115002D01*
X8089125Y-14238811D02*
X8070077Y-14229287D01*
X8070077Y-14229287D02*
X8060554Y-14210240D01*
X8060554Y-14210240D02*
X8060554Y-14038811D01*
X8193887Y-14238811D02*
X8174839Y-14229287D01*
X8174839Y-14229287D02*
X8165315Y-14219764D01*
X8165315Y-14219764D02*
X8155792Y-14200716D01*
X8155792Y-14200716D02*
X8155792Y-14143573D01*
X8155792Y-14143573D02*
X8165315Y-14124525D01*
X8165315Y-14124525D02*
X8174839Y-14115002D01*
X8174839Y-14115002D02*
X8193887Y-14105478D01*
X8193887Y-14105478D02*
X8222458Y-14105478D01*
X8222458Y-14105478D02*
X8241506Y-14115002D01*
X8241506Y-14115002D02*
X8251030Y-14124525D01*
X8251030Y-14124525D02*
X8260554Y-14143573D01*
X8260554Y-14143573D02*
X8260554Y-14200716D01*
X8260554Y-14200716D02*
X8251030Y-14219764D01*
X8251030Y-14219764D02*
X8241506Y-14229287D01*
X8241506Y-14229287D02*
X8222458Y-14238811D01*
X8222458Y-14238811D02*
X8193887Y-14238811D01*
X8317696Y-14105478D02*
X8393887Y-14105478D01*
X8346268Y-14038811D02*
X8346268Y-14210240D01*
X8346268Y-14210240D02*
X8355792Y-14229287D01*
X8355792Y-14229287D02*
X8374839Y-14238811D01*
X8374839Y-14238811D02*
X8393887Y-14238811D01*
X8451030Y-14229287D02*
X8470077Y-14238811D01*
X8470077Y-14238811D02*
X8508173Y-14238811D01*
X8508173Y-14238811D02*
X8527220Y-14229287D01*
X8527220Y-14229287D02*
X8536744Y-14210240D01*
X8536744Y-14210240D02*
X8536744Y-14200716D01*
X8536744Y-14200716D02*
X8527220Y-14181668D01*
X8527220Y-14181668D02*
X8508173Y-14172145D01*
X8508173Y-14172145D02*
X8479601Y-14172145D01*
X8479601Y-14172145D02*
X8460554Y-14162621D01*
X8460554Y-14162621D02*
X8451030Y-14143573D01*
X8451030Y-14143573D02*
X8451030Y-14134049D01*
X8451030Y-14134049D02*
X8460554Y-14115002D01*
X8460554Y-14115002D02*
X8479601Y-14105478D01*
X8479601Y-14105478D02*
X8508173Y-14105478D01*
X8508173Y-14105478D02*
X8527220Y-14115002D01*
X8603411Y-14315002D02*
X8612935Y-14305478D01*
X8612935Y-14305478D02*
X8631982Y-14276906D01*
X8631982Y-14276906D02*
X8641506Y-14257859D01*
X8641506Y-14257859D02*
X8651030Y-14229287D01*
X8651030Y-14229287D02*
X8660554Y-14181668D01*
X8660554Y-14181668D02*
X8660554Y-14143573D01*
X8660554Y-14143573D02*
X8651030Y-14095954D01*
X8651030Y-14095954D02*
X8641506Y-14067383D01*
X8641506Y-14067383D02*
X8631982Y-14048335D01*
X8631982Y-14048335D02*
X8612935Y-14019764D01*
X8612935Y-14019764D02*
X8603411Y-14010240D01*
D12*
X2109300Y-14361327D02*
X2209300Y-14461327D01*
X2209300Y-14361327D02*
X2109300Y-14461327D01*
X2209300Y-14411327D02*
G75*
G02*
X2109300Y-14411327I-50000J0D01*
G01*
X2109300Y-14411327D02*
G75*
G02*
X2209300Y-14411327I50000J0D01*
G01*
D11*
X2574839Y-14502811D02*
X2460553Y-14502811D01*
X2517696Y-14502811D02*
X2517696Y-14302811D01*
X2517696Y-14302811D02*
X2498648Y-14331383D01*
X2498648Y-14331383D02*
X2479601Y-14350430D01*
X2479601Y-14350430D02*
X2460553Y-14359954D01*
X2660553Y-14483764D02*
X2670077Y-14493287D01*
X2670077Y-14493287D02*
X2660553Y-14502811D01*
X2660553Y-14502811D02*
X2651029Y-14493287D01*
X2651029Y-14493287D02*
X2660553Y-14483764D01*
X2660553Y-14483764D02*
X2660553Y-14502811D01*
X2793886Y-14302811D02*
X2812934Y-14302811D01*
X2812934Y-14302811D02*
X2831982Y-14312335D01*
X2831982Y-14312335D02*
X2841505Y-14321859D01*
X2841505Y-14321859D02*
X2851029Y-14340906D01*
X2851029Y-14340906D02*
X2860553Y-14379002D01*
X2860553Y-14379002D02*
X2860553Y-14426621D01*
X2860553Y-14426621D02*
X2851029Y-14464716D01*
X2851029Y-14464716D02*
X2841505Y-14483764D01*
X2841505Y-14483764D02*
X2831982Y-14493287D01*
X2831982Y-14493287D02*
X2812934Y-14502811D01*
X2812934Y-14502811D02*
X2793886Y-14502811D01*
X2793886Y-14502811D02*
X2774839Y-14493287D01*
X2774839Y-14493287D02*
X2765315Y-14483764D01*
X2765315Y-14483764D02*
X2755791Y-14464716D01*
X2755791Y-14464716D02*
X2746267Y-14426621D01*
X2746267Y-14426621D02*
X2746267Y-14379002D01*
X2746267Y-14379002D02*
X2755791Y-14340906D01*
X2755791Y-14340906D02*
X2765315Y-14321859D01*
X2765315Y-14321859D02*
X2774839Y-14312335D01*
X2774839Y-14312335D02*
X2793886Y-14302811D01*
X2984362Y-14302811D02*
X3003410Y-14302811D01*
X3003410Y-14302811D02*
X3022458Y-14312335D01*
X3022458Y-14312335D02*
X3031982Y-14321859D01*
X3031982Y-14321859D02*
X3041505Y-14340906D01*
X3041505Y-14340906D02*
X3051029Y-14379002D01*
X3051029Y-14379002D02*
X3051029Y-14426621D01*
X3051029Y-14426621D02*
X3041505Y-14464716D01*
X3041505Y-14464716D02*
X3031982Y-14483764D01*
X3031982Y-14483764D02*
X3022458Y-14493287D01*
X3022458Y-14493287D02*
X3003410Y-14502811D01*
X3003410Y-14502811D02*
X2984362Y-14502811D01*
X2984362Y-14502811D02*
X2965315Y-14493287D01*
X2965315Y-14493287D02*
X2955791Y-14483764D01*
X2955791Y-14483764D02*
X2946267Y-14464716D01*
X2946267Y-14464716D02*
X2936743Y-14426621D01*
X2936743Y-14426621D02*
X2936743Y-14379002D01*
X2936743Y-14379002D02*
X2946267Y-14340906D01*
X2946267Y-14340906D02*
X2955791Y-14321859D01*
X2955791Y-14321859D02*
X2965315Y-14312335D01*
X2965315Y-14312335D02*
X2984362Y-14302811D01*
X3174839Y-14302811D02*
X3193886Y-14302811D01*
X3193886Y-14302811D02*
X3212934Y-14312335D01*
X3212934Y-14312335D02*
X3222458Y-14321859D01*
X3222458Y-14321859D02*
X3231982Y-14340906D01*
X3231982Y-14340906D02*
X3241505Y-14379002D01*
X3241505Y-14379002D02*
X3241505Y-14426621D01*
X3241505Y-14426621D02*
X3231982Y-14464716D01*
X3231982Y-14464716D02*
X3222458Y-14483764D01*
X3222458Y-14483764D02*
X3212934Y-14493287D01*
X3212934Y-14493287D02*
X3193886Y-14502811D01*
X3193886Y-14502811D02*
X3174839Y-14502811D01*
X3174839Y-14502811D02*
X3155791Y-14493287D01*
X3155791Y-14493287D02*
X3146267Y-14483764D01*
X3146267Y-14483764D02*
X3136743Y-14464716D01*
X3136743Y-14464716D02*
X3127220Y-14426621D01*
X3127220Y-14426621D02*
X3127220Y-14379002D01*
X3127220Y-14379002D02*
X3136743Y-14340906D01*
X3136743Y-14340906D02*
X3146267Y-14321859D01*
X3146267Y-14321859D02*
X3155791Y-14312335D01*
X3155791Y-14312335D02*
X3174839Y-14302811D01*
X3327220Y-14502811D02*
X3327220Y-14369478D01*
X3327220Y-14388525D02*
X3336743Y-14379002D01*
X3336743Y-14379002D02*
X3355791Y-14369478D01*
X3355791Y-14369478D02*
X3384363Y-14369478D01*
X3384363Y-14369478D02*
X3403410Y-14379002D01*
X3403410Y-14379002D02*
X3412934Y-14398049D01*
X3412934Y-14398049D02*
X3412934Y-14502811D01*
X3412934Y-14398049D02*
X3422458Y-14379002D01*
X3422458Y-14379002D02*
X3441505Y-14369478D01*
X3441505Y-14369478D02*
X3470077Y-14369478D01*
X3470077Y-14369478D02*
X3489124Y-14379002D01*
X3489124Y-14379002D02*
X3498648Y-14398049D01*
X3498648Y-14398049D02*
X3498648Y-14502811D01*
X3593886Y-14502811D02*
X3593886Y-14369478D01*
X3593886Y-14388525D02*
X3603410Y-14379002D01*
X3603410Y-14379002D02*
X3622458Y-14369478D01*
X3622458Y-14369478D02*
X3651029Y-14369478D01*
X3651029Y-14369478D02*
X3670077Y-14379002D01*
X3670077Y-14379002D02*
X3679601Y-14398049D01*
X3679601Y-14398049D02*
X3679601Y-14502811D01*
X3679601Y-14398049D02*
X3689124Y-14379002D01*
X3689124Y-14379002D02*
X3708172Y-14369478D01*
X3708172Y-14369478D02*
X3736743Y-14369478D01*
X3736743Y-14369478D02*
X3755791Y-14379002D01*
X3755791Y-14379002D02*
X3765315Y-14398049D01*
X3765315Y-14398049D02*
X3765315Y-14502811D01*
X4155791Y-14293287D02*
X3984363Y-14550430D01*
X4412934Y-14302811D02*
X4431982Y-14302811D01*
X4431982Y-14302811D02*
X4451029Y-14312335D01*
X4451029Y-14312335D02*
X4460553Y-14321859D01*
X4460553Y-14321859D02*
X4470077Y-14340906D01*
X4470077Y-14340906D02*
X4479601Y-14379002D01*
X4479601Y-14379002D02*
X4479601Y-14426621D01*
X4479601Y-14426621D02*
X4470077Y-14464716D01*
X4470077Y-14464716D02*
X4460553Y-14483764D01*
X4460553Y-14483764D02*
X4451029Y-14493287D01*
X4451029Y-14493287D02*
X4431982Y-14502811D01*
X4431982Y-14502811D02*
X4412934Y-14502811D01*
X4412934Y-14502811D02*
X4393887Y-14493287D01*
X4393887Y-14493287D02*
X4384363Y-14483764D01*
X4384363Y-14483764D02*
X4374839Y-14464716D01*
X4374839Y-14464716D02*
X4365315Y-14426621D01*
X4365315Y-14426621D02*
X4365315Y-14379002D01*
X4365315Y-14379002D02*
X4374839Y-14340906D01*
X4374839Y-14340906D02*
X4384363Y-14321859D01*
X4384363Y-14321859D02*
X4393887Y-14312335D01*
X4393887Y-14312335D02*
X4412934Y-14302811D01*
X4565315Y-14483764D02*
X4574839Y-14493287D01*
X4574839Y-14493287D02*
X4565315Y-14502811D01*
X4565315Y-14502811D02*
X4555791Y-14493287D01*
X4555791Y-14493287D02*
X4565315Y-14483764D01*
X4565315Y-14483764D02*
X4565315Y-14502811D01*
X4698648Y-14302811D02*
X4717696Y-14302811D01*
X4717696Y-14302811D02*
X4736744Y-14312335D01*
X4736744Y-14312335D02*
X4746268Y-14321859D01*
X4746268Y-14321859D02*
X4755791Y-14340906D01*
X4755791Y-14340906D02*
X4765315Y-14379002D01*
X4765315Y-14379002D02*
X4765315Y-14426621D01*
X4765315Y-14426621D02*
X4755791Y-14464716D01*
X4755791Y-14464716D02*
X4746268Y-14483764D01*
X4746268Y-14483764D02*
X4736744Y-14493287D01*
X4736744Y-14493287D02*
X4717696Y-14502811D01*
X4717696Y-14502811D02*
X4698648Y-14502811D01*
X4698648Y-14502811D02*
X4679601Y-14493287D01*
X4679601Y-14493287D02*
X4670077Y-14483764D01*
X4670077Y-14483764D02*
X4660553Y-14464716D01*
X4660553Y-14464716D02*
X4651029Y-14426621D01*
X4651029Y-14426621D02*
X4651029Y-14379002D01*
X4651029Y-14379002D02*
X4660553Y-14340906D01*
X4660553Y-14340906D02*
X4670077Y-14321859D01*
X4670077Y-14321859D02*
X4679601Y-14312335D01*
X4679601Y-14312335D02*
X4698648Y-14302811D01*
X4831982Y-14302811D02*
X4955791Y-14302811D01*
X4955791Y-14302811D02*
X4889125Y-14379002D01*
X4889125Y-14379002D02*
X4917696Y-14379002D01*
X4917696Y-14379002D02*
X4936744Y-14388525D01*
X4936744Y-14388525D02*
X4946268Y-14398049D01*
X4946268Y-14398049D02*
X4955791Y-14417097D01*
X4955791Y-14417097D02*
X4955791Y-14464716D01*
X4955791Y-14464716D02*
X4946268Y-14483764D01*
X4946268Y-14483764D02*
X4936744Y-14493287D01*
X4936744Y-14493287D02*
X4917696Y-14502811D01*
X4917696Y-14502811D02*
X4860553Y-14502811D01*
X4860553Y-14502811D02*
X4841506Y-14493287D01*
X4841506Y-14493287D02*
X4831982Y-14483764D01*
X5051029Y-14502811D02*
X5089125Y-14502811D01*
X5089125Y-14502811D02*
X5108172Y-14493287D01*
X5108172Y-14493287D02*
X5117696Y-14483764D01*
X5117696Y-14483764D02*
X5136744Y-14455192D01*
X5136744Y-14455192D02*
X5146268Y-14417097D01*
X5146268Y-14417097D02*
X5146268Y-14340906D01*
X5146268Y-14340906D02*
X5136744Y-14321859D01*
X5136744Y-14321859D02*
X5127220Y-14312335D01*
X5127220Y-14312335D02*
X5108172Y-14302811D01*
X5108172Y-14302811D02*
X5070077Y-14302811D01*
X5070077Y-14302811D02*
X5051029Y-14312335D01*
X5051029Y-14312335D02*
X5041506Y-14321859D01*
X5041506Y-14321859D02*
X5031982Y-14340906D01*
X5031982Y-14340906D02*
X5031982Y-14388525D01*
X5031982Y-14388525D02*
X5041506Y-14407573D01*
X5041506Y-14407573D02*
X5051029Y-14417097D01*
X5051029Y-14417097D02*
X5070077Y-14426621D01*
X5070077Y-14426621D02*
X5108172Y-14426621D01*
X5108172Y-14426621D02*
X5127220Y-14417097D01*
X5127220Y-14417097D02*
X5136744Y-14407573D01*
X5136744Y-14407573D02*
X5146268Y-14388525D01*
X5317696Y-14369478D02*
X5317696Y-14502811D01*
X5270077Y-14293287D02*
X5222458Y-14436145D01*
X5222458Y-14436145D02*
X5346268Y-14436145D01*
X5412934Y-14302811D02*
X5412934Y-14340906D01*
X5489125Y-14302811D02*
X5489125Y-14340906D01*
X5784363Y-14579002D02*
X5774839Y-14569478D01*
X5774839Y-14569478D02*
X5755791Y-14540906D01*
X5755791Y-14540906D02*
X5746268Y-14521859D01*
X5746268Y-14521859D02*
X5736744Y-14493287D01*
X5736744Y-14493287D02*
X5727220Y-14445668D01*
X5727220Y-14445668D02*
X5727220Y-14407573D01*
X5727220Y-14407573D02*
X5736744Y-14359954D01*
X5736744Y-14359954D02*
X5746268Y-14331383D01*
X5746268Y-14331383D02*
X5755791Y-14312335D01*
X5755791Y-14312335D02*
X5774839Y-14283764D01*
X5774839Y-14283764D02*
X5784363Y-14274240D01*
X5965315Y-14502811D02*
X5851029Y-14502811D01*
X5908172Y-14502811D02*
X5908172Y-14302811D01*
X5908172Y-14302811D02*
X5889125Y-14331383D01*
X5889125Y-14331383D02*
X5870077Y-14350430D01*
X5870077Y-14350430D02*
X5851029Y-14359954D01*
X6031982Y-14302811D02*
X6155791Y-14302811D01*
X6155791Y-14302811D02*
X6089125Y-14379002D01*
X6089125Y-14379002D02*
X6117696Y-14379002D01*
X6117696Y-14379002D02*
X6136744Y-14388525D01*
X6136744Y-14388525D02*
X6146268Y-14398049D01*
X6146268Y-14398049D02*
X6155791Y-14417097D01*
X6155791Y-14417097D02*
X6155791Y-14464716D01*
X6155791Y-14464716D02*
X6146268Y-14483764D01*
X6146268Y-14483764D02*
X6136744Y-14493287D01*
X6136744Y-14493287D02*
X6117696Y-14502811D01*
X6117696Y-14502811D02*
X6060553Y-14502811D01*
X6060553Y-14502811D02*
X6041506Y-14493287D01*
X6041506Y-14493287D02*
X6031982Y-14483764D01*
X6327220Y-14369478D02*
X6327220Y-14502811D01*
X6279601Y-14293287D02*
X6231982Y-14436145D01*
X6231982Y-14436145D02*
X6355791Y-14436145D01*
X6584363Y-14502811D02*
X6584363Y-14302811D01*
X6670077Y-14502811D02*
X6670077Y-14398049D01*
X6670077Y-14398049D02*
X6660553Y-14379002D01*
X6660553Y-14379002D02*
X6641506Y-14369478D01*
X6641506Y-14369478D02*
X6612934Y-14369478D01*
X6612934Y-14369478D02*
X6593887Y-14379002D01*
X6593887Y-14379002D02*
X6584363Y-14388525D01*
X6793887Y-14502811D02*
X6774839Y-14493287D01*
X6774839Y-14493287D02*
X6765315Y-14483764D01*
X6765315Y-14483764D02*
X6755791Y-14464716D01*
X6755791Y-14464716D02*
X6755791Y-14407573D01*
X6755791Y-14407573D02*
X6765315Y-14388525D01*
X6765315Y-14388525D02*
X6774839Y-14379002D01*
X6774839Y-14379002D02*
X6793887Y-14369478D01*
X6793887Y-14369478D02*
X6822458Y-14369478D01*
X6822458Y-14369478D02*
X6841506Y-14379002D01*
X6841506Y-14379002D02*
X6851030Y-14388525D01*
X6851030Y-14388525D02*
X6860553Y-14407573D01*
X6860553Y-14407573D02*
X6860553Y-14464716D01*
X6860553Y-14464716D02*
X6851030Y-14483764D01*
X6851030Y-14483764D02*
X6841506Y-14493287D01*
X6841506Y-14493287D02*
X6822458Y-14502811D01*
X6822458Y-14502811D02*
X6793887Y-14502811D01*
X6974839Y-14502811D02*
X6955791Y-14493287D01*
X6955791Y-14493287D02*
X6946268Y-14474240D01*
X6946268Y-14474240D02*
X6946268Y-14302811D01*
X7127220Y-14493287D02*
X7108172Y-14502811D01*
X7108172Y-14502811D02*
X7070077Y-14502811D01*
X7070077Y-14502811D02*
X7051030Y-14493287D01*
X7051030Y-14493287D02*
X7041506Y-14474240D01*
X7041506Y-14474240D02*
X7041506Y-14398049D01*
X7041506Y-14398049D02*
X7051030Y-14379002D01*
X7051030Y-14379002D02*
X7070077Y-14369478D01*
X7070077Y-14369478D02*
X7108172Y-14369478D01*
X7108172Y-14369478D02*
X7127220Y-14379002D01*
X7127220Y-14379002D02*
X7136744Y-14398049D01*
X7136744Y-14398049D02*
X7136744Y-14417097D01*
X7136744Y-14417097D02*
X7041506Y-14436145D01*
X7212934Y-14493287D02*
X7231982Y-14502811D01*
X7231982Y-14502811D02*
X7270077Y-14502811D01*
X7270077Y-14502811D02*
X7289125Y-14493287D01*
X7289125Y-14493287D02*
X7298649Y-14474240D01*
X7298649Y-14474240D02*
X7298649Y-14464716D01*
X7298649Y-14464716D02*
X7289125Y-14445668D01*
X7289125Y-14445668D02*
X7270077Y-14436145D01*
X7270077Y-14436145D02*
X7241506Y-14436145D01*
X7241506Y-14436145D02*
X7222458Y-14426621D01*
X7222458Y-14426621D02*
X7212934Y-14407573D01*
X7212934Y-14407573D02*
X7212934Y-14398049D01*
X7212934Y-14398049D02*
X7222458Y-14379002D01*
X7222458Y-14379002D02*
X7241506Y-14369478D01*
X7241506Y-14369478D02*
X7270077Y-14369478D01*
X7270077Y-14369478D02*
X7289125Y-14379002D01*
X7365315Y-14579002D02*
X7374839Y-14569478D01*
X7374839Y-14569478D02*
X7393887Y-14540906D01*
X7393887Y-14540906D02*
X7403411Y-14521859D01*
X7403411Y-14521859D02*
X7412934Y-14493287D01*
X7412934Y-14493287D02*
X7422458Y-14445668D01*
X7422458Y-14445668D02*
X7422458Y-14407573D01*
X7422458Y-14407573D02*
X7412934Y-14359954D01*
X7412934Y-14359954D02*
X7403411Y-14331383D01*
X7403411Y-14331383D02*
X7393887Y-14312335D01*
X7393887Y-14312335D02*
X7374839Y-14283764D01*
X7374839Y-14283764D02*
X7365315Y-14274240D01*
X2009300Y-14575327D02*
X2209300Y-14775327D01*
X2209300Y-14575327D02*
X2009300Y-14775327D01*
X2109300Y-14575327D02*
X2109300Y-14775327D01*
X2009300Y-14675327D02*
X2209300Y-14675327D01*
X2460553Y-14585859D02*
X2470077Y-14576335D01*
X2470077Y-14576335D02*
X2489124Y-14566811D01*
X2489124Y-14566811D02*
X2536744Y-14566811D01*
X2536744Y-14566811D02*
X2555791Y-14576335D01*
X2555791Y-14576335D02*
X2565315Y-14585859D01*
X2565315Y-14585859D02*
X2574839Y-14604906D01*
X2574839Y-14604906D02*
X2574839Y-14623954D01*
X2574839Y-14623954D02*
X2565315Y-14652525D01*
X2565315Y-14652525D02*
X2451029Y-14766811D01*
X2451029Y-14766811D02*
X2574839Y-14766811D01*
X2660553Y-14747764D02*
X2670077Y-14757287D01*
X2670077Y-14757287D02*
X2660553Y-14766811D01*
X2660553Y-14766811D02*
X2651029Y-14757287D01*
X2651029Y-14757287D02*
X2660553Y-14747764D01*
X2660553Y-14747764D02*
X2660553Y-14766811D01*
X2746267Y-14585859D02*
X2755791Y-14576335D01*
X2755791Y-14576335D02*
X2774839Y-14566811D01*
X2774839Y-14566811D02*
X2822458Y-14566811D01*
X2822458Y-14566811D02*
X2841505Y-14576335D01*
X2841505Y-14576335D02*
X2851029Y-14585859D01*
X2851029Y-14585859D02*
X2860553Y-14604906D01*
X2860553Y-14604906D02*
X2860553Y-14623954D01*
X2860553Y-14623954D02*
X2851029Y-14652525D01*
X2851029Y-14652525D02*
X2736744Y-14766811D01*
X2736744Y-14766811D02*
X2860553Y-14766811D01*
X2984362Y-14566811D02*
X3003410Y-14566811D01*
X3003410Y-14566811D02*
X3022458Y-14576335D01*
X3022458Y-14576335D02*
X3031982Y-14585859D01*
X3031982Y-14585859D02*
X3041505Y-14604906D01*
X3041505Y-14604906D02*
X3051029Y-14643002D01*
X3051029Y-14643002D02*
X3051029Y-14690621D01*
X3051029Y-14690621D02*
X3041505Y-14728716D01*
X3041505Y-14728716D02*
X3031982Y-14747764D01*
X3031982Y-14747764D02*
X3022458Y-14757287D01*
X3022458Y-14757287D02*
X3003410Y-14766811D01*
X3003410Y-14766811D02*
X2984362Y-14766811D01*
X2984362Y-14766811D02*
X2965315Y-14757287D01*
X2965315Y-14757287D02*
X2955791Y-14747764D01*
X2955791Y-14747764D02*
X2946267Y-14728716D01*
X2946267Y-14728716D02*
X2936743Y-14690621D01*
X2936743Y-14690621D02*
X2936743Y-14643002D01*
X2936743Y-14643002D02*
X2946267Y-14604906D01*
X2946267Y-14604906D02*
X2955791Y-14585859D01*
X2955791Y-14585859D02*
X2965315Y-14576335D01*
X2965315Y-14576335D02*
X2984362Y-14566811D01*
X3174839Y-14566811D02*
X3193886Y-14566811D01*
X3193886Y-14566811D02*
X3212934Y-14576335D01*
X3212934Y-14576335D02*
X3222458Y-14585859D01*
X3222458Y-14585859D02*
X3231982Y-14604906D01*
X3231982Y-14604906D02*
X3241505Y-14643002D01*
X3241505Y-14643002D02*
X3241505Y-14690621D01*
X3241505Y-14690621D02*
X3231982Y-14728716D01*
X3231982Y-14728716D02*
X3222458Y-14747764D01*
X3222458Y-14747764D02*
X3212934Y-14757287D01*
X3212934Y-14757287D02*
X3193886Y-14766811D01*
X3193886Y-14766811D02*
X3174839Y-14766811D01*
X3174839Y-14766811D02*
X3155791Y-14757287D01*
X3155791Y-14757287D02*
X3146267Y-14747764D01*
X3146267Y-14747764D02*
X3136743Y-14728716D01*
X3136743Y-14728716D02*
X3127220Y-14690621D01*
X3127220Y-14690621D02*
X3127220Y-14643002D01*
X3127220Y-14643002D02*
X3136743Y-14604906D01*
X3136743Y-14604906D02*
X3146267Y-14585859D01*
X3146267Y-14585859D02*
X3155791Y-14576335D01*
X3155791Y-14576335D02*
X3174839Y-14566811D01*
X3327220Y-14766811D02*
X3327220Y-14633478D01*
X3327220Y-14652525D02*
X3336743Y-14643002D01*
X3336743Y-14643002D02*
X3355791Y-14633478D01*
X3355791Y-14633478D02*
X3384363Y-14633478D01*
X3384363Y-14633478D02*
X3403410Y-14643002D01*
X3403410Y-14643002D02*
X3412934Y-14662049D01*
X3412934Y-14662049D02*
X3412934Y-14766811D01*
X3412934Y-14662049D02*
X3422458Y-14643002D01*
X3422458Y-14643002D02*
X3441505Y-14633478D01*
X3441505Y-14633478D02*
X3470077Y-14633478D01*
X3470077Y-14633478D02*
X3489124Y-14643002D01*
X3489124Y-14643002D02*
X3498648Y-14662049D01*
X3498648Y-14662049D02*
X3498648Y-14766811D01*
X3593886Y-14766811D02*
X3593886Y-14633478D01*
X3593886Y-14652525D02*
X3603410Y-14643002D01*
X3603410Y-14643002D02*
X3622458Y-14633478D01*
X3622458Y-14633478D02*
X3651029Y-14633478D01*
X3651029Y-14633478D02*
X3670077Y-14643002D01*
X3670077Y-14643002D02*
X3679601Y-14662049D01*
X3679601Y-14662049D02*
X3679601Y-14766811D01*
X3679601Y-14662049D02*
X3689124Y-14643002D01*
X3689124Y-14643002D02*
X3708172Y-14633478D01*
X3708172Y-14633478D02*
X3736743Y-14633478D01*
X3736743Y-14633478D02*
X3755791Y-14643002D01*
X3755791Y-14643002D02*
X3765315Y-14662049D01*
X3765315Y-14662049D02*
X3765315Y-14766811D01*
X4155791Y-14557287D02*
X3984363Y-14814430D01*
X4412934Y-14566811D02*
X4431982Y-14566811D01*
X4431982Y-14566811D02*
X4451029Y-14576335D01*
X4451029Y-14576335D02*
X4460553Y-14585859D01*
X4460553Y-14585859D02*
X4470077Y-14604906D01*
X4470077Y-14604906D02*
X4479601Y-14643002D01*
X4479601Y-14643002D02*
X4479601Y-14690621D01*
X4479601Y-14690621D02*
X4470077Y-14728716D01*
X4470077Y-14728716D02*
X4460553Y-14747764D01*
X4460553Y-14747764D02*
X4451029Y-14757287D01*
X4451029Y-14757287D02*
X4431982Y-14766811D01*
X4431982Y-14766811D02*
X4412934Y-14766811D01*
X4412934Y-14766811D02*
X4393887Y-14757287D01*
X4393887Y-14757287D02*
X4384363Y-14747764D01*
X4384363Y-14747764D02*
X4374839Y-14728716D01*
X4374839Y-14728716D02*
X4365315Y-14690621D01*
X4365315Y-14690621D02*
X4365315Y-14643002D01*
X4365315Y-14643002D02*
X4374839Y-14604906D01*
X4374839Y-14604906D02*
X4384363Y-14585859D01*
X4384363Y-14585859D02*
X4393887Y-14576335D01*
X4393887Y-14576335D02*
X4412934Y-14566811D01*
X4565315Y-14747764D02*
X4574839Y-14757287D01*
X4574839Y-14757287D02*
X4565315Y-14766811D01*
X4565315Y-14766811D02*
X4555791Y-14757287D01*
X4555791Y-14757287D02*
X4565315Y-14747764D01*
X4565315Y-14747764D02*
X4565315Y-14766811D01*
X4698648Y-14566811D02*
X4717696Y-14566811D01*
X4717696Y-14566811D02*
X4736744Y-14576335D01*
X4736744Y-14576335D02*
X4746268Y-14585859D01*
X4746268Y-14585859D02*
X4755791Y-14604906D01*
X4755791Y-14604906D02*
X4765315Y-14643002D01*
X4765315Y-14643002D02*
X4765315Y-14690621D01*
X4765315Y-14690621D02*
X4755791Y-14728716D01*
X4755791Y-14728716D02*
X4746268Y-14747764D01*
X4746268Y-14747764D02*
X4736744Y-14757287D01*
X4736744Y-14757287D02*
X4717696Y-14766811D01*
X4717696Y-14766811D02*
X4698648Y-14766811D01*
X4698648Y-14766811D02*
X4679601Y-14757287D01*
X4679601Y-14757287D02*
X4670077Y-14747764D01*
X4670077Y-14747764D02*
X4660553Y-14728716D01*
X4660553Y-14728716D02*
X4651029Y-14690621D01*
X4651029Y-14690621D02*
X4651029Y-14643002D01*
X4651029Y-14643002D02*
X4660553Y-14604906D01*
X4660553Y-14604906D02*
X4670077Y-14585859D01*
X4670077Y-14585859D02*
X4679601Y-14576335D01*
X4679601Y-14576335D02*
X4698648Y-14566811D01*
X4879601Y-14652525D02*
X4860553Y-14643002D01*
X4860553Y-14643002D02*
X4851029Y-14633478D01*
X4851029Y-14633478D02*
X4841506Y-14614430D01*
X4841506Y-14614430D02*
X4841506Y-14604906D01*
X4841506Y-14604906D02*
X4851029Y-14585859D01*
X4851029Y-14585859D02*
X4860553Y-14576335D01*
X4860553Y-14576335D02*
X4879601Y-14566811D01*
X4879601Y-14566811D02*
X4917696Y-14566811D01*
X4917696Y-14566811D02*
X4936744Y-14576335D01*
X4936744Y-14576335D02*
X4946268Y-14585859D01*
X4946268Y-14585859D02*
X4955791Y-14604906D01*
X4955791Y-14604906D02*
X4955791Y-14614430D01*
X4955791Y-14614430D02*
X4946268Y-14633478D01*
X4946268Y-14633478D02*
X4936744Y-14643002D01*
X4936744Y-14643002D02*
X4917696Y-14652525D01*
X4917696Y-14652525D02*
X4879601Y-14652525D01*
X4879601Y-14652525D02*
X4860553Y-14662049D01*
X4860553Y-14662049D02*
X4851029Y-14671573D01*
X4851029Y-14671573D02*
X4841506Y-14690621D01*
X4841506Y-14690621D02*
X4841506Y-14728716D01*
X4841506Y-14728716D02*
X4851029Y-14747764D01*
X4851029Y-14747764D02*
X4860553Y-14757287D01*
X4860553Y-14757287D02*
X4879601Y-14766811D01*
X4879601Y-14766811D02*
X4917696Y-14766811D01*
X4917696Y-14766811D02*
X4936744Y-14757287D01*
X4936744Y-14757287D02*
X4946268Y-14747764D01*
X4946268Y-14747764D02*
X4955791Y-14728716D01*
X4955791Y-14728716D02*
X4955791Y-14690621D01*
X4955791Y-14690621D02*
X4946268Y-14671573D01*
X4946268Y-14671573D02*
X4936744Y-14662049D01*
X4936744Y-14662049D02*
X4917696Y-14652525D01*
X5127220Y-14566811D02*
X5089125Y-14566811D01*
X5089125Y-14566811D02*
X5070077Y-14576335D01*
X5070077Y-14576335D02*
X5060553Y-14585859D01*
X5060553Y-14585859D02*
X5041506Y-14614430D01*
X5041506Y-14614430D02*
X5031982Y-14652525D01*
X5031982Y-14652525D02*
X5031982Y-14728716D01*
X5031982Y-14728716D02*
X5041506Y-14747764D01*
X5041506Y-14747764D02*
X5051029Y-14757287D01*
X5051029Y-14757287D02*
X5070077Y-14766811D01*
X5070077Y-14766811D02*
X5108172Y-14766811D01*
X5108172Y-14766811D02*
X5127220Y-14757287D01*
X5127220Y-14757287D02*
X5136744Y-14747764D01*
X5136744Y-14747764D02*
X5146268Y-14728716D01*
X5146268Y-14728716D02*
X5146268Y-14681097D01*
X5146268Y-14681097D02*
X5136744Y-14662049D01*
X5136744Y-14662049D02*
X5127220Y-14652525D01*
X5127220Y-14652525D02*
X5108172Y-14643002D01*
X5108172Y-14643002D02*
X5070077Y-14643002D01*
X5070077Y-14643002D02*
X5051029Y-14652525D01*
X5051029Y-14652525D02*
X5041506Y-14662049D01*
X5041506Y-14662049D02*
X5031982Y-14681097D01*
X5317696Y-14566811D02*
X5279601Y-14566811D01*
X5279601Y-14566811D02*
X5260553Y-14576335D01*
X5260553Y-14576335D02*
X5251029Y-14585859D01*
X5251029Y-14585859D02*
X5231982Y-14614430D01*
X5231982Y-14614430D02*
X5222458Y-14652525D01*
X5222458Y-14652525D02*
X5222458Y-14728716D01*
X5222458Y-14728716D02*
X5231982Y-14747764D01*
X5231982Y-14747764D02*
X5241506Y-14757287D01*
X5241506Y-14757287D02*
X5260553Y-14766811D01*
X5260553Y-14766811D02*
X5298649Y-14766811D01*
X5298649Y-14766811D02*
X5317696Y-14757287D01*
X5317696Y-14757287D02*
X5327220Y-14747764D01*
X5327220Y-14747764D02*
X5336744Y-14728716D01*
X5336744Y-14728716D02*
X5336744Y-14681097D01*
X5336744Y-14681097D02*
X5327220Y-14662049D01*
X5327220Y-14662049D02*
X5317696Y-14652525D01*
X5317696Y-14652525D02*
X5298649Y-14643002D01*
X5298649Y-14643002D02*
X5260553Y-14643002D01*
X5260553Y-14643002D02*
X5241506Y-14652525D01*
X5241506Y-14652525D02*
X5231982Y-14662049D01*
X5231982Y-14662049D02*
X5222458Y-14681097D01*
X5412934Y-14566811D02*
X5412934Y-14604906D01*
X5489125Y-14566811D02*
X5489125Y-14604906D01*
X5784363Y-14843002D02*
X5774839Y-14833478D01*
X5774839Y-14833478D02*
X5755791Y-14804906D01*
X5755791Y-14804906D02*
X5746268Y-14785859D01*
X5746268Y-14785859D02*
X5736744Y-14757287D01*
X5736744Y-14757287D02*
X5727220Y-14709668D01*
X5727220Y-14709668D02*
X5727220Y-14671573D01*
X5727220Y-14671573D02*
X5736744Y-14623954D01*
X5736744Y-14623954D02*
X5746268Y-14595383D01*
X5746268Y-14595383D02*
X5755791Y-14576335D01*
X5755791Y-14576335D02*
X5774839Y-14547764D01*
X5774839Y-14547764D02*
X5784363Y-14538240D01*
X5946268Y-14633478D02*
X5946268Y-14766811D01*
X5898648Y-14557287D02*
X5851029Y-14700145D01*
X5851029Y-14700145D02*
X5974839Y-14700145D01*
X6203410Y-14766811D02*
X6203410Y-14566811D01*
X6289125Y-14766811D02*
X6289125Y-14662049D01*
X6289125Y-14662049D02*
X6279601Y-14643002D01*
X6279601Y-14643002D02*
X6260553Y-14633478D01*
X6260553Y-14633478D02*
X6231982Y-14633478D01*
X6231982Y-14633478D02*
X6212934Y-14643002D01*
X6212934Y-14643002D02*
X6203410Y-14652525D01*
X6412934Y-14766811D02*
X6393887Y-14757287D01*
X6393887Y-14757287D02*
X6384363Y-14747764D01*
X6384363Y-14747764D02*
X6374839Y-14728716D01*
X6374839Y-14728716D02*
X6374839Y-14671573D01*
X6374839Y-14671573D02*
X6384363Y-14652525D01*
X6384363Y-14652525D02*
X6393887Y-14643002D01*
X6393887Y-14643002D02*
X6412934Y-14633478D01*
X6412934Y-14633478D02*
X6441506Y-14633478D01*
X6441506Y-14633478D02*
X6460553Y-14643002D01*
X6460553Y-14643002D02*
X6470077Y-14652525D01*
X6470077Y-14652525D02*
X6479601Y-14671573D01*
X6479601Y-14671573D02*
X6479601Y-14728716D01*
X6479601Y-14728716D02*
X6470077Y-14747764D01*
X6470077Y-14747764D02*
X6460553Y-14757287D01*
X6460553Y-14757287D02*
X6441506Y-14766811D01*
X6441506Y-14766811D02*
X6412934Y-14766811D01*
X6593887Y-14766811D02*
X6574839Y-14757287D01*
X6574839Y-14757287D02*
X6565315Y-14738240D01*
X6565315Y-14738240D02*
X6565315Y-14566811D01*
X6746268Y-14757287D02*
X6727220Y-14766811D01*
X6727220Y-14766811D02*
X6689125Y-14766811D01*
X6689125Y-14766811D02*
X6670077Y-14757287D01*
X6670077Y-14757287D02*
X6660553Y-14738240D01*
X6660553Y-14738240D02*
X6660553Y-14662049D01*
X6660553Y-14662049D02*
X6670077Y-14643002D01*
X6670077Y-14643002D02*
X6689125Y-14633478D01*
X6689125Y-14633478D02*
X6727220Y-14633478D01*
X6727220Y-14633478D02*
X6746268Y-14643002D01*
X6746268Y-14643002D02*
X6755791Y-14662049D01*
X6755791Y-14662049D02*
X6755791Y-14681097D01*
X6755791Y-14681097D02*
X6660553Y-14700145D01*
X6831982Y-14757287D02*
X6851030Y-14766811D01*
X6851030Y-14766811D02*
X6889125Y-14766811D01*
X6889125Y-14766811D02*
X6908172Y-14757287D01*
X6908172Y-14757287D02*
X6917696Y-14738240D01*
X6917696Y-14738240D02*
X6917696Y-14728716D01*
X6917696Y-14728716D02*
X6908172Y-14709668D01*
X6908172Y-14709668D02*
X6889125Y-14700145D01*
X6889125Y-14700145D02*
X6860553Y-14700145D01*
X6860553Y-14700145D02*
X6841506Y-14690621D01*
X6841506Y-14690621D02*
X6831982Y-14671573D01*
X6831982Y-14671573D02*
X6831982Y-14662049D01*
X6831982Y-14662049D02*
X6841506Y-14643002D01*
X6841506Y-14643002D02*
X6860553Y-14633478D01*
X6860553Y-14633478D02*
X6889125Y-14633478D01*
X6889125Y-14633478D02*
X6908172Y-14643002D01*
X6984363Y-14843002D02*
X6993887Y-14833478D01*
X6993887Y-14833478D02*
X7012934Y-14804906D01*
X7012934Y-14804906D02*
X7022458Y-14785859D01*
X7022458Y-14785859D02*
X7031982Y-14757287D01*
X7031982Y-14757287D02*
X7041506Y-14709668D01*
X7041506Y-14709668D02*
X7041506Y-14671573D01*
X7041506Y-14671573D02*
X7031982Y-14623954D01*
X7031982Y-14623954D02*
X7022458Y-14595383D01*
X7022458Y-14595383D02*
X7012934Y-14576335D01*
X7012934Y-14576335D02*
X6993887Y-14547764D01*
X6993887Y-14547764D02*
X6984363Y-14538240D01*
M02*
