%TF.GenerationSoftware,KiCad,Pcbnew,8.0.0*%
%TF.CreationDate,2024-03-17T00:30:10-07:00*%
%TF.ProjectId,expansionboardA,65787061-6e73-4696-9f6e-626f61726441,3*%
%TF.SameCoordinates,Original*%
%TF.FileFunction,Soldermask,Top*%
%TF.FilePolarity,Negative*%
%FSLAX46Y46*%
G04 Gerber Fmt 4.6, Leading zero omitted, Abs format (unit mm)*
G04 Created by KiCad (PCBNEW 8.0.0) date 2024-03-17 00:30:10*
%MOMM*%
%LPD*%
G01*
G04 APERTURE LIST*
%ADD10R,0.800000X0.800000*%
%ADD11C,0.800000*%
%ADD12O,2.800000X1.700000*%
%ADD13C,0.700000*%
%ADD14C,4.400000*%
%ADD15C,0.650000*%
%ADD16O,1.700000X0.900000*%
%ADD17O,2.400000X0.900000*%
%ADD18C,1.700000*%
%ADD19R,1.700000X1.700000*%
%ADD20O,1.700000X1.700000*%
%ADD21R,1.600000X1.500000*%
%ADD22C,1.600000*%
%ADD23C,3.000000*%
G04 APERTURE END LIST*
D10*
%TO.C,J3*%
X144920000Y-74840000D03*
D11*
X143370000Y-74340000D03*
X144920000Y-73840000D03*
X143370000Y-73340000D03*
X144920000Y-72840000D03*
X143370000Y-72340000D03*
X144920000Y-71840000D03*
X143370000Y-71340000D03*
X144920000Y-70840000D03*
X143370000Y-70340000D03*
X144920000Y-69840000D03*
X143370000Y-69340000D03*
X144920000Y-68840000D03*
X143370000Y-68340000D03*
X144920000Y-67840000D03*
X143370000Y-67340000D03*
X144920000Y-66840000D03*
X143370000Y-66340000D03*
X144920000Y-65840000D03*
D12*
X143200000Y-61190000D03*
X143200000Y-79490000D03*
X150300000Y-79490000D03*
X150300000Y-61190000D03*
%TD*%
D13*
%TO.C,REF\u002A\u002A*%
X147000000Y-121000000D03*
X147483274Y-119833274D03*
X147483274Y-122166726D03*
X148650000Y-119350000D03*
D14*
X148650000Y-121000000D03*
D13*
X148650000Y-122650000D03*
X149816726Y-119833274D03*
X149816726Y-122166726D03*
X150300000Y-121000000D03*
%TD*%
%TO.C,REF\u002A\u002A*%
X25458274Y-44450000D03*
X25941548Y-43283274D03*
X25941548Y-45616726D03*
X27108274Y-42800000D03*
D14*
X27108274Y-44450000D03*
D13*
X27108274Y-46100000D03*
X28275000Y-43283274D03*
X28275000Y-45616726D03*
X28758274Y-44450000D03*
%TD*%
%TO.C,REF\u002A\u002A*%
X147275000Y-44450000D03*
X147758274Y-43283274D03*
X147758274Y-45616726D03*
X148925000Y-42800000D03*
D14*
X148925000Y-44450000D03*
D13*
X148925000Y-46100000D03*
X150091726Y-43283274D03*
X150091726Y-45616726D03*
X150575000Y-44450000D03*
%TD*%
%TO.C,REF\u002A\u002A*%
X25183274Y-120725000D03*
X25666548Y-119558274D03*
X25666548Y-121891726D03*
X26833274Y-119075000D03*
D14*
X26833274Y-120725000D03*
D13*
X26833274Y-122375000D03*
X28000000Y-119558274D03*
X28000000Y-121891726D03*
X28483274Y-120725000D03*
%TD*%
D15*
%TO.C,J1*%
X146740000Y-114000000D03*
X146740000Y-113150000D03*
X146740000Y-112300000D03*
X146740000Y-111450000D03*
X146740000Y-110600000D03*
X146740000Y-109750000D03*
X146740000Y-108900000D03*
X146740000Y-108050000D03*
X148090000Y-108050000D03*
X148090000Y-108900000D03*
X148090000Y-109750000D03*
X148090000Y-110600000D03*
X148090000Y-111450000D03*
X148090000Y-112300000D03*
X148090000Y-113150000D03*
X148090000Y-114000000D03*
D16*
X151100000Y-115350000D03*
X151100000Y-106700000D03*
D17*
X147720000Y-115350000D03*
X147720000Y-106700000D03*
%TD*%
D18*
%TO.C,AU1*%
X149300000Y-94800000D03*
X142300000Y-94800000D03*
%TD*%
D19*
%TO.C,U2*%
X48220000Y-121920000D03*
D20*
X45680000Y-121920000D03*
X48220000Y-119380000D03*
X45680000Y-119380000D03*
X48220000Y-116840000D03*
X45680000Y-116840000D03*
X48220000Y-114300000D03*
X45680000Y-114300000D03*
X48220000Y-111760000D03*
X45680000Y-111760000D03*
X48220000Y-109220000D03*
X45680000Y-109220000D03*
X48220000Y-106680000D03*
X45680000Y-106680000D03*
X48220000Y-104140000D03*
X45680000Y-104140000D03*
X48220000Y-101600000D03*
X45680000Y-101600000D03*
X48220000Y-99060000D03*
X45680000Y-99060000D03*
X48220000Y-96520000D03*
X45680000Y-96520000D03*
X48220000Y-93980000D03*
X45680000Y-93980000D03*
X48220000Y-91440000D03*
X45680000Y-91440000D03*
X48220000Y-88900000D03*
X45680000Y-88900000D03*
X48220000Y-86360000D03*
X45680000Y-86360000D03*
X48220000Y-83820000D03*
X45680000Y-83820000D03*
X48220000Y-81280000D03*
X45680000Y-81280000D03*
X48220000Y-78740000D03*
X45680000Y-78740000D03*
X48220000Y-76200000D03*
X45680000Y-76200000D03*
X48220000Y-73660000D03*
X45680000Y-73660000D03*
X48220000Y-71120000D03*
X45680000Y-71120000D03*
X48220000Y-68580000D03*
X45680000Y-68580000D03*
X48220000Y-66040000D03*
X45680000Y-66040000D03*
X48220000Y-63500000D03*
X45680000Y-63500000D03*
X48220000Y-60960000D03*
X45680000Y-60960000D03*
X48220000Y-58420000D03*
X45680000Y-58420000D03*
X48220000Y-55880000D03*
X45680000Y-55880000D03*
X48220000Y-53340000D03*
X45680000Y-53340000D03*
X48220000Y-50800000D03*
X45680000Y-50800000D03*
X48220000Y-48260000D03*
X45680000Y-48260000D03*
X48220000Y-45720000D03*
X45680000Y-45720000D03*
X48220000Y-43180000D03*
X45680000Y-43180000D03*
%TD*%
D19*
%TO.C,U4*%
X109220000Y-121920000D03*
D20*
X106680000Y-121920000D03*
X109220000Y-119380000D03*
X106680000Y-119380000D03*
X109220000Y-116840000D03*
X106680000Y-116840000D03*
X109220000Y-114300000D03*
X106680000Y-114300000D03*
X109220000Y-111760000D03*
X106680000Y-111760000D03*
X109220000Y-109220000D03*
X106680000Y-109220000D03*
X109220000Y-106680000D03*
X106680000Y-106680000D03*
X109220000Y-101600000D03*
X106680000Y-101600000D03*
X109220000Y-99060000D03*
X106680000Y-99060000D03*
X109220000Y-96520000D03*
X106680000Y-96520000D03*
X109220000Y-93980000D03*
X106680000Y-93980000D03*
X109220000Y-91440000D03*
X106680000Y-91440000D03*
X109220000Y-88900000D03*
X106680000Y-88900000D03*
X109220000Y-86360000D03*
X106680000Y-86360000D03*
X109220000Y-83820000D03*
X106680000Y-83820000D03*
X109220000Y-81280000D03*
X106680000Y-81280000D03*
X109220000Y-78740000D03*
X106680000Y-78740000D03*
X109220000Y-76200000D03*
X106680000Y-76200000D03*
X109220000Y-73660000D03*
X106680000Y-73660000D03*
X109220000Y-71120000D03*
X106680000Y-71120000D03*
X109220000Y-68580000D03*
X106680000Y-68580000D03*
X109220000Y-66040000D03*
X106680000Y-66040000D03*
X109220000Y-63500000D03*
X106680000Y-63500000D03*
X109220000Y-60960000D03*
X106680000Y-60960000D03*
X109220000Y-58420000D03*
X106680000Y-58420000D03*
X109220000Y-55880000D03*
X106680000Y-55880000D03*
X109220000Y-53340000D03*
X106680000Y-53340000D03*
X109220000Y-50800000D03*
X106680000Y-50800000D03*
X109220000Y-48260000D03*
X106680000Y-48260000D03*
X109220000Y-45720000D03*
X106680000Y-45720000D03*
X109220000Y-43180000D03*
X106680000Y-43180000D03*
%TD*%
D21*
%TO.C,J2*%
X61600000Y-52800000D03*
D22*
X64100000Y-52800000D03*
X66100000Y-52800000D03*
X68600000Y-52800000D03*
D23*
X58530000Y-50090000D03*
X71670000Y-50090000D03*
%TD*%
M02*
