%TF.GenerationSoftware,KiCad,Pcbnew,7.0.1*%
%TF.CreationDate,2023-07-31T18:04:37-07:00*%
%TF.ProjectId,expansionboardA,65787061-6e73-4696-9f6e-626f61726441,3*%
%TF.SameCoordinates,Original*%
%TF.FileFunction,Soldermask,Bot*%
%TF.FilePolarity,Negative*%
%FSLAX46Y46*%
G04 Gerber Fmt 4.6, Leading zero omitted, Abs format (unit mm)*
G04 Created by KiCad (PCBNEW 7.0.1) date 2023-07-31 18:04:37*
%MOMM*%
%LPD*%
G01*
G04 APERTURE LIST*
G04 Aperture macros list*
%AMRoundRect*
0 Rectangle with rounded corners*
0 $1 Rounding radius*
0 $2 $3 $4 $5 $6 $7 $8 $9 X,Y pos of 4 corners*
0 Add a 4 corners polygon primitive as box body*
4,1,4,$2,$3,$4,$5,$6,$7,$8,$9,$2,$3,0*
0 Add four circle primitives for the rounded corners*
1,1,$1+$1,$2,$3*
1,1,$1+$1,$4,$5*
1,1,$1+$1,$6,$7*
1,1,$1+$1,$8,$9*
0 Add four rect primitives between the rounded corners*
20,1,$1+$1,$2,$3,$4,$5,0*
20,1,$1+$1,$4,$5,$6,$7,0*
20,1,$1+$1,$6,$7,$8,$9,0*
20,1,$1+$1,$8,$9,$2,$3,0*%
G04 Aperture macros list end*
%ADD10C,1.700000*%
%ADD11C,1.000000*%
%ADD12C,2.200000*%
%ADD13R,1.700000X1.700000*%
%ADD14O,1.700000X1.700000*%
%ADD15RoundRect,0.237500X0.344715X-0.008839X-0.008839X0.344715X-0.344715X0.008839X0.008839X-0.344715X0*%
%ADD16RoundRect,0.237500X0.250000X0.237500X-0.250000X0.237500X-0.250000X-0.237500X0.250000X-0.237500X0*%
%ADD17R,0.950000X2.150000*%
%ADD18R,3.250000X2.150000*%
%ADD19RoundRect,0.250000X0.550000X-1.050000X0.550000X1.050000X-0.550000X1.050000X-0.550000X-1.050000X0*%
%ADD20RoundRect,0.237500X-0.300000X-0.237500X0.300000X-0.237500X0.300000X0.237500X-0.300000X0.237500X0*%
%ADD21RoundRect,0.250000X1.050000X0.550000X-1.050000X0.550000X-1.050000X-0.550000X1.050000X-0.550000X0*%
%ADD22R,1.308100X0.304800*%
%ADD23C,0.650000*%
%ADD24O,1.700000X0.900000*%
%ADD25O,2.400000X0.900000*%
%ADD26R,0.800000X0.800000*%
%ADD27C,0.800000*%
%ADD28O,2.800000X1.700000*%
%ADD29R,1.200000X0.700000*%
%ADD30R,1.200000X1.000000*%
%ADD31R,2.800000X1.000000*%
%ADD32R,1.900000X1.300000*%
%ADD33R,0.800000X1.000000*%
%ADD34RoundRect,0.250000X0.475000X-0.337500X0.475000X0.337500X-0.475000X0.337500X-0.475000X-0.337500X0*%
%ADD35R,1.600000X1.500000*%
%ADD36C,1.600000*%
%ADD37C,3.000000*%
%ADD38R,3.000000X2.000000*%
%ADD39C,1.498000*%
%ADD40C,1.950000*%
G04 APERTURE END LIST*
D10*
%TO.C,AU1*%
X129297000Y-98916000D03*
X122297000Y-98916000D03*
%TD*%
D11*
%TO.C,12MHz*%
X85608971Y-102212210D03*
X83812920Y-100416159D03*
%TD*%
D12*
%TO.C,REF\u002A\u002A*%
X82550000Y-77470000D03*
%TD*%
D13*
%TO.C,ADC1*%
X35052000Y-93566000D03*
D14*
X32512000Y-93566000D03*
X35052000Y-96106000D03*
X32512000Y-96106000D03*
X35052000Y-98646000D03*
X32512000Y-98646000D03*
X35052000Y-101186000D03*
X32512000Y-101186000D03*
X35052000Y-103726000D03*
X32512000Y-103726000D03*
%TD*%
D13*
%TO.C,J4*%
X116845000Y-43180000D03*
D14*
X114305000Y-43180000D03*
%TD*%
D11*
%TO.C,12MHz*%
X67976800Y-60278800D03*
X67976800Y-57738800D03*
%TD*%
D15*
%TO.C,R19*%
X78218735Y-117485235D03*
X76928265Y-116194765D03*
%TD*%
D16*
%TO.C,R1*%
X53744500Y-94742000D03*
X51919500Y-94742000D03*
%TD*%
D17*
%TO.C,VR1*%
X57009000Y-96951800D03*
X59309000Y-96951800D03*
X61609000Y-96951800D03*
D18*
X59309000Y-102751800D03*
%TD*%
D19*
%TO.C,C5*%
X121285000Y-108375000D03*
X121285000Y-104775000D03*
%TD*%
D20*
%TO.C,C12*%
X63272500Y-77470000D03*
X64997500Y-77470000D03*
%TD*%
D21*
%TO.C,C20*%
X49276000Y-38481000D03*
X45676000Y-38481000D03*
%TD*%
D22*
%TO.C,U6*%
X57683400Y-82702400D03*
X57683400Y-82194400D03*
X57683400Y-81686400D03*
X57683400Y-81178400D03*
X57683400Y-80670400D03*
X61988700Y-80670400D03*
X61988700Y-81178400D03*
X61988700Y-81686400D03*
X61988700Y-82194400D03*
X61988700Y-82702400D03*
%TD*%
D13*
%TO.C,U2*%
X48220000Y-121920000D03*
D14*
X45680000Y-121920000D03*
X48220000Y-119380000D03*
X45680000Y-119380000D03*
X48220000Y-116840000D03*
X45680000Y-116840000D03*
X48220000Y-114300000D03*
X45680000Y-114300000D03*
X48220000Y-111760000D03*
X45680000Y-111760000D03*
X48220000Y-109220000D03*
X45680000Y-109220000D03*
X48220000Y-106680000D03*
X45680000Y-106680000D03*
X48220000Y-104140000D03*
X45680000Y-104140000D03*
X48220000Y-101600000D03*
X45680000Y-101600000D03*
X48220000Y-99060000D03*
X45680000Y-99060000D03*
X48220000Y-96520000D03*
X45680000Y-96520000D03*
X48220000Y-93980000D03*
X45680000Y-93980000D03*
X48220000Y-91440000D03*
X45680000Y-91440000D03*
X48220000Y-88900000D03*
X45680000Y-88900000D03*
X48220000Y-86360000D03*
X45680000Y-86360000D03*
X48220000Y-83820000D03*
X45680000Y-83820000D03*
X48220000Y-81280000D03*
X45680000Y-81280000D03*
X48220000Y-78740000D03*
X45680000Y-78740000D03*
X48220000Y-76200000D03*
X45680000Y-76200000D03*
X48220000Y-73660000D03*
X45680000Y-73660000D03*
X48220000Y-71120000D03*
X45680000Y-71120000D03*
X48220000Y-68580000D03*
X45680000Y-68580000D03*
X48220000Y-66040000D03*
X45680000Y-66040000D03*
X48220000Y-63500000D03*
X45680000Y-63500000D03*
X48220000Y-60960000D03*
X45680000Y-60960000D03*
X48220000Y-58420000D03*
X45680000Y-58420000D03*
X48220000Y-55880000D03*
X45680000Y-55880000D03*
X48220000Y-53340000D03*
X45680000Y-53340000D03*
X48220000Y-50800000D03*
X45680000Y-50800000D03*
X48220000Y-48260000D03*
X45680000Y-48260000D03*
X48220000Y-45720000D03*
X45680000Y-45720000D03*
X48220000Y-43180000D03*
X45680000Y-43180000D03*
%TD*%
D13*
%TO.C,U4*%
X109220000Y-121920000D03*
D14*
X106680000Y-121920000D03*
X109220000Y-119380000D03*
X106680000Y-119380000D03*
X109220000Y-116840000D03*
X106680000Y-116840000D03*
X109220000Y-111760000D03*
X106680000Y-111760000D03*
X109220000Y-109220000D03*
X106680000Y-109220000D03*
X109220000Y-106680000D03*
X106680000Y-106680000D03*
X109220000Y-104140000D03*
X106680000Y-104140000D03*
X109220000Y-101600000D03*
X106680000Y-101600000D03*
X109220000Y-99060000D03*
X106680000Y-99060000D03*
X109220000Y-96520000D03*
X106680000Y-96520000D03*
X109220000Y-93980000D03*
X106680000Y-93980000D03*
X109220000Y-91440000D03*
X106680000Y-91440000D03*
X109220000Y-88900000D03*
X106680000Y-88900000D03*
X109220000Y-86360000D03*
X106680000Y-86360000D03*
X109220000Y-83820000D03*
X106680000Y-83820000D03*
X109220000Y-81280000D03*
X106680000Y-81280000D03*
X109220000Y-78740000D03*
X106680000Y-78740000D03*
X109220000Y-76200000D03*
X106680000Y-76200000D03*
X109220000Y-73660000D03*
X106680000Y-73660000D03*
X109220000Y-71120000D03*
X106680000Y-71120000D03*
X109220000Y-68580000D03*
X106680000Y-68580000D03*
X109220000Y-66040000D03*
X106680000Y-66040000D03*
X109220000Y-63500000D03*
X106680000Y-63500000D03*
X109220000Y-60960000D03*
X106680000Y-60960000D03*
X109220000Y-58420000D03*
X106680000Y-58420000D03*
X109220000Y-55880000D03*
X106680000Y-55880000D03*
X109220000Y-53340000D03*
X106680000Y-53340000D03*
X109220000Y-50800000D03*
X106680000Y-50800000D03*
X109220000Y-48260000D03*
X106680000Y-48260000D03*
X109220000Y-45720000D03*
X106680000Y-45720000D03*
X109220000Y-43180000D03*
X106680000Y-43180000D03*
%TD*%
D23*
%TO.C,P1*%
X126958000Y-111332000D03*
X126958000Y-112182000D03*
X126958000Y-113032000D03*
X126958000Y-113882000D03*
X126958000Y-114732000D03*
X126958000Y-115582000D03*
X126958000Y-116432000D03*
X126958000Y-117282000D03*
X128308000Y-117282000D03*
X128308000Y-116432000D03*
X128308000Y-115582000D03*
X128308000Y-114732000D03*
X128308000Y-113882000D03*
X128308000Y-113032000D03*
X128308000Y-112182000D03*
X128308000Y-111332000D03*
D24*
X131318000Y-109982000D03*
X131318000Y-118632000D03*
D25*
X127938000Y-109982000D03*
X127938000Y-118632000D03*
%TD*%
D26*
%TO.C,J3*%
X124922000Y-65832600D03*
D27*
X123372000Y-66332600D03*
X124922000Y-66832600D03*
X123372000Y-67332600D03*
X124922000Y-67832600D03*
X123372000Y-68332600D03*
X124922000Y-68832600D03*
X123372000Y-69332600D03*
X124922000Y-69832600D03*
X123372000Y-70332600D03*
X124922000Y-70832600D03*
X123372000Y-71332600D03*
X124922000Y-71832600D03*
X123372000Y-72332600D03*
X124922000Y-72832600D03*
X123372000Y-73332600D03*
X124922000Y-73832600D03*
X123372000Y-74332600D03*
X124922000Y-74832600D03*
D28*
X123202000Y-79482600D03*
X123202000Y-61182600D03*
X130302000Y-61182600D03*
X130302000Y-79482600D03*
%TD*%
D29*
%TO.C,CRD1*%
X38671200Y-53492000D03*
X38671200Y-54592000D03*
X38671200Y-55692000D03*
X38671200Y-56792000D03*
X38671200Y-57892000D03*
X38671200Y-58992000D03*
X38671200Y-60092000D03*
X38671200Y-61192000D03*
D30*
X34371200Y-63092000D03*
D31*
X24021200Y-63092000D03*
D32*
X23571200Y-49592000D03*
D30*
X38671200Y-51942000D03*
D33*
X28171200Y-63092000D03*
D29*
X38671200Y-62142000D03*
%TD*%
D34*
%TO.C,C6*%
X59182000Y-92731500D03*
X59182000Y-90656500D03*
%TD*%
D20*
%TO.C,C11*%
X55906500Y-74676000D03*
X57631500Y-74676000D03*
%TD*%
D35*
%TO.C,J2*%
X58619800Y-40285000D03*
D36*
X61119800Y-40285000D03*
X63119800Y-40285000D03*
X65619800Y-40285000D03*
D37*
X55549800Y-37575000D03*
X68689800Y-37575000D03*
%TD*%
D20*
%TO.C,C10*%
X55855700Y-78079600D03*
X57580700Y-78079600D03*
%TD*%
D38*
%TO.C,LSRIGHT1*%
X130498000Y-92555000D03*
X130498000Y-82705000D03*
%TD*%
D34*
%TO.C,C7*%
X62230000Y-92731500D03*
X62230000Y-90656500D03*
%TD*%
D39*
%TO.C,RESETN1*%
X127127000Y-42291000D03*
X127127000Y-46791000D03*
D40*
X124637000Y-41036000D03*
X124637000Y-48046000D03*
%TD*%
M02*
