M48
; DRILL file {KiCad 8.0.7} date 2024-12-29T04:31:52-0800
; FORMAT={-:-/ absolute / inch / decimal}
; #@! TF.CreationDate,2024-12-29T04:31:52-08:00
; #@! TF.GenerationSoftware,Kicad,Pcbnew,8.0.7
; #@! TF.FileFunction,Plated,1,2,PTH
FMAT,2
INCH
; #@! TA.AperFunction,Plated,PTH,ComponentDrill
T1C0.0079
; #@! TA.AperFunction,Plated,PTH,ViaDrill
T2C0.0118
; #@! TA.AperFunction,Plated,PTH,ViaDrill
T3C0.0157
; #@! TA.AperFunction,Plated,PTH,ComponentDrill
T4C0.0157
; #@! TA.AperFunction,Plated,PTH,ComponentDrill
T5C0.0217
; #@! TA.AperFunction,Plated,PTH,ComponentDrill
T6C0.0236
; #@! TA.AperFunction,Plated,PTH,ComponentDrill
T7C0.0315
; #@! TA.AperFunction,Plated,PTH,ComponentDrill
T8C0.0394
; #@! TA.AperFunction,Plated,PTH,ComponentDrill
T9C0.0866
%
G90
G05
T1
X2.4469Y-1.9339
X2.4469Y-1.989
X2.4744Y-1.9063
X2.4744Y-1.9614
X2.4744Y-2.0165
X2.502Y-1.9339
X2.502Y-1.989
X2.5295Y-1.9063
X2.5295Y-1.9614
X2.5295Y-2.0165
X2.5571Y-1.9339
X2.5571Y-1.989
T2
X5.1402Y-2.7923
X5.1535Y-2.7667
T3
X0.9291Y-3.5
X0.9744Y-3.1004
X1.1Y-2.2
X1.38Y-2.35
X1.4Y-2.01
X1.4961Y-2.6378
X1.6634Y-2.3228
X1.9961Y-2.3504
X2.003Y-1.778
X2.017Y-1.982
X2.1654Y-2.2913
X2.1703Y-2.1407
X2.1708Y-2.0999
X2.1713Y-2.0571
X2.2126Y-2.5906
X2.4567Y-1.6496
X2.4724Y-2.2717
X2.638Y-1.739
X2.6811Y-2.1417
X2.7244Y-1.7362
X2.9882Y-1.7992
X3.0039Y-2.2047
X3.3537Y-3.0596
X4.0453Y-3.1102
X4.4262Y-2.3888
X4.4321Y-2.7598
X4.4646Y-2.9843
X4.5138Y-2.3573
X4.5335Y-2.565
X4.6378Y-2.5118
X4.6929Y-2.6496
X4.7677Y-2.7382
X4.7736Y-4.0157
X4.811Y-2.4567
X4.8622Y-2.8701
X4.8799Y-3.2539
X4.8819Y-3.5827
X4.9449Y-2.7047
X4.9685Y-2.7953
X5.0522Y-2.562
X5.1083Y-3.2382
X5.3248Y-3.7992
X5.3642Y-2.5492
X5.3839Y-2.7874
X5.4321Y-2.9065
X5.7874Y-3.7795
T4
X1.0571Y-3.3878
X1.0571Y-3.4213
X1.0571Y-3.4547
X1.0571Y-3.4882
X1.0571Y-3.5217
X1.0571Y-3.5551
X1.0571Y-3.5886
X1.0571Y-3.622
X1.1102Y-3.3878
X1.1102Y-3.4213
X1.1102Y-3.4547
X1.1102Y-3.4882
X1.1102Y-3.5217
X1.1102Y-3.5551
X1.1102Y-3.5886
X1.1102Y-3.622
T5
X5.6445Y-2.6118
X5.6445Y-2.6512
X5.6445Y-2.6906
X5.6445Y-2.7299
X5.6445Y-2.7693
X5.6445Y-2.8087
X5.6445Y-2.848
X5.6445Y-2.8874
X5.6445Y-2.9268
X5.7055Y-2.5921
X5.7055Y-2.6315
X5.7055Y-2.6709
X5.7055Y-2.7102
X5.7055Y-2.7496
X5.7055Y-2.789
X5.7055Y-2.8283
X5.7055Y-2.8677
X5.7055Y-2.9071
X5.7055Y-2.9465
T8
X1.7984Y-1.7
X1.7984Y-1.8
X1.7984Y-1.9
X1.7984Y-2.0
X1.7984Y-2.1
X1.7984Y-2.2
X1.7984Y-2.3
X1.7984Y-2.4
X1.7984Y-2.5
X1.7984Y-2.6
X1.7984Y-2.7
X1.7984Y-2.8
X1.7984Y-2.9
X1.7984Y-3.0
X1.7984Y-3.1
X1.7984Y-3.2
X1.7984Y-3.3
X1.7984Y-3.4
X1.7984Y-3.6
X1.7984Y-3.7
X1.7984Y-3.8
X1.7984Y-3.9
X1.7984Y-4.0
X1.7984Y-4.1
X1.7984Y-4.2
X1.7984Y-4.3
X1.7984Y-4.4
X1.7984Y-4.5
X1.7984Y-4.6
X1.7984Y-4.7
X1.7984Y-4.8
X1.8984Y-1.7
X1.8984Y-1.8
X1.8984Y-1.9
X1.8984Y-2.0
X1.8984Y-2.1
X1.8984Y-2.2
X1.8984Y-2.3
X1.8984Y-2.4
X1.8984Y-2.5
X1.8984Y-2.6
X1.8984Y-2.7
X1.8984Y-2.8
X1.8984Y-2.9
X1.8984Y-3.0
X1.8984Y-3.1
X1.8984Y-3.2
X1.8984Y-3.3
X1.8984Y-3.4
X1.8984Y-3.6
X1.8984Y-3.7
X1.8984Y-3.8
X1.8984Y-3.9
X1.8984Y-4.0
X1.8984Y-4.1
X1.8984Y-4.2
X1.8984Y-4.3
X1.8984Y-4.4
X1.8984Y-4.5
X1.8984Y-4.6
X1.8984Y-4.7
X1.8984Y-4.8
X4.2Y-1.7
X4.2Y-1.8
X4.2Y-1.9
X4.2Y-2.0
X4.2Y-2.1
X4.2Y-2.2
X4.2Y-2.3
X4.2Y-2.4
X4.2Y-2.5
X4.2Y-2.6
X4.2Y-2.7
X4.2Y-2.8
X4.2Y-2.9
X4.2Y-3.0
X4.2Y-3.1
X4.2Y-3.2
X4.2Y-3.3
X4.2Y-3.4
X4.2Y-3.5
X4.2Y-3.6
X4.2Y-3.7
X4.2Y-3.8
X4.2Y-3.9
X4.2Y-4.0
X4.2Y-4.1
X4.2Y-4.2
X4.2Y-4.3
X4.2Y-4.4
X4.2Y-4.5
X4.2Y-4.6
X4.2Y-4.7
X4.2Y-4.8
X4.3Y-1.7
X4.3Y-1.8
X4.3Y-1.9
X4.3Y-2.0
X4.3Y-2.1
X4.3Y-2.2
X4.3Y-2.3
X4.3Y-2.4
X4.3Y-2.5
X4.3Y-2.6
X4.3Y-2.7
X4.3Y-2.8
X4.3Y-2.9
X4.3Y-3.0
X4.3Y-3.1
X4.3Y-3.2
X4.3Y-3.3
X4.3Y-3.4
X4.3Y-3.5
X4.3Y-3.6
X4.3Y-3.7
X4.3Y-3.8
X4.3Y-3.9
X4.3Y-4.0
X4.3Y-4.1
X4.3Y-4.2
X4.3Y-4.3
X4.3Y-4.4
X4.3Y-4.5
X4.3Y-4.6
X4.3Y-4.7
X4.3Y-4.8
T9
X1.0531Y-1.752
X1.0531Y-4.7441
X5.8563Y-1.752
X5.8563Y-4.7441
T6
G00X0.9543Y-3.3346
M15
G01X0.9228Y-3.3346
M16
G05
G00X0.9543Y-3.6752
M15
G01X0.9228Y-3.6752
M16
G05
G00X1.1012Y-3.3346
M15
G01X1.0421Y-3.3346
M16
G05
G00X1.1012Y-3.6752
M15
G01X1.0421Y-3.6752
M16
G05
T7
G00X5.6122Y-2.4091
M15
G01X5.6634Y-2.4091
M16
G05
G00X5.6122Y-3.1295
M15
G01X5.6634Y-3.1295
M16
G05
G00X5.8917Y-2.4091
M15
G01X5.9429Y-2.4091
M16
G05
G00X5.8917Y-3.1295
M15
G01X5.9429Y-3.1295
M16
G05
M30
