M48
; DRILL file {KiCad 7.0.1} date Sun Aug 20 17:01:30 2023
; FORMAT={-:-/ absolute / inch / decimal}
; #@! TF.CreationDate,2023-08-20T17:01:30-07:00
; #@! TF.GenerationSoftware,Kicad,Pcbnew,7.0.1
; #@! TF.FileFunction,Plated,1,2,PTH
FMAT,2
INCH
; #@! TA.AperFunction,Plated,PTH,ViaDrill
T1C0.0157
; #@! TA.AperFunction,Plated,PTH,ComponentDrill
T2C0.0157
; #@! TA.AperFunction,Plated,PTH,ComponentDrill
T3C0.0197
; #@! TA.AperFunction,Plated,PTH,ComponentDrill
T4C0.0217
; #@! TA.AperFunction,Plated,PTH,ComponentDrill
T5C0.0236
; #@! TA.AperFunction,Plated,PTH,ComponentDrill
T6C0.0315
; #@! TA.AperFunction,Plated,PTH,ComponentDrill
T7C0.0374
; #@! TA.AperFunction,Plated,PTH,ComponentDrill
T8C0.0390
; #@! TA.AperFunction,Plated,PTH,ComponentDrill
T9C0.0394
; #@! TA.AperFunction,Plated,PTH,ComponentDrill
T10C0.0512
; #@! TA.AperFunction,Plated,PTH,ComponentDrill
T11C0.0906
%
G90
G05
T1
X1.1Y-2.2
X1.38Y-2.35
X1.4Y-2.01
X1.45Y-2.24
X1.527Y-2.535
X1.645Y-2.54
X1.701Y-3.952
X2.014Y-4.799
X2.065Y-1.835
X2.162Y-3.606
X2.188Y-3.114
X2.296Y-4.072
X2.326Y-2.828
X2.408Y-3.17
X2.49Y-3.054
X2.552Y-4.09
X2.552Y-4.349
X2.691Y-4.698
X2.71Y-4.074
X2.772Y-4.516
X2.843Y-4.31
X2.87Y-3.606
X2.876Y-2.632
X2.971Y-4.413
X3.018Y-2.749
X3.098Y-3.664
X3.161Y-1.927
X3.2661Y-2.861
X3.31Y-2.571
X3.342Y-3.582
X3.39Y-1.81
X3.53Y-3.608
X3.805Y-4.665
X3.837Y-2.758
X4.042Y-3.3
X4.071Y-4.791
X4.386Y-3.152
X4.394Y-3.052
X4.52Y-3.365
X4.538Y-4.378
X4.575Y-3.025
X4.689Y-2.417
X4.795Y-3.385
X4.8146Y-3.0256
X4.85Y-3.6
X4.886Y-3.41
X4.915Y-3.835
X4.915Y-4.27
X5.098Y-1.721
X5.17Y-4.5003
T2
X4.9973Y-4.3826
X4.9973Y-4.4161
X4.9973Y-4.4495
X4.9973Y-4.483
X4.9973Y-4.5165
X4.9973Y-4.5499
X4.9973Y-4.5834
X4.9973Y-4.6169
X5.0505Y-4.3826
X5.0505Y-4.4161
X5.0505Y-4.4495
X5.0505Y-4.483
X5.0505Y-4.5165
X5.0505Y-4.5499
X5.0505Y-4.5834
X5.0505Y-4.6169
T3
X2.9114Y-4.3721
X2.9114Y-4.4721
X2.9357Y-2.5818
X2.9357Y-2.6818
T4
X4.8572Y-2.6115
X4.8572Y-2.6509
X4.8572Y-2.6903
X4.8572Y-2.7296
X4.8572Y-2.769
X4.8572Y-2.8084
X4.8572Y-2.8477
X4.8572Y-2.8871
X4.8572Y-2.9265
X4.9182Y-2.5918
X4.9182Y-2.6312
X4.9182Y-2.6706
X4.9182Y-2.7099
X4.9182Y-2.7493
X4.9182Y-2.7887
X4.9182Y-2.8281
X4.9182Y-2.8674
X4.9182Y-2.9068
X4.9182Y-2.9462
T7
X3.0992Y-2.076
X3.1976Y-2.076
X3.2764Y-2.076
X3.3748Y-2.076
T8
X5.053Y-1.8911
X5.053Y-2.0683
T9
X1.7984Y-1.7
X1.7984Y-1.8
X1.7984Y-1.9
X1.7984Y-2.0
X1.7984Y-2.1
X1.7984Y-2.2
X1.7984Y-2.3
X1.7984Y-2.4
X1.7984Y-2.5
X1.7984Y-2.6
X1.7984Y-2.7
X1.7984Y-2.8
X1.7984Y-2.9
X1.7984Y-3.0
X1.7984Y-3.1
X1.7984Y-3.2
X1.7984Y-3.3
X1.7984Y-3.4
X1.7984Y-3.5
X1.7984Y-3.6
X1.7984Y-3.7
X1.7984Y-3.8
X1.7984Y-3.9
X1.7984Y-4.0
X1.7984Y-4.1
X1.7984Y-4.2
X1.7984Y-4.3
X1.7984Y-4.4
X1.7984Y-4.5
X1.7984Y-4.6
X1.7984Y-4.7
X1.7984Y-4.8
X1.8984Y-1.7
X1.8984Y-1.8
X1.8984Y-1.9
X1.8984Y-2.0
X1.8984Y-2.1
X1.8984Y-2.2
X1.8984Y-2.3
X1.8984Y-2.4
X1.8984Y-2.5
X1.8984Y-2.6
X1.8984Y-2.7
X1.8984Y-2.8
X1.8984Y-2.9
X1.8984Y-3.0
X1.8984Y-3.1
X1.8984Y-3.2
X1.8984Y-3.3
X1.8984Y-3.4
X1.8984Y-3.5
X1.8984Y-3.6
X1.8984Y-3.7
X1.8984Y-3.8
X1.8984Y-3.9
X1.8984Y-4.0
X1.8984Y-4.1
X1.8984Y-4.2
X1.8984Y-4.3
X1.8984Y-4.4
X1.8984Y-4.5
X1.8984Y-4.6
X1.8984Y-4.7
X1.8984Y-4.8
X4.2Y-1.7
X4.2Y-1.8
X4.2Y-1.9
X4.2Y-2.0
X4.2Y-2.1
X4.2Y-2.2
X4.2Y-2.3
X4.2Y-2.4
X4.2Y-2.5
X4.2Y-2.6
X4.2Y-2.7
X4.2Y-2.8
X4.2Y-2.9
X4.2Y-3.0
X4.2Y-3.1
X4.2Y-3.2
X4.2Y-3.3
X4.2Y-3.4
X4.2Y-3.5
X4.2Y-3.6
X4.2Y-3.7
X4.2Y-3.8
X4.2Y-3.9
X4.2Y-4.0
X4.2Y-4.1
X4.2Y-4.2
X4.2Y-4.3
X4.2Y-4.4
X4.2Y-4.6
X4.2Y-4.7
X4.2Y-4.8
X4.3Y-1.7
X4.3Y-1.8
X4.3Y-1.9
X4.3Y-2.0
X4.3Y-2.1
X4.3Y-2.2
X4.3Y-2.3
X4.3Y-2.4
X4.3Y-2.5
X4.3Y-2.6
X4.3Y-2.7
X4.3Y-2.8
X4.3Y-2.9
X4.3Y-3.0
X4.3Y-3.1
X4.3Y-3.2
X4.3Y-3.3
X4.3Y-3.4
X4.3Y-3.5
X4.3Y-3.6
X4.3Y-3.7
X4.3Y-3.8
X4.3Y-3.9
X4.3Y-4.0
X4.3Y-4.1
X4.3Y-4.2
X4.3Y-4.3
X4.3Y-4.4
X4.3Y-4.6
X4.3Y-4.7
X4.3Y-4.8
X4.5742Y-1.74
X4.6742Y-1.74
T10
X4.955Y-1.8417
X4.955Y-2.1177
T11
X2.9783Y-1.9693
X3.4957Y-1.9693
T5
G00X5.0655Y-4.3294
M15
G01X5.0064Y-4.3294
M16
G05
G00X5.0655Y-4.67
M15
G01X5.0064Y-4.67
M16
G05
G00X5.1847Y-4.3294
M15
G01X5.1533Y-4.3294
M16
G05
G00X5.1847Y-4.67
M15
G01X5.1533Y-4.67
M16
G05
T6
G00X4.8761Y-2.4088
M15
G01X4.8249Y-2.4088
M16
G05
G00X4.8761Y-3.1292
M15
G01X4.8249Y-3.1292
M16
G05
G00X5.1556Y-2.4088
M15
G01X5.1044Y-2.4088
M16
G05
G00X5.1556Y-3.1292
M15
G01X5.1044Y-3.1292
M16
G05
T0
M30
