%TF.GenerationSoftware,KiCad,Pcbnew,8.0.7*%
%TF.CreationDate,2024-12-18T16:52:59-08:00*%
%TF.ProjectId,expansionboardA,65787061-6e73-4696-9f6e-626f61726441,3*%
%TF.SameCoordinates,Original*%
%TF.FileFunction,Soldermask,Bot*%
%TF.FilePolarity,Negative*%
%FSLAX46Y46*%
G04 Gerber Fmt 4.6, Leading zero omitted, Abs format (unit mm)*
G04 Created by KiCad (PCBNEW 8.0.7) date 2024-12-18 16:52:59*
%MOMM*%
%LPD*%
G01*
G04 APERTURE LIST*
G04 Aperture macros list*
%AMRoundRect*
0 Rectangle with rounded corners*
0 $1 Rounding radius*
0 $2 $3 $4 $5 $6 $7 $8 $9 X,Y pos of 4 corners*
0 Add a 4 corners polygon primitive as box body*
4,1,4,$2,$3,$4,$5,$6,$7,$8,$9,$2,$3,0*
0 Add four circle primitives for the rounded corners*
1,1,$1+$1,$2,$3*
1,1,$1+$1,$4,$5*
1,1,$1+$1,$6,$7*
1,1,$1+$1,$8,$9*
0 Add four rect primitives between the rounded corners*
20,1,$1+$1,$2,$3,$4,$5,0*
20,1,$1+$1,$4,$5,$6,$7,0*
20,1,$1+$1,$6,$7,$8,$9,0*
20,1,$1+$1,$8,$9,$2,$3,0*%
G04 Aperture macros list end*
%ADD10C,4.400000*%
%ADD11C,0.650000*%
%ADD12O,1.700000X0.900000*%
%ADD13O,2.400000X0.900000*%
%ADD14R,0.800000X0.800000*%
%ADD15C,0.800000*%
%ADD16O,2.800000X1.700000*%
%ADD17RoundRect,0.237500X0.237500X-0.300000X0.237500X0.300000X-0.237500X0.300000X-0.237500X-0.300000X0*%
%ADD18RoundRect,0.237500X0.250000X0.237500X-0.250000X0.237500X-0.250000X-0.237500X0.250000X-0.237500X0*%
%ADD19RoundRect,0.237500X-0.237500X0.300000X-0.237500X-0.300000X0.237500X-0.300000X0.237500X0.300000X0*%
%ADD20RoundRect,0.237500X-0.250000X-0.237500X0.250000X-0.237500X0.250000X0.237500X-0.250000X0.237500X0*%
%ADD21C,1.700000*%
%ADD22R,2.200000X2.800000*%
%ADD23R,2.800000X2.800000*%
%ADD24R,0.950000X2.150000*%
%ADD25R,3.250000X2.150000*%
%ADD26RoundRect,0.019760X-0.227240X0.887240X-0.227240X-0.887240X0.227240X-0.887240X0.227240X0.887240X0*%
%ADD27RoundRect,0.019760X0.887240X0.227240X-0.887240X0.227240X-0.887240X-0.227240X0.887240X-0.227240X0*%
%ADD28RoundRect,0.237500X-0.300000X-0.237500X0.300000X-0.237500X0.300000X0.237500X-0.300000X0.237500X0*%
%ADD29R,1.308100X0.304800*%
%ADD30R,1.250000X1.000000*%
%ADD31R,1.700000X1.700000*%
%ADD32O,1.700000X1.700000*%
%ADD33RoundRect,0.237500X0.300000X0.237500X-0.300000X0.237500X-0.300000X-0.237500X0.300000X-0.237500X0*%
%ADD34R,1.500000X0.900000*%
%ADD35R,0.900000X1.500000*%
%ADD36C,0.600000*%
%ADD37R,3.900000X3.900000*%
%ADD38RoundRect,0.250001X-0.462499X-0.624999X0.462499X-0.624999X0.462499X0.624999X-0.462499X0.624999X0*%
%ADD39R,1.200000X0.700000*%
%ADD40R,1.200000X1.000000*%
%ADD41R,2.800000X1.000000*%
%ADD42R,1.900000X1.300000*%
%ADD43R,0.800000X1.000000*%
%ADD44RoundRect,0.250000X-0.475000X0.337500X-0.475000X-0.337500X0.475000X-0.337500X0.475000X0.337500X0*%
%ADD45RoundRect,0.237500X-0.237500X0.250000X-0.237500X-0.250000X0.237500X-0.250000X0.237500X0.250000X0*%
%ADD46RoundRect,0.237500X0.237500X-0.250000X0.237500X0.250000X-0.237500X0.250000X-0.237500X-0.250000X0*%
G04 APERTURE END LIST*
D10*
%TO.C,REF\u002A\u002A*%
X148750000Y-120500000D03*
%TD*%
%TO.C,REF\u002A\u002A*%
X26750000Y-120500000D03*
%TD*%
%TO.C,REF\u002A\u002A*%
X26750000Y-44500000D03*
%TD*%
D11*
%TO.C,J1*%
X28200000Y-86050000D03*
X28200000Y-86900000D03*
X28200000Y-87750000D03*
X28200000Y-88600000D03*
X28200000Y-89450000D03*
X28200000Y-90300000D03*
X28200000Y-91150000D03*
X28200000Y-92000000D03*
X26850000Y-92000000D03*
X26850000Y-91150000D03*
X26850000Y-90300000D03*
X26850000Y-89450000D03*
X26850000Y-88600000D03*
X26850000Y-87750000D03*
X26850000Y-86900000D03*
X26850000Y-86050000D03*
D12*
X23840000Y-84700000D03*
X23840000Y-93350000D03*
D13*
X27220000Y-84700000D03*
X27220000Y-93350000D03*
%TD*%
D10*
%TO.C,REF\u002A\u002A*%
X148750000Y-44500000D03*
%TD*%
D14*
%TO.C,J3*%
X144920000Y-74840000D03*
D15*
X143370000Y-74340000D03*
X144920000Y-73840000D03*
X143370000Y-73340000D03*
X144920000Y-72840000D03*
X143370000Y-72340000D03*
X144920000Y-71840000D03*
X143370000Y-71340000D03*
X144920000Y-70840000D03*
X143370000Y-70340000D03*
X144920000Y-69840000D03*
X143370000Y-69340000D03*
X144920000Y-68840000D03*
X143370000Y-68340000D03*
X144920000Y-67840000D03*
X143370000Y-67340000D03*
X144920000Y-66840000D03*
X143370000Y-66340000D03*
X144920000Y-65840000D03*
D16*
X143200000Y-61190000D03*
X143200000Y-79490000D03*
X150300000Y-79490000D03*
X150300000Y-61190000D03*
%TD*%
D17*
%TO.C,C14*%
X129347222Y-89875000D03*
X129347222Y-88150000D03*
%TD*%
D18*
%TO.C,R23*%
X115625000Y-61675000D03*
X113800000Y-61675000D03*
%TD*%
D19*
%TO.C,C13*%
X126238889Y-99225000D03*
X126238889Y-100950000D03*
%TD*%
D20*
%TO.C,R1*%
X97425000Y-78900000D03*
X99250000Y-78900000D03*
%TD*%
D21*
%TO.C,AU1*%
X149300000Y-94800000D03*
X142300000Y-94800000D03*
D22*
X150400000Y-98500000D03*
D23*
X141000000Y-98500000D03*
D22*
X148400000Y-91100000D03*
%TD*%
D24*
%TO.C,VR1*%
X95100000Y-72600000D03*
X92800000Y-72600000D03*
X90500000Y-72600000D03*
D25*
X92800000Y-66800000D03*
%TD*%
D26*
%TO.C,U3*%
X118900000Y-65100000D03*
X119400000Y-65100000D03*
X119900000Y-65100000D03*
X120400000Y-65100000D03*
X120900000Y-65100000D03*
X121400000Y-65100000D03*
X121900000Y-65100000D03*
X122400000Y-65100000D03*
X122900000Y-65100000D03*
X123400000Y-65100000D03*
X123900000Y-65100000D03*
X124400000Y-65100000D03*
X124900000Y-65100000D03*
X125400000Y-65100000D03*
X125900000Y-65100000D03*
X126400000Y-65100000D03*
D27*
X128250000Y-66950000D03*
X128250000Y-67450000D03*
X128250000Y-67950000D03*
X128250000Y-68450000D03*
X128250000Y-68950000D03*
X128250000Y-69450000D03*
X128250000Y-69950000D03*
X128250000Y-70450000D03*
X128250000Y-70950000D03*
X128250000Y-71450000D03*
X128250000Y-71950000D03*
X128250000Y-72450000D03*
X128250000Y-72950000D03*
X128250000Y-73450000D03*
X128250000Y-73950000D03*
X128250000Y-74450000D03*
D26*
X126400000Y-76300000D03*
X125900000Y-76300000D03*
X125400000Y-76300000D03*
X124900000Y-76300000D03*
X124400000Y-76300000D03*
X123900000Y-76300000D03*
X123400000Y-76300000D03*
X122900000Y-76300000D03*
X122400000Y-76300000D03*
X121900000Y-76300000D03*
X121400000Y-76300000D03*
X120900000Y-76300000D03*
X120400000Y-76300000D03*
X119900000Y-76300000D03*
X119400000Y-76300000D03*
X118900000Y-76300000D03*
D27*
X117050000Y-74450000D03*
X117050000Y-73950000D03*
X117050000Y-73450000D03*
X117050000Y-72950000D03*
X117050000Y-72450000D03*
X117050000Y-71950000D03*
X117050000Y-71450000D03*
X117050000Y-70950000D03*
X117050000Y-70450000D03*
X117050000Y-69950000D03*
X117050000Y-69450000D03*
X117050000Y-68950000D03*
X117050000Y-68450000D03*
X117050000Y-67950000D03*
X117050000Y-67450000D03*
X117050000Y-66950000D03*
%TD*%
D28*
%TO.C,C12*%
X130975000Y-93500000D03*
X132700000Y-93500000D03*
%TD*%
D17*
%TO.C,C9*%
X132572223Y-100950000D03*
X132572223Y-99225000D03*
%TD*%
D20*
%TO.C,R20*%
X131000000Y-59100000D03*
X132825000Y-59100000D03*
%TD*%
%TO.C,R19*%
X131000000Y-61075000D03*
X132825000Y-61075000D03*
%TD*%
D29*
%TO.C,U6*%
X124157200Y-95632000D03*
X124157200Y-95124000D03*
X124157200Y-94616000D03*
X124157200Y-94108000D03*
X124157200Y-93600000D03*
X128462500Y-93600000D03*
X128462500Y-94108000D03*
X128462500Y-94616000D03*
X128462500Y-95124000D03*
X128462500Y-95632000D03*
%TD*%
D30*
%TO.C,SW3*%
X90250000Y-47400000D03*
X82500000Y-47400000D03*
%TD*%
D31*
%TO.C,U2*%
X48220000Y-121920000D03*
D32*
X45680000Y-121920000D03*
X48220000Y-119380000D03*
X45680000Y-119380000D03*
X48220000Y-116840000D03*
X45680000Y-116840000D03*
X48220000Y-114300000D03*
X45680000Y-114300000D03*
X48220000Y-111760000D03*
X45680000Y-111760000D03*
X48220000Y-109220000D03*
X45680000Y-109220000D03*
X48220000Y-106680000D03*
X45680000Y-106680000D03*
X48220000Y-104140000D03*
X45680000Y-104140000D03*
X48220000Y-101600000D03*
X45680000Y-101600000D03*
X48220000Y-99060000D03*
X45680000Y-99060000D03*
X48220000Y-96520000D03*
X45680000Y-96520000D03*
X48220000Y-93980000D03*
X45680000Y-93980000D03*
X48220000Y-91440000D03*
X45680000Y-91440000D03*
X48220000Y-86360000D03*
X45680000Y-86360000D03*
X48220000Y-83820000D03*
X45680000Y-83820000D03*
X48220000Y-81280000D03*
X45680000Y-81280000D03*
X48220000Y-78740000D03*
X45680000Y-78740000D03*
X48220000Y-76200000D03*
X45680000Y-76200000D03*
X48220000Y-73660000D03*
X45680000Y-73660000D03*
X48220000Y-71120000D03*
X45680000Y-71120000D03*
X48220000Y-68580000D03*
X45680000Y-68580000D03*
X48220000Y-66040000D03*
X45680000Y-66040000D03*
X48220000Y-63500000D03*
X45680000Y-63500000D03*
X48220000Y-60960000D03*
X45680000Y-60960000D03*
X48220000Y-58420000D03*
X45680000Y-58420000D03*
X48220000Y-55880000D03*
X45680000Y-55880000D03*
X48220000Y-53340000D03*
X45680000Y-53340000D03*
X48220000Y-50800000D03*
X45680000Y-50800000D03*
X48220000Y-48260000D03*
X45680000Y-48260000D03*
X48220000Y-45720000D03*
X45680000Y-45720000D03*
X48220000Y-43180000D03*
X45680000Y-43180000D03*
%TD*%
D31*
%TO.C,U4*%
X109220000Y-121920000D03*
D32*
X106680000Y-121920000D03*
X109220000Y-119380000D03*
X106680000Y-119380000D03*
X109220000Y-116840000D03*
X106680000Y-116840000D03*
X109220000Y-114300000D03*
X106680000Y-114300000D03*
X109220000Y-111760000D03*
X106680000Y-111760000D03*
X109220000Y-109220000D03*
X106680000Y-109220000D03*
X109220000Y-106680000D03*
X106680000Y-106680000D03*
X109220000Y-104140000D03*
X106680000Y-104140000D03*
X109220000Y-101600000D03*
X106680000Y-101600000D03*
X109220000Y-99060000D03*
X106680000Y-99060000D03*
X109220000Y-96520000D03*
X106680000Y-96520000D03*
X109220000Y-93980000D03*
X106680000Y-93980000D03*
X109220000Y-91440000D03*
X106680000Y-91440000D03*
X109220000Y-88900000D03*
X106680000Y-88900000D03*
X109220000Y-86360000D03*
X106680000Y-86360000D03*
X109220000Y-83820000D03*
X106680000Y-83820000D03*
X109220000Y-81280000D03*
X106680000Y-81280000D03*
X109220000Y-78740000D03*
X106680000Y-78740000D03*
X109220000Y-76200000D03*
X106680000Y-76200000D03*
X109220000Y-73660000D03*
X106680000Y-73660000D03*
X109220000Y-71120000D03*
X106680000Y-71120000D03*
X109220000Y-68580000D03*
X106680000Y-68580000D03*
X109220000Y-66040000D03*
X106680000Y-66040000D03*
X109220000Y-63500000D03*
X106680000Y-63500000D03*
X109220000Y-60960000D03*
X106680000Y-60960000D03*
X109220000Y-58420000D03*
X106680000Y-58420000D03*
X109220000Y-55880000D03*
X106680000Y-55880000D03*
X109220000Y-53340000D03*
X106680000Y-53340000D03*
X109220000Y-50800000D03*
X106680000Y-50800000D03*
X109220000Y-48260000D03*
X106680000Y-48260000D03*
X109220000Y-45720000D03*
X106680000Y-45720000D03*
X109220000Y-43180000D03*
X106680000Y-43180000D03*
%TD*%
D33*
%TO.C,C4*%
X76300000Y-54200000D03*
X74575000Y-54200000D03*
%TD*%
D34*
%TO.C,U1*%
X70800000Y-42100000D03*
X70800000Y-43370000D03*
X70800000Y-44640000D03*
X70800000Y-45910000D03*
X70800000Y-47180000D03*
X70800000Y-48450000D03*
X70800000Y-49720000D03*
X70800000Y-50990000D03*
X70800000Y-52260000D03*
X70800000Y-53530000D03*
X70800000Y-54800000D03*
X70800000Y-56070000D03*
X70800000Y-57340000D03*
X70800000Y-58610000D03*
D35*
X69035000Y-59860000D03*
X67765000Y-59860000D03*
X66495000Y-59860000D03*
X65225000Y-59860000D03*
X63955000Y-59860000D03*
X62685000Y-59860000D03*
X61415000Y-59860000D03*
X60145000Y-59860000D03*
X58875000Y-59860000D03*
X57605000Y-59860000D03*
X56335000Y-59860000D03*
X55065000Y-59860000D03*
D34*
X53300000Y-58610000D03*
X53300000Y-57340000D03*
X53300000Y-56070000D03*
X53300000Y-54800000D03*
X53300000Y-53530000D03*
X53300000Y-52260000D03*
X53300000Y-50990000D03*
X53300000Y-49720000D03*
X53300000Y-48450000D03*
X53300000Y-47180000D03*
X53300000Y-45910000D03*
X53300000Y-44640000D03*
X53300000Y-43370000D03*
X53300000Y-42100000D03*
D36*
X64950000Y-50520000D03*
X64950000Y-49120000D03*
X64250000Y-51220000D03*
X64250000Y-49820000D03*
X64250000Y-48420000D03*
X63550000Y-50520000D03*
D37*
X63550000Y-49820000D03*
D36*
X63550000Y-49120000D03*
X62850000Y-51220000D03*
X62850000Y-49820000D03*
X62850000Y-48420000D03*
X62150000Y-50520000D03*
X62150000Y-49120000D03*
%TD*%
D18*
%TO.C,R6*%
X33750000Y-68630000D03*
X31925000Y-68630000D03*
%TD*%
D33*
%TO.C,C5*%
X76300000Y-57300000D03*
X74575000Y-57300000D03*
%TD*%
D38*
%TO.C,D4*%
X23387500Y-71170000D03*
X26362500Y-71170000D03*
%TD*%
D20*
%TO.C,R15*%
X131000000Y-57125000D03*
X132825000Y-57125000D03*
%TD*%
D39*
%TO.C,CRD1*%
X38671200Y-53492000D03*
X38671200Y-54592000D03*
X38671200Y-55692000D03*
X38671200Y-56792000D03*
X38671200Y-57892000D03*
X38671200Y-58992000D03*
X38671200Y-60092000D03*
X38671200Y-61192000D03*
D40*
X34371200Y-63092000D03*
D41*
X24021200Y-63092000D03*
D42*
X23571200Y-49592000D03*
D40*
X38671200Y-51942000D03*
D43*
X28171200Y-63092000D03*
D39*
X38671200Y-62142000D03*
%TD*%
D20*
%TO.C,R21*%
X125400000Y-80800000D03*
X127225000Y-80800000D03*
%TD*%
D44*
%TO.C,C6*%
X92927000Y-76820300D03*
X92927000Y-78895300D03*
%TD*%
D45*
%TO.C,R13*%
X131458333Y-88100000D03*
X131458333Y-89925000D03*
%TD*%
D18*
%TO.C,R4*%
X33750000Y-73710000D03*
X31925000Y-73710000D03*
%TD*%
D38*
%TO.C,D5*%
X23387500Y-68581834D03*
X26362500Y-68581834D03*
%TD*%
D18*
%TO.C,R3*%
X33750000Y-76250000D03*
X31925000Y-76250000D03*
%TD*%
D46*
%TO.C,R11*%
X124127778Y-101000000D03*
X124127778Y-99175000D03*
%TD*%
D18*
%TO.C,R2*%
X76400000Y-50900000D03*
X74575000Y-50900000D03*
%TD*%
%TO.C,R5*%
X33750000Y-71170000D03*
X31925000Y-71170000D03*
%TD*%
D33*
%TO.C,C11*%
X122275000Y-92062500D03*
X120550000Y-92062500D03*
%TD*%
D38*
%TO.C,D2*%
X23389428Y-76267312D03*
X26364428Y-76267312D03*
%TD*%
D18*
%TO.C,R18*%
X132825000Y-55150000D03*
X131000000Y-55150000D03*
%TD*%
D17*
%TO.C,C8*%
X135680555Y-89875000D03*
X135680555Y-88150000D03*
%TD*%
D46*
%TO.C,R7*%
X133569444Y-89925000D03*
X133569444Y-88100000D03*
%TD*%
D33*
%TO.C,C10*%
X122300000Y-89762500D03*
X120575000Y-89762500D03*
%TD*%
D30*
%TO.C,SW4*%
X90400000Y-53600000D03*
X82650000Y-53600000D03*
%TD*%
D44*
%TO.C,C7*%
X89879000Y-76820300D03*
X89879000Y-78895300D03*
%TD*%
D46*
%TO.C,R12*%
X128350000Y-101000000D03*
X128350000Y-99175000D03*
%TD*%
D38*
%TO.C,D3*%
X23387500Y-73710000D03*
X26362500Y-73710000D03*
%TD*%
D45*
%TO.C,R14*%
X127236110Y-88100000D03*
X127236110Y-89925000D03*
%TD*%
D18*
%TO.C,R24*%
X132825000Y-63150000D03*
X131000000Y-63150000D03*
%TD*%
D20*
%TO.C,R22*%
X131012500Y-53175000D03*
X132837500Y-53175000D03*
%TD*%
D45*
%TO.C,R8*%
X130461111Y-99175000D03*
X130461111Y-101000000D03*
%TD*%
M02*
