%TF.GenerationSoftware,KiCad,Pcbnew,7.0.8*%
%TF.CreationDate,2023-11-17T18:43:47-08:00*%
%TF.ProjectId,expansionboardA,65787061-6e73-4696-9f6e-626f61726441,3*%
%TF.SameCoordinates,Original*%
%TF.FileFunction,Paste,Bot*%
%TF.FilePolarity,Positive*%
%FSLAX46Y46*%
G04 Gerber Fmt 4.6, Leading zero omitted, Abs format (unit mm)*
G04 Created by KiCad (PCBNEW 7.0.8) date 2023-11-17 18:43:47*
%MOMM*%
%LPD*%
G01*
G04 APERTURE LIST*
G04 Aperture macros list*
%AMRoundRect*
0 Rectangle with rounded corners*
0 $1 Rounding radius*
0 $2 $3 $4 $5 $6 $7 $8 $9 X,Y pos of 4 corners*
0 Add a 4 corners polygon primitive as box body*
4,1,4,$2,$3,$4,$5,$6,$7,$8,$9,$2,$3,0*
0 Add four circle primitives for the rounded corners*
1,1,$1+$1,$2,$3*
1,1,$1+$1,$4,$5*
1,1,$1+$1,$6,$7*
1,1,$1+$1,$8,$9*
0 Add four rect primitives between the rounded corners*
20,1,$1+$1,$2,$3,$4,$5,0*
20,1,$1+$1,$4,$5,$6,$7,0*
20,1,$1+$1,$6,$7,$8,$9,0*
20,1,$1+$1,$8,$9,$2,$3,0*%
G04 Aperture macros list end*
%ADD10RoundRect,0.237500X0.250000X0.237500X-0.250000X0.237500X-0.250000X-0.237500X0.250000X-0.237500X0*%
%ADD11R,2.150000X0.950000*%
%ADD12R,2.150000X3.250000*%
%ADD13RoundRect,0.011600X-0.133400X0.793400X-0.133400X-0.793400X0.133400X-0.793400X0.133400X0.793400X0*%
%ADD14RoundRect,0.011600X0.793400X0.133400X-0.793400X0.133400X-0.793400X-0.133400X0.793400X-0.133400X0*%
%ADD15RoundRect,0.250000X0.550000X-1.050000X0.550000X1.050000X-0.550000X1.050000X-0.550000X-1.050000X0*%
%ADD16RoundRect,0.237500X-0.300000X-0.237500X0.300000X-0.237500X0.300000X0.237500X-0.300000X0.237500X0*%
%ADD17RoundRect,0.250000X-0.550000X1.050000X-0.550000X-1.050000X0.550000X-1.050000X0.550000X1.050000X0*%
%ADD18RoundRect,0.237500X-0.250000X-0.237500X0.250000X-0.237500X0.250000X0.237500X-0.250000X0.237500X0*%
%ADD19R,1.308100X0.304800*%
%ADD20RoundRect,0.237500X0.237500X-0.250000X0.237500X0.250000X-0.237500X0.250000X-0.237500X-0.250000X0*%
%ADD21RoundRect,0.250001X-0.624999X0.462499X-0.624999X-0.462499X0.624999X-0.462499X0.624999X0.462499X0*%
%ADD22R,1.200000X0.700000*%
%ADD23R,1.200000X1.000000*%
%ADD24R,2.800000X1.000000*%
%ADD25R,1.900000X1.300000*%
%ADD26R,0.800000X1.000000*%
%ADD27RoundRect,0.250000X-0.337500X-0.475000X0.337500X-0.475000X0.337500X0.475000X-0.337500X0.475000X0*%
%ADD28RoundRect,0.250001X0.462499X0.624999X-0.462499X0.624999X-0.462499X-0.624999X0.462499X-0.624999X0*%
%ADD29R,3.000000X2.000000*%
%ADD30RoundRect,0.237500X0.300000X0.237500X-0.300000X0.237500X-0.300000X-0.237500X0.300000X-0.237500X0*%
G04 APERTURE END LIST*
D10*
%TO.C,R23*%
X115625000Y-61675000D03*
X113800000Y-61675000D03*
%TD*%
%TO.C,R1*%
X64340064Y-92125800D03*
X62515064Y-92125800D03*
%TD*%
D11*
%TO.C,VR1*%
X57734200Y-96494600D03*
X57734200Y-98794600D03*
X57734200Y-101094600D03*
D12*
X51934200Y-98794600D03*
%TD*%
D13*
%TO.C,U3*%
X118900000Y-65100000D03*
X119400000Y-65100000D03*
X119900000Y-65100000D03*
X120400000Y-65100000D03*
X120900000Y-65100000D03*
X121400000Y-65100000D03*
X121900000Y-65100000D03*
X122400000Y-65100000D03*
X122900000Y-65100000D03*
X123400000Y-65100000D03*
X123900000Y-65100000D03*
X124400000Y-65100000D03*
X124900000Y-65100000D03*
X125400000Y-65100000D03*
X125900000Y-65100000D03*
X126400000Y-65100000D03*
D14*
X128250000Y-66950000D03*
X128250000Y-67450000D03*
X128250000Y-67950000D03*
X128250000Y-68450000D03*
X128250000Y-68950000D03*
X128250000Y-69450000D03*
X128250000Y-69950000D03*
X128250000Y-70450000D03*
X128250000Y-70950000D03*
X128250000Y-71450000D03*
X128250000Y-71950000D03*
X128250000Y-72450000D03*
X128250000Y-72950000D03*
X128250000Y-73450000D03*
X128250000Y-73950000D03*
X128250000Y-74450000D03*
D13*
X126400000Y-76300000D03*
X125900000Y-76300000D03*
X125400000Y-76300000D03*
X124900000Y-76300000D03*
X124400000Y-76300000D03*
X123900000Y-76300000D03*
X123400000Y-76300000D03*
X122900000Y-76300000D03*
X122400000Y-76300000D03*
X121900000Y-76300000D03*
X121400000Y-76300000D03*
X120900000Y-76300000D03*
X120400000Y-76300000D03*
X119900000Y-76300000D03*
X119400000Y-76300000D03*
X118900000Y-76300000D03*
D14*
X117050000Y-74450000D03*
X117050000Y-73950000D03*
X117050000Y-73450000D03*
X117050000Y-72950000D03*
X117050000Y-72450000D03*
X117050000Y-71950000D03*
X117050000Y-71450000D03*
X117050000Y-70950000D03*
X117050000Y-70450000D03*
X117050000Y-69950000D03*
X117050000Y-69450000D03*
X117050000Y-68950000D03*
X117050000Y-68450000D03*
X117050000Y-67950000D03*
X117050000Y-67450000D03*
X117050000Y-66950000D03*
%TD*%
D15*
%TO.C,C5*%
X141285000Y-108375000D03*
X141285000Y-104775000D03*
%TD*%
D16*
%TO.C,C12*%
X62130600Y-72288400D03*
X63855600Y-72288400D03*
%TD*%
D17*
%TO.C,C20*%
X70281800Y-43840400D03*
X70281800Y-47440400D03*
%TD*%
D18*
%TO.C,R20*%
X131000000Y-59100000D03*
X132825000Y-59100000D03*
%TD*%
%TO.C,R19*%
X131000000Y-61075000D03*
X132825000Y-61075000D03*
%TD*%
D19*
%TO.C,U6*%
X56541500Y-77520800D03*
X56541500Y-77012800D03*
X56541500Y-76504800D03*
X56541500Y-75996800D03*
X56541500Y-75488800D03*
X60846800Y-75488800D03*
X60846800Y-75996800D03*
X60846800Y-76504800D03*
X60846800Y-77012800D03*
X60846800Y-77520800D03*
%TD*%
D20*
%TO.C,R6*%
X64340834Y-55118000D03*
X64340834Y-53293000D03*
%TD*%
D21*
%TO.C,D4*%
X61800834Y-45793000D03*
X61800834Y-48768000D03*
%TD*%
D18*
%TO.C,R15*%
X131000000Y-57125000D03*
X132825000Y-57125000D03*
%TD*%
D22*
%TO.C,CRD1*%
X38671200Y-53492000D03*
X38671200Y-54592000D03*
X38671200Y-55692000D03*
X38671200Y-56792000D03*
X38671200Y-57892000D03*
X38671200Y-58992000D03*
X38671200Y-60092000D03*
X38671200Y-61192000D03*
D23*
X34371200Y-63092000D03*
D24*
X24021200Y-63092000D03*
D25*
X23571200Y-49592000D03*
D23*
X38671200Y-51942000D03*
D26*
X28171200Y-63092000D03*
D22*
X38671200Y-62142000D03*
%TD*%
D18*
%TO.C,R21*%
X131912500Y-83450000D03*
X133737500Y-83450000D03*
%TD*%
D27*
%TO.C,C6*%
X61954500Y-98667600D03*
X64029500Y-98667600D03*
%TD*%
D20*
%TO.C,R4*%
X59260834Y-55118000D03*
X59260834Y-53293000D03*
%TD*%
D21*
%TO.C,D5*%
X64389000Y-45793000D03*
X64389000Y-48768000D03*
%TD*%
D20*
%TO.C,R3*%
X56720834Y-55118000D03*
X56720834Y-53293000D03*
%TD*%
%TO.C,R5*%
X61800834Y-55118000D03*
X61800834Y-53293000D03*
%TD*%
D16*
%TO.C,C11*%
X54764600Y-69494400D03*
X56489600Y-69494400D03*
%TD*%
D21*
%TO.C,D2*%
X56720834Y-45793000D03*
X56720834Y-48768000D03*
%TD*%
D10*
%TO.C,R18*%
X132825000Y-55150000D03*
X131000000Y-55150000D03*
%TD*%
D16*
%TO.C,C10*%
X54713800Y-72898000D03*
X56438800Y-72898000D03*
%TD*%
D28*
%TO.C,D1*%
X65526564Y-88569800D03*
X62551564Y-88569800D03*
%TD*%
D29*
%TO.C,LSRIGHT1*%
X150498000Y-92555000D03*
X150498000Y-82705000D03*
%TD*%
D27*
%TO.C,C7*%
X61954500Y-101715600D03*
X64029500Y-101715600D03*
%TD*%
D21*
%TO.C,D3*%
X59260834Y-45793000D03*
X59260834Y-48768000D03*
%TD*%
D18*
%TO.C,R24*%
X133437500Y-66575000D03*
X135262500Y-66575000D03*
%TD*%
%TO.C,R22*%
X131012500Y-53175000D03*
X132837500Y-53175000D03*
%TD*%
D30*
%TO.C,C17*%
X63727500Y-95605600D03*
X62002500Y-95605600D03*
%TD*%
M02*
