M48
; DRILL file {KiCad 7.0.1} date Mon Nov  6 19:54:19 2023
; FORMAT={-:-/ absolute / inch / decimal}
; #@! TF.CreationDate,2023-11-06T19:54:19-08:00
; #@! TF.GenerationSoftware,Kicad,Pcbnew,7.0.1
; #@! TF.FileFunction,Plated,1,2,PTH
FMAT,2
INCH
; #@! TA.AperFunction,Plated,PTH,ViaDrill
T1C0.0157
; #@! TA.AperFunction,Plated,PTH,ComponentDrill
T2C0.0157
; #@! TA.AperFunction,Plated,PTH,ComponentDrill
T3C0.0197
; #@! TA.AperFunction,Plated,PTH,ComponentDrill
T4C0.0217
; #@! TA.AperFunction,Plated,PTH,ComponentDrill
T5C0.0236
; #@! TA.AperFunction,Plated,PTH,ComponentDrill
T6C0.0315
; #@! TA.AperFunction,Plated,PTH,ComponentDrill
T7C0.0374
; #@! TA.AperFunction,Plated,PTH,ComponentDrill
T8C0.0390
; #@! TA.AperFunction,Plated,PTH,ComponentDrill
T9C0.0394
; #@! TA.AperFunction,Plated,PTH,ComponentDrill
T10C0.0512
; #@! TA.AperFunction,Plated,PTH,ComponentDrill
T11C0.0906
%
G90
G05
T1
X1.1Y-2.2
X1.38Y-2.35
X1.4Y-2.01
X1.4272Y-2.587
X1.45Y-2.24
X1.645Y-2.54
X1.685Y-2.8622
X1.7232Y-3.9494
X2.014Y-4.799
X2.0551Y-2.7441
X2.065Y-1.835
X2.0827Y-3.1378
X2.1496Y-3.114
X2.162Y-3.606
X2.296Y-4.072
X2.408Y-3.17
X2.49Y-3.054
X2.552Y-4.09
X2.552Y-4.349
X2.6506Y-2.999
X2.691Y-4.698
X2.7244Y-3.6299
X2.772Y-4.516
X2.843Y-4.31
X2.876Y-2.632
X2.971Y-4.413
X3.018Y-2.749
X3.161Y-1.927
X3.2661Y-2.861
X3.2685Y-3.0744
X3.31Y-2.571
X3.39Y-1.81
X3.805Y-4.665
X4.0433Y-2.4449
X4.071Y-4.791
X4.1024Y-3.4409
X4.1112Y-3.248
X4.1142Y-3.3504
X4.3736Y-3.6528
X4.3866Y-2.5626
X4.538Y-4.378
X4.5394Y-3.3898
X4.6102Y-2.4291
X4.6681Y-3.126
X4.7689Y-2.7563
X4.795Y-3.385
X4.7992Y-2.9144
X4.811Y-3.6004
X4.877Y-3.6762
X4.915Y-3.835
X4.915Y-4.27
X4.937Y-3.6289
X5.0102Y-2.2654
X5.098Y-1.721
X5.17Y-4.5003
T2
X4.9973Y-4.3826
X4.9973Y-4.4161
X4.9973Y-4.4495
X4.9973Y-4.483
X4.9973Y-4.5165
X4.9973Y-4.5499
X4.9973Y-4.5834
X4.9973Y-4.6169
X5.0505Y-4.3826
X5.0505Y-4.4161
X5.0505Y-4.4495
X5.0505Y-4.483
X5.0505Y-4.5165
X5.0505Y-4.5499
X5.0505Y-4.5834
X5.0505Y-4.6169
T3
X2.9114Y-4.3721
X2.9114Y-4.4721
X2.9357Y-2.5818
X2.9357Y-2.6818
T4
X4.8571Y-2.6118
X4.8571Y-2.6512
X4.8571Y-2.6906
X4.8571Y-2.7299
X4.8571Y-2.7693
X4.8571Y-2.8087
X4.8571Y-2.848
X4.8571Y-2.8874
X4.8571Y-2.9268
X4.9181Y-2.5921
X4.9181Y-2.6315
X4.9181Y-2.6709
X4.9181Y-2.7102
X4.9181Y-2.7496
X4.9181Y-2.789
X4.9181Y-2.8283
X4.9181Y-2.8677
X4.9181Y-2.9071
X4.9181Y-2.9465
T7
X3.0992Y-2.076
X3.1976Y-2.076
X3.2764Y-2.076
X3.3748Y-2.076
T8
X4.9154Y-1.944
X5.0925Y-1.944
T9
X1.4575Y-2.7539
X1.4575Y-2.8539
X1.4575Y-2.9539
X1.4575Y-3.0539
X1.7984Y-1.7
X1.7984Y-1.8
X1.7984Y-1.9
X1.7984Y-2.0
X1.7984Y-2.1
X1.7984Y-2.2
X1.7984Y-2.3
X1.7984Y-2.4
X1.7984Y-2.5
X1.7984Y-2.6
X1.7984Y-2.7
X1.7984Y-2.8
X1.7984Y-2.9
X1.7984Y-3.0
X1.7984Y-3.1
X1.7984Y-3.2
X1.7984Y-3.3
X1.7984Y-3.4
X1.7984Y-3.5
X1.7984Y-3.6
X1.7984Y-3.7
X1.7984Y-3.8
X1.7984Y-3.9
X1.7984Y-4.0
X1.7984Y-4.1
X1.7984Y-4.2
X1.7984Y-4.3
X1.7984Y-4.4
X1.7984Y-4.5
X1.7984Y-4.6
X1.7984Y-4.7
X1.7984Y-4.8
X1.8984Y-1.7
X1.8984Y-1.8
X1.8984Y-1.9
X1.8984Y-2.0
X1.8984Y-2.1
X1.8984Y-2.2
X1.8984Y-2.3
X1.8984Y-2.4
X1.8984Y-2.5
X1.8984Y-2.6
X1.8984Y-2.7
X1.8984Y-2.8
X1.8984Y-2.9
X1.8984Y-3.0
X1.8984Y-3.1
X1.8984Y-3.2
X1.8984Y-3.3
X1.8984Y-3.4
X1.8984Y-3.5
X1.8984Y-3.6
X1.8984Y-3.7
X1.8984Y-3.8
X1.8984Y-3.9
X1.8984Y-4.0
X1.8984Y-4.1
X1.8984Y-4.2
X1.8984Y-4.3
X1.8984Y-4.4
X1.8984Y-4.5
X1.8984Y-4.6
X1.8984Y-4.7
X1.8984Y-4.8
X4.2Y-1.7
X4.2Y-1.8
X4.2Y-1.9
X4.2Y-2.0
X4.2Y-2.1
X4.2Y-2.2
X4.2Y-2.3
X4.2Y-2.4
X4.2Y-2.5
X4.2Y-2.6
X4.2Y-2.7
X4.2Y-2.8
X4.2Y-2.9
X4.2Y-3.0
X4.2Y-3.1
X4.2Y-3.2
X4.2Y-3.3
X4.2Y-3.4
X4.2Y-3.5
X4.2Y-3.6
X4.2Y-3.7
X4.2Y-3.8
X4.2Y-3.9
X4.2Y-4.0
X4.2Y-4.1
X4.2Y-4.2
X4.2Y-4.3
X4.2Y-4.4
X4.2Y-4.6
X4.2Y-4.7
X4.2Y-4.8
X4.3Y-1.7
X4.3Y-1.8
X4.3Y-1.9
X4.3Y-2.0
X4.3Y-2.1
X4.3Y-2.2
X4.3Y-2.3
X4.3Y-2.4
X4.3Y-2.5
X4.3Y-2.6
X4.3Y-2.7
X4.3Y-2.8
X4.3Y-2.9
X4.3Y-3.0
X4.3Y-3.1
X4.3Y-3.2
X4.3Y-3.3
X4.3Y-3.4
X4.3Y-3.5
X4.3Y-3.6
X4.3Y-3.7
X4.3Y-3.8
X4.3Y-3.9
X4.3Y-4.0
X4.3Y-4.1
X4.3Y-4.2
X4.3Y-4.3
X4.3Y-4.4
X4.3Y-4.6
X4.3Y-4.7
X4.3Y-4.8
X4.5742Y-1.74
X4.6742Y-1.74
T10
X4.8659Y-2.042
X5.1419Y-2.042
T11
X2.9783Y-1.9693
X3.4957Y-1.9693
T5
G00X5.0655Y-4.3294
M15
G01X5.0064Y-4.3294
M16
G05
G00X5.0655Y-4.67
M15
G01X5.0064Y-4.67
M16
G05
G00X5.1847Y-4.3294
M15
G01X5.1533Y-4.3294
M16
G05
G00X5.1847Y-4.67
M15
G01X5.1533Y-4.67
M16
G05
T6
G00X4.8248Y-2.4091
M15
G01X4.876Y-2.4091
M16
G05
G00X4.8248Y-3.1295
M15
G01X4.876Y-3.1295
M16
G05
G00X5.1043Y-2.4091
M15
G01X5.1555Y-2.4091
M16
G05
G00X5.1043Y-3.1295
M15
G01X5.1555Y-3.1295
M16
G05
T0
M30
