%TF.GenerationSoftware,KiCad,Pcbnew,8.0.0*%
%TF.CreationDate,2024-03-17T00:30:10-07:00*%
%TF.ProjectId,expansionboardA,65787061-6e73-4696-9f6e-626f61726441,3*%
%TF.SameCoordinates,Original*%
%TF.FileFunction,Profile,NP*%
%FSLAX46Y46*%
G04 Gerber Fmt 4.6, Leading zero omitted, Abs format (unit mm)*
G04 Created by KiCad (PCBNEW 8.0.0) date 2024-03-17 00:30:10*
%MOMM*%
%LPD*%
G01*
G04 APERTURE LIST*
%TA.AperFunction,Profile*%
%ADD10C,0.010000*%
%TD*%
G04 APERTURE END LIST*
D10*
X22381526Y-123474098D02*
G75*
G02*
X22098005Y-122447590I1716474J1026498D01*
G01*
X152912359Y-80949034D02*
G75*
G02*
X153095993Y-82147115I-3817059J-1198166D01*
G01*
X22098000Y-62557000D02*
G75*
G02*
X22298000Y-62357000I200000J0D01*
G01*
X24134295Y-124508275D02*
X149096000Y-124508000D01*
X22951823Y-41216031D02*
G75*
G02*
X24247010Y-40740009I1295177J-1523969D01*
G01*
X22381526Y-123474098D02*
X22417818Y-123534783D01*
X149096000Y-40738400D02*
G75*
G02*
X153096000Y-44738427I0J-4000000D01*
G01*
X22298000Y-51054000D02*
X22387000Y-51054000D01*
X22298000Y-51054000D02*
G75*
G02*
X22098000Y-50854000I0J200000D01*
G01*
X153096000Y-120508000D02*
X153096000Y-82147115D01*
X24247010Y-40739982D02*
X149096000Y-40738400D01*
X22987000Y-61757000D02*
G75*
G02*
X22387000Y-62357000I-600000J0D01*
G01*
X22987000Y-51654000D02*
X22987000Y-61757000D01*
X24134295Y-124508275D02*
G75*
G02*
X22417793Y-123534798I5J2000075D01*
G01*
X22387000Y-51054000D02*
G75*
G02*
X22987000Y-51654000I0J-600000D01*
G01*
X153096000Y-58367925D02*
G75*
G02*
X152942163Y-59466534I-3999900J25D01*
G01*
X153096000Y-120508000D02*
G75*
G02*
X149096000Y-124508000I-4000000J0D01*
G01*
X22099793Y-42864675D02*
X22098000Y-50854000D01*
X153096000Y-58367925D02*
X153096000Y-44738427D01*
X152452000Y-61182600D02*
X152942173Y-59466537D01*
X22298000Y-62357000D02*
X22387000Y-62357000D01*
X22098000Y-62557000D02*
X22098000Y-122447590D01*
X22804579Y-41341174D02*
X22951823Y-41216031D01*
X152912360Y-80949034D02*
X152452000Y-79482600D01*
X22099793Y-42864675D02*
G75*
G02*
X22804589Y-41341186I1999907J-425D01*
G01*
%TO.C,J3*%
X146150000Y-62590000D02*
X152450000Y-62590000D01*
X146150000Y-77090000D02*
X146150000Y-63590000D01*
X152450000Y-62590000D02*
X152450000Y-61190000D01*
X152450000Y-78090000D02*
X146150000Y-78090000D01*
X152450000Y-78090000D02*
X152450000Y-79490000D01*
X146150000Y-63590000D02*
G75*
G02*
X146150000Y-62590000I0J500000D01*
G01*
X146150000Y-78090000D02*
G75*
G02*
X146150000Y-77090000I0J500000D01*
G01*
%TD*%
M02*
