%TF.GenerationSoftware,KiCad,Pcbnew,8.0.0*%
%TF.CreationDate,2024-03-23T01:07:25-07:00*%
%TF.ProjectId,expansionboardA,65787061-6e73-4696-9f6e-626f61726441,3*%
%TF.SameCoordinates,Original*%
%TF.FileFunction,Soldermask,Top*%
%TF.FilePolarity,Negative*%
%FSLAX46Y46*%
G04 Gerber Fmt 4.6, Leading zero omitted, Abs format (unit mm)*
G04 Created by KiCad (PCBNEW 8.0.0) date 2024-03-23 01:07:25*
%MOMM*%
%LPD*%
G01*
G04 APERTURE LIST*
%ADD10C,4.400000*%
%ADD11R,1.250000X1.000000*%
%ADD12R,0.800000X0.800000*%
%ADD13C,0.800000*%
%ADD14O,2.800000X1.700000*%
%ADD15C,0.650000*%
%ADD16O,0.900000X1.700000*%
%ADD17O,0.900000X2.400000*%
%ADD18O,1.700000X0.900000*%
%ADD19O,2.400000X0.900000*%
%ADD20C,1.700000*%
%ADD21R,1.700000X1.700000*%
%ADD22O,1.700000X1.700000*%
%ADD23R,1.600000X1.500000*%
%ADD24C,1.600000*%
%ADD25C,3.000000*%
G04 APERTURE END LIST*
D10*
%TO.C,REF\u002A\u002A*%
X148750000Y-44500000D03*
%TD*%
%TO.C,REF\u002A\u002A*%
X26750000Y-44500000D03*
%TD*%
%TO.C,REF\u002A\u002A*%
X26750000Y-120500000D03*
%TD*%
%TO.C,REF\u002A\u002A*%
X148750000Y-120500000D03*
%TD*%
D11*
%TO.C,SW1*%
X81875000Y-121250000D03*
X74125000Y-121250000D03*
%TD*%
D12*
%TO.C,J3*%
X144920000Y-74840000D03*
D13*
X143370000Y-74340000D03*
X144920000Y-73840000D03*
X143370000Y-73340000D03*
X144920000Y-72840000D03*
X143370000Y-72340000D03*
X144920000Y-71840000D03*
X143370000Y-71340000D03*
X144920000Y-70840000D03*
X143370000Y-70340000D03*
X144920000Y-69840000D03*
X143370000Y-69340000D03*
X144920000Y-68840000D03*
X143370000Y-68340000D03*
X144920000Y-67840000D03*
X143370000Y-67340000D03*
X144920000Y-66840000D03*
X143370000Y-66340000D03*
X144920000Y-65840000D03*
D14*
X143200000Y-61190000D03*
X143200000Y-79490000D03*
X150300000Y-79490000D03*
X150300000Y-61190000D03*
%TD*%
D15*
%TO.C,J4*%
X58390317Y-118417462D03*
X59240317Y-118417462D03*
X60090317Y-118417462D03*
X60940317Y-118417462D03*
X61790317Y-118417462D03*
X62640317Y-118417462D03*
X63490317Y-118417462D03*
X64340317Y-118417462D03*
X64340317Y-119767462D03*
X63490317Y-119767462D03*
X62640317Y-119767462D03*
X61790317Y-119767462D03*
X60940317Y-119767462D03*
X60090317Y-119767462D03*
X59240317Y-119767462D03*
X58390317Y-119767462D03*
D16*
X57040317Y-122777462D03*
X65690317Y-122777462D03*
D17*
X57040317Y-119397462D03*
X65690317Y-119397462D03*
%TD*%
D15*
%TO.C,J1*%
X146740000Y-114000000D03*
X146740000Y-113150000D03*
X146740000Y-112300000D03*
X146740000Y-111450000D03*
X146740000Y-110600000D03*
X146740000Y-109750000D03*
X146740000Y-108900000D03*
X146740000Y-108050000D03*
X148090000Y-108050000D03*
X148090000Y-108900000D03*
X148090000Y-109750000D03*
X148090000Y-110600000D03*
X148090000Y-111450000D03*
X148090000Y-112300000D03*
X148090000Y-113150000D03*
X148090000Y-114000000D03*
D18*
X151100000Y-115350000D03*
X151100000Y-106700000D03*
D19*
X147720000Y-115350000D03*
X147720000Y-106700000D03*
%TD*%
D20*
%TO.C,AU1*%
X149300000Y-94800000D03*
X142300000Y-94800000D03*
%TD*%
D21*
%TO.C,U2*%
X48220000Y-121920000D03*
D22*
X45680000Y-121920000D03*
X48220000Y-119380000D03*
X45680000Y-119380000D03*
X48220000Y-116840000D03*
X45680000Y-116840000D03*
X48220000Y-114300000D03*
X45680000Y-114300000D03*
X48220000Y-111760000D03*
X45680000Y-111760000D03*
X48220000Y-109220000D03*
X45680000Y-109220000D03*
X48220000Y-106680000D03*
X45680000Y-106680000D03*
X48220000Y-104140000D03*
X45680000Y-104140000D03*
X48220000Y-101600000D03*
X45680000Y-101600000D03*
X48220000Y-99060000D03*
X45680000Y-99060000D03*
X48220000Y-96520000D03*
X45680000Y-96520000D03*
X48220000Y-93980000D03*
X45680000Y-93980000D03*
X48220000Y-91440000D03*
X45680000Y-91440000D03*
X48220000Y-86360000D03*
X45680000Y-86360000D03*
X48220000Y-83820000D03*
X45680000Y-83820000D03*
X48220000Y-81280000D03*
X45680000Y-81280000D03*
X48220000Y-78740000D03*
X45680000Y-78740000D03*
X48220000Y-76200000D03*
X45680000Y-76200000D03*
X48220000Y-73660000D03*
X45680000Y-73660000D03*
X48220000Y-71120000D03*
X45680000Y-71120000D03*
X48220000Y-68580000D03*
X45680000Y-68580000D03*
X48220000Y-66040000D03*
X45680000Y-66040000D03*
X48220000Y-63500000D03*
X45680000Y-63500000D03*
X48220000Y-60960000D03*
X45680000Y-60960000D03*
X48220000Y-58420000D03*
X45680000Y-58420000D03*
X48220000Y-55880000D03*
X45680000Y-55880000D03*
X48220000Y-53340000D03*
X45680000Y-53340000D03*
X48220000Y-50800000D03*
X45680000Y-50800000D03*
X48220000Y-48260000D03*
X45680000Y-48260000D03*
X48220000Y-45720000D03*
X45680000Y-45720000D03*
X48220000Y-43180000D03*
X45680000Y-43180000D03*
%TD*%
D21*
%TO.C,U4*%
X109220000Y-121920000D03*
D22*
X106680000Y-121920000D03*
X109220000Y-119380000D03*
X106680000Y-119380000D03*
X109220000Y-116840000D03*
X106680000Y-116840000D03*
X109220000Y-114300000D03*
X106680000Y-114300000D03*
X109220000Y-111760000D03*
X106680000Y-111760000D03*
X109220000Y-109220000D03*
X106680000Y-109220000D03*
X109220000Y-106680000D03*
X106680000Y-106680000D03*
X109220000Y-101600000D03*
X106680000Y-101600000D03*
X109220000Y-99060000D03*
X106680000Y-99060000D03*
X109220000Y-96520000D03*
X106680000Y-96520000D03*
X109220000Y-93980000D03*
X106680000Y-93980000D03*
X109220000Y-91440000D03*
X106680000Y-91440000D03*
X109220000Y-88900000D03*
X106680000Y-88900000D03*
X109220000Y-86360000D03*
X106680000Y-86360000D03*
X109220000Y-83820000D03*
X106680000Y-83820000D03*
X109220000Y-81280000D03*
X106680000Y-81280000D03*
X109220000Y-78740000D03*
X106680000Y-78740000D03*
X109220000Y-76200000D03*
X106680000Y-76200000D03*
X109220000Y-73660000D03*
X106680000Y-73660000D03*
X109220000Y-71120000D03*
X106680000Y-71120000D03*
X109220000Y-68580000D03*
X106680000Y-68580000D03*
X109220000Y-66040000D03*
X106680000Y-66040000D03*
X109220000Y-63500000D03*
X106680000Y-63500000D03*
X109220000Y-60960000D03*
X106680000Y-60960000D03*
X109220000Y-58420000D03*
X106680000Y-58420000D03*
X109220000Y-55880000D03*
X106680000Y-55880000D03*
X109220000Y-53340000D03*
X106680000Y-53340000D03*
X109220000Y-50800000D03*
X106680000Y-50800000D03*
X109220000Y-48260000D03*
X106680000Y-48260000D03*
X109220000Y-45720000D03*
X106680000Y-45720000D03*
X109220000Y-43180000D03*
X106680000Y-43180000D03*
%TD*%
D23*
%TO.C,J2*%
X61600000Y-52800000D03*
D24*
X64100000Y-52800000D03*
X66100000Y-52800000D03*
X68600000Y-52800000D03*
D25*
X58530000Y-50090000D03*
X71670000Y-50090000D03*
%TD*%
M02*
