%TF.GenerationSoftware,KiCad,Pcbnew,7.0.8*%
%TF.CreationDate,2023-12-18T15:19:52-08:00*%
%TF.ProjectId,expansionboardA,65787061-6e73-4696-9f6e-626f61726441,3*%
%TF.SameCoordinates,Original*%
%TF.FileFunction,Drillmap*%
%TF.FilePolarity,Positive*%
%FSLAX45Y45*%
G04 Gerber Fmt 4.5, Leading zero omitted, Abs format (unit mm)*
G04 Created by KiCad (PCBNEW 7.0.8) date 2023-12-18 15:19:52*
%MOMM*%
%LPD*%
G01*
G04 APERTURE LIST*
%ADD10C,0.010000*%
%ADD11C,0.200000*%
%ADD12C,0.170000*%
G04 APERTURE END LIST*
D10*
X2209801Y-12244759D02*
G75*
G03*
X2238153Y-12347410I200000J-1D01*
G01*
X15309599Y-8214711D02*
G75*
G03*
X15291236Y-8094903I-400069J-9D01*
G01*
X2229800Y-6235700D02*
G75*
G03*
X2209800Y-6255700I0J-20000D01*
G01*
X2413430Y-12450827D02*
X14909600Y-12450800D01*
X2424701Y-4074001D02*
G75*
G03*
X2295182Y-4121603I-1J-199999D01*
G01*
X2238153Y-12347410D02*
X2241782Y-12353478D01*
X15309600Y-4473843D02*
G75*
G03*
X14909600Y-4073840I-400000J3D01*
G01*
X2229800Y-5105400D02*
X2238700Y-5105400D01*
X2209800Y-5085400D02*
G75*
G03*
X2229800Y-5105400I20000J0D01*
G01*
X15309600Y-12050800D02*
X15309600Y-8214711D01*
X2424701Y-4073998D02*
X14909600Y-4073840D01*
X2238700Y-6235700D02*
G75*
G03*
X2298700Y-6175700I0J60000D01*
G01*
X2298700Y-5165400D02*
X2298700Y-6175700D01*
X2241779Y-12353480D02*
G75*
G03*
X2413430Y-12450827I171651J102660D01*
G01*
X2298700Y-5165400D02*
G75*
G03*
X2238700Y-5105400I-60000J0D01*
G01*
X15294216Y-5946653D02*
G75*
G03*
X15309600Y-5836792I-384606J109863D01*
G01*
X14909600Y-12450800D02*
G75*
G03*
X15309600Y-12050800I0J400000D01*
G01*
X2209979Y-4286468D02*
X2209800Y-5085400D01*
X15309600Y-5836792D02*
X15309600Y-4473843D01*
X15245200Y-6118260D02*
X15294217Y-5946654D01*
X2229800Y-6235700D02*
X2238700Y-6235700D01*
X2209800Y-6255700D02*
X2209800Y-12244759D01*
X2280458Y-4134117D02*
X2295182Y-4121603D01*
X15291236Y-8094903D02*
X15245200Y-7948260D01*
X2280459Y-4134119D02*
G75*
G03*
X2209979Y-4286468I129511J-152391D01*
G01*
D11*
D12*
X14145000Y-9395000D02*
X14315000Y-9565000D01*
X14315000Y-9395000D02*
X14145000Y-9565000D01*
X14845000Y-9395000D02*
X15015000Y-9565000D01*
X15015000Y-9395000D02*
X14845000Y-9565000D01*
D11*
X2470077Y-12762811D02*
X2470077Y-12562811D01*
X2470077Y-12562811D02*
X2517696Y-12562811D01*
X2517696Y-12562811D02*
X2546267Y-12572335D01*
X2546267Y-12572335D02*
X2565315Y-12591383D01*
X2565315Y-12591383D02*
X2574839Y-12610430D01*
X2574839Y-12610430D02*
X2584363Y-12648525D01*
X2584363Y-12648525D02*
X2584363Y-12677097D01*
X2584363Y-12677097D02*
X2574839Y-12715192D01*
X2574839Y-12715192D02*
X2565315Y-12734240D01*
X2565315Y-12734240D02*
X2546267Y-12753287D01*
X2546267Y-12753287D02*
X2517696Y-12762811D01*
X2517696Y-12762811D02*
X2470077Y-12762811D01*
X2670077Y-12762811D02*
X2670077Y-12629478D01*
X2670077Y-12667573D02*
X2679601Y-12648525D01*
X2679601Y-12648525D02*
X2689124Y-12639002D01*
X2689124Y-12639002D02*
X2708172Y-12629478D01*
X2708172Y-12629478D02*
X2727220Y-12629478D01*
X2793886Y-12762811D02*
X2793886Y-12629478D01*
X2793886Y-12562811D02*
X2784363Y-12572335D01*
X2784363Y-12572335D02*
X2793886Y-12581859D01*
X2793886Y-12581859D02*
X2803410Y-12572335D01*
X2803410Y-12572335D02*
X2793886Y-12562811D01*
X2793886Y-12562811D02*
X2793886Y-12581859D01*
X2917696Y-12762811D02*
X2898648Y-12753287D01*
X2898648Y-12753287D02*
X2889124Y-12734240D01*
X2889124Y-12734240D02*
X2889124Y-12562811D01*
X3022458Y-12762811D02*
X3003410Y-12753287D01*
X3003410Y-12753287D02*
X2993886Y-12734240D01*
X2993886Y-12734240D02*
X2993886Y-12562811D01*
X3251029Y-12762811D02*
X3251029Y-12562811D01*
X3251029Y-12562811D02*
X3317696Y-12705668D01*
X3317696Y-12705668D02*
X3384362Y-12562811D01*
X3384362Y-12562811D02*
X3384362Y-12762811D01*
X3565315Y-12762811D02*
X3565315Y-12658049D01*
X3565315Y-12658049D02*
X3555791Y-12639002D01*
X3555791Y-12639002D02*
X3536743Y-12629478D01*
X3536743Y-12629478D02*
X3498648Y-12629478D01*
X3498648Y-12629478D02*
X3479601Y-12639002D01*
X3565315Y-12753287D02*
X3546267Y-12762811D01*
X3546267Y-12762811D02*
X3498648Y-12762811D01*
X3498648Y-12762811D02*
X3479601Y-12753287D01*
X3479601Y-12753287D02*
X3470077Y-12734240D01*
X3470077Y-12734240D02*
X3470077Y-12715192D01*
X3470077Y-12715192D02*
X3479601Y-12696145D01*
X3479601Y-12696145D02*
X3498648Y-12686621D01*
X3498648Y-12686621D02*
X3546267Y-12686621D01*
X3546267Y-12686621D02*
X3565315Y-12677097D01*
X3660553Y-12629478D02*
X3660553Y-12829478D01*
X3660553Y-12639002D02*
X3679601Y-12629478D01*
X3679601Y-12629478D02*
X3717696Y-12629478D01*
X3717696Y-12629478D02*
X3736743Y-12639002D01*
X3736743Y-12639002D02*
X3746267Y-12648525D01*
X3746267Y-12648525D02*
X3755791Y-12667573D01*
X3755791Y-12667573D02*
X3755791Y-12724716D01*
X3755791Y-12724716D02*
X3746267Y-12743764D01*
X3746267Y-12743764D02*
X3736743Y-12753287D01*
X3736743Y-12753287D02*
X3717696Y-12762811D01*
X3717696Y-12762811D02*
X3679601Y-12762811D01*
X3679601Y-12762811D02*
X3660553Y-12753287D01*
X3841505Y-12743764D02*
X3851029Y-12753287D01*
X3851029Y-12753287D02*
X3841505Y-12762811D01*
X3841505Y-12762811D02*
X3831982Y-12753287D01*
X3831982Y-12753287D02*
X3841505Y-12743764D01*
X3841505Y-12743764D02*
X3841505Y-12762811D01*
X3841505Y-12639002D02*
X3851029Y-12648525D01*
X3851029Y-12648525D02*
X3841505Y-12658049D01*
X3841505Y-12658049D02*
X3831982Y-12648525D01*
X3831982Y-12648525D02*
X3841505Y-12639002D01*
X3841505Y-12639002D02*
X3841505Y-12658049D01*
D12*
X2039300Y-13006327D02*
X2209300Y-13176327D01*
X2209300Y-13006327D02*
X2039300Y-13176327D01*
D11*
X2574839Y-13182811D02*
X2460553Y-13182811D01*
X2517696Y-13182811D02*
X2517696Y-12982811D01*
X2517696Y-12982811D02*
X2498648Y-13011383D01*
X2498648Y-13011383D02*
X2479601Y-13030430D01*
X2479601Y-13030430D02*
X2460553Y-13039954D01*
X2660553Y-13163764D02*
X2670077Y-13173287D01*
X2670077Y-13173287D02*
X2660553Y-13182811D01*
X2660553Y-13182811D02*
X2651029Y-13173287D01*
X2651029Y-13173287D02*
X2660553Y-13163764D01*
X2660553Y-13163764D02*
X2660553Y-13182811D01*
X2736744Y-12982811D02*
X2870077Y-12982811D01*
X2870077Y-12982811D02*
X2784363Y-13182811D01*
X2984362Y-12982811D02*
X3003410Y-12982811D01*
X3003410Y-12982811D02*
X3022458Y-12992335D01*
X3022458Y-12992335D02*
X3031982Y-13001859D01*
X3031982Y-13001859D02*
X3041505Y-13020906D01*
X3041505Y-13020906D02*
X3051029Y-13059002D01*
X3051029Y-13059002D02*
X3051029Y-13106621D01*
X3051029Y-13106621D02*
X3041505Y-13144716D01*
X3041505Y-13144716D02*
X3031982Y-13163764D01*
X3031982Y-13163764D02*
X3022458Y-13173287D01*
X3022458Y-13173287D02*
X3003410Y-13182811D01*
X3003410Y-13182811D02*
X2984362Y-13182811D01*
X2984362Y-13182811D02*
X2965315Y-13173287D01*
X2965315Y-13173287D02*
X2955791Y-13163764D01*
X2955791Y-13163764D02*
X2946267Y-13144716D01*
X2946267Y-13144716D02*
X2936743Y-13106621D01*
X2936743Y-13106621D02*
X2936743Y-13059002D01*
X2936743Y-13059002D02*
X2946267Y-13020906D01*
X2946267Y-13020906D02*
X2955791Y-13001859D01*
X2955791Y-13001859D02*
X2965315Y-12992335D01*
X2965315Y-12992335D02*
X2984362Y-12982811D01*
X3174839Y-12982811D02*
X3193886Y-12982811D01*
X3193886Y-12982811D02*
X3212934Y-12992335D01*
X3212934Y-12992335D02*
X3222458Y-13001859D01*
X3222458Y-13001859D02*
X3231982Y-13020906D01*
X3231982Y-13020906D02*
X3241505Y-13059002D01*
X3241505Y-13059002D02*
X3241505Y-13106621D01*
X3241505Y-13106621D02*
X3231982Y-13144716D01*
X3231982Y-13144716D02*
X3222458Y-13163764D01*
X3222458Y-13163764D02*
X3212934Y-13173287D01*
X3212934Y-13173287D02*
X3193886Y-13182811D01*
X3193886Y-13182811D02*
X3174839Y-13182811D01*
X3174839Y-13182811D02*
X3155791Y-13173287D01*
X3155791Y-13173287D02*
X3146267Y-13163764D01*
X3146267Y-13163764D02*
X3136743Y-13144716D01*
X3136743Y-13144716D02*
X3127220Y-13106621D01*
X3127220Y-13106621D02*
X3127220Y-13059002D01*
X3127220Y-13059002D02*
X3136743Y-13020906D01*
X3136743Y-13020906D02*
X3146267Y-13001859D01*
X3146267Y-13001859D02*
X3155791Y-12992335D01*
X3155791Y-12992335D02*
X3174839Y-12982811D01*
X3327220Y-13182811D02*
X3327220Y-13049478D01*
X3327220Y-13068525D02*
X3336743Y-13059002D01*
X3336743Y-13059002D02*
X3355791Y-13049478D01*
X3355791Y-13049478D02*
X3384363Y-13049478D01*
X3384363Y-13049478D02*
X3403410Y-13059002D01*
X3403410Y-13059002D02*
X3412934Y-13078049D01*
X3412934Y-13078049D02*
X3412934Y-13182811D01*
X3412934Y-13078049D02*
X3422458Y-13059002D01*
X3422458Y-13059002D02*
X3441505Y-13049478D01*
X3441505Y-13049478D02*
X3470077Y-13049478D01*
X3470077Y-13049478D02*
X3489124Y-13059002D01*
X3489124Y-13059002D02*
X3498648Y-13078049D01*
X3498648Y-13078049D02*
X3498648Y-13182811D01*
X3593886Y-13182811D02*
X3593886Y-13049478D01*
X3593886Y-13068525D02*
X3603410Y-13059002D01*
X3603410Y-13059002D02*
X3622458Y-13049478D01*
X3622458Y-13049478D02*
X3651029Y-13049478D01*
X3651029Y-13049478D02*
X3670077Y-13059002D01*
X3670077Y-13059002D02*
X3679601Y-13078049D01*
X3679601Y-13078049D02*
X3679601Y-13182811D01*
X3679601Y-13078049D02*
X3689124Y-13059002D01*
X3689124Y-13059002D02*
X3708172Y-13049478D01*
X3708172Y-13049478D02*
X3736743Y-13049478D01*
X3736743Y-13049478D02*
X3755791Y-13059002D01*
X3755791Y-13059002D02*
X3765315Y-13078049D01*
X3765315Y-13078049D02*
X3765315Y-13182811D01*
X4155791Y-12973287D02*
X3984363Y-13230430D01*
X4412934Y-12982811D02*
X4431982Y-12982811D01*
X4431982Y-12982811D02*
X4451029Y-12992335D01*
X4451029Y-12992335D02*
X4460553Y-13001859D01*
X4460553Y-13001859D02*
X4470077Y-13020906D01*
X4470077Y-13020906D02*
X4479601Y-13059002D01*
X4479601Y-13059002D02*
X4479601Y-13106621D01*
X4479601Y-13106621D02*
X4470077Y-13144716D01*
X4470077Y-13144716D02*
X4460553Y-13163764D01*
X4460553Y-13163764D02*
X4451029Y-13173287D01*
X4451029Y-13173287D02*
X4431982Y-13182811D01*
X4431982Y-13182811D02*
X4412934Y-13182811D01*
X4412934Y-13182811D02*
X4393887Y-13173287D01*
X4393887Y-13173287D02*
X4384363Y-13163764D01*
X4384363Y-13163764D02*
X4374839Y-13144716D01*
X4374839Y-13144716D02*
X4365315Y-13106621D01*
X4365315Y-13106621D02*
X4365315Y-13059002D01*
X4365315Y-13059002D02*
X4374839Y-13020906D01*
X4374839Y-13020906D02*
X4384363Y-13001859D01*
X4384363Y-13001859D02*
X4393887Y-12992335D01*
X4393887Y-12992335D02*
X4412934Y-12982811D01*
X4565315Y-13163764D02*
X4574839Y-13173287D01*
X4574839Y-13173287D02*
X4565315Y-13182811D01*
X4565315Y-13182811D02*
X4555791Y-13173287D01*
X4555791Y-13173287D02*
X4565315Y-13163764D01*
X4565315Y-13163764D02*
X4565315Y-13182811D01*
X4698648Y-12982811D02*
X4717696Y-12982811D01*
X4717696Y-12982811D02*
X4736744Y-12992335D01*
X4736744Y-12992335D02*
X4746268Y-13001859D01*
X4746268Y-13001859D02*
X4755791Y-13020906D01*
X4755791Y-13020906D02*
X4765315Y-13059002D01*
X4765315Y-13059002D02*
X4765315Y-13106621D01*
X4765315Y-13106621D02*
X4755791Y-13144716D01*
X4755791Y-13144716D02*
X4746268Y-13163764D01*
X4746268Y-13163764D02*
X4736744Y-13173287D01*
X4736744Y-13173287D02*
X4717696Y-13182811D01*
X4717696Y-13182811D02*
X4698648Y-13182811D01*
X4698648Y-13182811D02*
X4679601Y-13173287D01*
X4679601Y-13173287D02*
X4670077Y-13163764D01*
X4670077Y-13163764D02*
X4660553Y-13144716D01*
X4660553Y-13144716D02*
X4651029Y-13106621D01*
X4651029Y-13106621D02*
X4651029Y-13059002D01*
X4651029Y-13059002D02*
X4660553Y-13020906D01*
X4660553Y-13020906D02*
X4670077Y-13001859D01*
X4670077Y-13001859D02*
X4679601Y-12992335D01*
X4679601Y-12992335D02*
X4698648Y-12982811D01*
X4936744Y-12982811D02*
X4898648Y-12982811D01*
X4898648Y-12982811D02*
X4879601Y-12992335D01*
X4879601Y-12992335D02*
X4870077Y-13001859D01*
X4870077Y-13001859D02*
X4851029Y-13030430D01*
X4851029Y-13030430D02*
X4841506Y-13068525D01*
X4841506Y-13068525D02*
X4841506Y-13144716D01*
X4841506Y-13144716D02*
X4851029Y-13163764D01*
X4851029Y-13163764D02*
X4860553Y-13173287D01*
X4860553Y-13173287D02*
X4879601Y-13182811D01*
X4879601Y-13182811D02*
X4917696Y-13182811D01*
X4917696Y-13182811D02*
X4936744Y-13173287D01*
X4936744Y-13173287D02*
X4946268Y-13163764D01*
X4946268Y-13163764D02*
X4955791Y-13144716D01*
X4955791Y-13144716D02*
X4955791Y-13097097D01*
X4955791Y-13097097D02*
X4946268Y-13078049D01*
X4946268Y-13078049D02*
X4936744Y-13068525D01*
X4936744Y-13068525D02*
X4917696Y-13059002D01*
X4917696Y-13059002D02*
X4879601Y-13059002D01*
X4879601Y-13059002D02*
X4860553Y-13068525D01*
X4860553Y-13068525D02*
X4851029Y-13078049D01*
X4851029Y-13078049D02*
X4841506Y-13097097D01*
X5127220Y-12982811D02*
X5089125Y-12982811D01*
X5089125Y-12982811D02*
X5070077Y-12992335D01*
X5070077Y-12992335D02*
X5060553Y-13001859D01*
X5060553Y-13001859D02*
X5041506Y-13030430D01*
X5041506Y-13030430D02*
X5031982Y-13068525D01*
X5031982Y-13068525D02*
X5031982Y-13144716D01*
X5031982Y-13144716D02*
X5041506Y-13163764D01*
X5041506Y-13163764D02*
X5051029Y-13173287D01*
X5051029Y-13173287D02*
X5070077Y-13182811D01*
X5070077Y-13182811D02*
X5108172Y-13182811D01*
X5108172Y-13182811D02*
X5127220Y-13173287D01*
X5127220Y-13173287D02*
X5136744Y-13163764D01*
X5136744Y-13163764D02*
X5146268Y-13144716D01*
X5146268Y-13144716D02*
X5146268Y-13097097D01*
X5146268Y-13097097D02*
X5136744Y-13078049D01*
X5136744Y-13078049D02*
X5127220Y-13068525D01*
X5127220Y-13068525D02*
X5108172Y-13059002D01*
X5108172Y-13059002D02*
X5070077Y-13059002D01*
X5070077Y-13059002D02*
X5051029Y-13068525D01*
X5051029Y-13068525D02*
X5041506Y-13078049D01*
X5041506Y-13078049D02*
X5031982Y-13097097D01*
X5241506Y-13182811D02*
X5279601Y-13182811D01*
X5279601Y-13182811D02*
X5298649Y-13173287D01*
X5298649Y-13173287D02*
X5308172Y-13163764D01*
X5308172Y-13163764D02*
X5327220Y-13135192D01*
X5327220Y-13135192D02*
X5336744Y-13097097D01*
X5336744Y-13097097D02*
X5336744Y-13020906D01*
X5336744Y-13020906D02*
X5327220Y-13001859D01*
X5327220Y-13001859D02*
X5317696Y-12992335D01*
X5317696Y-12992335D02*
X5298649Y-12982811D01*
X5298649Y-12982811D02*
X5260553Y-12982811D01*
X5260553Y-12982811D02*
X5241506Y-12992335D01*
X5241506Y-12992335D02*
X5231982Y-13001859D01*
X5231982Y-13001859D02*
X5222458Y-13020906D01*
X5222458Y-13020906D02*
X5222458Y-13068525D01*
X5222458Y-13068525D02*
X5231982Y-13087573D01*
X5231982Y-13087573D02*
X5241506Y-13097097D01*
X5241506Y-13097097D02*
X5260553Y-13106621D01*
X5260553Y-13106621D02*
X5298649Y-13106621D01*
X5298649Y-13106621D02*
X5317696Y-13097097D01*
X5317696Y-13097097D02*
X5327220Y-13087573D01*
X5327220Y-13087573D02*
X5336744Y-13068525D01*
X5412934Y-12982811D02*
X5412934Y-13020906D01*
X5489125Y-12982811D02*
X5489125Y-13020906D01*
X5784363Y-13259002D02*
X5774839Y-13249478D01*
X5774839Y-13249478D02*
X5755791Y-13220906D01*
X5755791Y-13220906D02*
X5746268Y-13201859D01*
X5746268Y-13201859D02*
X5736744Y-13173287D01*
X5736744Y-13173287D02*
X5727220Y-13125668D01*
X5727220Y-13125668D02*
X5727220Y-13087573D01*
X5727220Y-13087573D02*
X5736744Y-13039954D01*
X5736744Y-13039954D02*
X5746268Y-13011383D01*
X5746268Y-13011383D02*
X5755791Y-12992335D01*
X5755791Y-12992335D02*
X5774839Y-12963764D01*
X5774839Y-12963764D02*
X5784363Y-12954240D01*
X5851029Y-13001859D02*
X5860553Y-12992335D01*
X5860553Y-12992335D02*
X5879601Y-12982811D01*
X5879601Y-12982811D02*
X5927220Y-12982811D01*
X5927220Y-12982811D02*
X5946268Y-12992335D01*
X5946268Y-12992335D02*
X5955791Y-13001859D01*
X5955791Y-13001859D02*
X5965315Y-13020906D01*
X5965315Y-13020906D02*
X5965315Y-13039954D01*
X5965315Y-13039954D02*
X5955791Y-13068525D01*
X5955791Y-13068525D02*
X5841506Y-13182811D01*
X5841506Y-13182811D02*
X5965315Y-13182811D01*
X6203410Y-13182811D02*
X6203410Y-12982811D01*
X6289125Y-13182811D02*
X6289125Y-13078049D01*
X6289125Y-13078049D02*
X6279601Y-13059002D01*
X6279601Y-13059002D02*
X6260553Y-13049478D01*
X6260553Y-13049478D02*
X6231982Y-13049478D01*
X6231982Y-13049478D02*
X6212934Y-13059002D01*
X6212934Y-13059002D02*
X6203410Y-13068525D01*
X6412934Y-13182811D02*
X6393887Y-13173287D01*
X6393887Y-13173287D02*
X6384363Y-13163764D01*
X6384363Y-13163764D02*
X6374839Y-13144716D01*
X6374839Y-13144716D02*
X6374839Y-13087573D01*
X6374839Y-13087573D02*
X6384363Y-13068525D01*
X6384363Y-13068525D02*
X6393887Y-13059002D01*
X6393887Y-13059002D02*
X6412934Y-13049478D01*
X6412934Y-13049478D02*
X6441506Y-13049478D01*
X6441506Y-13049478D02*
X6460553Y-13059002D01*
X6460553Y-13059002D02*
X6470077Y-13068525D01*
X6470077Y-13068525D02*
X6479601Y-13087573D01*
X6479601Y-13087573D02*
X6479601Y-13144716D01*
X6479601Y-13144716D02*
X6470077Y-13163764D01*
X6470077Y-13163764D02*
X6460553Y-13173287D01*
X6460553Y-13173287D02*
X6441506Y-13182811D01*
X6441506Y-13182811D02*
X6412934Y-13182811D01*
X6593887Y-13182811D02*
X6574839Y-13173287D01*
X6574839Y-13173287D02*
X6565315Y-13154240D01*
X6565315Y-13154240D02*
X6565315Y-12982811D01*
X6746268Y-13173287D02*
X6727220Y-13182811D01*
X6727220Y-13182811D02*
X6689125Y-13182811D01*
X6689125Y-13182811D02*
X6670077Y-13173287D01*
X6670077Y-13173287D02*
X6660553Y-13154240D01*
X6660553Y-13154240D02*
X6660553Y-13078049D01*
X6660553Y-13078049D02*
X6670077Y-13059002D01*
X6670077Y-13059002D02*
X6689125Y-13049478D01*
X6689125Y-13049478D02*
X6727220Y-13049478D01*
X6727220Y-13049478D02*
X6746268Y-13059002D01*
X6746268Y-13059002D02*
X6755791Y-13078049D01*
X6755791Y-13078049D02*
X6755791Y-13097097D01*
X6755791Y-13097097D02*
X6660553Y-13116145D01*
X6831982Y-13173287D02*
X6851030Y-13182811D01*
X6851030Y-13182811D02*
X6889125Y-13182811D01*
X6889125Y-13182811D02*
X6908172Y-13173287D01*
X6908172Y-13173287D02*
X6917696Y-13154240D01*
X6917696Y-13154240D02*
X6917696Y-13144716D01*
X6917696Y-13144716D02*
X6908172Y-13125668D01*
X6908172Y-13125668D02*
X6889125Y-13116145D01*
X6889125Y-13116145D02*
X6860553Y-13116145D01*
X6860553Y-13116145D02*
X6841506Y-13106621D01*
X6841506Y-13106621D02*
X6831982Y-13087573D01*
X6831982Y-13087573D02*
X6831982Y-13078049D01*
X6831982Y-13078049D02*
X6841506Y-13059002D01*
X6841506Y-13059002D02*
X6860553Y-13049478D01*
X6860553Y-13049478D02*
X6889125Y-13049478D01*
X6889125Y-13049478D02*
X6908172Y-13059002D01*
X6984363Y-13259002D02*
X6993887Y-13249478D01*
X6993887Y-13249478D02*
X7012934Y-13220906D01*
X7012934Y-13220906D02*
X7022458Y-13201859D01*
X7022458Y-13201859D02*
X7031982Y-13173287D01*
X7031982Y-13173287D02*
X7041506Y-13125668D01*
X7041506Y-13125668D02*
X7041506Y-13087573D01*
X7041506Y-13087573D02*
X7031982Y-13039954D01*
X7031982Y-13039954D02*
X7022458Y-13011383D01*
X7022458Y-13011383D02*
X7012934Y-12992335D01*
X7012934Y-12992335D02*
X6993887Y-12963764D01*
X6993887Y-12963764D02*
X6984363Y-12954240D01*
X7346268Y-13259002D02*
X7336744Y-13249478D01*
X7336744Y-13249478D02*
X7317696Y-13220906D01*
X7317696Y-13220906D02*
X7308172Y-13201859D01*
X7308172Y-13201859D02*
X7298649Y-13173287D01*
X7298649Y-13173287D02*
X7289125Y-13125668D01*
X7289125Y-13125668D02*
X7289125Y-13087573D01*
X7289125Y-13087573D02*
X7298649Y-13039954D01*
X7298649Y-13039954D02*
X7308172Y-13011383D01*
X7308172Y-13011383D02*
X7317696Y-12992335D01*
X7317696Y-12992335D02*
X7336744Y-12963764D01*
X7336744Y-12963764D02*
X7346268Y-12954240D01*
X7422458Y-13049478D02*
X7422458Y-13182811D01*
X7422458Y-13068525D02*
X7431982Y-13059002D01*
X7431982Y-13059002D02*
X7451030Y-13049478D01*
X7451030Y-13049478D02*
X7479601Y-13049478D01*
X7479601Y-13049478D02*
X7498649Y-13059002D01*
X7498649Y-13059002D02*
X7508172Y-13078049D01*
X7508172Y-13078049D02*
X7508172Y-13182811D01*
X7631982Y-13182811D02*
X7612934Y-13173287D01*
X7612934Y-13173287D02*
X7603411Y-13163764D01*
X7603411Y-13163764D02*
X7593887Y-13144716D01*
X7593887Y-13144716D02*
X7593887Y-13087573D01*
X7593887Y-13087573D02*
X7603411Y-13068525D01*
X7603411Y-13068525D02*
X7612934Y-13059002D01*
X7612934Y-13059002D02*
X7631982Y-13049478D01*
X7631982Y-13049478D02*
X7660553Y-13049478D01*
X7660553Y-13049478D02*
X7679601Y-13059002D01*
X7679601Y-13059002D02*
X7689125Y-13068525D01*
X7689125Y-13068525D02*
X7698649Y-13087573D01*
X7698649Y-13087573D02*
X7698649Y-13144716D01*
X7698649Y-13144716D02*
X7689125Y-13163764D01*
X7689125Y-13163764D02*
X7679601Y-13173287D01*
X7679601Y-13173287D02*
X7660553Y-13182811D01*
X7660553Y-13182811D02*
X7631982Y-13182811D01*
X7755792Y-13049478D02*
X7831982Y-13049478D01*
X7784363Y-12982811D02*
X7784363Y-13154240D01*
X7784363Y-13154240D02*
X7793887Y-13173287D01*
X7793887Y-13173287D02*
X7812934Y-13182811D01*
X7812934Y-13182811D02*
X7831982Y-13182811D01*
X8051030Y-13049478D02*
X8051030Y-13249478D01*
X8051030Y-13059002D02*
X8070077Y-13049478D01*
X8070077Y-13049478D02*
X8108173Y-13049478D01*
X8108173Y-13049478D02*
X8127220Y-13059002D01*
X8127220Y-13059002D02*
X8136744Y-13068525D01*
X8136744Y-13068525D02*
X8146268Y-13087573D01*
X8146268Y-13087573D02*
X8146268Y-13144716D01*
X8146268Y-13144716D02*
X8136744Y-13163764D01*
X8136744Y-13163764D02*
X8127220Y-13173287D01*
X8127220Y-13173287D02*
X8108173Y-13182811D01*
X8108173Y-13182811D02*
X8070077Y-13182811D01*
X8070077Y-13182811D02*
X8051030Y-13173287D01*
X8260553Y-13182811D02*
X8241506Y-13173287D01*
X8241506Y-13173287D02*
X8231982Y-13154240D01*
X8231982Y-13154240D02*
X8231982Y-12982811D01*
X8422458Y-13182811D02*
X8422458Y-13078049D01*
X8422458Y-13078049D02*
X8412935Y-13059002D01*
X8412935Y-13059002D02*
X8393887Y-13049478D01*
X8393887Y-13049478D02*
X8355792Y-13049478D01*
X8355792Y-13049478D02*
X8336744Y-13059002D01*
X8422458Y-13173287D02*
X8403411Y-13182811D01*
X8403411Y-13182811D02*
X8355792Y-13182811D01*
X8355792Y-13182811D02*
X8336744Y-13173287D01*
X8336744Y-13173287D02*
X8327220Y-13154240D01*
X8327220Y-13154240D02*
X8327220Y-13135192D01*
X8327220Y-13135192D02*
X8336744Y-13116145D01*
X8336744Y-13116145D02*
X8355792Y-13106621D01*
X8355792Y-13106621D02*
X8403411Y-13106621D01*
X8403411Y-13106621D02*
X8422458Y-13097097D01*
X8489125Y-13049478D02*
X8565315Y-13049478D01*
X8517696Y-12982811D02*
X8517696Y-13154240D01*
X8517696Y-13154240D02*
X8527220Y-13173287D01*
X8527220Y-13173287D02*
X8546268Y-13182811D01*
X8546268Y-13182811D02*
X8565315Y-13182811D01*
X8708173Y-13173287D02*
X8689125Y-13182811D01*
X8689125Y-13182811D02*
X8651030Y-13182811D01*
X8651030Y-13182811D02*
X8631982Y-13173287D01*
X8631982Y-13173287D02*
X8622458Y-13154240D01*
X8622458Y-13154240D02*
X8622458Y-13078049D01*
X8622458Y-13078049D02*
X8631982Y-13059002D01*
X8631982Y-13059002D02*
X8651030Y-13049478D01*
X8651030Y-13049478D02*
X8689125Y-13049478D01*
X8689125Y-13049478D02*
X8708173Y-13059002D01*
X8708173Y-13059002D02*
X8717696Y-13078049D01*
X8717696Y-13078049D02*
X8717696Y-13097097D01*
X8717696Y-13097097D02*
X8622458Y-13116145D01*
X8889125Y-13182811D02*
X8889125Y-12982811D01*
X8889125Y-13173287D02*
X8870077Y-13182811D01*
X8870077Y-13182811D02*
X8831982Y-13182811D01*
X8831982Y-13182811D02*
X8812935Y-13173287D01*
X8812935Y-13173287D02*
X8803411Y-13163764D01*
X8803411Y-13163764D02*
X8793887Y-13144716D01*
X8793887Y-13144716D02*
X8793887Y-13087573D01*
X8793887Y-13087573D02*
X8803411Y-13068525D01*
X8803411Y-13068525D02*
X8812935Y-13059002D01*
X8812935Y-13059002D02*
X8831982Y-13049478D01*
X8831982Y-13049478D02*
X8870077Y-13049478D01*
X8870077Y-13049478D02*
X8889125Y-13059002D01*
X8965316Y-13259002D02*
X8974839Y-13249478D01*
X8974839Y-13249478D02*
X8993887Y-13220906D01*
X8993887Y-13220906D02*
X9003411Y-13201859D01*
X9003411Y-13201859D02*
X9012935Y-13173287D01*
X9012935Y-13173287D02*
X9022458Y-13125668D01*
X9022458Y-13125668D02*
X9022458Y-13087573D01*
X9022458Y-13087573D02*
X9012935Y-13039954D01*
X9012935Y-13039954D02*
X9003411Y-13011383D01*
X9003411Y-13011383D02*
X8993887Y-12992335D01*
X8993887Y-12992335D02*
X8974839Y-12963764D01*
X8974839Y-12963764D02*
X8965316Y-12954240D01*
M02*
