%TF.GenerationSoftware,KiCad,Pcbnew,8.0.0*%
%TF.CreationDate,2024-03-23T01:07:23-07:00*%
%TF.ProjectId,expansionboardA,65787061-6e73-4696-9f6e-626f61726441,3*%
%TF.SameCoordinates,Original*%
%TF.FileFunction,Drillmap*%
%TF.FilePolarity,Positive*%
%FSLAX45Y45*%
G04 Gerber Fmt 4.5, Leading zero omitted, Abs format (unit mm)*
G04 Created by KiCad (PCBNEW 8.0.0) date 2024-03-23 01:07:23*
%MOMM*%
%LPD*%
G01*
G04 APERTURE LIST*
%ADD10C,0.010000*%
%ADD11C,0.200000*%
%ADD12C,0.100000*%
%ADD13C,0.220000*%
%ADD14C,0.230000*%
G04 APERTURE END LIST*
D10*
X2238153Y-12347410D02*
G75*
G02*
X2209801Y-12244759I171647J102650D01*
G01*
X15291236Y-8094903D02*
G75*
G02*
X15309599Y-8214711I-381706J-119817D01*
G01*
X2209800Y-6255700D02*
G75*
G02*
X2229800Y-6235700I20000J0D01*
G01*
X2413430Y-12450827D02*
X14909600Y-12450800D01*
X2295182Y-4121603D02*
G75*
G02*
X2424701Y-4074001I129518J-152397D01*
G01*
X2238153Y-12347410D02*
X2241782Y-12353478D01*
X14909600Y-4073840D02*
G75*
G02*
X15309600Y-4473843I0J-400000D01*
G01*
X2229800Y-5105400D02*
X2238700Y-5105400D01*
X2229800Y-5105400D02*
G75*
G02*
X2209800Y-5085400I0J20000D01*
G01*
X15309600Y-12050800D02*
X15309600Y-8214711D01*
X2424701Y-4073998D02*
X14909600Y-4073840D01*
X2298700Y-6175700D02*
G75*
G02*
X2238700Y-6235700I-60000J0D01*
G01*
X2298700Y-5165400D02*
X2298700Y-6175700D01*
X2413430Y-12450827D02*
G75*
G02*
X2241779Y-12353480I1J200008D01*
G01*
X2238700Y-5105400D02*
G75*
G02*
X2298700Y-5165400I0J-60000D01*
G01*
X15309600Y-5836792D02*
G75*
G02*
X15294216Y-5946653I-399990J3D01*
G01*
X15309600Y-12050800D02*
G75*
G02*
X14909600Y-12450800I-400000J0D01*
G01*
X2209979Y-4286468D02*
X2209800Y-5085400D01*
X15309600Y-5836792D02*
X15309600Y-4473843D01*
X15245200Y-6118260D02*
X15294217Y-5946654D01*
X2229800Y-6235700D02*
X2238700Y-6235700D01*
X2209800Y-6255700D02*
X2209800Y-12244759D01*
X2280458Y-4134117D02*
X2295182Y-4121603D01*
X15291236Y-8094903D02*
X15245200Y-7948260D01*
X2209979Y-4286468D02*
G75*
G02*
X2280459Y-4134119I199991J-43D01*
G01*
X14615000Y-6259000D02*
X15245000Y-6259000D01*
X14615000Y-7709000D02*
X14615000Y-6359000D01*
X15245000Y-6259000D02*
X15245000Y-6119000D01*
X15245000Y-7809000D02*
X14615000Y-7809000D01*
X15245000Y-7809000D02*
X15245000Y-7949000D01*
X14615000Y-6359000D02*
G75*
G02*
X14615000Y-6259000I0J50000D01*
G01*
X14615000Y-7809000D02*
G75*
G02*
X14615000Y-7709000I0J50000D01*
G01*
D11*
D12*
X13041137Y-7077491D02*
X13071137Y-7107491D01*
X13071137Y-7077491D02*
X13041137Y-7107491D01*
X13075000Y-7012500D02*
X13105000Y-7042500D01*
X13105000Y-7012500D02*
X13075000Y-7042500D01*
X2470000Y-8000000D02*
G75*
G02*
X2430000Y-8000000I-20000J0D01*
G01*
X2430000Y-8000000D02*
G75*
G02*
X2470000Y-8000000I20000J0D01*
G01*
X2495000Y-9375000D02*
G75*
G02*
X2455000Y-9375000I-20000J0D01*
G01*
X2455000Y-9375000D02*
G75*
G02*
X2495000Y-9375000I20000J0D01*
G01*
X2545000Y-10300000D02*
G75*
G02*
X2505000Y-10300000I-20000J0D01*
G01*
X2505000Y-10300000D02*
G75*
G02*
X2545000Y-10300000I20000J0D01*
G01*
X2814000Y-5588000D02*
G75*
G02*
X2774000Y-5588000I-20000J0D01*
G01*
X2774000Y-5588000D02*
G75*
G02*
X2814000Y-5588000I20000J0D01*
G01*
X3070000Y-10450000D02*
G75*
G02*
X3030000Y-10450000I-20000J0D01*
G01*
X3030000Y-10450000D02*
G75*
G02*
X3070000Y-10450000I20000J0D01*
G01*
X3420000Y-8275000D02*
G75*
G02*
X3380000Y-8275000I-20000J0D01*
G01*
X3380000Y-8275000D02*
G75*
G02*
X3420000Y-8275000I20000J0D01*
G01*
X3525200Y-5969000D02*
G75*
G02*
X3485200Y-5969000I-20000J0D01*
G01*
X3485200Y-5969000D02*
G75*
G02*
X3525200Y-5969000I20000J0D01*
G01*
X3570000Y-10275000D02*
G75*
G02*
X3530000Y-10275000I-20000J0D01*
G01*
X3530000Y-10275000D02*
G75*
G02*
X3570000Y-10275000I20000J0D01*
G01*
X3576000Y-5105400D02*
G75*
G02*
X3536000Y-5105400I-20000J0D01*
G01*
X3536000Y-5105400D02*
G75*
G02*
X3576000Y-5105400I20000J0D01*
G01*
X3820000Y-6700000D02*
G75*
G02*
X3780000Y-6700000I-20000J0D01*
G01*
X3780000Y-6700000D02*
G75*
G02*
X3820000Y-6700000I20000J0D01*
G01*
X4095000Y-10775000D02*
G75*
G02*
X4055000Y-10775000I-20000J0D01*
G01*
X4055000Y-10775000D02*
G75*
G02*
X4095000Y-10775000I20000J0D01*
G01*
X4245000Y-5900000D02*
G75*
G02*
X4205000Y-5900000I-20000J0D01*
G01*
X4205000Y-5900000D02*
G75*
G02*
X4245000Y-5900000I20000J0D01*
G01*
X5220000Y-5710000D02*
G75*
G02*
X5180000Y-5710000I-20000J0D01*
G01*
X5180000Y-5710000D02*
G75*
G02*
X5220000Y-5710000I20000J0D01*
G01*
X6588500Y-9671500D02*
G75*
G02*
X6548500Y-9671500I-20000J0D01*
G01*
X6548500Y-9671500D02*
G75*
G02*
X6588500Y-9671500I20000J0D01*
G01*
X7770000Y-10850000D02*
G75*
G02*
X7730000Y-10850000I-20000J0D01*
G01*
X7730000Y-10850000D02*
G75*
G02*
X7770000Y-10850000I20000J0D01*
G01*
X8950000Y-5395000D02*
G75*
G02*
X8910000Y-5395000I-20000J0D01*
G01*
X8910000Y-5395000D02*
G75*
G02*
X8950000Y-5395000I20000J0D01*
G01*
X9460000Y-5160000D02*
G75*
G02*
X9420000Y-5160000I-20000J0D01*
G01*
X9420000Y-5160000D02*
G75*
G02*
X9460000Y-5160000I20000J0D01*
G01*
X9470000Y-10200000D02*
G75*
G02*
X9430000Y-10200000I-20000J0D01*
G01*
X9430000Y-10200000D02*
G75*
G02*
X9470000Y-10200000I20000J0D01*
G01*
X9595000Y-10550000D02*
G75*
G02*
X9555000Y-10550000I-20000J0D01*
G01*
X9555000Y-10550000D02*
G75*
G02*
X9595000Y-10550000I20000J0D01*
G01*
X9617783Y-10984821D02*
G75*
G02*
X9577783Y-10984821I-20000J0D01*
G01*
X9577783Y-10984821D02*
G75*
G02*
X9617783Y-10984821I20000J0D01*
G01*
X9670000Y-11825000D02*
G75*
G02*
X9630000Y-11825000I-20000J0D01*
G01*
X9630000Y-11825000D02*
G75*
G02*
X9670000Y-11825000I20000J0D01*
G01*
X10195000Y-9925000D02*
G75*
G02*
X10155000Y-9925000I-20000J0D01*
G01*
X10155000Y-9925000D02*
G75*
G02*
X10195000Y-9925000I20000J0D01*
G01*
X11150000Y-5970000D02*
G75*
G02*
X11110000Y-5970000I-20000J0D01*
G01*
X11110000Y-5970000D02*
G75*
G02*
X11150000Y-5970000I20000J0D01*
G01*
X11277500Y-7010000D02*
G75*
G02*
X11237500Y-7010000I-20000J0D01*
G01*
X11237500Y-7010000D02*
G75*
G02*
X11277500Y-7010000I20000J0D01*
G01*
X11485000Y-5987500D02*
G75*
G02*
X11445000Y-5987500I-20000J0D01*
G01*
X11445000Y-5987500D02*
G75*
G02*
X11485000Y-5987500I20000J0D01*
G01*
X11545000Y-6485000D02*
G75*
G02*
X11505000Y-6485000I-20000J0D01*
G01*
X11505000Y-6485000D02*
G75*
G02*
X11545000Y-6485000I20000J0D01*
G01*
X11940000Y-6730000D02*
G75*
G02*
X11900000Y-6730000I-20000J0D01*
G01*
X11900000Y-6730000D02*
G75*
G02*
X11940000Y-6730000I20000J0D01*
G01*
X12130000Y-6955000D02*
G75*
G02*
X12090000Y-6955000I-20000J0D01*
G01*
X12090000Y-6955000D02*
G75*
G02*
X12130000Y-6955000I20000J0D01*
G01*
X12145000Y-10200000D02*
G75*
G02*
X12105000Y-10200000I-20000J0D01*
G01*
X12105000Y-10200000D02*
G75*
G02*
X12145000Y-10200000I20000J0D01*
G01*
X12370000Y-7290000D02*
G75*
G02*
X12330000Y-7290000I-20000J0D01*
G01*
X12330000Y-7290000D02*
G75*
G02*
X12370000Y-7290000I20000J0D01*
G01*
X12370000Y-8325000D02*
G75*
G02*
X12330000Y-8325000I-20000J0D01*
G01*
X12330000Y-8325000D02*
G75*
G02*
X12370000Y-8325000I20000J0D01*
G01*
X12420000Y-9100000D02*
G75*
G02*
X12380000Y-9100000I-20000J0D01*
G01*
X12380000Y-9100000D02*
G75*
G02*
X12420000Y-9100000I20000J0D01*
G01*
X12580000Y-6870000D02*
G75*
G02*
X12540000Y-6870000I-20000J0D01*
G01*
X12540000Y-6870000D02*
G75*
G02*
X12580000Y-6870000I20000J0D01*
G01*
X12640000Y-7100000D02*
G75*
G02*
X12600000Y-7100000I-20000J0D01*
G01*
X12600000Y-7100000D02*
G75*
G02*
X12640000Y-7100000I20000J0D01*
G01*
X12852500Y-6507500D02*
G75*
G02*
X12812500Y-6507500I-20000J0D01*
G01*
X12812500Y-6507500D02*
G75*
G02*
X12852500Y-6507500I20000J0D01*
G01*
X12995000Y-8225000D02*
G75*
G02*
X12955000Y-8225000I-20000J0D01*
G01*
X12955000Y-8225000D02*
G75*
G02*
X12995000Y-8225000I20000J0D01*
G01*
X13545000Y-9650000D02*
G75*
G02*
X13505000Y-9650000I-20000J0D01*
G01*
X13505000Y-9650000D02*
G75*
G02*
X13545000Y-9650000I20000J0D01*
G01*
X13645000Y-6475000D02*
G75*
G02*
X13605000Y-6475000I-20000J0D01*
G01*
X13605000Y-6475000D02*
G75*
G02*
X13645000Y-6475000I20000J0D01*
G01*
X13695000Y-7080000D02*
G75*
G02*
X13655000Y-7080000I-20000J0D01*
G01*
X13655000Y-7080000D02*
G75*
G02*
X13695000Y-7080000I20000J0D01*
G01*
X13817500Y-7382500D02*
G75*
G02*
X13777500Y-7382500I-20000J0D01*
G01*
X13777500Y-7382500D02*
G75*
G02*
X13817500Y-7382500I20000J0D01*
G01*
X14720000Y-9600000D02*
G75*
G02*
X14680000Y-9600000I-20000J0D01*
G01*
X14680000Y-9600000D02*
G75*
G02*
X14720000Y-9600000I20000J0D01*
G01*
X15155040Y-11098900D02*
G75*
G02*
X15115040Y-11098900I-20000J0D01*
G01*
X15115040Y-11098900D02*
G75*
G02*
X15155040Y-11098900I20000J0D01*
G01*
X5839032Y-11821746D02*
X5839032Y-11861746D01*
X5819032Y-11841746D02*
X5859032Y-11841746D01*
X5839032Y-11956746D02*
X5839032Y-11996746D01*
X5819032Y-11976746D02*
X5859032Y-11976746D01*
X5924032Y-11821746D02*
X5924032Y-11861746D01*
X5904032Y-11841746D02*
X5944032Y-11841746D01*
X5924032Y-11956746D02*
X5924032Y-11996746D01*
X5904032Y-11976746D02*
X5944032Y-11976746D01*
X6009032Y-11821746D02*
X6009032Y-11861746D01*
X5989032Y-11841746D02*
X6029032Y-11841746D01*
X6009032Y-11956746D02*
X6009032Y-11996746D01*
X5989032Y-11976746D02*
X6029032Y-11976746D01*
X6094032Y-11821746D02*
X6094032Y-11861746D01*
X6074032Y-11841746D02*
X6114032Y-11841746D01*
X6094032Y-11956746D02*
X6094032Y-11996746D01*
X6074032Y-11976746D02*
X6114032Y-11976746D01*
X6179032Y-11821746D02*
X6179032Y-11861746D01*
X6159032Y-11841746D02*
X6199032Y-11841746D01*
X6179032Y-11956746D02*
X6179032Y-11996746D01*
X6159032Y-11976746D02*
X6199032Y-11976746D01*
X6264032Y-11821746D02*
X6264032Y-11861746D01*
X6244032Y-11841746D02*
X6284032Y-11841746D01*
X6264032Y-11956746D02*
X6264032Y-11996746D01*
X6244032Y-11976746D02*
X6284032Y-11976746D01*
X6349032Y-11821746D02*
X6349032Y-11861746D01*
X6329032Y-11841746D02*
X6369032Y-11841746D01*
X6349032Y-11956746D02*
X6349032Y-11996746D01*
X6329032Y-11976746D02*
X6369032Y-11976746D01*
X6434032Y-11821746D02*
X6434032Y-11861746D01*
X6414032Y-11841746D02*
X6454032Y-11841746D01*
X6434032Y-11956746D02*
X6434032Y-11996746D01*
X6414032Y-11976746D02*
X6454032Y-11976746D01*
X14674000Y-10785000D02*
X14674000Y-10825000D01*
X14654000Y-10805000D02*
X14694000Y-10805000D01*
X14674000Y-10870000D02*
X14674000Y-10910000D01*
X14654000Y-10890000D02*
X14694000Y-10890000D01*
X14674000Y-10955000D02*
X14674000Y-10995000D01*
X14654000Y-10975000D02*
X14694000Y-10975000D01*
X14674000Y-11040000D02*
X14674000Y-11080000D01*
X14654000Y-11060000D02*
X14694000Y-11060000D01*
X14674000Y-11125000D02*
X14674000Y-11165000D01*
X14654000Y-11145000D02*
X14694000Y-11145000D01*
X14674000Y-11210000D02*
X14674000Y-11250000D01*
X14654000Y-11230000D02*
X14694000Y-11230000D01*
X14674000Y-11295000D02*
X14674000Y-11335000D01*
X14654000Y-11315000D02*
X14694000Y-11315000D01*
X14674000Y-11380000D02*
X14674000Y-11420000D01*
X14654000Y-11400000D02*
X14694000Y-11400000D01*
X14809000Y-10785000D02*
X14809000Y-10825000D01*
X14789000Y-10805000D02*
X14829000Y-10805000D01*
X14809000Y-10870000D02*
X14809000Y-10910000D01*
X14789000Y-10890000D02*
X14829000Y-10890000D01*
X14809000Y-10955000D02*
X14809000Y-10995000D01*
X14789000Y-10975000D02*
X14829000Y-10975000D01*
X14809000Y-11040000D02*
X14809000Y-11080000D01*
X14789000Y-11060000D02*
X14829000Y-11060000D01*
X14809000Y-11125000D02*
X14809000Y-11165000D01*
X14789000Y-11145000D02*
X14829000Y-11145000D01*
X14809000Y-11210000D02*
X14809000Y-11250000D01*
X14789000Y-11230000D02*
X14829000Y-11230000D01*
X14809000Y-11295000D02*
X14809000Y-11335000D01*
X14789000Y-11315000D02*
X14829000Y-11315000D01*
X14809000Y-11380000D02*
X14809000Y-11420000D01*
X14789000Y-11400000D02*
X14829000Y-11400000D01*
X14356446Y-6653446D02*
X14356446Y-6614554D01*
X14317554Y-6614554D01*
X14317554Y-6653446D01*
X14356446Y-6653446D01*
X14356446Y-6753446D02*
X14356446Y-6714554D01*
X14317554Y-6714554D01*
X14317554Y-6753446D01*
X14356446Y-6753446D01*
X14356446Y-6853446D02*
X14356446Y-6814554D01*
X14317554Y-6814554D01*
X14317554Y-6853446D01*
X14356446Y-6853446D01*
X14356446Y-6953446D02*
X14356446Y-6914554D01*
X14317554Y-6914554D01*
X14317554Y-6953446D01*
X14356446Y-6953446D01*
X14356446Y-7053446D02*
X14356446Y-7014554D01*
X14317554Y-7014554D01*
X14317554Y-7053446D01*
X14356446Y-7053446D01*
X14356446Y-7153446D02*
X14356446Y-7114554D01*
X14317554Y-7114554D01*
X14317554Y-7153446D01*
X14356446Y-7153446D01*
X14356446Y-7253446D02*
X14356446Y-7214554D01*
X14317554Y-7214554D01*
X14317554Y-7253446D01*
X14356446Y-7253446D01*
X14356446Y-7353446D02*
X14356446Y-7314554D01*
X14317554Y-7314554D01*
X14317554Y-7353446D01*
X14356446Y-7353446D01*
X14356446Y-7453446D02*
X14356446Y-7414554D01*
X14317554Y-7414554D01*
X14317554Y-7453446D01*
X14356446Y-7453446D01*
X14511446Y-6603446D02*
X14511446Y-6564554D01*
X14472554Y-6564554D01*
X14472554Y-6603446D01*
X14511446Y-6603446D01*
X14511446Y-6703446D02*
X14511446Y-6664554D01*
X14472554Y-6664554D01*
X14472554Y-6703446D01*
X14511446Y-6703446D01*
X14511446Y-6803446D02*
X14511446Y-6764554D01*
X14472554Y-6764554D01*
X14472554Y-6803446D01*
X14511446Y-6803446D01*
X14511446Y-6903446D02*
X14511446Y-6864554D01*
X14472554Y-6864554D01*
X14472554Y-6903446D01*
X14511446Y-6903446D01*
X14511446Y-7003446D02*
X14511446Y-6964554D01*
X14472554Y-6964554D01*
X14472554Y-7003446D01*
X14511446Y-7003446D01*
X14511446Y-7103446D02*
X14511446Y-7064554D01*
X14472554Y-7064554D01*
X14472554Y-7103446D01*
X14511446Y-7103446D01*
X14511446Y-7203446D02*
X14511446Y-7164554D01*
X14472554Y-7164554D01*
X14472554Y-7203446D01*
X14511446Y-7203446D01*
X14511446Y-7303446D02*
X14511446Y-7264554D01*
X14472554Y-7264554D01*
X14472554Y-7303446D01*
X14511446Y-7303446D01*
X14511446Y-7403446D02*
X14511446Y-7364554D01*
X14472554Y-7364554D01*
X14472554Y-7403446D01*
X14511446Y-7403446D01*
X14511446Y-7503446D02*
X14511446Y-7464554D01*
X14472554Y-7464554D01*
X14472554Y-7503446D01*
X14511446Y-7503446D01*
X5704032Y-11969746D02*
X5734032Y-11939746D01*
X5704032Y-11909746D01*
X5674032Y-11939746D01*
X5704032Y-11969746D01*
X5674032Y-11864746D02*
X5674032Y-12014746D01*
X5734032Y-12014746D02*
G75*
G02*
X5674032Y-12014746I-30000J0D01*
G01*
X5734032Y-12014746D02*
X5734032Y-11864746D01*
X5734032Y-11864746D02*
G75*
G03*
X5674032Y-11864746I-30000J0D01*
G01*
X5704032Y-12307746D02*
X5734032Y-12277746D01*
X5704032Y-12247746D01*
X5674032Y-12277746D01*
X5704032Y-12307746D01*
X5674032Y-12237746D02*
X5674032Y-12317746D01*
X5734032Y-12317746D02*
G75*
G02*
X5674032Y-12317746I-30000J0D01*
G01*
X5734032Y-12317746D02*
X5734032Y-12237746D01*
X5734032Y-12237746D02*
G75*
G03*
X5674032Y-12237746I-30000J0D01*
G01*
X6569032Y-11969746D02*
X6599032Y-11939746D01*
X6569032Y-11909746D01*
X6539032Y-11939746D01*
X6569032Y-11969746D01*
X6539032Y-11864746D02*
X6539032Y-12014746D01*
X6599032Y-12014746D02*
G75*
G02*
X6539032Y-12014746I-30000J0D01*
G01*
X6599032Y-12014746D02*
X6599032Y-11864746D01*
X6599032Y-11864746D02*
G75*
G03*
X6539032Y-11864746I-30000J0D01*
G01*
X6569032Y-12307746D02*
X6599032Y-12277746D01*
X6569032Y-12247746D01*
X6539032Y-12277746D01*
X6569032Y-12307746D01*
X6539032Y-12237746D02*
X6539032Y-12317746D01*
X6599032Y-12317746D02*
G75*
G02*
X6539032Y-12317746I-30000J0D01*
G01*
X6599032Y-12317746D02*
X6599032Y-12237746D01*
X6599032Y-12237746D02*
G75*
G03*
X6539032Y-12237746I-30000J0D01*
G01*
X14772000Y-10700000D02*
X14802000Y-10670000D01*
X14772000Y-10640000D01*
X14742000Y-10670000D01*
X14772000Y-10700000D01*
X14697000Y-10700000D02*
X14847000Y-10700000D01*
X14847000Y-10640000D02*
G75*
G02*
X14847000Y-10700000I0J-30000D01*
G01*
X14847000Y-10640000D02*
X14697000Y-10640000D01*
X14697000Y-10640000D02*
G75*
G03*
X14697000Y-10700000I0J-30000D01*
G01*
X14772000Y-11565000D02*
X14802000Y-11535000D01*
X14772000Y-11505000D01*
X14742000Y-11535000D01*
X14772000Y-11565000D01*
X14697000Y-11565000D02*
X14847000Y-11565000D01*
X14847000Y-11505000D02*
G75*
G02*
X14847000Y-11565000I0J-30000D01*
G01*
X14847000Y-11505000D02*
X14697000Y-11505000D01*
X14697000Y-11505000D02*
G75*
G03*
X14697000Y-11565000I0J-30000D01*
G01*
X15110000Y-10700000D02*
X15140000Y-10670000D01*
X15110000Y-10640000D01*
X15080000Y-10670000D01*
X15110000Y-10700000D01*
X15070000Y-10700000D02*
X15150000Y-10700000D01*
X15150000Y-10640000D02*
G75*
G02*
X15150000Y-10700000I0J-30000D01*
G01*
X15150000Y-10640000D02*
X15070000Y-10640000D01*
X15070000Y-10640000D02*
G75*
G03*
X15070000Y-10700000I0J-30000D01*
G01*
X15110000Y-11565000D02*
X15140000Y-11535000D01*
X15110000Y-11505000D01*
X15080000Y-11535000D01*
X15110000Y-11565000D01*
X15070000Y-11565000D02*
X15150000Y-11565000D01*
X15150000Y-11505000D02*
G75*
G02*
X15150000Y-11565000I0J-30000D01*
G01*
X15150000Y-11505000D02*
X15070000Y-11505000D01*
X15070000Y-11505000D02*
G75*
G03*
X15070000Y-11565000I0J-30000D01*
G01*
X14280000Y-6079000D02*
X14360000Y-6159000D01*
X14360000Y-6079000D02*
X14280000Y-6159000D01*
X14360000Y-6119000D02*
G75*
G02*
X14280000Y-6119000I-40000J0D01*
G01*
X14280000Y-6119000D02*
G75*
G02*
X14360000Y-6119000I40000J0D01*
G01*
X14255000Y-6159000D02*
X14385000Y-6159000D01*
X14385000Y-6079000D02*
G75*
G02*
X14385000Y-6159000I0J-40000D01*
G01*
X14385000Y-6079000D02*
X14255000Y-6079000D01*
X14255000Y-6079000D02*
G75*
G03*
X14255000Y-6159000I0J-40000D01*
G01*
X14280000Y-7909000D02*
X14360000Y-7989000D01*
X14360000Y-7909000D02*
X14280000Y-7989000D01*
X14360000Y-7949000D02*
G75*
G02*
X14280000Y-7949000I-40000J0D01*
G01*
X14280000Y-7949000D02*
G75*
G02*
X14360000Y-7949000I40000J0D01*
G01*
X14255000Y-7989000D02*
X14385000Y-7989000D01*
X14385000Y-7909000D02*
G75*
G02*
X14385000Y-7989000I0J-40000D01*
G01*
X14385000Y-7909000D02*
X14255000Y-7909000D01*
X14255000Y-7909000D02*
G75*
G03*
X14255000Y-7989000I0J-40000D01*
G01*
X14990000Y-6079000D02*
X15070000Y-6159000D01*
X15070000Y-6079000D02*
X14990000Y-6159000D01*
X15070000Y-6119000D02*
G75*
G02*
X14990000Y-6119000I-40000J0D01*
G01*
X14990000Y-6119000D02*
G75*
G02*
X15070000Y-6119000I40000J0D01*
G01*
X14965000Y-6159000D02*
X15095000Y-6159000D01*
X15095000Y-6079000D02*
G75*
G02*
X15095000Y-6159000I0J-40000D01*
G01*
X15095000Y-6079000D02*
X14965000Y-6079000D01*
X14965000Y-6079000D02*
G75*
G03*
X14965000Y-6159000I0J-40000D01*
G01*
X14990000Y-7909000D02*
X15070000Y-7989000D01*
X15070000Y-7909000D02*
X14990000Y-7989000D01*
X15070000Y-7949000D02*
G75*
G02*
X14990000Y-7949000I-40000J0D01*
G01*
X14990000Y-7949000D02*
G75*
G02*
X15070000Y-7949000I40000J0D01*
G01*
X14965000Y-7989000D02*
X15095000Y-7989000D01*
X15095000Y-7909000D02*
G75*
G02*
X15095000Y-7989000I0J-40000D01*
G01*
X15095000Y-7909000D02*
X14965000Y-7909000D01*
X14965000Y-7909000D02*
G75*
G03*
X14965000Y-7989000I0J-40000D01*
G01*
X6112500Y-5232500D02*
X6207500Y-5327500D01*
X6207500Y-5232500D02*
X6112500Y-5327500D01*
X6160000Y-5232500D02*
X6160000Y-5327500D01*
X6112500Y-5280000D02*
X6207500Y-5280000D01*
X6362500Y-5232500D02*
X6457500Y-5327500D01*
X6457500Y-5232500D02*
X6362500Y-5327500D01*
X6410000Y-5232500D02*
X6410000Y-5327500D01*
X6362500Y-5280000D02*
X6457500Y-5280000D01*
X6562500Y-5232500D02*
X6657500Y-5327500D01*
X6657500Y-5232500D02*
X6562500Y-5327500D01*
X6610000Y-5232500D02*
X6610000Y-5327500D01*
X6562500Y-5280000D02*
X6657500Y-5280000D01*
X6812500Y-5232500D02*
X6907500Y-5327500D01*
X6907500Y-5232500D02*
X6812500Y-5327500D01*
X6860000Y-5232500D02*
X6860000Y-5327500D01*
X6812500Y-5280000D02*
X6907500Y-5280000D01*
X4518000Y-4268000D02*
X4618000Y-4368000D01*
X4618000Y-4268000D02*
X4518000Y-4368000D01*
X4603356Y-4353356D02*
X4603356Y-4282644D01*
X4532644Y-4282644D01*
X4532644Y-4353356D01*
X4603356Y-4353356D01*
X4518000Y-4522000D02*
X4618000Y-4622000D01*
X4618000Y-4522000D02*
X4518000Y-4622000D01*
X4603356Y-4607356D02*
X4603356Y-4536644D01*
X4532644Y-4536644D01*
X4532644Y-4607356D01*
X4603356Y-4607356D01*
X4518000Y-4776000D02*
X4618000Y-4876000D01*
X4618000Y-4776000D02*
X4518000Y-4876000D01*
X4603356Y-4861356D02*
X4603356Y-4790644D01*
X4532644Y-4790644D01*
X4532644Y-4861356D01*
X4603356Y-4861356D01*
X4518000Y-5030000D02*
X4618000Y-5130000D01*
X4618000Y-5030000D02*
X4518000Y-5130000D01*
X4603356Y-5115356D02*
X4603356Y-5044644D01*
X4532644Y-5044644D01*
X4532644Y-5115356D01*
X4603356Y-5115356D01*
X4518000Y-5284000D02*
X4618000Y-5384000D01*
X4618000Y-5284000D02*
X4518000Y-5384000D01*
X4603356Y-5369356D02*
X4603356Y-5298644D01*
X4532644Y-5298644D01*
X4532644Y-5369356D01*
X4603356Y-5369356D01*
X4518000Y-5538000D02*
X4618000Y-5638000D01*
X4618000Y-5538000D02*
X4518000Y-5638000D01*
X4603356Y-5623356D02*
X4603356Y-5552644D01*
X4532644Y-5552644D01*
X4532644Y-5623356D01*
X4603356Y-5623356D01*
X4518000Y-5792000D02*
X4618000Y-5892000D01*
X4618000Y-5792000D02*
X4518000Y-5892000D01*
X4603356Y-5877356D02*
X4603356Y-5806644D01*
X4532644Y-5806644D01*
X4532644Y-5877356D01*
X4603356Y-5877356D01*
X4518000Y-6046000D02*
X4618000Y-6146000D01*
X4618000Y-6046000D02*
X4518000Y-6146000D01*
X4603356Y-6131356D02*
X4603356Y-6060644D01*
X4532644Y-6060644D01*
X4532644Y-6131356D01*
X4603356Y-6131356D01*
X4518000Y-6300000D02*
X4618000Y-6400000D01*
X4618000Y-6300000D02*
X4518000Y-6400000D01*
X4603356Y-6385356D02*
X4603356Y-6314644D01*
X4532644Y-6314644D01*
X4532644Y-6385356D01*
X4603356Y-6385356D01*
X4518000Y-6554000D02*
X4618000Y-6654000D01*
X4618000Y-6554000D02*
X4518000Y-6654000D01*
X4603356Y-6639356D02*
X4603356Y-6568644D01*
X4532644Y-6568644D01*
X4532644Y-6639356D01*
X4603356Y-6639356D01*
X4518000Y-6808000D02*
X4618000Y-6908000D01*
X4618000Y-6808000D02*
X4518000Y-6908000D01*
X4603356Y-6893356D02*
X4603356Y-6822644D01*
X4532644Y-6822644D01*
X4532644Y-6893356D01*
X4603356Y-6893356D01*
X4518000Y-7062000D02*
X4618000Y-7162000D01*
X4618000Y-7062000D02*
X4518000Y-7162000D01*
X4603356Y-7147356D02*
X4603356Y-7076644D01*
X4532644Y-7076644D01*
X4532644Y-7147356D01*
X4603356Y-7147356D01*
X4518000Y-7316000D02*
X4618000Y-7416000D01*
X4618000Y-7316000D02*
X4518000Y-7416000D01*
X4603356Y-7401356D02*
X4603356Y-7330644D01*
X4532644Y-7330644D01*
X4532644Y-7401356D01*
X4603356Y-7401356D01*
X4518000Y-7570000D02*
X4618000Y-7670000D01*
X4618000Y-7570000D02*
X4518000Y-7670000D01*
X4603356Y-7655356D02*
X4603356Y-7584644D01*
X4532644Y-7584644D01*
X4532644Y-7655356D01*
X4603356Y-7655356D01*
X4518000Y-7824000D02*
X4618000Y-7924000D01*
X4618000Y-7824000D02*
X4518000Y-7924000D01*
X4603356Y-7909356D02*
X4603356Y-7838644D01*
X4532644Y-7838644D01*
X4532644Y-7909356D01*
X4603356Y-7909356D01*
X4518000Y-8078000D02*
X4618000Y-8178000D01*
X4618000Y-8078000D02*
X4518000Y-8178000D01*
X4603356Y-8163356D02*
X4603356Y-8092644D01*
X4532644Y-8092644D01*
X4532644Y-8163356D01*
X4603356Y-8163356D01*
X4518000Y-8332000D02*
X4618000Y-8432000D01*
X4618000Y-8332000D02*
X4518000Y-8432000D01*
X4603356Y-8417356D02*
X4603356Y-8346644D01*
X4532644Y-8346644D01*
X4532644Y-8417356D01*
X4603356Y-8417356D01*
X4518000Y-8586000D02*
X4618000Y-8686000D01*
X4618000Y-8586000D02*
X4518000Y-8686000D01*
X4603356Y-8671356D02*
X4603356Y-8600644D01*
X4532644Y-8600644D01*
X4532644Y-8671356D01*
X4603356Y-8671356D01*
X4518000Y-9094000D02*
X4618000Y-9194000D01*
X4618000Y-9094000D02*
X4518000Y-9194000D01*
X4603356Y-9179356D02*
X4603356Y-9108644D01*
X4532644Y-9108644D01*
X4532644Y-9179356D01*
X4603356Y-9179356D01*
X4518000Y-9348000D02*
X4618000Y-9448000D01*
X4618000Y-9348000D02*
X4518000Y-9448000D01*
X4603356Y-9433356D02*
X4603356Y-9362644D01*
X4532644Y-9362644D01*
X4532644Y-9433356D01*
X4603356Y-9433356D01*
X4518000Y-9602000D02*
X4618000Y-9702000D01*
X4618000Y-9602000D02*
X4518000Y-9702000D01*
X4603356Y-9687356D02*
X4603356Y-9616644D01*
X4532644Y-9616644D01*
X4532644Y-9687356D01*
X4603356Y-9687356D01*
X4518000Y-9856000D02*
X4618000Y-9956000D01*
X4618000Y-9856000D02*
X4518000Y-9956000D01*
X4603356Y-9941356D02*
X4603356Y-9870644D01*
X4532644Y-9870644D01*
X4532644Y-9941356D01*
X4603356Y-9941356D01*
X4518000Y-10110000D02*
X4618000Y-10210000D01*
X4618000Y-10110000D02*
X4518000Y-10210000D01*
X4603356Y-10195356D02*
X4603356Y-10124644D01*
X4532644Y-10124644D01*
X4532644Y-10195356D01*
X4603356Y-10195356D01*
X4518000Y-10364000D02*
X4618000Y-10464000D01*
X4618000Y-10364000D02*
X4518000Y-10464000D01*
X4603356Y-10449356D02*
X4603356Y-10378644D01*
X4532644Y-10378644D01*
X4532644Y-10449356D01*
X4603356Y-10449356D01*
X4518000Y-10618000D02*
X4618000Y-10718000D01*
X4618000Y-10618000D02*
X4518000Y-10718000D01*
X4603356Y-10703356D02*
X4603356Y-10632644D01*
X4532644Y-10632644D01*
X4532644Y-10703356D01*
X4603356Y-10703356D01*
X4518000Y-10872000D02*
X4618000Y-10972000D01*
X4618000Y-10872000D02*
X4518000Y-10972000D01*
X4603356Y-10957356D02*
X4603356Y-10886644D01*
X4532644Y-10886644D01*
X4532644Y-10957356D01*
X4603356Y-10957356D01*
X4518000Y-11126000D02*
X4618000Y-11226000D01*
X4618000Y-11126000D02*
X4518000Y-11226000D01*
X4603356Y-11211356D02*
X4603356Y-11140644D01*
X4532644Y-11140644D01*
X4532644Y-11211356D01*
X4603356Y-11211356D01*
X4518000Y-11380000D02*
X4618000Y-11480000D01*
X4618000Y-11380000D02*
X4518000Y-11480000D01*
X4603356Y-11465356D02*
X4603356Y-11394644D01*
X4532644Y-11394644D01*
X4532644Y-11465356D01*
X4603356Y-11465356D01*
X4518000Y-11634000D02*
X4618000Y-11734000D01*
X4618000Y-11634000D02*
X4518000Y-11734000D01*
X4603356Y-11719356D02*
X4603356Y-11648644D01*
X4532644Y-11648644D01*
X4532644Y-11719356D01*
X4603356Y-11719356D01*
X4518000Y-11888000D02*
X4618000Y-11988000D01*
X4618000Y-11888000D02*
X4518000Y-11988000D01*
X4603356Y-11973356D02*
X4603356Y-11902644D01*
X4532644Y-11902644D01*
X4532644Y-11973356D01*
X4603356Y-11973356D01*
X4518000Y-12142000D02*
X4618000Y-12242000D01*
X4618000Y-12142000D02*
X4518000Y-12242000D01*
X4603356Y-12227356D02*
X4603356Y-12156644D01*
X4532644Y-12156644D01*
X4532644Y-12227356D01*
X4603356Y-12227356D01*
X4772000Y-4268000D02*
X4872000Y-4368000D01*
X4872000Y-4268000D02*
X4772000Y-4368000D01*
X4857356Y-4353356D02*
X4857356Y-4282644D01*
X4786644Y-4282644D01*
X4786644Y-4353356D01*
X4857356Y-4353356D01*
X4772000Y-4522000D02*
X4872000Y-4622000D01*
X4872000Y-4522000D02*
X4772000Y-4622000D01*
X4857356Y-4607356D02*
X4857356Y-4536644D01*
X4786644Y-4536644D01*
X4786644Y-4607356D01*
X4857356Y-4607356D01*
X4772000Y-4776000D02*
X4872000Y-4876000D01*
X4872000Y-4776000D02*
X4772000Y-4876000D01*
X4857356Y-4861356D02*
X4857356Y-4790644D01*
X4786644Y-4790644D01*
X4786644Y-4861356D01*
X4857356Y-4861356D01*
X4772000Y-5030000D02*
X4872000Y-5130000D01*
X4872000Y-5030000D02*
X4772000Y-5130000D01*
X4857356Y-5115356D02*
X4857356Y-5044644D01*
X4786644Y-5044644D01*
X4786644Y-5115356D01*
X4857356Y-5115356D01*
X4772000Y-5284000D02*
X4872000Y-5384000D01*
X4872000Y-5284000D02*
X4772000Y-5384000D01*
X4857356Y-5369356D02*
X4857356Y-5298644D01*
X4786644Y-5298644D01*
X4786644Y-5369356D01*
X4857356Y-5369356D01*
X4772000Y-5538000D02*
X4872000Y-5638000D01*
X4872000Y-5538000D02*
X4772000Y-5638000D01*
X4857356Y-5623356D02*
X4857356Y-5552644D01*
X4786644Y-5552644D01*
X4786644Y-5623356D01*
X4857356Y-5623356D01*
X4772000Y-5792000D02*
X4872000Y-5892000D01*
X4872000Y-5792000D02*
X4772000Y-5892000D01*
X4857356Y-5877356D02*
X4857356Y-5806644D01*
X4786644Y-5806644D01*
X4786644Y-5877356D01*
X4857356Y-5877356D01*
X4772000Y-6046000D02*
X4872000Y-6146000D01*
X4872000Y-6046000D02*
X4772000Y-6146000D01*
X4857356Y-6131356D02*
X4857356Y-6060644D01*
X4786644Y-6060644D01*
X4786644Y-6131356D01*
X4857356Y-6131356D01*
X4772000Y-6300000D02*
X4872000Y-6400000D01*
X4872000Y-6300000D02*
X4772000Y-6400000D01*
X4857356Y-6385356D02*
X4857356Y-6314644D01*
X4786644Y-6314644D01*
X4786644Y-6385356D01*
X4857356Y-6385356D01*
X4772000Y-6554000D02*
X4872000Y-6654000D01*
X4872000Y-6554000D02*
X4772000Y-6654000D01*
X4857356Y-6639356D02*
X4857356Y-6568644D01*
X4786644Y-6568644D01*
X4786644Y-6639356D01*
X4857356Y-6639356D01*
X4772000Y-6808000D02*
X4872000Y-6908000D01*
X4872000Y-6808000D02*
X4772000Y-6908000D01*
X4857356Y-6893356D02*
X4857356Y-6822644D01*
X4786644Y-6822644D01*
X4786644Y-6893356D01*
X4857356Y-6893356D01*
X4772000Y-7062000D02*
X4872000Y-7162000D01*
X4872000Y-7062000D02*
X4772000Y-7162000D01*
X4857356Y-7147356D02*
X4857356Y-7076644D01*
X4786644Y-7076644D01*
X4786644Y-7147356D01*
X4857356Y-7147356D01*
X4772000Y-7316000D02*
X4872000Y-7416000D01*
X4872000Y-7316000D02*
X4772000Y-7416000D01*
X4857356Y-7401356D02*
X4857356Y-7330644D01*
X4786644Y-7330644D01*
X4786644Y-7401356D01*
X4857356Y-7401356D01*
X4772000Y-7570000D02*
X4872000Y-7670000D01*
X4872000Y-7570000D02*
X4772000Y-7670000D01*
X4857356Y-7655356D02*
X4857356Y-7584644D01*
X4786644Y-7584644D01*
X4786644Y-7655356D01*
X4857356Y-7655356D01*
X4772000Y-7824000D02*
X4872000Y-7924000D01*
X4872000Y-7824000D02*
X4772000Y-7924000D01*
X4857356Y-7909356D02*
X4857356Y-7838644D01*
X4786644Y-7838644D01*
X4786644Y-7909356D01*
X4857356Y-7909356D01*
X4772000Y-8078000D02*
X4872000Y-8178000D01*
X4872000Y-8078000D02*
X4772000Y-8178000D01*
X4857356Y-8163356D02*
X4857356Y-8092644D01*
X4786644Y-8092644D01*
X4786644Y-8163356D01*
X4857356Y-8163356D01*
X4772000Y-8332000D02*
X4872000Y-8432000D01*
X4872000Y-8332000D02*
X4772000Y-8432000D01*
X4857356Y-8417356D02*
X4857356Y-8346644D01*
X4786644Y-8346644D01*
X4786644Y-8417356D01*
X4857356Y-8417356D01*
X4772000Y-8586000D02*
X4872000Y-8686000D01*
X4872000Y-8586000D02*
X4772000Y-8686000D01*
X4857356Y-8671356D02*
X4857356Y-8600644D01*
X4786644Y-8600644D01*
X4786644Y-8671356D01*
X4857356Y-8671356D01*
X4772000Y-9094000D02*
X4872000Y-9194000D01*
X4872000Y-9094000D02*
X4772000Y-9194000D01*
X4857356Y-9179356D02*
X4857356Y-9108644D01*
X4786644Y-9108644D01*
X4786644Y-9179356D01*
X4857356Y-9179356D01*
X4772000Y-9348000D02*
X4872000Y-9448000D01*
X4872000Y-9348000D02*
X4772000Y-9448000D01*
X4857356Y-9433356D02*
X4857356Y-9362644D01*
X4786644Y-9362644D01*
X4786644Y-9433356D01*
X4857356Y-9433356D01*
X4772000Y-9602000D02*
X4872000Y-9702000D01*
X4872000Y-9602000D02*
X4772000Y-9702000D01*
X4857356Y-9687356D02*
X4857356Y-9616644D01*
X4786644Y-9616644D01*
X4786644Y-9687356D01*
X4857356Y-9687356D01*
X4772000Y-9856000D02*
X4872000Y-9956000D01*
X4872000Y-9856000D02*
X4772000Y-9956000D01*
X4857356Y-9941356D02*
X4857356Y-9870644D01*
X4786644Y-9870644D01*
X4786644Y-9941356D01*
X4857356Y-9941356D01*
X4772000Y-10110000D02*
X4872000Y-10210000D01*
X4872000Y-10110000D02*
X4772000Y-10210000D01*
X4857356Y-10195356D02*
X4857356Y-10124644D01*
X4786644Y-10124644D01*
X4786644Y-10195356D01*
X4857356Y-10195356D01*
X4772000Y-10364000D02*
X4872000Y-10464000D01*
X4872000Y-10364000D02*
X4772000Y-10464000D01*
X4857356Y-10449356D02*
X4857356Y-10378644D01*
X4786644Y-10378644D01*
X4786644Y-10449356D01*
X4857356Y-10449356D01*
X4772000Y-10618000D02*
X4872000Y-10718000D01*
X4872000Y-10618000D02*
X4772000Y-10718000D01*
X4857356Y-10703356D02*
X4857356Y-10632644D01*
X4786644Y-10632644D01*
X4786644Y-10703356D01*
X4857356Y-10703356D01*
X4772000Y-10872000D02*
X4872000Y-10972000D01*
X4872000Y-10872000D02*
X4772000Y-10972000D01*
X4857356Y-10957356D02*
X4857356Y-10886644D01*
X4786644Y-10886644D01*
X4786644Y-10957356D01*
X4857356Y-10957356D01*
X4772000Y-11126000D02*
X4872000Y-11226000D01*
X4872000Y-11126000D02*
X4772000Y-11226000D01*
X4857356Y-11211356D02*
X4857356Y-11140644D01*
X4786644Y-11140644D01*
X4786644Y-11211356D01*
X4857356Y-11211356D01*
X4772000Y-11380000D02*
X4872000Y-11480000D01*
X4872000Y-11380000D02*
X4772000Y-11480000D01*
X4857356Y-11465356D02*
X4857356Y-11394644D01*
X4786644Y-11394644D01*
X4786644Y-11465356D01*
X4857356Y-11465356D01*
X4772000Y-11634000D02*
X4872000Y-11734000D01*
X4872000Y-11634000D02*
X4772000Y-11734000D01*
X4857356Y-11719356D02*
X4857356Y-11648644D01*
X4786644Y-11648644D01*
X4786644Y-11719356D01*
X4857356Y-11719356D01*
X4772000Y-11888000D02*
X4872000Y-11988000D01*
X4872000Y-11888000D02*
X4772000Y-11988000D01*
X4857356Y-11973356D02*
X4857356Y-11902644D01*
X4786644Y-11902644D01*
X4786644Y-11973356D01*
X4857356Y-11973356D01*
X4772000Y-12142000D02*
X4872000Y-12242000D01*
X4872000Y-12142000D02*
X4772000Y-12242000D01*
X4857356Y-12227356D02*
X4857356Y-12156644D01*
X4786644Y-12156644D01*
X4786644Y-12227356D01*
X4857356Y-12227356D01*
X10618000Y-4268000D02*
X10718000Y-4368000D01*
X10718000Y-4268000D02*
X10618000Y-4368000D01*
X10703356Y-4353356D02*
X10703356Y-4282644D01*
X10632644Y-4282644D01*
X10632644Y-4353356D01*
X10703356Y-4353356D01*
X10618000Y-4522000D02*
X10718000Y-4622000D01*
X10718000Y-4522000D02*
X10618000Y-4622000D01*
X10703356Y-4607356D02*
X10703356Y-4536644D01*
X10632644Y-4536644D01*
X10632644Y-4607356D01*
X10703356Y-4607356D01*
X10618000Y-4776000D02*
X10718000Y-4876000D01*
X10718000Y-4776000D02*
X10618000Y-4876000D01*
X10703356Y-4861356D02*
X10703356Y-4790644D01*
X10632644Y-4790644D01*
X10632644Y-4861356D01*
X10703356Y-4861356D01*
X10618000Y-5030000D02*
X10718000Y-5130000D01*
X10718000Y-5030000D02*
X10618000Y-5130000D01*
X10703356Y-5115356D02*
X10703356Y-5044644D01*
X10632644Y-5044644D01*
X10632644Y-5115356D01*
X10703356Y-5115356D01*
X10618000Y-5284000D02*
X10718000Y-5384000D01*
X10718000Y-5284000D02*
X10618000Y-5384000D01*
X10703356Y-5369356D02*
X10703356Y-5298644D01*
X10632644Y-5298644D01*
X10632644Y-5369356D01*
X10703356Y-5369356D01*
X10618000Y-5538000D02*
X10718000Y-5638000D01*
X10718000Y-5538000D02*
X10618000Y-5638000D01*
X10703356Y-5623356D02*
X10703356Y-5552644D01*
X10632644Y-5552644D01*
X10632644Y-5623356D01*
X10703356Y-5623356D01*
X10618000Y-5792000D02*
X10718000Y-5892000D01*
X10718000Y-5792000D02*
X10618000Y-5892000D01*
X10703356Y-5877356D02*
X10703356Y-5806644D01*
X10632644Y-5806644D01*
X10632644Y-5877356D01*
X10703356Y-5877356D01*
X10618000Y-6046000D02*
X10718000Y-6146000D01*
X10718000Y-6046000D02*
X10618000Y-6146000D01*
X10703356Y-6131356D02*
X10703356Y-6060644D01*
X10632644Y-6060644D01*
X10632644Y-6131356D01*
X10703356Y-6131356D01*
X10618000Y-6300000D02*
X10718000Y-6400000D01*
X10718000Y-6300000D02*
X10618000Y-6400000D01*
X10703356Y-6385356D02*
X10703356Y-6314644D01*
X10632644Y-6314644D01*
X10632644Y-6385356D01*
X10703356Y-6385356D01*
X10618000Y-6554000D02*
X10718000Y-6654000D01*
X10718000Y-6554000D02*
X10618000Y-6654000D01*
X10703356Y-6639356D02*
X10703356Y-6568644D01*
X10632644Y-6568644D01*
X10632644Y-6639356D01*
X10703356Y-6639356D01*
X10618000Y-6808000D02*
X10718000Y-6908000D01*
X10718000Y-6808000D02*
X10618000Y-6908000D01*
X10703356Y-6893356D02*
X10703356Y-6822644D01*
X10632644Y-6822644D01*
X10632644Y-6893356D01*
X10703356Y-6893356D01*
X10618000Y-7062000D02*
X10718000Y-7162000D01*
X10718000Y-7062000D02*
X10618000Y-7162000D01*
X10703356Y-7147356D02*
X10703356Y-7076644D01*
X10632644Y-7076644D01*
X10632644Y-7147356D01*
X10703356Y-7147356D01*
X10618000Y-7316000D02*
X10718000Y-7416000D01*
X10718000Y-7316000D02*
X10618000Y-7416000D01*
X10703356Y-7401356D02*
X10703356Y-7330644D01*
X10632644Y-7330644D01*
X10632644Y-7401356D01*
X10703356Y-7401356D01*
X10618000Y-7570000D02*
X10718000Y-7670000D01*
X10718000Y-7570000D02*
X10618000Y-7670000D01*
X10703356Y-7655356D02*
X10703356Y-7584644D01*
X10632644Y-7584644D01*
X10632644Y-7655356D01*
X10703356Y-7655356D01*
X10618000Y-7824000D02*
X10718000Y-7924000D01*
X10718000Y-7824000D02*
X10618000Y-7924000D01*
X10703356Y-7909356D02*
X10703356Y-7838644D01*
X10632644Y-7838644D01*
X10632644Y-7909356D01*
X10703356Y-7909356D01*
X10618000Y-8078000D02*
X10718000Y-8178000D01*
X10718000Y-8078000D02*
X10618000Y-8178000D01*
X10703356Y-8163356D02*
X10703356Y-8092644D01*
X10632644Y-8092644D01*
X10632644Y-8163356D01*
X10703356Y-8163356D01*
X10618000Y-8332000D02*
X10718000Y-8432000D01*
X10718000Y-8332000D02*
X10618000Y-8432000D01*
X10703356Y-8417356D02*
X10703356Y-8346644D01*
X10632644Y-8346644D01*
X10632644Y-8417356D01*
X10703356Y-8417356D01*
X10618000Y-8586000D02*
X10718000Y-8686000D01*
X10718000Y-8586000D02*
X10618000Y-8686000D01*
X10703356Y-8671356D02*
X10703356Y-8600644D01*
X10632644Y-8600644D01*
X10632644Y-8671356D01*
X10703356Y-8671356D01*
X10618000Y-8840000D02*
X10718000Y-8940000D01*
X10718000Y-8840000D02*
X10618000Y-8940000D01*
X10703356Y-8925356D02*
X10703356Y-8854644D01*
X10632644Y-8854644D01*
X10632644Y-8925356D01*
X10703356Y-8925356D01*
X10618000Y-9094000D02*
X10718000Y-9194000D01*
X10718000Y-9094000D02*
X10618000Y-9194000D01*
X10703356Y-9179356D02*
X10703356Y-9108644D01*
X10632644Y-9108644D01*
X10632644Y-9179356D01*
X10703356Y-9179356D01*
X10618000Y-9348000D02*
X10718000Y-9448000D01*
X10718000Y-9348000D02*
X10618000Y-9448000D01*
X10703356Y-9433356D02*
X10703356Y-9362644D01*
X10632644Y-9362644D01*
X10632644Y-9433356D01*
X10703356Y-9433356D01*
X10618000Y-9602000D02*
X10718000Y-9702000D01*
X10718000Y-9602000D02*
X10618000Y-9702000D01*
X10703356Y-9687356D02*
X10703356Y-9616644D01*
X10632644Y-9616644D01*
X10632644Y-9687356D01*
X10703356Y-9687356D01*
X10618000Y-9856000D02*
X10718000Y-9956000D01*
X10718000Y-9856000D02*
X10618000Y-9956000D01*
X10703356Y-9941356D02*
X10703356Y-9870644D01*
X10632644Y-9870644D01*
X10632644Y-9941356D01*
X10703356Y-9941356D01*
X10618000Y-10110000D02*
X10718000Y-10210000D01*
X10718000Y-10110000D02*
X10618000Y-10210000D01*
X10703356Y-10195356D02*
X10703356Y-10124644D01*
X10632644Y-10124644D01*
X10632644Y-10195356D01*
X10703356Y-10195356D01*
X10618000Y-10618000D02*
X10718000Y-10718000D01*
X10718000Y-10618000D02*
X10618000Y-10718000D01*
X10703356Y-10703356D02*
X10703356Y-10632644D01*
X10632644Y-10632644D01*
X10632644Y-10703356D01*
X10703356Y-10703356D01*
X10618000Y-10872000D02*
X10718000Y-10972000D01*
X10718000Y-10872000D02*
X10618000Y-10972000D01*
X10703356Y-10957356D02*
X10703356Y-10886644D01*
X10632644Y-10886644D01*
X10632644Y-10957356D01*
X10703356Y-10957356D01*
X10618000Y-11126000D02*
X10718000Y-11226000D01*
X10718000Y-11126000D02*
X10618000Y-11226000D01*
X10703356Y-11211356D02*
X10703356Y-11140644D01*
X10632644Y-11140644D01*
X10632644Y-11211356D01*
X10703356Y-11211356D01*
X10618000Y-11380000D02*
X10718000Y-11480000D01*
X10718000Y-11380000D02*
X10618000Y-11480000D01*
X10703356Y-11465356D02*
X10703356Y-11394644D01*
X10632644Y-11394644D01*
X10632644Y-11465356D01*
X10703356Y-11465356D01*
X10618000Y-11634000D02*
X10718000Y-11734000D01*
X10718000Y-11634000D02*
X10618000Y-11734000D01*
X10703356Y-11719356D02*
X10703356Y-11648644D01*
X10632644Y-11648644D01*
X10632644Y-11719356D01*
X10703356Y-11719356D01*
X10618000Y-11888000D02*
X10718000Y-11988000D01*
X10718000Y-11888000D02*
X10618000Y-11988000D01*
X10703356Y-11973356D02*
X10703356Y-11902644D01*
X10632644Y-11902644D01*
X10632644Y-11973356D01*
X10703356Y-11973356D01*
X10618000Y-12142000D02*
X10718000Y-12242000D01*
X10718000Y-12142000D02*
X10618000Y-12242000D01*
X10703356Y-12227356D02*
X10703356Y-12156644D01*
X10632644Y-12156644D01*
X10632644Y-12227356D01*
X10703356Y-12227356D01*
X10872000Y-4268000D02*
X10972000Y-4368000D01*
X10972000Y-4268000D02*
X10872000Y-4368000D01*
X10957356Y-4353356D02*
X10957356Y-4282644D01*
X10886644Y-4282644D01*
X10886644Y-4353356D01*
X10957356Y-4353356D01*
X10872000Y-4522000D02*
X10972000Y-4622000D01*
X10972000Y-4522000D02*
X10872000Y-4622000D01*
X10957356Y-4607356D02*
X10957356Y-4536644D01*
X10886644Y-4536644D01*
X10886644Y-4607356D01*
X10957356Y-4607356D01*
X10872000Y-4776000D02*
X10972000Y-4876000D01*
X10972000Y-4776000D02*
X10872000Y-4876000D01*
X10957356Y-4861356D02*
X10957356Y-4790644D01*
X10886644Y-4790644D01*
X10886644Y-4861356D01*
X10957356Y-4861356D01*
X10872000Y-5030000D02*
X10972000Y-5130000D01*
X10972000Y-5030000D02*
X10872000Y-5130000D01*
X10957356Y-5115356D02*
X10957356Y-5044644D01*
X10886644Y-5044644D01*
X10886644Y-5115356D01*
X10957356Y-5115356D01*
X10872000Y-5284000D02*
X10972000Y-5384000D01*
X10972000Y-5284000D02*
X10872000Y-5384000D01*
X10957356Y-5369356D02*
X10957356Y-5298644D01*
X10886644Y-5298644D01*
X10886644Y-5369356D01*
X10957356Y-5369356D01*
X10872000Y-5538000D02*
X10972000Y-5638000D01*
X10972000Y-5538000D02*
X10872000Y-5638000D01*
X10957356Y-5623356D02*
X10957356Y-5552644D01*
X10886644Y-5552644D01*
X10886644Y-5623356D01*
X10957356Y-5623356D01*
X10872000Y-5792000D02*
X10972000Y-5892000D01*
X10972000Y-5792000D02*
X10872000Y-5892000D01*
X10957356Y-5877356D02*
X10957356Y-5806644D01*
X10886644Y-5806644D01*
X10886644Y-5877356D01*
X10957356Y-5877356D01*
X10872000Y-6046000D02*
X10972000Y-6146000D01*
X10972000Y-6046000D02*
X10872000Y-6146000D01*
X10957356Y-6131356D02*
X10957356Y-6060644D01*
X10886644Y-6060644D01*
X10886644Y-6131356D01*
X10957356Y-6131356D01*
X10872000Y-6300000D02*
X10972000Y-6400000D01*
X10972000Y-6300000D02*
X10872000Y-6400000D01*
X10957356Y-6385356D02*
X10957356Y-6314644D01*
X10886644Y-6314644D01*
X10886644Y-6385356D01*
X10957356Y-6385356D01*
X10872000Y-6554000D02*
X10972000Y-6654000D01*
X10972000Y-6554000D02*
X10872000Y-6654000D01*
X10957356Y-6639356D02*
X10957356Y-6568644D01*
X10886644Y-6568644D01*
X10886644Y-6639356D01*
X10957356Y-6639356D01*
X10872000Y-6808000D02*
X10972000Y-6908000D01*
X10972000Y-6808000D02*
X10872000Y-6908000D01*
X10957356Y-6893356D02*
X10957356Y-6822644D01*
X10886644Y-6822644D01*
X10886644Y-6893356D01*
X10957356Y-6893356D01*
X10872000Y-7062000D02*
X10972000Y-7162000D01*
X10972000Y-7062000D02*
X10872000Y-7162000D01*
X10957356Y-7147356D02*
X10957356Y-7076644D01*
X10886644Y-7076644D01*
X10886644Y-7147356D01*
X10957356Y-7147356D01*
X10872000Y-7316000D02*
X10972000Y-7416000D01*
X10972000Y-7316000D02*
X10872000Y-7416000D01*
X10957356Y-7401356D02*
X10957356Y-7330644D01*
X10886644Y-7330644D01*
X10886644Y-7401356D01*
X10957356Y-7401356D01*
X10872000Y-7570000D02*
X10972000Y-7670000D01*
X10972000Y-7570000D02*
X10872000Y-7670000D01*
X10957356Y-7655356D02*
X10957356Y-7584644D01*
X10886644Y-7584644D01*
X10886644Y-7655356D01*
X10957356Y-7655356D01*
X10872000Y-7824000D02*
X10972000Y-7924000D01*
X10972000Y-7824000D02*
X10872000Y-7924000D01*
X10957356Y-7909356D02*
X10957356Y-7838644D01*
X10886644Y-7838644D01*
X10886644Y-7909356D01*
X10957356Y-7909356D01*
X10872000Y-8078000D02*
X10972000Y-8178000D01*
X10972000Y-8078000D02*
X10872000Y-8178000D01*
X10957356Y-8163356D02*
X10957356Y-8092644D01*
X10886644Y-8092644D01*
X10886644Y-8163356D01*
X10957356Y-8163356D01*
X10872000Y-8332000D02*
X10972000Y-8432000D01*
X10972000Y-8332000D02*
X10872000Y-8432000D01*
X10957356Y-8417356D02*
X10957356Y-8346644D01*
X10886644Y-8346644D01*
X10886644Y-8417356D01*
X10957356Y-8417356D01*
X10872000Y-8586000D02*
X10972000Y-8686000D01*
X10972000Y-8586000D02*
X10872000Y-8686000D01*
X10957356Y-8671356D02*
X10957356Y-8600644D01*
X10886644Y-8600644D01*
X10886644Y-8671356D01*
X10957356Y-8671356D01*
X10872000Y-8840000D02*
X10972000Y-8940000D01*
X10972000Y-8840000D02*
X10872000Y-8940000D01*
X10957356Y-8925356D02*
X10957356Y-8854644D01*
X10886644Y-8854644D01*
X10886644Y-8925356D01*
X10957356Y-8925356D01*
X10872000Y-9094000D02*
X10972000Y-9194000D01*
X10972000Y-9094000D02*
X10872000Y-9194000D01*
X10957356Y-9179356D02*
X10957356Y-9108644D01*
X10886644Y-9108644D01*
X10886644Y-9179356D01*
X10957356Y-9179356D01*
X10872000Y-9348000D02*
X10972000Y-9448000D01*
X10972000Y-9348000D02*
X10872000Y-9448000D01*
X10957356Y-9433356D02*
X10957356Y-9362644D01*
X10886644Y-9362644D01*
X10886644Y-9433356D01*
X10957356Y-9433356D01*
X10872000Y-9602000D02*
X10972000Y-9702000D01*
X10972000Y-9602000D02*
X10872000Y-9702000D01*
X10957356Y-9687356D02*
X10957356Y-9616644D01*
X10886644Y-9616644D01*
X10886644Y-9687356D01*
X10957356Y-9687356D01*
X10872000Y-9856000D02*
X10972000Y-9956000D01*
X10972000Y-9856000D02*
X10872000Y-9956000D01*
X10957356Y-9941356D02*
X10957356Y-9870644D01*
X10886644Y-9870644D01*
X10886644Y-9941356D01*
X10957356Y-9941356D01*
X10872000Y-10110000D02*
X10972000Y-10210000D01*
X10972000Y-10110000D02*
X10872000Y-10210000D01*
X10957356Y-10195356D02*
X10957356Y-10124644D01*
X10886644Y-10124644D01*
X10886644Y-10195356D01*
X10957356Y-10195356D01*
X10872000Y-10618000D02*
X10972000Y-10718000D01*
X10972000Y-10618000D02*
X10872000Y-10718000D01*
X10957356Y-10703356D02*
X10957356Y-10632644D01*
X10886644Y-10632644D01*
X10886644Y-10703356D01*
X10957356Y-10703356D01*
X10872000Y-10872000D02*
X10972000Y-10972000D01*
X10972000Y-10872000D02*
X10872000Y-10972000D01*
X10957356Y-10957356D02*
X10957356Y-10886644D01*
X10886644Y-10886644D01*
X10886644Y-10957356D01*
X10957356Y-10957356D01*
X10872000Y-11126000D02*
X10972000Y-11226000D01*
X10972000Y-11126000D02*
X10872000Y-11226000D01*
X10957356Y-11211356D02*
X10957356Y-11140644D01*
X10886644Y-11140644D01*
X10886644Y-11211356D01*
X10957356Y-11211356D01*
X10872000Y-11380000D02*
X10972000Y-11480000D01*
X10972000Y-11380000D02*
X10872000Y-11480000D01*
X10957356Y-11465356D02*
X10957356Y-11394644D01*
X10886644Y-11394644D01*
X10886644Y-11465356D01*
X10957356Y-11465356D01*
X10872000Y-11634000D02*
X10972000Y-11734000D01*
X10972000Y-11634000D02*
X10872000Y-11734000D01*
X10957356Y-11719356D02*
X10957356Y-11648644D01*
X10886644Y-11648644D01*
X10886644Y-11719356D01*
X10957356Y-11719356D01*
X10872000Y-11888000D02*
X10972000Y-11988000D01*
X10972000Y-11888000D02*
X10872000Y-11988000D01*
X10957356Y-11973356D02*
X10957356Y-11902644D01*
X10886644Y-11902644D01*
X10886644Y-11973356D01*
X10957356Y-11973356D01*
X10872000Y-12142000D02*
X10972000Y-12242000D01*
X10972000Y-12142000D02*
X10872000Y-12242000D01*
X10957356Y-12227356D02*
X10957356Y-12156644D01*
X10886644Y-12156644D01*
X10886644Y-12227356D01*
X10957356Y-12227356D01*
D13*
X2565000Y-4340000D02*
X2785000Y-4560000D01*
X2785000Y-4340000D02*
X2565000Y-4560000D01*
X2675000Y-4560000D02*
X2785000Y-4450000D01*
X2675000Y-4340000D01*
X2565000Y-4450000D01*
X2675000Y-4560000D01*
X2565000Y-11940000D02*
X2785000Y-12160000D01*
X2785000Y-11940000D02*
X2565000Y-12160000D01*
X2675000Y-12160000D02*
X2785000Y-12050000D01*
X2675000Y-11940000D01*
X2565000Y-12050000D01*
X2675000Y-12160000D01*
X14765000Y-4340000D02*
X14985000Y-4560000D01*
X14985000Y-4340000D02*
X14765000Y-4560000D01*
X14875000Y-4560000D02*
X14985000Y-4450000D01*
X14875000Y-4340000D01*
X14765000Y-4450000D01*
X14875000Y-4560000D01*
X14765000Y-11940000D02*
X14985000Y-12160000D01*
X14985000Y-11940000D02*
X14765000Y-12160000D01*
X14875000Y-12160000D02*
X14985000Y-12050000D01*
X14875000Y-11940000D01*
X14765000Y-12050000D01*
X14875000Y-12160000D01*
D14*
X5853000Y-4894000D02*
X5853000Y-5124000D01*
X5738000Y-5009000D02*
X5968000Y-5009000D01*
X5968000Y-5009000D02*
G75*
G02*
X5738000Y-5009000I-115000J0D01*
G01*
X5738000Y-5009000D02*
G75*
G02*
X5968000Y-5009000I115000J0D01*
G01*
X7167000Y-4894000D02*
X7167000Y-5124000D01*
X7052000Y-5009000D02*
X7282000Y-5009000D01*
X7282000Y-5009000D02*
G75*
G02*
X7052000Y-5009000I-115000J0D01*
G01*
X7052000Y-5009000D02*
G75*
G02*
X7282000Y-5009000I115000J0D01*
G01*
D11*
X2470077Y-12762811D02*
X2470077Y-12562811D01*
X2470077Y-12562811D02*
X2517696Y-12562811D01*
X2517696Y-12562811D02*
X2546267Y-12572335D01*
X2546267Y-12572335D02*
X2565315Y-12591383D01*
X2565315Y-12591383D02*
X2574839Y-12610430D01*
X2574839Y-12610430D02*
X2584363Y-12648525D01*
X2584363Y-12648525D02*
X2584363Y-12677097D01*
X2584363Y-12677097D02*
X2574839Y-12715192D01*
X2574839Y-12715192D02*
X2565315Y-12734240D01*
X2565315Y-12734240D02*
X2546267Y-12753287D01*
X2546267Y-12753287D02*
X2517696Y-12762811D01*
X2517696Y-12762811D02*
X2470077Y-12762811D01*
X2670077Y-12762811D02*
X2670077Y-12629478D01*
X2670077Y-12667573D02*
X2679601Y-12648525D01*
X2679601Y-12648525D02*
X2689124Y-12639002D01*
X2689124Y-12639002D02*
X2708172Y-12629478D01*
X2708172Y-12629478D02*
X2727220Y-12629478D01*
X2793886Y-12762811D02*
X2793886Y-12629478D01*
X2793886Y-12562811D02*
X2784363Y-12572335D01*
X2784363Y-12572335D02*
X2793886Y-12581859D01*
X2793886Y-12581859D02*
X2803410Y-12572335D01*
X2803410Y-12572335D02*
X2793886Y-12562811D01*
X2793886Y-12562811D02*
X2793886Y-12581859D01*
X2917696Y-12762811D02*
X2898648Y-12753287D01*
X2898648Y-12753287D02*
X2889124Y-12734240D01*
X2889124Y-12734240D02*
X2889124Y-12562811D01*
X3022458Y-12762811D02*
X3003410Y-12753287D01*
X3003410Y-12753287D02*
X2993886Y-12734240D01*
X2993886Y-12734240D02*
X2993886Y-12562811D01*
X3251029Y-12762811D02*
X3251029Y-12562811D01*
X3251029Y-12562811D02*
X3317696Y-12705668D01*
X3317696Y-12705668D02*
X3384362Y-12562811D01*
X3384362Y-12562811D02*
X3384362Y-12762811D01*
X3565315Y-12762811D02*
X3565315Y-12658049D01*
X3565315Y-12658049D02*
X3555791Y-12639002D01*
X3555791Y-12639002D02*
X3536743Y-12629478D01*
X3536743Y-12629478D02*
X3498648Y-12629478D01*
X3498648Y-12629478D02*
X3479601Y-12639002D01*
X3565315Y-12753287D02*
X3546267Y-12762811D01*
X3546267Y-12762811D02*
X3498648Y-12762811D01*
X3498648Y-12762811D02*
X3479601Y-12753287D01*
X3479601Y-12753287D02*
X3470077Y-12734240D01*
X3470077Y-12734240D02*
X3470077Y-12715192D01*
X3470077Y-12715192D02*
X3479601Y-12696145D01*
X3479601Y-12696145D02*
X3498648Y-12686621D01*
X3498648Y-12686621D02*
X3546267Y-12686621D01*
X3546267Y-12686621D02*
X3565315Y-12677097D01*
X3660553Y-12629478D02*
X3660553Y-12829478D01*
X3660553Y-12639002D02*
X3679601Y-12629478D01*
X3679601Y-12629478D02*
X3717696Y-12629478D01*
X3717696Y-12629478D02*
X3736743Y-12639002D01*
X3736743Y-12639002D02*
X3746267Y-12648525D01*
X3746267Y-12648525D02*
X3755791Y-12667573D01*
X3755791Y-12667573D02*
X3755791Y-12724716D01*
X3755791Y-12724716D02*
X3746267Y-12743764D01*
X3746267Y-12743764D02*
X3736743Y-12753287D01*
X3736743Y-12753287D02*
X3717696Y-12762811D01*
X3717696Y-12762811D02*
X3679601Y-12762811D01*
X3679601Y-12762811D02*
X3660553Y-12753287D01*
X3841505Y-12743764D02*
X3851029Y-12753287D01*
X3851029Y-12753287D02*
X3841505Y-12762811D01*
X3841505Y-12762811D02*
X3831982Y-12753287D01*
X3831982Y-12753287D02*
X3841505Y-12743764D01*
X3841505Y-12743764D02*
X3841505Y-12762811D01*
X3841505Y-12639002D02*
X3851029Y-12648525D01*
X3851029Y-12648525D02*
X3841505Y-12658049D01*
X3841505Y-12658049D02*
X3831982Y-12648525D01*
X3831982Y-12648525D02*
X3841505Y-12639002D01*
X3841505Y-12639002D02*
X3841505Y-12658049D01*
D12*
X2179300Y-13076327D02*
X2209300Y-13106327D01*
X2209300Y-13076327D02*
X2179300Y-13106327D01*
D11*
X2508172Y-12982811D02*
X2527220Y-12982811D01*
X2527220Y-12982811D02*
X2546267Y-12992335D01*
X2546267Y-12992335D02*
X2555791Y-13001859D01*
X2555791Y-13001859D02*
X2565315Y-13020906D01*
X2565315Y-13020906D02*
X2574839Y-13059002D01*
X2574839Y-13059002D02*
X2574839Y-13106621D01*
X2574839Y-13106621D02*
X2565315Y-13144716D01*
X2565315Y-13144716D02*
X2555791Y-13163764D01*
X2555791Y-13163764D02*
X2546267Y-13173287D01*
X2546267Y-13173287D02*
X2527220Y-13182811D01*
X2527220Y-13182811D02*
X2508172Y-13182811D01*
X2508172Y-13182811D02*
X2489124Y-13173287D01*
X2489124Y-13173287D02*
X2479601Y-13163764D01*
X2479601Y-13163764D02*
X2470077Y-13144716D01*
X2470077Y-13144716D02*
X2460553Y-13106621D01*
X2460553Y-13106621D02*
X2460553Y-13059002D01*
X2460553Y-13059002D02*
X2470077Y-13020906D01*
X2470077Y-13020906D02*
X2479601Y-13001859D01*
X2479601Y-13001859D02*
X2489124Y-12992335D01*
X2489124Y-12992335D02*
X2508172Y-12982811D01*
X2660553Y-13163764D02*
X2670077Y-13173287D01*
X2670077Y-13173287D02*
X2660553Y-13182811D01*
X2660553Y-13182811D02*
X2651029Y-13173287D01*
X2651029Y-13173287D02*
X2660553Y-13163764D01*
X2660553Y-13163764D02*
X2660553Y-13182811D01*
X2736744Y-12982811D02*
X2860553Y-12982811D01*
X2860553Y-12982811D02*
X2793886Y-13059002D01*
X2793886Y-13059002D02*
X2822458Y-13059002D01*
X2822458Y-13059002D02*
X2841505Y-13068525D01*
X2841505Y-13068525D02*
X2851029Y-13078049D01*
X2851029Y-13078049D02*
X2860553Y-13097097D01*
X2860553Y-13097097D02*
X2860553Y-13144716D01*
X2860553Y-13144716D02*
X2851029Y-13163764D01*
X2851029Y-13163764D02*
X2841505Y-13173287D01*
X2841505Y-13173287D02*
X2822458Y-13182811D01*
X2822458Y-13182811D02*
X2765315Y-13182811D01*
X2765315Y-13182811D02*
X2746267Y-13173287D01*
X2746267Y-13173287D02*
X2736744Y-13163764D01*
X2984362Y-12982811D02*
X3003410Y-12982811D01*
X3003410Y-12982811D02*
X3022458Y-12992335D01*
X3022458Y-12992335D02*
X3031982Y-13001859D01*
X3031982Y-13001859D02*
X3041505Y-13020906D01*
X3041505Y-13020906D02*
X3051029Y-13059002D01*
X3051029Y-13059002D02*
X3051029Y-13106621D01*
X3051029Y-13106621D02*
X3041505Y-13144716D01*
X3041505Y-13144716D02*
X3031982Y-13163764D01*
X3031982Y-13163764D02*
X3022458Y-13173287D01*
X3022458Y-13173287D02*
X3003410Y-13182811D01*
X3003410Y-13182811D02*
X2984362Y-13182811D01*
X2984362Y-13182811D02*
X2965315Y-13173287D01*
X2965315Y-13173287D02*
X2955791Y-13163764D01*
X2955791Y-13163764D02*
X2946267Y-13144716D01*
X2946267Y-13144716D02*
X2936743Y-13106621D01*
X2936743Y-13106621D02*
X2936743Y-13059002D01*
X2936743Y-13059002D02*
X2946267Y-13020906D01*
X2946267Y-13020906D02*
X2955791Y-13001859D01*
X2955791Y-13001859D02*
X2965315Y-12992335D01*
X2965315Y-12992335D02*
X2984362Y-12982811D01*
X3174839Y-12982811D02*
X3193886Y-12982811D01*
X3193886Y-12982811D02*
X3212934Y-12992335D01*
X3212934Y-12992335D02*
X3222458Y-13001859D01*
X3222458Y-13001859D02*
X3231982Y-13020906D01*
X3231982Y-13020906D02*
X3241505Y-13059002D01*
X3241505Y-13059002D02*
X3241505Y-13106621D01*
X3241505Y-13106621D02*
X3231982Y-13144716D01*
X3231982Y-13144716D02*
X3222458Y-13163764D01*
X3222458Y-13163764D02*
X3212934Y-13173287D01*
X3212934Y-13173287D02*
X3193886Y-13182811D01*
X3193886Y-13182811D02*
X3174839Y-13182811D01*
X3174839Y-13182811D02*
X3155791Y-13173287D01*
X3155791Y-13173287D02*
X3146267Y-13163764D01*
X3146267Y-13163764D02*
X3136743Y-13144716D01*
X3136743Y-13144716D02*
X3127220Y-13106621D01*
X3127220Y-13106621D02*
X3127220Y-13059002D01*
X3127220Y-13059002D02*
X3136743Y-13020906D01*
X3136743Y-13020906D02*
X3146267Y-13001859D01*
X3146267Y-13001859D02*
X3155791Y-12992335D01*
X3155791Y-12992335D02*
X3174839Y-12982811D01*
X3327220Y-13182811D02*
X3327220Y-13049478D01*
X3327220Y-13068525D02*
X3336743Y-13059002D01*
X3336743Y-13059002D02*
X3355791Y-13049478D01*
X3355791Y-13049478D02*
X3384363Y-13049478D01*
X3384363Y-13049478D02*
X3403410Y-13059002D01*
X3403410Y-13059002D02*
X3412934Y-13078049D01*
X3412934Y-13078049D02*
X3412934Y-13182811D01*
X3412934Y-13078049D02*
X3422458Y-13059002D01*
X3422458Y-13059002D02*
X3441505Y-13049478D01*
X3441505Y-13049478D02*
X3470077Y-13049478D01*
X3470077Y-13049478D02*
X3489124Y-13059002D01*
X3489124Y-13059002D02*
X3498648Y-13078049D01*
X3498648Y-13078049D02*
X3498648Y-13182811D01*
X3593886Y-13182811D02*
X3593886Y-13049478D01*
X3593886Y-13068525D02*
X3603410Y-13059002D01*
X3603410Y-13059002D02*
X3622458Y-13049478D01*
X3622458Y-13049478D02*
X3651029Y-13049478D01*
X3651029Y-13049478D02*
X3670077Y-13059002D01*
X3670077Y-13059002D02*
X3679601Y-13078049D01*
X3679601Y-13078049D02*
X3679601Y-13182811D01*
X3679601Y-13078049D02*
X3689124Y-13059002D01*
X3689124Y-13059002D02*
X3708172Y-13049478D01*
X3708172Y-13049478D02*
X3736743Y-13049478D01*
X3736743Y-13049478D02*
X3755791Y-13059002D01*
X3755791Y-13059002D02*
X3765315Y-13078049D01*
X3765315Y-13078049D02*
X3765315Y-13182811D01*
X4155791Y-12973287D02*
X3984363Y-13230430D01*
X4412934Y-12982811D02*
X4431982Y-12982811D01*
X4431982Y-12982811D02*
X4451029Y-12992335D01*
X4451029Y-12992335D02*
X4460553Y-13001859D01*
X4460553Y-13001859D02*
X4470077Y-13020906D01*
X4470077Y-13020906D02*
X4479601Y-13059002D01*
X4479601Y-13059002D02*
X4479601Y-13106621D01*
X4479601Y-13106621D02*
X4470077Y-13144716D01*
X4470077Y-13144716D02*
X4460553Y-13163764D01*
X4460553Y-13163764D02*
X4451029Y-13173287D01*
X4451029Y-13173287D02*
X4431982Y-13182811D01*
X4431982Y-13182811D02*
X4412934Y-13182811D01*
X4412934Y-13182811D02*
X4393887Y-13173287D01*
X4393887Y-13173287D02*
X4384363Y-13163764D01*
X4384363Y-13163764D02*
X4374839Y-13144716D01*
X4374839Y-13144716D02*
X4365315Y-13106621D01*
X4365315Y-13106621D02*
X4365315Y-13059002D01*
X4365315Y-13059002D02*
X4374839Y-13020906D01*
X4374839Y-13020906D02*
X4384363Y-13001859D01*
X4384363Y-13001859D02*
X4393887Y-12992335D01*
X4393887Y-12992335D02*
X4412934Y-12982811D01*
X4565315Y-13163764D02*
X4574839Y-13173287D01*
X4574839Y-13173287D02*
X4565315Y-13182811D01*
X4565315Y-13182811D02*
X4555791Y-13173287D01*
X4555791Y-13173287D02*
X4565315Y-13163764D01*
X4565315Y-13163764D02*
X4565315Y-13182811D01*
X4698648Y-12982811D02*
X4717696Y-12982811D01*
X4717696Y-12982811D02*
X4736744Y-12992335D01*
X4736744Y-12992335D02*
X4746268Y-13001859D01*
X4746268Y-13001859D02*
X4755791Y-13020906D01*
X4755791Y-13020906D02*
X4765315Y-13059002D01*
X4765315Y-13059002D02*
X4765315Y-13106621D01*
X4765315Y-13106621D02*
X4755791Y-13144716D01*
X4755791Y-13144716D02*
X4746268Y-13163764D01*
X4746268Y-13163764D02*
X4736744Y-13173287D01*
X4736744Y-13173287D02*
X4717696Y-13182811D01*
X4717696Y-13182811D02*
X4698648Y-13182811D01*
X4698648Y-13182811D02*
X4679601Y-13173287D01*
X4679601Y-13173287D02*
X4670077Y-13163764D01*
X4670077Y-13163764D02*
X4660553Y-13144716D01*
X4660553Y-13144716D02*
X4651029Y-13106621D01*
X4651029Y-13106621D02*
X4651029Y-13059002D01*
X4651029Y-13059002D02*
X4660553Y-13020906D01*
X4660553Y-13020906D02*
X4670077Y-13001859D01*
X4670077Y-13001859D02*
X4679601Y-12992335D01*
X4679601Y-12992335D02*
X4698648Y-12982811D01*
X4955791Y-13182811D02*
X4841506Y-13182811D01*
X4898648Y-13182811D02*
X4898648Y-12982811D01*
X4898648Y-12982811D02*
X4879601Y-13011383D01*
X4879601Y-13011383D02*
X4860553Y-13030430D01*
X4860553Y-13030430D02*
X4841506Y-13039954D01*
X5146268Y-13182811D02*
X5031982Y-13182811D01*
X5089125Y-13182811D02*
X5089125Y-12982811D01*
X5089125Y-12982811D02*
X5070077Y-13011383D01*
X5070077Y-13011383D02*
X5051029Y-13030430D01*
X5051029Y-13030430D02*
X5031982Y-13039954D01*
X5260553Y-13068525D02*
X5241506Y-13059002D01*
X5241506Y-13059002D02*
X5231982Y-13049478D01*
X5231982Y-13049478D02*
X5222458Y-13030430D01*
X5222458Y-13030430D02*
X5222458Y-13020906D01*
X5222458Y-13020906D02*
X5231982Y-13001859D01*
X5231982Y-13001859D02*
X5241506Y-12992335D01*
X5241506Y-12992335D02*
X5260553Y-12982811D01*
X5260553Y-12982811D02*
X5298649Y-12982811D01*
X5298649Y-12982811D02*
X5317696Y-12992335D01*
X5317696Y-12992335D02*
X5327220Y-13001859D01*
X5327220Y-13001859D02*
X5336744Y-13020906D01*
X5336744Y-13020906D02*
X5336744Y-13030430D01*
X5336744Y-13030430D02*
X5327220Y-13049478D01*
X5327220Y-13049478D02*
X5317696Y-13059002D01*
X5317696Y-13059002D02*
X5298649Y-13068525D01*
X5298649Y-13068525D02*
X5260553Y-13068525D01*
X5260553Y-13068525D02*
X5241506Y-13078049D01*
X5241506Y-13078049D02*
X5231982Y-13087573D01*
X5231982Y-13087573D02*
X5222458Y-13106621D01*
X5222458Y-13106621D02*
X5222458Y-13144716D01*
X5222458Y-13144716D02*
X5231982Y-13163764D01*
X5231982Y-13163764D02*
X5241506Y-13173287D01*
X5241506Y-13173287D02*
X5260553Y-13182811D01*
X5260553Y-13182811D02*
X5298649Y-13182811D01*
X5298649Y-13182811D02*
X5317696Y-13173287D01*
X5317696Y-13173287D02*
X5327220Y-13163764D01*
X5327220Y-13163764D02*
X5336744Y-13144716D01*
X5336744Y-13144716D02*
X5336744Y-13106621D01*
X5336744Y-13106621D02*
X5327220Y-13087573D01*
X5327220Y-13087573D02*
X5317696Y-13078049D01*
X5317696Y-13078049D02*
X5298649Y-13068525D01*
X5412934Y-12982811D02*
X5412934Y-13020906D01*
X5489125Y-12982811D02*
X5489125Y-13020906D01*
X5784363Y-13259002D02*
X5774839Y-13249478D01*
X5774839Y-13249478D02*
X5755791Y-13220906D01*
X5755791Y-13220906D02*
X5746268Y-13201859D01*
X5746268Y-13201859D02*
X5736744Y-13173287D01*
X5736744Y-13173287D02*
X5727220Y-13125668D01*
X5727220Y-13125668D02*
X5727220Y-13087573D01*
X5727220Y-13087573D02*
X5736744Y-13039954D01*
X5736744Y-13039954D02*
X5746268Y-13011383D01*
X5746268Y-13011383D02*
X5755791Y-12992335D01*
X5755791Y-12992335D02*
X5774839Y-12963764D01*
X5774839Y-12963764D02*
X5784363Y-12954240D01*
X5851029Y-13001859D02*
X5860553Y-12992335D01*
X5860553Y-12992335D02*
X5879601Y-12982811D01*
X5879601Y-12982811D02*
X5927220Y-12982811D01*
X5927220Y-12982811D02*
X5946268Y-12992335D01*
X5946268Y-12992335D02*
X5955791Y-13001859D01*
X5955791Y-13001859D02*
X5965315Y-13020906D01*
X5965315Y-13020906D02*
X5965315Y-13039954D01*
X5965315Y-13039954D02*
X5955791Y-13068525D01*
X5955791Y-13068525D02*
X5841506Y-13182811D01*
X5841506Y-13182811D02*
X5965315Y-13182811D01*
X6203410Y-13182811D02*
X6203410Y-12982811D01*
X6289125Y-13182811D02*
X6289125Y-13078049D01*
X6289125Y-13078049D02*
X6279601Y-13059002D01*
X6279601Y-13059002D02*
X6260553Y-13049478D01*
X6260553Y-13049478D02*
X6231982Y-13049478D01*
X6231982Y-13049478D02*
X6212934Y-13059002D01*
X6212934Y-13059002D02*
X6203410Y-13068525D01*
X6412934Y-13182811D02*
X6393887Y-13173287D01*
X6393887Y-13173287D02*
X6384363Y-13163764D01*
X6384363Y-13163764D02*
X6374839Y-13144716D01*
X6374839Y-13144716D02*
X6374839Y-13087573D01*
X6374839Y-13087573D02*
X6384363Y-13068525D01*
X6384363Y-13068525D02*
X6393887Y-13059002D01*
X6393887Y-13059002D02*
X6412934Y-13049478D01*
X6412934Y-13049478D02*
X6441506Y-13049478D01*
X6441506Y-13049478D02*
X6460553Y-13059002D01*
X6460553Y-13059002D02*
X6470077Y-13068525D01*
X6470077Y-13068525D02*
X6479601Y-13087573D01*
X6479601Y-13087573D02*
X6479601Y-13144716D01*
X6479601Y-13144716D02*
X6470077Y-13163764D01*
X6470077Y-13163764D02*
X6460553Y-13173287D01*
X6460553Y-13173287D02*
X6441506Y-13182811D01*
X6441506Y-13182811D02*
X6412934Y-13182811D01*
X6593887Y-13182811D02*
X6574839Y-13173287D01*
X6574839Y-13173287D02*
X6565315Y-13154240D01*
X6565315Y-13154240D02*
X6565315Y-12982811D01*
X6746268Y-13173287D02*
X6727220Y-13182811D01*
X6727220Y-13182811D02*
X6689125Y-13182811D01*
X6689125Y-13182811D02*
X6670077Y-13173287D01*
X6670077Y-13173287D02*
X6660553Y-13154240D01*
X6660553Y-13154240D02*
X6660553Y-13078049D01*
X6660553Y-13078049D02*
X6670077Y-13059002D01*
X6670077Y-13059002D02*
X6689125Y-13049478D01*
X6689125Y-13049478D02*
X6727220Y-13049478D01*
X6727220Y-13049478D02*
X6746268Y-13059002D01*
X6746268Y-13059002D02*
X6755791Y-13078049D01*
X6755791Y-13078049D02*
X6755791Y-13097097D01*
X6755791Y-13097097D02*
X6660553Y-13116145D01*
X6831982Y-13173287D02*
X6851030Y-13182811D01*
X6851030Y-13182811D02*
X6889125Y-13182811D01*
X6889125Y-13182811D02*
X6908172Y-13173287D01*
X6908172Y-13173287D02*
X6917696Y-13154240D01*
X6917696Y-13154240D02*
X6917696Y-13144716D01*
X6917696Y-13144716D02*
X6908172Y-13125668D01*
X6908172Y-13125668D02*
X6889125Y-13116145D01*
X6889125Y-13116145D02*
X6860553Y-13116145D01*
X6860553Y-13116145D02*
X6841506Y-13106621D01*
X6841506Y-13106621D02*
X6831982Y-13087573D01*
X6831982Y-13087573D02*
X6831982Y-13078049D01*
X6831982Y-13078049D02*
X6841506Y-13059002D01*
X6841506Y-13059002D02*
X6860553Y-13049478D01*
X6860553Y-13049478D02*
X6889125Y-13049478D01*
X6889125Y-13049478D02*
X6908172Y-13059002D01*
X6984363Y-13259002D02*
X6993887Y-13249478D01*
X6993887Y-13249478D02*
X7012934Y-13220906D01*
X7012934Y-13220906D02*
X7022458Y-13201859D01*
X7022458Y-13201859D02*
X7031982Y-13173287D01*
X7031982Y-13173287D02*
X7041506Y-13125668D01*
X7041506Y-13125668D02*
X7041506Y-13087573D01*
X7041506Y-13087573D02*
X7031982Y-13039954D01*
X7031982Y-13039954D02*
X7022458Y-13011383D01*
X7022458Y-13011383D02*
X7012934Y-12992335D01*
X7012934Y-12992335D02*
X6993887Y-12963764D01*
X6993887Y-12963764D02*
X6984363Y-12954240D01*
D12*
X2209300Y-13355327D02*
G75*
G02*
X2169300Y-13355327I-20000J0D01*
G01*
X2169300Y-13355327D02*
G75*
G02*
X2209300Y-13355327I20000J0D01*
G01*
D11*
X2508172Y-13246811D02*
X2527220Y-13246811D01*
X2527220Y-13246811D02*
X2546267Y-13256335D01*
X2546267Y-13256335D02*
X2555791Y-13265859D01*
X2555791Y-13265859D02*
X2565315Y-13284906D01*
X2565315Y-13284906D02*
X2574839Y-13323002D01*
X2574839Y-13323002D02*
X2574839Y-13370621D01*
X2574839Y-13370621D02*
X2565315Y-13408716D01*
X2565315Y-13408716D02*
X2555791Y-13427764D01*
X2555791Y-13427764D02*
X2546267Y-13437287D01*
X2546267Y-13437287D02*
X2527220Y-13446811D01*
X2527220Y-13446811D02*
X2508172Y-13446811D01*
X2508172Y-13446811D02*
X2489124Y-13437287D01*
X2489124Y-13437287D02*
X2479601Y-13427764D01*
X2479601Y-13427764D02*
X2470077Y-13408716D01*
X2470077Y-13408716D02*
X2460553Y-13370621D01*
X2460553Y-13370621D02*
X2460553Y-13323002D01*
X2460553Y-13323002D02*
X2470077Y-13284906D01*
X2470077Y-13284906D02*
X2479601Y-13265859D01*
X2479601Y-13265859D02*
X2489124Y-13256335D01*
X2489124Y-13256335D02*
X2508172Y-13246811D01*
X2660553Y-13427764D02*
X2670077Y-13437287D01*
X2670077Y-13437287D02*
X2660553Y-13446811D01*
X2660553Y-13446811D02*
X2651029Y-13437287D01*
X2651029Y-13437287D02*
X2660553Y-13427764D01*
X2660553Y-13427764D02*
X2660553Y-13446811D01*
X2841505Y-13313478D02*
X2841505Y-13446811D01*
X2793886Y-13237287D02*
X2746267Y-13380145D01*
X2746267Y-13380145D02*
X2870077Y-13380145D01*
X2984362Y-13246811D02*
X3003410Y-13246811D01*
X3003410Y-13246811D02*
X3022458Y-13256335D01*
X3022458Y-13256335D02*
X3031982Y-13265859D01*
X3031982Y-13265859D02*
X3041505Y-13284906D01*
X3041505Y-13284906D02*
X3051029Y-13323002D01*
X3051029Y-13323002D02*
X3051029Y-13370621D01*
X3051029Y-13370621D02*
X3041505Y-13408716D01*
X3041505Y-13408716D02*
X3031982Y-13427764D01*
X3031982Y-13427764D02*
X3022458Y-13437287D01*
X3022458Y-13437287D02*
X3003410Y-13446811D01*
X3003410Y-13446811D02*
X2984362Y-13446811D01*
X2984362Y-13446811D02*
X2965315Y-13437287D01*
X2965315Y-13437287D02*
X2955791Y-13427764D01*
X2955791Y-13427764D02*
X2946267Y-13408716D01*
X2946267Y-13408716D02*
X2936743Y-13370621D01*
X2936743Y-13370621D02*
X2936743Y-13323002D01*
X2936743Y-13323002D02*
X2946267Y-13284906D01*
X2946267Y-13284906D02*
X2955791Y-13265859D01*
X2955791Y-13265859D02*
X2965315Y-13256335D01*
X2965315Y-13256335D02*
X2984362Y-13246811D01*
X3174839Y-13246811D02*
X3193886Y-13246811D01*
X3193886Y-13246811D02*
X3212934Y-13256335D01*
X3212934Y-13256335D02*
X3222458Y-13265859D01*
X3222458Y-13265859D02*
X3231982Y-13284906D01*
X3231982Y-13284906D02*
X3241505Y-13323002D01*
X3241505Y-13323002D02*
X3241505Y-13370621D01*
X3241505Y-13370621D02*
X3231982Y-13408716D01*
X3231982Y-13408716D02*
X3222458Y-13427764D01*
X3222458Y-13427764D02*
X3212934Y-13437287D01*
X3212934Y-13437287D02*
X3193886Y-13446811D01*
X3193886Y-13446811D02*
X3174839Y-13446811D01*
X3174839Y-13446811D02*
X3155791Y-13437287D01*
X3155791Y-13437287D02*
X3146267Y-13427764D01*
X3146267Y-13427764D02*
X3136743Y-13408716D01*
X3136743Y-13408716D02*
X3127220Y-13370621D01*
X3127220Y-13370621D02*
X3127220Y-13323002D01*
X3127220Y-13323002D02*
X3136743Y-13284906D01*
X3136743Y-13284906D02*
X3146267Y-13265859D01*
X3146267Y-13265859D02*
X3155791Y-13256335D01*
X3155791Y-13256335D02*
X3174839Y-13246811D01*
X3327220Y-13446811D02*
X3327220Y-13313478D01*
X3327220Y-13332525D02*
X3336743Y-13323002D01*
X3336743Y-13323002D02*
X3355791Y-13313478D01*
X3355791Y-13313478D02*
X3384363Y-13313478D01*
X3384363Y-13313478D02*
X3403410Y-13323002D01*
X3403410Y-13323002D02*
X3412934Y-13342049D01*
X3412934Y-13342049D02*
X3412934Y-13446811D01*
X3412934Y-13342049D02*
X3422458Y-13323002D01*
X3422458Y-13323002D02*
X3441505Y-13313478D01*
X3441505Y-13313478D02*
X3470077Y-13313478D01*
X3470077Y-13313478D02*
X3489124Y-13323002D01*
X3489124Y-13323002D02*
X3498648Y-13342049D01*
X3498648Y-13342049D02*
X3498648Y-13446811D01*
X3593886Y-13446811D02*
X3593886Y-13313478D01*
X3593886Y-13332525D02*
X3603410Y-13323002D01*
X3603410Y-13323002D02*
X3622458Y-13313478D01*
X3622458Y-13313478D02*
X3651029Y-13313478D01*
X3651029Y-13313478D02*
X3670077Y-13323002D01*
X3670077Y-13323002D02*
X3679601Y-13342049D01*
X3679601Y-13342049D02*
X3679601Y-13446811D01*
X3679601Y-13342049D02*
X3689124Y-13323002D01*
X3689124Y-13323002D02*
X3708172Y-13313478D01*
X3708172Y-13313478D02*
X3736743Y-13313478D01*
X3736743Y-13313478D02*
X3755791Y-13323002D01*
X3755791Y-13323002D02*
X3765315Y-13342049D01*
X3765315Y-13342049D02*
X3765315Y-13446811D01*
X4155791Y-13237287D02*
X3984363Y-13494430D01*
X4412934Y-13246811D02*
X4431982Y-13246811D01*
X4431982Y-13246811D02*
X4451029Y-13256335D01*
X4451029Y-13256335D02*
X4460553Y-13265859D01*
X4460553Y-13265859D02*
X4470077Y-13284906D01*
X4470077Y-13284906D02*
X4479601Y-13323002D01*
X4479601Y-13323002D02*
X4479601Y-13370621D01*
X4479601Y-13370621D02*
X4470077Y-13408716D01*
X4470077Y-13408716D02*
X4460553Y-13427764D01*
X4460553Y-13427764D02*
X4451029Y-13437287D01*
X4451029Y-13437287D02*
X4431982Y-13446811D01*
X4431982Y-13446811D02*
X4412934Y-13446811D01*
X4412934Y-13446811D02*
X4393887Y-13437287D01*
X4393887Y-13437287D02*
X4384363Y-13427764D01*
X4384363Y-13427764D02*
X4374839Y-13408716D01*
X4374839Y-13408716D02*
X4365315Y-13370621D01*
X4365315Y-13370621D02*
X4365315Y-13323002D01*
X4365315Y-13323002D02*
X4374839Y-13284906D01*
X4374839Y-13284906D02*
X4384363Y-13265859D01*
X4384363Y-13265859D02*
X4393887Y-13256335D01*
X4393887Y-13256335D02*
X4412934Y-13246811D01*
X4565315Y-13427764D02*
X4574839Y-13437287D01*
X4574839Y-13437287D02*
X4565315Y-13446811D01*
X4565315Y-13446811D02*
X4555791Y-13437287D01*
X4555791Y-13437287D02*
X4565315Y-13427764D01*
X4565315Y-13427764D02*
X4565315Y-13446811D01*
X4698648Y-13246811D02*
X4717696Y-13246811D01*
X4717696Y-13246811D02*
X4736744Y-13256335D01*
X4736744Y-13256335D02*
X4746268Y-13265859D01*
X4746268Y-13265859D02*
X4755791Y-13284906D01*
X4755791Y-13284906D02*
X4765315Y-13323002D01*
X4765315Y-13323002D02*
X4765315Y-13370621D01*
X4765315Y-13370621D02*
X4755791Y-13408716D01*
X4755791Y-13408716D02*
X4746268Y-13427764D01*
X4746268Y-13427764D02*
X4736744Y-13437287D01*
X4736744Y-13437287D02*
X4717696Y-13446811D01*
X4717696Y-13446811D02*
X4698648Y-13446811D01*
X4698648Y-13446811D02*
X4679601Y-13437287D01*
X4679601Y-13437287D02*
X4670077Y-13427764D01*
X4670077Y-13427764D02*
X4660553Y-13408716D01*
X4660553Y-13408716D02*
X4651029Y-13370621D01*
X4651029Y-13370621D02*
X4651029Y-13323002D01*
X4651029Y-13323002D02*
X4660553Y-13284906D01*
X4660553Y-13284906D02*
X4670077Y-13265859D01*
X4670077Y-13265859D02*
X4679601Y-13256335D01*
X4679601Y-13256335D02*
X4698648Y-13246811D01*
X4955791Y-13446811D02*
X4841506Y-13446811D01*
X4898648Y-13446811D02*
X4898648Y-13246811D01*
X4898648Y-13246811D02*
X4879601Y-13275383D01*
X4879601Y-13275383D02*
X4860553Y-13294430D01*
X4860553Y-13294430D02*
X4841506Y-13303954D01*
X5136744Y-13246811D02*
X5041506Y-13246811D01*
X5041506Y-13246811D02*
X5031982Y-13342049D01*
X5031982Y-13342049D02*
X5041506Y-13332525D01*
X5041506Y-13332525D02*
X5060553Y-13323002D01*
X5060553Y-13323002D02*
X5108172Y-13323002D01*
X5108172Y-13323002D02*
X5127220Y-13332525D01*
X5127220Y-13332525D02*
X5136744Y-13342049D01*
X5136744Y-13342049D02*
X5146268Y-13361097D01*
X5146268Y-13361097D02*
X5146268Y-13408716D01*
X5146268Y-13408716D02*
X5136744Y-13427764D01*
X5136744Y-13427764D02*
X5127220Y-13437287D01*
X5127220Y-13437287D02*
X5108172Y-13446811D01*
X5108172Y-13446811D02*
X5060553Y-13446811D01*
X5060553Y-13446811D02*
X5041506Y-13437287D01*
X5041506Y-13437287D02*
X5031982Y-13427764D01*
X5212934Y-13246811D02*
X5346268Y-13246811D01*
X5346268Y-13246811D02*
X5260553Y-13446811D01*
X5412934Y-13246811D02*
X5412934Y-13284906D01*
X5489125Y-13246811D02*
X5489125Y-13284906D01*
X5784363Y-13523002D02*
X5774839Y-13513478D01*
X5774839Y-13513478D02*
X5755791Y-13484906D01*
X5755791Y-13484906D02*
X5746268Y-13465859D01*
X5746268Y-13465859D02*
X5736744Y-13437287D01*
X5736744Y-13437287D02*
X5727220Y-13389668D01*
X5727220Y-13389668D02*
X5727220Y-13351573D01*
X5727220Y-13351573D02*
X5736744Y-13303954D01*
X5736744Y-13303954D02*
X5746268Y-13275383D01*
X5746268Y-13275383D02*
X5755791Y-13256335D01*
X5755791Y-13256335D02*
X5774839Y-13227764D01*
X5774839Y-13227764D02*
X5784363Y-13218240D01*
X5946268Y-13313478D02*
X5946268Y-13446811D01*
X5898648Y-13237287D02*
X5851029Y-13380145D01*
X5851029Y-13380145D02*
X5974839Y-13380145D01*
X6041506Y-13265859D02*
X6051029Y-13256335D01*
X6051029Y-13256335D02*
X6070077Y-13246811D01*
X6070077Y-13246811D02*
X6117696Y-13246811D01*
X6117696Y-13246811D02*
X6136744Y-13256335D01*
X6136744Y-13256335D02*
X6146268Y-13265859D01*
X6146268Y-13265859D02*
X6155791Y-13284906D01*
X6155791Y-13284906D02*
X6155791Y-13303954D01*
X6155791Y-13303954D02*
X6146268Y-13332525D01*
X6146268Y-13332525D02*
X6031982Y-13446811D01*
X6031982Y-13446811D02*
X6155791Y-13446811D01*
X6393887Y-13446811D02*
X6393887Y-13246811D01*
X6479601Y-13446811D02*
X6479601Y-13342049D01*
X6479601Y-13342049D02*
X6470077Y-13323002D01*
X6470077Y-13323002D02*
X6451030Y-13313478D01*
X6451030Y-13313478D02*
X6422458Y-13313478D01*
X6422458Y-13313478D02*
X6403410Y-13323002D01*
X6403410Y-13323002D02*
X6393887Y-13332525D01*
X6603410Y-13446811D02*
X6584363Y-13437287D01*
X6584363Y-13437287D02*
X6574839Y-13427764D01*
X6574839Y-13427764D02*
X6565315Y-13408716D01*
X6565315Y-13408716D02*
X6565315Y-13351573D01*
X6565315Y-13351573D02*
X6574839Y-13332525D01*
X6574839Y-13332525D02*
X6584363Y-13323002D01*
X6584363Y-13323002D02*
X6603410Y-13313478D01*
X6603410Y-13313478D02*
X6631982Y-13313478D01*
X6631982Y-13313478D02*
X6651030Y-13323002D01*
X6651030Y-13323002D02*
X6660553Y-13332525D01*
X6660553Y-13332525D02*
X6670077Y-13351573D01*
X6670077Y-13351573D02*
X6670077Y-13408716D01*
X6670077Y-13408716D02*
X6660553Y-13427764D01*
X6660553Y-13427764D02*
X6651030Y-13437287D01*
X6651030Y-13437287D02*
X6631982Y-13446811D01*
X6631982Y-13446811D02*
X6603410Y-13446811D01*
X6784363Y-13446811D02*
X6765315Y-13437287D01*
X6765315Y-13437287D02*
X6755791Y-13418240D01*
X6755791Y-13418240D02*
X6755791Y-13246811D01*
X6936744Y-13437287D02*
X6917696Y-13446811D01*
X6917696Y-13446811D02*
X6879601Y-13446811D01*
X6879601Y-13446811D02*
X6860553Y-13437287D01*
X6860553Y-13437287D02*
X6851030Y-13418240D01*
X6851030Y-13418240D02*
X6851030Y-13342049D01*
X6851030Y-13342049D02*
X6860553Y-13323002D01*
X6860553Y-13323002D02*
X6879601Y-13313478D01*
X6879601Y-13313478D02*
X6917696Y-13313478D01*
X6917696Y-13313478D02*
X6936744Y-13323002D01*
X6936744Y-13323002D02*
X6946268Y-13342049D01*
X6946268Y-13342049D02*
X6946268Y-13361097D01*
X6946268Y-13361097D02*
X6851030Y-13380145D01*
X7022458Y-13437287D02*
X7041506Y-13446811D01*
X7041506Y-13446811D02*
X7079601Y-13446811D01*
X7079601Y-13446811D02*
X7098649Y-13437287D01*
X7098649Y-13437287D02*
X7108172Y-13418240D01*
X7108172Y-13418240D02*
X7108172Y-13408716D01*
X7108172Y-13408716D02*
X7098649Y-13389668D01*
X7098649Y-13389668D02*
X7079601Y-13380145D01*
X7079601Y-13380145D02*
X7051030Y-13380145D01*
X7051030Y-13380145D02*
X7031982Y-13370621D01*
X7031982Y-13370621D02*
X7022458Y-13351573D01*
X7022458Y-13351573D02*
X7022458Y-13342049D01*
X7022458Y-13342049D02*
X7031982Y-13323002D01*
X7031982Y-13323002D02*
X7051030Y-13313478D01*
X7051030Y-13313478D02*
X7079601Y-13313478D01*
X7079601Y-13313478D02*
X7098649Y-13323002D01*
X7174839Y-13523002D02*
X7184363Y-13513478D01*
X7184363Y-13513478D02*
X7203411Y-13484906D01*
X7203411Y-13484906D02*
X7212934Y-13465859D01*
X7212934Y-13465859D02*
X7222458Y-13437287D01*
X7222458Y-13437287D02*
X7231982Y-13389668D01*
X7231982Y-13389668D02*
X7231982Y-13351573D01*
X7231982Y-13351573D02*
X7222458Y-13303954D01*
X7222458Y-13303954D02*
X7212934Y-13275383D01*
X7212934Y-13275383D02*
X7203411Y-13256335D01*
X7203411Y-13256335D02*
X7184363Y-13227764D01*
X7184363Y-13227764D02*
X7174839Y-13218240D01*
D12*
X2189300Y-13599327D02*
X2189300Y-13639327D01*
X2169300Y-13619327D02*
X2209300Y-13619327D01*
D11*
X2508172Y-13510811D02*
X2527220Y-13510811D01*
X2527220Y-13510811D02*
X2546267Y-13520335D01*
X2546267Y-13520335D02*
X2555791Y-13529859D01*
X2555791Y-13529859D02*
X2565315Y-13548906D01*
X2565315Y-13548906D02*
X2574839Y-13587002D01*
X2574839Y-13587002D02*
X2574839Y-13634621D01*
X2574839Y-13634621D02*
X2565315Y-13672716D01*
X2565315Y-13672716D02*
X2555791Y-13691764D01*
X2555791Y-13691764D02*
X2546267Y-13701287D01*
X2546267Y-13701287D02*
X2527220Y-13710811D01*
X2527220Y-13710811D02*
X2508172Y-13710811D01*
X2508172Y-13710811D02*
X2489124Y-13701287D01*
X2489124Y-13701287D02*
X2479601Y-13691764D01*
X2479601Y-13691764D02*
X2470077Y-13672716D01*
X2470077Y-13672716D02*
X2460553Y-13634621D01*
X2460553Y-13634621D02*
X2460553Y-13587002D01*
X2460553Y-13587002D02*
X2470077Y-13548906D01*
X2470077Y-13548906D02*
X2479601Y-13529859D01*
X2479601Y-13529859D02*
X2489124Y-13520335D01*
X2489124Y-13520335D02*
X2508172Y-13510811D01*
X2660553Y-13691764D02*
X2670077Y-13701287D01*
X2670077Y-13701287D02*
X2660553Y-13710811D01*
X2660553Y-13710811D02*
X2651029Y-13701287D01*
X2651029Y-13701287D02*
X2660553Y-13691764D01*
X2660553Y-13691764D02*
X2660553Y-13710811D01*
X2841505Y-13577478D02*
X2841505Y-13710811D01*
X2793886Y-13501287D02*
X2746267Y-13644145D01*
X2746267Y-13644145D02*
X2870077Y-13644145D01*
X2984362Y-13510811D02*
X3003410Y-13510811D01*
X3003410Y-13510811D02*
X3022458Y-13520335D01*
X3022458Y-13520335D02*
X3031982Y-13529859D01*
X3031982Y-13529859D02*
X3041505Y-13548906D01*
X3041505Y-13548906D02*
X3051029Y-13587002D01*
X3051029Y-13587002D02*
X3051029Y-13634621D01*
X3051029Y-13634621D02*
X3041505Y-13672716D01*
X3041505Y-13672716D02*
X3031982Y-13691764D01*
X3031982Y-13691764D02*
X3022458Y-13701287D01*
X3022458Y-13701287D02*
X3003410Y-13710811D01*
X3003410Y-13710811D02*
X2984362Y-13710811D01*
X2984362Y-13710811D02*
X2965315Y-13701287D01*
X2965315Y-13701287D02*
X2955791Y-13691764D01*
X2955791Y-13691764D02*
X2946267Y-13672716D01*
X2946267Y-13672716D02*
X2936743Y-13634621D01*
X2936743Y-13634621D02*
X2936743Y-13587002D01*
X2936743Y-13587002D02*
X2946267Y-13548906D01*
X2946267Y-13548906D02*
X2955791Y-13529859D01*
X2955791Y-13529859D02*
X2965315Y-13520335D01*
X2965315Y-13520335D02*
X2984362Y-13510811D01*
X3174839Y-13510811D02*
X3193886Y-13510811D01*
X3193886Y-13510811D02*
X3212934Y-13520335D01*
X3212934Y-13520335D02*
X3222458Y-13529859D01*
X3222458Y-13529859D02*
X3231982Y-13548906D01*
X3231982Y-13548906D02*
X3241505Y-13587002D01*
X3241505Y-13587002D02*
X3241505Y-13634621D01*
X3241505Y-13634621D02*
X3231982Y-13672716D01*
X3231982Y-13672716D02*
X3222458Y-13691764D01*
X3222458Y-13691764D02*
X3212934Y-13701287D01*
X3212934Y-13701287D02*
X3193886Y-13710811D01*
X3193886Y-13710811D02*
X3174839Y-13710811D01*
X3174839Y-13710811D02*
X3155791Y-13701287D01*
X3155791Y-13701287D02*
X3146267Y-13691764D01*
X3146267Y-13691764D02*
X3136743Y-13672716D01*
X3136743Y-13672716D02*
X3127220Y-13634621D01*
X3127220Y-13634621D02*
X3127220Y-13587002D01*
X3127220Y-13587002D02*
X3136743Y-13548906D01*
X3136743Y-13548906D02*
X3146267Y-13529859D01*
X3146267Y-13529859D02*
X3155791Y-13520335D01*
X3155791Y-13520335D02*
X3174839Y-13510811D01*
X3327220Y-13710811D02*
X3327220Y-13577478D01*
X3327220Y-13596525D02*
X3336743Y-13587002D01*
X3336743Y-13587002D02*
X3355791Y-13577478D01*
X3355791Y-13577478D02*
X3384363Y-13577478D01*
X3384363Y-13577478D02*
X3403410Y-13587002D01*
X3403410Y-13587002D02*
X3412934Y-13606049D01*
X3412934Y-13606049D02*
X3412934Y-13710811D01*
X3412934Y-13606049D02*
X3422458Y-13587002D01*
X3422458Y-13587002D02*
X3441505Y-13577478D01*
X3441505Y-13577478D02*
X3470077Y-13577478D01*
X3470077Y-13577478D02*
X3489124Y-13587002D01*
X3489124Y-13587002D02*
X3498648Y-13606049D01*
X3498648Y-13606049D02*
X3498648Y-13710811D01*
X3593886Y-13710811D02*
X3593886Y-13577478D01*
X3593886Y-13596525D02*
X3603410Y-13587002D01*
X3603410Y-13587002D02*
X3622458Y-13577478D01*
X3622458Y-13577478D02*
X3651029Y-13577478D01*
X3651029Y-13577478D02*
X3670077Y-13587002D01*
X3670077Y-13587002D02*
X3679601Y-13606049D01*
X3679601Y-13606049D02*
X3679601Y-13710811D01*
X3679601Y-13606049D02*
X3689124Y-13587002D01*
X3689124Y-13587002D02*
X3708172Y-13577478D01*
X3708172Y-13577478D02*
X3736743Y-13577478D01*
X3736743Y-13577478D02*
X3755791Y-13587002D01*
X3755791Y-13587002D02*
X3765315Y-13606049D01*
X3765315Y-13606049D02*
X3765315Y-13710811D01*
X4155791Y-13501287D02*
X3984363Y-13758430D01*
X4412934Y-13510811D02*
X4431982Y-13510811D01*
X4431982Y-13510811D02*
X4451029Y-13520335D01*
X4451029Y-13520335D02*
X4460553Y-13529859D01*
X4460553Y-13529859D02*
X4470077Y-13548906D01*
X4470077Y-13548906D02*
X4479601Y-13587002D01*
X4479601Y-13587002D02*
X4479601Y-13634621D01*
X4479601Y-13634621D02*
X4470077Y-13672716D01*
X4470077Y-13672716D02*
X4460553Y-13691764D01*
X4460553Y-13691764D02*
X4451029Y-13701287D01*
X4451029Y-13701287D02*
X4431982Y-13710811D01*
X4431982Y-13710811D02*
X4412934Y-13710811D01*
X4412934Y-13710811D02*
X4393887Y-13701287D01*
X4393887Y-13701287D02*
X4384363Y-13691764D01*
X4384363Y-13691764D02*
X4374839Y-13672716D01*
X4374839Y-13672716D02*
X4365315Y-13634621D01*
X4365315Y-13634621D02*
X4365315Y-13587002D01*
X4365315Y-13587002D02*
X4374839Y-13548906D01*
X4374839Y-13548906D02*
X4384363Y-13529859D01*
X4384363Y-13529859D02*
X4393887Y-13520335D01*
X4393887Y-13520335D02*
X4412934Y-13510811D01*
X4565315Y-13691764D02*
X4574839Y-13701287D01*
X4574839Y-13701287D02*
X4565315Y-13710811D01*
X4565315Y-13710811D02*
X4555791Y-13701287D01*
X4555791Y-13701287D02*
X4565315Y-13691764D01*
X4565315Y-13691764D02*
X4565315Y-13710811D01*
X4698648Y-13510811D02*
X4717696Y-13510811D01*
X4717696Y-13510811D02*
X4736744Y-13520335D01*
X4736744Y-13520335D02*
X4746268Y-13529859D01*
X4746268Y-13529859D02*
X4755791Y-13548906D01*
X4755791Y-13548906D02*
X4765315Y-13587002D01*
X4765315Y-13587002D02*
X4765315Y-13634621D01*
X4765315Y-13634621D02*
X4755791Y-13672716D01*
X4755791Y-13672716D02*
X4746268Y-13691764D01*
X4746268Y-13691764D02*
X4736744Y-13701287D01*
X4736744Y-13701287D02*
X4717696Y-13710811D01*
X4717696Y-13710811D02*
X4698648Y-13710811D01*
X4698648Y-13710811D02*
X4679601Y-13701287D01*
X4679601Y-13701287D02*
X4670077Y-13691764D01*
X4670077Y-13691764D02*
X4660553Y-13672716D01*
X4660553Y-13672716D02*
X4651029Y-13634621D01*
X4651029Y-13634621D02*
X4651029Y-13587002D01*
X4651029Y-13587002D02*
X4660553Y-13548906D01*
X4660553Y-13548906D02*
X4670077Y-13529859D01*
X4670077Y-13529859D02*
X4679601Y-13520335D01*
X4679601Y-13520335D02*
X4698648Y-13510811D01*
X4955791Y-13710811D02*
X4841506Y-13710811D01*
X4898648Y-13710811D02*
X4898648Y-13510811D01*
X4898648Y-13510811D02*
X4879601Y-13539383D01*
X4879601Y-13539383D02*
X4860553Y-13558430D01*
X4860553Y-13558430D02*
X4841506Y-13567954D01*
X5136744Y-13510811D02*
X5041506Y-13510811D01*
X5041506Y-13510811D02*
X5031982Y-13606049D01*
X5031982Y-13606049D02*
X5041506Y-13596525D01*
X5041506Y-13596525D02*
X5060553Y-13587002D01*
X5060553Y-13587002D02*
X5108172Y-13587002D01*
X5108172Y-13587002D02*
X5127220Y-13596525D01*
X5127220Y-13596525D02*
X5136744Y-13606049D01*
X5136744Y-13606049D02*
X5146268Y-13625097D01*
X5146268Y-13625097D02*
X5146268Y-13672716D01*
X5146268Y-13672716D02*
X5136744Y-13691764D01*
X5136744Y-13691764D02*
X5127220Y-13701287D01*
X5127220Y-13701287D02*
X5108172Y-13710811D01*
X5108172Y-13710811D02*
X5060553Y-13710811D01*
X5060553Y-13710811D02*
X5041506Y-13701287D01*
X5041506Y-13701287D02*
X5031982Y-13691764D01*
X5212934Y-13510811D02*
X5346268Y-13510811D01*
X5346268Y-13510811D02*
X5260553Y-13710811D01*
X5412934Y-13510811D02*
X5412934Y-13548906D01*
X5489125Y-13510811D02*
X5489125Y-13548906D01*
X5784363Y-13787002D02*
X5774839Y-13777478D01*
X5774839Y-13777478D02*
X5755791Y-13748906D01*
X5755791Y-13748906D02*
X5746268Y-13729859D01*
X5746268Y-13729859D02*
X5736744Y-13701287D01*
X5736744Y-13701287D02*
X5727220Y-13653668D01*
X5727220Y-13653668D02*
X5727220Y-13615573D01*
X5727220Y-13615573D02*
X5736744Y-13567954D01*
X5736744Y-13567954D02*
X5746268Y-13539383D01*
X5746268Y-13539383D02*
X5755791Y-13520335D01*
X5755791Y-13520335D02*
X5774839Y-13491764D01*
X5774839Y-13491764D02*
X5784363Y-13482240D01*
X5841506Y-13510811D02*
X5965315Y-13510811D01*
X5965315Y-13510811D02*
X5898648Y-13587002D01*
X5898648Y-13587002D02*
X5927220Y-13587002D01*
X5927220Y-13587002D02*
X5946268Y-13596525D01*
X5946268Y-13596525D02*
X5955791Y-13606049D01*
X5955791Y-13606049D02*
X5965315Y-13625097D01*
X5965315Y-13625097D02*
X5965315Y-13672716D01*
X5965315Y-13672716D02*
X5955791Y-13691764D01*
X5955791Y-13691764D02*
X5946268Y-13701287D01*
X5946268Y-13701287D02*
X5927220Y-13710811D01*
X5927220Y-13710811D02*
X5870077Y-13710811D01*
X5870077Y-13710811D02*
X5851029Y-13701287D01*
X5851029Y-13701287D02*
X5841506Y-13691764D01*
X6041506Y-13529859D02*
X6051029Y-13520335D01*
X6051029Y-13520335D02*
X6070077Y-13510811D01*
X6070077Y-13510811D02*
X6117696Y-13510811D01*
X6117696Y-13510811D02*
X6136744Y-13520335D01*
X6136744Y-13520335D02*
X6146268Y-13529859D01*
X6146268Y-13529859D02*
X6155791Y-13548906D01*
X6155791Y-13548906D02*
X6155791Y-13567954D01*
X6155791Y-13567954D02*
X6146268Y-13596525D01*
X6146268Y-13596525D02*
X6031982Y-13710811D01*
X6031982Y-13710811D02*
X6155791Y-13710811D01*
X6393887Y-13710811D02*
X6393887Y-13510811D01*
X6479601Y-13710811D02*
X6479601Y-13606049D01*
X6479601Y-13606049D02*
X6470077Y-13587002D01*
X6470077Y-13587002D02*
X6451030Y-13577478D01*
X6451030Y-13577478D02*
X6422458Y-13577478D01*
X6422458Y-13577478D02*
X6403410Y-13587002D01*
X6403410Y-13587002D02*
X6393887Y-13596525D01*
X6603410Y-13710811D02*
X6584363Y-13701287D01*
X6584363Y-13701287D02*
X6574839Y-13691764D01*
X6574839Y-13691764D02*
X6565315Y-13672716D01*
X6565315Y-13672716D02*
X6565315Y-13615573D01*
X6565315Y-13615573D02*
X6574839Y-13596525D01*
X6574839Y-13596525D02*
X6584363Y-13587002D01*
X6584363Y-13587002D02*
X6603410Y-13577478D01*
X6603410Y-13577478D02*
X6631982Y-13577478D01*
X6631982Y-13577478D02*
X6651030Y-13587002D01*
X6651030Y-13587002D02*
X6660553Y-13596525D01*
X6660553Y-13596525D02*
X6670077Y-13615573D01*
X6670077Y-13615573D02*
X6670077Y-13672716D01*
X6670077Y-13672716D02*
X6660553Y-13691764D01*
X6660553Y-13691764D02*
X6651030Y-13701287D01*
X6651030Y-13701287D02*
X6631982Y-13710811D01*
X6631982Y-13710811D02*
X6603410Y-13710811D01*
X6784363Y-13710811D02*
X6765315Y-13701287D01*
X6765315Y-13701287D02*
X6755791Y-13682240D01*
X6755791Y-13682240D02*
X6755791Y-13510811D01*
X6936744Y-13701287D02*
X6917696Y-13710811D01*
X6917696Y-13710811D02*
X6879601Y-13710811D01*
X6879601Y-13710811D02*
X6860553Y-13701287D01*
X6860553Y-13701287D02*
X6851030Y-13682240D01*
X6851030Y-13682240D02*
X6851030Y-13606049D01*
X6851030Y-13606049D02*
X6860553Y-13587002D01*
X6860553Y-13587002D02*
X6879601Y-13577478D01*
X6879601Y-13577478D02*
X6917696Y-13577478D01*
X6917696Y-13577478D02*
X6936744Y-13587002D01*
X6936744Y-13587002D02*
X6946268Y-13606049D01*
X6946268Y-13606049D02*
X6946268Y-13625097D01*
X6946268Y-13625097D02*
X6851030Y-13644145D01*
X7022458Y-13701287D02*
X7041506Y-13710811D01*
X7041506Y-13710811D02*
X7079601Y-13710811D01*
X7079601Y-13710811D02*
X7098649Y-13701287D01*
X7098649Y-13701287D02*
X7108172Y-13682240D01*
X7108172Y-13682240D02*
X7108172Y-13672716D01*
X7108172Y-13672716D02*
X7098649Y-13653668D01*
X7098649Y-13653668D02*
X7079601Y-13644145D01*
X7079601Y-13644145D02*
X7051030Y-13644145D01*
X7051030Y-13644145D02*
X7031982Y-13634621D01*
X7031982Y-13634621D02*
X7022458Y-13615573D01*
X7022458Y-13615573D02*
X7022458Y-13606049D01*
X7022458Y-13606049D02*
X7031982Y-13587002D01*
X7031982Y-13587002D02*
X7051030Y-13577478D01*
X7051030Y-13577478D02*
X7079601Y-13577478D01*
X7079601Y-13577478D02*
X7098649Y-13587002D01*
X7174839Y-13787002D02*
X7184363Y-13777478D01*
X7184363Y-13777478D02*
X7203411Y-13748906D01*
X7203411Y-13748906D02*
X7212934Y-13729859D01*
X7212934Y-13729859D02*
X7222458Y-13701287D01*
X7222458Y-13701287D02*
X7231982Y-13653668D01*
X7231982Y-13653668D02*
X7231982Y-13615573D01*
X7231982Y-13615573D02*
X7222458Y-13567954D01*
X7222458Y-13567954D02*
X7212934Y-13539383D01*
X7212934Y-13539383D02*
X7203411Y-13520335D01*
X7203411Y-13520335D02*
X7184363Y-13491764D01*
X7184363Y-13491764D02*
X7174839Y-13482240D01*
D12*
X2201246Y-13902773D02*
X2201246Y-13863882D01*
X2162354Y-13863882D01*
X2162354Y-13902773D01*
X2201246Y-13902773D01*
D11*
X2508172Y-13774811D02*
X2527220Y-13774811D01*
X2527220Y-13774811D02*
X2546267Y-13784335D01*
X2546267Y-13784335D02*
X2555791Y-13793859D01*
X2555791Y-13793859D02*
X2565315Y-13812906D01*
X2565315Y-13812906D02*
X2574839Y-13851002D01*
X2574839Y-13851002D02*
X2574839Y-13898621D01*
X2574839Y-13898621D02*
X2565315Y-13936716D01*
X2565315Y-13936716D02*
X2555791Y-13955764D01*
X2555791Y-13955764D02*
X2546267Y-13965287D01*
X2546267Y-13965287D02*
X2527220Y-13974811D01*
X2527220Y-13974811D02*
X2508172Y-13974811D01*
X2508172Y-13974811D02*
X2489124Y-13965287D01*
X2489124Y-13965287D02*
X2479601Y-13955764D01*
X2479601Y-13955764D02*
X2470077Y-13936716D01*
X2470077Y-13936716D02*
X2460553Y-13898621D01*
X2460553Y-13898621D02*
X2460553Y-13851002D01*
X2460553Y-13851002D02*
X2470077Y-13812906D01*
X2470077Y-13812906D02*
X2479601Y-13793859D01*
X2479601Y-13793859D02*
X2489124Y-13784335D01*
X2489124Y-13784335D02*
X2508172Y-13774811D01*
X2660553Y-13955764D02*
X2670077Y-13965287D01*
X2670077Y-13965287D02*
X2660553Y-13974811D01*
X2660553Y-13974811D02*
X2651029Y-13965287D01*
X2651029Y-13965287D02*
X2660553Y-13955764D01*
X2660553Y-13955764D02*
X2660553Y-13974811D01*
X2851029Y-13774811D02*
X2755791Y-13774811D01*
X2755791Y-13774811D02*
X2746267Y-13870049D01*
X2746267Y-13870049D02*
X2755791Y-13860525D01*
X2755791Y-13860525D02*
X2774839Y-13851002D01*
X2774839Y-13851002D02*
X2822458Y-13851002D01*
X2822458Y-13851002D02*
X2841505Y-13860525D01*
X2841505Y-13860525D02*
X2851029Y-13870049D01*
X2851029Y-13870049D02*
X2860553Y-13889097D01*
X2860553Y-13889097D02*
X2860553Y-13936716D01*
X2860553Y-13936716D02*
X2851029Y-13955764D01*
X2851029Y-13955764D02*
X2841505Y-13965287D01*
X2841505Y-13965287D02*
X2822458Y-13974811D01*
X2822458Y-13974811D02*
X2774839Y-13974811D01*
X2774839Y-13974811D02*
X2755791Y-13965287D01*
X2755791Y-13965287D02*
X2746267Y-13955764D01*
X3041505Y-13774811D02*
X2946267Y-13774811D01*
X2946267Y-13774811D02*
X2936743Y-13870049D01*
X2936743Y-13870049D02*
X2946267Y-13860525D01*
X2946267Y-13860525D02*
X2965315Y-13851002D01*
X2965315Y-13851002D02*
X3012934Y-13851002D01*
X3012934Y-13851002D02*
X3031982Y-13860525D01*
X3031982Y-13860525D02*
X3041505Y-13870049D01*
X3041505Y-13870049D02*
X3051029Y-13889097D01*
X3051029Y-13889097D02*
X3051029Y-13936716D01*
X3051029Y-13936716D02*
X3041505Y-13955764D01*
X3041505Y-13955764D02*
X3031982Y-13965287D01*
X3031982Y-13965287D02*
X3012934Y-13974811D01*
X3012934Y-13974811D02*
X2965315Y-13974811D01*
X2965315Y-13974811D02*
X2946267Y-13965287D01*
X2946267Y-13965287D02*
X2936743Y-13955764D01*
X3174839Y-13774811D02*
X3193886Y-13774811D01*
X3193886Y-13774811D02*
X3212934Y-13784335D01*
X3212934Y-13784335D02*
X3222458Y-13793859D01*
X3222458Y-13793859D02*
X3231982Y-13812906D01*
X3231982Y-13812906D02*
X3241505Y-13851002D01*
X3241505Y-13851002D02*
X3241505Y-13898621D01*
X3241505Y-13898621D02*
X3231982Y-13936716D01*
X3231982Y-13936716D02*
X3222458Y-13955764D01*
X3222458Y-13955764D02*
X3212934Y-13965287D01*
X3212934Y-13965287D02*
X3193886Y-13974811D01*
X3193886Y-13974811D02*
X3174839Y-13974811D01*
X3174839Y-13974811D02*
X3155791Y-13965287D01*
X3155791Y-13965287D02*
X3146267Y-13955764D01*
X3146267Y-13955764D02*
X3136743Y-13936716D01*
X3136743Y-13936716D02*
X3127220Y-13898621D01*
X3127220Y-13898621D02*
X3127220Y-13851002D01*
X3127220Y-13851002D02*
X3136743Y-13812906D01*
X3136743Y-13812906D02*
X3146267Y-13793859D01*
X3146267Y-13793859D02*
X3155791Y-13784335D01*
X3155791Y-13784335D02*
X3174839Y-13774811D01*
X3327220Y-13974811D02*
X3327220Y-13841478D01*
X3327220Y-13860525D02*
X3336743Y-13851002D01*
X3336743Y-13851002D02*
X3355791Y-13841478D01*
X3355791Y-13841478D02*
X3384363Y-13841478D01*
X3384363Y-13841478D02*
X3403410Y-13851002D01*
X3403410Y-13851002D02*
X3412934Y-13870049D01*
X3412934Y-13870049D02*
X3412934Y-13974811D01*
X3412934Y-13870049D02*
X3422458Y-13851002D01*
X3422458Y-13851002D02*
X3441505Y-13841478D01*
X3441505Y-13841478D02*
X3470077Y-13841478D01*
X3470077Y-13841478D02*
X3489124Y-13851002D01*
X3489124Y-13851002D02*
X3498648Y-13870049D01*
X3498648Y-13870049D02*
X3498648Y-13974811D01*
X3593886Y-13974811D02*
X3593886Y-13841478D01*
X3593886Y-13860525D02*
X3603410Y-13851002D01*
X3603410Y-13851002D02*
X3622458Y-13841478D01*
X3622458Y-13841478D02*
X3651029Y-13841478D01*
X3651029Y-13841478D02*
X3670077Y-13851002D01*
X3670077Y-13851002D02*
X3679601Y-13870049D01*
X3679601Y-13870049D02*
X3679601Y-13974811D01*
X3679601Y-13870049D02*
X3689124Y-13851002D01*
X3689124Y-13851002D02*
X3708172Y-13841478D01*
X3708172Y-13841478D02*
X3736743Y-13841478D01*
X3736743Y-13841478D02*
X3755791Y-13851002D01*
X3755791Y-13851002D02*
X3765315Y-13870049D01*
X3765315Y-13870049D02*
X3765315Y-13974811D01*
X4155791Y-13765287D02*
X3984363Y-14022430D01*
X4412934Y-13774811D02*
X4431982Y-13774811D01*
X4431982Y-13774811D02*
X4451029Y-13784335D01*
X4451029Y-13784335D02*
X4460553Y-13793859D01*
X4460553Y-13793859D02*
X4470077Y-13812906D01*
X4470077Y-13812906D02*
X4479601Y-13851002D01*
X4479601Y-13851002D02*
X4479601Y-13898621D01*
X4479601Y-13898621D02*
X4470077Y-13936716D01*
X4470077Y-13936716D02*
X4460553Y-13955764D01*
X4460553Y-13955764D02*
X4451029Y-13965287D01*
X4451029Y-13965287D02*
X4431982Y-13974811D01*
X4431982Y-13974811D02*
X4412934Y-13974811D01*
X4412934Y-13974811D02*
X4393887Y-13965287D01*
X4393887Y-13965287D02*
X4384363Y-13955764D01*
X4384363Y-13955764D02*
X4374839Y-13936716D01*
X4374839Y-13936716D02*
X4365315Y-13898621D01*
X4365315Y-13898621D02*
X4365315Y-13851002D01*
X4365315Y-13851002D02*
X4374839Y-13812906D01*
X4374839Y-13812906D02*
X4384363Y-13793859D01*
X4384363Y-13793859D02*
X4393887Y-13784335D01*
X4393887Y-13784335D02*
X4412934Y-13774811D01*
X4565315Y-13955764D02*
X4574839Y-13965287D01*
X4574839Y-13965287D02*
X4565315Y-13974811D01*
X4565315Y-13974811D02*
X4555791Y-13965287D01*
X4555791Y-13965287D02*
X4565315Y-13955764D01*
X4565315Y-13955764D02*
X4565315Y-13974811D01*
X4698648Y-13774811D02*
X4717696Y-13774811D01*
X4717696Y-13774811D02*
X4736744Y-13784335D01*
X4736744Y-13784335D02*
X4746268Y-13793859D01*
X4746268Y-13793859D02*
X4755791Y-13812906D01*
X4755791Y-13812906D02*
X4765315Y-13851002D01*
X4765315Y-13851002D02*
X4765315Y-13898621D01*
X4765315Y-13898621D02*
X4755791Y-13936716D01*
X4755791Y-13936716D02*
X4746268Y-13955764D01*
X4746268Y-13955764D02*
X4736744Y-13965287D01*
X4736744Y-13965287D02*
X4717696Y-13974811D01*
X4717696Y-13974811D02*
X4698648Y-13974811D01*
X4698648Y-13974811D02*
X4679601Y-13965287D01*
X4679601Y-13965287D02*
X4670077Y-13955764D01*
X4670077Y-13955764D02*
X4660553Y-13936716D01*
X4660553Y-13936716D02*
X4651029Y-13898621D01*
X4651029Y-13898621D02*
X4651029Y-13851002D01*
X4651029Y-13851002D02*
X4660553Y-13812906D01*
X4660553Y-13812906D02*
X4670077Y-13793859D01*
X4670077Y-13793859D02*
X4679601Y-13784335D01*
X4679601Y-13784335D02*
X4698648Y-13774811D01*
X4841506Y-13793859D02*
X4851029Y-13784335D01*
X4851029Y-13784335D02*
X4870077Y-13774811D01*
X4870077Y-13774811D02*
X4917696Y-13774811D01*
X4917696Y-13774811D02*
X4936744Y-13784335D01*
X4936744Y-13784335D02*
X4946268Y-13793859D01*
X4946268Y-13793859D02*
X4955791Y-13812906D01*
X4955791Y-13812906D02*
X4955791Y-13831954D01*
X4955791Y-13831954D02*
X4946268Y-13860525D01*
X4946268Y-13860525D02*
X4831982Y-13974811D01*
X4831982Y-13974811D02*
X4955791Y-13974811D01*
X5146268Y-13974811D02*
X5031982Y-13974811D01*
X5089125Y-13974811D02*
X5089125Y-13774811D01*
X5089125Y-13774811D02*
X5070077Y-13803383D01*
X5070077Y-13803383D02*
X5051029Y-13822430D01*
X5051029Y-13822430D02*
X5031982Y-13831954D01*
X5212934Y-13774811D02*
X5346268Y-13774811D01*
X5346268Y-13774811D02*
X5260553Y-13974811D01*
X5412934Y-13774811D02*
X5412934Y-13812906D01*
X5489125Y-13774811D02*
X5489125Y-13812906D01*
X5784363Y-14051002D02*
X5774839Y-14041478D01*
X5774839Y-14041478D02*
X5755791Y-14012906D01*
X5755791Y-14012906D02*
X5746268Y-13993859D01*
X5746268Y-13993859D02*
X5736744Y-13965287D01*
X5736744Y-13965287D02*
X5727220Y-13917668D01*
X5727220Y-13917668D02*
X5727220Y-13879573D01*
X5727220Y-13879573D02*
X5736744Y-13831954D01*
X5736744Y-13831954D02*
X5746268Y-13803383D01*
X5746268Y-13803383D02*
X5755791Y-13784335D01*
X5755791Y-13784335D02*
X5774839Y-13755764D01*
X5774839Y-13755764D02*
X5784363Y-13746240D01*
X5965315Y-13974811D02*
X5851029Y-13974811D01*
X5908172Y-13974811D02*
X5908172Y-13774811D01*
X5908172Y-13774811D02*
X5889125Y-13803383D01*
X5889125Y-13803383D02*
X5870077Y-13822430D01*
X5870077Y-13822430D02*
X5851029Y-13831954D01*
X6060553Y-13974811D02*
X6098648Y-13974811D01*
X6098648Y-13974811D02*
X6117696Y-13965287D01*
X6117696Y-13965287D02*
X6127220Y-13955764D01*
X6127220Y-13955764D02*
X6146268Y-13927192D01*
X6146268Y-13927192D02*
X6155791Y-13889097D01*
X6155791Y-13889097D02*
X6155791Y-13812906D01*
X6155791Y-13812906D02*
X6146268Y-13793859D01*
X6146268Y-13793859D02*
X6136744Y-13784335D01*
X6136744Y-13784335D02*
X6117696Y-13774811D01*
X6117696Y-13774811D02*
X6079601Y-13774811D01*
X6079601Y-13774811D02*
X6060553Y-13784335D01*
X6060553Y-13784335D02*
X6051029Y-13793859D01*
X6051029Y-13793859D02*
X6041506Y-13812906D01*
X6041506Y-13812906D02*
X6041506Y-13860525D01*
X6041506Y-13860525D02*
X6051029Y-13879573D01*
X6051029Y-13879573D02*
X6060553Y-13889097D01*
X6060553Y-13889097D02*
X6079601Y-13898621D01*
X6079601Y-13898621D02*
X6117696Y-13898621D01*
X6117696Y-13898621D02*
X6136744Y-13889097D01*
X6136744Y-13889097D02*
X6146268Y-13879573D01*
X6146268Y-13879573D02*
X6155791Y-13860525D01*
X6393887Y-13974811D02*
X6393887Y-13774811D01*
X6479601Y-13974811D02*
X6479601Y-13870049D01*
X6479601Y-13870049D02*
X6470077Y-13851002D01*
X6470077Y-13851002D02*
X6451030Y-13841478D01*
X6451030Y-13841478D02*
X6422458Y-13841478D01*
X6422458Y-13841478D02*
X6403410Y-13851002D01*
X6403410Y-13851002D02*
X6393887Y-13860525D01*
X6603410Y-13974811D02*
X6584363Y-13965287D01*
X6584363Y-13965287D02*
X6574839Y-13955764D01*
X6574839Y-13955764D02*
X6565315Y-13936716D01*
X6565315Y-13936716D02*
X6565315Y-13879573D01*
X6565315Y-13879573D02*
X6574839Y-13860525D01*
X6574839Y-13860525D02*
X6584363Y-13851002D01*
X6584363Y-13851002D02*
X6603410Y-13841478D01*
X6603410Y-13841478D02*
X6631982Y-13841478D01*
X6631982Y-13841478D02*
X6651030Y-13851002D01*
X6651030Y-13851002D02*
X6660553Y-13860525D01*
X6660553Y-13860525D02*
X6670077Y-13879573D01*
X6670077Y-13879573D02*
X6670077Y-13936716D01*
X6670077Y-13936716D02*
X6660553Y-13955764D01*
X6660553Y-13955764D02*
X6651030Y-13965287D01*
X6651030Y-13965287D02*
X6631982Y-13974811D01*
X6631982Y-13974811D02*
X6603410Y-13974811D01*
X6784363Y-13974811D02*
X6765315Y-13965287D01*
X6765315Y-13965287D02*
X6755791Y-13946240D01*
X6755791Y-13946240D02*
X6755791Y-13774811D01*
X6936744Y-13965287D02*
X6917696Y-13974811D01*
X6917696Y-13974811D02*
X6879601Y-13974811D01*
X6879601Y-13974811D02*
X6860553Y-13965287D01*
X6860553Y-13965287D02*
X6851030Y-13946240D01*
X6851030Y-13946240D02*
X6851030Y-13870049D01*
X6851030Y-13870049D02*
X6860553Y-13851002D01*
X6860553Y-13851002D02*
X6879601Y-13841478D01*
X6879601Y-13841478D02*
X6917696Y-13841478D01*
X6917696Y-13841478D02*
X6936744Y-13851002D01*
X6936744Y-13851002D02*
X6946268Y-13870049D01*
X6946268Y-13870049D02*
X6946268Y-13889097D01*
X6946268Y-13889097D02*
X6851030Y-13908145D01*
X7022458Y-13965287D02*
X7041506Y-13974811D01*
X7041506Y-13974811D02*
X7079601Y-13974811D01*
X7079601Y-13974811D02*
X7098649Y-13965287D01*
X7098649Y-13965287D02*
X7108172Y-13946240D01*
X7108172Y-13946240D02*
X7108172Y-13936716D01*
X7108172Y-13936716D02*
X7098649Y-13917668D01*
X7098649Y-13917668D02*
X7079601Y-13908145D01*
X7079601Y-13908145D02*
X7051030Y-13908145D01*
X7051030Y-13908145D02*
X7031982Y-13898621D01*
X7031982Y-13898621D02*
X7022458Y-13879573D01*
X7022458Y-13879573D02*
X7022458Y-13870049D01*
X7022458Y-13870049D02*
X7031982Y-13851002D01*
X7031982Y-13851002D02*
X7051030Y-13841478D01*
X7051030Y-13841478D02*
X7079601Y-13841478D01*
X7079601Y-13841478D02*
X7098649Y-13851002D01*
X7174839Y-14051002D02*
X7184363Y-14041478D01*
X7184363Y-14041478D02*
X7203411Y-14012906D01*
X7203411Y-14012906D02*
X7212934Y-13993859D01*
X7212934Y-13993859D02*
X7222458Y-13965287D01*
X7222458Y-13965287D02*
X7231982Y-13917668D01*
X7231982Y-13917668D02*
X7231982Y-13879573D01*
X7231982Y-13879573D02*
X7222458Y-13831954D01*
X7222458Y-13831954D02*
X7212934Y-13803383D01*
X7212934Y-13803383D02*
X7203411Y-13784335D01*
X7203411Y-13784335D02*
X7184363Y-13755764D01*
X7184363Y-13755764D02*
X7174839Y-13746240D01*
D12*
X2179300Y-14177327D02*
X2209300Y-14147327D01*
X2179300Y-14117327D01*
X2149300Y-14147327D01*
X2179300Y-14177327D01*
D11*
X2508172Y-14038811D02*
X2527220Y-14038811D01*
X2527220Y-14038811D02*
X2546267Y-14048335D01*
X2546267Y-14048335D02*
X2555791Y-14057859D01*
X2555791Y-14057859D02*
X2565315Y-14076906D01*
X2565315Y-14076906D02*
X2574839Y-14115002D01*
X2574839Y-14115002D02*
X2574839Y-14162621D01*
X2574839Y-14162621D02*
X2565315Y-14200716D01*
X2565315Y-14200716D02*
X2555791Y-14219764D01*
X2555791Y-14219764D02*
X2546267Y-14229287D01*
X2546267Y-14229287D02*
X2527220Y-14238811D01*
X2527220Y-14238811D02*
X2508172Y-14238811D01*
X2508172Y-14238811D02*
X2489124Y-14229287D01*
X2489124Y-14229287D02*
X2479601Y-14219764D01*
X2479601Y-14219764D02*
X2470077Y-14200716D01*
X2470077Y-14200716D02*
X2460553Y-14162621D01*
X2460553Y-14162621D02*
X2460553Y-14115002D01*
X2460553Y-14115002D02*
X2470077Y-14076906D01*
X2470077Y-14076906D02*
X2479601Y-14057859D01*
X2479601Y-14057859D02*
X2489124Y-14048335D01*
X2489124Y-14048335D02*
X2508172Y-14038811D01*
X2660553Y-14219764D02*
X2670077Y-14229287D01*
X2670077Y-14229287D02*
X2660553Y-14238811D01*
X2660553Y-14238811D02*
X2651029Y-14229287D01*
X2651029Y-14229287D02*
X2660553Y-14219764D01*
X2660553Y-14219764D02*
X2660553Y-14238811D01*
X2841505Y-14038811D02*
X2803410Y-14038811D01*
X2803410Y-14038811D02*
X2784363Y-14048335D01*
X2784363Y-14048335D02*
X2774839Y-14057859D01*
X2774839Y-14057859D02*
X2755791Y-14086430D01*
X2755791Y-14086430D02*
X2746267Y-14124525D01*
X2746267Y-14124525D02*
X2746267Y-14200716D01*
X2746267Y-14200716D02*
X2755791Y-14219764D01*
X2755791Y-14219764D02*
X2765315Y-14229287D01*
X2765315Y-14229287D02*
X2784363Y-14238811D01*
X2784363Y-14238811D02*
X2822458Y-14238811D01*
X2822458Y-14238811D02*
X2841505Y-14229287D01*
X2841505Y-14229287D02*
X2851029Y-14219764D01*
X2851029Y-14219764D02*
X2860553Y-14200716D01*
X2860553Y-14200716D02*
X2860553Y-14153097D01*
X2860553Y-14153097D02*
X2851029Y-14134049D01*
X2851029Y-14134049D02*
X2841505Y-14124525D01*
X2841505Y-14124525D02*
X2822458Y-14115002D01*
X2822458Y-14115002D02*
X2784363Y-14115002D01*
X2784363Y-14115002D02*
X2765315Y-14124525D01*
X2765315Y-14124525D02*
X2755791Y-14134049D01*
X2755791Y-14134049D02*
X2746267Y-14153097D01*
X2984362Y-14038811D02*
X3003410Y-14038811D01*
X3003410Y-14038811D02*
X3022458Y-14048335D01*
X3022458Y-14048335D02*
X3031982Y-14057859D01*
X3031982Y-14057859D02*
X3041505Y-14076906D01*
X3041505Y-14076906D02*
X3051029Y-14115002D01*
X3051029Y-14115002D02*
X3051029Y-14162621D01*
X3051029Y-14162621D02*
X3041505Y-14200716D01*
X3041505Y-14200716D02*
X3031982Y-14219764D01*
X3031982Y-14219764D02*
X3022458Y-14229287D01*
X3022458Y-14229287D02*
X3003410Y-14238811D01*
X3003410Y-14238811D02*
X2984362Y-14238811D01*
X2984362Y-14238811D02*
X2965315Y-14229287D01*
X2965315Y-14229287D02*
X2955791Y-14219764D01*
X2955791Y-14219764D02*
X2946267Y-14200716D01*
X2946267Y-14200716D02*
X2936743Y-14162621D01*
X2936743Y-14162621D02*
X2936743Y-14115002D01*
X2936743Y-14115002D02*
X2946267Y-14076906D01*
X2946267Y-14076906D02*
X2955791Y-14057859D01*
X2955791Y-14057859D02*
X2965315Y-14048335D01*
X2965315Y-14048335D02*
X2984362Y-14038811D01*
X3174839Y-14038811D02*
X3193886Y-14038811D01*
X3193886Y-14038811D02*
X3212934Y-14048335D01*
X3212934Y-14048335D02*
X3222458Y-14057859D01*
X3222458Y-14057859D02*
X3231982Y-14076906D01*
X3231982Y-14076906D02*
X3241505Y-14115002D01*
X3241505Y-14115002D02*
X3241505Y-14162621D01*
X3241505Y-14162621D02*
X3231982Y-14200716D01*
X3231982Y-14200716D02*
X3222458Y-14219764D01*
X3222458Y-14219764D02*
X3212934Y-14229287D01*
X3212934Y-14229287D02*
X3193886Y-14238811D01*
X3193886Y-14238811D02*
X3174839Y-14238811D01*
X3174839Y-14238811D02*
X3155791Y-14229287D01*
X3155791Y-14229287D02*
X3146267Y-14219764D01*
X3146267Y-14219764D02*
X3136743Y-14200716D01*
X3136743Y-14200716D02*
X3127220Y-14162621D01*
X3127220Y-14162621D02*
X3127220Y-14115002D01*
X3127220Y-14115002D02*
X3136743Y-14076906D01*
X3136743Y-14076906D02*
X3146267Y-14057859D01*
X3146267Y-14057859D02*
X3155791Y-14048335D01*
X3155791Y-14048335D02*
X3174839Y-14038811D01*
X3327220Y-14238811D02*
X3327220Y-14105478D01*
X3327220Y-14124525D02*
X3336743Y-14115002D01*
X3336743Y-14115002D02*
X3355791Y-14105478D01*
X3355791Y-14105478D02*
X3384363Y-14105478D01*
X3384363Y-14105478D02*
X3403410Y-14115002D01*
X3403410Y-14115002D02*
X3412934Y-14134049D01*
X3412934Y-14134049D02*
X3412934Y-14238811D01*
X3412934Y-14134049D02*
X3422458Y-14115002D01*
X3422458Y-14115002D02*
X3441505Y-14105478D01*
X3441505Y-14105478D02*
X3470077Y-14105478D01*
X3470077Y-14105478D02*
X3489124Y-14115002D01*
X3489124Y-14115002D02*
X3498648Y-14134049D01*
X3498648Y-14134049D02*
X3498648Y-14238811D01*
X3593886Y-14238811D02*
X3593886Y-14105478D01*
X3593886Y-14124525D02*
X3603410Y-14115002D01*
X3603410Y-14115002D02*
X3622458Y-14105478D01*
X3622458Y-14105478D02*
X3651029Y-14105478D01*
X3651029Y-14105478D02*
X3670077Y-14115002D01*
X3670077Y-14115002D02*
X3679601Y-14134049D01*
X3679601Y-14134049D02*
X3679601Y-14238811D01*
X3679601Y-14134049D02*
X3689124Y-14115002D01*
X3689124Y-14115002D02*
X3708172Y-14105478D01*
X3708172Y-14105478D02*
X3736743Y-14105478D01*
X3736743Y-14105478D02*
X3755791Y-14115002D01*
X3755791Y-14115002D02*
X3765315Y-14134049D01*
X3765315Y-14134049D02*
X3765315Y-14238811D01*
X4155791Y-14029287D02*
X3984363Y-14286430D01*
X4412934Y-14038811D02*
X4431982Y-14038811D01*
X4431982Y-14038811D02*
X4451029Y-14048335D01*
X4451029Y-14048335D02*
X4460553Y-14057859D01*
X4460553Y-14057859D02*
X4470077Y-14076906D01*
X4470077Y-14076906D02*
X4479601Y-14115002D01*
X4479601Y-14115002D02*
X4479601Y-14162621D01*
X4479601Y-14162621D02*
X4470077Y-14200716D01*
X4470077Y-14200716D02*
X4460553Y-14219764D01*
X4460553Y-14219764D02*
X4451029Y-14229287D01*
X4451029Y-14229287D02*
X4431982Y-14238811D01*
X4431982Y-14238811D02*
X4412934Y-14238811D01*
X4412934Y-14238811D02*
X4393887Y-14229287D01*
X4393887Y-14229287D02*
X4384363Y-14219764D01*
X4384363Y-14219764D02*
X4374839Y-14200716D01*
X4374839Y-14200716D02*
X4365315Y-14162621D01*
X4365315Y-14162621D02*
X4365315Y-14115002D01*
X4365315Y-14115002D02*
X4374839Y-14076906D01*
X4374839Y-14076906D02*
X4384363Y-14057859D01*
X4384363Y-14057859D02*
X4393887Y-14048335D01*
X4393887Y-14048335D02*
X4412934Y-14038811D01*
X4565315Y-14219764D02*
X4574839Y-14229287D01*
X4574839Y-14229287D02*
X4565315Y-14238811D01*
X4565315Y-14238811D02*
X4555791Y-14229287D01*
X4555791Y-14229287D02*
X4565315Y-14219764D01*
X4565315Y-14219764D02*
X4565315Y-14238811D01*
X4698648Y-14038811D02*
X4717696Y-14038811D01*
X4717696Y-14038811D02*
X4736744Y-14048335D01*
X4736744Y-14048335D02*
X4746268Y-14057859D01*
X4746268Y-14057859D02*
X4755791Y-14076906D01*
X4755791Y-14076906D02*
X4765315Y-14115002D01*
X4765315Y-14115002D02*
X4765315Y-14162621D01*
X4765315Y-14162621D02*
X4755791Y-14200716D01*
X4755791Y-14200716D02*
X4746268Y-14219764D01*
X4746268Y-14219764D02*
X4736744Y-14229287D01*
X4736744Y-14229287D02*
X4717696Y-14238811D01*
X4717696Y-14238811D02*
X4698648Y-14238811D01*
X4698648Y-14238811D02*
X4679601Y-14229287D01*
X4679601Y-14229287D02*
X4670077Y-14219764D01*
X4670077Y-14219764D02*
X4660553Y-14200716D01*
X4660553Y-14200716D02*
X4651029Y-14162621D01*
X4651029Y-14162621D02*
X4651029Y-14115002D01*
X4651029Y-14115002D02*
X4660553Y-14076906D01*
X4660553Y-14076906D02*
X4670077Y-14057859D01*
X4670077Y-14057859D02*
X4679601Y-14048335D01*
X4679601Y-14048335D02*
X4698648Y-14038811D01*
X4841506Y-14057859D02*
X4851029Y-14048335D01*
X4851029Y-14048335D02*
X4870077Y-14038811D01*
X4870077Y-14038811D02*
X4917696Y-14038811D01*
X4917696Y-14038811D02*
X4936744Y-14048335D01*
X4936744Y-14048335D02*
X4946268Y-14057859D01*
X4946268Y-14057859D02*
X4955791Y-14076906D01*
X4955791Y-14076906D02*
X4955791Y-14095954D01*
X4955791Y-14095954D02*
X4946268Y-14124525D01*
X4946268Y-14124525D02*
X4831982Y-14238811D01*
X4831982Y-14238811D02*
X4955791Y-14238811D01*
X5022458Y-14038811D02*
X5146268Y-14038811D01*
X5146268Y-14038811D02*
X5079601Y-14115002D01*
X5079601Y-14115002D02*
X5108172Y-14115002D01*
X5108172Y-14115002D02*
X5127220Y-14124525D01*
X5127220Y-14124525D02*
X5136744Y-14134049D01*
X5136744Y-14134049D02*
X5146268Y-14153097D01*
X5146268Y-14153097D02*
X5146268Y-14200716D01*
X5146268Y-14200716D02*
X5136744Y-14219764D01*
X5136744Y-14219764D02*
X5127220Y-14229287D01*
X5127220Y-14229287D02*
X5108172Y-14238811D01*
X5108172Y-14238811D02*
X5051029Y-14238811D01*
X5051029Y-14238811D02*
X5031982Y-14229287D01*
X5031982Y-14229287D02*
X5022458Y-14219764D01*
X5317696Y-14038811D02*
X5279601Y-14038811D01*
X5279601Y-14038811D02*
X5260553Y-14048335D01*
X5260553Y-14048335D02*
X5251029Y-14057859D01*
X5251029Y-14057859D02*
X5231982Y-14086430D01*
X5231982Y-14086430D02*
X5222458Y-14124525D01*
X5222458Y-14124525D02*
X5222458Y-14200716D01*
X5222458Y-14200716D02*
X5231982Y-14219764D01*
X5231982Y-14219764D02*
X5241506Y-14229287D01*
X5241506Y-14229287D02*
X5260553Y-14238811D01*
X5260553Y-14238811D02*
X5298649Y-14238811D01*
X5298649Y-14238811D02*
X5317696Y-14229287D01*
X5317696Y-14229287D02*
X5327220Y-14219764D01*
X5327220Y-14219764D02*
X5336744Y-14200716D01*
X5336744Y-14200716D02*
X5336744Y-14153097D01*
X5336744Y-14153097D02*
X5327220Y-14134049D01*
X5327220Y-14134049D02*
X5317696Y-14124525D01*
X5317696Y-14124525D02*
X5298649Y-14115002D01*
X5298649Y-14115002D02*
X5260553Y-14115002D01*
X5260553Y-14115002D02*
X5241506Y-14124525D01*
X5241506Y-14124525D02*
X5231982Y-14134049D01*
X5231982Y-14134049D02*
X5222458Y-14153097D01*
X5412934Y-14038811D02*
X5412934Y-14076906D01*
X5489125Y-14038811D02*
X5489125Y-14076906D01*
X5784363Y-14315002D02*
X5774839Y-14305478D01*
X5774839Y-14305478D02*
X5755791Y-14276906D01*
X5755791Y-14276906D02*
X5746268Y-14257859D01*
X5746268Y-14257859D02*
X5736744Y-14229287D01*
X5736744Y-14229287D02*
X5727220Y-14181668D01*
X5727220Y-14181668D02*
X5727220Y-14143573D01*
X5727220Y-14143573D02*
X5736744Y-14095954D01*
X5736744Y-14095954D02*
X5746268Y-14067383D01*
X5746268Y-14067383D02*
X5755791Y-14048335D01*
X5755791Y-14048335D02*
X5774839Y-14019764D01*
X5774839Y-14019764D02*
X5784363Y-14010240D01*
X5898648Y-14038811D02*
X5917696Y-14038811D01*
X5917696Y-14038811D02*
X5936744Y-14048335D01*
X5936744Y-14048335D02*
X5946268Y-14057859D01*
X5946268Y-14057859D02*
X5955791Y-14076906D01*
X5955791Y-14076906D02*
X5965315Y-14115002D01*
X5965315Y-14115002D02*
X5965315Y-14162621D01*
X5965315Y-14162621D02*
X5955791Y-14200716D01*
X5955791Y-14200716D02*
X5946268Y-14219764D01*
X5946268Y-14219764D02*
X5936744Y-14229287D01*
X5936744Y-14229287D02*
X5917696Y-14238811D01*
X5917696Y-14238811D02*
X5898648Y-14238811D01*
X5898648Y-14238811D02*
X5879601Y-14229287D01*
X5879601Y-14229287D02*
X5870077Y-14219764D01*
X5870077Y-14219764D02*
X5860553Y-14200716D01*
X5860553Y-14200716D02*
X5851029Y-14162621D01*
X5851029Y-14162621D02*
X5851029Y-14115002D01*
X5851029Y-14115002D02*
X5860553Y-14076906D01*
X5860553Y-14076906D02*
X5870077Y-14057859D01*
X5870077Y-14057859D02*
X5879601Y-14048335D01*
X5879601Y-14048335D02*
X5898648Y-14038811D01*
X6203410Y-14238811D02*
X6203410Y-14038811D01*
X6289125Y-14238811D02*
X6289125Y-14134049D01*
X6289125Y-14134049D02*
X6279601Y-14115002D01*
X6279601Y-14115002D02*
X6260553Y-14105478D01*
X6260553Y-14105478D02*
X6231982Y-14105478D01*
X6231982Y-14105478D02*
X6212934Y-14115002D01*
X6212934Y-14115002D02*
X6203410Y-14124525D01*
X6412934Y-14238811D02*
X6393887Y-14229287D01*
X6393887Y-14229287D02*
X6384363Y-14219764D01*
X6384363Y-14219764D02*
X6374839Y-14200716D01*
X6374839Y-14200716D02*
X6374839Y-14143573D01*
X6374839Y-14143573D02*
X6384363Y-14124525D01*
X6384363Y-14124525D02*
X6393887Y-14115002D01*
X6393887Y-14115002D02*
X6412934Y-14105478D01*
X6412934Y-14105478D02*
X6441506Y-14105478D01*
X6441506Y-14105478D02*
X6460553Y-14115002D01*
X6460553Y-14115002D02*
X6470077Y-14124525D01*
X6470077Y-14124525D02*
X6479601Y-14143573D01*
X6479601Y-14143573D02*
X6479601Y-14200716D01*
X6479601Y-14200716D02*
X6470077Y-14219764D01*
X6470077Y-14219764D02*
X6460553Y-14229287D01*
X6460553Y-14229287D02*
X6441506Y-14238811D01*
X6441506Y-14238811D02*
X6412934Y-14238811D01*
X6593887Y-14238811D02*
X6574839Y-14229287D01*
X6574839Y-14229287D02*
X6565315Y-14210240D01*
X6565315Y-14210240D02*
X6565315Y-14038811D01*
X6746268Y-14229287D02*
X6727220Y-14238811D01*
X6727220Y-14238811D02*
X6689125Y-14238811D01*
X6689125Y-14238811D02*
X6670077Y-14229287D01*
X6670077Y-14229287D02*
X6660553Y-14210240D01*
X6660553Y-14210240D02*
X6660553Y-14134049D01*
X6660553Y-14134049D02*
X6670077Y-14115002D01*
X6670077Y-14115002D02*
X6689125Y-14105478D01*
X6689125Y-14105478D02*
X6727220Y-14105478D01*
X6727220Y-14105478D02*
X6746268Y-14115002D01*
X6746268Y-14115002D02*
X6755791Y-14134049D01*
X6755791Y-14134049D02*
X6755791Y-14153097D01*
X6755791Y-14153097D02*
X6660553Y-14172145D01*
X6831982Y-14229287D02*
X6851030Y-14238811D01*
X6851030Y-14238811D02*
X6889125Y-14238811D01*
X6889125Y-14238811D02*
X6908172Y-14229287D01*
X6908172Y-14229287D02*
X6917696Y-14210240D01*
X6917696Y-14210240D02*
X6917696Y-14200716D01*
X6917696Y-14200716D02*
X6908172Y-14181668D01*
X6908172Y-14181668D02*
X6889125Y-14172145D01*
X6889125Y-14172145D02*
X6860553Y-14172145D01*
X6860553Y-14172145D02*
X6841506Y-14162621D01*
X6841506Y-14162621D02*
X6831982Y-14143573D01*
X6831982Y-14143573D02*
X6831982Y-14134049D01*
X6831982Y-14134049D02*
X6841506Y-14115002D01*
X6841506Y-14115002D02*
X6860553Y-14105478D01*
X6860553Y-14105478D02*
X6889125Y-14105478D01*
X6889125Y-14105478D02*
X6908172Y-14115002D01*
X7155792Y-14162621D02*
X7308173Y-14162621D01*
X7231982Y-14238811D02*
X7231982Y-14086430D01*
X7584363Y-14124525D02*
X7565315Y-14115002D01*
X7565315Y-14115002D02*
X7555792Y-14105478D01*
X7555792Y-14105478D02*
X7546268Y-14086430D01*
X7546268Y-14086430D02*
X7546268Y-14076906D01*
X7546268Y-14076906D02*
X7555792Y-14057859D01*
X7555792Y-14057859D02*
X7565315Y-14048335D01*
X7565315Y-14048335D02*
X7584363Y-14038811D01*
X7584363Y-14038811D02*
X7622458Y-14038811D01*
X7622458Y-14038811D02*
X7641506Y-14048335D01*
X7641506Y-14048335D02*
X7651030Y-14057859D01*
X7651030Y-14057859D02*
X7660553Y-14076906D01*
X7660553Y-14076906D02*
X7660553Y-14086430D01*
X7660553Y-14086430D02*
X7651030Y-14105478D01*
X7651030Y-14105478D02*
X7641506Y-14115002D01*
X7641506Y-14115002D02*
X7622458Y-14124525D01*
X7622458Y-14124525D02*
X7584363Y-14124525D01*
X7584363Y-14124525D02*
X7565315Y-14134049D01*
X7565315Y-14134049D02*
X7555792Y-14143573D01*
X7555792Y-14143573D02*
X7546268Y-14162621D01*
X7546268Y-14162621D02*
X7546268Y-14200716D01*
X7546268Y-14200716D02*
X7555792Y-14219764D01*
X7555792Y-14219764D02*
X7565315Y-14229287D01*
X7565315Y-14229287D02*
X7584363Y-14238811D01*
X7584363Y-14238811D02*
X7622458Y-14238811D01*
X7622458Y-14238811D02*
X7641506Y-14229287D01*
X7641506Y-14229287D02*
X7651030Y-14219764D01*
X7651030Y-14219764D02*
X7660553Y-14200716D01*
X7660553Y-14200716D02*
X7660553Y-14162621D01*
X7660553Y-14162621D02*
X7651030Y-14143573D01*
X7651030Y-14143573D02*
X7641506Y-14134049D01*
X7641506Y-14134049D02*
X7622458Y-14124525D01*
X7889125Y-14229287D02*
X7908173Y-14238811D01*
X7908173Y-14238811D02*
X7946268Y-14238811D01*
X7946268Y-14238811D02*
X7965315Y-14229287D01*
X7965315Y-14229287D02*
X7974839Y-14210240D01*
X7974839Y-14210240D02*
X7974839Y-14200716D01*
X7974839Y-14200716D02*
X7965315Y-14181668D01*
X7965315Y-14181668D02*
X7946268Y-14172145D01*
X7946268Y-14172145D02*
X7917696Y-14172145D01*
X7917696Y-14172145D02*
X7898649Y-14162621D01*
X7898649Y-14162621D02*
X7889125Y-14143573D01*
X7889125Y-14143573D02*
X7889125Y-14134049D01*
X7889125Y-14134049D02*
X7898649Y-14115002D01*
X7898649Y-14115002D02*
X7917696Y-14105478D01*
X7917696Y-14105478D02*
X7946268Y-14105478D01*
X7946268Y-14105478D02*
X7965315Y-14115002D01*
X8089125Y-14238811D02*
X8070077Y-14229287D01*
X8070077Y-14229287D02*
X8060554Y-14210240D01*
X8060554Y-14210240D02*
X8060554Y-14038811D01*
X8193887Y-14238811D02*
X8174839Y-14229287D01*
X8174839Y-14229287D02*
X8165315Y-14219764D01*
X8165315Y-14219764D02*
X8155792Y-14200716D01*
X8155792Y-14200716D02*
X8155792Y-14143573D01*
X8155792Y-14143573D02*
X8165315Y-14124525D01*
X8165315Y-14124525D02*
X8174839Y-14115002D01*
X8174839Y-14115002D02*
X8193887Y-14105478D01*
X8193887Y-14105478D02*
X8222458Y-14105478D01*
X8222458Y-14105478D02*
X8241506Y-14115002D01*
X8241506Y-14115002D02*
X8251030Y-14124525D01*
X8251030Y-14124525D02*
X8260554Y-14143573D01*
X8260554Y-14143573D02*
X8260554Y-14200716D01*
X8260554Y-14200716D02*
X8251030Y-14219764D01*
X8251030Y-14219764D02*
X8241506Y-14229287D01*
X8241506Y-14229287D02*
X8222458Y-14238811D01*
X8222458Y-14238811D02*
X8193887Y-14238811D01*
X8317696Y-14105478D02*
X8393887Y-14105478D01*
X8346268Y-14038811D02*
X8346268Y-14210240D01*
X8346268Y-14210240D02*
X8355792Y-14229287D01*
X8355792Y-14229287D02*
X8374839Y-14238811D01*
X8374839Y-14238811D02*
X8393887Y-14238811D01*
X8451030Y-14229287D02*
X8470077Y-14238811D01*
X8470077Y-14238811D02*
X8508173Y-14238811D01*
X8508173Y-14238811D02*
X8527220Y-14229287D01*
X8527220Y-14229287D02*
X8536744Y-14210240D01*
X8536744Y-14210240D02*
X8536744Y-14200716D01*
X8536744Y-14200716D02*
X8527220Y-14181668D01*
X8527220Y-14181668D02*
X8508173Y-14172145D01*
X8508173Y-14172145D02*
X8479601Y-14172145D01*
X8479601Y-14172145D02*
X8460554Y-14162621D01*
X8460554Y-14162621D02*
X8451030Y-14143573D01*
X8451030Y-14143573D02*
X8451030Y-14134049D01*
X8451030Y-14134049D02*
X8460554Y-14115002D01*
X8460554Y-14115002D02*
X8479601Y-14105478D01*
X8479601Y-14105478D02*
X8508173Y-14105478D01*
X8508173Y-14105478D02*
X8527220Y-14115002D01*
X8603411Y-14315002D02*
X8612935Y-14305478D01*
X8612935Y-14305478D02*
X8631982Y-14276906D01*
X8631982Y-14276906D02*
X8641506Y-14257859D01*
X8641506Y-14257859D02*
X8651030Y-14229287D01*
X8651030Y-14229287D02*
X8660554Y-14181668D01*
X8660554Y-14181668D02*
X8660554Y-14143573D01*
X8660554Y-14143573D02*
X8651030Y-14095954D01*
X8651030Y-14095954D02*
X8641506Y-14067383D01*
X8641506Y-14067383D02*
X8631982Y-14048335D01*
X8631982Y-14048335D02*
X8612935Y-14019764D01*
X8612935Y-14019764D02*
X8603411Y-14010240D01*
D12*
X2129300Y-14371327D02*
X2209300Y-14451327D01*
X2209300Y-14371327D02*
X2129300Y-14451327D01*
X2209300Y-14411327D02*
G75*
G02*
X2129300Y-14411327I-40000J0D01*
G01*
X2129300Y-14411327D02*
G75*
G02*
X2209300Y-14411327I40000J0D01*
G01*
D11*
X2508172Y-14302811D02*
X2527220Y-14302811D01*
X2527220Y-14302811D02*
X2546267Y-14312335D01*
X2546267Y-14312335D02*
X2555791Y-14321859D01*
X2555791Y-14321859D02*
X2565315Y-14340906D01*
X2565315Y-14340906D02*
X2574839Y-14379002D01*
X2574839Y-14379002D02*
X2574839Y-14426621D01*
X2574839Y-14426621D02*
X2565315Y-14464716D01*
X2565315Y-14464716D02*
X2555791Y-14483764D01*
X2555791Y-14483764D02*
X2546267Y-14493287D01*
X2546267Y-14493287D02*
X2527220Y-14502811D01*
X2527220Y-14502811D02*
X2508172Y-14502811D01*
X2508172Y-14502811D02*
X2489124Y-14493287D01*
X2489124Y-14493287D02*
X2479601Y-14483764D01*
X2479601Y-14483764D02*
X2470077Y-14464716D01*
X2470077Y-14464716D02*
X2460553Y-14426621D01*
X2460553Y-14426621D02*
X2460553Y-14379002D01*
X2460553Y-14379002D02*
X2470077Y-14340906D01*
X2470077Y-14340906D02*
X2479601Y-14321859D01*
X2479601Y-14321859D02*
X2489124Y-14312335D01*
X2489124Y-14312335D02*
X2508172Y-14302811D01*
X2660553Y-14483764D02*
X2670077Y-14493287D01*
X2670077Y-14493287D02*
X2660553Y-14502811D01*
X2660553Y-14502811D02*
X2651029Y-14493287D01*
X2651029Y-14493287D02*
X2660553Y-14483764D01*
X2660553Y-14483764D02*
X2660553Y-14502811D01*
X2784363Y-14388525D02*
X2765315Y-14379002D01*
X2765315Y-14379002D02*
X2755791Y-14369478D01*
X2755791Y-14369478D02*
X2746267Y-14350430D01*
X2746267Y-14350430D02*
X2746267Y-14340906D01*
X2746267Y-14340906D02*
X2755791Y-14321859D01*
X2755791Y-14321859D02*
X2765315Y-14312335D01*
X2765315Y-14312335D02*
X2784363Y-14302811D01*
X2784363Y-14302811D02*
X2822458Y-14302811D01*
X2822458Y-14302811D02*
X2841505Y-14312335D01*
X2841505Y-14312335D02*
X2851029Y-14321859D01*
X2851029Y-14321859D02*
X2860553Y-14340906D01*
X2860553Y-14340906D02*
X2860553Y-14350430D01*
X2860553Y-14350430D02*
X2851029Y-14369478D01*
X2851029Y-14369478D02*
X2841505Y-14379002D01*
X2841505Y-14379002D02*
X2822458Y-14388525D01*
X2822458Y-14388525D02*
X2784363Y-14388525D01*
X2784363Y-14388525D02*
X2765315Y-14398049D01*
X2765315Y-14398049D02*
X2755791Y-14407573D01*
X2755791Y-14407573D02*
X2746267Y-14426621D01*
X2746267Y-14426621D02*
X2746267Y-14464716D01*
X2746267Y-14464716D02*
X2755791Y-14483764D01*
X2755791Y-14483764D02*
X2765315Y-14493287D01*
X2765315Y-14493287D02*
X2784363Y-14502811D01*
X2784363Y-14502811D02*
X2822458Y-14502811D01*
X2822458Y-14502811D02*
X2841505Y-14493287D01*
X2841505Y-14493287D02*
X2851029Y-14483764D01*
X2851029Y-14483764D02*
X2860553Y-14464716D01*
X2860553Y-14464716D02*
X2860553Y-14426621D01*
X2860553Y-14426621D02*
X2851029Y-14407573D01*
X2851029Y-14407573D02*
X2841505Y-14398049D01*
X2841505Y-14398049D02*
X2822458Y-14388525D01*
X2984362Y-14302811D02*
X3003410Y-14302811D01*
X3003410Y-14302811D02*
X3022458Y-14312335D01*
X3022458Y-14312335D02*
X3031982Y-14321859D01*
X3031982Y-14321859D02*
X3041505Y-14340906D01*
X3041505Y-14340906D02*
X3051029Y-14379002D01*
X3051029Y-14379002D02*
X3051029Y-14426621D01*
X3051029Y-14426621D02*
X3041505Y-14464716D01*
X3041505Y-14464716D02*
X3031982Y-14483764D01*
X3031982Y-14483764D02*
X3022458Y-14493287D01*
X3022458Y-14493287D02*
X3003410Y-14502811D01*
X3003410Y-14502811D02*
X2984362Y-14502811D01*
X2984362Y-14502811D02*
X2965315Y-14493287D01*
X2965315Y-14493287D02*
X2955791Y-14483764D01*
X2955791Y-14483764D02*
X2946267Y-14464716D01*
X2946267Y-14464716D02*
X2936743Y-14426621D01*
X2936743Y-14426621D02*
X2936743Y-14379002D01*
X2936743Y-14379002D02*
X2946267Y-14340906D01*
X2946267Y-14340906D02*
X2955791Y-14321859D01*
X2955791Y-14321859D02*
X2965315Y-14312335D01*
X2965315Y-14312335D02*
X2984362Y-14302811D01*
X3174839Y-14302811D02*
X3193886Y-14302811D01*
X3193886Y-14302811D02*
X3212934Y-14312335D01*
X3212934Y-14312335D02*
X3222458Y-14321859D01*
X3222458Y-14321859D02*
X3231982Y-14340906D01*
X3231982Y-14340906D02*
X3241505Y-14379002D01*
X3241505Y-14379002D02*
X3241505Y-14426621D01*
X3241505Y-14426621D02*
X3231982Y-14464716D01*
X3231982Y-14464716D02*
X3222458Y-14483764D01*
X3222458Y-14483764D02*
X3212934Y-14493287D01*
X3212934Y-14493287D02*
X3193886Y-14502811D01*
X3193886Y-14502811D02*
X3174839Y-14502811D01*
X3174839Y-14502811D02*
X3155791Y-14493287D01*
X3155791Y-14493287D02*
X3146267Y-14483764D01*
X3146267Y-14483764D02*
X3136743Y-14464716D01*
X3136743Y-14464716D02*
X3127220Y-14426621D01*
X3127220Y-14426621D02*
X3127220Y-14379002D01*
X3127220Y-14379002D02*
X3136743Y-14340906D01*
X3136743Y-14340906D02*
X3146267Y-14321859D01*
X3146267Y-14321859D02*
X3155791Y-14312335D01*
X3155791Y-14312335D02*
X3174839Y-14302811D01*
X3327220Y-14502811D02*
X3327220Y-14369478D01*
X3327220Y-14388525D02*
X3336743Y-14379002D01*
X3336743Y-14379002D02*
X3355791Y-14369478D01*
X3355791Y-14369478D02*
X3384363Y-14369478D01*
X3384363Y-14369478D02*
X3403410Y-14379002D01*
X3403410Y-14379002D02*
X3412934Y-14398049D01*
X3412934Y-14398049D02*
X3412934Y-14502811D01*
X3412934Y-14398049D02*
X3422458Y-14379002D01*
X3422458Y-14379002D02*
X3441505Y-14369478D01*
X3441505Y-14369478D02*
X3470077Y-14369478D01*
X3470077Y-14369478D02*
X3489124Y-14379002D01*
X3489124Y-14379002D02*
X3498648Y-14398049D01*
X3498648Y-14398049D02*
X3498648Y-14502811D01*
X3593886Y-14502811D02*
X3593886Y-14369478D01*
X3593886Y-14388525D02*
X3603410Y-14379002D01*
X3603410Y-14379002D02*
X3622458Y-14369478D01*
X3622458Y-14369478D02*
X3651029Y-14369478D01*
X3651029Y-14369478D02*
X3670077Y-14379002D01*
X3670077Y-14379002D02*
X3679601Y-14398049D01*
X3679601Y-14398049D02*
X3679601Y-14502811D01*
X3679601Y-14398049D02*
X3689124Y-14379002D01*
X3689124Y-14379002D02*
X3708172Y-14369478D01*
X3708172Y-14369478D02*
X3736743Y-14369478D01*
X3736743Y-14369478D02*
X3755791Y-14379002D01*
X3755791Y-14379002D02*
X3765315Y-14398049D01*
X3765315Y-14398049D02*
X3765315Y-14502811D01*
X4155791Y-14293287D02*
X3984363Y-14550430D01*
X4412934Y-14302811D02*
X4431982Y-14302811D01*
X4431982Y-14302811D02*
X4451029Y-14312335D01*
X4451029Y-14312335D02*
X4460553Y-14321859D01*
X4460553Y-14321859D02*
X4470077Y-14340906D01*
X4470077Y-14340906D02*
X4479601Y-14379002D01*
X4479601Y-14379002D02*
X4479601Y-14426621D01*
X4479601Y-14426621D02*
X4470077Y-14464716D01*
X4470077Y-14464716D02*
X4460553Y-14483764D01*
X4460553Y-14483764D02*
X4451029Y-14493287D01*
X4451029Y-14493287D02*
X4431982Y-14502811D01*
X4431982Y-14502811D02*
X4412934Y-14502811D01*
X4412934Y-14502811D02*
X4393887Y-14493287D01*
X4393887Y-14493287D02*
X4384363Y-14483764D01*
X4384363Y-14483764D02*
X4374839Y-14464716D01*
X4374839Y-14464716D02*
X4365315Y-14426621D01*
X4365315Y-14426621D02*
X4365315Y-14379002D01*
X4365315Y-14379002D02*
X4374839Y-14340906D01*
X4374839Y-14340906D02*
X4384363Y-14321859D01*
X4384363Y-14321859D02*
X4393887Y-14312335D01*
X4393887Y-14312335D02*
X4412934Y-14302811D01*
X4565315Y-14483764D02*
X4574839Y-14493287D01*
X4574839Y-14493287D02*
X4565315Y-14502811D01*
X4565315Y-14502811D02*
X4555791Y-14493287D01*
X4555791Y-14493287D02*
X4565315Y-14483764D01*
X4565315Y-14483764D02*
X4565315Y-14502811D01*
X4698648Y-14302811D02*
X4717696Y-14302811D01*
X4717696Y-14302811D02*
X4736744Y-14312335D01*
X4736744Y-14312335D02*
X4746268Y-14321859D01*
X4746268Y-14321859D02*
X4755791Y-14340906D01*
X4755791Y-14340906D02*
X4765315Y-14379002D01*
X4765315Y-14379002D02*
X4765315Y-14426621D01*
X4765315Y-14426621D02*
X4755791Y-14464716D01*
X4755791Y-14464716D02*
X4746268Y-14483764D01*
X4746268Y-14483764D02*
X4736744Y-14493287D01*
X4736744Y-14493287D02*
X4717696Y-14502811D01*
X4717696Y-14502811D02*
X4698648Y-14502811D01*
X4698648Y-14502811D02*
X4679601Y-14493287D01*
X4679601Y-14493287D02*
X4670077Y-14483764D01*
X4670077Y-14483764D02*
X4660553Y-14464716D01*
X4660553Y-14464716D02*
X4651029Y-14426621D01*
X4651029Y-14426621D02*
X4651029Y-14379002D01*
X4651029Y-14379002D02*
X4660553Y-14340906D01*
X4660553Y-14340906D02*
X4670077Y-14321859D01*
X4670077Y-14321859D02*
X4679601Y-14312335D01*
X4679601Y-14312335D02*
X4698648Y-14302811D01*
X4831982Y-14302811D02*
X4955791Y-14302811D01*
X4955791Y-14302811D02*
X4889125Y-14379002D01*
X4889125Y-14379002D02*
X4917696Y-14379002D01*
X4917696Y-14379002D02*
X4936744Y-14388525D01*
X4936744Y-14388525D02*
X4946268Y-14398049D01*
X4946268Y-14398049D02*
X4955791Y-14417097D01*
X4955791Y-14417097D02*
X4955791Y-14464716D01*
X4955791Y-14464716D02*
X4946268Y-14483764D01*
X4946268Y-14483764D02*
X4936744Y-14493287D01*
X4936744Y-14493287D02*
X4917696Y-14502811D01*
X4917696Y-14502811D02*
X4860553Y-14502811D01*
X4860553Y-14502811D02*
X4841506Y-14493287D01*
X4841506Y-14493287D02*
X4831982Y-14483764D01*
X5146268Y-14502811D02*
X5031982Y-14502811D01*
X5089125Y-14502811D02*
X5089125Y-14302811D01*
X5089125Y-14302811D02*
X5070077Y-14331383D01*
X5070077Y-14331383D02*
X5051029Y-14350430D01*
X5051029Y-14350430D02*
X5031982Y-14359954D01*
X5327220Y-14302811D02*
X5231982Y-14302811D01*
X5231982Y-14302811D02*
X5222458Y-14398049D01*
X5222458Y-14398049D02*
X5231982Y-14388525D01*
X5231982Y-14388525D02*
X5251029Y-14379002D01*
X5251029Y-14379002D02*
X5298649Y-14379002D01*
X5298649Y-14379002D02*
X5317696Y-14388525D01*
X5317696Y-14388525D02*
X5327220Y-14398049D01*
X5327220Y-14398049D02*
X5336744Y-14417097D01*
X5336744Y-14417097D02*
X5336744Y-14464716D01*
X5336744Y-14464716D02*
X5327220Y-14483764D01*
X5327220Y-14483764D02*
X5317696Y-14493287D01*
X5317696Y-14493287D02*
X5298649Y-14502811D01*
X5298649Y-14502811D02*
X5251029Y-14502811D01*
X5251029Y-14502811D02*
X5231982Y-14493287D01*
X5231982Y-14493287D02*
X5222458Y-14483764D01*
X5412934Y-14302811D02*
X5412934Y-14340906D01*
X5489125Y-14302811D02*
X5489125Y-14340906D01*
X5784363Y-14579002D02*
X5774839Y-14569478D01*
X5774839Y-14569478D02*
X5755791Y-14540906D01*
X5755791Y-14540906D02*
X5746268Y-14521859D01*
X5746268Y-14521859D02*
X5736744Y-14493287D01*
X5736744Y-14493287D02*
X5727220Y-14445668D01*
X5727220Y-14445668D02*
X5727220Y-14407573D01*
X5727220Y-14407573D02*
X5736744Y-14359954D01*
X5736744Y-14359954D02*
X5746268Y-14331383D01*
X5746268Y-14331383D02*
X5755791Y-14312335D01*
X5755791Y-14312335D02*
X5774839Y-14283764D01*
X5774839Y-14283764D02*
X5784363Y-14274240D01*
X5898648Y-14302811D02*
X5917696Y-14302811D01*
X5917696Y-14302811D02*
X5936744Y-14312335D01*
X5936744Y-14312335D02*
X5946268Y-14321859D01*
X5946268Y-14321859D02*
X5955791Y-14340906D01*
X5955791Y-14340906D02*
X5965315Y-14379002D01*
X5965315Y-14379002D02*
X5965315Y-14426621D01*
X5965315Y-14426621D02*
X5955791Y-14464716D01*
X5955791Y-14464716D02*
X5946268Y-14483764D01*
X5946268Y-14483764D02*
X5936744Y-14493287D01*
X5936744Y-14493287D02*
X5917696Y-14502811D01*
X5917696Y-14502811D02*
X5898648Y-14502811D01*
X5898648Y-14502811D02*
X5879601Y-14493287D01*
X5879601Y-14493287D02*
X5870077Y-14483764D01*
X5870077Y-14483764D02*
X5860553Y-14464716D01*
X5860553Y-14464716D02*
X5851029Y-14426621D01*
X5851029Y-14426621D02*
X5851029Y-14379002D01*
X5851029Y-14379002D02*
X5860553Y-14340906D01*
X5860553Y-14340906D02*
X5870077Y-14321859D01*
X5870077Y-14321859D02*
X5879601Y-14312335D01*
X5879601Y-14312335D02*
X5898648Y-14302811D01*
X6203410Y-14502811D02*
X6203410Y-14302811D01*
X6289125Y-14502811D02*
X6289125Y-14398049D01*
X6289125Y-14398049D02*
X6279601Y-14379002D01*
X6279601Y-14379002D02*
X6260553Y-14369478D01*
X6260553Y-14369478D02*
X6231982Y-14369478D01*
X6231982Y-14369478D02*
X6212934Y-14379002D01*
X6212934Y-14379002D02*
X6203410Y-14388525D01*
X6412934Y-14502811D02*
X6393887Y-14493287D01*
X6393887Y-14493287D02*
X6384363Y-14483764D01*
X6384363Y-14483764D02*
X6374839Y-14464716D01*
X6374839Y-14464716D02*
X6374839Y-14407573D01*
X6374839Y-14407573D02*
X6384363Y-14388525D01*
X6384363Y-14388525D02*
X6393887Y-14379002D01*
X6393887Y-14379002D02*
X6412934Y-14369478D01*
X6412934Y-14369478D02*
X6441506Y-14369478D01*
X6441506Y-14369478D02*
X6460553Y-14379002D01*
X6460553Y-14379002D02*
X6470077Y-14388525D01*
X6470077Y-14388525D02*
X6479601Y-14407573D01*
X6479601Y-14407573D02*
X6479601Y-14464716D01*
X6479601Y-14464716D02*
X6470077Y-14483764D01*
X6470077Y-14483764D02*
X6460553Y-14493287D01*
X6460553Y-14493287D02*
X6441506Y-14502811D01*
X6441506Y-14502811D02*
X6412934Y-14502811D01*
X6593887Y-14502811D02*
X6574839Y-14493287D01*
X6574839Y-14493287D02*
X6565315Y-14474240D01*
X6565315Y-14474240D02*
X6565315Y-14302811D01*
X6746268Y-14493287D02*
X6727220Y-14502811D01*
X6727220Y-14502811D02*
X6689125Y-14502811D01*
X6689125Y-14502811D02*
X6670077Y-14493287D01*
X6670077Y-14493287D02*
X6660553Y-14474240D01*
X6660553Y-14474240D02*
X6660553Y-14398049D01*
X6660553Y-14398049D02*
X6670077Y-14379002D01*
X6670077Y-14379002D02*
X6689125Y-14369478D01*
X6689125Y-14369478D02*
X6727220Y-14369478D01*
X6727220Y-14369478D02*
X6746268Y-14379002D01*
X6746268Y-14379002D02*
X6755791Y-14398049D01*
X6755791Y-14398049D02*
X6755791Y-14417097D01*
X6755791Y-14417097D02*
X6660553Y-14436145D01*
X6831982Y-14493287D02*
X6851030Y-14502811D01*
X6851030Y-14502811D02*
X6889125Y-14502811D01*
X6889125Y-14502811D02*
X6908172Y-14493287D01*
X6908172Y-14493287D02*
X6917696Y-14474240D01*
X6917696Y-14474240D02*
X6917696Y-14464716D01*
X6917696Y-14464716D02*
X6908172Y-14445668D01*
X6908172Y-14445668D02*
X6889125Y-14436145D01*
X6889125Y-14436145D02*
X6860553Y-14436145D01*
X6860553Y-14436145D02*
X6841506Y-14426621D01*
X6841506Y-14426621D02*
X6831982Y-14407573D01*
X6831982Y-14407573D02*
X6831982Y-14398049D01*
X6831982Y-14398049D02*
X6841506Y-14379002D01*
X6841506Y-14379002D02*
X6860553Y-14369478D01*
X6860553Y-14369478D02*
X6889125Y-14369478D01*
X6889125Y-14369478D02*
X6908172Y-14379002D01*
X7155792Y-14426621D02*
X7308173Y-14426621D01*
X7231982Y-14502811D02*
X7231982Y-14350430D01*
X7641506Y-14369478D02*
X7641506Y-14502811D01*
X7593887Y-14293287D02*
X7546268Y-14436145D01*
X7546268Y-14436145D02*
X7670077Y-14436145D01*
X7889125Y-14493287D02*
X7908173Y-14502811D01*
X7908173Y-14502811D02*
X7946268Y-14502811D01*
X7946268Y-14502811D02*
X7965315Y-14493287D01*
X7965315Y-14493287D02*
X7974839Y-14474240D01*
X7974839Y-14474240D02*
X7974839Y-14464716D01*
X7974839Y-14464716D02*
X7965315Y-14445668D01*
X7965315Y-14445668D02*
X7946268Y-14436145D01*
X7946268Y-14436145D02*
X7917696Y-14436145D01*
X7917696Y-14436145D02*
X7898649Y-14426621D01*
X7898649Y-14426621D02*
X7889125Y-14407573D01*
X7889125Y-14407573D02*
X7889125Y-14398049D01*
X7889125Y-14398049D02*
X7898649Y-14379002D01*
X7898649Y-14379002D02*
X7917696Y-14369478D01*
X7917696Y-14369478D02*
X7946268Y-14369478D01*
X7946268Y-14369478D02*
X7965315Y-14379002D01*
X8089125Y-14502811D02*
X8070077Y-14493287D01*
X8070077Y-14493287D02*
X8060554Y-14474240D01*
X8060554Y-14474240D02*
X8060554Y-14302811D01*
X8193887Y-14502811D02*
X8174839Y-14493287D01*
X8174839Y-14493287D02*
X8165315Y-14483764D01*
X8165315Y-14483764D02*
X8155792Y-14464716D01*
X8155792Y-14464716D02*
X8155792Y-14407573D01*
X8155792Y-14407573D02*
X8165315Y-14388525D01*
X8165315Y-14388525D02*
X8174839Y-14379002D01*
X8174839Y-14379002D02*
X8193887Y-14369478D01*
X8193887Y-14369478D02*
X8222458Y-14369478D01*
X8222458Y-14369478D02*
X8241506Y-14379002D01*
X8241506Y-14379002D02*
X8251030Y-14388525D01*
X8251030Y-14388525D02*
X8260554Y-14407573D01*
X8260554Y-14407573D02*
X8260554Y-14464716D01*
X8260554Y-14464716D02*
X8251030Y-14483764D01*
X8251030Y-14483764D02*
X8241506Y-14493287D01*
X8241506Y-14493287D02*
X8222458Y-14502811D01*
X8222458Y-14502811D02*
X8193887Y-14502811D01*
X8317696Y-14369478D02*
X8393887Y-14369478D01*
X8346268Y-14302811D02*
X8346268Y-14474240D01*
X8346268Y-14474240D02*
X8355792Y-14493287D01*
X8355792Y-14493287D02*
X8374839Y-14502811D01*
X8374839Y-14502811D02*
X8393887Y-14502811D01*
X8451030Y-14493287D02*
X8470077Y-14502811D01*
X8470077Y-14502811D02*
X8508173Y-14502811D01*
X8508173Y-14502811D02*
X8527220Y-14493287D01*
X8527220Y-14493287D02*
X8536744Y-14474240D01*
X8536744Y-14474240D02*
X8536744Y-14464716D01*
X8536744Y-14464716D02*
X8527220Y-14445668D01*
X8527220Y-14445668D02*
X8508173Y-14436145D01*
X8508173Y-14436145D02*
X8479601Y-14436145D01*
X8479601Y-14436145D02*
X8460554Y-14426621D01*
X8460554Y-14426621D02*
X8451030Y-14407573D01*
X8451030Y-14407573D02*
X8451030Y-14398049D01*
X8451030Y-14398049D02*
X8460554Y-14379002D01*
X8460554Y-14379002D02*
X8479601Y-14369478D01*
X8479601Y-14369478D02*
X8508173Y-14369478D01*
X8508173Y-14369478D02*
X8527220Y-14379002D01*
X8603411Y-14579002D02*
X8612935Y-14569478D01*
X8612935Y-14569478D02*
X8631982Y-14540906D01*
X8631982Y-14540906D02*
X8641506Y-14521859D01*
X8641506Y-14521859D02*
X8651030Y-14493287D01*
X8651030Y-14493287D02*
X8660554Y-14445668D01*
X8660554Y-14445668D02*
X8660554Y-14407573D01*
X8660554Y-14407573D02*
X8651030Y-14359954D01*
X8651030Y-14359954D02*
X8641506Y-14331383D01*
X8641506Y-14331383D02*
X8631982Y-14312335D01*
X8631982Y-14312335D02*
X8612935Y-14283764D01*
X8612935Y-14283764D02*
X8603411Y-14274240D01*
D12*
X2114300Y-14627827D02*
X2209300Y-14722827D01*
X2209300Y-14627827D02*
X2114300Y-14722827D01*
X2161800Y-14627827D02*
X2161800Y-14722827D01*
X2114300Y-14675327D02*
X2209300Y-14675327D01*
D11*
X2508172Y-14566811D02*
X2527220Y-14566811D01*
X2527220Y-14566811D02*
X2546267Y-14576335D01*
X2546267Y-14576335D02*
X2555791Y-14585859D01*
X2555791Y-14585859D02*
X2565315Y-14604906D01*
X2565315Y-14604906D02*
X2574839Y-14643002D01*
X2574839Y-14643002D02*
X2574839Y-14690621D01*
X2574839Y-14690621D02*
X2565315Y-14728716D01*
X2565315Y-14728716D02*
X2555791Y-14747764D01*
X2555791Y-14747764D02*
X2546267Y-14757287D01*
X2546267Y-14757287D02*
X2527220Y-14766811D01*
X2527220Y-14766811D02*
X2508172Y-14766811D01*
X2508172Y-14766811D02*
X2489124Y-14757287D01*
X2489124Y-14757287D02*
X2479601Y-14747764D01*
X2479601Y-14747764D02*
X2470077Y-14728716D01*
X2470077Y-14728716D02*
X2460553Y-14690621D01*
X2460553Y-14690621D02*
X2460553Y-14643002D01*
X2460553Y-14643002D02*
X2470077Y-14604906D01*
X2470077Y-14604906D02*
X2479601Y-14585859D01*
X2479601Y-14585859D02*
X2489124Y-14576335D01*
X2489124Y-14576335D02*
X2508172Y-14566811D01*
X2660553Y-14747764D02*
X2670077Y-14757287D01*
X2670077Y-14757287D02*
X2660553Y-14766811D01*
X2660553Y-14766811D02*
X2651029Y-14757287D01*
X2651029Y-14757287D02*
X2660553Y-14747764D01*
X2660553Y-14747764D02*
X2660553Y-14766811D01*
X2765315Y-14766811D02*
X2803410Y-14766811D01*
X2803410Y-14766811D02*
X2822458Y-14757287D01*
X2822458Y-14757287D02*
X2831982Y-14747764D01*
X2831982Y-14747764D02*
X2851029Y-14719192D01*
X2851029Y-14719192D02*
X2860553Y-14681097D01*
X2860553Y-14681097D02*
X2860553Y-14604906D01*
X2860553Y-14604906D02*
X2851029Y-14585859D01*
X2851029Y-14585859D02*
X2841505Y-14576335D01*
X2841505Y-14576335D02*
X2822458Y-14566811D01*
X2822458Y-14566811D02*
X2784363Y-14566811D01*
X2784363Y-14566811D02*
X2765315Y-14576335D01*
X2765315Y-14576335D02*
X2755791Y-14585859D01*
X2755791Y-14585859D02*
X2746267Y-14604906D01*
X2746267Y-14604906D02*
X2746267Y-14652525D01*
X2746267Y-14652525D02*
X2755791Y-14671573D01*
X2755791Y-14671573D02*
X2765315Y-14681097D01*
X2765315Y-14681097D02*
X2784363Y-14690621D01*
X2784363Y-14690621D02*
X2822458Y-14690621D01*
X2822458Y-14690621D02*
X2841505Y-14681097D01*
X2841505Y-14681097D02*
X2851029Y-14671573D01*
X2851029Y-14671573D02*
X2860553Y-14652525D01*
X3041505Y-14566811D02*
X2946267Y-14566811D01*
X2946267Y-14566811D02*
X2936743Y-14662049D01*
X2936743Y-14662049D02*
X2946267Y-14652525D01*
X2946267Y-14652525D02*
X2965315Y-14643002D01*
X2965315Y-14643002D02*
X3012934Y-14643002D01*
X3012934Y-14643002D02*
X3031982Y-14652525D01*
X3031982Y-14652525D02*
X3041505Y-14662049D01*
X3041505Y-14662049D02*
X3051029Y-14681097D01*
X3051029Y-14681097D02*
X3051029Y-14728716D01*
X3051029Y-14728716D02*
X3041505Y-14747764D01*
X3041505Y-14747764D02*
X3031982Y-14757287D01*
X3031982Y-14757287D02*
X3012934Y-14766811D01*
X3012934Y-14766811D02*
X2965315Y-14766811D01*
X2965315Y-14766811D02*
X2946267Y-14757287D01*
X2946267Y-14757287D02*
X2936743Y-14747764D01*
X3174839Y-14566811D02*
X3193886Y-14566811D01*
X3193886Y-14566811D02*
X3212934Y-14576335D01*
X3212934Y-14576335D02*
X3222458Y-14585859D01*
X3222458Y-14585859D02*
X3231982Y-14604906D01*
X3231982Y-14604906D02*
X3241505Y-14643002D01*
X3241505Y-14643002D02*
X3241505Y-14690621D01*
X3241505Y-14690621D02*
X3231982Y-14728716D01*
X3231982Y-14728716D02*
X3222458Y-14747764D01*
X3222458Y-14747764D02*
X3212934Y-14757287D01*
X3212934Y-14757287D02*
X3193886Y-14766811D01*
X3193886Y-14766811D02*
X3174839Y-14766811D01*
X3174839Y-14766811D02*
X3155791Y-14757287D01*
X3155791Y-14757287D02*
X3146267Y-14747764D01*
X3146267Y-14747764D02*
X3136743Y-14728716D01*
X3136743Y-14728716D02*
X3127220Y-14690621D01*
X3127220Y-14690621D02*
X3127220Y-14643002D01*
X3127220Y-14643002D02*
X3136743Y-14604906D01*
X3136743Y-14604906D02*
X3146267Y-14585859D01*
X3146267Y-14585859D02*
X3155791Y-14576335D01*
X3155791Y-14576335D02*
X3174839Y-14566811D01*
X3327220Y-14766811D02*
X3327220Y-14633478D01*
X3327220Y-14652525D02*
X3336743Y-14643002D01*
X3336743Y-14643002D02*
X3355791Y-14633478D01*
X3355791Y-14633478D02*
X3384363Y-14633478D01*
X3384363Y-14633478D02*
X3403410Y-14643002D01*
X3403410Y-14643002D02*
X3412934Y-14662049D01*
X3412934Y-14662049D02*
X3412934Y-14766811D01*
X3412934Y-14662049D02*
X3422458Y-14643002D01*
X3422458Y-14643002D02*
X3441505Y-14633478D01*
X3441505Y-14633478D02*
X3470077Y-14633478D01*
X3470077Y-14633478D02*
X3489124Y-14643002D01*
X3489124Y-14643002D02*
X3498648Y-14662049D01*
X3498648Y-14662049D02*
X3498648Y-14766811D01*
X3593886Y-14766811D02*
X3593886Y-14633478D01*
X3593886Y-14652525D02*
X3603410Y-14643002D01*
X3603410Y-14643002D02*
X3622458Y-14633478D01*
X3622458Y-14633478D02*
X3651029Y-14633478D01*
X3651029Y-14633478D02*
X3670077Y-14643002D01*
X3670077Y-14643002D02*
X3679601Y-14662049D01*
X3679601Y-14662049D02*
X3679601Y-14766811D01*
X3679601Y-14662049D02*
X3689124Y-14643002D01*
X3689124Y-14643002D02*
X3708172Y-14633478D01*
X3708172Y-14633478D02*
X3736743Y-14633478D01*
X3736743Y-14633478D02*
X3755791Y-14643002D01*
X3755791Y-14643002D02*
X3765315Y-14662049D01*
X3765315Y-14662049D02*
X3765315Y-14766811D01*
X4155791Y-14557287D02*
X3984363Y-14814430D01*
X4412934Y-14566811D02*
X4431982Y-14566811D01*
X4431982Y-14566811D02*
X4451029Y-14576335D01*
X4451029Y-14576335D02*
X4460553Y-14585859D01*
X4460553Y-14585859D02*
X4470077Y-14604906D01*
X4470077Y-14604906D02*
X4479601Y-14643002D01*
X4479601Y-14643002D02*
X4479601Y-14690621D01*
X4479601Y-14690621D02*
X4470077Y-14728716D01*
X4470077Y-14728716D02*
X4460553Y-14747764D01*
X4460553Y-14747764D02*
X4451029Y-14757287D01*
X4451029Y-14757287D02*
X4431982Y-14766811D01*
X4431982Y-14766811D02*
X4412934Y-14766811D01*
X4412934Y-14766811D02*
X4393887Y-14757287D01*
X4393887Y-14757287D02*
X4384363Y-14747764D01*
X4384363Y-14747764D02*
X4374839Y-14728716D01*
X4374839Y-14728716D02*
X4365315Y-14690621D01*
X4365315Y-14690621D02*
X4365315Y-14643002D01*
X4365315Y-14643002D02*
X4374839Y-14604906D01*
X4374839Y-14604906D02*
X4384363Y-14585859D01*
X4384363Y-14585859D02*
X4393887Y-14576335D01*
X4393887Y-14576335D02*
X4412934Y-14566811D01*
X4565315Y-14747764D02*
X4574839Y-14757287D01*
X4574839Y-14757287D02*
X4565315Y-14766811D01*
X4565315Y-14766811D02*
X4555791Y-14757287D01*
X4555791Y-14757287D02*
X4565315Y-14747764D01*
X4565315Y-14747764D02*
X4565315Y-14766811D01*
X4698648Y-14566811D02*
X4717696Y-14566811D01*
X4717696Y-14566811D02*
X4736744Y-14576335D01*
X4736744Y-14576335D02*
X4746268Y-14585859D01*
X4746268Y-14585859D02*
X4755791Y-14604906D01*
X4755791Y-14604906D02*
X4765315Y-14643002D01*
X4765315Y-14643002D02*
X4765315Y-14690621D01*
X4765315Y-14690621D02*
X4755791Y-14728716D01*
X4755791Y-14728716D02*
X4746268Y-14747764D01*
X4746268Y-14747764D02*
X4736744Y-14757287D01*
X4736744Y-14757287D02*
X4717696Y-14766811D01*
X4717696Y-14766811D02*
X4698648Y-14766811D01*
X4698648Y-14766811D02*
X4679601Y-14757287D01*
X4679601Y-14757287D02*
X4670077Y-14747764D01*
X4670077Y-14747764D02*
X4660553Y-14728716D01*
X4660553Y-14728716D02*
X4651029Y-14690621D01*
X4651029Y-14690621D02*
X4651029Y-14643002D01*
X4651029Y-14643002D02*
X4660553Y-14604906D01*
X4660553Y-14604906D02*
X4670077Y-14585859D01*
X4670077Y-14585859D02*
X4679601Y-14576335D01*
X4679601Y-14576335D02*
X4698648Y-14566811D01*
X4831982Y-14566811D02*
X4955791Y-14566811D01*
X4955791Y-14566811D02*
X4889125Y-14643002D01*
X4889125Y-14643002D02*
X4917696Y-14643002D01*
X4917696Y-14643002D02*
X4936744Y-14652525D01*
X4936744Y-14652525D02*
X4946268Y-14662049D01*
X4946268Y-14662049D02*
X4955791Y-14681097D01*
X4955791Y-14681097D02*
X4955791Y-14728716D01*
X4955791Y-14728716D02*
X4946268Y-14747764D01*
X4946268Y-14747764D02*
X4936744Y-14757287D01*
X4936744Y-14757287D02*
X4917696Y-14766811D01*
X4917696Y-14766811D02*
X4860553Y-14766811D01*
X4860553Y-14766811D02*
X4841506Y-14757287D01*
X4841506Y-14757287D02*
X4831982Y-14747764D01*
X5022458Y-14566811D02*
X5155791Y-14566811D01*
X5155791Y-14566811D02*
X5070077Y-14766811D01*
X5317696Y-14633478D02*
X5317696Y-14766811D01*
X5270077Y-14557287D02*
X5222458Y-14700145D01*
X5222458Y-14700145D02*
X5346268Y-14700145D01*
X5412934Y-14566811D02*
X5412934Y-14604906D01*
X5489125Y-14566811D02*
X5489125Y-14604906D01*
X5784363Y-14843002D02*
X5774839Y-14833478D01*
X5774839Y-14833478D02*
X5755791Y-14804906D01*
X5755791Y-14804906D02*
X5746268Y-14785859D01*
X5746268Y-14785859D02*
X5736744Y-14757287D01*
X5736744Y-14757287D02*
X5727220Y-14709668D01*
X5727220Y-14709668D02*
X5727220Y-14671573D01*
X5727220Y-14671573D02*
X5736744Y-14623954D01*
X5736744Y-14623954D02*
X5746268Y-14595383D01*
X5746268Y-14595383D02*
X5755791Y-14576335D01*
X5755791Y-14576335D02*
X5774839Y-14547764D01*
X5774839Y-14547764D02*
X5784363Y-14538240D01*
X5946268Y-14633478D02*
X5946268Y-14766811D01*
X5898648Y-14557287D02*
X5851029Y-14700145D01*
X5851029Y-14700145D02*
X5974839Y-14700145D01*
X6203410Y-14766811D02*
X6203410Y-14566811D01*
X6289125Y-14766811D02*
X6289125Y-14662049D01*
X6289125Y-14662049D02*
X6279601Y-14643002D01*
X6279601Y-14643002D02*
X6260553Y-14633478D01*
X6260553Y-14633478D02*
X6231982Y-14633478D01*
X6231982Y-14633478D02*
X6212934Y-14643002D01*
X6212934Y-14643002D02*
X6203410Y-14652525D01*
X6412934Y-14766811D02*
X6393887Y-14757287D01*
X6393887Y-14757287D02*
X6384363Y-14747764D01*
X6384363Y-14747764D02*
X6374839Y-14728716D01*
X6374839Y-14728716D02*
X6374839Y-14671573D01*
X6374839Y-14671573D02*
X6384363Y-14652525D01*
X6384363Y-14652525D02*
X6393887Y-14643002D01*
X6393887Y-14643002D02*
X6412934Y-14633478D01*
X6412934Y-14633478D02*
X6441506Y-14633478D01*
X6441506Y-14633478D02*
X6460553Y-14643002D01*
X6460553Y-14643002D02*
X6470077Y-14652525D01*
X6470077Y-14652525D02*
X6479601Y-14671573D01*
X6479601Y-14671573D02*
X6479601Y-14728716D01*
X6479601Y-14728716D02*
X6470077Y-14747764D01*
X6470077Y-14747764D02*
X6460553Y-14757287D01*
X6460553Y-14757287D02*
X6441506Y-14766811D01*
X6441506Y-14766811D02*
X6412934Y-14766811D01*
X6593887Y-14766811D02*
X6574839Y-14757287D01*
X6574839Y-14757287D02*
X6565315Y-14738240D01*
X6565315Y-14738240D02*
X6565315Y-14566811D01*
X6746268Y-14757287D02*
X6727220Y-14766811D01*
X6727220Y-14766811D02*
X6689125Y-14766811D01*
X6689125Y-14766811D02*
X6670077Y-14757287D01*
X6670077Y-14757287D02*
X6660553Y-14738240D01*
X6660553Y-14738240D02*
X6660553Y-14662049D01*
X6660553Y-14662049D02*
X6670077Y-14643002D01*
X6670077Y-14643002D02*
X6689125Y-14633478D01*
X6689125Y-14633478D02*
X6727220Y-14633478D01*
X6727220Y-14633478D02*
X6746268Y-14643002D01*
X6746268Y-14643002D02*
X6755791Y-14662049D01*
X6755791Y-14662049D02*
X6755791Y-14681097D01*
X6755791Y-14681097D02*
X6660553Y-14700145D01*
X6831982Y-14757287D02*
X6851030Y-14766811D01*
X6851030Y-14766811D02*
X6889125Y-14766811D01*
X6889125Y-14766811D02*
X6908172Y-14757287D01*
X6908172Y-14757287D02*
X6917696Y-14738240D01*
X6917696Y-14738240D02*
X6917696Y-14728716D01*
X6917696Y-14728716D02*
X6908172Y-14709668D01*
X6908172Y-14709668D02*
X6889125Y-14700145D01*
X6889125Y-14700145D02*
X6860553Y-14700145D01*
X6860553Y-14700145D02*
X6841506Y-14690621D01*
X6841506Y-14690621D02*
X6831982Y-14671573D01*
X6831982Y-14671573D02*
X6831982Y-14662049D01*
X6831982Y-14662049D02*
X6841506Y-14643002D01*
X6841506Y-14643002D02*
X6860553Y-14633478D01*
X6860553Y-14633478D02*
X6889125Y-14633478D01*
X6889125Y-14633478D02*
X6908172Y-14643002D01*
X6984363Y-14843002D02*
X6993887Y-14833478D01*
X6993887Y-14833478D02*
X7012934Y-14804906D01*
X7012934Y-14804906D02*
X7022458Y-14785859D01*
X7022458Y-14785859D02*
X7031982Y-14757287D01*
X7031982Y-14757287D02*
X7041506Y-14709668D01*
X7041506Y-14709668D02*
X7041506Y-14671573D01*
X7041506Y-14671573D02*
X7031982Y-14623954D01*
X7031982Y-14623954D02*
X7022458Y-14595383D01*
X7022458Y-14595383D02*
X7012934Y-14576335D01*
X7012934Y-14576335D02*
X6993887Y-14547764D01*
X6993887Y-14547764D02*
X6984363Y-14538240D01*
D12*
X2109300Y-14889327D02*
X2209300Y-14989327D01*
X2209300Y-14889327D02*
X2109300Y-14989327D01*
X2194656Y-14974683D02*
X2194656Y-14903972D01*
X2123944Y-14903972D01*
X2123944Y-14974683D01*
X2194656Y-14974683D01*
D11*
X2574839Y-15030811D02*
X2460553Y-15030811D01*
X2517696Y-15030811D02*
X2517696Y-14830811D01*
X2517696Y-14830811D02*
X2498648Y-14859383D01*
X2498648Y-14859383D02*
X2479601Y-14878430D01*
X2479601Y-14878430D02*
X2460553Y-14887954D01*
X2660553Y-15011764D02*
X2670077Y-15021287D01*
X2670077Y-15021287D02*
X2660553Y-15030811D01*
X2660553Y-15030811D02*
X2651029Y-15021287D01*
X2651029Y-15021287D02*
X2660553Y-15011764D01*
X2660553Y-15011764D02*
X2660553Y-15030811D01*
X2793886Y-14830811D02*
X2812934Y-14830811D01*
X2812934Y-14830811D02*
X2831982Y-14840335D01*
X2831982Y-14840335D02*
X2841505Y-14849859D01*
X2841505Y-14849859D02*
X2851029Y-14868906D01*
X2851029Y-14868906D02*
X2860553Y-14907002D01*
X2860553Y-14907002D02*
X2860553Y-14954621D01*
X2860553Y-14954621D02*
X2851029Y-14992716D01*
X2851029Y-14992716D02*
X2841505Y-15011764D01*
X2841505Y-15011764D02*
X2831982Y-15021287D01*
X2831982Y-15021287D02*
X2812934Y-15030811D01*
X2812934Y-15030811D02*
X2793886Y-15030811D01*
X2793886Y-15030811D02*
X2774839Y-15021287D01*
X2774839Y-15021287D02*
X2765315Y-15011764D01*
X2765315Y-15011764D02*
X2755791Y-14992716D01*
X2755791Y-14992716D02*
X2746267Y-14954621D01*
X2746267Y-14954621D02*
X2746267Y-14907002D01*
X2746267Y-14907002D02*
X2755791Y-14868906D01*
X2755791Y-14868906D02*
X2765315Y-14849859D01*
X2765315Y-14849859D02*
X2774839Y-14840335D01*
X2774839Y-14840335D02*
X2793886Y-14830811D01*
X2984362Y-14830811D02*
X3003410Y-14830811D01*
X3003410Y-14830811D02*
X3022458Y-14840335D01*
X3022458Y-14840335D02*
X3031982Y-14849859D01*
X3031982Y-14849859D02*
X3041505Y-14868906D01*
X3041505Y-14868906D02*
X3051029Y-14907002D01*
X3051029Y-14907002D02*
X3051029Y-14954621D01*
X3051029Y-14954621D02*
X3041505Y-14992716D01*
X3041505Y-14992716D02*
X3031982Y-15011764D01*
X3031982Y-15011764D02*
X3022458Y-15021287D01*
X3022458Y-15021287D02*
X3003410Y-15030811D01*
X3003410Y-15030811D02*
X2984362Y-15030811D01*
X2984362Y-15030811D02*
X2965315Y-15021287D01*
X2965315Y-15021287D02*
X2955791Y-15011764D01*
X2955791Y-15011764D02*
X2946267Y-14992716D01*
X2946267Y-14992716D02*
X2936743Y-14954621D01*
X2936743Y-14954621D02*
X2936743Y-14907002D01*
X2936743Y-14907002D02*
X2946267Y-14868906D01*
X2946267Y-14868906D02*
X2955791Y-14849859D01*
X2955791Y-14849859D02*
X2965315Y-14840335D01*
X2965315Y-14840335D02*
X2984362Y-14830811D01*
X3174839Y-14830811D02*
X3193886Y-14830811D01*
X3193886Y-14830811D02*
X3212934Y-14840335D01*
X3212934Y-14840335D02*
X3222458Y-14849859D01*
X3222458Y-14849859D02*
X3231982Y-14868906D01*
X3231982Y-14868906D02*
X3241505Y-14907002D01*
X3241505Y-14907002D02*
X3241505Y-14954621D01*
X3241505Y-14954621D02*
X3231982Y-14992716D01*
X3231982Y-14992716D02*
X3222458Y-15011764D01*
X3222458Y-15011764D02*
X3212934Y-15021287D01*
X3212934Y-15021287D02*
X3193886Y-15030811D01*
X3193886Y-15030811D02*
X3174839Y-15030811D01*
X3174839Y-15030811D02*
X3155791Y-15021287D01*
X3155791Y-15021287D02*
X3146267Y-15011764D01*
X3146267Y-15011764D02*
X3136743Y-14992716D01*
X3136743Y-14992716D02*
X3127220Y-14954621D01*
X3127220Y-14954621D02*
X3127220Y-14907002D01*
X3127220Y-14907002D02*
X3136743Y-14868906D01*
X3136743Y-14868906D02*
X3146267Y-14849859D01*
X3146267Y-14849859D02*
X3155791Y-14840335D01*
X3155791Y-14840335D02*
X3174839Y-14830811D01*
X3327220Y-15030811D02*
X3327220Y-14897478D01*
X3327220Y-14916525D02*
X3336743Y-14907002D01*
X3336743Y-14907002D02*
X3355791Y-14897478D01*
X3355791Y-14897478D02*
X3384363Y-14897478D01*
X3384363Y-14897478D02*
X3403410Y-14907002D01*
X3403410Y-14907002D02*
X3412934Y-14926049D01*
X3412934Y-14926049D02*
X3412934Y-15030811D01*
X3412934Y-14926049D02*
X3422458Y-14907002D01*
X3422458Y-14907002D02*
X3441505Y-14897478D01*
X3441505Y-14897478D02*
X3470077Y-14897478D01*
X3470077Y-14897478D02*
X3489124Y-14907002D01*
X3489124Y-14907002D02*
X3498648Y-14926049D01*
X3498648Y-14926049D02*
X3498648Y-15030811D01*
X3593886Y-15030811D02*
X3593886Y-14897478D01*
X3593886Y-14916525D02*
X3603410Y-14907002D01*
X3603410Y-14907002D02*
X3622458Y-14897478D01*
X3622458Y-14897478D02*
X3651029Y-14897478D01*
X3651029Y-14897478D02*
X3670077Y-14907002D01*
X3670077Y-14907002D02*
X3679601Y-14926049D01*
X3679601Y-14926049D02*
X3679601Y-15030811D01*
X3679601Y-14926049D02*
X3689124Y-14907002D01*
X3689124Y-14907002D02*
X3708172Y-14897478D01*
X3708172Y-14897478D02*
X3736743Y-14897478D01*
X3736743Y-14897478D02*
X3755791Y-14907002D01*
X3755791Y-14907002D02*
X3765315Y-14926049D01*
X3765315Y-14926049D02*
X3765315Y-15030811D01*
X4155791Y-14821287D02*
X3984363Y-15078430D01*
X4412934Y-14830811D02*
X4431982Y-14830811D01*
X4431982Y-14830811D02*
X4451029Y-14840335D01*
X4451029Y-14840335D02*
X4460553Y-14849859D01*
X4460553Y-14849859D02*
X4470077Y-14868906D01*
X4470077Y-14868906D02*
X4479601Y-14907002D01*
X4479601Y-14907002D02*
X4479601Y-14954621D01*
X4479601Y-14954621D02*
X4470077Y-14992716D01*
X4470077Y-14992716D02*
X4460553Y-15011764D01*
X4460553Y-15011764D02*
X4451029Y-15021287D01*
X4451029Y-15021287D02*
X4431982Y-15030811D01*
X4431982Y-15030811D02*
X4412934Y-15030811D01*
X4412934Y-15030811D02*
X4393887Y-15021287D01*
X4393887Y-15021287D02*
X4384363Y-15011764D01*
X4384363Y-15011764D02*
X4374839Y-14992716D01*
X4374839Y-14992716D02*
X4365315Y-14954621D01*
X4365315Y-14954621D02*
X4365315Y-14907002D01*
X4365315Y-14907002D02*
X4374839Y-14868906D01*
X4374839Y-14868906D02*
X4384363Y-14849859D01*
X4384363Y-14849859D02*
X4393887Y-14840335D01*
X4393887Y-14840335D02*
X4412934Y-14830811D01*
X4565315Y-15011764D02*
X4574839Y-15021287D01*
X4574839Y-15021287D02*
X4565315Y-15030811D01*
X4565315Y-15030811D02*
X4555791Y-15021287D01*
X4555791Y-15021287D02*
X4565315Y-15011764D01*
X4565315Y-15011764D02*
X4565315Y-15030811D01*
X4698648Y-14830811D02*
X4717696Y-14830811D01*
X4717696Y-14830811D02*
X4736744Y-14840335D01*
X4736744Y-14840335D02*
X4746268Y-14849859D01*
X4746268Y-14849859D02*
X4755791Y-14868906D01*
X4755791Y-14868906D02*
X4765315Y-14907002D01*
X4765315Y-14907002D02*
X4765315Y-14954621D01*
X4765315Y-14954621D02*
X4755791Y-14992716D01*
X4755791Y-14992716D02*
X4746268Y-15011764D01*
X4746268Y-15011764D02*
X4736744Y-15021287D01*
X4736744Y-15021287D02*
X4717696Y-15030811D01*
X4717696Y-15030811D02*
X4698648Y-15030811D01*
X4698648Y-15030811D02*
X4679601Y-15021287D01*
X4679601Y-15021287D02*
X4670077Y-15011764D01*
X4670077Y-15011764D02*
X4660553Y-14992716D01*
X4660553Y-14992716D02*
X4651029Y-14954621D01*
X4651029Y-14954621D02*
X4651029Y-14907002D01*
X4651029Y-14907002D02*
X4660553Y-14868906D01*
X4660553Y-14868906D02*
X4670077Y-14849859D01*
X4670077Y-14849859D02*
X4679601Y-14840335D01*
X4679601Y-14840335D02*
X4698648Y-14830811D01*
X4831982Y-14830811D02*
X4955791Y-14830811D01*
X4955791Y-14830811D02*
X4889125Y-14907002D01*
X4889125Y-14907002D02*
X4917696Y-14907002D01*
X4917696Y-14907002D02*
X4936744Y-14916525D01*
X4936744Y-14916525D02*
X4946268Y-14926049D01*
X4946268Y-14926049D02*
X4955791Y-14945097D01*
X4955791Y-14945097D02*
X4955791Y-14992716D01*
X4955791Y-14992716D02*
X4946268Y-15011764D01*
X4946268Y-15011764D02*
X4936744Y-15021287D01*
X4936744Y-15021287D02*
X4917696Y-15030811D01*
X4917696Y-15030811D02*
X4860553Y-15030811D01*
X4860553Y-15030811D02*
X4841506Y-15021287D01*
X4841506Y-15021287D02*
X4831982Y-15011764D01*
X5051029Y-15030811D02*
X5089125Y-15030811D01*
X5089125Y-15030811D02*
X5108172Y-15021287D01*
X5108172Y-15021287D02*
X5117696Y-15011764D01*
X5117696Y-15011764D02*
X5136744Y-14983192D01*
X5136744Y-14983192D02*
X5146268Y-14945097D01*
X5146268Y-14945097D02*
X5146268Y-14868906D01*
X5146268Y-14868906D02*
X5136744Y-14849859D01*
X5136744Y-14849859D02*
X5127220Y-14840335D01*
X5127220Y-14840335D02*
X5108172Y-14830811D01*
X5108172Y-14830811D02*
X5070077Y-14830811D01*
X5070077Y-14830811D02*
X5051029Y-14840335D01*
X5051029Y-14840335D02*
X5041506Y-14849859D01*
X5041506Y-14849859D02*
X5031982Y-14868906D01*
X5031982Y-14868906D02*
X5031982Y-14916525D01*
X5031982Y-14916525D02*
X5041506Y-14935573D01*
X5041506Y-14935573D02*
X5051029Y-14945097D01*
X5051029Y-14945097D02*
X5070077Y-14954621D01*
X5070077Y-14954621D02*
X5108172Y-14954621D01*
X5108172Y-14954621D02*
X5127220Y-14945097D01*
X5127220Y-14945097D02*
X5136744Y-14935573D01*
X5136744Y-14935573D02*
X5146268Y-14916525D01*
X5317696Y-14897478D02*
X5317696Y-15030811D01*
X5270077Y-14821287D02*
X5222458Y-14964145D01*
X5222458Y-14964145D02*
X5346268Y-14964145D01*
X5412934Y-14830811D02*
X5412934Y-14868906D01*
X5489125Y-14830811D02*
X5489125Y-14868906D01*
X5784363Y-15107002D02*
X5774839Y-15097478D01*
X5774839Y-15097478D02*
X5755791Y-15068906D01*
X5755791Y-15068906D02*
X5746268Y-15049859D01*
X5746268Y-15049859D02*
X5736744Y-15021287D01*
X5736744Y-15021287D02*
X5727220Y-14973668D01*
X5727220Y-14973668D02*
X5727220Y-14935573D01*
X5727220Y-14935573D02*
X5736744Y-14887954D01*
X5736744Y-14887954D02*
X5746268Y-14859383D01*
X5746268Y-14859383D02*
X5755791Y-14840335D01*
X5755791Y-14840335D02*
X5774839Y-14811764D01*
X5774839Y-14811764D02*
X5784363Y-14802240D01*
X5965315Y-15030811D02*
X5851029Y-15030811D01*
X5908172Y-15030811D02*
X5908172Y-14830811D01*
X5908172Y-14830811D02*
X5889125Y-14859383D01*
X5889125Y-14859383D02*
X5870077Y-14878430D01*
X5870077Y-14878430D02*
X5851029Y-14887954D01*
X6041506Y-14849859D02*
X6051029Y-14840335D01*
X6051029Y-14840335D02*
X6070077Y-14830811D01*
X6070077Y-14830811D02*
X6117696Y-14830811D01*
X6117696Y-14830811D02*
X6136744Y-14840335D01*
X6136744Y-14840335D02*
X6146268Y-14849859D01*
X6146268Y-14849859D02*
X6155791Y-14868906D01*
X6155791Y-14868906D02*
X6155791Y-14887954D01*
X6155791Y-14887954D02*
X6146268Y-14916525D01*
X6146268Y-14916525D02*
X6031982Y-15030811D01*
X6031982Y-15030811D02*
X6155791Y-15030811D01*
X6327220Y-14897478D02*
X6327220Y-15030811D01*
X6279601Y-14821287D02*
X6231982Y-14964145D01*
X6231982Y-14964145D02*
X6355791Y-14964145D01*
X6584363Y-15030811D02*
X6584363Y-14830811D01*
X6670077Y-15030811D02*
X6670077Y-14926049D01*
X6670077Y-14926049D02*
X6660553Y-14907002D01*
X6660553Y-14907002D02*
X6641506Y-14897478D01*
X6641506Y-14897478D02*
X6612934Y-14897478D01*
X6612934Y-14897478D02*
X6593887Y-14907002D01*
X6593887Y-14907002D02*
X6584363Y-14916525D01*
X6793887Y-15030811D02*
X6774839Y-15021287D01*
X6774839Y-15021287D02*
X6765315Y-15011764D01*
X6765315Y-15011764D02*
X6755791Y-14992716D01*
X6755791Y-14992716D02*
X6755791Y-14935573D01*
X6755791Y-14935573D02*
X6765315Y-14916525D01*
X6765315Y-14916525D02*
X6774839Y-14907002D01*
X6774839Y-14907002D02*
X6793887Y-14897478D01*
X6793887Y-14897478D02*
X6822458Y-14897478D01*
X6822458Y-14897478D02*
X6841506Y-14907002D01*
X6841506Y-14907002D02*
X6851030Y-14916525D01*
X6851030Y-14916525D02*
X6860553Y-14935573D01*
X6860553Y-14935573D02*
X6860553Y-14992716D01*
X6860553Y-14992716D02*
X6851030Y-15011764D01*
X6851030Y-15011764D02*
X6841506Y-15021287D01*
X6841506Y-15021287D02*
X6822458Y-15030811D01*
X6822458Y-15030811D02*
X6793887Y-15030811D01*
X6974839Y-15030811D02*
X6955791Y-15021287D01*
X6955791Y-15021287D02*
X6946268Y-15002240D01*
X6946268Y-15002240D02*
X6946268Y-14830811D01*
X7127220Y-15021287D02*
X7108172Y-15030811D01*
X7108172Y-15030811D02*
X7070077Y-15030811D01*
X7070077Y-15030811D02*
X7051030Y-15021287D01*
X7051030Y-15021287D02*
X7041506Y-15002240D01*
X7041506Y-15002240D02*
X7041506Y-14926049D01*
X7041506Y-14926049D02*
X7051030Y-14907002D01*
X7051030Y-14907002D02*
X7070077Y-14897478D01*
X7070077Y-14897478D02*
X7108172Y-14897478D01*
X7108172Y-14897478D02*
X7127220Y-14907002D01*
X7127220Y-14907002D02*
X7136744Y-14926049D01*
X7136744Y-14926049D02*
X7136744Y-14945097D01*
X7136744Y-14945097D02*
X7041506Y-14964145D01*
X7212934Y-15021287D02*
X7231982Y-15030811D01*
X7231982Y-15030811D02*
X7270077Y-15030811D01*
X7270077Y-15030811D02*
X7289125Y-15021287D01*
X7289125Y-15021287D02*
X7298649Y-15002240D01*
X7298649Y-15002240D02*
X7298649Y-14992716D01*
X7298649Y-14992716D02*
X7289125Y-14973668D01*
X7289125Y-14973668D02*
X7270077Y-14964145D01*
X7270077Y-14964145D02*
X7241506Y-14964145D01*
X7241506Y-14964145D02*
X7222458Y-14954621D01*
X7222458Y-14954621D02*
X7212934Y-14935573D01*
X7212934Y-14935573D02*
X7212934Y-14926049D01*
X7212934Y-14926049D02*
X7222458Y-14907002D01*
X7222458Y-14907002D02*
X7241506Y-14897478D01*
X7241506Y-14897478D02*
X7270077Y-14897478D01*
X7270077Y-14897478D02*
X7289125Y-14907002D01*
X7365315Y-15107002D02*
X7374839Y-15097478D01*
X7374839Y-15097478D02*
X7393887Y-15068906D01*
X7393887Y-15068906D02*
X7403411Y-15049859D01*
X7403411Y-15049859D02*
X7412934Y-15021287D01*
X7412934Y-15021287D02*
X7422458Y-14973668D01*
X7422458Y-14973668D02*
X7422458Y-14935573D01*
X7422458Y-14935573D02*
X7412934Y-14887954D01*
X7412934Y-14887954D02*
X7403411Y-14859383D01*
X7403411Y-14859383D02*
X7393887Y-14840335D01*
X7393887Y-14840335D02*
X7374839Y-14811764D01*
X7374839Y-14811764D02*
X7365315Y-14802240D01*
X2009300Y-15103327D02*
X2209300Y-15303327D01*
X2209300Y-15103327D02*
X2009300Y-15303327D01*
X2109300Y-15303327D02*
X2209300Y-15203327D01*
X2109300Y-15103327D01*
X2009300Y-15203327D01*
X2109300Y-15303327D01*
X2460553Y-15113859D02*
X2470077Y-15104335D01*
X2470077Y-15104335D02*
X2489124Y-15094811D01*
X2489124Y-15094811D02*
X2536744Y-15094811D01*
X2536744Y-15094811D02*
X2555791Y-15104335D01*
X2555791Y-15104335D02*
X2565315Y-15113859D01*
X2565315Y-15113859D02*
X2574839Y-15132906D01*
X2574839Y-15132906D02*
X2574839Y-15151954D01*
X2574839Y-15151954D02*
X2565315Y-15180525D01*
X2565315Y-15180525D02*
X2451029Y-15294811D01*
X2451029Y-15294811D02*
X2574839Y-15294811D01*
X2660553Y-15275764D02*
X2670077Y-15285287D01*
X2670077Y-15285287D02*
X2660553Y-15294811D01*
X2660553Y-15294811D02*
X2651029Y-15285287D01*
X2651029Y-15285287D02*
X2660553Y-15275764D01*
X2660553Y-15275764D02*
X2660553Y-15294811D01*
X2746267Y-15113859D02*
X2755791Y-15104335D01*
X2755791Y-15104335D02*
X2774839Y-15094811D01*
X2774839Y-15094811D02*
X2822458Y-15094811D01*
X2822458Y-15094811D02*
X2841505Y-15104335D01*
X2841505Y-15104335D02*
X2851029Y-15113859D01*
X2851029Y-15113859D02*
X2860553Y-15132906D01*
X2860553Y-15132906D02*
X2860553Y-15151954D01*
X2860553Y-15151954D02*
X2851029Y-15180525D01*
X2851029Y-15180525D02*
X2736744Y-15294811D01*
X2736744Y-15294811D02*
X2860553Y-15294811D01*
X2984362Y-15094811D02*
X3003410Y-15094811D01*
X3003410Y-15094811D02*
X3022458Y-15104335D01*
X3022458Y-15104335D02*
X3031982Y-15113859D01*
X3031982Y-15113859D02*
X3041505Y-15132906D01*
X3041505Y-15132906D02*
X3051029Y-15171002D01*
X3051029Y-15171002D02*
X3051029Y-15218621D01*
X3051029Y-15218621D02*
X3041505Y-15256716D01*
X3041505Y-15256716D02*
X3031982Y-15275764D01*
X3031982Y-15275764D02*
X3022458Y-15285287D01*
X3022458Y-15285287D02*
X3003410Y-15294811D01*
X3003410Y-15294811D02*
X2984362Y-15294811D01*
X2984362Y-15294811D02*
X2965315Y-15285287D01*
X2965315Y-15285287D02*
X2955791Y-15275764D01*
X2955791Y-15275764D02*
X2946267Y-15256716D01*
X2946267Y-15256716D02*
X2936743Y-15218621D01*
X2936743Y-15218621D02*
X2936743Y-15171002D01*
X2936743Y-15171002D02*
X2946267Y-15132906D01*
X2946267Y-15132906D02*
X2955791Y-15113859D01*
X2955791Y-15113859D02*
X2965315Y-15104335D01*
X2965315Y-15104335D02*
X2984362Y-15094811D01*
X3174839Y-15094811D02*
X3193886Y-15094811D01*
X3193886Y-15094811D02*
X3212934Y-15104335D01*
X3212934Y-15104335D02*
X3222458Y-15113859D01*
X3222458Y-15113859D02*
X3231982Y-15132906D01*
X3231982Y-15132906D02*
X3241505Y-15171002D01*
X3241505Y-15171002D02*
X3241505Y-15218621D01*
X3241505Y-15218621D02*
X3231982Y-15256716D01*
X3231982Y-15256716D02*
X3222458Y-15275764D01*
X3222458Y-15275764D02*
X3212934Y-15285287D01*
X3212934Y-15285287D02*
X3193886Y-15294811D01*
X3193886Y-15294811D02*
X3174839Y-15294811D01*
X3174839Y-15294811D02*
X3155791Y-15285287D01*
X3155791Y-15285287D02*
X3146267Y-15275764D01*
X3146267Y-15275764D02*
X3136743Y-15256716D01*
X3136743Y-15256716D02*
X3127220Y-15218621D01*
X3127220Y-15218621D02*
X3127220Y-15171002D01*
X3127220Y-15171002D02*
X3136743Y-15132906D01*
X3136743Y-15132906D02*
X3146267Y-15113859D01*
X3146267Y-15113859D02*
X3155791Y-15104335D01*
X3155791Y-15104335D02*
X3174839Y-15094811D01*
X3327220Y-15294811D02*
X3327220Y-15161478D01*
X3327220Y-15180525D02*
X3336743Y-15171002D01*
X3336743Y-15171002D02*
X3355791Y-15161478D01*
X3355791Y-15161478D02*
X3384363Y-15161478D01*
X3384363Y-15161478D02*
X3403410Y-15171002D01*
X3403410Y-15171002D02*
X3412934Y-15190049D01*
X3412934Y-15190049D02*
X3412934Y-15294811D01*
X3412934Y-15190049D02*
X3422458Y-15171002D01*
X3422458Y-15171002D02*
X3441505Y-15161478D01*
X3441505Y-15161478D02*
X3470077Y-15161478D01*
X3470077Y-15161478D02*
X3489124Y-15171002D01*
X3489124Y-15171002D02*
X3498648Y-15190049D01*
X3498648Y-15190049D02*
X3498648Y-15294811D01*
X3593886Y-15294811D02*
X3593886Y-15161478D01*
X3593886Y-15180525D02*
X3603410Y-15171002D01*
X3603410Y-15171002D02*
X3622458Y-15161478D01*
X3622458Y-15161478D02*
X3651029Y-15161478D01*
X3651029Y-15161478D02*
X3670077Y-15171002D01*
X3670077Y-15171002D02*
X3679601Y-15190049D01*
X3679601Y-15190049D02*
X3679601Y-15294811D01*
X3679601Y-15190049D02*
X3689124Y-15171002D01*
X3689124Y-15171002D02*
X3708172Y-15161478D01*
X3708172Y-15161478D02*
X3736743Y-15161478D01*
X3736743Y-15161478D02*
X3755791Y-15171002D01*
X3755791Y-15171002D02*
X3765315Y-15190049D01*
X3765315Y-15190049D02*
X3765315Y-15294811D01*
X4155791Y-15085287D02*
X3984363Y-15342430D01*
X4412934Y-15094811D02*
X4431982Y-15094811D01*
X4431982Y-15094811D02*
X4451029Y-15104335D01*
X4451029Y-15104335D02*
X4460553Y-15113859D01*
X4460553Y-15113859D02*
X4470077Y-15132906D01*
X4470077Y-15132906D02*
X4479601Y-15171002D01*
X4479601Y-15171002D02*
X4479601Y-15218621D01*
X4479601Y-15218621D02*
X4470077Y-15256716D01*
X4470077Y-15256716D02*
X4460553Y-15275764D01*
X4460553Y-15275764D02*
X4451029Y-15285287D01*
X4451029Y-15285287D02*
X4431982Y-15294811D01*
X4431982Y-15294811D02*
X4412934Y-15294811D01*
X4412934Y-15294811D02*
X4393887Y-15285287D01*
X4393887Y-15285287D02*
X4384363Y-15275764D01*
X4384363Y-15275764D02*
X4374839Y-15256716D01*
X4374839Y-15256716D02*
X4365315Y-15218621D01*
X4365315Y-15218621D02*
X4365315Y-15171002D01*
X4365315Y-15171002D02*
X4374839Y-15132906D01*
X4374839Y-15132906D02*
X4384363Y-15113859D01*
X4384363Y-15113859D02*
X4393887Y-15104335D01*
X4393887Y-15104335D02*
X4412934Y-15094811D01*
X4565315Y-15275764D02*
X4574839Y-15285287D01*
X4574839Y-15285287D02*
X4565315Y-15294811D01*
X4565315Y-15294811D02*
X4555791Y-15285287D01*
X4555791Y-15285287D02*
X4565315Y-15275764D01*
X4565315Y-15275764D02*
X4565315Y-15294811D01*
X4698648Y-15094811D02*
X4717696Y-15094811D01*
X4717696Y-15094811D02*
X4736744Y-15104335D01*
X4736744Y-15104335D02*
X4746268Y-15113859D01*
X4746268Y-15113859D02*
X4755791Y-15132906D01*
X4755791Y-15132906D02*
X4765315Y-15171002D01*
X4765315Y-15171002D02*
X4765315Y-15218621D01*
X4765315Y-15218621D02*
X4755791Y-15256716D01*
X4755791Y-15256716D02*
X4746268Y-15275764D01*
X4746268Y-15275764D02*
X4736744Y-15285287D01*
X4736744Y-15285287D02*
X4717696Y-15294811D01*
X4717696Y-15294811D02*
X4698648Y-15294811D01*
X4698648Y-15294811D02*
X4679601Y-15285287D01*
X4679601Y-15285287D02*
X4670077Y-15275764D01*
X4670077Y-15275764D02*
X4660553Y-15256716D01*
X4660553Y-15256716D02*
X4651029Y-15218621D01*
X4651029Y-15218621D02*
X4651029Y-15171002D01*
X4651029Y-15171002D02*
X4660553Y-15132906D01*
X4660553Y-15132906D02*
X4670077Y-15113859D01*
X4670077Y-15113859D02*
X4679601Y-15104335D01*
X4679601Y-15104335D02*
X4698648Y-15094811D01*
X4879601Y-15180525D02*
X4860553Y-15171002D01*
X4860553Y-15171002D02*
X4851029Y-15161478D01*
X4851029Y-15161478D02*
X4841506Y-15142430D01*
X4841506Y-15142430D02*
X4841506Y-15132906D01*
X4841506Y-15132906D02*
X4851029Y-15113859D01*
X4851029Y-15113859D02*
X4860553Y-15104335D01*
X4860553Y-15104335D02*
X4879601Y-15094811D01*
X4879601Y-15094811D02*
X4917696Y-15094811D01*
X4917696Y-15094811D02*
X4936744Y-15104335D01*
X4936744Y-15104335D02*
X4946268Y-15113859D01*
X4946268Y-15113859D02*
X4955791Y-15132906D01*
X4955791Y-15132906D02*
X4955791Y-15142430D01*
X4955791Y-15142430D02*
X4946268Y-15161478D01*
X4946268Y-15161478D02*
X4936744Y-15171002D01*
X4936744Y-15171002D02*
X4917696Y-15180525D01*
X4917696Y-15180525D02*
X4879601Y-15180525D01*
X4879601Y-15180525D02*
X4860553Y-15190049D01*
X4860553Y-15190049D02*
X4851029Y-15199573D01*
X4851029Y-15199573D02*
X4841506Y-15218621D01*
X4841506Y-15218621D02*
X4841506Y-15256716D01*
X4841506Y-15256716D02*
X4851029Y-15275764D01*
X4851029Y-15275764D02*
X4860553Y-15285287D01*
X4860553Y-15285287D02*
X4879601Y-15294811D01*
X4879601Y-15294811D02*
X4917696Y-15294811D01*
X4917696Y-15294811D02*
X4936744Y-15285287D01*
X4936744Y-15285287D02*
X4946268Y-15275764D01*
X4946268Y-15275764D02*
X4955791Y-15256716D01*
X4955791Y-15256716D02*
X4955791Y-15218621D01*
X4955791Y-15218621D02*
X4946268Y-15199573D01*
X4946268Y-15199573D02*
X4936744Y-15190049D01*
X4936744Y-15190049D02*
X4917696Y-15180525D01*
X5127220Y-15094811D02*
X5089125Y-15094811D01*
X5089125Y-15094811D02*
X5070077Y-15104335D01*
X5070077Y-15104335D02*
X5060553Y-15113859D01*
X5060553Y-15113859D02*
X5041506Y-15142430D01*
X5041506Y-15142430D02*
X5031982Y-15180525D01*
X5031982Y-15180525D02*
X5031982Y-15256716D01*
X5031982Y-15256716D02*
X5041506Y-15275764D01*
X5041506Y-15275764D02*
X5051029Y-15285287D01*
X5051029Y-15285287D02*
X5070077Y-15294811D01*
X5070077Y-15294811D02*
X5108172Y-15294811D01*
X5108172Y-15294811D02*
X5127220Y-15285287D01*
X5127220Y-15285287D02*
X5136744Y-15275764D01*
X5136744Y-15275764D02*
X5146268Y-15256716D01*
X5146268Y-15256716D02*
X5146268Y-15209097D01*
X5146268Y-15209097D02*
X5136744Y-15190049D01*
X5136744Y-15190049D02*
X5127220Y-15180525D01*
X5127220Y-15180525D02*
X5108172Y-15171002D01*
X5108172Y-15171002D02*
X5070077Y-15171002D01*
X5070077Y-15171002D02*
X5051029Y-15180525D01*
X5051029Y-15180525D02*
X5041506Y-15190049D01*
X5041506Y-15190049D02*
X5031982Y-15209097D01*
X5317696Y-15094811D02*
X5279601Y-15094811D01*
X5279601Y-15094811D02*
X5260553Y-15104335D01*
X5260553Y-15104335D02*
X5251029Y-15113859D01*
X5251029Y-15113859D02*
X5231982Y-15142430D01*
X5231982Y-15142430D02*
X5222458Y-15180525D01*
X5222458Y-15180525D02*
X5222458Y-15256716D01*
X5222458Y-15256716D02*
X5231982Y-15275764D01*
X5231982Y-15275764D02*
X5241506Y-15285287D01*
X5241506Y-15285287D02*
X5260553Y-15294811D01*
X5260553Y-15294811D02*
X5298649Y-15294811D01*
X5298649Y-15294811D02*
X5317696Y-15285287D01*
X5317696Y-15285287D02*
X5327220Y-15275764D01*
X5327220Y-15275764D02*
X5336744Y-15256716D01*
X5336744Y-15256716D02*
X5336744Y-15209097D01*
X5336744Y-15209097D02*
X5327220Y-15190049D01*
X5327220Y-15190049D02*
X5317696Y-15180525D01*
X5317696Y-15180525D02*
X5298649Y-15171002D01*
X5298649Y-15171002D02*
X5260553Y-15171002D01*
X5260553Y-15171002D02*
X5241506Y-15180525D01*
X5241506Y-15180525D02*
X5231982Y-15190049D01*
X5231982Y-15190049D02*
X5222458Y-15209097D01*
X5412934Y-15094811D02*
X5412934Y-15132906D01*
X5489125Y-15094811D02*
X5489125Y-15132906D01*
X5784363Y-15371002D02*
X5774839Y-15361478D01*
X5774839Y-15361478D02*
X5755791Y-15332906D01*
X5755791Y-15332906D02*
X5746268Y-15313859D01*
X5746268Y-15313859D02*
X5736744Y-15285287D01*
X5736744Y-15285287D02*
X5727220Y-15237668D01*
X5727220Y-15237668D02*
X5727220Y-15199573D01*
X5727220Y-15199573D02*
X5736744Y-15151954D01*
X5736744Y-15151954D02*
X5746268Y-15123383D01*
X5746268Y-15123383D02*
X5755791Y-15104335D01*
X5755791Y-15104335D02*
X5774839Y-15075764D01*
X5774839Y-15075764D02*
X5784363Y-15066240D01*
X5946268Y-15161478D02*
X5946268Y-15294811D01*
X5898648Y-15085287D02*
X5851029Y-15228145D01*
X5851029Y-15228145D02*
X5974839Y-15228145D01*
X6203410Y-15294811D02*
X6203410Y-15094811D01*
X6289125Y-15294811D02*
X6289125Y-15190049D01*
X6289125Y-15190049D02*
X6279601Y-15171002D01*
X6279601Y-15171002D02*
X6260553Y-15161478D01*
X6260553Y-15161478D02*
X6231982Y-15161478D01*
X6231982Y-15161478D02*
X6212934Y-15171002D01*
X6212934Y-15171002D02*
X6203410Y-15180525D01*
X6412934Y-15294811D02*
X6393887Y-15285287D01*
X6393887Y-15285287D02*
X6384363Y-15275764D01*
X6384363Y-15275764D02*
X6374839Y-15256716D01*
X6374839Y-15256716D02*
X6374839Y-15199573D01*
X6374839Y-15199573D02*
X6384363Y-15180525D01*
X6384363Y-15180525D02*
X6393887Y-15171002D01*
X6393887Y-15171002D02*
X6412934Y-15161478D01*
X6412934Y-15161478D02*
X6441506Y-15161478D01*
X6441506Y-15161478D02*
X6460553Y-15171002D01*
X6460553Y-15171002D02*
X6470077Y-15180525D01*
X6470077Y-15180525D02*
X6479601Y-15199573D01*
X6479601Y-15199573D02*
X6479601Y-15256716D01*
X6479601Y-15256716D02*
X6470077Y-15275764D01*
X6470077Y-15275764D02*
X6460553Y-15285287D01*
X6460553Y-15285287D02*
X6441506Y-15294811D01*
X6441506Y-15294811D02*
X6412934Y-15294811D01*
X6593887Y-15294811D02*
X6574839Y-15285287D01*
X6574839Y-15285287D02*
X6565315Y-15266240D01*
X6565315Y-15266240D02*
X6565315Y-15094811D01*
X6746268Y-15285287D02*
X6727220Y-15294811D01*
X6727220Y-15294811D02*
X6689125Y-15294811D01*
X6689125Y-15294811D02*
X6670077Y-15285287D01*
X6670077Y-15285287D02*
X6660553Y-15266240D01*
X6660553Y-15266240D02*
X6660553Y-15190049D01*
X6660553Y-15190049D02*
X6670077Y-15171002D01*
X6670077Y-15171002D02*
X6689125Y-15161478D01*
X6689125Y-15161478D02*
X6727220Y-15161478D01*
X6727220Y-15161478D02*
X6746268Y-15171002D01*
X6746268Y-15171002D02*
X6755791Y-15190049D01*
X6755791Y-15190049D02*
X6755791Y-15209097D01*
X6755791Y-15209097D02*
X6660553Y-15228145D01*
X6831982Y-15285287D02*
X6851030Y-15294811D01*
X6851030Y-15294811D02*
X6889125Y-15294811D01*
X6889125Y-15294811D02*
X6908172Y-15285287D01*
X6908172Y-15285287D02*
X6917696Y-15266240D01*
X6917696Y-15266240D02*
X6917696Y-15256716D01*
X6917696Y-15256716D02*
X6908172Y-15237668D01*
X6908172Y-15237668D02*
X6889125Y-15228145D01*
X6889125Y-15228145D02*
X6860553Y-15228145D01*
X6860553Y-15228145D02*
X6841506Y-15218621D01*
X6841506Y-15218621D02*
X6831982Y-15199573D01*
X6831982Y-15199573D02*
X6831982Y-15190049D01*
X6831982Y-15190049D02*
X6841506Y-15171002D01*
X6841506Y-15171002D02*
X6860553Y-15161478D01*
X6860553Y-15161478D02*
X6889125Y-15161478D01*
X6889125Y-15161478D02*
X6908172Y-15171002D01*
X6984363Y-15371002D02*
X6993887Y-15361478D01*
X6993887Y-15361478D02*
X7012934Y-15332906D01*
X7012934Y-15332906D02*
X7022458Y-15313859D01*
X7022458Y-15313859D02*
X7031982Y-15285287D01*
X7031982Y-15285287D02*
X7041506Y-15237668D01*
X7041506Y-15237668D02*
X7041506Y-15199573D01*
X7041506Y-15199573D02*
X7031982Y-15151954D01*
X7031982Y-15151954D02*
X7022458Y-15123383D01*
X7022458Y-15123383D02*
X7012934Y-15104335D01*
X7012934Y-15104335D02*
X6993887Y-15075764D01*
X6993887Y-15075764D02*
X6984363Y-15066240D01*
X2109300Y-15423327D02*
X2109300Y-15623327D01*
X2009300Y-15523327D02*
X2209300Y-15523327D01*
X2209300Y-15523327D02*
G75*
G02*
X2009300Y-15523327I-100000J0D01*
G01*
X2009300Y-15523327D02*
G75*
G02*
X2209300Y-15523327I100000J0D01*
G01*
X2460553Y-15433859D02*
X2470077Y-15424335D01*
X2470077Y-15424335D02*
X2489124Y-15414811D01*
X2489124Y-15414811D02*
X2536744Y-15414811D01*
X2536744Y-15414811D02*
X2555791Y-15424335D01*
X2555791Y-15424335D02*
X2565315Y-15433859D01*
X2565315Y-15433859D02*
X2574839Y-15452906D01*
X2574839Y-15452906D02*
X2574839Y-15471954D01*
X2574839Y-15471954D02*
X2565315Y-15500525D01*
X2565315Y-15500525D02*
X2451029Y-15614811D01*
X2451029Y-15614811D02*
X2574839Y-15614811D01*
X2660553Y-15595764D02*
X2670077Y-15605287D01*
X2670077Y-15605287D02*
X2660553Y-15614811D01*
X2660553Y-15614811D02*
X2651029Y-15605287D01*
X2651029Y-15605287D02*
X2660553Y-15595764D01*
X2660553Y-15595764D02*
X2660553Y-15614811D01*
X2736744Y-15414811D02*
X2860553Y-15414811D01*
X2860553Y-15414811D02*
X2793886Y-15491002D01*
X2793886Y-15491002D02*
X2822458Y-15491002D01*
X2822458Y-15491002D02*
X2841505Y-15500525D01*
X2841505Y-15500525D02*
X2851029Y-15510049D01*
X2851029Y-15510049D02*
X2860553Y-15529097D01*
X2860553Y-15529097D02*
X2860553Y-15576716D01*
X2860553Y-15576716D02*
X2851029Y-15595764D01*
X2851029Y-15595764D02*
X2841505Y-15605287D01*
X2841505Y-15605287D02*
X2822458Y-15614811D01*
X2822458Y-15614811D02*
X2765315Y-15614811D01*
X2765315Y-15614811D02*
X2746267Y-15605287D01*
X2746267Y-15605287D02*
X2736744Y-15595764D01*
X2984362Y-15414811D02*
X3003410Y-15414811D01*
X3003410Y-15414811D02*
X3022458Y-15424335D01*
X3022458Y-15424335D02*
X3031982Y-15433859D01*
X3031982Y-15433859D02*
X3041505Y-15452906D01*
X3041505Y-15452906D02*
X3051029Y-15491002D01*
X3051029Y-15491002D02*
X3051029Y-15538621D01*
X3051029Y-15538621D02*
X3041505Y-15576716D01*
X3041505Y-15576716D02*
X3031982Y-15595764D01*
X3031982Y-15595764D02*
X3022458Y-15605287D01*
X3022458Y-15605287D02*
X3003410Y-15614811D01*
X3003410Y-15614811D02*
X2984362Y-15614811D01*
X2984362Y-15614811D02*
X2965315Y-15605287D01*
X2965315Y-15605287D02*
X2955791Y-15595764D01*
X2955791Y-15595764D02*
X2946267Y-15576716D01*
X2946267Y-15576716D02*
X2936743Y-15538621D01*
X2936743Y-15538621D02*
X2936743Y-15491002D01*
X2936743Y-15491002D02*
X2946267Y-15452906D01*
X2946267Y-15452906D02*
X2955791Y-15433859D01*
X2955791Y-15433859D02*
X2965315Y-15424335D01*
X2965315Y-15424335D02*
X2984362Y-15414811D01*
X3174839Y-15414811D02*
X3193886Y-15414811D01*
X3193886Y-15414811D02*
X3212934Y-15424335D01*
X3212934Y-15424335D02*
X3222458Y-15433859D01*
X3222458Y-15433859D02*
X3231982Y-15452906D01*
X3231982Y-15452906D02*
X3241505Y-15491002D01*
X3241505Y-15491002D02*
X3241505Y-15538621D01*
X3241505Y-15538621D02*
X3231982Y-15576716D01*
X3231982Y-15576716D02*
X3222458Y-15595764D01*
X3222458Y-15595764D02*
X3212934Y-15605287D01*
X3212934Y-15605287D02*
X3193886Y-15614811D01*
X3193886Y-15614811D02*
X3174839Y-15614811D01*
X3174839Y-15614811D02*
X3155791Y-15605287D01*
X3155791Y-15605287D02*
X3146267Y-15595764D01*
X3146267Y-15595764D02*
X3136743Y-15576716D01*
X3136743Y-15576716D02*
X3127220Y-15538621D01*
X3127220Y-15538621D02*
X3127220Y-15491002D01*
X3127220Y-15491002D02*
X3136743Y-15452906D01*
X3136743Y-15452906D02*
X3146267Y-15433859D01*
X3146267Y-15433859D02*
X3155791Y-15424335D01*
X3155791Y-15424335D02*
X3174839Y-15414811D01*
X3327220Y-15614811D02*
X3327220Y-15481478D01*
X3327220Y-15500525D02*
X3336743Y-15491002D01*
X3336743Y-15491002D02*
X3355791Y-15481478D01*
X3355791Y-15481478D02*
X3384363Y-15481478D01*
X3384363Y-15481478D02*
X3403410Y-15491002D01*
X3403410Y-15491002D02*
X3412934Y-15510049D01*
X3412934Y-15510049D02*
X3412934Y-15614811D01*
X3412934Y-15510049D02*
X3422458Y-15491002D01*
X3422458Y-15491002D02*
X3441505Y-15481478D01*
X3441505Y-15481478D02*
X3470077Y-15481478D01*
X3470077Y-15481478D02*
X3489124Y-15491002D01*
X3489124Y-15491002D02*
X3498648Y-15510049D01*
X3498648Y-15510049D02*
X3498648Y-15614811D01*
X3593886Y-15614811D02*
X3593886Y-15481478D01*
X3593886Y-15500525D02*
X3603410Y-15491002D01*
X3603410Y-15491002D02*
X3622458Y-15481478D01*
X3622458Y-15481478D02*
X3651029Y-15481478D01*
X3651029Y-15481478D02*
X3670077Y-15491002D01*
X3670077Y-15491002D02*
X3679601Y-15510049D01*
X3679601Y-15510049D02*
X3679601Y-15614811D01*
X3679601Y-15510049D02*
X3689124Y-15491002D01*
X3689124Y-15491002D02*
X3708172Y-15481478D01*
X3708172Y-15481478D02*
X3736743Y-15481478D01*
X3736743Y-15481478D02*
X3755791Y-15491002D01*
X3755791Y-15491002D02*
X3765315Y-15510049D01*
X3765315Y-15510049D02*
X3765315Y-15614811D01*
X4155791Y-15405287D02*
X3984363Y-15662430D01*
X4412934Y-15414811D02*
X4431982Y-15414811D01*
X4431982Y-15414811D02*
X4451029Y-15424335D01*
X4451029Y-15424335D02*
X4460553Y-15433859D01*
X4460553Y-15433859D02*
X4470077Y-15452906D01*
X4470077Y-15452906D02*
X4479601Y-15491002D01*
X4479601Y-15491002D02*
X4479601Y-15538621D01*
X4479601Y-15538621D02*
X4470077Y-15576716D01*
X4470077Y-15576716D02*
X4460553Y-15595764D01*
X4460553Y-15595764D02*
X4451029Y-15605287D01*
X4451029Y-15605287D02*
X4431982Y-15614811D01*
X4431982Y-15614811D02*
X4412934Y-15614811D01*
X4412934Y-15614811D02*
X4393887Y-15605287D01*
X4393887Y-15605287D02*
X4384363Y-15595764D01*
X4384363Y-15595764D02*
X4374839Y-15576716D01*
X4374839Y-15576716D02*
X4365315Y-15538621D01*
X4365315Y-15538621D02*
X4365315Y-15491002D01*
X4365315Y-15491002D02*
X4374839Y-15452906D01*
X4374839Y-15452906D02*
X4384363Y-15433859D01*
X4384363Y-15433859D02*
X4393887Y-15424335D01*
X4393887Y-15424335D02*
X4412934Y-15414811D01*
X4565315Y-15595764D02*
X4574839Y-15605287D01*
X4574839Y-15605287D02*
X4565315Y-15614811D01*
X4565315Y-15614811D02*
X4555791Y-15605287D01*
X4555791Y-15605287D02*
X4565315Y-15595764D01*
X4565315Y-15595764D02*
X4565315Y-15614811D01*
X4698648Y-15414811D02*
X4717696Y-15414811D01*
X4717696Y-15414811D02*
X4736744Y-15424335D01*
X4736744Y-15424335D02*
X4746268Y-15433859D01*
X4746268Y-15433859D02*
X4755791Y-15452906D01*
X4755791Y-15452906D02*
X4765315Y-15491002D01*
X4765315Y-15491002D02*
X4765315Y-15538621D01*
X4765315Y-15538621D02*
X4755791Y-15576716D01*
X4755791Y-15576716D02*
X4746268Y-15595764D01*
X4746268Y-15595764D02*
X4736744Y-15605287D01*
X4736744Y-15605287D02*
X4717696Y-15614811D01*
X4717696Y-15614811D02*
X4698648Y-15614811D01*
X4698648Y-15614811D02*
X4679601Y-15605287D01*
X4679601Y-15605287D02*
X4670077Y-15595764D01*
X4670077Y-15595764D02*
X4660553Y-15576716D01*
X4660553Y-15576716D02*
X4651029Y-15538621D01*
X4651029Y-15538621D02*
X4651029Y-15491002D01*
X4651029Y-15491002D02*
X4660553Y-15452906D01*
X4660553Y-15452906D02*
X4670077Y-15433859D01*
X4670077Y-15433859D02*
X4679601Y-15424335D01*
X4679601Y-15424335D02*
X4698648Y-15414811D01*
X4860553Y-15614811D02*
X4898648Y-15614811D01*
X4898648Y-15614811D02*
X4917696Y-15605287D01*
X4917696Y-15605287D02*
X4927220Y-15595764D01*
X4927220Y-15595764D02*
X4946268Y-15567192D01*
X4946268Y-15567192D02*
X4955791Y-15529097D01*
X4955791Y-15529097D02*
X4955791Y-15452906D01*
X4955791Y-15452906D02*
X4946268Y-15433859D01*
X4946268Y-15433859D02*
X4936744Y-15424335D01*
X4936744Y-15424335D02*
X4917696Y-15414811D01*
X4917696Y-15414811D02*
X4879601Y-15414811D01*
X4879601Y-15414811D02*
X4860553Y-15424335D01*
X4860553Y-15424335D02*
X4851029Y-15433859D01*
X4851029Y-15433859D02*
X4841506Y-15452906D01*
X4841506Y-15452906D02*
X4841506Y-15500525D01*
X4841506Y-15500525D02*
X4851029Y-15519573D01*
X4851029Y-15519573D02*
X4860553Y-15529097D01*
X4860553Y-15529097D02*
X4879601Y-15538621D01*
X4879601Y-15538621D02*
X4917696Y-15538621D01*
X4917696Y-15538621D02*
X4936744Y-15529097D01*
X4936744Y-15529097D02*
X4946268Y-15519573D01*
X4946268Y-15519573D02*
X4955791Y-15500525D01*
X5079601Y-15414811D02*
X5098649Y-15414811D01*
X5098649Y-15414811D02*
X5117696Y-15424335D01*
X5117696Y-15424335D02*
X5127220Y-15433859D01*
X5127220Y-15433859D02*
X5136744Y-15452906D01*
X5136744Y-15452906D02*
X5146268Y-15491002D01*
X5146268Y-15491002D02*
X5146268Y-15538621D01*
X5146268Y-15538621D02*
X5136744Y-15576716D01*
X5136744Y-15576716D02*
X5127220Y-15595764D01*
X5127220Y-15595764D02*
X5117696Y-15605287D01*
X5117696Y-15605287D02*
X5098649Y-15614811D01*
X5098649Y-15614811D02*
X5079601Y-15614811D01*
X5079601Y-15614811D02*
X5060553Y-15605287D01*
X5060553Y-15605287D02*
X5051029Y-15595764D01*
X5051029Y-15595764D02*
X5041506Y-15576716D01*
X5041506Y-15576716D02*
X5031982Y-15538621D01*
X5031982Y-15538621D02*
X5031982Y-15491002D01*
X5031982Y-15491002D02*
X5041506Y-15452906D01*
X5041506Y-15452906D02*
X5051029Y-15433859D01*
X5051029Y-15433859D02*
X5060553Y-15424335D01*
X5060553Y-15424335D02*
X5079601Y-15414811D01*
X5317696Y-15414811D02*
X5279601Y-15414811D01*
X5279601Y-15414811D02*
X5260553Y-15424335D01*
X5260553Y-15424335D02*
X5251029Y-15433859D01*
X5251029Y-15433859D02*
X5231982Y-15462430D01*
X5231982Y-15462430D02*
X5222458Y-15500525D01*
X5222458Y-15500525D02*
X5222458Y-15576716D01*
X5222458Y-15576716D02*
X5231982Y-15595764D01*
X5231982Y-15595764D02*
X5241506Y-15605287D01*
X5241506Y-15605287D02*
X5260553Y-15614811D01*
X5260553Y-15614811D02*
X5298649Y-15614811D01*
X5298649Y-15614811D02*
X5317696Y-15605287D01*
X5317696Y-15605287D02*
X5327220Y-15595764D01*
X5327220Y-15595764D02*
X5336744Y-15576716D01*
X5336744Y-15576716D02*
X5336744Y-15529097D01*
X5336744Y-15529097D02*
X5327220Y-15510049D01*
X5327220Y-15510049D02*
X5317696Y-15500525D01*
X5317696Y-15500525D02*
X5298649Y-15491002D01*
X5298649Y-15491002D02*
X5260553Y-15491002D01*
X5260553Y-15491002D02*
X5241506Y-15500525D01*
X5241506Y-15500525D02*
X5231982Y-15510049D01*
X5231982Y-15510049D02*
X5222458Y-15529097D01*
X5412934Y-15414811D02*
X5412934Y-15452906D01*
X5489125Y-15414811D02*
X5489125Y-15452906D01*
X5784363Y-15691002D02*
X5774839Y-15681478D01*
X5774839Y-15681478D02*
X5755791Y-15652906D01*
X5755791Y-15652906D02*
X5746268Y-15633859D01*
X5746268Y-15633859D02*
X5736744Y-15605287D01*
X5736744Y-15605287D02*
X5727220Y-15557668D01*
X5727220Y-15557668D02*
X5727220Y-15519573D01*
X5727220Y-15519573D02*
X5736744Y-15471954D01*
X5736744Y-15471954D02*
X5746268Y-15443383D01*
X5746268Y-15443383D02*
X5755791Y-15424335D01*
X5755791Y-15424335D02*
X5774839Y-15395764D01*
X5774839Y-15395764D02*
X5784363Y-15386240D01*
X5851029Y-15433859D02*
X5860553Y-15424335D01*
X5860553Y-15424335D02*
X5879601Y-15414811D01*
X5879601Y-15414811D02*
X5927220Y-15414811D01*
X5927220Y-15414811D02*
X5946268Y-15424335D01*
X5946268Y-15424335D02*
X5955791Y-15433859D01*
X5955791Y-15433859D02*
X5965315Y-15452906D01*
X5965315Y-15452906D02*
X5965315Y-15471954D01*
X5965315Y-15471954D02*
X5955791Y-15500525D01*
X5955791Y-15500525D02*
X5841506Y-15614811D01*
X5841506Y-15614811D02*
X5965315Y-15614811D01*
X6203410Y-15614811D02*
X6203410Y-15414811D01*
X6289125Y-15614811D02*
X6289125Y-15510049D01*
X6289125Y-15510049D02*
X6279601Y-15491002D01*
X6279601Y-15491002D02*
X6260553Y-15481478D01*
X6260553Y-15481478D02*
X6231982Y-15481478D01*
X6231982Y-15481478D02*
X6212934Y-15491002D01*
X6212934Y-15491002D02*
X6203410Y-15500525D01*
X6412934Y-15614811D02*
X6393887Y-15605287D01*
X6393887Y-15605287D02*
X6384363Y-15595764D01*
X6384363Y-15595764D02*
X6374839Y-15576716D01*
X6374839Y-15576716D02*
X6374839Y-15519573D01*
X6374839Y-15519573D02*
X6384363Y-15500525D01*
X6384363Y-15500525D02*
X6393887Y-15491002D01*
X6393887Y-15491002D02*
X6412934Y-15481478D01*
X6412934Y-15481478D02*
X6441506Y-15481478D01*
X6441506Y-15481478D02*
X6460553Y-15491002D01*
X6460553Y-15491002D02*
X6470077Y-15500525D01*
X6470077Y-15500525D02*
X6479601Y-15519573D01*
X6479601Y-15519573D02*
X6479601Y-15576716D01*
X6479601Y-15576716D02*
X6470077Y-15595764D01*
X6470077Y-15595764D02*
X6460553Y-15605287D01*
X6460553Y-15605287D02*
X6441506Y-15614811D01*
X6441506Y-15614811D02*
X6412934Y-15614811D01*
X6593887Y-15614811D02*
X6574839Y-15605287D01*
X6574839Y-15605287D02*
X6565315Y-15586240D01*
X6565315Y-15586240D02*
X6565315Y-15414811D01*
X6746268Y-15605287D02*
X6727220Y-15614811D01*
X6727220Y-15614811D02*
X6689125Y-15614811D01*
X6689125Y-15614811D02*
X6670077Y-15605287D01*
X6670077Y-15605287D02*
X6660553Y-15586240D01*
X6660553Y-15586240D02*
X6660553Y-15510049D01*
X6660553Y-15510049D02*
X6670077Y-15491002D01*
X6670077Y-15491002D02*
X6689125Y-15481478D01*
X6689125Y-15481478D02*
X6727220Y-15481478D01*
X6727220Y-15481478D02*
X6746268Y-15491002D01*
X6746268Y-15491002D02*
X6755791Y-15510049D01*
X6755791Y-15510049D02*
X6755791Y-15529097D01*
X6755791Y-15529097D02*
X6660553Y-15548145D01*
X6831982Y-15605287D02*
X6851030Y-15614811D01*
X6851030Y-15614811D02*
X6889125Y-15614811D01*
X6889125Y-15614811D02*
X6908172Y-15605287D01*
X6908172Y-15605287D02*
X6917696Y-15586240D01*
X6917696Y-15586240D02*
X6917696Y-15576716D01*
X6917696Y-15576716D02*
X6908172Y-15557668D01*
X6908172Y-15557668D02*
X6889125Y-15548145D01*
X6889125Y-15548145D02*
X6860553Y-15548145D01*
X6860553Y-15548145D02*
X6841506Y-15538621D01*
X6841506Y-15538621D02*
X6831982Y-15519573D01*
X6831982Y-15519573D02*
X6831982Y-15510049D01*
X6831982Y-15510049D02*
X6841506Y-15491002D01*
X6841506Y-15491002D02*
X6860553Y-15481478D01*
X6860553Y-15481478D02*
X6889125Y-15481478D01*
X6889125Y-15481478D02*
X6908172Y-15491002D01*
X6984363Y-15691002D02*
X6993887Y-15681478D01*
X6993887Y-15681478D02*
X7012934Y-15652906D01*
X7012934Y-15652906D02*
X7022458Y-15633859D01*
X7022458Y-15633859D02*
X7031982Y-15605287D01*
X7031982Y-15605287D02*
X7041506Y-15557668D01*
X7041506Y-15557668D02*
X7041506Y-15519573D01*
X7041506Y-15519573D02*
X7031982Y-15471954D01*
X7031982Y-15471954D02*
X7022458Y-15443383D01*
X7022458Y-15443383D02*
X7012934Y-15424335D01*
X7012934Y-15424335D02*
X6993887Y-15395764D01*
X6993887Y-15395764D02*
X6984363Y-15386240D01*
M02*
