%TF.GenerationSoftware,KiCad,Pcbnew,7.0.1*%
%TF.CreationDate,2023-08-16T18:33:48-07:00*%
%TF.ProjectId,expansionboardA,65787061-6e73-4696-9f6e-626f61726441,3*%
%TF.SameCoordinates,Original*%
%TF.FileFunction,Paste,Top*%
%TF.FilePolarity,Positive*%
%FSLAX46Y46*%
G04 Gerber Fmt 4.6, Leading zero omitted, Abs format (unit mm)*
G04 Created by KiCad (PCBNEW 7.0.1) date 2023-08-16 18:33:48*
%MOMM*%
%LPD*%
G01*
G04 APERTURE LIST*
G04 Aperture macros list*
%AMRoundRect*
0 Rectangle with rounded corners*
0 $1 Rounding radius*
0 $2 $3 $4 $5 $6 $7 $8 $9 X,Y pos of 4 corners*
0 Add a 4 corners polygon primitive as box body*
4,1,4,$2,$3,$4,$5,$6,$7,$8,$9,$2,$3,0*
0 Add four circle primitives for the rounded corners*
1,1,$1+$1,$2,$3*
1,1,$1+$1,$4,$5*
1,1,$1+$1,$6,$7*
1,1,$1+$1,$8,$9*
0 Add four rect primitives between the rounded corners*
20,1,$1+$1,$2,$3,$4,$5,0*
20,1,$1+$1,$4,$5,$6,$7,0*
20,1,$1+$1,$6,$7,$8,$9,0*
20,1,$1+$1,$8,$9,$2,$3,0*%
%AMRotRect*
0 Rectangle, with rotation*
0 The origin of the aperture is its center*
0 $1 length*
0 $2 width*
0 $3 Rotation angle, in degrees counterclockwise*
0 Add horizontal line*
21,1,$1,$2,0,0,$3*%
G04 Aperture macros list end*
%ADD10RoundRect,0.237500X-0.300000X-0.237500X0.300000X-0.237500X0.300000X0.237500X-0.300000X0.237500X0*%
%ADD11RoundRect,0.237500X0.300000X0.237500X-0.300000X0.237500X-0.300000X-0.237500X0.300000X-0.237500X0*%
%ADD12RoundRect,0.237500X0.250000X0.237500X-0.250000X0.237500X-0.250000X-0.237500X0.250000X-0.237500X0*%
%ADD13RoundRect,0.237500X-0.380070X0.044194X0.044194X-0.380070X0.380070X-0.044194X-0.044194X0.380070X0*%
%ADD14RoundRect,0.237500X-0.250000X-0.237500X0.250000X-0.237500X0.250000X0.237500X-0.250000X0.237500X0*%
%ADD15RoundRect,0.237500X0.044194X0.380070X-0.380070X-0.044194X-0.044194X-0.380070X0.380070X0.044194X0*%
%ADD16R,2.200000X2.800000*%
%ADD17R,2.800000X2.800000*%
%ADD18RoundRect,0.237500X-0.237500X0.250000X-0.237500X-0.250000X0.237500X-0.250000X0.237500X0.250000X0*%
%ADD19RotRect,0.270000X1.355601X315.000000*%
%ADD20RotRect,0.270000X1.355601X225.000000*%
%ADD21RoundRect,0.250001X0.462499X0.624999X-0.462499X0.624999X-0.462499X-0.624999X0.462499X-0.624999X0*%
%ADD22RoundRect,0.250001X-0.462499X-0.624999X0.462499X-0.624999X0.462499X0.624999X-0.462499X0.624999X0*%
%ADD23RoundRect,0.038500X-0.666802X0.332340X0.332340X-0.666802X0.666802X-0.332340X-0.332340X0.666802X0*%
%ADD24RoundRect,0.038500X-0.332340X-0.666802X0.666802X0.332340X0.332340X0.666802X-0.666802X-0.332340X0*%
%ADD25RotRect,1.981200X0.558800X45.000000*%
G04 APERTURE END LIST*
D10*
%TO.C,C14*%
X115776500Y-83439000D03*
X117501500Y-83439000D03*
%TD*%
D11*
%TO.C,C15*%
X69671100Y-62484000D03*
X67946100Y-62484000D03*
%TD*%
D12*
%TO.C,R10*%
X121359300Y-113030000D03*
X119534300Y-113030000D03*
%TD*%
D13*
%TO.C,C2*%
X72338920Y-99503422D03*
X73558680Y-100723182D03*
%TD*%
D10*
%TO.C,C13*%
X115853500Y-88265000D03*
X117578500Y-88265000D03*
%TD*%
D11*
%TO.C,C16*%
X69721900Y-55524400D03*
X67996900Y-55524400D03*
%TD*%
D14*
%TO.C,R1*%
X78439000Y-46736000D03*
X80264000Y-46736000D03*
%TD*%
D15*
%TO.C,C4*%
X83159880Y-97488884D03*
X81940120Y-98708644D03*
%TD*%
D16*
%TO.C,AU1*%
X130397000Y-95216000D03*
D17*
X120997000Y-95216000D03*
D16*
X128397000Y-102616000D03*
%TD*%
D18*
%TO.C,R16*%
X63119000Y-44284400D03*
X63119000Y-46109400D03*
%TD*%
D11*
%TO.C,C9*%
X128627500Y-90678000D03*
X126902500Y-90678000D03*
%TD*%
D19*
%TO.C,U7*%
X65746272Y-52030272D03*
X65392720Y-51676719D03*
X65039167Y-51323166D03*
X64685613Y-50969612D03*
X64332060Y-50616059D03*
X63978506Y-50262505D03*
X63624953Y-49908952D03*
X63271400Y-49555400D03*
D20*
X61110762Y-49555400D03*
X60757209Y-49908952D03*
X60403656Y-50262505D03*
X60050102Y-50616059D03*
X59696549Y-50969612D03*
X59342995Y-51323166D03*
X58989442Y-51676719D03*
X58635890Y-52030272D03*
D19*
X58635890Y-54190910D03*
X58989442Y-54544463D03*
X59342995Y-54898016D03*
X59696549Y-55251570D03*
X60050102Y-55605123D03*
X60403656Y-55958677D03*
X60757209Y-56312230D03*
X61110762Y-56665782D03*
D20*
X63271400Y-56665782D03*
X63624953Y-56312230D03*
X63978506Y-55958677D03*
X64332060Y-55605123D03*
X64685613Y-55251570D03*
X65039167Y-54898016D03*
X65392720Y-54544463D03*
X65746272Y-54190910D03*
%TD*%
D12*
%TO.C,R2*%
X87526500Y-106680000D03*
X85701500Y-106680000D03*
%TD*%
D14*
%TO.C,R6*%
X121666000Y-47498000D03*
X123491000Y-47498000D03*
%TD*%
D12*
%TO.C,R9*%
X121296300Y-115570000D03*
X119471300Y-115570000D03*
%TD*%
D21*
%TO.C,D4*%
X130991000Y-50038000D03*
X128016000Y-50038000D03*
%TD*%
D14*
%TO.C,R13*%
X122304000Y-83439000D03*
X124129000Y-83439000D03*
%TD*%
%TO.C,R4*%
X121666000Y-52578000D03*
X123491000Y-52578000D03*
%TD*%
D21*
%TO.C,D5*%
X130991000Y-47449834D03*
X128016000Y-47449834D03*
%TD*%
D18*
%TO.C,R17*%
X61264800Y-44276000D03*
X61264800Y-46101000D03*
%TD*%
D14*
%TO.C,R3*%
X121666000Y-55118000D03*
X123491000Y-55118000D03*
%TD*%
%TO.C,R11*%
X117581500Y-90678000D03*
X119406500Y-90678000D03*
%TD*%
%TO.C,R5*%
X121666000Y-50038000D03*
X123491000Y-50038000D03*
%TD*%
D21*
%TO.C,D2*%
X130991000Y-55118000D03*
X128016000Y-55118000D03*
%TD*%
D10*
%TO.C,C8*%
X126799000Y-85852000D03*
X128524000Y-85852000D03*
%TD*%
D15*
%TO.C,C3*%
X88454051Y-102670764D03*
X87234291Y-103890524D03*
%TD*%
D14*
%TO.C,R7*%
X126772500Y-83439000D03*
X128597500Y-83439000D03*
%TD*%
D22*
%TO.C,D1*%
X77252500Y-43180000D03*
X80227500Y-43180000D03*
%TD*%
D14*
%TO.C,R12*%
X122280500Y-88265000D03*
X124105500Y-88265000D03*
%TD*%
D11*
%TO.C,C18*%
X69545200Y-50571400D03*
X67820200Y-50571400D03*
%TD*%
%TO.C,C1*%
X86460500Y-109220000D03*
X84735500Y-109220000D03*
%TD*%
D23*
%TO.C,U1*%
X76490842Y-101452617D03*
X75925156Y-102018302D03*
X75359471Y-102583988D03*
X74793785Y-103149673D03*
X74228100Y-103715358D03*
X73662415Y-104281044D03*
X73096729Y-104846729D03*
X72531044Y-105412415D03*
D24*
X72531044Y-107349887D03*
X73096729Y-107915573D03*
X73662415Y-108481258D03*
X74228100Y-109046944D03*
X74793785Y-109612629D03*
X75359471Y-110178314D03*
X75925156Y-110744000D03*
X76490842Y-111309685D03*
D23*
X78428314Y-111309685D03*
X78994000Y-110744000D03*
X79559685Y-110178314D03*
X80125371Y-109612629D03*
X80691056Y-109046944D03*
X81256741Y-108481258D03*
X81822427Y-107915573D03*
X82388112Y-107349887D03*
D24*
X82388112Y-105412415D03*
X81822427Y-104846729D03*
X81256741Y-104281044D03*
X80691056Y-103715358D03*
X80125371Y-103149673D03*
X79559685Y-102583988D03*
X78994000Y-102018302D03*
X78428314Y-101452617D03*
%TD*%
D21*
%TO.C,D3*%
X130991000Y-52578000D03*
X128016000Y-52578000D03*
%TD*%
D14*
%TO.C,R14*%
X117454500Y-85852000D03*
X119279500Y-85852000D03*
%TD*%
D25*
%TO.C,U5*%
X31521166Y-73762476D03*
X32419191Y-74660502D03*
X33317217Y-75558527D03*
X34215243Y-76456553D03*
X35113268Y-77354578D03*
X36011294Y-78252604D03*
X36909319Y-79150630D03*
X37807345Y-80048655D03*
X41148000Y-76708000D03*
X40249975Y-75809974D03*
X39351949Y-74911949D03*
X38453923Y-74013923D03*
X37555898Y-73115898D03*
X36657872Y-72217872D03*
X35759847Y-71319846D03*
X34861821Y-70421821D03*
%TD*%
D14*
%TO.C,R8*%
X126852500Y-88265000D03*
X128677500Y-88265000D03*
%TD*%
D10*
%TO.C,C17*%
X54763500Y-61493400D03*
X56488500Y-61493400D03*
%TD*%
M02*
