%TF.GenerationSoftware,KiCad,Pcbnew,7.0.8*%
%TF.CreationDate,2023-11-17T18:43:48-08:00*%
%TF.ProjectId,expansionboardA,65787061-6e73-4696-9f6e-626f61726441,3*%
%TF.SameCoordinates,Original*%
%TF.FileFunction,Profile,NP*%
%FSLAX46Y46*%
G04 Gerber Fmt 4.6, Leading zero omitted, Abs format (unit mm)*
G04 Created by KiCad (PCBNEW 7.0.8) date 2023-11-17 18:43:48*
%MOMM*%
%LPD*%
G01*
G04 APERTURE LIST*
%TA.AperFunction,Profile*%
%ADD10C,0.010000*%
%TD*%
G04 APERTURE END LIST*
D10*
X22098005Y-122447590D02*
G75*
G03*
X22381526Y-123474098I1999995J-10D01*
G01*
X153095993Y-82147115D02*
G75*
G03*
X152912359Y-80949034I-4000693J-85D01*
G01*
X22298000Y-62357000D02*
G75*
G03*
X22098000Y-62557000I0J-200000D01*
G01*
X24134295Y-124508275D02*
X149096000Y-124508000D01*
X24247010Y-40740009D02*
G75*
G03*
X22951823Y-41216031I-10J-1999991D01*
G01*
X22381526Y-123474098D02*
X22417818Y-123534783D01*
X153096000Y-44738427D02*
G75*
G03*
X149096000Y-40738400I-4000000J27D01*
G01*
X22298000Y-51054000D02*
X22387000Y-51054000D01*
X22098000Y-50854000D02*
G75*
G03*
X22298000Y-51054000I200000J0D01*
G01*
X153096000Y-120508000D02*
X153096000Y-82147115D01*
X24247010Y-40739982D02*
X149096000Y-40738400D01*
X22387000Y-62357000D02*
G75*
G03*
X22987000Y-61757000I0J600000D01*
G01*
X22987000Y-51654000D02*
X22987000Y-61757000D01*
X22417793Y-123534798D02*
G75*
G03*
X24134295Y-124508275I1716507J1026598D01*
G01*
X22987000Y-51654000D02*
G75*
G03*
X22387000Y-51054000I-600000J0D01*
G01*
X152942163Y-59466534D02*
G75*
G03*
X153096000Y-58367925I-3846063J1098634D01*
G01*
X149096000Y-124508000D02*
G75*
G03*
X153096000Y-120508000I0J4000000D01*
G01*
X22099793Y-42864675D02*
X22098000Y-50854000D01*
X153096000Y-58367925D02*
X153096000Y-44738427D01*
X152452000Y-61182600D02*
X152942173Y-59466537D01*
X22298000Y-62357000D02*
X22387000Y-62357000D01*
X22098000Y-62557000D02*
X22098000Y-122447590D01*
X22804579Y-41341174D02*
X22951823Y-41216031D01*
X152912360Y-80949034D02*
X152452000Y-79482600D01*
X22804589Y-41341186D02*
G75*
G03*
X22099793Y-42864675I1295111J-1523914D01*
G01*
%TO.C,J3*%
X152450000Y-78090000D02*
X152450000Y-79490000D01*
X152450000Y-78090000D02*
X146150000Y-78090000D01*
X146150000Y-77090000D02*
X146150000Y-63590000D01*
X146150000Y-62590000D02*
X152450000Y-62590000D01*
X152450000Y-62590000D02*
X152450000Y-61190000D01*
X146150000Y-77090000D02*
G75*
G03*
X146150000Y-78090000I0J-500000D01*
G01*
X146150000Y-62590000D02*
G75*
G03*
X146150000Y-63590000I0J-500000D01*
G01*
%TD*%
M02*
