%TF.GenerationSoftware,KiCad,Pcbnew,7.0.8*%
%TF.CreationDate,2023-11-22T19:36:53-08:00*%
%TF.ProjectId,expansionboardA,65787061-6e73-4696-9f6e-626f61726441,3*%
%TF.SameCoordinates,Original*%
%TF.FileFunction,Paste,Top*%
%TF.FilePolarity,Positive*%
%FSLAX46Y46*%
G04 Gerber Fmt 4.6, Leading zero omitted, Abs format (unit mm)*
G04 Created by KiCad (PCBNEW 7.0.8) date 2023-11-22 19:36:53*
%MOMM*%
%LPD*%
G01*
G04 APERTURE LIST*
G04 Aperture macros list*
%AMRoundRect*
0 Rectangle with rounded corners*
0 $1 Rounding radius*
0 $2 $3 $4 $5 $6 $7 $8 $9 X,Y pos of 4 corners*
0 Add a 4 corners polygon primitive as box body*
4,1,4,$2,$3,$4,$5,$6,$7,$8,$9,$2,$3,0*
0 Add four circle primitives for the rounded corners*
1,1,$1+$1,$2,$3*
1,1,$1+$1,$4,$5*
1,1,$1+$1,$6,$7*
1,1,$1+$1,$8,$9*
0 Add four rect primitives between the rounded corners*
20,1,$1+$1,$2,$3,$4,$5,0*
20,1,$1+$1,$4,$5,$6,$7,0*
20,1,$1+$1,$6,$7,$8,$9,0*
20,1,$1+$1,$8,$9,$2,$3,0*%
%AMRotRect*
0 Rectangle, with rotation*
0 The origin of the aperture is its center*
0 $1 length*
0 $2 width*
0 $3 Rotation angle, in degrees counterclockwise*
0 Add horizontal line*
21,1,$1,$2,0,0,$3*%
G04 Aperture macros list end*
%ADD10C,0.100000*%
%ADD11RoundRect,0.237500X-0.237500X0.300000X-0.237500X-0.300000X0.237500X-0.300000X0.237500X0.300000X0*%
%ADD12RoundRect,0.237500X-0.300000X-0.237500X0.300000X-0.237500X0.300000X0.237500X-0.300000X0.237500X0*%
%ADD13RoundRect,0.237500X0.250000X0.237500X-0.250000X0.237500X-0.250000X-0.237500X0.250000X-0.237500X0*%
%ADD14RoundRect,0.237500X0.300000X0.237500X-0.300000X0.237500X-0.300000X-0.237500X0.300000X-0.237500X0*%
%ADD15R,2.200000X2.800000*%
%ADD16R,2.800000X2.800000*%
%ADD17RoundRect,0.237500X-0.344715X0.008839X0.008839X-0.344715X0.344715X-0.008839X-0.008839X0.344715X0*%
%ADD18R,0.270000X1.355601*%
%ADD19R,1.355601X0.270000*%
%ADD20RoundRect,0.237500X-0.250000X-0.237500X0.250000X-0.237500X0.250000X0.237500X-0.250000X0.237500X0*%
%ADD21RoundRect,0.237500X0.237500X-0.250000X0.237500X0.250000X-0.237500X0.250000X-0.237500X-0.250000X0*%
%ADD22RotRect,1.200000X1.400000X135.000000*%
%ADD23RoundRect,0.237500X-0.237500X0.250000X-0.237500X-0.250000X0.237500X-0.250000X0.237500X0.250000X0*%
%ADD24RotRect,1.200000X1.400000X315.000000*%
%ADD25RoundRect,0.038500X-0.236500X0.706500X-0.236500X-0.706500X0.236500X-0.706500X0.236500X0.706500X0*%
%ADD26RoundRect,0.038500X-0.706500X-0.236500X0.706500X-0.236500X0.706500X0.236500X-0.706500X0.236500X0*%
G04 APERTURE END LIST*
D10*
X117350000Y-68600000D02*
X117800000Y-68600000D01*
X117800000Y-68800000D01*
X117350000Y-68800000D01*
X117350000Y-68600000D01*
G36*
X117350000Y-68600000D02*
G01*
X117800000Y-68600000D01*
X117800000Y-68800000D01*
X117350000Y-68800000D01*
X117350000Y-68600000D01*
G37*
X120000000Y-69900000D02*
X120450000Y-69900000D01*
X120450000Y-70100000D01*
X120000000Y-70100000D01*
X120000000Y-69900000D01*
G36*
X120000000Y-69900000D02*
G01*
X120450000Y-69900000D01*
X120450000Y-70100000D01*
X120000000Y-70100000D01*
X120000000Y-69900000D01*
G37*
X116600000Y-72800000D02*
X117050000Y-72800000D01*
X117050000Y-73000000D01*
X116600000Y-73000000D01*
X116600000Y-72800000D01*
G36*
X116600000Y-72800000D02*
G01*
X117050000Y-72800000D01*
X117050000Y-73000000D01*
X116600000Y-73000000D01*
X116600000Y-72800000D01*
G37*
X120750000Y-72400000D02*
X121200000Y-72400000D01*
X121200000Y-72600000D01*
X120750000Y-72600000D01*
X120750000Y-72400000D01*
G36*
X120750000Y-72400000D02*
G01*
X121200000Y-72400000D01*
X121200000Y-72600000D01*
X120750000Y-72600000D01*
X120750000Y-72400000D01*
G37*
X117350000Y-72800000D02*
X117800000Y-72800000D01*
X117800000Y-73000000D01*
X117350000Y-73000000D01*
X117350000Y-72800000D01*
G36*
X117350000Y-72800000D02*
G01*
X117800000Y-72800000D01*
X117800000Y-73000000D01*
X117350000Y-73000000D01*
X117350000Y-72800000D01*
G37*
X116600000Y-71300000D02*
X117050000Y-71300000D01*
X117050000Y-71500000D01*
X116600000Y-71500000D01*
X116600000Y-71300000D01*
G36*
X116600000Y-71300000D02*
G01*
X117050000Y-71300000D01*
X117050000Y-71500000D01*
X116600000Y-71500000D01*
X116600000Y-71300000D01*
G37*
X120000000Y-68200000D02*
X120450000Y-68200000D01*
X120450000Y-68400000D01*
X120000000Y-68400000D01*
X120000000Y-68200000D01*
G36*
X120000000Y-68200000D02*
G01*
X120450000Y-68200000D01*
X120450000Y-68400000D01*
X120000000Y-68400000D01*
X120000000Y-68200000D01*
G37*
X117350000Y-70300000D02*
X117800000Y-70300000D01*
X117800000Y-70500000D01*
X117350000Y-70500000D01*
X117350000Y-70300000D01*
G36*
X117350000Y-70300000D02*
G01*
X117800000Y-70300000D01*
X117800000Y-70500000D01*
X117350000Y-70500000D01*
X117350000Y-70300000D01*
G37*
X120750000Y-69900000D02*
X121200000Y-69900000D01*
X121200000Y-70100000D01*
X120750000Y-70100000D01*
X120750000Y-69900000D01*
G36*
X120750000Y-69900000D02*
G01*
X121200000Y-69900000D01*
X121200000Y-70100000D01*
X120750000Y-70100000D01*
X120750000Y-69900000D01*
G37*
X117350000Y-71300000D02*
X117800000Y-71300000D01*
X117800000Y-71500000D01*
X117350000Y-71500000D01*
X117350000Y-71300000D01*
G36*
X117350000Y-71300000D02*
G01*
X117800000Y-71300000D01*
X117800000Y-71500000D01*
X117350000Y-71500000D01*
X117350000Y-71300000D01*
G37*
X120000000Y-70900000D02*
X120450000Y-70900000D01*
X120450000Y-71100000D01*
X120000000Y-71100000D01*
X120000000Y-70900000D01*
G36*
X120000000Y-70900000D02*
G01*
X120450000Y-70900000D01*
X120450000Y-71100000D01*
X120000000Y-71100000D01*
X120000000Y-70900000D01*
G37*
X116600000Y-68600000D02*
X117050000Y-68600000D01*
X117050000Y-68800000D01*
X116600000Y-68800000D01*
X116600000Y-68600000D01*
G36*
X116600000Y-68600000D02*
G01*
X117050000Y-68600000D01*
X117050000Y-68800000D01*
X116600000Y-68800000D01*
X116600000Y-68600000D01*
G37*
X116600000Y-70300000D02*
X117050000Y-70300000D01*
X117050000Y-70500000D01*
X116600000Y-70500000D01*
X116600000Y-70300000D01*
G36*
X116600000Y-70300000D02*
G01*
X117050000Y-70300000D01*
X117050000Y-70500000D01*
X116600000Y-70500000D01*
X116600000Y-70300000D01*
G37*
X120750000Y-70900000D02*
X121200000Y-70900000D01*
X121200000Y-71100000D01*
X120750000Y-71100000D01*
X120750000Y-70900000D01*
G36*
X120750000Y-70900000D02*
G01*
X121200000Y-70900000D01*
X121200000Y-71100000D01*
X120750000Y-71100000D01*
X120750000Y-70900000D01*
G37*
X120000000Y-72400000D02*
X120450000Y-72400000D01*
X120450000Y-72600000D01*
X120000000Y-72600000D01*
X120000000Y-72400000D01*
G36*
X120000000Y-72400000D02*
G01*
X120450000Y-72400000D01*
X120450000Y-72600000D01*
X120000000Y-72600000D01*
X120000000Y-72400000D01*
G37*
X120750000Y-68200000D02*
X121200000Y-68200000D01*
X121200000Y-68400000D01*
X120750000Y-68400000D01*
X120750000Y-68200000D01*
G36*
X120750000Y-68200000D02*
G01*
X121200000Y-68200000D01*
X121200000Y-68400000D01*
X120750000Y-68400000D01*
X120750000Y-68200000D01*
G37*
D11*
%TO.C,C14*%
X124516667Y-102100000D03*
X124516667Y-100375000D03*
%TD*%
D12*
%TO.C,C15*%
X85714800Y-46129400D03*
X87439800Y-46129400D03*
%TD*%
D13*
%TO.C,R10*%
X141391700Y-109712000D03*
X139566700Y-109712000D03*
%TD*%
D11*
%TO.C,C2*%
X67183000Y-101754600D03*
X67183000Y-103479600D03*
%TD*%
D12*
%TO.C,C13*%
X134125000Y-96261111D03*
X135850000Y-96261111D03*
%TD*%
%TO.C,C16*%
X85664000Y-53089000D03*
X87389000Y-53089000D03*
%TD*%
D14*
%TO.C,C4*%
X75666600Y-108432600D03*
X73941600Y-108432600D03*
%TD*%
D15*
%TO.C,AU1*%
X150397000Y-95216000D03*
D16*
X140997000Y-95216000D03*
D15*
X148397000Y-102616000D03*
%TD*%
D17*
%TO.C,R16*%
X63154765Y-58054765D03*
X64445235Y-59345235D03*
%TD*%
D14*
%TO.C,C9*%
X135850000Y-89927778D03*
X134125000Y-89927778D03*
%TD*%
D18*
%TO.C,U7*%
X93300002Y-58755602D03*
X93800001Y-58755602D03*
X94300000Y-58755602D03*
X94800001Y-58755602D03*
X95300001Y-58755602D03*
X95800002Y-58755602D03*
X96300001Y-58755602D03*
X96800000Y-58755602D03*
D19*
X98327802Y-57227800D03*
X98327802Y-56727801D03*
X98327802Y-56227802D03*
X98327802Y-55727801D03*
X98327802Y-55227801D03*
X98327802Y-54727800D03*
X98327802Y-54227801D03*
X98327802Y-53727802D03*
D18*
X96800000Y-52200000D03*
X96300001Y-52200000D03*
X95800002Y-52200000D03*
X95300001Y-52200000D03*
X94800001Y-52200000D03*
X94300000Y-52200000D03*
X93800001Y-52200000D03*
X93300002Y-52200000D03*
D19*
X91772200Y-53727802D03*
X91772200Y-54227801D03*
X91772200Y-54727800D03*
X91772200Y-55227801D03*
X91772200Y-55727801D03*
X91772200Y-56227802D03*
X91772200Y-56727801D03*
X91772200Y-57227800D03*
%TD*%
D20*
%TO.C,R2*%
X69396600Y-117043200D03*
X71221600Y-117043200D03*
%TD*%
D13*
%TO.C,R9*%
X141328700Y-112252000D03*
X139503700Y-112252000D03*
%TD*%
D21*
%TO.C,R13*%
X126627778Y-102150000D03*
X126627778Y-100325000D03*
%TD*%
D22*
%TO.C,Y1*%
X78600000Y-113400000D03*
X80155635Y-111844365D03*
X79024264Y-110712994D03*
X77468629Y-112268629D03*
%TD*%
D17*
%TO.C,R17*%
X64654765Y-56754765D03*
X65945235Y-58045235D03*
%TD*%
D13*
%TO.C,R11*%
X135900000Y-98372222D03*
X134075000Y-98372222D03*
%TD*%
D11*
%TO.C,C8*%
X130850000Y-100375000D03*
X130850000Y-102100000D03*
%TD*%
D14*
%TO.C,C3*%
X75641200Y-116052600D03*
X73916200Y-116052600D03*
%TD*%
D23*
%TO.C,R7*%
X128738889Y-102150000D03*
X128738889Y-100325000D03*
%TD*%
D24*
%TO.C,Y2*%
X83842200Y-48356400D03*
X82286565Y-49912035D03*
X83417936Y-51043406D03*
X84973571Y-49487771D03*
%TD*%
D13*
%TO.C,R12*%
X135900000Y-94150000D03*
X134075000Y-94150000D03*
%TD*%
D11*
%TO.C,C18*%
X92852200Y-47882000D03*
X92852200Y-49607000D03*
%TD*%
D14*
%TO.C,C1*%
X75614700Y-118364000D03*
X73889700Y-118364000D03*
%TD*%
D25*
%TO.C,U1*%
X68770200Y-106146600D03*
X67970200Y-106146600D03*
X67170200Y-106146600D03*
X66370200Y-106146600D03*
X65570200Y-106146600D03*
X64770200Y-106146600D03*
X63970200Y-106146600D03*
X63170200Y-106146600D03*
D26*
X61800200Y-107516600D03*
X61800200Y-108316600D03*
X61800200Y-109116600D03*
X61800200Y-109916600D03*
X61800200Y-110716600D03*
X61800200Y-111516600D03*
X61800200Y-112316600D03*
X61800200Y-113116600D03*
D25*
X63170200Y-114486600D03*
X63970200Y-114486600D03*
X64770200Y-114486600D03*
X65570200Y-114486600D03*
X66370200Y-114486600D03*
X67170200Y-114486600D03*
X67970200Y-114486600D03*
X68770200Y-114486600D03*
D26*
X70140200Y-113116600D03*
X70140200Y-112316600D03*
X70140200Y-111516600D03*
X70140200Y-110716600D03*
X70140200Y-109916600D03*
X70140200Y-109116600D03*
X70140200Y-108316600D03*
X70140200Y-107516600D03*
%TD*%
D21*
%TO.C,R14*%
X122405555Y-100325000D03*
X122405555Y-102150000D03*
%TD*%
D20*
%TO.C,R8*%
X134075000Y-92038889D03*
X135900000Y-92038889D03*
%TD*%
M02*
