%TF.GenerationSoftware,KiCad,Pcbnew,7.0.8*%
%TF.CreationDate,2023-11-10T01:37:46-08:00*%
%TF.ProjectId,expansionboardA,65787061-6e73-4696-9f6e-626f61726441,3*%
%TF.SameCoordinates,Original*%
%TF.FileFunction,Soldermask,Bot*%
%TF.FilePolarity,Negative*%
%FSLAX46Y46*%
G04 Gerber Fmt 4.6, Leading zero omitted, Abs format (unit mm)*
G04 Created by KiCad (PCBNEW 7.0.8) date 2023-11-10 01:37:46*
%MOMM*%
%LPD*%
G01*
G04 APERTURE LIST*
G04 Aperture macros list*
%AMRoundRect*
0 Rectangle with rounded corners*
0 $1 Rounding radius*
0 $2 $3 $4 $5 $6 $7 $8 $9 X,Y pos of 4 corners*
0 Add a 4 corners polygon primitive as box body*
4,1,4,$2,$3,$4,$5,$6,$7,$8,$9,$2,$3,0*
0 Add four circle primitives for the rounded corners*
1,1,$1+$1,$2,$3*
1,1,$1+$1,$4,$5*
1,1,$1+$1,$6,$7*
1,1,$1+$1,$8,$9*
0 Add four rect primitives between the rounded corners*
20,1,$1+$1,$2,$3,$4,$5,0*
20,1,$1+$1,$4,$5,$6,$7,0*
20,1,$1+$1,$6,$7,$8,$9,0*
20,1,$1+$1,$8,$9,$2,$3,0*%
%AMFreePoly0*
4,1,19,0.550000,-0.750000,0.000000,-0.750000,0.000000,-0.744911,-0.071157,-0.744911,-0.207708,-0.704816,-0.327430,-0.627875,-0.420627,-0.520320,-0.479746,-0.390866,-0.500000,-0.250000,-0.500000,0.250000,-0.479746,0.390866,-0.420627,0.520320,-0.327430,0.627875,-0.207708,0.704816,-0.071157,0.744911,0.000000,0.744911,0.000000,0.750000,0.550000,0.750000,0.550000,-0.750000,0.550000,-0.750000,
$1*%
%AMFreePoly1*
4,1,19,0.000000,0.744911,0.071157,0.744911,0.207708,0.704816,0.327430,0.627875,0.420627,0.520320,0.479746,0.390866,0.500000,0.250000,0.500000,-0.250000,0.479746,-0.390866,0.420627,-0.520320,0.327430,-0.627875,0.207708,-0.704816,0.071157,-0.744911,0.000000,-0.744911,0.000000,-0.750000,-0.550000,-0.750000,-0.550000,0.750000,0.000000,0.750000,0.000000,0.744911,0.000000,0.744911,
$1*%
G04 Aperture macros list end*
%ADD10C,1.498000*%
%ADD11C,1.950000*%
%ADD12C,1.700000*%
%ADD13C,1.000000*%
%ADD14R,0.800000X0.800000*%
%ADD15C,0.800000*%
%ADD16O,2.800000X1.700000*%
%ADD17R,1.600000X1.500000*%
%ADD18C,1.600000*%
%ADD19C,3.000000*%
%ADD20R,1.700000X1.700000*%
%ADD21O,1.700000X1.700000*%
%ADD22RoundRect,0.237500X0.250000X0.237500X-0.250000X0.237500X-0.250000X-0.237500X0.250000X-0.237500X0*%
%ADD23R,2.150000X0.950000*%
%ADD24R,2.150000X3.250000*%
%ADD25RoundRect,0.113600X-0.133400X0.793400X-0.133400X-0.793400X0.133400X-0.793400X0.133400X0.793400X0*%
%ADD26RoundRect,0.113600X0.793400X0.133400X-0.793400X0.133400X-0.793400X-0.133400X0.793400X-0.133400X0*%
%ADD27RoundRect,0.250000X0.550000X-1.050000X0.550000X1.050000X-0.550000X1.050000X-0.550000X-1.050000X0*%
%ADD28RoundRect,0.237500X-0.300000X-0.237500X0.300000X-0.237500X0.300000X0.237500X-0.300000X0.237500X0*%
%ADD29RoundRect,0.250000X-0.550000X1.050000X-0.550000X-1.050000X0.550000X-1.050000X0.550000X1.050000X0*%
%ADD30RoundRect,0.237500X-0.250000X-0.237500X0.250000X-0.237500X0.250000X0.237500X-0.250000X0.237500X0*%
%ADD31R,1.308100X0.304800*%
%ADD32RoundRect,0.237500X0.237500X-0.250000X0.237500X0.250000X-0.237500X0.250000X-0.237500X-0.250000X0*%
%ADD33RoundRect,0.250001X-0.624999X0.462499X-0.624999X-0.462499X0.624999X-0.462499X0.624999X0.462499X0*%
%ADD34FreePoly0,90.000000*%
%ADD35R,1.500000X1.000000*%
%ADD36FreePoly1,90.000000*%
%ADD37R,1.200000X0.700000*%
%ADD38R,1.200000X1.000000*%
%ADD39R,2.800000X1.000000*%
%ADD40R,1.900000X1.300000*%
%ADD41R,0.800000X1.000000*%
%ADD42RoundRect,0.250000X-0.337500X-0.475000X0.337500X-0.475000X0.337500X0.475000X-0.337500X0.475000X0*%
%ADD43FreePoly0,180.000000*%
%ADD44R,1.000000X1.500000*%
%ADD45FreePoly1,180.000000*%
%ADD46RoundRect,0.250001X0.462499X0.624999X-0.462499X0.624999X-0.462499X-0.624999X0.462499X-0.624999X0*%
%ADD47R,3.000000X2.000000*%
%ADD48C,0.650000*%
%ADD49O,1.700000X0.900000*%
%ADD50O,2.400000X0.900000*%
%ADD51RoundRect,0.237500X0.300000X0.237500X-0.300000X0.237500X-0.300000X-0.237500X0.300000X-0.237500X0*%
G04 APERTURE END LIST*
D10*
%TO.C,RESETN1*%
X149350000Y-49377500D03*
X144850000Y-49377500D03*
D11*
X150605000Y-51867500D03*
X143595000Y-51867500D03*
%TD*%
D12*
%TO.C,AU1*%
X149297000Y-98916000D03*
X142297000Y-98916000D03*
%TD*%
D13*
%TO.C,Y1*%
X73950371Y-113591410D03*
X73950371Y-111051410D03*
%TD*%
D14*
%TO.C,J3*%
X144920000Y-74840000D03*
D15*
X143370000Y-74340000D03*
X144920000Y-73840000D03*
X143370000Y-73340000D03*
X144920000Y-72840000D03*
X143370000Y-72340000D03*
X144920000Y-71840000D03*
X143370000Y-71340000D03*
X144920000Y-70840000D03*
X143370000Y-70340000D03*
X144920000Y-69840000D03*
X143370000Y-69340000D03*
X144920000Y-68840000D03*
X143370000Y-68340000D03*
X144920000Y-67840000D03*
X143370000Y-67340000D03*
X144920000Y-66840000D03*
X143370000Y-66340000D03*
X144920000Y-65840000D03*
D16*
X143200000Y-61190000D03*
X143200000Y-79490000D03*
X150300000Y-79490000D03*
X150300000Y-61190000D03*
%TD*%
D17*
%TO.C,J2*%
X85719800Y-52731000D03*
D18*
X83219800Y-52731000D03*
X81219800Y-52731000D03*
X78719800Y-52731000D03*
D19*
X88789800Y-50021000D03*
X75649800Y-50021000D03*
%TD*%
D20*
%TO.C,J4*%
X138724600Y-44196000D03*
D21*
X136184600Y-44196000D03*
%TD*%
D13*
%TO.C,Y2*%
X74566900Y-65578200D03*
X74566900Y-68118200D03*
%TD*%
D22*
%TO.C,R23*%
X115625000Y-61675000D03*
X113800000Y-61675000D03*
%TD*%
%TO.C,R1*%
X64340064Y-92125800D03*
X62515064Y-92125800D03*
%TD*%
D23*
%TO.C,VR1*%
X57734200Y-96494600D03*
X57734200Y-98794600D03*
X57734200Y-101094600D03*
D24*
X51934200Y-98794600D03*
%TD*%
D25*
%TO.C,U3*%
X118900000Y-65100000D03*
X119400000Y-65100000D03*
X119900000Y-65100000D03*
X120400000Y-65100000D03*
X120900000Y-65100000D03*
X121400000Y-65100000D03*
X121900000Y-65100000D03*
X122400000Y-65100000D03*
X122900000Y-65100000D03*
X123400000Y-65100000D03*
X123900000Y-65100000D03*
X124400000Y-65100000D03*
X124900000Y-65100000D03*
X125400000Y-65100000D03*
X125900000Y-65100000D03*
X126400000Y-65100000D03*
D26*
X128250000Y-66950000D03*
X128250000Y-67450000D03*
X128250000Y-67950000D03*
X128250000Y-68450000D03*
X128250000Y-68950000D03*
X128250000Y-69450000D03*
X128250000Y-69950000D03*
X128250000Y-70450000D03*
X128250000Y-70950000D03*
X128250000Y-71450000D03*
X128250000Y-71950000D03*
X128250000Y-72450000D03*
X128250000Y-72950000D03*
X128250000Y-73450000D03*
X128250000Y-73950000D03*
X128250000Y-74450000D03*
D25*
X126400000Y-76300000D03*
X125900000Y-76300000D03*
X125400000Y-76300000D03*
X124900000Y-76300000D03*
X124400000Y-76300000D03*
X123900000Y-76300000D03*
X123400000Y-76300000D03*
X122900000Y-76300000D03*
X122400000Y-76300000D03*
X121900000Y-76300000D03*
X121400000Y-76300000D03*
X120900000Y-76300000D03*
X120400000Y-76300000D03*
X119900000Y-76300000D03*
X119400000Y-76300000D03*
X118900000Y-76300000D03*
D26*
X117050000Y-74450000D03*
X117050000Y-73950000D03*
X117050000Y-73450000D03*
X117050000Y-72950000D03*
X117050000Y-72450000D03*
X117050000Y-71950000D03*
X117050000Y-71450000D03*
X117050000Y-70950000D03*
X117050000Y-70450000D03*
X117050000Y-69950000D03*
X117050000Y-69450000D03*
X117050000Y-68950000D03*
X117050000Y-68450000D03*
X117050000Y-67950000D03*
X117050000Y-67450000D03*
X117050000Y-66950000D03*
%TD*%
D27*
%TO.C,C5*%
X141285000Y-108375000D03*
X141285000Y-104775000D03*
%TD*%
D28*
%TO.C,C12*%
X62130600Y-72288400D03*
X63855600Y-72288400D03*
%TD*%
D29*
%TO.C,C20*%
X70281800Y-43840400D03*
X70281800Y-47440400D03*
%TD*%
D20*
%TO.C,J5*%
X37020000Y-69950000D03*
D21*
X37020000Y-72490000D03*
X37020000Y-75030000D03*
X37020000Y-77570000D03*
%TD*%
D30*
%TO.C,R20*%
X131000000Y-59100000D03*
X132825000Y-59100000D03*
%TD*%
%TO.C,R19*%
X131000000Y-61075000D03*
X132825000Y-61075000D03*
%TD*%
D31*
%TO.C,U6*%
X56541500Y-77520800D03*
X56541500Y-77012800D03*
X56541500Y-76504800D03*
X56541500Y-75996800D03*
X56541500Y-75488800D03*
X60846800Y-75488800D03*
X60846800Y-75996800D03*
X60846800Y-76504800D03*
X60846800Y-77012800D03*
X60846800Y-77520800D03*
%TD*%
D20*
%TO.C,U2*%
X48220000Y-121920000D03*
D21*
X45680000Y-121920000D03*
X48220000Y-119380000D03*
X45680000Y-119380000D03*
X48220000Y-116840000D03*
X45680000Y-116840000D03*
X48220000Y-114300000D03*
X45680000Y-114300000D03*
X48220000Y-111760000D03*
X45680000Y-111760000D03*
X48220000Y-109220000D03*
X45680000Y-109220000D03*
X48220000Y-106680000D03*
X45680000Y-106680000D03*
X48220000Y-104140000D03*
X45680000Y-104140000D03*
X48220000Y-101600000D03*
X45680000Y-101600000D03*
X48220000Y-99060000D03*
X45680000Y-99060000D03*
X48220000Y-96520000D03*
X45680000Y-96520000D03*
X48220000Y-93980000D03*
X45680000Y-93980000D03*
X48220000Y-91440000D03*
X45680000Y-91440000D03*
X48220000Y-88900000D03*
X45680000Y-88900000D03*
X48220000Y-86360000D03*
X45680000Y-86360000D03*
X48220000Y-83820000D03*
X45680000Y-83820000D03*
X48220000Y-81280000D03*
X45680000Y-81280000D03*
X48220000Y-78740000D03*
X45680000Y-78740000D03*
X48220000Y-76200000D03*
X45680000Y-76200000D03*
X48220000Y-73660000D03*
X45680000Y-73660000D03*
X48220000Y-71120000D03*
X45680000Y-71120000D03*
X48220000Y-68580000D03*
X45680000Y-68580000D03*
X48220000Y-66040000D03*
X45680000Y-66040000D03*
X48220000Y-63500000D03*
X45680000Y-63500000D03*
X48220000Y-60960000D03*
X45680000Y-60960000D03*
X48220000Y-58420000D03*
X45680000Y-58420000D03*
X48220000Y-55880000D03*
X45680000Y-55880000D03*
X48220000Y-53340000D03*
X45680000Y-53340000D03*
X48220000Y-50800000D03*
X45680000Y-50800000D03*
X48220000Y-48260000D03*
X45680000Y-48260000D03*
X48220000Y-45720000D03*
X45680000Y-45720000D03*
X48220000Y-43180000D03*
X45680000Y-43180000D03*
%TD*%
D20*
%TO.C,U4*%
X109220000Y-121920000D03*
D21*
X106680000Y-121920000D03*
X109220000Y-119380000D03*
X106680000Y-119380000D03*
X109220000Y-116840000D03*
X106680000Y-116840000D03*
X109220000Y-111760000D03*
X106680000Y-111760000D03*
X109220000Y-109220000D03*
X106680000Y-109220000D03*
X109220000Y-106680000D03*
X106680000Y-106680000D03*
X109220000Y-104140000D03*
X106680000Y-104140000D03*
X109220000Y-101600000D03*
X106680000Y-101600000D03*
X109220000Y-99060000D03*
X106680000Y-99060000D03*
X109220000Y-96520000D03*
X106680000Y-96520000D03*
X109220000Y-93980000D03*
X106680000Y-93980000D03*
X109220000Y-91440000D03*
X106680000Y-91440000D03*
X109220000Y-88900000D03*
X106680000Y-88900000D03*
X109220000Y-86360000D03*
X106680000Y-86360000D03*
X109220000Y-83820000D03*
X106680000Y-83820000D03*
X109220000Y-81280000D03*
X106680000Y-81280000D03*
X109220000Y-78740000D03*
X106680000Y-78740000D03*
X109220000Y-76200000D03*
X106680000Y-76200000D03*
X109220000Y-73660000D03*
X106680000Y-73660000D03*
X109220000Y-71120000D03*
X106680000Y-71120000D03*
X109220000Y-68580000D03*
X106680000Y-68580000D03*
X109220000Y-66040000D03*
X106680000Y-66040000D03*
X109220000Y-63500000D03*
X106680000Y-63500000D03*
X109220000Y-60960000D03*
X106680000Y-60960000D03*
X109220000Y-58420000D03*
X106680000Y-58420000D03*
X109220000Y-55880000D03*
X106680000Y-55880000D03*
X109220000Y-53340000D03*
X106680000Y-53340000D03*
X109220000Y-50800000D03*
X106680000Y-50800000D03*
X109220000Y-48260000D03*
X106680000Y-48260000D03*
X109220000Y-45720000D03*
X106680000Y-45720000D03*
X109220000Y-43180000D03*
X106680000Y-43180000D03*
%TD*%
D32*
%TO.C,R6*%
X64340834Y-55118000D03*
X64340834Y-53293000D03*
%TD*%
D33*
%TO.C,D4*%
X61800834Y-45793000D03*
X61800834Y-48768000D03*
%TD*%
D34*
%TO.C,JP2*%
X126225000Y-58575000D03*
D35*
X126225000Y-57275000D03*
D36*
X126225000Y-55975000D03*
%TD*%
D30*
%TO.C,R15*%
X131000000Y-57125000D03*
X132825000Y-57125000D03*
%TD*%
D37*
%TO.C,CRD1*%
X38671200Y-53492000D03*
X38671200Y-54592000D03*
X38671200Y-55692000D03*
X38671200Y-56792000D03*
X38671200Y-57892000D03*
X38671200Y-58992000D03*
X38671200Y-60092000D03*
X38671200Y-61192000D03*
D38*
X34371200Y-63092000D03*
D39*
X24021200Y-63092000D03*
D40*
X23571200Y-49592000D03*
D38*
X38671200Y-51942000D03*
D41*
X28171200Y-63092000D03*
D37*
X38671200Y-62142000D03*
%TD*%
D30*
%TO.C,R21*%
X131912500Y-83450000D03*
X133737500Y-83450000D03*
%TD*%
D42*
%TO.C,C6*%
X61954500Y-98667600D03*
X64029500Y-98667600D03*
%TD*%
D32*
%TO.C,R4*%
X59260834Y-55118000D03*
X59260834Y-53293000D03*
%TD*%
D33*
%TO.C,D5*%
X64389000Y-45793000D03*
X64389000Y-48768000D03*
%TD*%
D32*
%TO.C,R3*%
X56720834Y-55118000D03*
X56720834Y-53293000D03*
%TD*%
D43*
%TO.C,JP5*%
X129737500Y-83450000D03*
D44*
X128437500Y-83450000D03*
D45*
X127137500Y-83450000D03*
%TD*%
D32*
%TO.C,R5*%
X61800834Y-55118000D03*
X61800834Y-53293000D03*
%TD*%
D28*
%TO.C,C11*%
X54764600Y-69494400D03*
X56489600Y-69494400D03*
%TD*%
D33*
%TO.C,D2*%
X56720834Y-45793000D03*
X56720834Y-48768000D03*
%TD*%
D22*
%TO.C,R18*%
X132825000Y-55150000D03*
X131000000Y-55150000D03*
%TD*%
D28*
%TO.C,C10*%
X54713800Y-72898000D03*
X56438800Y-72898000D03*
%TD*%
D46*
%TO.C,D1*%
X65526564Y-88569800D03*
X62551564Y-88569800D03*
%TD*%
D47*
%TO.C,LSRIGHT1*%
X150498000Y-92555000D03*
X150498000Y-82705000D03*
%TD*%
D42*
%TO.C,C7*%
X61954500Y-101715600D03*
X64029500Y-101715600D03*
%TD*%
D34*
%TO.C,JP4*%
X119325000Y-58575000D03*
D35*
X119325000Y-57275000D03*
D36*
X119325000Y-55975000D03*
%TD*%
D34*
%TO.C,JP3*%
X122775000Y-58575000D03*
D35*
X122775000Y-57275000D03*
D36*
X122775000Y-55975000D03*
%TD*%
D33*
%TO.C,D3*%
X59260834Y-45793000D03*
X59260834Y-48768000D03*
%TD*%
D30*
%TO.C,R24*%
X133437500Y-66575000D03*
X135262500Y-66575000D03*
%TD*%
%TO.C,R22*%
X131012500Y-53175000D03*
X132837500Y-53175000D03*
%TD*%
D48*
%TO.C,J1*%
X146932600Y-111318000D03*
X146932600Y-112168000D03*
X146932600Y-113018000D03*
X146932600Y-113868000D03*
X146932600Y-114718000D03*
X146932600Y-115568000D03*
X146932600Y-116418000D03*
X146932600Y-117268000D03*
X148282600Y-117268000D03*
X148282600Y-116418000D03*
X148282600Y-115568000D03*
X148282600Y-114718000D03*
X148282600Y-113868000D03*
X148282600Y-113018000D03*
X148282600Y-112168000D03*
X148282600Y-111318000D03*
D49*
X151292600Y-109968000D03*
X151292600Y-118618000D03*
D50*
X147912600Y-109968000D03*
X147912600Y-118618000D03*
%TD*%
D51*
%TO.C,C17*%
X63727500Y-95605600D03*
X62002500Y-95605600D03*
%TD*%
M02*
