%TF.GenerationSoftware,KiCad,Pcbnew,7.0.8*%
%TF.CreationDate,2023-11-17T18:43:47-08:00*%
%TF.ProjectId,expansionboardA,65787061-6e73-4696-9f6e-626f61726441,3*%
%TF.SameCoordinates,Original*%
%TF.FileFunction,Paste,Top*%
%TF.FilePolarity,Positive*%
%FSLAX46Y46*%
G04 Gerber Fmt 4.6, Leading zero omitted, Abs format (unit mm)*
G04 Created by KiCad (PCBNEW 7.0.8) date 2023-11-17 18:43:47*
%MOMM*%
%LPD*%
G01*
G04 APERTURE LIST*
G04 Aperture macros list*
%AMRoundRect*
0 Rectangle with rounded corners*
0 $1 Rounding radius*
0 $2 $3 $4 $5 $6 $7 $8 $9 X,Y pos of 4 corners*
0 Add a 4 corners polygon primitive as box body*
4,1,4,$2,$3,$4,$5,$6,$7,$8,$9,$2,$3,0*
0 Add four circle primitives for the rounded corners*
1,1,$1+$1,$2,$3*
1,1,$1+$1,$4,$5*
1,1,$1+$1,$6,$7*
1,1,$1+$1,$8,$9*
0 Add four rect primitives between the rounded corners*
20,1,$1+$1,$2,$3,$4,$5,0*
20,1,$1+$1,$4,$5,$6,$7,0*
20,1,$1+$1,$6,$7,$8,$9,0*
20,1,$1+$1,$8,$9,$2,$3,0*%
%AMRotRect*
0 Rectangle, with rotation*
0 The origin of the aperture is its center*
0 $1 length*
0 $2 width*
0 $3 Rotation angle, in degrees counterclockwise*
0 Add horizontal line*
21,1,$1,$2,0,0,$3*%
G04 Aperture macros list end*
%ADD10RoundRect,0.237500X-0.300000X-0.237500X0.300000X-0.237500X0.300000X0.237500X-0.300000X0.237500X0*%
%ADD11RoundRect,0.237500X0.250000X0.237500X-0.250000X0.237500X-0.250000X-0.237500X0.250000X-0.237500X0*%
%ADD12RoundRect,0.237500X-0.237500X0.300000X-0.237500X-0.300000X0.237500X-0.300000X0.237500X0.300000X0*%
%ADD13RoundRect,0.237500X0.300000X0.237500X-0.300000X0.237500X-0.300000X-0.237500X0.300000X-0.237500X0*%
%ADD14R,2.200000X2.800000*%
%ADD15R,2.800000X2.800000*%
%ADD16RoundRect,0.237500X-0.237500X0.250000X-0.237500X-0.250000X0.237500X-0.250000X0.237500X0.250000X0*%
%ADD17R,0.270000X1.355601*%
%ADD18R,1.355601X0.270000*%
%ADD19RoundRect,0.237500X-0.250000X-0.237500X0.250000X-0.237500X0.250000X0.237500X-0.250000X0.237500X0*%
%ADD20RotRect,1.200000X1.400000X135.000000*%
%ADD21RotRect,1.200000X1.400000X315.000000*%
%ADD22RoundRect,0.038500X-0.236500X0.706500X-0.236500X-0.706500X0.236500X-0.706500X0.236500X0.706500X0*%
%ADD23RoundRect,0.038500X-0.706500X-0.236500X0.706500X-0.236500X0.706500X0.236500X-0.706500X0.236500X0*%
G04 APERTURE END LIST*
D10*
%TO.C,C14*%
X135776500Y-83439000D03*
X137501500Y-83439000D03*
%TD*%
%TO.C,C15*%
X72872600Y-63373000D03*
X74597600Y-63373000D03*
%TD*%
D11*
%TO.C,R10*%
X141359300Y-113030000D03*
X139534300Y-113030000D03*
%TD*%
D12*
%TO.C,C2*%
X67183000Y-101754600D03*
X67183000Y-103479600D03*
%TD*%
D10*
%TO.C,C13*%
X135853500Y-88265000D03*
X137578500Y-88265000D03*
%TD*%
%TO.C,C16*%
X72821800Y-70332600D03*
X74546800Y-70332600D03*
%TD*%
D13*
%TO.C,C4*%
X75666600Y-108432600D03*
X73941600Y-108432600D03*
%TD*%
D14*
%TO.C,AU1*%
X150397000Y-95216000D03*
D15*
X140997000Y-95216000D03*
D14*
X148397000Y-102616000D03*
%TD*%
D16*
%TO.C,R16*%
X81203800Y-58341900D03*
X81203800Y-60166900D03*
%TD*%
D13*
%TO.C,C9*%
X148627500Y-90678000D03*
X146902500Y-90678000D03*
%TD*%
D17*
%TO.C,U7*%
X80457802Y-75999202D03*
X80957801Y-75999202D03*
X81457800Y-75999202D03*
X81957801Y-75999202D03*
X82457801Y-75999202D03*
X82957802Y-75999202D03*
X83457801Y-75999202D03*
X83957800Y-75999202D03*
D18*
X85485602Y-74471400D03*
X85485602Y-73971401D03*
X85485602Y-73471402D03*
X85485602Y-72971401D03*
X85485602Y-72471401D03*
X85485602Y-71971400D03*
X85485602Y-71471401D03*
X85485602Y-70971402D03*
D17*
X83957800Y-69443600D03*
X83457801Y-69443600D03*
X82957802Y-69443600D03*
X82457801Y-69443600D03*
X81957801Y-69443600D03*
X81457800Y-69443600D03*
X80957801Y-69443600D03*
X80457802Y-69443600D03*
D18*
X78930000Y-70971402D03*
X78930000Y-71471401D03*
X78930000Y-71971400D03*
X78930000Y-72471401D03*
X78930000Y-72971401D03*
X78930000Y-73471402D03*
X78930000Y-73971401D03*
X78930000Y-74471400D03*
%TD*%
D19*
%TO.C,R2*%
X69396600Y-117043200D03*
X71221600Y-117043200D03*
%TD*%
D11*
%TO.C,R9*%
X141296300Y-115570000D03*
X139471300Y-115570000D03*
%TD*%
D19*
%TO.C,R13*%
X142304000Y-83439000D03*
X144129000Y-83439000D03*
%TD*%
D20*
%TO.C,Y1*%
X78600000Y-113400000D03*
X80155635Y-111844365D03*
X79024264Y-110712994D03*
X77468629Y-112268629D03*
%TD*%
D16*
%TO.C,R17*%
X83185000Y-58320300D03*
X83185000Y-60145300D03*
%TD*%
D19*
%TO.C,R11*%
X137581500Y-90678000D03*
X139406500Y-90678000D03*
%TD*%
D10*
%TO.C,C8*%
X146799000Y-85852000D03*
X148524000Y-85852000D03*
%TD*%
D13*
%TO.C,C3*%
X75641200Y-116052600D03*
X73916200Y-116052600D03*
%TD*%
D19*
%TO.C,R7*%
X146772500Y-83439000D03*
X148597500Y-83439000D03*
%TD*%
D21*
%TO.C,Y2*%
X71000000Y-65600000D03*
X69444365Y-67155635D03*
X70575736Y-68287006D03*
X72131371Y-66731371D03*
%TD*%
D19*
%TO.C,R12*%
X142280500Y-88265000D03*
X144105500Y-88265000D03*
%TD*%
D12*
%TO.C,C18*%
X80010000Y-65125600D03*
X80010000Y-66850600D03*
%TD*%
D13*
%TO.C,C1*%
X75614700Y-118364000D03*
X73889700Y-118364000D03*
%TD*%
D22*
%TO.C,U1*%
X68770200Y-106146600D03*
X67970200Y-106146600D03*
X67170200Y-106146600D03*
X66370200Y-106146600D03*
X65570200Y-106146600D03*
X64770200Y-106146600D03*
X63970200Y-106146600D03*
X63170200Y-106146600D03*
D23*
X61800200Y-107516600D03*
X61800200Y-108316600D03*
X61800200Y-109116600D03*
X61800200Y-109916600D03*
X61800200Y-110716600D03*
X61800200Y-111516600D03*
X61800200Y-112316600D03*
X61800200Y-113116600D03*
D22*
X63170200Y-114486600D03*
X63970200Y-114486600D03*
X64770200Y-114486600D03*
X65570200Y-114486600D03*
X66370200Y-114486600D03*
X67170200Y-114486600D03*
X67970200Y-114486600D03*
X68770200Y-114486600D03*
D23*
X70140200Y-113116600D03*
X70140200Y-112316600D03*
X70140200Y-111516600D03*
X70140200Y-110716600D03*
X70140200Y-109916600D03*
X70140200Y-109116600D03*
X70140200Y-108316600D03*
X70140200Y-107516600D03*
%TD*%
D19*
%TO.C,R14*%
X137454500Y-85852000D03*
X139279500Y-85852000D03*
%TD*%
%TO.C,R8*%
X146852500Y-88265000D03*
X148677500Y-88265000D03*
%TD*%
M02*
