%TF.GenerationSoftware,KiCad,Pcbnew,8.0.7*%
%TF.CreationDate,2025-01-13T22:25:20-08:00*%
%TF.ProjectId,expansionboardA,65787061-6e73-4696-9f6e-626f61726441,3*%
%TF.SameCoordinates,Original*%
%TF.FileFunction,Legend,Top*%
%TF.FilePolarity,Positive*%
%FSLAX46Y46*%
G04 Gerber Fmt 4.6, Leading zero omitted, Abs format (unit mm)*
G04 Created by KiCad (PCBNEW 8.0.7) date 2025-01-13 22:25:20*
%MOMM*%
%LPD*%
G01*
G04 APERTURE LIST*
%ADD10C,0.150000*%
%ADD11C,0.200000*%
%ADD12C,0.120000*%
G04 APERTURE END LIST*
D10*
G36*
X138208002Y-122024912D02*
G01*
X138224854Y-121986566D01*
X138263933Y-121970446D01*
X138786613Y-121970446D01*
X138841792Y-121974805D01*
X138893209Y-121987884D01*
X138940862Y-122009681D01*
X138984751Y-122040196D01*
X139008141Y-122061549D01*
X139043544Y-122103122D01*
X139070251Y-122148343D01*
X139088263Y-122197209D01*
X139097580Y-122249722D01*
X139099000Y-122281367D01*
X139094542Y-122335650D01*
X139081170Y-122386636D01*
X139058883Y-122434324D01*
X139027681Y-122478715D01*
X138989823Y-122498988D01*
X138949279Y-122485798D01*
X138929006Y-122447941D01*
X138942196Y-122407397D01*
X138970325Y-122364028D01*
X138985472Y-122315989D01*
X138988357Y-122281367D01*
X138982609Y-122232085D01*
X138963008Y-122183218D01*
X138933116Y-122143653D01*
X138929495Y-122139951D01*
X138890096Y-122108910D01*
X138841083Y-122088043D01*
X138791366Y-122081146D01*
X138786124Y-122081088D01*
X138318644Y-122081088D01*
X138318644Y-122330216D01*
X138302035Y-122369295D01*
X138263445Y-122385903D01*
X138224610Y-122369295D01*
X138208002Y-122330216D01*
X138208002Y-122024912D01*
G37*
G36*
X138208002Y-121176168D02*
G01*
X138224610Y-121135868D01*
X138263445Y-121119748D01*
X138302035Y-121136357D01*
X138318644Y-121177634D01*
X138318644Y-121384263D01*
X139042824Y-121384263D01*
X139082879Y-121400383D01*
X139099000Y-121439706D01*
X139082879Y-121478785D01*
X139042824Y-121494905D01*
X138318644Y-121494905D01*
X138318644Y-121690300D01*
X138302035Y-121729378D01*
X138263445Y-121745010D01*
X138224610Y-121728890D01*
X138208002Y-121688834D01*
X138208002Y-121176168D01*
G37*
G36*
X138284694Y-120839846D02*
G01*
X138251765Y-120801095D01*
X138226925Y-120759002D01*
X138208439Y-120706803D01*
X138200929Y-120657547D01*
X138200186Y-120635415D01*
X138204230Y-120584631D01*
X138216361Y-120537214D01*
X138240129Y-120487144D01*
X138269591Y-120446939D01*
X138284694Y-120430739D01*
X138323361Y-120397716D01*
X138365417Y-120372803D01*
X138417632Y-120354263D01*
X138466951Y-120346732D01*
X138489125Y-120345987D01*
X139043312Y-120345987D01*
X139082879Y-120362107D01*
X139099000Y-120401430D01*
X139082879Y-120440509D01*
X139043068Y-120456629D01*
X138488148Y-120456629D01*
X138435804Y-120464013D01*
X138389779Y-120486167D01*
X138362607Y-120509141D01*
X138331054Y-120551479D01*
X138314064Y-120599725D01*
X138310828Y-120635170D01*
X138318041Y-120687354D01*
X138339679Y-120733631D01*
X138362119Y-120761200D01*
X138403529Y-120793199D01*
X138451191Y-120810430D01*
X138486438Y-120813712D01*
X138739474Y-120813712D01*
X138739474Y-120613433D01*
X138755594Y-120573621D01*
X138794673Y-120557501D01*
X138833996Y-120573621D01*
X138850116Y-120613433D01*
X138850116Y-120813712D01*
X139042091Y-120813712D01*
X139082635Y-120829832D01*
X139099000Y-120869155D01*
X139082879Y-120908478D01*
X139043312Y-120924354D01*
X138489125Y-120924354D01*
X138438353Y-120920310D01*
X138390971Y-120908179D01*
X138340970Y-120884411D01*
X138300850Y-120854948D01*
X138284694Y-120839846D01*
G37*
G36*
X138318644Y-119755652D02*
G01*
X138323559Y-119809202D01*
X138338305Y-119858722D01*
X138362882Y-119904213D01*
X138397290Y-119945673D01*
X138438536Y-119980081D01*
X138483630Y-120004657D01*
X138532570Y-120019404D01*
X138585357Y-120024319D01*
X138720179Y-120024319D01*
X138773607Y-120019388D01*
X138823005Y-120004596D01*
X138868373Y-119979943D01*
X138909711Y-119945429D01*
X138944119Y-119903968D01*
X138968696Y-119858478D01*
X138983442Y-119808958D01*
X138988357Y-119755408D01*
X138988357Y-119620341D01*
X138709432Y-119620341D01*
X138709432Y-119744417D01*
X138693556Y-119783740D01*
X138654966Y-119800593D01*
X138615399Y-119783740D01*
X138598790Y-119744417D01*
X138598790Y-119566119D01*
X138615643Y-119525819D01*
X138654722Y-119509699D01*
X139043312Y-119509699D01*
X139082879Y-119525819D01*
X139099000Y-119566119D01*
X139099000Y-119755652D01*
X139095110Y-119813014D01*
X139083440Y-119867130D01*
X139063992Y-119918000D01*
X139036763Y-119965624D01*
X139001756Y-120010003D01*
X138988357Y-120024075D01*
X138945244Y-120061759D01*
X138898884Y-120091646D01*
X138849279Y-120113737D01*
X138796428Y-120128031D01*
X138740332Y-120134528D01*
X138720912Y-120134961D01*
X138586090Y-120134961D01*
X138529383Y-120131063D01*
X138475768Y-120119368D01*
X138425244Y-120099876D01*
X138377811Y-120072588D01*
X138333470Y-120037502D01*
X138319376Y-120024075D01*
X138281526Y-119980778D01*
X138251507Y-119934235D01*
X138229319Y-119884447D01*
X138214963Y-119831413D01*
X138208437Y-119775133D01*
X138208002Y-119755652D01*
X138208002Y-119566119D01*
X138224610Y-119525819D01*
X138263445Y-119509699D01*
X138302035Y-119526064D01*
X138318644Y-119566119D01*
X138318644Y-119755652D01*
G37*
G36*
X138988357Y-118761339D02*
G01*
X139004966Y-118721039D01*
X139044533Y-118704675D01*
X139083124Y-118720795D01*
X139099000Y-118761095D01*
X139099000Y-119273761D01*
X139083124Y-119313817D01*
X139044533Y-119329937D01*
X139004966Y-119313817D01*
X138988357Y-119274005D01*
X138988357Y-119048569D01*
X138401930Y-119048569D01*
X138535043Y-119181437D01*
X138551896Y-119221493D01*
X138535043Y-119260572D01*
X138495231Y-119276692D01*
X138456641Y-119261304D01*
X138228274Y-119033182D01*
X138226076Y-119030495D01*
X138225343Y-119027564D01*
X138215573Y-119014863D01*
X138215573Y-118971632D01*
X138225343Y-118958932D01*
X138226076Y-118956978D01*
X138228274Y-118954780D01*
X138229739Y-118952581D01*
X138230960Y-118951849D01*
X138246348Y-118942079D01*
X138267353Y-118937927D01*
X138988357Y-118937927D01*
X138988357Y-118761339D01*
G37*
X77143136Y-122300283D02*
X77143136Y-123014568D01*
X77143136Y-123014568D02*
X77095517Y-123157425D01*
X77095517Y-123157425D02*
X77000279Y-123252664D01*
X77000279Y-123252664D02*
X76857422Y-123300283D01*
X76857422Y-123300283D02*
X76762184Y-123300283D01*
X78143136Y-123300283D02*
X77571708Y-123300283D01*
X77857422Y-123300283D02*
X77857422Y-122300283D01*
X77857422Y-122300283D02*
X77762184Y-122443140D01*
X77762184Y-122443140D02*
X77666946Y-122538378D01*
X77666946Y-122538378D02*
X77571708Y-122585997D01*
D11*
G36*
X50819190Y-121443541D02*
G01*
X50864398Y-121424021D01*
X50866085Y-121424002D01*
X50911751Y-121442339D01*
X50912980Y-121443541D01*
X50932744Y-121489421D01*
X50932763Y-121491168D01*
X50932763Y-122011650D01*
X50928392Y-122065996D01*
X50915279Y-122116837D01*
X50893424Y-122164170D01*
X50862826Y-122207998D01*
X50841417Y-122231468D01*
X50799606Y-122267062D01*
X50754102Y-122293913D01*
X50704904Y-122312021D01*
X50652014Y-122321388D01*
X50620133Y-122322815D01*
X50565132Y-122318444D01*
X50513824Y-122305331D01*
X50466209Y-122283475D01*
X50422288Y-122252878D01*
X50398848Y-122231468D01*
X50363255Y-122189644D01*
X50336404Y-122144314D01*
X50318296Y-122095477D01*
X50308929Y-122043134D01*
X50307502Y-122011650D01*
X50307502Y-121491168D01*
X50325839Y-121444771D01*
X50327041Y-121443541D01*
X50372234Y-121424021D01*
X50373936Y-121424002D01*
X50419846Y-121442339D01*
X50421075Y-121443541D01*
X50440595Y-121489421D01*
X50440614Y-121491168D01*
X50440614Y-122011406D01*
X50448033Y-122063853D01*
X50470290Y-122110187D01*
X50493370Y-122137679D01*
X50532151Y-122167437D01*
X50580185Y-122185813D01*
X50620133Y-122189947D01*
X50672649Y-122182597D01*
X50719188Y-122160546D01*
X50746895Y-122137679D01*
X50779043Y-122095421D01*
X50796354Y-122047050D01*
X50799651Y-122011406D01*
X50799651Y-121491168D01*
X50817988Y-121444771D01*
X50819190Y-121443541D01*
G37*
G36*
X51737788Y-121761057D02*
G01*
X51718004Y-121806730D01*
X51341382Y-122182131D01*
X51670377Y-122182131D01*
X51716760Y-122200698D01*
X51718004Y-122201915D01*
X51737768Y-122247108D01*
X51737788Y-122248810D01*
X51719221Y-122294231D01*
X51718004Y-122295460D01*
X51672353Y-122314980D01*
X51670621Y-122315000D01*
X51181891Y-122315000D01*
X51144033Y-122303764D01*
X51120342Y-122274455D01*
X51118073Y-122224261D01*
X51134264Y-122201915D01*
X51604675Y-121731992D01*
X51604675Y-121697065D01*
X51596167Y-121646716D01*
X51570642Y-121603379D01*
X51560223Y-121592285D01*
X51518175Y-121562732D01*
X51469395Y-121549729D01*
X51454222Y-121549054D01*
X51414654Y-121549054D01*
X51364852Y-121555923D01*
X51317566Y-121578869D01*
X51294976Y-121597903D01*
X51264911Y-121637287D01*
X51247999Y-121686154D01*
X51245638Y-121715139D01*
X51227301Y-121761537D01*
X51226099Y-121762766D01*
X51180677Y-121782287D01*
X51178960Y-121782306D01*
X51133294Y-121764198D01*
X51132066Y-121763011D01*
X51112545Y-121717130D01*
X51112526Y-121715383D01*
X51116757Y-121662937D01*
X51129449Y-121613950D01*
X51150604Y-121568423D01*
X51180220Y-121526355D01*
X51200942Y-121503869D01*
X51241461Y-121469703D01*
X51285439Y-121443929D01*
X51332876Y-121426547D01*
X51383773Y-121417556D01*
X51414410Y-121416186D01*
X51453978Y-121416186D01*
X51503906Y-121420160D01*
X51556846Y-121434432D01*
X51605389Y-121459086D01*
X51644258Y-121489172D01*
X51654745Y-121499228D01*
X51687103Y-121537126D01*
X51714351Y-121584272D01*
X51731219Y-121635510D01*
X51737707Y-121690838D01*
X51737788Y-121698042D01*
X51737788Y-121761057D01*
G37*
G36*
X112369190Y-121443541D02*
G01*
X112414398Y-121424021D01*
X112416085Y-121424002D01*
X112461751Y-121442339D01*
X112462980Y-121443541D01*
X112482744Y-121489421D01*
X112482763Y-121491168D01*
X112482763Y-122011650D01*
X112478392Y-122065996D01*
X112465279Y-122116837D01*
X112443424Y-122164170D01*
X112412826Y-122207998D01*
X112391417Y-122231468D01*
X112349606Y-122267062D01*
X112304102Y-122293913D01*
X112254904Y-122312021D01*
X112202014Y-122321388D01*
X112170133Y-122322815D01*
X112115132Y-122318444D01*
X112063824Y-122305331D01*
X112016209Y-122283475D01*
X111972288Y-122252878D01*
X111948848Y-122231468D01*
X111913255Y-122189644D01*
X111886404Y-122144314D01*
X111868296Y-122095477D01*
X111858929Y-122043134D01*
X111857502Y-122011650D01*
X111857502Y-121491168D01*
X111875839Y-121444771D01*
X111877041Y-121443541D01*
X111922234Y-121424021D01*
X111923936Y-121424002D01*
X111969846Y-121442339D01*
X111971075Y-121443541D01*
X111990595Y-121489421D01*
X111990614Y-121491168D01*
X111990614Y-122011406D01*
X111998033Y-122063853D01*
X112020290Y-122110187D01*
X112043370Y-122137679D01*
X112082151Y-122167437D01*
X112130185Y-122185813D01*
X112170133Y-122189947D01*
X112222649Y-122182597D01*
X112269188Y-122160546D01*
X112296895Y-122137679D01*
X112329043Y-122095421D01*
X112346354Y-122047050D01*
X112349651Y-122011406D01*
X112349651Y-121491168D01*
X112367988Y-121444771D01*
X112369190Y-121443541D01*
G37*
G36*
X113197906Y-121443785D02*
G01*
X113217671Y-121489895D01*
X113217690Y-121491657D01*
X113217690Y-121939842D01*
X113264673Y-121957016D01*
X113267271Y-121959382D01*
X113287768Y-122004574D01*
X113287788Y-122006277D01*
X113268534Y-122051942D01*
X113267271Y-122053171D01*
X113221290Y-122072634D01*
X113217690Y-122072711D01*
X113217690Y-122248321D01*
X113199124Y-122294475D01*
X113197906Y-122295704D01*
X113152714Y-122314981D01*
X113151012Y-122315000D01*
X113105346Y-122296891D01*
X113104117Y-122295704D01*
X113084597Y-122250053D01*
X113084578Y-122248321D01*
X113084578Y-122072711D01*
X112728960Y-122072711D01*
X112705269Y-122068558D01*
X112698186Y-122064162D01*
X112694522Y-122062941D01*
X112689881Y-122060010D01*
X112688416Y-122058545D01*
X112685485Y-122055614D01*
X112677181Y-122045844D01*
X112670098Y-122036074D01*
X112665945Y-122024595D01*
X112663259Y-122010673D01*
X112662526Y-122008719D01*
X112661793Y-122005788D01*
X112662526Y-122002124D01*
X112663259Y-121999193D01*
X112665213Y-121986004D01*
X112671563Y-121972327D01*
X112672296Y-121970373D01*
X112674494Y-121966953D01*
X112693526Y-121939842D01*
X112857676Y-121939842D01*
X113084578Y-121939842D01*
X113084578Y-121617686D01*
X112857676Y-121939842D01*
X112693526Y-121939842D01*
X113036950Y-121450624D01*
X113039637Y-121449403D01*
X113041103Y-121447937D01*
X113051605Y-121438900D01*
X113061375Y-121431817D01*
X113073343Y-121426688D01*
X113086043Y-121424002D01*
X113088730Y-121424002D01*
X113091661Y-121424002D01*
X113151745Y-121424002D01*
X113197906Y-121443785D01*
G37*
D12*
%TO.C,JTAG1*%
X121570000Y-119270000D02*
X121570000Y-121930000D01*
X134330000Y-119270000D02*
X121570000Y-119270000D01*
X134330000Y-119270000D02*
X134330000Y-121930000D01*
X134330000Y-121930000D02*
X121570000Y-121930000D01*
X135600000Y-119270000D02*
X136930000Y-119270000D01*
X136930000Y-119270000D02*
X136930000Y-120600000D01*
D11*
%TO.C,J1*%
X74781470Y-120905464D02*
X74781470Y-121585464D01*
X74781470Y-124145464D02*
X74781470Y-124495464D01*
X74781470Y-124495464D02*
X83721470Y-124495464D01*
X83721470Y-120905464D02*
X83721470Y-121585464D01*
X83721470Y-124495464D02*
X83721470Y-124145464D01*
X76376470Y-117055464D02*
G75*
G02*
X76176470Y-117055464I-100000J0D01*
G01*
X76176470Y-117055464D02*
G75*
G02*
X76376470Y-117055464I100000J0D01*
G01*
D12*
%TO.C,U2*%
X44370000Y-120620000D02*
X44370000Y-41820000D01*
X44370000Y-123220000D02*
X44370000Y-121890000D01*
X45700000Y-123220000D02*
X44370000Y-123220000D01*
X46970000Y-120620000D02*
X44370000Y-120620000D01*
X46970000Y-123220000D02*
X46970000Y-120620000D01*
X49570000Y-41820000D02*
X44370000Y-41820000D01*
X49570000Y-123220000D02*
X46970000Y-123220000D01*
X49570000Y-123220000D02*
X49570000Y-41820000D01*
%TO.C,U4*%
X105350000Y-41850000D02*
X105350000Y-123250000D01*
X107950000Y-120650000D02*
X107950000Y-123250000D01*
X107950000Y-123250000D02*
X105350000Y-123250000D01*
X110550000Y-41850000D02*
X105350000Y-41850000D01*
X110550000Y-41850000D02*
X110550000Y-120650000D01*
X110550000Y-120650000D02*
X107950000Y-120650000D01*
%TD*%
M02*
