%TF.GenerationSoftware,KiCad,Pcbnew,8.0.7*%
%TF.CreationDate,2024-12-27T07:43:55-08:00*%
%TF.ProjectId,expansionboardB,65787061-6e73-4696-9f6e-626f61726442,3*%
%TF.SameCoordinates,Original*%
%TF.FileFunction,Legend,Top*%
%TF.FilePolarity,Positive*%
%FSLAX46Y46*%
G04 Gerber Fmt 4.6, Leading zero omitted, Abs format (unit mm)*
G04 Created by KiCad (PCBNEW 8.0.7) date 2024-12-27 07:43:55*
%MOMM*%
%LPD*%
G01*
G04 APERTURE LIST*
%ADD10C,0.200000*%
%ADD11C,0.150000*%
%ADD12C,0.127000*%
G04 APERTURE END LIST*
D10*
G36*
X50819190Y-121443541D02*
G01*
X50864398Y-121424021D01*
X50866085Y-121424002D01*
X50911751Y-121442339D01*
X50912980Y-121443541D01*
X50932744Y-121489421D01*
X50932763Y-121491168D01*
X50932763Y-122011650D01*
X50928392Y-122065996D01*
X50915279Y-122116837D01*
X50893424Y-122164170D01*
X50862826Y-122207998D01*
X50841417Y-122231468D01*
X50799606Y-122267062D01*
X50754102Y-122293913D01*
X50704904Y-122312021D01*
X50652014Y-122321388D01*
X50620133Y-122322815D01*
X50565132Y-122318444D01*
X50513824Y-122305331D01*
X50466209Y-122283475D01*
X50422288Y-122252878D01*
X50398848Y-122231468D01*
X50363255Y-122189644D01*
X50336404Y-122144314D01*
X50318296Y-122095477D01*
X50308929Y-122043134D01*
X50307502Y-122011650D01*
X50307502Y-121491168D01*
X50325839Y-121444771D01*
X50327041Y-121443541D01*
X50372234Y-121424021D01*
X50373936Y-121424002D01*
X50419846Y-121442339D01*
X50421075Y-121443541D01*
X50440595Y-121489421D01*
X50440614Y-121491168D01*
X50440614Y-122011406D01*
X50448033Y-122063853D01*
X50470290Y-122110187D01*
X50493370Y-122137679D01*
X50532151Y-122167437D01*
X50580185Y-122185813D01*
X50620133Y-122189947D01*
X50672649Y-122182597D01*
X50719188Y-122160546D01*
X50746895Y-122137679D01*
X50779043Y-122095421D01*
X50796354Y-122047050D01*
X50799651Y-122011406D01*
X50799651Y-121491168D01*
X50817988Y-121444771D01*
X50819190Y-121443541D01*
G37*
G36*
X51737788Y-121761057D02*
G01*
X51718004Y-121806730D01*
X51341382Y-122182131D01*
X51670377Y-122182131D01*
X51716760Y-122200698D01*
X51718004Y-122201915D01*
X51737768Y-122247108D01*
X51737788Y-122248810D01*
X51719221Y-122294231D01*
X51718004Y-122295460D01*
X51672353Y-122314980D01*
X51670621Y-122315000D01*
X51181891Y-122315000D01*
X51144033Y-122303764D01*
X51120342Y-122274455D01*
X51118073Y-122224261D01*
X51134264Y-122201915D01*
X51604675Y-121731992D01*
X51604675Y-121697065D01*
X51596167Y-121646716D01*
X51570642Y-121603379D01*
X51560223Y-121592285D01*
X51518175Y-121562732D01*
X51469395Y-121549729D01*
X51454222Y-121549054D01*
X51414654Y-121549054D01*
X51364852Y-121555923D01*
X51317566Y-121578869D01*
X51294976Y-121597903D01*
X51264911Y-121637287D01*
X51247999Y-121686154D01*
X51245638Y-121715139D01*
X51227301Y-121761537D01*
X51226099Y-121762766D01*
X51180677Y-121782287D01*
X51178960Y-121782306D01*
X51133294Y-121764198D01*
X51132066Y-121763011D01*
X51112545Y-121717130D01*
X51112526Y-121715383D01*
X51116757Y-121662937D01*
X51129449Y-121613950D01*
X51150604Y-121568423D01*
X51180220Y-121526355D01*
X51200942Y-121503869D01*
X51241461Y-121469703D01*
X51285439Y-121443929D01*
X51332876Y-121426547D01*
X51383773Y-121417556D01*
X51414410Y-121416186D01*
X51453978Y-121416186D01*
X51503906Y-121420160D01*
X51556846Y-121434432D01*
X51605389Y-121459086D01*
X51644258Y-121489172D01*
X51654745Y-121499228D01*
X51687103Y-121537126D01*
X51714351Y-121584272D01*
X51731219Y-121635510D01*
X51737707Y-121690838D01*
X51737788Y-121698042D01*
X51737788Y-121761057D01*
G37*
D11*
X26632819Y-82883333D02*
X27347104Y-82883333D01*
X27347104Y-82883333D02*
X27489961Y-82930952D01*
X27489961Y-82930952D02*
X27585200Y-83026190D01*
X27585200Y-83026190D02*
X27632819Y-83169047D01*
X27632819Y-83169047D02*
X27632819Y-83264285D01*
X27632819Y-81883333D02*
X27632819Y-82454761D01*
X27632819Y-82169047D02*
X26632819Y-82169047D01*
X26632819Y-82169047D02*
X26775676Y-82264285D01*
X26775676Y-82264285D02*
X26870914Y-82359523D01*
X26870914Y-82359523D02*
X26918533Y-82454761D01*
D10*
G36*
X143962107Y-63524002D02*
G01*
X144008514Y-63543541D01*
X144028278Y-63589650D01*
X144028297Y-63591413D01*
X144028297Y-64102613D01*
X144023938Y-64157697D01*
X144010860Y-64209042D01*
X143989063Y-64256646D01*
X143958547Y-64300511D01*
X143937195Y-64323897D01*
X143895537Y-64359395D01*
X143850280Y-64386174D01*
X143801424Y-64404234D01*
X143748967Y-64413576D01*
X143717376Y-64415000D01*
X143667444Y-64411244D01*
X143614226Y-64398042D01*
X143564138Y-64375335D01*
X143532484Y-64354916D01*
X143506139Y-64312636D01*
X143505862Y-64310952D01*
X143517530Y-64262765D01*
X143518562Y-64261371D01*
X143560842Y-64235026D01*
X143562526Y-64234748D01*
X143610942Y-64246187D01*
X143612352Y-64247205D01*
X143655174Y-64271080D01*
X143706451Y-64281824D01*
X143717376Y-64282131D01*
X143769114Y-64274747D01*
X143815150Y-64252593D01*
X143842673Y-64229619D01*
X143872570Y-64190781D01*
X143891031Y-64142552D01*
X143895185Y-64102369D01*
X143895185Y-63656870D01*
X143681717Y-63656870D01*
X143634860Y-63638762D01*
X143633601Y-63637575D01*
X143613836Y-63592153D01*
X143613817Y-63590436D01*
X143632384Y-63544755D01*
X143633601Y-63543541D01*
X143679725Y-63524021D01*
X143681472Y-63524002D01*
X143962107Y-63524002D01*
G37*
G36*
X144895848Y-63782655D02*
G01*
X144890505Y-63836984D01*
X144874477Y-63886885D01*
X144847762Y-63932360D01*
X144810363Y-63973408D01*
X144847762Y-64013693D01*
X144874477Y-64058344D01*
X144890505Y-64107360D01*
X144895848Y-64160743D01*
X144891161Y-64211652D01*
X144877102Y-64258623D01*
X144853670Y-64301656D01*
X144820865Y-64340750D01*
X144781542Y-64373234D01*
X144738311Y-64396437D01*
X144691172Y-64410359D01*
X144640126Y-64415000D01*
X144329693Y-64415000D01*
X144283310Y-64396662D01*
X144282066Y-64395460D01*
X144262545Y-64350497D01*
X144262526Y-64348810D01*
X144280863Y-64303144D01*
X144282066Y-64301915D01*
X144327731Y-64282151D01*
X144329449Y-64282131D01*
X144639881Y-64282131D01*
X144689342Y-64271998D01*
X144726343Y-64246228D01*
X144754739Y-64204151D01*
X144762735Y-64160498D01*
X144752465Y-64111504D01*
X144726343Y-64075258D01*
X144683938Y-64047624D01*
X144639881Y-64039842D01*
X144573936Y-64039842D01*
X144527797Y-64021734D01*
X144526553Y-64020547D01*
X144507032Y-63975126D01*
X144507013Y-63973408D01*
X144525350Y-63927728D01*
X144526553Y-63926514D01*
X144572218Y-63906993D01*
X144573936Y-63906974D01*
X144639881Y-63906974D01*
X144689342Y-63896635D01*
X144726343Y-63870338D01*
X144754739Y-63827138D01*
X144762735Y-63781922D01*
X144752465Y-63731180D01*
X144726343Y-63693506D01*
X144683938Y-63664920D01*
X144639881Y-63656870D01*
X144329449Y-63656870D01*
X144283310Y-63638762D01*
X144282066Y-63637575D01*
X144262545Y-63592153D01*
X144262526Y-63590436D01*
X144280863Y-63544755D01*
X144282066Y-63543541D01*
X144327961Y-63524021D01*
X144329693Y-63524002D01*
X144640126Y-63524002D01*
X144691172Y-63528734D01*
X144738311Y-63542930D01*
X144781542Y-63566591D01*
X144820865Y-63599717D01*
X144853670Y-63639452D01*
X144877102Y-63683187D01*
X144891161Y-63730921D01*
X144895848Y-63782655D01*
G37*
G36*
X112369190Y-121443541D02*
G01*
X112414398Y-121424021D01*
X112416085Y-121424002D01*
X112461751Y-121442339D01*
X112462980Y-121443541D01*
X112482744Y-121489421D01*
X112482763Y-121491168D01*
X112482763Y-122011650D01*
X112478392Y-122065996D01*
X112465279Y-122116837D01*
X112443424Y-122164170D01*
X112412826Y-122207998D01*
X112391417Y-122231468D01*
X112349606Y-122267062D01*
X112304102Y-122293913D01*
X112254904Y-122312021D01*
X112202014Y-122321388D01*
X112170133Y-122322815D01*
X112115132Y-122318444D01*
X112063824Y-122305331D01*
X112016209Y-122283475D01*
X111972288Y-122252878D01*
X111948848Y-122231468D01*
X111913255Y-122189644D01*
X111886404Y-122144314D01*
X111868296Y-122095477D01*
X111858929Y-122043134D01*
X111857502Y-122011650D01*
X111857502Y-121491168D01*
X111875839Y-121444771D01*
X111877041Y-121443541D01*
X111922234Y-121424021D01*
X111923936Y-121424002D01*
X111969846Y-121442339D01*
X111971075Y-121443541D01*
X111990595Y-121489421D01*
X111990614Y-121491168D01*
X111990614Y-122011406D01*
X111998033Y-122063853D01*
X112020290Y-122110187D01*
X112043370Y-122137679D01*
X112082151Y-122167437D01*
X112130185Y-122185813D01*
X112170133Y-122189947D01*
X112222649Y-122182597D01*
X112269188Y-122160546D01*
X112296895Y-122137679D01*
X112329043Y-122095421D01*
X112346354Y-122047050D01*
X112349651Y-122011406D01*
X112349651Y-121491168D01*
X112367988Y-121444771D01*
X112369190Y-121443541D01*
G37*
G36*
X113197906Y-121443785D02*
G01*
X113217671Y-121489895D01*
X113217690Y-121491657D01*
X113217690Y-121939842D01*
X113264673Y-121957016D01*
X113267271Y-121959382D01*
X113287768Y-122004574D01*
X113287788Y-122006277D01*
X113268534Y-122051942D01*
X113267271Y-122053171D01*
X113221290Y-122072634D01*
X113217690Y-122072711D01*
X113217690Y-122248321D01*
X113199124Y-122294475D01*
X113197906Y-122295704D01*
X113152714Y-122314981D01*
X113151012Y-122315000D01*
X113105346Y-122296891D01*
X113104117Y-122295704D01*
X113084597Y-122250053D01*
X113084578Y-122248321D01*
X113084578Y-122072711D01*
X112728960Y-122072711D01*
X112705269Y-122068558D01*
X112698186Y-122064162D01*
X112694522Y-122062941D01*
X112689881Y-122060010D01*
X112688416Y-122058545D01*
X112685485Y-122055614D01*
X112677181Y-122045844D01*
X112670098Y-122036074D01*
X112665945Y-122024595D01*
X112663259Y-122010673D01*
X112662526Y-122008719D01*
X112661793Y-122005788D01*
X112662526Y-122002124D01*
X112663259Y-121999193D01*
X112665213Y-121986004D01*
X112671563Y-121972327D01*
X112672296Y-121970373D01*
X112674494Y-121966953D01*
X112693526Y-121939842D01*
X112857676Y-121939842D01*
X113084578Y-121939842D01*
X113084578Y-121617686D01*
X112857676Y-121939842D01*
X112693526Y-121939842D01*
X113036950Y-121450624D01*
X113039637Y-121449403D01*
X113041103Y-121447937D01*
X113051605Y-121438900D01*
X113061375Y-121431817D01*
X113073343Y-121426688D01*
X113086043Y-121424002D01*
X113088730Y-121424002D01*
X113091661Y-121424002D01*
X113151745Y-121424002D01*
X113197906Y-121443785D01*
G37*
%TO.C,J1*%
X22100000Y-84555000D02*
X22100000Y-93495000D01*
X22100000Y-93495000D02*
X22450000Y-93495000D01*
X22450000Y-84555000D02*
X22100000Y-84555000D01*
X25690000Y-84555000D02*
X25010000Y-84555000D01*
X25690000Y-93495000D02*
X25010000Y-93495000D01*
X29640000Y-86050000D02*
G75*
G02*
X29440000Y-86050000I-100000J0D01*
G01*
X29440000Y-86050000D02*
G75*
G02*
X29640000Y-86050000I100000J0D01*
G01*
D12*
%TO.C,J3*%
X142350000Y-78320000D02*
X142350000Y-62360000D01*
X144920000Y-61190000D02*
X148460000Y-61190000D01*
X144920000Y-79490000D02*
X148460000Y-79490000D01*
D10*
X145020000Y-81210000D02*
G75*
G02*
X144820000Y-81210000I-100000J0D01*
G01*
X144820000Y-81210000D02*
G75*
G02*
X145020000Y-81210000I100000J0D01*
G01*
%TD*%
M02*
