%TF.GenerationSoftware,KiCad,Pcbnew,8.0.7*%
%TF.CreationDate,2024-12-30T23:17:17-08:00*%
%TF.ProjectId,expansionboardB,65787061-6e73-4696-9f6e-626f61726442,3*%
%TF.SameCoordinates,Original*%
%TF.FileFunction,Soldermask,Bot*%
%TF.FilePolarity,Negative*%
%FSLAX46Y46*%
G04 Gerber Fmt 4.6, Leading zero omitted, Abs format (unit mm)*
G04 Created by KiCad (PCBNEW 8.0.7) date 2024-12-30 23:17:17*
%MOMM*%
%LPD*%
G01*
G04 APERTURE LIST*
G04 Aperture macros list*
%AMRoundRect*
0 Rectangle with rounded corners*
0 $1 Rounding radius*
0 $2 $3 $4 $5 $6 $7 $8 $9 X,Y pos of 4 corners*
0 Add a 4 corners polygon primitive as box body*
4,1,4,$2,$3,$4,$5,$6,$7,$8,$9,$2,$3,0*
0 Add four circle primitives for the rounded corners*
1,1,$1+$1,$2,$3*
1,1,$1+$1,$4,$5*
1,1,$1+$1,$6,$7*
1,1,$1+$1,$8,$9*
0 Add four rect primitives between the rounded corners*
20,1,$1+$1,$2,$3,$4,$5,0*
20,1,$1+$1,$4,$5,$6,$7,0*
20,1,$1+$1,$6,$7,$8,$9,0*
20,1,$1+$1,$8,$9,$2,$3,0*%
G04 Aperture macros list end*
%ADD10C,4.400000*%
%ADD11C,0.650000*%
%ADD12O,1.700000X0.900000*%
%ADD13O,2.400000X0.900000*%
%ADD14R,0.800000X0.800000*%
%ADD15C,0.800000*%
%ADD16O,2.800000X1.700000*%
%ADD17R,1.700000X1.700000*%
%ADD18O,1.700000X1.700000*%
%ADD19RoundRect,0.250000X-0.350000X-0.450000X0.350000X-0.450000X0.350000X0.450000X-0.350000X0.450000X0*%
%ADD20RoundRect,0.237500X0.250000X0.237500X-0.250000X0.237500X-0.250000X-0.237500X0.250000X-0.237500X0*%
%ADD21C,1.500000*%
%ADD22RoundRect,0.237500X0.300000X0.237500X-0.300000X0.237500X-0.300000X-0.237500X0.300000X-0.237500X0*%
%ADD23RoundRect,0.237500X-0.237500X0.250000X-0.237500X-0.250000X0.237500X-0.250000X0.237500X0.250000X0*%
%ADD24RoundRect,0.218750X0.218750X0.381250X-0.218750X0.381250X-0.218750X-0.381250X0.218750X-0.381250X0*%
%ADD25R,1.500000X0.900000*%
%ADD26R,0.900000X1.500000*%
%ADD27C,0.600000*%
%ADD28R,3.900000X3.900000*%
%ADD29RoundRect,0.237500X0.237500X-0.300000X0.237500X0.300000X-0.237500X0.300000X-0.237500X-0.300000X0*%
%ADD30R,1.066800X0.254000*%
%ADD31R,0.254000X1.066800*%
%ADD32R,2.794000X2.794000*%
%ADD33RoundRect,0.250001X-0.462499X-0.624999X0.462499X-0.624999X0.462499X0.624999X-0.462499X0.624999X0*%
%ADD34R,1.200000X0.700000*%
%ADD35R,1.200000X1.000000*%
%ADD36R,2.800000X1.000000*%
%ADD37R,1.900000X1.300000*%
%ADD38R,0.800000X1.000000*%
%ADD39RoundRect,0.237500X-0.300000X-0.237500X0.300000X-0.237500X0.300000X0.237500X-0.300000X0.237500X0*%
%ADD40R,1.250000X1.000000*%
%ADD41RoundRect,0.060500X-0.776500X-0.181500X0.776500X-0.181500X0.776500X0.181500X-0.776500X0.181500X0*%
%ADD42RoundRect,0.060500X-0.181500X-0.776500X0.181500X-0.776500X0.181500X0.776500X-0.181500X0.776500X0*%
%ADD43RoundRect,0.102000X-2.500000X-2.500000X2.500000X-2.500000X2.500000X2.500000X-2.500000X2.500000X0*%
%ADD44RoundRect,0.237500X-0.237500X0.300000X-0.237500X-0.300000X0.237500X-0.300000X0.237500X0.300000X0*%
%ADD45RoundRect,0.237500X0.237500X-0.250000X0.237500X0.250000X-0.237500X0.250000X-0.237500X-0.250000X0*%
G04 APERTURE END LIST*
D10*
%TO.C,REF\u002A\u002A*%
X148750000Y-120500000D03*
%TD*%
%TO.C,REF\u002A\u002A*%
X26750000Y-120500000D03*
%TD*%
%TO.C,REF\u002A\u002A*%
X26750000Y-44500000D03*
%TD*%
D11*
%TO.C,J1*%
X28200000Y-86050000D03*
X28200000Y-86900000D03*
X28200000Y-87750000D03*
X28200000Y-88600000D03*
X28200000Y-89450000D03*
X28200000Y-90300000D03*
X28200000Y-91150000D03*
X28200000Y-92000000D03*
X26850000Y-92000000D03*
X26850000Y-91150000D03*
X26850000Y-90300000D03*
X26850000Y-89450000D03*
X26850000Y-88600000D03*
X26850000Y-87750000D03*
X26850000Y-86900000D03*
X26850000Y-86050000D03*
D12*
X23840000Y-84700000D03*
X23840000Y-93350000D03*
D13*
X27220000Y-84700000D03*
X27220000Y-93350000D03*
%TD*%
D10*
%TO.C,REF\u002A\u002A*%
X148750000Y-44500000D03*
%TD*%
D14*
%TO.C,J3*%
X144920000Y-74840000D03*
D15*
X143370000Y-74340000D03*
X144920000Y-73840000D03*
X143370000Y-73340000D03*
X144920000Y-72840000D03*
X143370000Y-72340000D03*
X144920000Y-71840000D03*
X143370000Y-71340000D03*
X144920000Y-70840000D03*
X143370000Y-70340000D03*
X144920000Y-69840000D03*
X143370000Y-69340000D03*
X144920000Y-68840000D03*
X143370000Y-68340000D03*
X144920000Y-67840000D03*
X143370000Y-67340000D03*
X144920000Y-66840000D03*
X143370000Y-66340000D03*
X144920000Y-65840000D03*
D16*
X143200000Y-61190000D03*
X143200000Y-79490000D03*
X150300000Y-79490000D03*
X150300000Y-61190000D03*
%TD*%
D17*
%TO.C,JTAG1*%
X131445000Y-120015000D03*
D18*
X128905000Y-120015000D03*
X126365000Y-120015000D03*
X123825000Y-120015000D03*
X121285000Y-120015000D03*
X118745000Y-120015000D03*
%TD*%
D19*
%TO.C,FB3*%
X92456000Y-66421000D03*
X94456000Y-66421000D03*
%TD*%
D20*
%TO.C,R11*%
X88650000Y-82925000D03*
X86825000Y-82925000D03*
%TD*%
D21*
%TO.C,tSCL1*%
X126111000Y-53848000D03*
%TD*%
D22*
%TO.C,C12*%
X82850000Y-69000000D03*
X81125000Y-69000000D03*
%TD*%
D21*
%TO.C,tSDA1*%
X120523000Y-58547000D03*
%TD*%
D23*
%TO.C,R13*%
X126746000Y-56745500D03*
X126746000Y-58570500D03*
%TD*%
D24*
%TO.C,L1*%
X92121500Y-71882000D03*
X89996500Y-71882000D03*
%TD*%
D17*
%TO.C,U2*%
X48220000Y-121920000D03*
D18*
X45680000Y-121920000D03*
X48220000Y-119380000D03*
X45680000Y-119380000D03*
X48220000Y-116840000D03*
X45680000Y-116840000D03*
X48220000Y-114300000D03*
X45680000Y-114300000D03*
X48220000Y-111760000D03*
X45680000Y-111760000D03*
X48220000Y-109220000D03*
X45680000Y-109220000D03*
X48220000Y-106680000D03*
X45680000Y-106680000D03*
X48220000Y-104140000D03*
X45680000Y-104140000D03*
X48220000Y-101600000D03*
X45680000Y-101600000D03*
X48220000Y-99060000D03*
X45680000Y-99060000D03*
X48220000Y-96520000D03*
X45680000Y-96520000D03*
X48220000Y-93980000D03*
X45680000Y-93980000D03*
X48220000Y-91440000D03*
X45680000Y-91440000D03*
X48220000Y-86360000D03*
X45680000Y-86360000D03*
X48220000Y-83820000D03*
X45680000Y-83820000D03*
X48220000Y-81280000D03*
X45680000Y-81280000D03*
X48220000Y-78740000D03*
X45680000Y-78740000D03*
X48220000Y-76200000D03*
X45680000Y-76200000D03*
X48220000Y-73660000D03*
X45680000Y-73660000D03*
X48220000Y-71120000D03*
X45680000Y-71120000D03*
X48220000Y-68580000D03*
X45680000Y-68580000D03*
X48220000Y-66040000D03*
X45680000Y-66040000D03*
X48220000Y-63500000D03*
X45680000Y-63500000D03*
X48220000Y-60960000D03*
X45680000Y-60960000D03*
X48220000Y-58420000D03*
X45680000Y-58420000D03*
X48220000Y-55880000D03*
X45680000Y-55880000D03*
X48220000Y-53340000D03*
X45680000Y-53340000D03*
X48220000Y-50800000D03*
X45680000Y-50800000D03*
X48220000Y-48260000D03*
X45680000Y-48260000D03*
X48220000Y-45720000D03*
X45680000Y-45720000D03*
X48220000Y-43180000D03*
X45680000Y-43180000D03*
%TD*%
D17*
%TO.C,U4*%
X109220000Y-121920000D03*
D18*
X106680000Y-121920000D03*
X109220000Y-119380000D03*
X106680000Y-119380000D03*
X109220000Y-116840000D03*
X106680000Y-116840000D03*
X109220000Y-114300000D03*
X106680000Y-114300000D03*
X109220000Y-111760000D03*
X106680000Y-111760000D03*
X109220000Y-109220000D03*
X106680000Y-109220000D03*
X109220000Y-106680000D03*
X106680000Y-106680000D03*
X109220000Y-104140000D03*
X106680000Y-104140000D03*
X109220000Y-101600000D03*
X106680000Y-101600000D03*
X109220000Y-99060000D03*
X106680000Y-99060000D03*
X109220000Y-96520000D03*
X106680000Y-96520000D03*
X109220000Y-93980000D03*
X106680000Y-93980000D03*
X109220000Y-91440000D03*
X106680000Y-91440000D03*
X109220000Y-88900000D03*
X106680000Y-88900000D03*
X109220000Y-86360000D03*
X106680000Y-86360000D03*
X109220000Y-83820000D03*
X106680000Y-83820000D03*
X109220000Y-81280000D03*
X106680000Y-81280000D03*
X109220000Y-78740000D03*
X106680000Y-78740000D03*
X109220000Y-76200000D03*
X106680000Y-76200000D03*
X109220000Y-73660000D03*
X106680000Y-73660000D03*
X109220000Y-71120000D03*
X106680000Y-71120000D03*
X109220000Y-68580000D03*
X106680000Y-68580000D03*
X109220000Y-66040000D03*
X106680000Y-66040000D03*
X109220000Y-63500000D03*
X106680000Y-63500000D03*
X109220000Y-60960000D03*
X106680000Y-60960000D03*
X109220000Y-58420000D03*
X106680000Y-58420000D03*
X109220000Y-55880000D03*
X106680000Y-55880000D03*
X109220000Y-53340000D03*
X106680000Y-53340000D03*
X109220000Y-50800000D03*
X106680000Y-50800000D03*
X109220000Y-48260000D03*
X106680000Y-48260000D03*
X109220000Y-45720000D03*
X106680000Y-45720000D03*
X109220000Y-43180000D03*
X106680000Y-43180000D03*
%TD*%
D23*
%TO.C,R8*%
X124841000Y-56769000D03*
X124841000Y-58594000D03*
%TD*%
D22*
%TO.C,C4*%
X76300000Y-54200000D03*
X74575000Y-54200000D03*
%TD*%
D25*
%TO.C,U1*%
X70800000Y-42100000D03*
X70800000Y-43370000D03*
X70800000Y-44640000D03*
X70800000Y-45910000D03*
X70800000Y-47180000D03*
X70800000Y-48450000D03*
X70800000Y-49720000D03*
X70800000Y-50990000D03*
X70800000Y-52260000D03*
X70800000Y-53530000D03*
X70800000Y-54800000D03*
X70800000Y-56070000D03*
X70800000Y-57340000D03*
X70800000Y-58610000D03*
D26*
X69035000Y-59860000D03*
X67765000Y-59860000D03*
X66495000Y-59860000D03*
X65225000Y-59860000D03*
X63955000Y-59860000D03*
X62685000Y-59860000D03*
X61415000Y-59860000D03*
X60145000Y-59860000D03*
X58875000Y-59860000D03*
X57605000Y-59860000D03*
X56335000Y-59860000D03*
X55065000Y-59860000D03*
D25*
X53300000Y-58610000D03*
X53300000Y-57340000D03*
X53300000Y-56070000D03*
X53300000Y-54800000D03*
X53300000Y-53530000D03*
X53300000Y-52260000D03*
X53300000Y-50990000D03*
X53300000Y-49720000D03*
X53300000Y-48450000D03*
X53300000Y-47180000D03*
X53300000Y-45910000D03*
X53300000Y-44640000D03*
X53300000Y-43370000D03*
X53300000Y-42100000D03*
D27*
X64950000Y-50520000D03*
X64950000Y-49120000D03*
X64250000Y-51220000D03*
X64250000Y-49820000D03*
X64250000Y-48420000D03*
X63550000Y-50520000D03*
D28*
X63550000Y-49820000D03*
D27*
X63550000Y-49120000D03*
X62850000Y-51220000D03*
X62850000Y-49820000D03*
X62850000Y-48420000D03*
X62150000Y-50520000D03*
X62150000Y-49120000D03*
%TD*%
D29*
%TO.C,C3*%
X88200000Y-77850000D03*
X88200000Y-76125000D03*
%TD*%
D30*
%TO.C,U7*%
X86175700Y-72450700D03*
X86175700Y-72950699D03*
X86175700Y-73450701D03*
X86175700Y-73950700D03*
X86175700Y-74450699D03*
X86175700Y-74950701D03*
X86175700Y-75450700D03*
D31*
X85250000Y-76376400D03*
X84750001Y-76376400D03*
X84249999Y-76376400D03*
X83750000Y-76376400D03*
X83250001Y-76376400D03*
X82749999Y-76376400D03*
X82250000Y-76376400D03*
D30*
X81324300Y-75450700D03*
X81324300Y-74950701D03*
X81324300Y-74450699D03*
X81324300Y-73950700D03*
X81324300Y-73450701D03*
X81324300Y-72950699D03*
X81324300Y-72450700D03*
D31*
X82250000Y-71525000D03*
X82749999Y-71525000D03*
X83250001Y-71525000D03*
X83750000Y-71525000D03*
X84249999Y-71525000D03*
X84750001Y-71525000D03*
X85250000Y-71525000D03*
D32*
X83750000Y-73950700D03*
%TD*%
D20*
%TO.C,R6*%
X33750000Y-68630000D03*
X31925000Y-68630000D03*
%TD*%
D22*
%TO.C,C5*%
X76300000Y-57300000D03*
X74575000Y-57300000D03*
%TD*%
D33*
%TO.C,D4*%
X23387500Y-71170000D03*
X26362500Y-71170000D03*
%TD*%
D34*
%TO.C,CRD1*%
X38671200Y-53492000D03*
X38671200Y-54592000D03*
X38671200Y-55692000D03*
X38671200Y-56792000D03*
X38671200Y-57892000D03*
X38671200Y-58992000D03*
X38671200Y-60092000D03*
X38671200Y-61192000D03*
D35*
X34371200Y-63092000D03*
D36*
X24021200Y-63092000D03*
D37*
X23571200Y-49592000D03*
D35*
X38671200Y-51942000D03*
D38*
X28171200Y-63092000D03*
D34*
X38671200Y-62142000D03*
%TD*%
D24*
%TO.C,L2*%
X92075000Y-76200000D03*
X89950000Y-76200000D03*
%TD*%
D20*
%TO.C,R4*%
X33750000Y-73710000D03*
X31925000Y-73710000D03*
%TD*%
%TO.C,R12*%
X88750000Y-64530000D03*
X86925000Y-64530000D03*
%TD*%
D33*
%TO.C,D5*%
X23387500Y-68581834D03*
X26362500Y-68581834D03*
%TD*%
D20*
%TO.C,R14*%
X124037500Y-61100000D03*
X122212500Y-61100000D03*
%TD*%
D21*
%TO.C,t3V3*%
X98501200Y-64820800D03*
%TD*%
D20*
%TO.C,R3*%
X33750000Y-76250000D03*
X31925000Y-76250000D03*
%TD*%
D22*
%TO.C,C1*%
X90550000Y-62250000D03*
X88825000Y-62250000D03*
%TD*%
D20*
%TO.C,R2*%
X76400000Y-50900000D03*
X74575000Y-50900000D03*
%TD*%
%TO.C,R5*%
X33750000Y-71170000D03*
X31925000Y-71170000D03*
%TD*%
D33*
%TO.C,D2*%
X23389428Y-76267312D03*
X26364428Y-76267312D03*
%TD*%
D20*
%TO.C,R1*%
X90550000Y-66400000D03*
X88725000Y-66400000D03*
%TD*%
D19*
%TO.C,FB2*%
X92518500Y-81026000D03*
X94518500Y-81026000D03*
%TD*%
D39*
%TO.C,C7*%
X94439400Y-79095600D03*
X96164400Y-79095600D03*
%TD*%
D40*
%TO.C,SW4*%
X90400000Y-53600000D03*
X82650000Y-53600000D03*
%TD*%
D39*
%TO.C,C10*%
X94464800Y-68478400D03*
X96189800Y-68478400D03*
%TD*%
D41*
%TO.C,U5*%
X116255000Y-79480000D03*
X116255000Y-78980000D03*
X116255000Y-78480000D03*
X116255000Y-77980000D03*
X116255000Y-77480000D03*
X116255000Y-76980000D03*
X116255000Y-76480000D03*
X116255000Y-75980000D03*
X116255000Y-75480000D03*
X116255000Y-74980000D03*
X116255000Y-74480000D03*
X116255000Y-73980000D03*
X116255000Y-73480000D03*
X116255000Y-72980000D03*
X116255000Y-72480000D03*
X116255000Y-71980000D03*
X116255000Y-71480000D03*
X116255000Y-70980000D03*
X116255000Y-70480000D03*
X116255000Y-69980000D03*
X116255000Y-69480000D03*
X116255000Y-68980000D03*
X116255000Y-68480000D03*
X116255000Y-67980000D03*
X116255000Y-67480000D03*
D42*
X117925000Y-65810000D03*
X118425000Y-65810000D03*
X118925000Y-65810000D03*
X119425000Y-65810000D03*
X119925000Y-65810000D03*
X120425000Y-65810000D03*
X120925000Y-65810000D03*
X121425000Y-65810000D03*
X121925000Y-65810000D03*
X122425000Y-65810000D03*
X122925000Y-65810000D03*
X123425000Y-65810000D03*
X123925000Y-65810000D03*
X124425000Y-65810000D03*
X124925000Y-65810000D03*
X125425000Y-65810000D03*
X125925000Y-65810000D03*
X126425000Y-65810000D03*
X126925000Y-65810000D03*
X127425000Y-65810000D03*
X127925000Y-65810000D03*
X128425000Y-65810000D03*
X128925000Y-65810000D03*
X129425000Y-65810000D03*
X129925000Y-65810000D03*
D41*
X131595000Y-67480000D03*
X131595000Y-67980000D03*
X131595000Y-68480000D03*
X131595000Y-68980000D03*
X131595000Y-69480000D03*
X131595000Y-69980000D03*
X131595000Y-70480000D03*
X131595000Y-70980000D03*
X131595000Y-71480000D03*
X131595000Y-71980000D03*
X131595000Y-72480000D03*
X131595000Y-72980000D03*
X131595000Y-73480000D03*
X131595000Y-73980000D03*
X131595000Y-74480000D03*
X131595000Y-74980000D03*
X131595000Y-75480000D03*
X131595000Y-75980000D03*
X131595000Y-76480000D03*
X131595000Y-76980000D03*
X131595000Y-77480000D03*
X131595000Y-77980000D03*
X131595000Y-78480000D03*
X131595000Y-78980000D03*
X131595000Y-79480000D03*
D42*
X129925000Y-81150000D03*
X129425000Y-81150000D03*
X128925000Y-81150000D03*
X128425000Y-81150000D03*
X127925000Y-81150000D03*
X127425000Y-81150000D03*
X126925000Y-81150000D03*
X126425000Y-81150000D03*
X125925000Y-81150000D03*
X125425000Y-81150000D03*
X124925000Y-81150000D03*
X124425000Y-81150000D03*
X123925000Y-81150000D03*
X123425000Y-81150000D03*
X122925000Y-81150000D03*
X122425000Y-81150000D03*
X121925000Y-81150000D03*
X121425000Y-81150000D03*
X120925000Y-81150000D03*
X120425000Y-81150000D03*
X119925000Y-81150000D03*
X119425000Y-81150000D03*
X118925000Y-81150000D03*
X118425000Y-81150000D03*
X117925000Y-81150000D03*
D43*
X123925000Y-73480000D03*
%TD*%
D44*
%TO.C,C2*%
X88200000Y-70300000D03*
X88200000Y-72025000D03*
%TD*%
D33*
%TO.C,D3*%
X23387500Y-73710000D03*
X26362500Y-73710000D03*
%TD*%
D22*
%TO.C,C6*%
X90362500Y-84925000D03*
X88637500Y-84925000D03*
%TD*%
D21*
%TO.C,t1V2*%
X98501200Y-82575400D03*
%TD*%
D45*
%TO.C,R9*%
X134075000Y-66925000D03*
X134075000Y-65100000D03*
%TD*%
%TO.C,R7*%
X129667000Y-59840500D03*
X129667000Y-58015500D03*
%TD*%
D20*
%TO.C,R10*%
X90550000Y-81005000D03*
X88725000Y-81005000D03*
%TD*%
M02*
