%TF.GenerationSoftware,KiCad,Pcbnew,8.0.7*%
%TF.CreationDate,2024-12-30T23:04:29-08:00*%
%TF.ProjectId,expansionboardB,65787061-6e73-4696-9f6e-626f61726442,3*%
%TF.SameCoordinates,Original*%
%TF.FileFunction,Paste,Top*%
%TF.FilePolarity,Positive*%
%FSLAX46Y46*%
G04 Gerber Fmt 4.6, Leading zero omitted, Abs format (unit mm)*
G04 Created by KiCad (PCBNEW 8.0.7) date 2024-12-30 23:04:29*
%MOMM*%
%LPD*%
G01*
G04 APERTURE LIST*
G04 Aperture macros list*
%AMRoundRect*
0 Rectangle with rounded corners*
0 $1 Rounding radius*
0 $2 $3 $4 $5 $6 $7 $8 $9 X,Y pos of 4 corners*
0 Add a 4 corners polygon primitive as box body*
4,1,4,$2,$3,$4,$5,$6,$7,$8,$9,$2,$3,0*
0 Add four circle primitives for the rounded corners*
1,1,$1+$1,$2,$3*
1,1,$1+$1,$4,$5*
1,1,$1+$1,$6,$7*
1,1,$1+$1,$8,$9*
0 Add four rect primitives between the rounded corners*
20,1,$1+$1,$2,$3,$4,$5,0*
20,1,$1+$1,$4,$5,$6,$7,0*
20,1,$1+$1,$6,$7,$8,$9,0*
20,1,$1+$1,$8,$9,$2,$3,0*%
G04 Aperture macros list end*
%ADD10C,0.000000*%
%ADD11RoundRect,0.079500X0.100500X-0.079500X0.100500X0.079500X-0.100500X0.079500X-0.100500X-0.079500X0*%
%ADD12R,0.500000X0.500000*%
%ADD13RoundRect,0.079500X0.079500X0.100500X-0.079500X0.100500X-0.079500X-0.100500X0.079500X-0.100500X0*%
%ADD14RoundRect,0.079500X-0.079500X-0.100500X0.079500X-0.100500X0.079500X0.100500X-0.079500X0.100500X0*%
G04 APERTURE END LIST*
D10*
%TO.C,E1*%
G36*
X23850600Y-82449200D02*
G01*
X23500600Y-81799200D01*
X24200600Y-81799200D01*
X23850600Y-82449200D01*
G37*
G36*
X24200600Y-83199200D02*
G01*
X23500600Y-83199200D01*
X23850600Y-82549200D01*
X24200600Y-83199200D01*
G37*
G36*
X144526800Y-120511300D02*
G01*
X143876800Y-120861300D01*
X143876800Y-120161300D01*
X144526800Y-120511300D01*
G37*
G36*
X145276800Y-120861300D02*
G01*
X144626800Y-120511300D01*
X145276800Y-120161300D01*
X145276800Y-120861300D01*
G37*
G36*
X144526800Y-44500800D02*
G01*
X143876800Y-44850800D01*
X143876800Y-44150800D01*
X144526800Y-44500800D01*
G37*
G36*
X145276800Y-44850800D02*
G01*
X144626800Y-44500800D01*
X145276800Y-44150800D01*
X145276800Y-44850800D01*
G37*
G36*
X30811000Y-44500800D02*
G01*
X30161000Y-44850800D01*
X30161000Y-44150800D01*
X30811000Y-44500800D01*
G37*
G36*
X31561000Y-44850800D02*
G01*
X30911000Y-44500800D01*
X31561000Y-44150800D01*
X31561000Y-44850800D01*
G37*
G36*
X30938000Y-120485900D02*
G01*
X30288000Y-120835900D01*
X30288000Y-120135900D01*
X30938000Y-120485900D01*
G37*
G36*
X31688000Y-120835900D02*
G01*
X31038000Y-120485900D01*
X31688000Y-120135900D01*
X31688000Y-120835900D01*
G37*
%TD*%
D11*
%TO.C,E1*%
X23850600Y-83149200D03*
X23850600Y-81849200D03*
D12*
X23850600Y-83249200D03*
X23850600Y-81749200D03*
%TD*%
D13*
%TO.C,E1*%
X145226800Y-120511300D03*
X143926800Y-120511300D03*
D12*
X145326800Y-120511300D03*
X143826800Y-120511300D03*
%TD*%
D13*
%TO.C,E1*%
X145226800Y-44500800D03*
X143926800Y-44500800D03*
D12*
X145326800Y-44500800D03*
X143826800Y-44500800D03*
%TD*%
D14*
%TO.C,E1*%
X30211000Y-44500800D03*
X31511000Y-44500800D03*
D12*
X30111000Y-44500800D03*
X31611000Y-44500800D03*
%TD*%
D14*
%TO.C,E1*%
X30338000Y-120485900D03*
X31638000Y-120485900D03*
D12*
X30238000Y-120485900D03*
X31738000Y-120485900D03*
%TD*%
M02*
