%TF.GenerationSoftware,KiCad,Pcbnew,8.0.7*%
%TF.CreationDate,2024-12-30T23:04:29-08:00*%
%TF.ProjectId,expansionboardB,65787061-6e73-4696-9f6e-626f61726442,3*%
%TF.SameCoordinates,Original*%
%TF.FileFunction,Legend,Bot*%
%TF.FilePolarity,Positive*%
%FSLAX46Y46*%
G04 Gerber Fmt 4.6, Leading zero omitted, Abs format (unit mm)*
G04 Created by KiCad (PCBNEW 8.0.7) date 2024-12-30 23:04:29*
%MOMM*%
%LPD*%
G01*
G04 APERTURE LIST*
%ADD10C,0.250000*%
%ADD11C,0.150000*%
%ADD12C,0.125000*%
%ADD13C,0.120000*%
%ADD14C,0.152400*%
%ADD15C,0.000000*%
%ADD16C,0.127000*%
%ADD17C,0.200000*%
G04 APERTURE END LIST*
D10*
G36*
X29773370Y-84911967D02*
G01*
X29776762Y-84961243D01*
X29789292Y-85015259D01*
X29811056Y-85065535D01*
X29842053Y-85112071D01*
X29869846Y-85143021D01*
X29907332Y-85175642D01*
X29954605Y-85205169D01*
X30005687Y-85225510D01*
X30060579Y-85236665D01*
X30102121Y-85239009D01*
X30151746Y-85235634D01*
X30206126Y-85223167D01*
X30256719Y-85201513D01*
X30303525Y-85170674D01*
X30334640Y-85143021D01*
X30367427Y-85105735D01*
X30397105Y-85058740D01*
X30417549Y-85007982D01*
X30428761Y-84953460D01*
X30431116Y-84912212D01*
X30431116Y-84901465D01*
X30412798Y-84856280D01*
X30367857Y-84837962D01*
X30323161Y-84856036D01*
X30304842Y-84901221D01*
X30304842Y-84911967D01*
X30299023Y-84961274D01*
X30279177Y-85010222D01*
X30248914Y-85049911D01*
X30245247Y-85053628D01*
X30205486Y-85084798D01*
X30156294Y-85105751D01*
X30106616Y-85112677D01*
X30101388Y-85112735D01*
X30051333Y-85106963D01*
X30001947Y-85087280D01*
X29962210Y-85057265D01*
X29958506Y-85053628D01*
X29927465Y-85014397D01*
X29906599Y-84965953D01*
X29899701Y-84917104D01*
X29899644Y-84911967D01*
X29899644Y-84754431D01*
X30616008Y-84754431D01*
X30661681Y-84735868D01*
X30680000Y-84691172D01*
X30661681Y-84646475D01*
X30616252Y-84628157D01*
X29837117Y-84628157D01*
X29792665Y-84646231D01*
X29773370Y-84691416D01*
X29773370Y-84911967D01*
G37*
G36*
X30402013Y-85403380D02*
G01*
X30455538Y-85412972D01*
X30505463Y-85431517D01*
X30551789Y-85459014D01*
X30594515Y-85495464D01*
X30616382Y-85519438D01*
X30647634Y-85564220D01*
X30669957Y-85612603D01*
X30683351Y-85664585D01*
X30687815Y-85720167D01*
X30687815Y-85720900D01*
X30687815Y-85722365D01*
X30687815Y-85723831D01*
X30687815Y-85725785D01*
X30687815Y-85735554D01*
X30687815Y-85737752D01*
X30687815Y-85739218D01*
X30687815Y-85740439D01*
X30687815Y-85741172D01*
X30686357Y-85773431D01*
X30676790Y-85827038D01*
X30658294Y-85877021D01*
X30630869Y-85923382D01*
X30594515Y-85966120D01*
X30570541Y-85988044D01*
X30525758Y-86019378D01*
X30477375Y-86041759D01*
X30425393Y-86055188D01*
X30369811Y-86059665D01*
X30083558Y-86059665D01*
X30051360Y-86058203D01*
X29997860Y-86048611D01*
X29947984Y-86030066D01*
X29901730Y-86002569D01*
X29859099Y-85966120D01*
X29837175Y-85942142D01*
X29805841Y-85897334D01*
X29783459Y-85848903D01*
X29770031Y-85796849D01*
X29765554Y-85741172D01*
X29765554Y-85740439D01*
X29765554Y-85739218D01*
X29765554Y-85737752D01*
X29765554Y-85735554D01*
X29765554Y-85725785D01*
X29765554Y-85723831D01*
X29765554Y-85722365D01*
X29765554Y-85720900D01*
X29765554Y-85720167D01*
X29891828Y-85720167D01*
X29891828Y-85720900D01*
X29891828Y-85722365D01*
X29891828Y-85723831D01*
X29891828Y-85725785D01*
X29891828Y-85735554D01*
X29891828Y-85737752D01*
X29891828Y-85739218D01*
X29891828Y-85740439D01*
X29891828Y-85741172D01*
X29897314Y-85789243D01*
X29916021Y-85836446D01*
X29948004Y-85877704D01*
X29985356Y-85907070D01*
X30031622Y-85926811D01*
X30083314Y-85933391D01*
X30370055Y-85933391D01*
X30417974Y-85927953D01*
X30465009Y-85909408D01*
X30506099Y-85877704D01*
X30535336Y-85840442D01*
X30554990Y-85793780D01*
X30561542Y-85741172D01*
X30561542Y-85740439D01*
X30561542Y-85739218D01*
X30561542Y-85737752D01*
X30561542Y-85735554D01*
X30561542Y-85725785D01*
X30561542Y-85723831D01*
X30561542Y-85722365D01*
X30561542Y-85720900D01*
X30561542Y-85720167D01*
X30556127Y-85672096D01*
X30537664Y-85624893D01*
X30506099Y-85583635D01*
X30468990Y-85554398D01*
X30422495Y-85534743D01*
X30370055Y-85528192D01*
X30083314Y-85528192D01*
X30036097Y-85533606D01*
X29989337Y-85552069D01*
X29948004Y-85583635D01*
X29918380Y-85620897D01*
X29898466Y-85667559D01*
X29891828Y-85720167D01*
X29765554Y-85720167D01*
X29767016Y-85687965D01*
X29776608Y-85634440D01*
X29795153Y-85584515D01*
X29822650Y-85538189D01*
X29859099Y-85495464D01*
X29883016Y-85473539D01*
X29927717Y-85442205D01*
X29976041Y-85419824D01*
X30027988Y-85406395D01*
X30083558Y-85401919D01*
X30369811Y-85401919D01*
X30402013Y-85403380D01*
G37*
G36*
X29792665Y-86741102D02*
G01*
X29773370Y-86785799D01*
X29792665Y-86830739D01*
X29837117Y-86849057D01*
X30488757Y-86849057D01*
X30540200Y-86842535D01*
X30586391Y-86822967D01*
X30623824Y-86793859D01*
X30655807Y-86753312D01*
X30674514Y-86707570D01*
X30680000Y-86661479D01*
X30674256Y-86612287D01*
X30654890Y-86565536D01*
X30631395Y-86535205D01*
X30661013Y-86494756D01*
X30676962Y-86446683D01*
X30680000Y-86410397D01*
X30673362Y-86359794D01*
X30653448Y-86314443D01*
X30623824Y-86277773D01*
X30582409Y-86246347D01*
X30535741Y-86227965D01*
X30488757Y-86222575D01*
X29837117Y-86222575D01*
X29792665Y-86240893D01*
X29773370Y-86285589D01*
X29792665Y-86330530D01*
X29837117Y-86348848D01*
X30488757Y-86348848D01*
X30534431Y-86367411D01*
X30553726Y-86410642D01*
X30534431Y-86453872D01*
X30488757Y-86472679D01*
X30093572Y-86472679D01*
X30048143Y-86490997D01*
X30029581Y-86535694D01*
X30048143Y-86580390D01*
X30093817Y-86598953D01*
X30489979Y-86598953D01*
X30534919Y-86616782D01*
X30553726Y-86660258D01*
X30535163Y-86704221D01*
X30489979Y-86722784D01*
X29837117Y-86722784D01*
X29792665Y-86741102D01*
G37*
G36*
X29899644Y-87263049D02*
G01*
X29912689Y-87214857D01*
X29927243Y-87196615D01*
X29969705Y-87172152D01*
X29992212Y-87169504D01*
X30164159Y-87169504D01*
X30164159Y-87353663D01*
X30183210Y-87399581D01*
X30228150Y-87418387D01*
X30272358Y-87399581D01*
X30290432Y-87353663D01*
X30290432Y-87169504D01*
X30460669Y-87169504D01*
X30508526Y-87182318D01*
X30526615Y-87196615D01*
X30551078Y-87239770D01*
X30553726Y-87263049D01*
X30553726Y-87581053D01*
X30572288Y-87626482D01*
X30616985Y-87645045D01*
X30661681Y-87626482D01*
X30680000Y-87581053D01*
X30680000Y-87263538D01*
X30674899Y-87214063D01*
X30657268Y-87164213D01*
X30627043Y-87119753D01*
X30615519Y-87107466D01*
X30577103Y-87076415D01*
X30529704Y-87053832D01*
X30477345Y-87043795D01*
X30460669Y-87043230D01*
X29992700Y-87043230D01*
X29944033Y-87048312D01*
X29894717Y-87065876D01*
X29850410Y-87095987D01*
X29838094Y-87107466D01*
X29806807Y-87145782D01*
X29784052Y-87193476D01*
X29773939Y-87246561D01*
X29773370Y-87263538D01*
X29773370Y-87581053D01*
X29792421Y-87626727D01*
X29836629Y-87645045D01*
X29880837Y-87626727D01*
X29899644Y-87581053D01*
X29899644Y-87263049D01*
G37*
G36*
X30274312Y-88260048D02*
G01*
X30581081Y-88461793D01*
X30629197Y-88470586D01*
X30669009Y-88442986D01*
X30680000Y-88407815D01*
X30661135Y-88362396D01*
X30651423Y-88354570D01*
X30260879Y-88099825D01*
X30212061Y-88090758D01*
X30195422Y-88097383D01*
X30163823Y-88136126D01*
X30161716Y-88154047D01*
X30161716Y-88169434D01*
X30152130Y-88219687D01*
X30123370Y-88262002D01*
X30081055Y-88290762D01*
X30030802Y-88300348D01*
X29980366Y-88290518D01*
X29937990Y-88261025D01*
X29909230Y-88217855D01*
X29899644Y-88166503D01*
X29899644Y-87974528D01*
X30616008Y-87974528D01*
X30661681Y-87955966D01*
X30680000Y-87911270D01*
X30661681Y-87866573D01*
X30616252Y-87848255D01*
X29837117Y-87848255D01*
X29792665Y-87866817D01*
X29773370Y-87912735D01*
X29773370Y-88166503D01*
X29778118Y-88217993D01*
X29792360Y-88265727D01*
X29816097Y-88309706D01*
X29849330Y-88349930D01*
X29889141Y-88383483D01*
X29932861Y-88407449D01*
X29980488Y-88421829D01*
X30032023Y-88426622D01*
X30082727Y-88421828D01*
X30130426Y-88407445D01*
X30175120Y-88383474D01*
X30183698Y-88377529D01*
X30221723Y-88344962D01*
X30253357Y-88304785D01*
X30274312Y-88260048D01*
G37*
G36*
X30508785Y-90030321D02*
G01*
X30579371Y-90080390D01*
X30626755Y-90091625D01*
X30667299Y-90064759D01*
X30680000Y-90029344D01*
X30660699Y-89983072D01*
X30652889Y-89976831D01*
X30288722Y-89720865D01*
X30374696Y-89605582D01*
X30414615Y-89575958D01*
X30452609Y-89568946D01*
X30501947Y-89581568D01*
X30523928Y-89598255D01*
X30550205Y-89641882D01*
X30553726Y-89668597D01*
X30553726Y-89741870D01*
X30572288Y-89786322D01*
X30616985Y-89804640D01*
X30661681Y-89786322D01*
X30680000Y-89741381D01*
X30680000Y-89663956D01*
X30680000Y-89662491D01*
X30680000Y-89659804D01*
X30674744Y-89610998D01*
X30656579Y-89561844D01*
X30625438Y-89518033D01*
X30613565Y-89505931D01*
X30574069Y-89475352D01*
X30525516Y-89453112D01*
X30472050Y-89443228D01*
X30455052Y-89442672D01*
X30402677Y-89448046D01*
X30354973Y-89464166D01*
X30311941Y-89491032D01*
X30273579Y-89528646D01*
X30280174Y-89531821D01*
X30276266Y-89525226D01*
X30185163Y-89648813D01*
X30100167Y-89590195D01*
X30097969Y-89591905D01*
X30095038Y-89591660D01*
X30050992Y-89566833D01*
X30002996Y-89554662D01*
X29979511Y-89553314D01*
X29926884Y-89559444D01*
X29879219Y-89577834D01*
X29836514Y-89608484D01*
X29828569Y-89616085D01*
X29795339Y-89658069D01*
X29774416Y-89705252D01*
X29765800Y-89757636D01*
X29765554Y-89768736D01*
X29765554Y-89769958D01*
X29765554Y-89771912D01*
X29765554Y-89774598D01*
X29765554Y-89776796D01*
X29771708Y-89829552D01*
X29790169Y-89877299D01*
X29820938Y-89920036D01*
X29828569Y-89927983D01*
X29870281Y-89961213D01*
X29916954Y-89982136D01*
X29968589Y-89990751D01*
X29979511Y-89990997D01*
X30028236Y-89985658D01*
X30077243Y-89967655D01*
X30111158Y-89945812D01*
X30135852Y-89901855D01*
X30136071Y-89896231D01*
X30121905Y-89856420D01*
X30079651Y-89832484D01*
X30032756Y-89845429D01*
X29986541Y-89864422D01*
X29979023Y-89864724D01*
X29930937Y-89849886D01*
X29917473Y-89838346D01*
X29893856Y-89795380D01*
X29891828Y-89775819D01*
X29891828Y-89772889D01*
X29891828Y-89770690D01*
X29891828Y-89768492D01*
X29891828Y-89767271D01*
X29905076Y-89719483D01*
X29917473Y-89704012D01*
X29961620Y-89679969D01*
X29979023Y-89678367D01*
X30026761Y-89692017D01*
X30032512Y-89696196D01*
X30033733Y-89697662D01*
X30404982Y-89958269D01*
X30380314Y-89990997D01*
X30368590Y-90038136D01*
X30393503Y-90079658D01*
X30440642Y-90090893D01*
X30482651Y-90066224D01*
X30508785Y-90030321D01*
G37*
G36*
X29773370Y-91296720D02*
G01*
X29777371Y-91354522D01*
X29789376Y-91409045D01*
X29809383Y-91460287D01*
X29837392Y-91508249D01*
X29873405Y-91552931D01*
X29887187Y-91567096D01*
X29931357Y-91605196D01*
X29978687Y-91635412D01*
X30029176Y-91657746D01*
X30082826Y-91672197D01*
X30139635Y-91678766D01*
X30159274Y-91679204D01*
X30294096Y-91679204D01*
X30342944Y-91676467D01*
X30398540Y-91665957D01*
X30450839Y-91647564D01*
X30499840Y-91621289D01*
X30545544Y-91587131D01*
X30567159Y-91567096D01*
X30605507Y-91523508D01*
X30635921Y-91476639D01*
X30658401Y-91426490D01*
X30672947Y-91373061D01*
X30679559Y-91316352D01*
X30680000Y-91296720D01*
X30680000Y-91131612D01*
X30661681Y-91086671D01*
X30616985Y-91068353D01*
X30572288Y-91086671D01*
X30553726Y-91131367D01*
X30553726Y-91296231D01*
X30548963Y-91347415D01*
X30534675Y-91394722D01*
X30510861Y-91438152D01*
X30477522Y-91477704D01*
X30437344Y-91510615D01*
X30393258Y-91534124D01*
X30345265Y-91548229D01*
X30293363Y-91552930D01*
X30158541Y-91552930D01*
X30107296Y-91548244D01*
X30059806Y-91534185D01*
X30016071Y-91510753D01*
X29976092Y-91477948D01*
X29942646Y-91438533D01*
X29918756Y-91395272D01*
X29904422Y-91348163D01*
X29899644Y-91297208D01*
X29899644Y-91194626D01*
X30404249Y-91194626D01*
X30449923Y-91176064D01*
X30468241Y-91131367D01*
X30449923Y-91086671D01*
X30404494Y-91068353D01*
X29837117Y-91068353D01*
X29792665Y-91086427D01*
X29773370Y-91131612D01*
X29773370Y-91296720D01*
G37*
G36*
X29852505Y-91960327D02*
G01*
X29818625Y-92000086D01*
X29793066Y-92043281D01*
X29775829Y-92089912D01*
X29766913Y-92139980D01*
X29765554Y-92170132D01*
X29769715Y-92222258D01*
X29782197Y-92270924D01*
X29803001Y-92316131D01*
X29832126Y-92357879D01*
X29852505Y-92380181D01*
X29892180Y-92414156D01*
X29935338Y-92439787D01*
X29981979Y-92457072D01*
X30032103Y-92466013D01*
X30062309Y-92467376D01*
X30616496Y-92467376D01*
X30661681Y-92448813D01*
X30680000Y-92404117D01*
X30661681Y-92359420D01*
X30616252Y-92341102D01*
X30061332Y-92341102D01*
X30011232Y-92334027D01*
X29967177Y-92312800D01*
X29941165Y-92290788D01*
X29911100Y-92250385D01*
X29894911Y-92204280D01*
X29891828Y-92170376D01*
X29898697Y-92120436D01*
X29919305Y-92076129D01*
X29940676Y-92049720D01*
X29980301Y-92019209D01*
X30029972Y-92002046D01*
X30059623Y-91999651D01*
X30304842Y-91999651D01*
X30304842Y-92192114D01*
X30323161Y-92237543D01*
X30367857Y-92255861D01*
X30412798Y-92237543D01*
X30431116Y-92192114D01*
X30431116Y-91999651D01*
X30615275Y-91999651D01*
X30661437Y-91981332D01*
X30680000Y-91936392D01*
X30661681Y-91891695D01*
X30616496Y-91873377D01*
X30062309Y-91873377D01*
X30010195Y-91877538D01*
X29961564Y-91890020D01*
X29916416Y-91910823D01*
X29874750Y-91939948D01*
X29852505Y-91960327D01*
G37*
G36*
X29773370Y-93239427D02*
G01*
X29792421Y-93285345D01*
X29836629Y-93303663D01*
X29880837Y-93284612D01*
X29899644Y-93237962D01*
X29899644Y-93039148D01*
X30616008Y-93039148D01*
X30661681Y-93020586D01*
X30680000Y-92975889D01*
X30661681Y-92931193D01*
X30616008Y-92912875D01*
X29899644Y-92912875D01*
X29899644Y-92725296D01*
X29880837Y-92680600D01*
X29836629Y-92662770D01*
X29792421Y-92681088D01*
X29773370Y-92726762D01*
X29773370Y-93239427D01*
G37*
G36*
X29852505Y-93570376D02*
G01*
X29818625Y-93610135D01*
X29793066Y-93653330D01*
X29775829Y-93699961D01*
X29766913Y-93750028D01*
X29765554Y-93780181D01*
X29769715Y-93832307D01*
X29782197Y-93880973D01*
X29803001Y-93926180D01*
X29832126Y-93967927D01*
X29852505Y-93990230D01*
X29892180Y-94024205D01*
X29935338Y-94049836D01*
X29981979Y-94067121D01*
X30032103Y-94076062D01*
X30062309Y-94077424D01*
X30616496Y-94077424D01*
X30661681Y-94058862D01*
X30680000Y-94014166D01*
X30661681Y-93969469D01*
X30616252Y-93951151D01*
X30061332Y-93951151D01*
X30011232Y-93944076D01*
X29967177Y-93922849D01*
X29941165Y-93900837D01*
X29911100Y-93860434D01*
X29894911Y-93814329D01*
X29891828Y-93780425D01*
X29898697Y-93730485D01*
X29919305Y-93686178D01*
X29940676Y-93659769D01*
X29980301Y-93629258D01*
X30029972Y-93612095D01*
X30059623Y-93609699D01*
X30304842Y-93609699D01*
X30304842Y-93802163D01*
X30323161Y-93847592D01*
X30367857Y-93865910D01*
X30412798Y-93847592D01*
X30431116Y-93802163D01*
X30431116Y-93609699D01*
X30615275Y-93609699D01*
X30661437Y-93591381D01*
X30680000Y-93546441D01*
X30661681Y-93501744D01*
X30616496Y-93483426D01*
X30062309Y-93483426D01*
X30010195Y-93487587D01*
X29961564Y-93500069D01*
X29916416Y-93520872D01*
X29874750Y-93549997D01*
X29852505Y-93570376D01*
G37*
G36*
X67952023Y-61549644D02*
G01*
X68000215Y-61562689D01*
X68018457Y-61577243D01*
X68042921Y-61619705D01*
X68045568Y-61642212D01*
X68045568Y-61814159D01*
X67861409Y-61814159D01*
X67815491Y-61833210D01*
X67796685Y-61878150D01*
X67815491Y-61922358D01*
X67861409Y-61940432D01*
X68045568Y-61940432D01*
X68045568Y-62110669D01*
X68032754Y-62158526D01*
X68018457Y-62176615D01*
X67975303Y-62201078D01*
X67952023Y-62203726D01*
X67634019Y-62203726D01*
X67588590Y-62222288D01*
X67570027Y-62266985D01*
X67588590Y-62311681D01*
X67634019Y-62330000D01*
X67951535Y-62330000D01*
X68001009Y-62324899D01*
X68050859Y-62307268D01*
X68095319Y-62277043D01*
X68107606Y-62265519D01*
X68138657Y-62227103D01*
X68161240Y-62179704D01*
X68171277Y-62127345D01*
X68171842Y-62110669D01*
X68171842Y-61642700D01*
X68166761Y-61594033D01*
X68149196Y-61544717D01*
X68119086Y-61500410D01*
X68107606Y-61488094D01*
X68069290Y-61456807D01*
X68021596Y-61434052D01*
X67968511Y-61423939D01*
X67951535Y-61423370D01*
X67634019Y-61423370D01*
X67588346Y-61442421D01*
X67570027Y-61486629D01*
X67588346Y-61530837D01*
X67634019Y-61549644D01*
X67952023Y-61549644D01*
G37*
G36*
X67000942Y-61814159D02*
G01*
X66949376Y-61818891D01*
X66901657Y-61833087D01*
X66857785Y-61856748D01*
X66817759Y-61889874D01*
X66784420Y-61929655D01*
X66760607Y-61973283D01*
X66746318Y-62020758D01*
X66741556Y-62072079D01*
X66746318Y-62123401D01*
X66760607Y-62170875D01*
X66784420Y-62214503D01*
X66817759Y-62254284D01*
X66857693Y-62287410D01*
X66901535Y-62311071D01*
X66949284Y-62325267D01*
X67000942Y-62330000D01*
X67002407Y-62330000D01*
X67318457Y-62330000D01*
X67364131Y-62311926D01*
X67382449Y-62267718D01*
X67363886Y-62222777D01*
X67318457Y-62203726D01*
X67001919Y-62203726D01*
X67000453Y-62203726D01*
X66949834Y-62194139D01*
X66906908Y-62165380D01*
X66877599Y-62122821D01*
X66867829Y-62072323D01*
X66877599Y-62021643D01*
X66906908Y-61979023D01*
X66949834Y-61950080D01*
X67000453Y-61940432D01*
X67001919Y-61940432D01*
X67123063Y-61940432D01*
X67174629Y-61935700D01*
X67222348Y-61921503D01*
X67266220Y-61897842D01*
X67306245Y-61864717D01*
X67339584Y-61824814D01*
X67363398Y-61781064D01*
X67377686Y-61733467D01*
X67382449Y-61682023D01*
X67377701Y-61630488D01*
X67363459Y-61582861D01*
X67339722Y-61539141D01*
X67306489Y-61499330D01*
X67266449Y-61466097D01*
X67222531Y-61442360D01*
X67174736Y-61428118D01*
X67123063Y-61423370D01*
X66864410Y-61423370D01*
X66818981Y-61442421D01*
X66800418Y-61487362D01*
X66818981Y-61531570D01*
X66864410Y-61549644D01*
X67123307Y-61549644D01*
X67173988Y-61559352D01*
X67217096Y-61588478D01*
X67246406Y-61631160D01*
X67256175Y-61682023D01*
X67246406Y-61732765D01*
X67217096Y-61775568D01*
X67174171Y-61804511D01*
X67123551Y-61814159D01*
X67002407Y-61814159D01*
X67000942Y-61814159D01*
G37*
G36*
X66277983Y-61423370D02*
G01*
X66228707Y-61426762D01*
X66174691Y-61439292D01*
X66124415Y-61461056D01*
X66077879Y-61492053D01*
X66046929Y-61519846D01*
X66014308Y-61557332D01*
X65984781Y-61604605D01*
X65964440Y-61655687D01*
X65953285Y-61710579D01*
X65950942Y-61752121D01*
X65954316Y-61801746D01*
X65966783Y-61856126D01*
X65988437Y-61906719D01*
X66019276Y-61953525D01*
X66046929Y-61984640D01*
X66084215Y-62017427D01*
X66131210Y-62047105D01*
X66181969Y-62067549D01*
X66236490Y-62078761D01*
X66277739Y-62081116D01*
X66288485Y-62081116D01*
X66333670Y-62062798D01*
X66351988Y-62017857D01*
X66333914Y-61973161D01*
X66288729Y-61954842D01*
X66277983Y-61954842D01*
X66228676Y-61949023D01*
X66179728Y-61929177D01*
X66140039Y-61898914D01*
X66136322Y-61895247D01*
X66105152Y-61855486D01*
X66084199Y-61806294D01*
X66077273Y-61756616D01*
X66077215Y-61751388D01*
X66082987Y-61701333D01*
X66102670Y-61651947D01*
X66132685Y-61612210D01*
X66136322Y-61608506D01*
X66175553Y-61577465D01*
X66223997Y-61556599D01*
X66272846Y-61549701D01*
X66277983Y-61549644D01*
X66435519Y-61549644D01*
X66435519Y-62266008D01*
X66454082Y-62311681D01*
X66498778Y-62330000D01*
X66543475Y-62311681D01*
X66561793Y-62266252D01*
X66561793Y-61487117D01*
X66543719Y-61442665D01*
X66498534Y-61423370D01*
X66277983Y-61423370D01*
G37*
G36*
X65220900Y-61876685D02*
G01*
X65185592Y-61910638D01*
X65155859Y-61955396D01*
X65137453Y-62006504D01*
X65130640Y-62056432D01*
X65130286Y-62071591D01*
X65135033Y-62123034D01*
X65149275Y-62170631D01*
X65173013Y-62214381D01*
X65206245Y-62254284D01*
X65246041Y-62287410D01*
X65289715Y-62311071D01*
X65337266Y-62325267D01*
X65388695Y-62330000D01*
X65716468Y-62330000D01*
X65761898Y-62311926D01*
X65780216Y-62267718D01*
X65761898Y-62222777D01*
X65716468Y-62203726D01*
X65388695Y-62203726D01*
X65338319Y-62194139D01*
X65295638Y-62165380D01*
X65266329Y-62122821D01*
X65256559Y-62072323D01*
X65266329Y-62021643D01*
X65295638Y-61979023D01*
X65338319Y-61950080D01*
X65388695Y-61940432D01*
X65470027Y-61940432D01*
X65515457Y-61922358D01*
X65533775Y-61878150D01*
X65515457Y-61833210D01*
X65470027Y-61814159D01*
X65388695Y-61814159D01*
X65338319Y-61804511D01*
X65295638Y-61775568D01*
X65266329Y-61732765D01*
X65256559Y-61682023D01*
X65266329Y-61631160D01*
X65295638Y-61588478D01*
X65338319Y-61559352D01*
X65388695Y-61549644D01*
X65716468Y-61549644D01*
X65761898Y-61530837D01*
X65780216Y-61486629D01*
X65761898Y-61442421D01*
X65716468Y-61423370D01*
X65388695Y-61423370D01*
X65337266Y-61428118D01*
X65289715Y-61442360D01*
X65246041Y-61466097D01*
X65206245Y-61499330D01*
X65173013Y-61539141D01*
X65149275Y-61582861D01*
X65135033Y-61630488D01*
X65130286Y-61682023D01*
X65134622Y-61733246D01*
X65150196Y-61785861D01*
X65177097Y-61832156D01*
X65215325Y-61872132D01*
X65220900Y-61876685D01*
G37*
G36*
X64326482Y-61757006D02*
G01*
X64345533Y-61801458D01*
X64749755Y-62203726D01*
X64390718Y-62203726D01*
X64345045Y-62222288D01*
X64326482Y-62266985D01*
X64345045Y-62311681D01*
X64390474Y-62330000D01*
X64901430Y-62330000D01*
X64947943Y-62311529D01*
X64960537Y-62290921D01*
X64960547Y-62241343D01*
X64946127Y-62221556D01*
X64452756Y-61729406D01*
X64452756Y-61703272D01*
X64460737Y-61652281D01*
X64484681Y-61607658D01*
X64501116Y-61589211D01*
X64543512Y-61558532D01*
X64592117Y-61543494D01*
X64616643Y-61541828D01*
X64663293Y-61541828D01*
X64715821Y-61549075D01*
X64762028Y-61570816D01*
X64789323Y-61593363D01*
X64820876Y-61634900D01*
X64837866Y-61682206D01*
X64841102Y-61716950D01*
X64859420Y-61761891D01*
X64904361Y-61780942D01*
X64949057Y-61761891D01*
X64967376Y-61717194D01*
X64963133Y-61664511D01*
X64950406Y-61615240D01*
X64929193Y-61569382D01*
X64899495Y-61526937D01*
X64878715Y-61504214D01*
X64838103Y-61469668D01*
X64793845Y-61443607D01*
X64745940Y-61426031D01*
X64694388Y-61416940D01*
X64663293Y-61415554D01*
X64616643Y-61415554D01*
X64565931Y-61419610D01*
X64518515Y-61431776D01*
X64468362Y-61455613D01*
X64428008Y-61485160D01*
X64411723Y-61500307D01*
X64378509Y-61538927D01*
X64350540Y-61587100D01*
X64333225Y-61639578D01*
X64326815Y-61689027D01*
X64326482Y-61703761D01*
X64326482Y-61757006D01*
G37*
G36*
X63617201Y-61812937D02*
G01*
X63571528Y-61831988D01*
X63552721Y-61876929D01*
X63571528Y-61921137D01*
X63617201Y-61939211D01*
X64066608Y-61939211D01*
X64112526Y-61921137D01*
X64131088Y-61876929D01*
X64112526Y-61831988D01*
X64066608Y-61812937D01*
X63617201Y-61812937D01*
G37*
G36*
X62975819Y-61814159D02*
G01*
X62924254Y-61818891D01*
X62876535Y-61833087D01*
X62832663Y-61856748D01*
X62792637Y-61889874D01*
X62759298Y-61929655D01*
X62735484Y-61973283D01*
X62721196Y-62020758D01*
X62716434Y-62072079D01*
X62721196Y-62123401D01*
X62735484Y-62170875D01*
X62759298Y-62214503D01*
X62792637Y-62254284D01*
X62832571Y-62287410D01*
X62876413Y-62311071D01*
X62924162Y-62325267D01*
X62975819Y-62330000D01*
X62977285Y-62330000D01*
X63293335Y-62330000D01*
X63339009Y-62311926D01*
X63357327Y-62267718D01*
X63338764Y-62222777D01*
X63293335Y-62203726D01*
X62976796Y-62203726D01*
X62975331Y-62203726D01*
X62924712Y-62194139D01*
X62881786Y-62165380D01*
X62852477Y-62122821D01*
X62842707Y-62072323D01*
X62852477Y-62021643D01*
X62881786Y-61979023D01*
X62924712Y-61950080D01*
X62975331Y-61940432D01*
X62976796Y-61940432D01*
X63097941Y-61940432D01*
X63149507Y-61935700D01*
X63197226Y-61921503D01*
X63241098Y-61897842D01*
X63281123Y-61864717D01*
X63314462Y-61824814D01*
X63338276Y-61781064D01*
X63352564Y-61733467D01*
X63357327Y-61682023D01*
X63352579Y-61630488D01*
X63338337Y-61582861D01*
X63314600Y-61539141D01*
X63281367Y-61499330D01*
X63241327Y-61466097D01*
X63197409Y-61442360D01*
X63149614Y-61428118D01*
X63097941Y-61423370D01*
X62839288Y-61423370D01*
X62793859Y-61442421D01*
X62775296Y-61487362D01*
X62793859Y-61531570D01*
X62839288Y-61549644D01*
X63098185Y-61549644D01*
X63148866Y-61559352D01*
X63191974Y-61588478D01*
X63221284Y-61631160D01*
X63231053Y-61682023D01*
X63221284Y-61732765D01*
X63191974Y-61775568D01*
X63149049Y-61804511D01*
X63098429Y-61814159D01*
X62977285Y-61814159D01*
X62975819Y-61814159D01*
G37*
G36*
X62000802Y-61876685D02*
G01*
X61965494Y-61910638D01*
X61935762Y-61955396D01*
X61917356Y-62006504D01*
X61910542Y-62056432D01*
X61910188Y-62071591D01*
X61914935Y-62123034D01*
X61929178Y-62170631D01*
X61952915Y-62214381D01*
X61986147Y-62254284D01*
X62025944Y-62287410D01*
X62069617Y-62311071D01*
X62117168Y-62325267D01*
X62168597Y-62330000D01*
X62496371Y-62330000D01*
X62541800Y-62311926D01*
X62560118Y-62267718D01*
X62541800Y-62222777D01*
X62496371Y-62203726D01*
X62168597Y-62203726D01*
X62118222Y-62194139D01*
X62075540Y-62165380D01*
X62046231Y-62122821D01*
X62036461Y-62072323D01*
X62046231Y-62021643D01*
X62075540Y-61979023D01*
X62118222Y-61950080D01*
X62168597Y-61940432D01*
X62249930Y-61940432D01*
X62295359Y-61922358D01*
X62313677Y-61878150D01*
X62295359Y-61833210D01*
X62249930Y-61814159D01*
X62168597Y-61814159D01*
X62118222Y-61804511D01*
X62075540Y-61775568D01*
X62046231Y-61732765D01*
X62036461Y-61682023D01*
X62046231Y-61631160D01*
X62075540Y-61588478D01*
X62118222Y-61559352D01*
X62168597Y-61549644D01*
X62496371Y-61549644D01*
X62541800Y-61530837D01*
X62560118Y-61486629D01*
X62541800Y-61442421D01*
X62496371Y-61423370D01*
X62168597Y-61423370D01*
X62117168Y-61428118D01*
X62069617Y-61442360D01*
X62025944Y-61466097D01*
X61986147Y-61499330D01*
X61952915Y-61539141D01*
X61929178Y-61582861D01*
X61914935Y-61630488D01*
X61910188Y-61682023D01*
X61914524Y-61733246D01*
X61930098Y-61785861D01*
X61956999Y-61832156D01*
X61995227Y-61872132D01*
X62000802Y-61876685D01*
G37*
G36*
X61202128Y-61812937D02*
G01*
X61156454Y-61831988D01*
X61137648Y-61876929D01*
X61156454Y-61921137D01*
X61202128Y-61939211D01*
X61651535Y-61939211D01*
X61697452Y-61921137D01*
X61716015Y-61876929D01*
X61697452Y-61831988D01*
X61651535Y-61812937D01*
X61202128Y-61812937D01*
G37*
G36*
X60423726Y-61442665D02*
G01*
X60379030Y-61423370D01*
X60334089Y-61442665D01*
X60315771Y-61487117D01*
X60315771Y-62138757D01*
X60322293Y-62190200D01*
X60341861Y-62236391D01*
X60370969Y-62273824D01*
X60411516Y-62305807D01*
X60457258Y-62324514D01*
X60503349Y-62330000D01*
X60552541Y-62324256D01*
X60599292Y-62304890D01*
X60629623Y-62281395D01*
X60670072Y-62311013D01*
X60718145Y-62326962D01*
X60754431Y-62330000D01*
X60805034Y-62323362D01*
X60850385Y-62303448D01*
X60887055Y-62273824D01*
X60918481Y-62232409D01*
X60936863Y-62185741D01*
X60942254Y-62138757D01*
X60942254Y-61487117D01*
X60923935Y-61442665D01*
X60879239Y-61423370D01*
X60834298Y-61442665D01*
X60815980Y-61487117D01*
X60815980Y-62138757D01*
X60797418Y-62184431D01*
X60754187Y-62203726D01*
X60710956Y-62184431D01*
X60692149Y-62138757D01*
X60692149Y-61743572D01*
X60673831Y-61698143D01*
X60629134Y-61679581D01*
X60584438Y-61698143D01*
X60565875Y-61743817D01*
X60565875Y-62139979D01*
X60548046Y-62184919D01*
X60504570Y-62203726D01*
X60460607Y-62185163D01*
X60442044Y-62139979D01*
X60442044Y-61487117D01*
X60423726Y-61442665D01*
G37*
G36*
X59709804Y-61924312D02*
G01*
X59508060Y-62231081D01*
X59499267Y-62279197D01*
X59526866Y-62319009D01*
X59562037Y-62330000D01*
X59607457Y-62311135D01*
X59615282Y-62301423D01*
X59870027Y-61910879D01*
X59879095Y-61862061D01*
X59872470Y-61845422D01*
X59833727Y-61813823D01*
X59815806Y-61811716D01*
X59800418Y-61811716D01*
X59750165Y-61802130D01*
X59707850Y-61773370D01*
X59679091Y-61731055D01*
X59669504Y-61680802D01*
X59679335Y-61630366D01*
X59708827Y-61587990D01*
X59751997Y-61559230D01*
X59803349Y-61549644D01*
X59995324Y-61549644D01*
X59995324Y-62266008D01*
X60013886Y-62311681D01*
X60058583Y-62330000D01*
X60103279Y-62311681D01*
X60121598Y-62266252D01*
X60121598Y-61487117D01*
X60103035Y-61442665D01*
X60057117Y-61423370D01*
X59803349Y-61423370D01*
X59751860Y-61428118D01*
X59704125Y-61442360D01*
X59660146Y-61466097D01*
X59619923Y-61499330D01*
X59586370Y-61539141D01*
X59562404Y-61582861D01*
X59548024Y-61630488D01*
X59543230Y-61682023D01*
X59548025Y-61732727D01*
X59562407Y-61780426D01*
X59586378Y-61825120D01*
X59592323Y-61833698D01*
X59624891Y-61871723D01*
X59665067Y-61903357D01*
X59709804Y-61924312D01*
G37*
G36*
X59061790Y-61417016D02*
G01*
X59115315Y-61426608D01*
X59165240Y-61445153D01*
X59211565Y-61472650D01*
X59254291Y-61509099D01*
X59276216Y-61533016D01*
X59307550Y-61577717D01*
X59329931Y-61626041D01*
X59343360Y-61677988D01*
X59347836Y-61733558D01*
X59347836Y-62019811D01*
X59346375Y-62052013D01*
X59336783Y-62105538D01*
X59318238Y-62155463D01*
X59290741Y-62201789D01*
X59254291Y-62244515D01*
X59230317Y-62266382D01*
X59185534Y-62297634D01*
X59137152Y-62319957D01*
X59085170Y-62333351D01*
X59029588Y-62337815D01*
X59028855Y-62337815D01*
X59027390Y-62337815D01*
X59025924Y-62337815D01*
X59023970Y-62337815D01*
X59014200Y-62337815D01*
X59012002Y-62337815D01*
X59010537Y-62337815D01*
X59009316Y-62337815D01*
X59008583Y-62337815D01*
X58976324Y-62336357D01*
X58922717Y-62326790D01*
X58872733Y-62308294D01*
X58826373Y-62280869D01*
X58783635Y-62244515D01*
X58761711Y-62220541D01*
X58730377Y-62175758D01*
X58707995Y-62127375D01*
X58694566Y-62075393D01*
X58690090Y-62019811D01*
X58690090Y-61733558D01*
X58690101Y-61733314D01*
X58816364Y-61733314D01*
X58816364Y-62020055D01*
X58821802Y-62067974D01*
X58840346Y-62115009D01*
X58872051Y-62156099D01*
X58909312Y-62185336D01*
X58955975Y-62204990D01*
X59008583Y-62211542D01*
X59009316Y-62211542D01*
X59010537Y-62211542D01*
X59012002Y-62211542D01*
X59014200Y-62211542D01*
X59023970Y-62211542D01*
X59025924Y-62211542D01*
X59027390Y-62211542D01*
X59028855Y-62211542D01*
X59029588Y-62211542D01*
X59077659Y-62206127D01*
X59124862Y-62187664D01*
X59166120Y-62156099D01*
X59195357Y-62118990D01*
X59215011Y-62072495D01*
X59221563Y-62020055D01*
X59221563Y-61733314D01*
X59216148Y-61686097D01*
X59197685Y-61639337D01*
X59166120Y-61598004D01*
X59128858Y-61568380D01*
X59082196Y-61548466D01*
X59029588Y-61541828D01*
X59028855Y-61541828D01*
X59027390Y-61541828D01*
X59025924Y-61541828D01*
X59023970Y-61541828D01*
X59014200Y-61541828D01*
X59012002Y-61541828D01*
X59010537Y-61541828D01*
X59009316Y-61541828D01*
X59008583Y-61541828D01*
X58960512Y-61547314D01*
X58913309Y-61566021D01*
X58872051Y-61598004D01*
X58842685Y-61635356D01*
X58822944Y-61681622D01*
X58816364Y-61733314D01*
X58690101Y-61733314D01*
X58691552Y-61701360D01*
X58701144Y-61647860D01*
X58719688Y-61597984D01*
X58747186Y-61551730D01*
X58783635Y-61509099D01*
X58807613Y-61487175D01*
X58852421Y-61455841D01*
X58900852Y-61433459D01*
X58952906Y-61420031D01*
X59008583Y-61415554D01*
X59009316Y-61415554D01*
X59010537Y-61415554D01*
X59012002Y-61415554D01*
X59014200Y-61415554D01*
X59023970Y-61415554D01*
X59025924Y-61415554D01*
X59027390Y-61415554D01*
X59028855Y-61415554D01*
X59029588Y-61415554D01*
X59061790Y-61417016D01*
G37*
G36*
X58256765Y-61417016D02*
G01*
X58310290Y-61426608D01*
X58360215Y-61445153D01*
X58406541Y-61472650D01*
X58449267Y-61509099D01*
X58471191Y-61533016D01*
X58502525Y-61577717D01*
X58524907Y-61626041D01*
X58538336Y-61677988D01*
X58542812Y-61733558D01*
X58542812Y-62019811D01*
X58541350Y-62052013D01*
X58531758Y-62105538D01*
X58513214Y-62155463D01*
X58485716Y-62201789D01*
X58449267Y-62244515D01*
X58425293Y-62266382D01*
X58380510Y-62297634D01*
X58332128Y-62319957D01*
X58280145Y-62333351D01*
X58224563Y-62337815D01*
X58223831Y-62337815D01*
X58222365Y-62337815D01*
X58220900Y-62337815D01*
X58218946Y-62337815D01*
X58209176Y-62337815D01*
X58206978Y-62337815D01*
X58205512Y-62337815D01*
X58204291Y-62337815D01*
X58203558Y-62337815D01*
X58171299Y-62336357D01*
X58117693Y-62326790D01*
X58067709Y-62308294D01*
X58021348Y-62280869D01*
X57978611Y-62244515D01*
X57956686Y-62220541D01*
X57925352Y-62175758D01*
X57902971Y-62127375D01*
X57889542Y-62075393D01*
X57885066Y-62019811D01*
X57885066Y-61733558D01*
X57885077Y-61733314D01*
X58011339Y-61733314D01*
X58011339Y-62020055D01*
X58016778Y-62067974D01*
X58035322Y-62115009D01*
X58067027Y-62156099D01*
X58104288Y-62185336D01*
X58150951Y-62204990D01*
X58203558Y-62211542D01*
X58204291Y-62211542D01*
X58205512Y-62211542D01*
X58206978Y-62211542D01*
X58209176Y-62211542D01*
X58218946Y-62211542D01*
X58220900Y-62211542D01*
X58222365Y-62211542D01*
X58223831Y-62211542D01*
X58224563Y-62211542D01*
X58272634Y-62206127D01*
X58319837Y-62187664D01*
X58361095Y-62156099D01*
X58390333Y-62118990D01*
X58409987Y-62072495D01*
X58416538Y-62020055D01*
X58416538Y-61733314D01*
X58411124Y-61686097D01*
X58392661Y-61639337D01*
X58361095Y-61598004D01*
X58323834Y-61568380D01*
X58277171Y-61548466D01*
X58224563Y-61541828D01*
X58223831Y-61541828D01*
X58222365Y-61541828D01*
X58220900Y-61541828D01*
X58218946Y-61541828D01*
X58209176Y-61541828D01*
X58206978Y-61541828D01*
X58205512Y-61541828D01*
X58204291Y-61541828D01*
X58203558Y-61541828D01*
X58155487Y-61547314D01*
X58108284Y-61566021D01*
X58067027Y-61598004D01*
X58037660Y-61635356D01*
X58017920Y-61681622D01*
X58011339Y-61733314D01*
X57885077Y-61733314D01*
X57886527Y-61701360D01*
X57896119Y-61647860D01*
X57914664Y-61597984D01*
X57942161Y-61551730D01*
X57978611Y-61509099D01*
X58002589Y-61487175D01*
X58047396Y-61455841D01*
X58095827Y-61433459D01*
X58147881Y-61420031D01*
X58203558Y-61415554D01*
X58204291Y-61415554D01*
X58205512Y-61415554D01*
X58206978Y-61415554D01*
X58209176Y-61415554D01*
X58218946Y-61415554D01*
X58220900Y-61415554D01*
X58222365Y-61415554D01*
X58223831Y-61415554D01*
X58224563Y-61415554D01*
X58256765Y-61417016D01*
G37*
G36*
X57283251Y-61423370D02*
G01*
X57232787Y-61430037D01*
X57187518Y-61450037D01*
X57150872Y-61479790D01*
X57119445Y-61521066D01*
X57101063Y-61567653D01*
X57095673Y-61614612D01*
X57095673Y-62266252D01*
X57114235Y-62311681D01*
X57158932Y-62330000D01*
X57203628Y-62311681D01*
X57221946Y-62266008D01*
X57221946Y-61613391D01*
X57240509Y-61568450D01*
X57284473Y-61549644D01*
X57327948Y-61568450D01*
X57345778Y-61613391D01*
X57345778Y-62009064D01*
X57364340Y-62054982D01*
X57409036Y-62073300D01*
X57453733Y-62054982D01*
X57472051Y-62009064D01*
X57472051Y-61613391D01*
X57490614Y-61568450D01*
X57534089Y-61549644D01*
X57577564Y-61568450D01*
X57595882Y-61613391D01*
X57595882Y-62266008D01*
X57614445Y-62311681D01*
X57659141Y-62330000D01*
X57703838Y-62311681D01*
X57722156Y-62266252D01*
X57722156Y-61614612D01*
X57715662Y-61563198D01*
X57696181Y-61517094D01*
X57667201Y-61479790D01*
X57626626Y-61447668D01*
X57580797Y-61428880D01*
X57534577Y-61423370D01*
X57485386Y-61429200D01*
X57438634Y-61448858D01*
X57408304Y-61472707D01*
X57367706Y-61442642D01*
X57319552Y-61426454D01*
X57283251Y-61423370D01*
G37*
G36*
X56371981Y-61812937D02*
G01*
X56326308Y-61831988D01*
X56307501Y-61876929D01*
X56326308Y-61921137D01*
X56371981Y-61939211D01*
X56821388Y-61939211D01*
X56867306Y-61921137D01*
X56885868Y-61876929D01*
X56867306Y-61831988D01*
X56821388Y-61812937D01*
X56371981Y-61812937D01*
G37*
G36*
X55535694Y-62203726D02*
G01*
X55489776Y-62222777D01*
X55471214Y-62267718D01*
X55489776Y-62311926D01*
X55535450Y-62330000D01*
X56048115Y-62330000D01*
X56093789Y-62311926D01*
X56112107Y-62267718D01*
X56093789Y-62222777D01*
X56048360Y-62203726D01*
X55830739Y-62203726D01*
X55830739Y-61643921D01*
X55950174Y-61763845D01*
X55995847Y-61782896D01*
X56040544Y-61763845D01*
X56058862Y-61718415D01*
X56041277Y-61674207D01*
X55813154Y-61445840D01*
X55808025Y-61442177D01*
X55803384Y-61444375D01*
X55792882Y-61431674D01*
X55743940Y-61431098D01*
X55742323Y-61431674D01*
X55729378Y-61441688D01*
X55725471Y-61443154D01*
X55727669Y-61449993D01*
X55721318Y-61446817D01*
X55719609Y-61449748D01*
X55709351Y-61466601D01*
X55704466Y-61490537D01*
X55704466Y-62203726D01*
X55535694Y-62203726D01*
G37*
G36*
X89393475Y-56023370D02*
G01*
X89335672Y-56027371D01*
X89281150Y-56039376D01*
X89229907Y-56059383D01*
X89181945Y-56087392D01*
X89137263Y-56123405D01*
X89123098Y-56137187D01*
X89084999Y-56181357D01*
X89054782Y-56228687D01*
X89032448Y-56279176D01*
X89017997Y-56332826D01*
X89011428Y-56389635D01*
X89010990Y-56409274D01*
X89010990Y-56544096D01*
X89013727Y-56592944D01*
X89024238Y-56648540D01*
X89042630Y-56700839D01*
X89068905Y-56749840D01*
X89103063Y-56795544D01*
X89123098Y-56817159D01*
X89166687Y-56855507D01*
X89213556Y-56885921D01*
X89263704Y-56908401D01*
X89317134Y-56922947D01*
X89373843Y-56929559D01*
X89393475Y-56930000D01*
X89558583Y-56930000D01*
X89603524Y-56911681D01*
X89621842Y-56866985D01*
X89603524Y-56822288D01*
X89558827Y-56803726D01*
X89393963Y-56803726D01*
X89342779Y-56798963D01*
X89295472Y-56784675D01*
X89252043Y-56760861D01*
X89212491Y-56727522D01*
X89179579Y-56687344D01*
X89156071Y-56643258D01*
X89141966Y-56595265D01*
X89137264Y-56543363D01*
X89137264Y-56408541D01*
X89141950Y-56357296D01*
X89156010Y-56309806D01*
X89179442Y-56266071D01*
X89212247Y-56226092D01*
X89251661Y-56192646D01*
X89294923Y-56168756D01*
X89342031Y-56154422D01*
X89392986Y-56149644D01*
X89495568Y-56149644D01*
X89495568Y-56654249D01*
X89514131Y-56699923D01*
X89558827Y-56718241D01*
X89603524Y-56699923D01*
X89621842Y-56654494D01*
X89621842Y-56087117D01*
X89603768Y-56042665D01*
X89558583Y-56023370D01*
X89393475Y-56023370D01*
G37*
G36*
X88562034Y-56017016D02*
G01*
X88615559Y-56026608D01*
X88665484Y-56045153D01*
X88711810Y-56072650D01*
X88754535Y-56109099D01*
X88776460Y-56133016D01*
X88807794Y-56177717D01*
X88830175Y-56226041D01*
X88843604Y-56277988D01*
X88848080Y-56333558D01*
X88848080Y-56619811D01*
X88846619Y-56652013D01*
X88837027Y-56705538D01*
X88818482Y-56755463D01*
X88790985Y-56801789D01*
X88754535Y-56844515D01*
X88730561Y-56866382D01*
X88685779Y-56897634D01*
X88637396Y-56919957D01*
X88585414Y-56933351D01*
X88529832Y-56937815D01*
X88529099Y-56937815D01*
X88527634Y-56937815D01*
X88526168Y-56937815D01*
X88524214Y-56937815D01*
X88514445Y-56937815D01*
X88512247Y-56937815D01*
X88510781Y-56937815D01*
X88509560Y-56937815D01*
X88508827Y-56937815D01*
X88476568Y-56936357D01*
X88422961Y-56926790D01*
X88372978Y-56908294D01*
X88326617Y-56880869D01*
X88283879Y-56844515D01*
X88261955Y-56820541D01*
X88230621Y-56775758D01*
X88208240Y-56727375D01*
X88194811Y-56675393D01*
X88190334Y-56619811D01*
X88190334Y-56333558D01*
X88190345Y-56333314D01*
X88316608Y-56333314D01*
X88316608Y-56620055D01*
X88322046Y-56667974D01*
X88340591Y-56715009D01*
X88372295Y-56756099D01*
X88409557Y-56785336D01*
X88456219Y-56804990D01*
X88508827Y-56811542D01*
X88509560Y-56811542D01*
X88510781Y-56811542D01*
X88512247Y-56811542D01*
X88514445Y-56811542D01*
X88524214Y-56811542D01*
X88526168Y-56811542D01*
X88527634Y-56811542D01*
X88529099Y-56811542D01*
X88529832Y-56811542D01*
X88577903Y-56806127D01*
X88625106Y-56787664D01*
X88666364Y-56756099D01*
X88695601Y-56718990D01*
X88715256Y-56672495D01*
X88721807Y-56620055D01*
X88721807Y-56333314D01*
X88716393Y-56286097D01*
X88697930Y-56239337D01*
X88666364Y-56198004D01*
X88629102Y-56168380D01*
X88582440Y-56148466D01*
X88529832Y-56141828D01*
X88529099Y-56141828D01*
X88527634Y-56141828D01*
X88526168Y-56141828D01*
X88524214Y-56141828D01*
X88514445Y-56141828D01*
X88512247Y-56141828D01*
X88510781Y-56141828D01*
X88509560Y-56141828D01*
X88508827Y-56141828D01*
X88460756Y-56147314D01*
X88413553Y-56166021D01*
X88372295Y-56198004D01*
X88342929Y-56235356D01*
X88323188Y-56281622D01*
X88316608Y-56333314D01*
X88190345Y-56333314D01*
X88191796Y-56301360D01*
X88201388Y-56247860D01*
X88219933Y-56197984D01*
X88247430Y-56151730D01*
X88283879Y-56109099D01*
X88307857Y-56087175D01*
X88352665Y-56055841D01*
X88401096Y-56033459D01*
X88453150Y-56020031D01*
X88508827Y-56015554D01*
X88509560Y-56015554D01*
X88510781Y-56015554D01*
X88512247Y-56015554D01*
X88514445Y-56015554D01*
X88524214Y-56015554D01*
X88526168Y-56015554D01*
X88527634Y-56015554D01*
X88529099Y-56015554D01*
X88529832Y-56015554D01*
X88562034Y-56017016D01*
G37*
G36*
X87508897Y-56042665D02*
G01*
X87464200Y-56023370D01*
X87419260Y-56042665D01*
X87400942Y-56087117D01*
X87400942Y-56738757D01*
X87407464Y-56790200D01*
X87427032Y-56836391D01*
X87456140Y-56873824D01*
X87496687Y-56905807D01*
X87542429Y-56924514D01*
X87588520Y-56930000D01*
X87637712Y-56924256D01*
X87684463Y-56904890D01*
X87714794Y-56881395D01*
X87755243Y-56911013D01*
X87803316Y-56926962D01*
X87839602Y-56930000D01*
X87890205Y-56923362D01*
X87935556Y-56903448D01*
X87972226Y-56873824D01*
X88003652Y-56832409D01*
X88022034Y-56785741D01*
X88027424Y-56738757D01*
X88027424Y-56087117D01*
X88009106Y-56042665D01*
X87964410Y-56023370D01*
X87919469Y-56042665D01*
X87901151Y-56087117D01*
X87901151Y-56738757D01*
X87882588Y-56784431D01*
X87839357Y-56803726D01*
X87796127Y-56784431D01*
X87777320Y-56738757D01*
X87777320Y-56343572D01*
X87759002Y-56298143D01*
X87714305Y-56279581D01*
X87669609Y-56298143D01*
X87651046Y-56343817D01*
X87651046Y-56739979D01*
X87633217Y-56784919D01*
X87589741Y-56803726D01*
X87545778Y-56785163D01*
X87527215Y-56739979D01*
X87527215Y-56087117D01*
X87508897Y-56042665D01*
G37*
G36*
X86689462Y-56042665D02*
G01*
X86644766Y-56023370D01*
X86599825Y-56042665D01*
X86581507Y-56087117D01*
X86581507Y-56866252D01*
X86594452Y-56904354D01*
X86626203Y-56927069D01*
X86645254Y-56930000D01*
X86690513Y-56911135D01*
X86698255Y-56901423D01*
X87096127Y-56299364D01*
X87096127Y-56866252D01*
X87114689Y-56911681D01*
X87159385Y-56930000D01*
X87204082Y-56911681D01*
X87222400Y-56866252D01*
X87222400Y-56087362D01*
X87209699Y-56049993D01*
X87176727Y-56027034D01*
X87136671Y-56027766D01*
X87105408Y-56052435D01*
X86707780Y-56654005D01*
X86707780Y-56087117D01*
X86689462Y-56042665D01*
G37*
G36*
X85871737Y-56803726D02*
G01*
X85826308Y-56822288D01*
X85807745Y-56866985D01*
X85826308Y-56911681D01*
X85871737Y-56930000D01*
X86306245Y-56930000D01*
X86351919Y-56911681D01*
X86370481Y-56866252D01*
X86370481Y-56087117D01*
X86352163Y-56042665D01*
X86307466Y-56023370D01*
X86262526Y-56042665D01*
X86244207Y-56087117D01*
X86244207Y-56803726D01*
X85871737Y-56803726D01*
G37*
G36*
X85341936Y-56017016D02*
G01*
X85395461Y-56026608D01*
X85445386Y-56045153D01*
X85491712Y-56072650D01*
X85534438Y-56109099D01*
X85556362Y-56133016D01*
X85587696Y-56177717D01*
X85610078Y-56226041D01*
X85623506Y-56277988D01*
X85627983Y-56333558D01*
X85627983Y-56619811D01*
X85626521Y-56652013D01*
X85616929Y-56705538D01*
X85598385Y-56755463D01*
X85570887Y-56801789D01*
X85534438Y-56844515D01*
X85510464Y-56866382D01*
X85465681Y-56897634D01*
X85417298Y-56919957D01*
X85365316Y-56933351D01*
X85309734Y-56937815D01*
X85309002Y-56937815D01*
X85307536Y-56937815D01*
X85306071Y-56937815D01*
X85304117Y-56937815D01*
X85294347Y-56937815D01*
X85292149Y-56937815D01*
X85290683Y-56937815D01*
X85289462Y-56937815D01*
X85288729Y-56937815D01*
X85256470Y-56936357D01*
X85202864Y-56926790D01*
X85152880Y-56908294D01*
X85106519Y-56880869D01*
X85063782Y-56844515D01*
X85041857Y-56820541D01*
X85010523Y-56775758D01*
X84988142Y-56727375D01*
X84974713Y-56675393D01*
X84970237Y-56619811D01*
X84970237Y-56333558D01*
X84970248Y-56333314D01*
X85096510Y-56333314D01*
X85096510Y-56620055D01*
X85101949Y-56667974D01*
X85120493Y-56715009D01*
X85152198Y-56756099D01*
X85189459Y-56785336D01*
X85236122Y-56804990D01*
X85288729Y-56811542D01*
X85289462Y-56811542D01*
X85290683Y-56811542D01*
X85292149Y-56811542D01*
X85294347Y-56811542D01*
X85304117Y-56811542D01*
X85306071Y-56811542D01*
X85307536Y-56811542D01*
X85309002Y-56811542D01*
X85309734Y-56811542D01*
X85357805Y-56806127D01*
X85405008Y-56787664D01*
X85446266Y-56756099D01*
X85475504Y-56718990D01*
X85495158Y-56672495D01*
X85501709Y-56620055D01*
X85501709Y-56333314D01*
X85496295Y-56286097D01*
X85477832Y-56239337D01*
X85446266Y-56198004D01*
X85409005Y-56168380D01*
X85362342Y-56148466D01*
X85309734Y-56141828D01*
X85309002Y-56141828D01*
X85307536Y-56141828D01*
X85306071Y-56141828D01*
X85304117Y-56141828D01*
X85294347Y-56141828D01*
X85292149Y-56141828D01*
X85290683Y-56141828D01*
X85289462Y-56141828D01*
X85288729Y-56141828D01*
X85240658Y-56147314D01*
X85193455Y-56166021D01*
X85152198Y-56198004D01*
X85122831Y-56235356D01*
X85103091Y-56281622D01*
X85096510Y-56333314D01*
X84970248Y-56333314D01*
X84971698Y-56301360D01*
X84981290Y-56247860D01*
X84999835Y-56197984D01*
X85027332Y-56151730D01*
X85063782Y-56109099D01*
X85087760Y-56087175D01*
X85132567Y-56055841D01*
X85180998Y-56033459D01*
X85233052Y-56020031D01*
X85288729Y-56015554D01*
X85289462Y-56015554D01*
X85290683Y-56015554D01*
X85292149Y-56015554D01*
X85294347Y-56015554D01*
X85304117Y-56015554D01*
X85306071Y-56015554D01*
X85307536Y-56015554D01*
X85309002Y-56015554D01*
X85309734Y-56015554D01*
X85341936Y-56017016D01*
G37*
G36*
X84704745Y-56102505D02*
G01*
X84664986Y-56068625D01*
X84621791Y-56043066D01*
X84575160Y-56025829D01*
X84525093Y-56016913D01*
X84494940Y-56015554D01*
X84442814Y-56019715D01*
X84394148Y-56032197D01*
X84348941Y-56053001D01*
X84307194Y-56082126D01*
X84284891Y-56102505D01*
X84250916Y-56142180D01*
X84225286Y-56185338D01*
X84208000Y-56231979D01*
X84199059Y-56282103D01*
X84197697Y-56312309D01*
X84197697Y-56866496D01*
X84216259Y-56911681D01*
X84260956Y-56930000D01*
X84305652Y-56911681D01*
X84323970Y-56866252D01*
X84323970Y-56311332D01*
X84331046Y-56261232D01*
X84352272Y-56217177D01*
X84374284Y-56191165D01*
X84414687Y-56161100D01*
X84460792Y-56144911D01*
X84494696Y-56141828D01*
X84544636Y-56148697D01*
X84588943Y-56169305D01*
X84615352Y-56190676D01*
X84645863Y-56230301D01*
X84663026Y-56279972D01*
X84665422Y-56309623D01*
X84665422Y-56554842D01*
X84472958Y-56554842D01*
X84427529Y-56573161D01*
X84409211Y-56617857D01*
X84427529Y-56662798D01*
X84472958Y-56681116D01*
X84665422Y-56681116D01*
X84665422Y-56865275D01*
X84683740Y-56911437D01*
X84728681Y-56930000D01*
X84773377Y-56911681D01*
X84791695Y-56866496D01*
X84791695Y-56312309D01*
X84787535Y-56260195D01*
X84775052Y-56211564D01*
X84754249Y-56166416D01*
X84725124Y-56124750D01*
X84704745Y-56102505D01*
G37*
G36*
X83758304Y-56023370D02*
G01*
X83700501Y-56027371D01*
X83645979Y-56039376D01*
X83594736Y-56059383D01*
X83546774Y-56087392D01*
X83502092Y-56123405D01*
X83487927Y-56137187D01*
X83449828Y-56181357D01*
X83419611Y-56228687D01*
X83397278Y-56279176D01*
X83382826Y-56332826D01*
X83376257Y-56389635D01*
X83375819Y-56409274D01*
X83375819Y-56544096D01*
X83378556Y-56592944D01*
X83389067Y-56648540D01*
X83407459Y-56700839D01*
X83433734Y-56749840D01*
X83467892Y-56795544D01*
X83487927Y-56817159D01*
X83531516Y-56855507D01*
X83578385Y-56885921D01*
X83628534Y-56908401D01*
X83681963Y-56922947D01*
X83738672Y-56929559D01*
X83758304Y-56930000D01*
X83923412Y-56930000D01*
X83968353Y-56911681D01*
X83986671Y-56866985D01*
X83968353Y-56822288D01*
X83923656Y-56803726D01*
X83758792Y-56803726D01*
X83707608Y-56798963D01*
X83660301Y-56784675D01*
X83616872Y-56760861D01*
X83577320Y-56727522D01*
X83544408Y-56687344D01*
X83520900Y-56643258D01*
X83506795Y-56595265D01*
X83502093Y-56543363D01*
X83502093Y-56408541D01*
X83506779Y-56357296D01*
X83520839Y-56309806D01*
X83544271Y-56266071D01*
X83577076Y-56226092D01*
X83616490Y-56192646D01*
X83659752Y-56168756D01*
X83706860Y-56154422D01*
X83757815Y-56149644D01*
X83860397Y-56149644D01*
X83860397Y-56654249D01*
X83878960Y-56699923D01*
X83923656Y-56718241D01*
X83968353Y-56699923D01*
X83986671Y-56654494D01*
X83986671Y-56087117D01*
X83968597Y-56042665D01*
X83923412Y-56023370D01*
X83758304Y-56023370D01*
G37*
D11*
X94254533Y-64624809D02*
X94587866Y-64624809D01*
X94587866Y-65148619D02*
X94587866Y-64148619D01*
X94587866Y-64148619D02*
X94111676Y-64148619D01*
X93397390Y-64624809D02*
X93254533Y-64672428D01*
X93254533Y-64672428D02*
X93206914Y-64720047D01*
X93206914Y-64720047D02*
X93159295Y-64815285D01*
X93159295Y-64815285D02*
X93159295Y-64958142D01*
X93159295Y-64958142D02*
X93206914Y-65053380D01*
X93206914Y-65053380D02*
X93254533Y-65101000D01*
X93254533Y-65101000D02*
X93349771Y-65148619D01*
X93349771Y-65148619D02*
X93730723Y-65148619D01*
X93730723Y-65148619D02*
X93730723Y-64148619D01*
X93730723Y-64148619D02*
X93397390Y-64148619D01*
X93397390Y-64148619D02*
X93302152Y-64196238D01*
X93302152Y-64196238D02*
X93254533Y-64243857D01*
X93254533Y-64243857D02*
X93206914Y-64339095D01*
X93206914Y-64339095D02*
X93206914Y-64434333D01*
X93206914Y-64434333D02*
X93254533Y-64529571D01*
X93254533Y-64529571D02*
X93302152Y-64577190D01*
X93302152Y-64577190D02*
X93397390Y-64624809D01*
X93397390Y-64624809D02*
X93730723Y-64624809D01*
X92825961Y-64148619D02*
X92206914Y-64148619D01*
X92206914Y-64148619D02*
X92540247Y-64529571D01*
X92540247Y-64529571D02*
X92397390Y-64529571D01*
X92397390Y-64529571D02*
X92302152Y-64577190D01*
X92302152Y-64577190D02*
X92254533Y-64624809D01*
X92254533Y-64624809D02*
X92206914Y-64720047D01*
X92206914Y-64720047D02*
X92206914Y-64958142D01*
X92206914Y-64958142D02*
X92254533Y-65053380D01*
X92254533Y-65053380D02*
X92302152Y-65101000D01*
X92302152Y-65101000D02*
X92397390Y-65148619D01*
X92397390Y-65148619D02*
X92683104Y-65148619D01*
X92683104Y-65148619D02*
X92778342Y-65101000D01*
X92778342Y-65101000D02*
X92825961Y-65053380D01*
X84817857Y-83404819D02*
X85151190Y-82928628D01*
X85389285Y-83404819D02*
X85389285Y-82404819D01*
X85389285Y-82404819D02*
X85008333Y-82404819D01*
X85008333Y-82404819D02*
X84913095Y-82452438D01*
X84913095Y-82452438D02*
X84865476Y-82500057D01*
X84865476Y-82500057D02*
X84817857Y-82595295D01*
X84817857Y-82595295D02*
X84817857Y-82738152D01*
X84817857Y-82738152D02*
X84865476Y-82833390D01*
X84865476Y-82833390D02*
X84913095Y-82881009D01*
X84913095Y-82881009D02*
X85008333Y-82928628D01*
X85008333Y-82928628D02*
X85389285Y-82928628D01*
X83865476Y-83404819D02*
X84436904Y-83404819D01*
X84151190Y-83404819D02*
X84151190Y-82404819D01*
X84151190Y-82404819D02*
X84246428Y-82547676D01*
X84246428Y-82547676D02*
X84341666Y-82642914D01*
X84341666Y-82642914D02*
X84436904Y-82690533D01*
X82913095Y-83404819D02*
X83484523Y-83404819D01*
X83198809Y-83404819D02*
X83198809Y-82404819D01*
X83198809Y-82404819D02*
X83294047Y-82547676D01*
X83294047Y-82547676D02*
X83389285Y-82642914D01*
X83389285Y-82642914D02*
X83484523Y-82690533D01*
X124856618Y-53636152D02*
X124475666Y-53636152D01*
X124713761Y-53302819D02*
X124713761Y-54159961D01*
X124713761Y-54159961D02*
X124666142Y-54255200D01*
X124666142Y-54255200D02*
X124570904Y-54302819D01*
X124570904Y-54302819D02*
X124475666Y-54302819D01*
X124189951Y-54255200D02*
X124047094Y-54302819D01*
X124047094Y-54302819D02*
X123808999Y-54302819D01*
X123808999Y-54302819D02*
X123713761Y-54255200D01*
X123713761Y-54255200D02*
X123666142Y-54207580D01*
X123666142Y-54207580D02*
X123618523Y-54112342D01*
X123618523Y-54112342D02*
X123618523Y-54017104D01*
X123618523Y-54017104D02*
X123666142Y-53921866D01*
X123666142Y-53921866D02*
X123713761Y-53874247D01*
X123713761Y-53874247D02*
X123808999Y-53826628D01*
X123808999Y-53826628D02*
X123999475Y-53779009D01*
X123999475Y-53779009D02*
X124094713Y-53731390D01*
X124094713Y-53731390D02*
X124142332Y-53683771D01*
X124142332Y-53683771D02*
X124189951Y-53588533D01*
X124189951Y-53588533D02*
X124189951Y-53493295D01*
X124189951Y-53493295D02*
X124142332Y-53398057D01*
X124142332Y-53398057D02*
X124094713Y-53350438D01*
X124094713Y-53350438D02*
X123999475Y-53302819D01*
X123999475Y-53302819D02*
X123761380Y-53302819D01*
X123761380Y-53302819D02*
X123618523Y-53350438D01*
X122618523Y-54207580D02*
X122666142Y-54255200D01*
X122666142Y-54255200D02*
X122808999Y-54302819D01*
X122808999Y-54302819D02*
X122904237Y-54302819D01*
X122904237Y-54302819D02*
X123047094Y-54255200D01*
X123047094Y-54255200D02*
X123142332Y-54159961D01*
X123142332Y-54159961D02*
X123189951Y-54064723D01*
X123189951Y-54064723D02*
X123237570Y-53874247D01*
X123237570Y-53874247D02*
X123237570Y-53731390D01*
X123237570Y-53731390D02*
X123189951Y-53540914D01*
X123189951Y-53540914D02*
X123142332Y-53445676D01*
X123142332Y-53445676D02*
X123047094Y-53350438D01*
X123047094Y-53350438D02*
X122904237Y-53302819D01*
X122904237Y-53302819D02*
X122808999Y-53302819D01*
X122808999Y-53302819D02*
X122666142Y-53350438D01*
X122666142Y-53350438D02*
X122618523Y-53398057D01*
X121713761Y-54302819D02*
X122189951Y-54302819D01*
X122189951Y-54302819D02*
X122189951Y-53302819D01*
X120856618Y-54302819D02*
X121428046Y-54302819D01*
X121142332Y-54302819D02*
X121142332Y-53302819D01*
X121142332Y-53302819D02*
X121237570Y-53445676D01*
X121237570Y-53445676D02*
X121332808Y-53540914D01*
X121332808Y-53540914D02*
X121428046Y-53588533D01*
X82742857Y-67834580D02*
X82790476Y-67882200D01*
X82790476Y-67882200D02*
X82933333Y-67929819D01*
X82933333Y-67929819D02*
X83028571Y-67929819D01*
X83028571Y-67929819D02*
X83171428Y-67882200D01*
X83171428Y-67882200D02*
X83266666Y-67786961D01*
X83266666Y-67786961D02*
X83314285Y-67691723D01*
X83314285Y-67691723D02*
X83361904Y-67501247D01*
X83361904Y-67501247D02*
X83361904Y-67358390D01*
X83361904Y-67358390D02*
X83314285Y-67167914D01*
X83314285Y-67167914D02*
X83266666Y-67072676D01*
X83266666Y-67072676D02*
X83171428Y-66977438D01*
X83171428Y-66977438D02*
X83028571Y-66929819D01*
X83028571Y-66929819D02*
X82933333Y-66929819D01*
X82933333Y-66929819D02*
X82790476Y-66977438D01*
X82790476Y-66977438D02*
X82742857Y-67025057D01*
X81790476Y-67929819D02*
X82361904Y-67929819D01*
X82076190Y-67929819D02*
X82076190Y-66929819D01*
X82076190Y-66929819D02*
X82171428Y-67072676D01*
X82171428Y-67072676D02*
X82266666Y-67167914D01*
X82266666Y-67167914D02*
X82361904Y-67215533D01*
X81409523Y-67025057D02*
X81361904Y-66977438D01*
X81361904Y-66977438D02*
X81266666Y-66929819D01*
X81266666Y-66929819D02*
X81028571Y-66929819D01*
X81028571Y-66929819D02*
X80933333Y-66977438D01*
X80933333Y-66977438D02*
X80885714Y-67025057D01*
X80885714Y-67025057D02*
X80838095Y-67120295D01*
X80838095Y-67120295D02*
X80838095Y-67215533D01*
X80838095Y-67215533D02*
X80885714Y-67358390D01*
X80885714Y-67358390D02*
X81457142Y-67929819D01*
X81457142Y-67929819D02*
X80838095Y-67929819D01*
X119292428Y-58335152D02*
X118911476Y-58335152D01*
X119149571Y-58001819D02*
X119149571Y-58858961D01*
X119149571Y-58858961D02*
X119101952Y-58954200D01*
X119101952Y-58954200D02*
X119006714Y-59001819D01*
X119006714Y-59001819D02*
X118911476Y-59001819D01*
X118625761Y-58954200D02*
X118482904Y-59001819D01*
X118482904Y-59001819D02*
X118244809Y-59001819D01*
X118244809Y-59001819D02*
X118149571Y-58954200D01*
X118149571Y-58954200D02*
X118101952Y-58906580D01*
X118101952Y-58906580D02*
X118054333Y-58811342D01*
X118054333Y-58811342D02*
X118054333Y-58716104D01*
X118054333Y-58716104D02*
X118101952Y-58620866D01*
X118101952Y-58620866D02*
X118149571Y-58573247D01*
X118149571Y-58573247D02*
X118244809Y-58525628D01*
X118244809Y-58525628D02*
X118435285Y-58478009D01*
X118435285Y-58478009D02*
X118530523Y-58430390D01*
X118530523Y-58430390D02*
X118578142Y-58382771D01*
X118578142Y-58382771D02*
X118625761Y-58287533D01*
X118625761Y-58287533D02*
X118625761Y-58192295D01*
X118625761Y-58192295D02*
X118578142Y-58097057D01*
X118578142Y-58097057D02*
X118530523Y-58049438D01*
X118530523Y-58049438D02*
X118435285Y-58001819D01*
X118435285Y-58001819D02*
X118197190Y-58001819D01*
X118197190Y-58001819D02*
X118054333Y-58049438D01*
X117625761Y-59001819D02*
X117625761Y-58001819D01*
X117625761Y-58001819D02*
X117387666Y-58001819D01*
X117387666Y-58001819D02*
X117244809Y-58049438D01*
X117244809Y-58049438D02*
X117149571Y-58144676D01*
X117149571Y-58144676D02*
X117101952Y-58239914D01*
X117101952Y-58239914D02*
X117054333Y-58430390D01*
X117054333Y-58430390D02*
X117054333Y-58573247D01*
X117054333Y-58573247D02*
X117101952Y-58763723D01*
X117101952Y-58763723D02*
X117149571Y-58858961D01*
X117149571Y-58858961D02*
X117244809Y-58954200D01*
X117244809Y-58954200D02*
X117387666Y-59001819D01*
X117387666Y-59001819D02*
X117625761Y-59001819D01*
X116673380Y-58716104D02*
X116197190Y-58716104D01*
X116768618Y-59001819D02*
X116435285Y-58001819D01*
X116435285Y-58001819D02*
X116101952Y-59001819D01*
X115244809Y-59001819D02*
X115816237Y-59001819D01*
X115530523Y-59001819D02*
X115530523Y-58001819D01*
X115530523Y-58001819D02*
X115625761Y-58144676D01*
X115625761Y-58144676D02*
X115720999Y-58239914D01*
X115720999Y-58239914D02*
X115816237Y-58287533D01*
X127200819Y-60063142D02*
X126724628Y-59729809D01*
X127200819Y-59491714D02*
X126200819Y-59491714D01*
X126200819Y-59491714D02*
X126200819Y-59872666D01*
X126200819Y-59872666D02*
X126248438Y-59967904D01*
X126248438Y-59967904D02*
X126296057Y-60015523D01*
X126296057Y-60015523D02*
X126391295Y-60063142D01*
X126391295Y-60063142D02*
X126534152Y-60063142D01*
X126534152Y-60063142D02*
X126629390Y-60015523D01*
X126629390Y-60015523D02*
X126677009Y-59967904D01*
X126677009Y-59967904D02*
X126724628Y-59872666D01*
X126724628Y-59872666D02*
X126724628Y-59491714D01*
X127200819Y-61015523D02*
X127200819Y-60444095D01*
X127200819Y-60729809D02*
X126200819Y-60729809D01*
X126200819Y-60729809D02*
X126343676Y-60634571D01*
X126343676Y-60634571D02*
X126438914Y-60539333D01*
X126438914Y-60539333D02*
X126486533Y-60444095D01*
X126200819Y-61348857D02*
X126200819Y-61967904D01*
X126200819Y-61967904D02*
X126581771Y-61634571D01*
X126581771Y-61634571D02*
X126581771Y-61777428D01*
X126581771Y-61777428D02*
X126629390Y-61872666D01*
X126629390Y-61872666D02*
X126677009Y-61920285D01*
X126677009Y-61920285D02*
X126772247Y-61967904D01*
X126772247Y-61967904D02*
X127010342Y-61967904D01*
X127010342Y-61967904D02*
X127105580Y-61920285D01*
X127105580Y-61920285D02*
X127153200Y-61872666D01*
X127153200Y-61872666D02*
X127200819Y-61777428D01*
X127200819Y-61777428D02*
X127200819Y-61491714D01*
X127200819Y-61491714D02*
X127153200Y-61396476D01*
X127153200Y-61396476D02*
X127105580Y-61348857D01*
X93892666Y-72336819D02*
X94368856Y-72336819D01*
X94368856Y-72336819D02*
X94368856Y-71336819D01*
X93035523Y-72336819D02*
X93606951Y-72336819D01*
X93321237Y-72336819D02*
X93321237Y-71336819D01*
X93321237Y-71336819D02*
X93416475Y-71479676D01*
X93416475Y-71479676D02*
X93511713Y-71574914D01*
X93511713Y-71574914D02*
X93606951Y-71622533D01*
X123898819Y-56729333D02*
X123422628Y-56396000D01*
X123898819Y-56157905D02*
X122898819Y-56157905D01*
X122898819Y-56157905D02*
X122898819Y-56538857D01*
X122898819Y-56538857D02*
X122946438Y-56634095D01*
X122946438Y-56634095D02*
X122994057Y-56681714D01*
X122994057Y-56681714D02*
X123089295Y-56729333D01*
X123089295Y-56729333D02*
X123232152Y-56729333D01*
X123232152Y-56729333D02*
X123327390Y-56681714D01*
X123327390Y-56681714D02*
X123375009Y-56634095D01*
X123375009Y-56634095D02*
X123422628Y-56538857D01*
X123422628Y-56538857D02*
X123422628Y-56157905D01*
X123327390Y-57300762D02*
X123279771Y-57205524D01*
X123279771Y-57205524D02*
X123232152Y-57157905D01*
X123232152Y-57157905D02*
X123136914Y-57110286D01*
X123136914Y-57110286D02*
X123089295Y-57110286D01*
X123089295Y-57110286D02*
X122994057Y-57157905D01*
X122994057Y-57157905D02*
X122946438Y-57205524D01*
X122946438Y-57205524D02*
X122898819Y-57300762D01*
X122898819Y-57300762D02*
X122898819Y-57491238D01*
X122898819Y-57491238D02*
X122946438Y-57586476D01*
X122946438Y-57586476D02*
X122994057Y-57634095D01*
X122994057Y-57634095D02*
X123089295Y-57681714D01*
X123089295Y-57681714D02*
X123136914Y-57681714D01*
X123136914Y-57681714D02*
X123232152Y-57634095D01*
X123232152Y-57634095D02*
X123279771Y-57586476D01*
X123279771Y-57586476D02*
X123327390Y-57491238D01*
X123327390Y-57491238D02*
X123327390Y-57300762D01*
X123327390Y-57300762D02*
X123375009Y-57205524D01*
X123375009Y-57205524D02*
X123422628Y-57157905D01*
X123422628Y-57157905D02*
X123517866Y-57110286D01*
X123517866Y-57110286D02*
X123708342Y-57110286D01*
X123708342Y-57110286D02*
X123803580Y-57157905D01*
X123803580Y-57157905D02*
X123851200Y-57205524D01*
X123851200Y-57205524D02*
X123898819Y-57300762D01*
X123898819Y-57300762D02*
X123898819Y-57491238D01*
X123898819Y-57491238D02*
X123851200Y-57586476D01*
X123851200Y-57586476D02*
X123803580Y-57634095D01*
X123803580Y-57634095D02*
X123708342Y-57681714D01*
X123708342Y-57681714D02*
X123517866Y-57681714D01*
X123517866Y-57681714D02*
X123422628Y-57634095D01*
X123422628Y-57634095D02*
X123375009Y-57586476D01*
X123375009Y-57586476D02*
X123327390Y-57491238D01*
X78525666Y-54588580D02*
X78573285Y-54636200D01*
X78573285Y-54636200D02*
X78716142Y-54683819D01*
X78716142Y-54683819D02*
X78811380Y-54683819D01*
X78811380Y-54683819D02*
X78954237Y-54636200D01*
X78954237Y-54636200D02*
X79049475Y-54540961D01*
X79049475Y-54540961D02*
X79097094Y-54445723D01*
X79097094Y-54445723D02*
X79144713Y-54255247D01*
X79144713Y-54255247D02*
X79144713Y-54112390D01*
X79144713Y-54112390D02*
X79097094Y-53921914D01*
X79097094Y-53921914D02*
X79049475Y-53826676D01*
X79049475Y-53826676D02*
X78954237Y-53731438D01*
X78954237Y-53731438D02*
X78811380Y-53683819D01*
X78811380Y-53683819D02*
X78716142Y-53683819D01*
X78716142Y-53683819D02*
X78573285Y-53731438D01*
X78573285Y-53731438D02*
X78525666Y-53779057D01*
X77668523Y-54017152D02*
X77668523Y-54683819D01*
X77906618Y-53636200D02*
X78144713Y-54350485D01*
X78144713Y-54350485D02*
X77525666Y-54350485D01*
X74040904Y-59525819D02*
X74040904Y-60335342D01*
X74040904Y-60335342D02*
X73993285Y-60430580D01*
X73993285Y-60430580D02*
X73945666Y-60478200D01*
X73945666Y-60478200D02*
X73850428Y-60525819D01*
X73850428Y-60525819D02*
X73659952Y-60525819D01*
X73659952Y-60525819D02*
X73564714Y-60478200D01*
X73564714Y-60478200D02*
X73517095Y-60430580D01*
X73517095Y-60430580D02*
X73469476Y-60335342D01*
X73469476Y-60335342D02*
X73469476Y-59525819D01*
X72469476Y-60525819D02*
X73040904Y-60525819D01*
X72755190Y-60525819D02*
X72755190Y-59525819D01*
X72755190Y-59525819D02*
X72850428Y-59668676D01*
X72850428Y-59668676D02*
X72945666Y-59763914D01*
X72945666Y-59763914D02*
X73040904Y-59811533D01*
X88380866Y-79886980D02*
X88428485Y-79934600D01*
X88428485Y-79934600D02*
X88571342Y-79982219D01*
X88571342Y-79982219D02*
X88666580Y-79982219D01*
X88666580Y-79982219D02*
X88809437Y-79934600D01*
X88809437Y-79934600D02*
X88904675Y-79839361D01*
X88904675Y-79839361D02*
X88952294Y-79744123D01*
X88952294Y-79744123D02*
X88999913Y-79553647D01*
X88999913Y-79553647D02*
X88999913Y-79410790D01*
X88999913Y-79410790D02*
X88952294Y-79220314D01*
X88952294Y-79220314D02*
X88904675Y-79125076D01*
X88904675Y-79125076D02*
X88809437Y-79029838D01*
X88809437Y-79029838D02*
X88666580Y-78982219D01*
X88666580Y-78982219D02*
X88571342Y-78982219D01*
X88571342Y-78982219D02*
X88428485Y-79029838D01*
X88428485Y-79029838D02*
X88380866Y-79077457D01*
X88047532Y-78982219D02*
X87428485Y-78982219D01*
X87428485Y-78982219D02*
X87761818Y-79363171D01*
X87761818Y-79363171D02*
X87618961Y-79363171D01*
X87618961Y-79363171D02*
X87523723Y-79410790D01*
X87523723Y-79410790D02*
X87476104Y-79458409D01*
X87476104Y-79458409D02*
X87428485Y-79553647D01*
X87428485Y-79553647D02*
X87428485Y-79791742D01*
X87428485Y-79791742D02*
X87476104Y-79886980D01*
X87476104Y-79886980D02*
X87523723Y-79934600D01*
X87523723Y-79934600D02*
X87618961Y-79982219D01*
X87618961Y-79982219D02*
X87904675Y-79982219D01*
X87904675Y-79982219D02*
X87999913Y-79934600D01*
X87999913Y-79934600D02*
X88047532Y-79886980D01*
X86944104Y-68720619D02*
X86944104Y-69530142D01*
X86944104Y-69530142D02*
X86896485Y-69625380D01*
X86896485Y-69625380D02*
X86848866Y-69673000D01*
X86848866Y-69673000D02*
X86753628Y-69720619D01*
X86753628Y-69720619D02*
X86563152Y-69720619D01*
X86563152Y-69720619D02*
X86467914Y-69673000D01*
X86467914Y-69673000D02*
X86420295Y-69625380D01*
X86420295Y-69625380D02*
X86372676Y-69530142D01*
X86372676Y-69530142D02*
X86372676Y-68720619D01*
X85991723Y-68720619D02*
X85325057Y-68720619D01*
X85325057Y-68720619D02*
X85753628Y-69720619D01*
X87121999Y-70955819D02*
X87121999Y-71193914D01*
X87360094Y-71098676D02*
X87121999Y-71193914D01*
X87121999Y-71193914D02*
X86883904Y-71098676D01*
X87264856Y-71384390D02*
X87121999Y-71193914D01*
X87121999Y-71193914D02*
X86979142Y-71384390D01*
X87124999Y-71479819D02*
X87124999Y-71717914D01*
X87363094Y-71622676D02*
X87124999Y-71717914D01*
X87124999Y-71717914D02*
X86886904Y-71622676D01*
X87267856Y-71908390D02*
X87124999Y-71717914D01*
X87124999Y-71717914D02*
X86982142Y-71908390D01*
G36*
X36085100Y-68624143D02*
G01*
X35877738Y-68939216D01*
X35869922Y-68981470D01*
X35894347Y-69016397D01*
X35925121Y-69026167D01*
X35969586Y-69004056D01*
X35971772Y-69001009D01*
X36226517Y-68610709D01*
X36232847Y-68562268D01*
X36228715Y-68553068D01*
X36188993Y-68524236D01*
X36178890Y-68523515D01*
X36163502Y-68523515D01*
X36113395Y-68514606D01*
X36070695Y-68487880D01*
X36065561Y-68482970D01*
X36036284Y-68441082D01*
X36024932Y-68391895D01*
X36024772Y-68384785D01*
X36033896Y-68334503D01*
X36061266Y-68291734D01*
X36066294Y-68286599D01*
X36108976Y-68257322D01*
X36159173Y-68245970D01*
X36166433Y-68245811D01*
X36366224Y-68245811D01*
X36366224Y-68969991D01*
X36382344Y-69010046D01*
X36421667Y-69026167D01*
X36460746Y-69010046D01*
X36476866Y-68970235D01*
X36476866Y-68191100D01*
X36460502Y-68152021D01*
X36420201Y-68135169D01*
X36166433Y-68135169D01*
X36116485Y-68139763D01*
X36064674Y-68155917D01*
X36017498Y-68183701D01*
X35988624Y-68208686D01*
X35956033Y-68247337D01*
X35930499Y-68295345D01*
X35916749Y-68348145D01*
X35914130Y-68386006D01*
X35918781Y-68435208D01*
X35934642Y-68485913D01*
X35958827Y-68528904D01*
X35961758Y-68533040D01*
X35994268Y-68570273D01*
X36036365Y-68602028D01*
X36085100Y-68624143D01*
G37*
G36*
X35404895Y-68136596D02*
G01*
X35458025Y-68145963D01*
X35507484Y-68164071D01*
X35553274Y-68190922D01*
X35595393Y-68226515D01*
X35616974Y-68249936D01*
X35647818Y-68293732D01*
X35669848Y-68341104D01*
X35683067Y-68392053D01*
X35687473Y-68446578D01*
X35687473Y-68728190D01*
X35686057Y-68759411D01*
X35676766Y-68811202D01*
X35658802Y-68859369D01*
X35632166Y-68903913D01*
X35596859Y-68944834D01*
X35573614Y-68965728D01*
X35530088Y-68995589D01*
X35482940Y-69016919D01*
X35432168Y-69029716D01*
X35377773Y-69033982D01*
X35356524Y-69033982D01*
X35324940Y-69032582D01*
X35272534Y-69023390D01*
X35223774Y-69005621D01*
X35178661Y-68979272D01*
X35137194Y-68944345D01*
X35115956Y-68921344D01*
X35085604Y-68878246D01*
X35063924Y-68831525D01*
X35050916Y-68781181D01*
X35046580Y-68727213D01*
X35046580Y-68706453D01*
X35157222Y-68706453D01*
X35157222Y-68727213D01*
X35164119Y-68780301D01*
X35184813Y-68827733D01*
X35215596Y-68865943D01*
X35219268Y-68869474D01*
X35258585Y-68898621D01*
X35307289Y-68917735D01*
X35356524Y-68923340D01*
X35377773Y-68923340D01*
X35382894Y-68923284D01*
X35431533Y-68916558D01*
X35479636Y-68896211D01*
X35518457Y-68865943D01*
X35549240Y-68827733D01*
X35569933Y-68780301D01*
X35576831Y-68727213D01*
X35576831Y-68706453D01*
X35569933Y-68653504D01*
X35549240Y-68606154D01*
X35518457Y-68567967D01*
X35514785Y-68564421D01*
X35475496Y-68535150D01*
X35426879Y-68515955D01*
X35377773Y-68510326D01*
X35356524Y-68510326D01*
X35351388Y-68510382D01*
X35302625Y-68517137D01*
X35254441Y-68537570D01*
X35215596Y-68567967D01*
X35184813Y-68606154D01*
X35164119Y-68653504D01*
X35157222Y-68706453D01*
X35046580Y-68706453D01*
X35047999Y-68675170D01*
X35057316Y-68623273D01*
X35075328Y-68574999D01*
X35102035Y-68530349D01*
X35137438Y-68489321D01*
X35160695Y-68468312D01*
X35204295Y-68438287D01*
X35251589Y-68416841D01*
X35302576Y-68403973D01*
X35357257Y-68399684D01*
X35378506Y-68399684D01*
X35432392Y-68404141D01*
X35483408Y-68417513D01*
X35531554Y-68439800D01*
X35576831Y-68471003D01*
X35576831Y-68444624D01*
X35576773Y-68439518D01*
X35569789Y-68391004D01*
X35548663Y-68342982D01*
X35517236Y-68304185D01*
X35513487Y-68300593D01*
X35473378Y-68270950D01*
X35423748Y-68251511D01*
X35373621Y-68245811D01*
X35174807Y-68245811D01*
X35135728Y-68229202D01*
X35119364Y-68190612D01*
X35135728Y-68151777D01*
X35174807Y-68135169D01*
X35372888Y-68135169D01*
X35404895Y-68136596D01*
G37*
X78525666Y-57509580D02*
X78573285Y-57557200D01*
X78573285Y-57557200D02*
X78716142Y-57604819D01*
X78716142Y-57604819D02*
X78811380Y-57604819D01*
X78811380Y-57604819D02*
X78954237Y-57557200D01*
X78954237Y-57557200D02*
X79049475Y-57461961D01*
X79049475Y-57461961D02*
X79097094Y-57366723D01*
X79097094Y-57366723D02*
X79144713Y-57176247D01*
X79144713Y-57176247D02*
X79144713Y-57033390D01*
X79144713Y-57033390D02*
X79097094Y-56842914D01*
X79097094Y-56842914D02*
X79049475Y-56747676D01*
X79049475Y-56747676D02*
X78954237Y-56652438D01*
X78954237Y-56652438D02*
X78811380Y-56604819D01*
X78811380Y-56604819D02*
X78716142Y-56604819D01*
X78716142Y-56604819D02*
X78573285Y-56652438D01*
X78573285Y-56652438D02*
X78525666Y-56700057D01*
X77620904Y-56604819D02*
X78097094Y-56604819D01*
X78097094Y-56604819D02*
X78144713Y-57081009D01*
X78144713Y-57081009D02*
X78097094Y-57033390D01*
X78097094Y-57033390D02*
X78001856Y-56985771D01*
X78001856Y-56985771D02*
X77763761Y-56985771D01*
X77763761Y-56985771D02*
X77668523Y-57033390D01*
X77668523Y-57033390D02*
X77620904Y-57081009D01*
X77620904Y-57081009D02*
X77573285Y-57176247D01*
X77573285Y-57176247D02*
X77573285Y-57414342D01*
X77573285Y-57414342D02*
X77620904Y-57509580D01*
X77620904Y-57509580D02*
X77668523Y-57557200D01*
X77668523Y-57557200D02*
X77763761Y-57604819D01*
X77763761Y-57604819D02*
X78001856Y-57604819D01*
X78001856Y-57604819D02*
X78097094Y-57557200D01*
X78097094Y-57557200D02*
X78144713Y-57509580D01*
D12*
G36*
X29093814Y-70742168D02*
G01*
X29037168Y-70746083D01*
X28983733Y-70757830D01*
X28933510Y-70777407D01*
X28886498Y-70804816D01*
X28842698Y-70840056D01*
X28828811Y-70853542D01*
X28791542Y-70896853D01*
X28761984Y-70943256D01*
X28740137Y-70992749D01*
X28726000Y-71045334D01*
X28719574Y-71101010D01*
X28719146Y-71120256D01*
X28719146Y-71255078D01*
X28723001Y-71312256D01*
X28734568Y-71366189D01*
X28753845Y-71416876D01*
X28780833Y-71464317D01*
X28815531Y-71508513D01*
X28828811Y-71522523D01*
X28871541Y-71560124D01*
X28917483Y-71589946D01*
X28966636Y-71611988D01*
X29019000Y-71626250D01*
X29074576Y-71632733D01*
X29093814Y-71633166D01*
X29258923Y-71633166D01*
X29298490Y-71617045D01*
X29314366Y-71577967D01*
X29298490Y-71538644D01*
X29259167Y-71522523D01*
X29094303Y-71522523D01*
X29041592Y-71517608D01*
X28992881Y-71502862D01*
X28948169Y-71478285D01*
X28907457Y-71443877D01*
X28873477Y-71402539D01*
X28849205Y-71357171D01*
X28834642Y-71307773D01*
X28829788Y-71254345D01*
X28829788Y-71119523D01*
X28834627Y-71066736D01*
X28849144Y-71017796D01*
X28873340Y-70972702D01*
X28907213Y-70931456D01*
X28947788Y-70897048D01*
X28992332Y-70872471D01*
X29040844Y-70857725D01*
X29093326Y-70852810D01*
X29203724Y-70852810D01*
X29203724Y-71365231D01*
X29219844Y-71405287D01*
X29259167Y-71421407D01*
X29298246Y-71405287D01*
X29314366Y-71365475D01*
X29314366Y-70798099D01*
X29298490Y-70759020D01*
X29258923Y-70742168D01*
X29093814Y-70742168D01*
G37*
G36*
X28115133Y-70744366D02*
G01*
X28124170Y-70747785D01*
X28132475Y-70753403D01*
X28140779Y-70761707D01*
X28142733Y-70763172D01*
X28144931Y-70764638D01*
X28516669Y-71295866D01*
X28517401Y-71298064D01*
X28518134Y-71300018D01*
X28523752Y-71311253D01*
X28524973Y-71321023D01*
X28524973Y-71324687D01*
X28524973Y-71327373D01*
X28524973Y-71329572D01*
X28524973Y-71332258D01*
X28523752Y-71343005D01*
X28519355Y-71353507D01*
X28513493Y-71362056D01*
X28506655Y-71370360D01*
X28504457Y-71371826D01*
X28502503Y-71373047D01*
X28498839Y-71375245D01*
X28495175Y-71375978D01*
X28489558Y-71378664D01*
X28469774Y-71383061D01*
X28102921Y-71383061D01*
X28102921Y-71577234D01*
X28086801Y-71617045D01*
X28047722Y-71633166D01*
X28008399Y-71617045D01*
X27992279Y-71577234D01*
X27992279Y-71383061D01*
X27961505Y-71383061D01*
X27917541Y-71366941D01*
X27899711Y-71327618D01*
X27917541Y-71288539D01*
X27961505Y-71272419D01*
X27992279Y-71272419D01*
X28102921Y-71272419D01*
X28363528Y-71272419D01*
X28102921Y-70896773D01*
X28102921Y-71272419D01*
X27992279Y-71272419D01*
X27992279Y-70798099D01*
X28008399Y-70759020D01*
X28046501Y-70742168D01*
X28099258Y-70742168D01*
X28101944Y-70742168D01*
X28103410Y-70742168D01*
X28115133Y-70744366D01*
G37*
G36*
X36855212Y-50053644D02*
G01*
X36908762Y-50058559D01*
X36958283Y-50073305D01*
X37003773Y-50097882D01*
X37045233Y-50132290D01*
X37079641Y-50173536D01*
X37104218Y-50218630D01*
X37118964Y-50267570D01*
X37123879Y-50320357D01*
X37123879Y-50455179D01*
X37118964Y-50508607D01*
X37104218Y-50558005D01*
X37079641Y-50603373D01*
X37045233Y-50644711D01*
X37003773Y-50679119D01*
X36958283Y-50703696D01*
X36908762Y-50718442D01*
X36855212Y-50723357D01*
X36665680Y-50723357D01*
X36625624Y-50739478D01*
X36609260Y-50778801D01*
X36625380Y-50817879D01*
X36665680Y-50834000D01*
X36855212Y-50834000D01*
X36912574Y-50830110D01*
X36966690Y-50818440D01*
X37017560Y-50798992D01*
X37065185Y-50771763D01*
X37109563Y-50736756D01*
X37123635Y-50723357D01*
X37161319Y-50680244D01*
X37191206Y-50633884D01*
X37213297Y-50584279D01*
X37227591Y-50531428D01*
X37234088Y-50475332D01*
X37234521Y-50455912D01*
X37234521Y-50321090D01*
X37230623Y-50264383D01*
X37218928Y-50210768D01*
X37199436Y-50160244D01*
X37172148Y-50112811D01*
X37137063Y-50068470D01*
X37123635Y-50054376D01*
X37080338Y-50016526D01*
X37033796Y-49986507D01*
X36984007Y-49964319D01*
X36930973Y-49949963D01*
X36874693Y-49943437D01*
X36855212Y-49943002D01*
X36665680Y-49943002D01*
X36625380Y-49959610D01*
X36609260Y-49998445D01*
X36625624Y-50037035D01*
X36665680Y-50053644D01*
X36855212Y-50053644D01*
G37*
G36*
X36022100Y-50431976D02*
G01*
X35814738Y-50747049D01*
X35806922Y-50789303D01*
X35831346Y-50824230D01*
X35862121Y-50834000D01*
X35906585Y-50811889D01*
X35908771Y-50808842D01*
X36163516Y-50418542D01*
X36169847Y-50370101D01*
X36165715Y-50360901D01*
X36125993Y-50332069D01*
X36115889Y-50331348D01*
X36100502Y-50331348D01*
X36050395Y-50322439D01*
X36007694Y-50295713D01*
X36002560Y-50290803D01*
X35973283Y-50248915D01*
X35961931Y-50199728D01*
X35961772Y-50192618D01*
X35970895Y-50142336D01*
X35998265Y-50099567D01*
X36003293Y-50094432D01*
X36045976Y-50065155D01*
X36096172Y-50053803D01*
X36103433Y-50053644D01*
X36303223Y-50053644D01*
X36303223Y-50777824D01*
X36319343Y-50817879D01*
X36358666Y-50834000D01*
X36397745Y-50817879D01*
X36413865Y-50778068D01*
X36413865Y-49998933D01*
X36397501Y-49959854D01*
X36357201Y-49943002D01*
X36103433Y-49943002D01*
X36053485Y-49947596D01*
X36001673Y-49963750D01*
X35954498Y-49991534D01*
X35925624Y-50016519D01*
X35893033Y-50055170D01*
X35867498Y-50103178D01*
X35853749Y-50155978D01*
X35851130Y-50193839D01*
X35855781Y-50243041D01*
X35871641Y-50293746D01*
X35895827Y-50336737D01*
X35898757Y-50340873D01*
X35931267Y-50378106D01*
X35973365Y-50409861D01*
X36022100Y-50431976D01*
G37*
G36*
X35388290Y-49943002D02*
G01*
X35331643Y-49946917D01*
X35278209Y-49958664D01*
X35227985Y-49978241D01*
X35180973Y-50005650D01*
X35137173Y-50040890D01*
X35123286Y-50054376D01*
X35086017Y-50097687D01*
X35056459Y-50144090D01*
X35034612Y-50193583D01*
X35020475Y-50246168D01*
X35014050Y-50301844D01*
X35013621Y-50321090D01*
X35013621Y-50455912D01*
X35017477Y-50513090D01*
X35029043Y-50567023D01*
X35048320Y-50617710D01*
X35075308Y-50665151D01*
X35110006Y-50709347D01*
X35123286Y-50723357D01*
X35166016Y-50760958D01*
X35211958Y-50790780D01*
X35261111Y-50812822D01*
X35313475Y-50827084D01*
X35369051Y-50833567D01*
X35388290Y-50834000D01*
X35553398Y-50834000D01*
X35592965Y-50817879D01*
X35608841Y-50778801D01*
X35592965Y-50739478D01*
X35553642Y-50723357D01*
X35388778Y-50723357D01*
X35336067Y-50718442D01*
X35287356Y-50703696D01*
X35242645Y-50679119D01*
X35201932Y-50644711D01*
X35167952Y-50603373D01*
X35143680Y-50558005D01*
X35129117Y-50508607D01*
X35124263Y-50455179D01*
X35124263Y-50320357D01*
X35129102Y-50267570D01*
X35143619Y-50218630D01*
X35167815Y-50173536D01*
X35201688Y-50132290D01*
X35242263Y-50097882D01*
X35286807Y-50073305D01*
X35335319Y-50058559D01*
X35387801Y-50053644D01*
X35498199Y-50053644D01*
X35498199Y-50566065D01*
X35514319Y-50606121D01*
X35553642Y-50622241D01*
X35592721Y-50606121D01*
X35608841Y-50566309D01*
X35608841Y-49998933D01*
X35592965Y-49959854D01*
X35553398Y-49943002D01*
X35388290Y-49943002D01*
G37*
G36*
X34250851Y-50723357D02*
G01*
X34210551Y-50739966D01*
X34194186Y-50779533D01*
X34210306Y-50818124D01*
X34250606Y-50834000D01*
X34763272Y-50834000D01*
X34803328Y-50818124D01*
X34819448Y-50779533D01*
X34803328Y-50739966D01*
X34763516Y-50723357D01*
X34538080Y-50723357D01*
X34538080Y-50136930D01*
X34670948Y-50270043D01*
X34711004Y-50286896D01*
X34750083Y-50270043D01*
X34766203Y-50230231D01*
X34750816Y-50191641D01*
X34522693Y-49963274D01*
X34520006Y-49961076D01*
X34517075Y-49960343D01*
X34504375Y-49950573D01*
X34461144Y-49950573D01*
X34448443Y-49960343D01*
X34446489Y-49961076D01*
X34444291Y-49963274D01*
X34442093Y-49964739D01*
X34441360Y-49965960D01*
X34431590Y-49981348D01*
X34427438Y-50002353D01*
X34427438Y-50723357D01*
X34250851Y-50723357D01*
G37*
D11*
X94019666Y-76654819D02*
X94495856Y-76654819D01*
X94495856Y-76654819D02*
X94495856Y-75654819D01*
X93733951Y-75750057D02*
X93686332Y-75702438D01*
X93686332Y-75702438D02*
X93591094Y-75654819D01*
X93591094Y-75654819D02*
X93352999Y-75654819D01*
X93352999Y-75654819D02*
X93257761Y-75702438D01*
X93257761Y-75702438D02*
X93210142Y-75750057D01*
X93210142Y-75750057D02*
X93162523Y-75845295D01*
X93162523Y-75845295D02*
X93162523Y-75940533D01*
X93162523Y-75940533D02*
X93210142Y-76083390D01*
X93210142Y-76083390D02*
X93781570Y-76654819D01*
X93781570Y-76654819D02*
X93162523Y-76654819D01*
G36*
X36085100Y-73704143D02*
G01*
X35877738Y-74019216D01*
X35869922Y-74061470D01*
X35894347Y-74096397D01*
X35925121Y-74106167D01*
X35969586Y-74084056D01*
X35971772Y-74081009D01*
X36226517Y-73690709D01*
X36232847Y-73642268D01*
X36228715Y-73633068D01*
X36188993Y-73604236D01*
X36178890Y-73603515D01*
X36163502Y-73603515D01*
X36113395Y-73594606D01*
X36070695Y-73567880D01*
X36065561Y-73562970D01*
X36036284Y-73521082D01*
X36024932Y-73471895D01*
X36024772Y-73464785D01*
X36033896Y-73414503D01*
X36061266Y-73371734D01*
X36066294Y-73366599D01*
X36108976Y-73337322D01*
X36159173Y-73325970D01*
X36166433Y-73325811D01*
X36366224Y-73325811D01*
X36366224Y-74049991D01*
X36382344Y-74090046D01*
X36421667Y-74106167D01*
X36460746Y-74090046D01*
X36476866Y-74050235D01*
X36476866Y-73271100D01*
X36460502Y-73232021D01*
X36420201Y-73215169D01*
X36166433Y-73215169D01*
X36116485Y-73219763D01*
X36064674Y-73235917D01*
X36017498Y-73263701D01*
X35988624Y-73288686D01*
X35956033Y-73327337D01*
X35930499Y-73375345D01*
X35916749Y-73428145D01*
X35914130Y-73466006D01*
X35918781Y-73515208D01*
X35934642Y-73565913D01*
X35958827Y-73608904D01*
X35961758Y-73613040D01*
X35994268Y-73650273D01*
X36036365Y-73682028D01*
X36085100Y-73704143D01*
G37*
G36*
X35277633Y-73217367D02*
G01*
X35286670Y-73220786D01*
X35294975Y-73226404D01*
X35303279Y-73234708D01*
X35305233Y-73236173D01*
X35307431Y-73237639D01*
X35679169Y-73768867D01*
X35679901Y-73771065D01*
X35680634Y-73773019D01*
X35686252Y-73784254D01*
X35687473Y-73794024D01*
X35687473Y-73797688D01*
X35687473Y-73800374D01*
X35687473Y-73802573D01*
X35687473Y-73805259D01*
X35686252Y-73816006D01*
X35681855Y-73826508D01*
X35675993Y-73835057D01*
X35669155Y-73843361D01*
X35666957Y-73844827D01*
X35665003Y-73846048D01*
X35661339Y-73848246D01*
X35657675Y-73848979D01*
X35652058Y-73851665D01*
X35632274Y-73856062D01*
X35265421Y-73856062D01*
X35265421Y-74050235D01*
X35249301Y-74090046D01*
X35210222Y-74106167D01*
X35170899Y-74090046D01*
X35154779Y-74050235D01*
X35154779Y-73856062D01*
X35124005Y-73856062D01*
X35080041Y-73839942D01*
X35062211Y-73800619D01*
X35080041Y-73761540D01*
X35124005Y-73745420D01*
X35154779Y-73745420D01*
X35265421Y-73745420D01*
X35526028Y-73745420D01*
X35265421Y-73369774D01*
X35265421Y-73745420D01*
X35154779Y-73745420D01*
X35154779Y-73271100D01*
X35170899Y-73232021D01*
X35209001Y-73215169D01*
X35261758Y-73215169D01*
X35264444Y-73215169D01*
X35265910Y-73215169D01*
X35277633Y-73217367D01*
G37*
X84967857Y-65029819D02*
X85301190Y-64553628D01*
X85539285Y-65029819D02*
X85539285Y-64029819D01*
X85539285Y-64029819D02*
X85158333Y-64029819D01*
X85158333Y-64029819D02*
X85063095Y-64077438D01*
X85063095Y-64077438D02*
X85015476Y-64125057D01*
X85015476Y-64125057D02*
X84967857Y-64220295D01*
X84967857Y-64220295D02*
X84967857Y-64363152D01*
X84967857Y-64363152D02*
X85015476Y-64458390D01*
X85015476Y-64458390D02*
X85063095Y-64506009D01*
X85063095Y-64506009D02*
X85158333Y-64553628D01*
X85158333Y-64553628D02*
X85539285Y-64553628D01*
X84015476Y-65029819D02*
X84586904Y-65029819D01*
X84301190Y-65029819D02*
X84301190Y-64029819D01*
X84301190Y-64029819D02*
X84396428Y-64172676D01*
X84396428Y-64172676D02*
X84491666Y-64267914D01*
X84491666Y-64267914D02*
X84586904Y-64315533D01*
X83634523Y-64125057D02*
X83586904Y-64077438D01*
X83586904Y-64077438D02*
X83491666Y-64029819D01*
X83491666Y-64029819D02*
X83253571Y-64029819D01*
X83253571Y-64029819D02*
X83158333Y-64077438D01*
X83158333Y-64077438D02*
X83110714Y-64125057D01*
X83110714Y-64125057D02*
X83063095Y-64220295D01*
X83063095Y-64220295D02*
X83063095Y-64315533D01*
X83063095Y-64315533D02*
X83110714Y-64458390D01*
X83110714Y-64458390D02*
X83682142Y-65029819D01*
X83682142Y-65029819D02*
X83063095Y-65029819D01*
D12*
G36*
X29093814Y-68154002D02*
G01*
X29037168Y-68157917D01*
X28983733Y-68169664D01*
X28933510Y-68189241D01*
X28886498Y-68216650D01*
X28842698Y-68251890D01*
X28828811Y-68265376D01*
X28791542Y-68308687D01*
X28761984Y-68355090D01*
X28740137Y-68404583D01*
X28726000Y-68457168D01*
X28719574Y-68512844D01*
X28719146Y-68532090D01*
X28719146Y-68666912D01*
X28723001Y-68724090D01*
X28734568Y-68778023D01*
X28753845Y-68828710D01*
X28780833Y-68876151D01*
X28815531Y-68920347D01*
X28828811Y-68934357D01*
X28871541Y-68971958D01*
X28917483Y-69001780D01*
X28966636Y-69023822D01*
X29019000Y-69038084D01*
X29074576Y-69044567D01*
X29093814Y-69045000D01*
X29258923Y-69045000D01*
X29298490Y-69028879D01*
X29314366Y-68989801D01*
X29298490Y-68950478D01*
X29259167Y-68934357D01*
X29094303Y-68934357D01*
X29041592Y-68929442D01*
X28992881Y-68914696D01*
X28948169Y-68890119D01*
X28907457Y-68855711D01*
X28873477Y-68814373D01*
X28849205Y-68769005D01*
X28834642Y-68719607D01*
X28829788Y-68666179D01*
X28829788Y-68531357D01*
X28834627Y-68478570D01*
X28849144Y-68429630D01*
X28873340Y-68384536D01*
X28907213Y-68343290D01*
X28947788Y-68308882D01*
X28992332Y-68284305D01*
X29040844Y-68269559D01*
X29093326Y-68264644D01*
X29203724Y-68264644D01*
X29203724Y-68777065D01*
X29219844Y-68817121D01*
X29259167Y-68833241D01*
X29298246Y-68817121D01*
X29314366Y-68777309D01*
X29314366Y-68209933D01*
X29298490Y-68170854D01*
X29258923Y-68154002D01*
X29093814Y-68154002D01*
G37*
G36*
X28414331Y-68481043D02*
G01*
X28172042Y-68481043D01*
X28121651Y-68485005D01*
X28068097Y-68499236D01*
X28018848Y-68523817D01*
X27979286Y-68553815D01*
X27968588Y-68563841D01*
X27935659Y-68601678D01*
X27907930Y-68648871D01*
X27890764Y-68700276D01*
X27884410Y-68748712D01*
X27884080Y-68763143D01*
X27888112Y-68812406D01*
X27902595Y-68864784D01*
X27927610Y-68912980D01*
X27958140Y-68951721D01*
X27968343Y-68962201D01*
X28006857Y-68994463D01*
X28054908Y-69021632D01*
X28107263Y-69038450D01*
X28156606Y-69044676D01*
X28171309Y-69045000D01*
X28468553Y-69045000D01*
X28508853Y-69028879D01*
X28524973Y-68989801D01*
X28508609Y-68950478D01*
X28468309Y-68934357D01*
X28170577Y-68934357D01*
X28119240Y-68927248D01*
X28073673Y-68905918D01*
X28046501Y-68883799D01*
X28014948Y-68842915D01*
X27997958Y-68796467D01*
X27994722Y-68762411D01*
X28002003Y-68712242D01*
X28023848Y-68667980D01*
X28046501Y-68641755D01*
X28088221Y-68611243D01*
X28135711Y-68594814D01*
X28170577Y-68591685D01*
X28468309Y-68591685D01*
X28508609Y-68575565D01*
X28524973Y-68535020D01*
X28524973Y-68210422D01*
X28508853Y-68171099D01*
X28468553Y-68154002D01*
X27951979Y-68154002D01*
X27911679Y-68170610D01*
X27895315Y-68209445D01*
X27911679Y-68248035D01*
X27952223Y-68264644D01*
X28414331Y-68264644D01*
X28414331Y-68481043D01*
G37*
D11*
X120657857Y-61541819D02*
X120991190Y-61065628D01*
X121229285Y-61541819D02*
X121229285Y-60541819D01*
X121229285Y-60541819D02*
X120848333Y-60541819D01*
X120848333Y-60541819D02*
X120753095Y-60589438D01*
X120753095Y-60589438D02*
X120705476Y-60637057D01*
X120705476Y-60637057D02*
X120657857Y-60732295D01*
X120657857Y-60732295D02*
X120657857Y-60875152D01*
X120657857Y-60875152D02*
X120705476Y-60970390D01*
X120705476Y-60970390D02*
X120753095Y-61018009D01*
X120753095Y-61018009D02*
X120848333Y-61065628D01*
X120848333Y-61065628D02*
X121229285Y-61065628D01*
X119705476Y-61541819D02*
X120276904Y-61541819D01*
X119991190Y-61541819D02*
X119991190Y-60541819D01*
X119991190Y-60541819D02*
X120086428Y-60684676D01*
X120086428Y-60684676D02*
X120181666Y-60779914D01*
X120181666Y-60779914D02*
X120276904Y-60827533D01*
X118848333Y-60875152D02*
X118848333Y-61541819D01*
X119086428Y-60494200D02*
X119324523Y-61208485D01*
X119324523Y-61208485D02*
X118705476Y-61208485D01*
X103247628Y-64608952D02*
X102866676Y-64608952D01*
X103104771Y-64275619D02*
X103104771Y-65132761D01*
X103104771Y-65132761D02*
X103057152Y-65228000D01*
X103057152Y-65228000D02*
X102961914Y-65275619D01*
X102961914Y-65275619D02*
X102866676Y-65275619D01*
X102628580Y-64275619D02*
X102009533Y-64275619D01*
X102009533Y-64275619D02*
X102342866Y-64656571D01*
X102342866Y-64656571D02*
X102200009Y-64656571D01*
X102200009Y-64656571D02*
X102104771Y-64704190D01*
X102104771Y-64704190D02*
X102057152Y-64751809D01*
X102057152Y-64751809D02*
X102009533Y-64847047D01*
X102009533Y-64847047D02*
X102009533Y-65085142D01*
X102009533Y-65085142D02*
X102057152Y-65180380D01*
X102057152Y-65180380D02*
X102104771Y-65228000D01*
X102104771Y-65228000D02*
X102200009Y-65275619D01*
X102200009Y-65275619D02*
X102485723Y-65275619D01*
X102485723Y-65275619D02*
X102580961Y-65228000D01*
X102580961Y-65228000D02*
X102628580Y-65180380D01*
X101723818Y-64275619D02*
X101390485Y-65275619D01*
X101390485Y-65275619D02*
X101057152Y-64275619D01*
X100819056Y-64275619D02*
X100200009Y-64275619D01*
X100200009Y-64275619D02*
X100533342Y-64656571D01*
X100533342Y-64656571D02*
X100390485Y-64656571D01*
X100390485Y-64656571D02*
X100295247Y-64704190D01*
X100295247Y-64704190D02*
X100247628Y-64751809D01*
X100247628Y-64751809D02*
X100200009Y-64847047D01*
X100200009Y-64847047D02*
X100200009Y-65085142D01*
X100200009Y-65085142D02*
X100247628Y-65180380D01*
X100247628Y-65180380D02*
X100295247Y-65228000D01*
X100295247Y-65228000D02*
X100390485Y-65275619D01*
X100390485Y-65275619D02*
X100676199Y-65275619D01*
X100676199Y-65275619D02*
X100771437Y-65228000D01*
X100771437Y-65228000D02*
X100819056Y-65180380D01*
G36*
X36085100Y-76244143D02*
G01*
X35877738Y-76559216D01*
X35869922Y-76601470D01*
X35894347Y-76636397D01*
X35925121Y-76646167D01*
X35969586Y-76624056D01*
X35971772Y-76621009D01*
X36226517Y-76230709D01*
X36232847Y-76182268D01*
X36228715Y-76173068D01*
X36188993Y-76144236D01*
X36178890Y-76143515D01*
X36163502Y-76143515D01*
X36113395Y-76134606D01*
X36070695Y-76107880D01*
X36065561Y-76102970D01*
X36036284Y-76061082D01*
X36024932Y-76011895D01*
X36024772Y-76004785D01*
X36033896Y-75954503D01*
X36061266Y-75911734D01*
X36066294Y-75906599D01*
X36108976Y-75877322D01*
X36159173Y-75865970D01*
X36166433Y-75865811D01*
X36366224Y-75865811D01*
X36366224Y-76589991D01*
X36382344Y-76630046D01*
X36421667Y-76646167D01*
X36460746Y-76630046D01*
X36476866Y-76590235D01*
X36476866Y-75811100D01*
X36460502Y-75772021D01*
X36420201Y-75755169D01*
X36166433Y-75755169D01*
X36116485Y-75759763D01*
X36064674Y-75775917D01*
X36017498Y-75803701D01*
X35988624Y-75828686D01*
X35956033Y-75867337D01*
X35930499Y-75915345D01*
X35916749Y-75968145D01*
X35914130Y-76006006D01*
X35918781Y-76055208D01*
X35934642Y-76105913D01*
X35958827Y-76148904D01*
X35961758Y-76153040D01*
X35994268Y-76190273D01*
X36036365Y-76222028D01*
X36085100Y-76244143D01*
G37*
G36*
X35156245Y-76200668D02*
G01*
X35119129Y-76235873D01*
X35087873Y-76281203D01*
X35068525Y-76331968D01*
X35061362Y-76380844D01*
X35060990Y-76395573D01*
X35065585Y-76445475D01*
X35081738Y-76497126D01*
X35109523Y-76544024D01*
X35134507Y-76572649D01*
X35173143Y-76604813D01*
X35221098Y-76630013D01*
X35273805Y-76643582D01*
X35311583Y-76646167D01*
X35639357Y-76646167D01*
X35679169Y-76630291D01*
X35695289Y-76591700D01*
X35679169Y-76552133D01*
X35639357Y-76535524D01*
X35311583Y-76535524D01*
X35261315Y-76526562D01*
X35218132Y-76499675D01*
X35212909Y-76494736D01*
X35183281Y-76452794D01*
X35171793Y-76403445D01*
X35171632Y-76396306D01*
X35180702Y-76345795D01*
X35207911Y-76302797D01*
X35212909Y-76297632D01*
X35255148Y-76268180D01*
X35304472Y-76256759D01*
X35311583Y-76256599D01*
X35392916Y-76256599D01*
X35432728Y-76240723D01*
X35448848Y-76202133D01*
X35432728Y-76162566D01*
X35392916Y-76145957D01*
X35311583Y-76145957D01*
X35261315Y-76136941D01*
X35218132Y-76109893D01*
X35212909Y-76104924D01*
X35183281Y-76062753D01*
X35171793Y-76013176D01*
X35171632Y-76006006D01*
X35180702Y-75955266D01*
X35207911Y-75912039D01*
X35212909Y-75906843D01*
X35255148Y-75877391D01*
X35304472Y-75865971D01*
X35311583Y-75865811D01*
X35639357Y-75865811D01*
X35679169Y-75849202D01*
X35695289Y-75810612D01*
X35679169Y-75771777D01*
X35639357Y-75755169D01*
X35311583Y-75755169D01*
X35261681Y-75759763D01*
X35210030Y-75775917D01*
X35163132Y-75803701D01*
X35134507Y-75828686D01*
X35102343Y-75867337D01*
X35077144Y-75915345D01*
X35063575Y-75968145D01*
X35060990Y-76006006D01*
X35065548Y-76055976D01*
X35081920Y-76108019D01*
X35110199Y-76154658D01*
X35144710Y-76191034D01*
X35156245Y-76200668D01*
G37*
X86791666Y-62534580D02*
X86839285Y-62582200D01*
X86839285Y-62582200D02*
X86982142Y-62629819D01*
X86982142Y-62629819D02*
X87077380Y-62629819D01*
X87077380Y-62629819D02*
X87220237Y-62582200D01*
X87220237Y-62582200D02*
X87315475Y-62486961D01*
X87315475Y-62486961D02*
X87363094Y-62391723D01*
X87363094Y-62391723D02*
X87410713Y-62201247D01*
X87410713Y-62201247D02*
X87410713Y-62058390D01*
X87410713Y-62058390D02*
X87363094Y-61867914D01*
X87363094Y-61867914D02*
X87315475Y-61772676D01*
X87315475Y-61772676D02*
X87220237Y-61677438D01*
X87220237Y-61677438D02*
X87077380Y-61629819D01*
X87077380Y-61629819D02*
X86982142Y-61629819D01*
X86982142Y-61629819D02*
X86839285Y-61677438D01*
X86839285Y-61677438D02*
X86791666Y-61725057D01*
X85839285Y-62629819D02*
X86410713Y-62629819D01*
X86124999Y-62629819D02*
X86124999Y-61629819D01*
X86124999Y-61629819D02*
X86220237Y-61772676D01*
X86220237Y-61772676D02*
X86315475Y-61867914D01*
X86315475Y-61867914D02*
X86410713Y-61915533D01*
X78398666Y-51381819D02*
X78731999Y-50905628D01*
X78970094Y-51381819D02*
X78970094Y-50381819D01*
X78970094Y-50381819D02*
X78589142Y-50381819D01*
X78589142Y-50381819D02*
X78493904Y-50429438D01*
X78493904Y-50429438D02*
X78446285Y-50477057D01*
X78446285Y-50477057D02*
X78398666Y-50572295D01*
X78398666Y-50572295D02*
X78398666Y-50715152D01*
X78398666Y-50715152D02*
X78446285Y-50810390D01*
X78446285Y-50810390D02*
X78493904Y-50858009D01*
X78493904Y-50858009D02*
X78589142Y-50905628D01*
X78589142Y-50905628D02*
X78970094Y-50905628D01*
X78017713Y-50477057D02*
X77970094Y-50429438D01*
X77970094Y-50429438D02*
X77874856Y-50381819D01*
X77874856Y-50381819D02*
X77636761Y-50381819D01*
X77636761Y-50381819D02*
X77541523Y-50429438D01*
X77541523Y-50429438D02*
X77493904Y-50477057D01*
X77493904Y-50477057D02*
X77446285Y-50572295D01*
X77446285Y-50572295D02*
X77446285Y-50667533D01*
X77446285Y-50667533D02*
X77493904Y-50810390D01*
X77493904Y-50810390D02*
X78065332Y-51381819D01*
X78065332Y-51381819D02*
X77446285Y-51381819D01*
G36*
X36085100Y-71164143D02*
G01*
X35877738Y-71479216D01*
X35869922Y-71521470D01*
X35894347Y-71556397D01*
X35925121Y-71566167D01*
X35969586Y-71544056D01*
X35971772Y-71541009D01*
X36226517Y-71150709D01*
X36232847Y-71102268D01*
X36228715Y-71093068D01*
X36188993Y-71064236D01*
X36178890Y-71063515D01*
X36163502Y-71063515D01*
X36113395Y-71054606D01*
X36070695Y-71027880D01*
X36065561Y-71022970D01*
X36036284Y-70981082D01*
X36024932Y-70931895D01*
X36024772Y-70924785D01*
X36033896Y-70874503D01*
X36061266Y-70831734D01*
X36066294Y-70826599D01*
X36108976Y-70797322D01*
X36159173Y-70785970D01*
X36166433Y-70785811D01*
X36366224Y-70785811D01*
X36366224Y-71509991D01*
X36382344Y-71550046D01*
X36421667Y-71566167D01*
X36460746Y-71550046D01*
X36476866Y-71510235D01*
X36476866Y-70731100D01*
X36460502Y-70692021D01*
X36420201Y-70675169D01*
X36166433Y-70675169D01*
X36116485Y-70679763D01*
X36064674Y-70695917D01*
X36017498Y-70723701D01*
X35988624Y-70748686D01*
X35956033Y-70787337D01*
X35930499Y-70835345D01*
X35916749Y-70888145D01*
X35914130Y-70926006D01*
X35918781Y-70975208D01*
X35934642Y-71025913D01*
X35958827Y-71068904D01*
X35961758Y-71073040D01*
X35994268Y-71110273D01*
X36036365Y-71142028D01*
X36085100Y-71164143D01*
G37*
G36*
X35576831Y-71002210D02*
G01*
X35334542Y-71002210D01*
X35284151Y-71006172D01*
X35230597Y-71020403D01*
X35181348Y-71044984D01*
X35141786Y-71074982D01*
X35131088Y-71085008D01*
X35098159Y-71122845D01*
X35070430Y-71170038D01*
X35053264Y-71221443D01*
X35046910Y-71269879D01*
X35046580Y-71284310D01*
X35050612Y-71333573D01*
X35065095Y-71385951D01*
X35090110Y-71434147D01*
X35120640Y-71472888D01*
X35130843Y-71483368D01*
X35169357Y-71515630D01*
X35217408Y-71542799D01*
X35269763Y-71559617D01*
X35319106Y-71565843D01*
X35333809Y-71566167D01*
X35631053Y-71566167D01*
X35671353Y-71550046D01*
X35687473Y-71510968D01*
X35671109Y-71471645D01*
X35630809Y-71455524D01*
X35333077Y-71455524D01*
X35281740Y-71448415D01*
X35236173Y-71427085D01*
X35209001Y-71404966D01*
X35177448Y-71364082D01*
X35160458Y-71317634D01*
X35157222Y-71283578D01*
X35164503Y-71233409D01*
X35186348Y-71189147D01*
X35209001Y-71162922D01*
X35250721Y-71132410D01*
X35298211Y-71115981D01*
X35333077Y-71112852D01*
X35630809Y-71112852D01*
X35671109Y-71096732D01*
X35687473Y-71056187D01*
X35687473Y-70731589D01*
X35671353Y-70692266D01*
X35631053Y-70675169D01*
X35114479Y-70675169D01*
X35074179Y-70691777D01*
X35057815Y-70730612D01*
X35074179Y-70769202D01*
X35114723Y-70785811D01*
X35576831Y-70785811D01*
X35576831Y-71002210D01*
G37*
D12*
G36*
X29006314Y-75774002D02*
G01*
X28949668Y-75777917D01*
X28896233Y-75789664D01*
X28846010Y-75809241D01*
X28798998Y-75836650D01*
X28755198Y-75871890D01*
X28741311Y-75885376D01*
X28704042Y-75928687D01*
X28674484Y-75975090D01*
X28652637Y-76024583D01*
X28638500Y-76077168D01*
X28632074Y-76132844D01*
X28631646Y-76152090D01*
X28631646Y-76286912D01*
X28635501Y-76344090D01*
X28647068Y-76398023D01*
X28666345Y-76448710D01*
X28693333Y-76496151D01*
X28728031Y-76540347D01*
X28741311Y-76554357D01*
X28784041Y-76591958D01*
X28829983Y-76621780D01*
X28879136Y-76643822D01*
X28931500Y-76658084D01*
X28987076Y-76664567D01*
X29006314Y-76665000D01*
X29171423Y-76665000D01*
X29210990Y-76648879D01*
X29226866Y-76609801D01*
X29210990Y-76570478D01*
X29171667Y-76554357D01*
X29006803Y-76554357D01*
X28954092Y-76549442D01*
X28905381Y-76534696D01*
X28860669Y-76510119D01*
X28819957Y-76475711D01*
X28785977Y-76434373D01*
X28761705Y-76389005D01*
X28747142Y-76339607D01*
X28742288Y-76286179D01*
X28742288Y-76151357D01*
X28747127Y-76098570D01*
X28761644Y-76049630D01*
X28785840Y-76004536D01*
X28819713Y-75963290D01*
X28860288Y-75928882D01*
X28904832Y-75904305D01*
X28953344Y-75889559D01*
X29005826Y-75884644D01*
X29116224Y-75884644D01*
X29116224Y-76397065D01*
X29132344Y-76437121D01*
X29171667Y-76453241D01*
X29210746Y-76437121D01*
X29226866Y-76397309D01*
X29226866Y-75829933D01*
X29210990Y-75790854D01*
X29171423Y-75774002D01*
X29006314Y-75774002D01*
G37*
G36*
X27812211Y-76099822D02*
G01*
X27829064Y-76138656D01*
X28246719Y-76554357D01*
X27868631Y-76554357D01*
X27828575Y-76570478D01*
X27812211Y-76609801D01*
X27828331Y-76648879D01*
X27868387Y-76665000D01*
X28379343Y-76665000D01*
X28423886Y-76644129D01*
X28431123Y-76630806D01*
X28428129Y-76581999D01*
X28418422Y-76569989D01*
X27922853Y-76075397D01*
X27922853Y-76046088D01*
X27929997Y-75996549D01*
X27953861Y-75949315D01*
X27973656Y-75926653D01*
X28014357Y-75896291D01*
X28060621Y-75879942D01*
X28094556Y-75876828D01*
X28141206Y-75876828D01*
X28191694Y-75883206D01*
X28236699Y-75902341D01*
X28272853Y-75930806D01*
X28303585Y-75970287D01*
X28322561Y-76019151D01*
X28326831Y-76059766D01*
X28342951Y-76099089D01*
X28382274Y-76115942D01*
X28421353Y-76099333D01*
X28437473Y-76060010D01*
X28433347Y-76008681D01*
X28420970Y-75960694D01*
X28400342Y-75916050D01*
X28371462Y-75874748D01*
X28351255Y-75852648D01*
X28311652Y-75818958D01*
X28268495Y-75793543D01*
X28221785Y-75776403D01*
X28171523Y-75767537D01*
X28141206Y-75766186D01*
X28094556Y-75766186D01*
X28045198Y-75770124D01*
X27992740Y-75784271D01*
X27944494Y-75808707D01*
X27905735Y-75838528D01*
X27895254Y-75848496D01*
X27862896Y-75886107D01*
X27835648Y-75933013D01*
X27818780Y-75984102D01*
X27812292Y-76039374D01*
X27812211Y-76046577D01*
X27812211Y-76099822D01*
G37*
D11*
X87161666Y-66875819D02*
X87494999Y-66399628D01*
X87733094Y-66875819D02*
X87733094Y-65875819D01*
X87733094Y-65875819D02*
X87352142Y-65875819D01*
X87352142Y-65875819D02*
X87256904Y-65923438D01*
X87256904Y-65923438D02*
X87209285Y-65971057D01*
X87209285Y-65971057D02*
X87161666Y-66066295D01*
X87161666Y-66066295D02*
X87161666Y-66209152D01*
X87161666Y-66209152D02*
X87209285Y-66304390D01*
X87209285Y-66304390D02*
X87256904Y-66352009D01*
X87256904Y-66352009D02*
X87352142Y-66399628D01*
X87352142Y-66399628D02*
X87733094Y-66399628D01*
X86209285Y-66875819D02*
X86780713Y-66875819D01*
X86494999Y-66875819D02*
X86494999Y-65875819D01*
X86494999Y-65875819D02*
X86590237Y-66018676D01*
X86590237Y-66018676D02*
X86685475Y-66113914D01*
X86685475Y-66113914D02*
X86780713Y-66161533D01*
X94279933Y-82836609D02*
X94613266Y-82836609D01*
X94613266Y-83360419D02*
X94613266Y-82360419D01*
X94613266Y-82360419D02*
X94137076Y-82360419D01*
X93422790Y-82836609D02*
X93279933Y-82884228D01*
X93279933Y-82884228D02*
X93232314Y-82931847D01*
X93232314Y-82931847D02*
X93184695Y-83027085D01*
X93184695Y-83027085D02*
X93184695Y-83169942D01*
X93184695Y-83169942D02*
X93232314Y-83265180D01*
X93232314Y-83265180D02*
X93279933Y-83312800D01*
X93279933Y-83312800D02*
X93375171Y-83360419D01*
X93375171Y-83360419D02*
X93756123Y-83360419D01*
X93756123Y-83360419D02*
X93756123Y-82360419D01*
X93756123Y-82360419D02*
X93422790Y-82360419D01*
X93422790Y-82360419D02*
X93327552Y-82408038D01*
X93327552Y-82408038D02*
X93279933Y-82455657D01*
X93279933Y-82455657D02*
X93232314Y-82550895D01*
X93232314Y-82550895D02*
X93232314Y-82646133D01*
X93232314Y-82646133D02*
X93279933Y-82741371D01*
X93279933Y-82741371D02*
X93327552Y-82788990D01*
X93327552Y-82788990D02*
X93422790Y-82836609D01*
X93422790Y-82836609D02*
X93756123Y-82836609D01*
X92803742Y-82455657D02*
X92756123Y-82408038D01*
X92756123Y-82408038D02*
X92660885Y-82360419D01*
X92660885Y-82360419D02*
X92422790Y-82360419D01*
X92422790Y-82360419D02*
X92327552Y-82408038D01*
X92327552Y-82408038D02*
X92279933Y-82455657D01*
X92279933Y-82455657D02*
X92232314Y-82550895D01*
X92232314Y-82550895D02*
X92232314Y-82646133D01*
X92232314Y-82646133D02*
X92279933Y-82788990D01*
X92279933Y-82788990D02*
X92851361Y-83360419D01*
X92851361Y-83360419D02*
X92232314Y-83360419D01*
X98286866Y-79455180D02*
X98334485Y-79502800D01*
X98334485Y-79502800D02*
X98477342Y-79550419D01*
X98477342Y-79550419D02*
X98572580Y-79550419D01*
X98572580Y-79550419D02*
X98715437Y-79502800D01*
X98715437Y-79502800D02*
X98810675Y-79407561D01*
X98810675Y-79407561D02*
X98858294Y-79312323D01*
X98858294Y-79312323D02*
X98905913Y-79121847D01*
X98905913Y-79121847D02*
X98905913Y-78978990D01*
X98905913Y-78978990D02*
X98858294Y-78788514D01*
X98858294Y-78788514D02*
X98810675Y-78693276D01*
X98810675Y-78693276D02*
X98715437Y-78598038D01*
X98715437Y-78598038D02*
X98572580Y-78550419D01*
X98572580Y-78550419D02*
X98477342Y-78550419D01*
X98477342Y-78550419D02*
X98334485Y-78598038D01*
X98334485Y-78598038D02*
X98286866Y-78645657D01*
X97953532Y-78550419D02*
X97286866Y-78550419D01*
X97286866Y-78550419D02*
X97715437Y-79550419D01*
X94633332Y-54107200D02*
X94490475Y-54154819D01*
X94490475Y-54154819D02*
X94252380Y-54154819D01*
X94252380Y-54154819D02*
X94157142Y-54107200D01*
X94157142Y-54107200D02*
X94109523Y-54059580D01*
X94109523Y-54059580D02*
X94061904Y-53964342D01*
X94061904Y-53964342D02*
X94061904Y-53869104D01*
X94061904Y-53869104D02*
X94109523Y-53773866D01*
X94109523Y-53773866D02*
X94157142Y-53726247D01*
X94157142Y-53726247D02*
X94252380Y-53678628D01*
X94252380Y-53678628D02*
X94442856Y-53631009D01*
X94442856Y-53631009D02*
X94538094Y-53583390D01*
X94538094Y-53583390D02*
X94585713Y-53535771D01*
X94585713Y-53535771D02*
X94633332Y-53440533D01*
X94633332Y-53440533D02*
X94633332Y-53345295D01*
X94633332Y-53345295D02*
X94585713Y-53250057D01*
X94585713Y-53250057D02*
X94538094Y-53202438D01*
X94538094Y-53202438D02*
X94442856Y-53154819D01*
X94442856Y-53154819D02*
X94204761Y-53154819D01*
X94204761Y-53154819D02*
X94061904Y-53202438D01*
X93728570Y-53154819D02*
X93490475Y-54154819D01*
X93490475Y-54154819D02*
X93299999Y-53440533D01*
X93299999Y-53440533D02*
X93109523Y-54154819D01*
X93109523Y-54154819D02*
X92871428Y-53154819D01*
X92061904Y-53488152D02*
X92061904Y-54154819D01*
X92299999Y-53107200D02*
X92538094Y-53821485D01*
X92538094Y-53821485D02*
X91919047Y-53821485D01*
X99448857Y-68939580D02*
X99496476Y-68987200D01*
X99496476Y-68987200D02*
X99639333Y-69034819D01*
X99639333Y-69034819D02*
X99734571Y-69034819D01*
X99734571Y-69034819D02*
X99877428Y-68987200D01*
X99877428Y-68987200D02*
X99972666Y-68891961D01*
X99972666Y-68891961D02*
X100020285Y-68796723D01*
X100020285Y-68796723D02*
X100067904Y-68606247D01*
X100067904Y-68606247D02*
X100067904Y-68463390D01*
X100067904Y-68463390D02*
X100020285Y-68272914D01*
X100020285Y-68272914D02*
X99972666Y-68177676D01*
X99972666Y-68177676D02*
X99877428Y-68082438D01*
X99877428Y-68082438D02*
X99734571Y-68034819D01*
X99734571Y-68034819D02*
X99639333Y-68034819D01*
X99639333Y-68034819D02*
X99496476Y-68082438D01*
X99496476Y-68082438D02*
X99448857Y-68130057D01*
X98496476Y-69034819D02*
X99067904Y-69034819D01*
X98782190Y-69034819D02*
X98782190Y-68034819D01*
X98782190Y-68034819D02*
X98877428Y-68177676D01*
X98877428Y-68177676D02*
X98972666Y-68272914D01*
X98972666Y-68272914D02*
X99067904Y-68320533D01*
X97877428Y-68034819D02*
X97782190Y-68034819D01*
X97782190Y-68034819D02*
X97686952Y-68082438D01*
X97686952Y-68082438D02*
X97639333Y-68130057D01*
X97639333Y-68130057D02*
X97591714Y-68225295D01*
X97591714Y-68225295D02*
X97544095Y-68415771D01*
X97544095Y-68415771D02*
X97544095Y-68653866D01*
X97544095Y-68653866D02*
X97591714Y-68844342D01*
X97591714Y-68844342D02*
X97639333Y-68939580D01*
X97639333Y-68939580D02*
X97686952Y-68987200D01*
X97686952Y-68987200D02*
X97782190Y-69034819D01*
X97782190Y-69034819D02*
X97877428Y-69034819D01*
X97877428Y-69034819D02*
X97972666Y-68987200D01*
X97972666Y-68987200D02*
X98020285Y-68939580D01*
X98020285Y-68939580D02*
X98067904Y-68844342D01*
X98067904Y-68844342D02*
X98115523Y-68653866D01*
X98115523Y-68653866D02*
X98115523Y-68415771D01*
X98115523Y-68415771D02*
X98067904Y-68225295D01*
X98067904Y-68225295D02*
X98020285Y-68130057D01*
X98020285Y-68130057D02*
X97972666Y-68082438D01*
X97972666Y-68082438D02*
X97877428Y-68034819D01*
X116966904Y-81623819D02*
X116966904Y-82433342D01*
X116966904Y-82433342D02*
X116919285Y-82528580D01*
X116919285Y-82528580D02*
X116871666Y-82576200D01*
X116871666Y-82576200D02*
X116776428Y-82623819D01*
X116776428Y-82623819D02*
X116585952Y-82623819D01*
X116585952Y-82623819D02*
X116490714Y-82576200D01*
X116490714Y-82576200D02*
X116443095Y-82528580D01*
X116443095Y-82528580D02*
X116395476Y-82433342D01*
X116395476Y-82433342D02*
X116395476Y-81623819D01*
X115443095Y-81623819D02*
X115919285Y-81623819D01*
X115919285Y-81623819D02*
X115966904Y-82100009D01*
X115966904Y-82100009D02*
X115919285Y-82052390D01*
X115919285Y-82052390D02*
X115824047Y-82004771D01*
X115824047Y-82004771D02*
X115585952Y-82004771D01*
X115585952Y-82004771D02*
X115490714Y-82052390D01*
X115490714Y-82052390D02*
X115443095Y-82100009D01*
X115443095Y-82100009D02*
X115395476Y-82195247D01*
X115395476Y-82195247D02*
X115395476Y-82433342D01*
X115395476Y-82433342D02*
X115443095Y-82528580D01*
X115443095Y-82528580D02*
X115490714Y-82576200D01*
X115490714Y-82576200D02*
X115585952Y-82623819D01*
X115585952Y-82623819D02*
X115824047Y-82623819D01*
X115824047Y-82623819D02*
X115919285Y-82576200D01*
X115919285Y-82576200D02*
X115966904Y-82528580D01*
X88457066Y-69117380D02*
X88504685Y-69165000D01*
X88504685Y-69165000D02*
X88647542Y-69212619D01*
X88647542Y-69212619D02*
X88742780Y-69212619D01*
X88742780Y-69212619D02*
X88885637Y-69165000D01*
X88885637Y-69165000D02*
X88980875Y-69069761D01*
X88980875Y-69069761D02*
X89028494Y-68974523D01*
X89028494Y-68974523D02*
X89076113Y-68784047D01*
X89076113Y-68784047D02*
X89076113Y-68641190D01*
X89076113Y-68641190D02*
X89028494Y-68450714D01*
X89028494Y-68450714D02*
X88980875Y-68355476D01*
X88980875Y-68355476D02*
X88885637Y-68260238D01*
X88885637Y-68260238D02*
X88742780Y-68212619D01*
X88742780Y-68212619D02*
X88647542Y-68212619D01*
X88647542Y-68212619D02*
X88504685Y-68260238D01*
X88504685Y-68260238D02*
X88457066Y-68307857D01*
X88076113Y-68307857D02*
X88028494Y-68260238D01*
X88028494Y-68260238D02*
X87933256Y-68212619D01*
X87933256Y-68212619D02*
X87695161Y-68212619D01*
X87695161Y-68212619D02*
X87599923Y-68260238D01*
X87599923Y-68260238D02*
X87552304Y-68307857D01*
X87552304Y-68307857D02*
X87504685Y-68403095D01*
X87504685Y-68403095D02*
X87504685Y-68498333D01*
X87504685Y-68498333D02*
X87552304Y-68641190D01*
X87552304Y-68641190D02*
X88123732Y-69212619D01*
X88123732Y-69212619D02*
X87504685Y-69212619D01*
D12*
G36*
X29093814Y-73282168D02*
G01*
X29037168Y-73286083D01*
X28983733Y-73297830D01*
X28933510Y-73317407D01*
X28886498Y-73344816D01*
X28842698Y-73380056D01*
X28828811Y-73393542D01*
X28791542Y-73436853D01*
X28761984Y-73483256D01*
X28740137Y-73532749D01*
X28726000Y-73585334D01*
X28719574Y-73641010D01*
X28719146Y-73660256D01*
X28719146Y-73795078D01*
X28723001Y-73852256D01*
X28734568Y-73906189D01*
X28753845Y-73956876D01*
X28780833Y-74004317D01*
X28815531Y-74048513D01*
X28828811Y-74062523D01*
X28871541Y-74100124D01*
X28917483Y-74129946D01*
X28966636Y-74151988D01*
X29019000Y-74166250D01*
X29074576Y-74172733D01*
X29093814Y-74173166D01*
X29258923Y-74173166D01*
X29298490Y-74157045D01*
X29314366Y-74117967D01*
X29298490Y-74078644D01*
X29259167Y-74062523D01*
X29094303Y-74062523D01*
X29041592Y-74057608D01*
X28992881Y-74042862D01*
X28948169Y-74018285D01*
X28907457Y-73983877D01*
X28873477Y-73942539D01*
X28849205Y-73897171D01*
X28834642Y-73847773D01*
X28829788Y-73794345D01*
X28829788Y-73659523D01*
X28834627Y-73606736D01*
X28849144Y-73557796D01*
X28873340Y-73512702D01*
X28907213Y-73471456D01*
X28947788Y-73437048D01*
X28992332Y-73412471D01*
X29040844Y-73397725D01*
X29093326Y-73392810D01*
X29203724Y-73392810D01*
X29203724Y-73905231D01*
X29219844Y-73945287D01*
X29259167Y-73961407D01*
X29298246Y-73945287D01*
X29314366Y-73905475D01*
X29314366Y-73338099D01*
X29298490Y-73299020D01*
X29258923Y-73282168D01*
X29093814Y-73282168D01*
G37*
G36*
X27993745Y-73727667D02*
G01*
X27956629Y-73762872D01*
X27925373Y-73808202D01*
X27906025Y-73858967D01*
X27898862Y-73907843D01*
X27898490Y-73922572D01*
X27903085Y-73972474D01*
X27919238Y-74024125D01*
X27947023Y-74071023D01*
X27972007Y-74099648D01*
X28010643Y-74131812D01*
X28058598Y-74157012D01*
X28111305Y-74170581D01*
X28149083Y-74173166D01*
X28476857Y-74173166D01*
X28516669Y-74157290D01*
X28532789Y-74118699D01*
X28516669Y-74079132D01*
X28476857Y-74062523D01*
X28149083Y-74062523D01*
X28098815Y-74053561D01*
X28055632Y-74026674D01*
X28050409Y-74021735D01*
X28020781Y-73979793D01*
X28009293Y-73930444D01*
X28009132Y-73923305D01*
X28018202Y-73872794D01*
X28045411Y-73829796D01*
X28050409Y-73824631D01*
X28092648Y-73795179D01*
X28141972Y-73783758D01*
X28149083Y-73783598D01*
X28230416Y-73783598D01*
X28270228Y-73767722D01*
X28286348Y-73729132D01*
X28270228Y-73689565D01*
X28230416Y-73672956D01*
X28149083Y-73672956D01*
X28098815Y-73663940D01*
X28055632Y-73636892D01*
X28050409Y-73631923D01*
X28020781Y-73589752D01*
X28009293Y-73540175D01*
X28009132Y-73533005D01*
X28018202Y-73482265D01*
X28045411Y-73439038D01*
X28050409Y-73433842D01*
X28092648Y-73404390D01*
X28141972Y-73392970D01*
X28149083Y-73392810D01*
X28476857Y-73392810D01*
X28516669Y-73376201D01*
X28532789Y-73337611D01*
X28516669Y-73298776D01*
X28476857Y-73282168D01*
X28149083Y-73282168D01*
X28099181Y-73286762D01*
X28047530Y-73302916D01*
X28000632Y-73330700D01*
X27972007Y-73355685D01*
X27939843Y-73394336D01*
X27914644Y-73442344D01*
X27901075Y-73495144D01*
X27898490Y-73533005D01*
X27903048Y-73582975D01*
X27919420Y-73635018D01*
X27947699Y-73681657D01*
X27982210Y-73718033D01*
X27993745Y-73727667D01*
G37*
D11*
X86591666Y-85384580D02*
X86639285Y-85432200D01*
X86639285Y-85432200D02*
X86782142Y-85479819D01*
X86782142Y-85479819D02*
X86877380Y-85479819D01*
X86877380Y-85479819D02*
X87020237Y-85432200D01*
X87020237Y-85432200D02*
X87115475Y-85336961D01*
X87115475Y-85336961D02*
X87163094Y-85241723D01*
X87163094Y-85241723D02*
X87210713Y-85051247D01*
X87210713Y-85051247D02*
X87210713Y-84908390D01*
X87210713Y-84908390D02*
X87163094Y-84717914D01*
X87163094Y-84717914D02*
X87115475Y-84622676D01*
X87115475Y-84622676D02*
X87020237Y-84527438D01*
X87020237Y-84527438D02*
X86877380Y-84479819D01*
X86877380Y-84479819D02*
X86782142Y-84479819D01*
X86782142Y-84479819D02*
X86639285Y-84527438D01*
X86639285Y-84527438D02*
X86591666Y-84575057D01*
X85734523Y-84479819D02*
X85924999Y-84479819D01*
X85924999Y-84479819D02*
X86020237Y-84527438D01*
X86020237Y-84527438D02*
X86067856Y-84575057D01*
X86067856Y-84575057D02*
X86163094Y-84717914D01*
X86163094Y-84717914D02*
X86210713Y-84908390D01*
X86210713Y-84908390D02*
X86210713Y-85289342D01*
X86210713Y-85289342D02*
X86163094Y-85384580D01*
X86163094Y-85384580D02*
X86115475Y-85432200D01*
X86115475Y-85432200D02*
X86020237Y-85479819D01*
X86020237Y-85479819D02*
X85829761Y-85479819D01*
X85829761Y-85479819D02*
X85734523Y-85432200D01*
X85734523Y-85432200D02*
X85686904Y-85384580D01*
X85686904Y-85384580D02*
X85639285Y-85289342D01*
X85639285Y-85289342D02*
X85639285Y-85051247D01*
X85639285Y-85051247D02*
X85686904Y-84956009D01*
X85686904Y-84956009D02*
X85734523Y-84908390D01*
X85734523Y-84908390D02*
X85829761Y-84860771D01*
X85829761Y-84860771D02*
X86020237Y-84860771D01*
X86020237Y-84860771D02*
X86115475Y-84908390D01*
X86115475Y-84908390D02*
X86163094Y-84956009D01*
X86163094Y-84956009D02*
X86210713Y-85051247D01*
X103247628Y-82236552D02*
X102866676Y-82236552D01*
X103104771Y-81903219D02*
X103104771Y-82760361D01*
X103104771Y-82760361D02*
X103057152Y-82855600D01*
X103057152Y-82855600D02*
X102961914Y-82903219D01*
X102961914Y-82903219D02*
X102866676Y-82903219D01*
X102009533Y-82903219D02*
X102580961Y-82903219D01*
X102295247Y-82903219D02*
X102295247Y-81903219D01*
X102295247Y-81903219D02*
X102390485Y-82046076D01*
X102390485Y-82046076D02*
X102485723Y-82141314D01*
X102485723Y-82141314D02*
X102580961Y-82188933D01*
X101723818Y-81903219D02*
X101390485Y-82903219D01*
X101390485Y-82903219D02*
X101057152Y-81903219D01*
X100771437Y-81998457D02*
X100723818Y-81950838D01*
X100723818Y-81950838D02*
X100628580Y-81903219D01*
X100628580Y-81903219D02*
X100390485Y-81903219D01*
X100390485Y-81903219D02*
X100295247Y-81950838D01*
X100295247Y-81950838D02*
X100247628Y-81998457D01*
X100247628Y-81998457D02*
X100200009Y-82093695D01*
X100200009Y-82093695D02*
X100200009Y-82188933D01*
X100200009Y-82188933D02*
X100247628Y-82331790D01*
X100247628Y-82331790D02*
X100819056Y-82903219D01*
X100819056Y-82903219D02*
X100200009Y-82903219D01*
X136217819Y-65746333D02*
X135741628Y-65413000D01*
X136217819Y-65174905D02*
X135217819Y-65174905D01*
X135217819Y-65174905D02*
X135217819Y-65555857D01*
X135217819Y-65555857D02*
X135265438Y-65651095D01*
X135265438Y-65651095D02*
X135313057Y-65698714D01*
X135313057Y-65698714D02*
X135408295Y-65746333D01*
X135408295Y-65746333D02*
X135551152Y-65746333D01*
X135551152Y-65746333D02*
X135646390Y-65698714D01*
X135646390Y-65698714D02*
X135694009Y-65651095D01*
X135694009Y-65651095D02*
X135741628Y-65555857D01*
X135741628Y-65555857D02*
X135741628Y-65174905D01*
X136217819Y-66222524D02*
X136217819Y-66413000D01*
X136217819Y-66413000D02*
X136170200Y-66508238D01*
X136170200Y-66508238D02*
X136122580Y-66555857D01*
X136122580Y-66555857D02*
X135979723Y-66651095D01*
X135979723Y-66651095D02*
X135789247Y-66698714D01*
X135789247Y-66698714D02*
X135408295Y-66698714D01*
X135408295Y-66698714D02*
X135313057Y-66651095D01*
X135313057Y-66651095D02*
X135265438Y-66603476D01*
X135265438Y-66603476D02*
X135217819Y-66508238D01*
X135217819Y-66508238D02*
X135217819Y-66317762D01*
X135217819Y-66317762D02*
X135265438Y-66222524D01*
X135265438Y-66222524D02*
X135313057Y-66174905D01*
X135313057Y-66174905D02*
X135408295Y-66127286D01*
X135408295Y-66127286D02*
X135646390Y-66127286D01*
X135646390Y-66127286D02*
X135741628Y-66174905D01*
X135741628Y-66174905D02*
X135789247Y-66222524D01*
X135789247Y-66222524D02*
X135836866Y-66317762D01*
X135836866Y-66317762D02*
X135836866Y-66508238D01*
X135836866Y-66508238D02*
X135789247Y-66603476D01*
X135789247Y-66603476D02*
X135741628Y-66651095D01*
X135741628Y-66651095D02*
X135646390Y-66698714D01*
X131772819Y-58761333D02*
X131296628Y-58428000D01*
X131772819Y-58189905D02*
X130772819Y-58189905D01*
X130772819Y-58189905D02*
X130772819Y-58570857D01*
X130772819Y-58570857D02*
X130820438Y-58666095D01*
X130820438Y-58666095D02*
X130868057Y-58713714D01*
X130868057Y-58713714D02*
X130963295Y-58761333D01*
X130963295Y-58761333D02*
X131106152Y-58761333D01*
X131106152Y-58761333D02*
X131201390Y-58713714D01*
X131201390Y-58713714D02*
X131249009Y-58666095D01*
X131249009Y-58666095D02*
X131296628Y-58570857D01*
X131296628Y-58570857D02*
X131296628Y-58189905D01*
X130772819Y-59094667D02*
X130772819Y-59761333D01*
X130772819Y-59761333D02*
X131772819Y-59332762D01*
X87028257Y-81480819D02*
X87361590Y-81004628D01*
X87599685Y-81480819D02*
X87599685Y-80480819D01*
X87599685Y-80480819D02*
X87218733Y-80480819D01*
X87218733Y-80480819D02*
X87123495Y-80528438D01*
X87123495Y-80528438D02*
X87075876Y-80576057D01*
X87075876Y-80576057D02*
X87028257Y-80671295D01*
X87028257Y-80671295D02*
X87028257Y-80814152D01*
X87028257Y-80814152D02*
X87075876Y-80909390D01*
X87075876Y-80909390D02*
X87123495Y-80957009D01*
X87123495Y-80957009D02*
X87218733Y-81004628D01*
X87218733Y-81004628D02*
X87599685Y-81004628D01*
X86075876Y-81480819D02*
X86647304Y-81480819D01*
X86361590Y-81480819D02*
X86361590Y-80480819D01*
X86361590Y-80480819D02*
X86456828Y-80623676D01*
X86456828Y-80623676D02*
X86552066Y-80718914D01*
X86552066Y-80718914D02*
X86647304Y-80766533D01*
X85456828Y-80480819D02*
X85361590Y-80480819D01*
X85361590Y-80480819D02*
X85266352Y-80528438D01*
X85266352Y-80528438D02*
X85218733Y-80576057D01*
X85218733Y-80576057D02*
X85171114Y-80671295D01*
X85171114Y-80671295D02*
X85123495Y-80861771D01*
X85123495Y-80861771D02*
X85123495Y-81099866D01*
X85123495Y-81099866D02*
X85171114Y-81290342D01*
X85171114Y-81290342D02*
X85218733Y-81385580D01*
X85218733Y-81385580D02*
X85266352Y-81433200D01*
X85266352Y-81433200D02*
X85361590Y-81480819D01*
X85361590Y-81480819D02*
X85456828Y-81480819D01*
X85456828Y-81480819D02*
X85552066Y-81433200D01*
X85552066Y-81433200D02*
X85599685Y-81385580D01*
X85599685Y-81385580D02*
X85647304Y-81290342D01*
X85647304Y-81290342D02*
X85694923Y-81099866D01*
X85694923Y-81099866D02*
X85694923Y-80861771D01*
X85694923Y-80861771D02*
X85647304Y-80671295D01*
X85647304Y-80671295D02*
X85599685Y-80576057D01*
X85599685Y-80576057D02*
X85552066Y-80528438D01*
X85552066Y-80528438D02*
X85456828Y-80480819D01*
D13*
%TO.C,FB3*%
X93683064Y-65686000D02*
X93228936Y-65686000D01*
X93683064Y-67156000D02*
X93228936Y-67156000D01*
%TO.C,R11*%
X87482776Y-82402500D02*
X87992224Y-82402500D01*
X87482776Y-83447500D02*
X87992224Y-83447500D01*
%TO.C,tSCL1*%
X127061000Y-53848000D02*
G75*
G02*
X125161000Y-53848000I-950000J0D01*
G01*
X125161000Y-53848000D02*
G75*
G02*
X127061000Y-53848000I950000J0D01*
G01*
%TO.C,C12*%
X81841233Y-68490000D02*
X82133767Y-68490000D01*
X81841233Y-69510000D02*
X82133767Y-69510000D01*
%TO.C,tSDA1*%
X121473000Y-58547000D02*
G75*
G02*
X119573000Y-58547000I-950000J0D01*
G01*
X119573000Y-58547000D02*
G75*
G02*
X121473000Y-58547000I950000J0D01*
G01*
%TO.C,R13*%
X126223500Y-57912724D02*
X126223500Y-57403276D01*
X127268500Y-57912724D02*
X127268500Y-57403276D01*
%TO.C,L1*%
X90659378Y-71322000D02*
X91458622Y-71322000D01*
X90659378Y-72442000D02*
X91458622Y-72442000D01*
%TO.C,U2*%
X44350000Y-41850000D02*
X44350000Y-123250000D01*
X46950000Y-120650000D02*
X46950000Y-123250000D01*
X46950000Y-123250000D02*
X44350000Y-123250000D01*
X49550000Y-41850000D02*
X44350000Y-41850000D01*
X49550000Y-41850000D02*
X49550000Y-120650000D01*
X49550000Y-120650000D02*
X46950000Y-120650000D01*
X49550000Y-121920000D02*
X49550000Y-123250000D01*
X49550000Y-123250000D02*
X48220000Y-123250000D01*
%TO.C,U4*%
X105350000Y-41850000D02*
X105350000Y-123250000D01*
X107950000Y-120650000D02*
X107950000Y-123250000D01*
X107950000Y-123250000D02*
X105350000Y-123250000D01*
X110550000Y-41850000D02*
X105350000Y-41850000D01*
X110550000Y-41850000D02*
X110550000Y-120650000D01*
X110550000Y-120650000D02*
X107950000Y-120650000D01*
X110550000Y-121920000D02*
X110550000Y-123250000D01*
X110550000Y-123250000D02*
X109220000Y-123250000D01*
%TO.C,R8*%
X124318500Y-57936224D02*
X124318500Y-57426776D01*
X125363500Y-57936224D02*
X125363500Y-57426776D01*
%TO.C,C4*%
X75291233Y-53690000D02*
X75583767Y-53690000D01*
X75291233Y-54710000D02*
X75583767Y-54710000D01*
%TO.C,U1*%
X52850000Y-34460000D02*
X71250000Y-34460000D01*
X52850000Y-40660000D02*
X52850000Y-34460000D01*
X52850000Y-59310000D02*
X52850000Y-60310000D01*
X54350000Y-60310000D02*
X52850000Y-60310000D01*
X69750000Y-60310000D02*
X71250000Y-60310000D01*
X71250000Y-40660000D02*
X71250000Y-34460000D01*
X71250000Y-60310000D02*
X71250000Y-59310000D01*
X71750000Y-41335000D02*
X71250000Y-41335000D01*
X71250000Y-40835000D01*
X71750000Y-41335000D01*
G36*
X71750000Y-41335000D02*
G01*
X71250000Y-41335000D01*
X71250000Y-40835000D01*
X71750000Y-41335000D01*
G37*
%TO.C,C3*%
X87690000Y-76841233D02*
X87690000Y-77133767D01*
X88710000Y-76841233D02*
X88710000Y-77133767D01*
D14*
%TO.C,U7*%
X81070300Y-71271000D02*
X81070300Y-71990960D01*
X81070300Y-75910440D02*
X81070300Y-76630400D01*
X81070300Y-76630400D02*
X81790260Y-76630400D01*
X81790260Y-71271000D02*
X81070300Y-71271000D01*
X85709740Y-76630400D02*
X86429700Y-76630400D01*
X86429700Y-71271000D02*
X85709740Y-71271000D01*
X86429700Y-71990960D02*
X86429700Y-71271000D01*
X86429700Y-76630400D02*
X86429700Y-75910440D01*
D15*
G36*
X80536900Y-73141199D02*
G01*
X80282900Y-73141199D01*
X80282900Y-72760199D01*
X80536900Y-72760199D01*
X80536900Y-73141199D01*
G37*
G36*
X84440499Y-77417800D02*
G01*
X84059499Y-77417800D01*
X84059499Y-77163800D01*
X84440499Y-77163800D01*
X84440499Y-77417800D01*
G37*
D13*
%TO.C,R6*%
X32582776Y-68107500D02*
X33092224Y-68107500D01*
X32582776Y-69152500D02*
X33092224Y-69152500D01*
%TO.C,C5*%
X75291233Y-56790000D02*
X75583767Y-56790000D01*
X75291233Y-57810000D02*
X75583767Y-57810000D01*
%TO.C,D4*%
X22415000Y-70035000D02*
X22415000Y-72305000D01*
X22415000Y-72305000D02*
X26475000Y-72305000D01*
X26475000Y-70035000D02*
X22415000Y-70035000D01*
D16*
%TO.C,CRD1*%
X17371200Y-61692000D02*
X17371200Y-51692000D01*
X17871200Y-51192000D02*
X21371200Y-51192000D01*
X17871200Y-62192000D02*
X21371200Y-62192000D01*
X21371200Y-51192000D02*
X21871200Y-51192000D01*
X21371200Y-51692000D02*
X21371200Y-51192000D01*
X21371200Y-61692000D02*
X21371200Y-51692000D01*
X21371200Y-62192000D02*
X21371200Y-61692000D01*
X21871200Y-51192000D02*
X22171200Y-51192000D01*
X21871200Y-62192000D02*
X21371200Y-62192000D01*
X21871200Y-62192000D02*
X22171200Y-62192000D01*
X22171200Y-51192000D02*
X22671200Y-51192000D01*
X22171200Y-51692000D02*
X22171200Y-51192000D01*
X22171200Y-61692000D02*
X22171200Y-51692000D01*
X22171200Y-62192000D02*
X22171200Y-61692000D01*
X22671200Y-51192000D02*
X22971200Y-51192000D01*
X22671200Y-62192000D02*
X22171200Y-62192000D01*
X22671200Y-62192000D02*
X22971200Y-62192000D01*
X22971200Y-51192000D02*
X22971200Y-62192000D01*
X24771200Y-49342000D02*
X38921200Y-49342000D01*
X27371200Y-63192000D02*
X25771200Y-63192000D01*
X38371200Y-63192000D02*
X38921200Y-63192000D01*
X38921200Y-49342000D02*
X38921200Y-51192000D01*
X38921200Y-63192000D02*
X38921200Y-62742000D01*
X17371200Y-51692000D02*
G75*
G02*
X17871200Y-51192000I500000J0D01*
G01*
X17871200Y-62192000D02*
G75*
G02*
X17371200Y-61692000I1J500001D01*
G01*
X21371200Y-51692000D02*
G75*
G02*
X21871200Y-51192000I500000J0D01*
G01*
X21871200Y-62192000D02*
G75*
G02*
X21371200Y-61692000I1J500001D01*
G01*
X22171200Y-51692000D02*
G75*
G02*
X22671200Y-51192000I500000J0D01*
G01*
X22671200Y-62192000D02*
G75*
G02*
X22171200Y-61692000I1J500001D01*
G01*
D17*
X40421200Y-53442000D02*
G75*
G02*
X39921200Y-53442000I-250000J0D01*
G01*
X39921200Y-53442000D02*
G75*
G02*
X40421200Y-53442000I250000J0D01*
G01*
D13*
%TO.C,L2*%
X90612878Y-75640000D02*
X91412122Y-75640000D01*
X90612878Y-76760000D02*
X91412122Y-76760000D01*
%TO.C,R4*%
X32582776Y-73187500D02*
X33092224Y-73187500D01*
X32582776Y-74232500D02*
X33092224Y-74232500D01*
%TO.C,R12*%
X87582776Y-64007500D02*
X88092224Y-64007500D01*
X87582776Y-65052500D02*
X88092224Y-65052500D01*
%TO.C,D5*%
X22415000Y-67446834D02*
X22415000Y-69716834D01*
X22415000Y-69716834D02*
X26475000Y-69716834D01*
X26475000Y-67446834D02*
X22415000Y-67446834D01*
%TO.C,R14*%
X122870276Y-60577500D02*
X123379724Y-60577500D01*
X122870276Y-61622500D02*
X123379724Y-61622500D01*
%TO.C,t3V3*%
X99451200Y-64820800D02*
G75*
G02*
X97551200Y-64820800I-950000J0D01*
G01*
X97551200Y-64820800D02*
G75*
G02*
X99451200Y-64820800I950000J0D01*
G01*
%TO.C,R3*%
X32582776Y-75727500D02*
X33092224Y-75727500D01*
X32582776Y-76772500D02*
X33092224Y-76772500D01*
%TO.C,C1*%
X89541233Y-61740000D02*
X89833767Y-61740000D01*
X89541233Y-62760000D02*
X89833767Y-62760000D01*
%TO.C,R2*%
X75232776Y-50377500D02*
X75742224Y-50377500D01*
X75232776Y-51422500D02*
X75742224Y-51422500D01*
%TO.C,R5*%
X32582776Y-70647500D02*
X33092224Y-70647500D01*
X32582776Y-71692500D02*
X33092224Y-71692500D01*
%TO.C,D2*%
X22416928Y-75132312D02*
X22416928Y-77402312D01*
X22416928Y-77402312D02*
X26476928Y-77402312D01*
X26476928Y-75132312D02*
X22416928Y-75132312D01*
%TO.C,R1*%
X89382776Y-65877500D02*
X89892224Y-65877500D01*
X89382776Y-66922500D02*
X89892224Y-66922500D01*
%TO.C,FB2*%
X93745564Y-80291000D02*
X93291436Y-80291000D01*
X93745564Y-81761000D02*
X93291436Y-81761000D01*
%TO.C,C7*%
X95448167Y-78585600D02*
X95155633Y-78585600D01*
X95448167Y-79605600D02*
X95155633Y-79605600D01*
%TO.C,SW4*%
X83325000Y-51600000D02*
X83325000Y-52800000D01*
X83325000Y-54400000D02*
X83325000Y-55600000D01*
X83325000Y-55600000D02*
X89725000Y-55600000D01*
X89725000Y-51600000D02*
X83325000Y-51600000D01*
X89725000Y-52800000D02*
X89725000Y-51600000D01*
X89725000Y-55600000D02*
X89725000Y-54400000D01*
%TO.C,C10*%
X95473567Y-67968400D02*
X95181033Y-67968400D01*
X95473567Y-68988400D02*
X95181033Y-68988400D01*
D16*
%TO.C,U5*%
X116925000Y-67020000D02*
X116925000Y-66480000D01*
X116925000Y-79940000D02*
X116925000Y-80480000D01*
X117465000Y-66480000D02*
X116925000Y-66480000D01*
X117465000Y-80480000D02*
X116925000Y-80480000D01*
X130385000Y-66480000D02*
X130925000Y-66480000D01*
X130385000Y-80480000D02*
X130925000Y-80480000D01*
X130925000Y-67020000D02*
X130925000Y-66480000D01*
X130925000Y-79940000D02*
X130925000Y-80480000D01*
D17*
X114665000Y-79480000D02*
G75*
G02*
X114465000Y-79480000I-100000J0D01*
G01*
X114465000Y-79480000D02*
G75*
G02*
X114665000Y-79480000I100000J0D01*
G01*
D13*
%TO.C,C2*%
X87690000Y-71308767D02*
X87690000Y-71016233D01*
X88710000Y-71308767D02*
X88710000Y-71016233D01*
%TO.C,D3*%
X22415000Y-72575000D02*
X22415000Y-74845000D01*
X22415000Y-74845000D02*
X26475000Y-74845000D01*
X26475000Y-72575000D02*
X22415000Y-72575000D01*
%TO.C,C6*%
X89353733Y-84415000D02*
X89646267Y-84415000D01*
X89353733Y-85435000D02*
X89646267Y-85435000D01*
%TO.C,t1V2*%
X99451200Y-82575400D02*
G75*
G02*
X97551200Y-82575400I-950000J0D01*
G01*
X97551200Y-82575400D02*
G75*
G02*
X99451200Y-82575400I950000J0D01*
G01*
%TO.C,R9*%
X133552500Y-65757776D02*
X133552500Y-66267224D01*
X134597500Y-65757776D02*
X134597500Y-66267224D01*
%TO.C,R7*%
X129144500Y-58673276D02*
X129144500Y-59182724D01*
X130189500Y-58673276D02*
X130189500Y-59182724D01*
%TO.C,R10*%
X89382776Y-80482500D02*
X89892224Y-80482500D01*
X89382776Y-81527500D02*
X89892224Y-81527500D01*
%TD*%
M02*
