M48
; DRILL file {KiCad 8.0.7} date 2024-12-30T23:17:14-0800
; FORMAT={-:-/ absolute / inch / decimal}
; #@! TF.CreationDate,2024-12-30T23:17:14-08:00
; #@! TF.GenerationSoftware,Kicad,Pcbnew,8.0.7
; #@! TF.FileFunction,Plated,1,4,PTH
FMAT,2
INCH
; #@! TA.AperFunction,Plated,PTH,ComponentDrill
T1C0.0079
; #@! TA.AperFunction,Plated,PTH,ViaDrill
T2C0.0157
; #@! TA.AperFunction,Plated,PTH,ComponentDrill
T3C0.0157
; #@! TA.AperFunction,Plated,PTH,ComponentDrill
T4C0.0217
; #@! TA.AperFunction,Plated,PTH,ComponentDrill
T5C0.0236
; #@! TA.AperFunction,Plated,PTH,ComponentDrill
T6C0.0315
; #@! TA.AperFunction,Plated,PTH,ComponentDrill
T7C0.0394
; #@! TA.AperFunction,Plated,PTH,ComponentDrill
T8C0.0866
%
G90
G05
T1
X2.4469Y-1.9339
X2.4469Y-1.989
X2.4744Y-1.9063
X2.4744Y-1.9614
X2.4744Y-2.0165
X2.502Y-1.9339
X2.502Y-1.989
X2.5295Y-1.9063
X2.5295Y-1.9614
X2.5295Y-2.0165
X2.5571Y-1.9339
X2.5571Y-1.989
T2
X0.928Y-1.9524
X0.9457Y-2.4839
X0.95Y-3.5
X1.06Y-3.152
X1.08Y-2.13
X1.19Y-4.35
X1.195Y-2.55
X1.4Y-2.3
X1.42Y-2.63
X1.5225Y-2.045
X1.59Y-2.235
X1.7Y-2.32
X2.1654Y-2.2913
X2.1703Y-2.1407
X2.1708Y-2.0999
X2.1713Y-2.0571
X2.2096Y-1.7884
X2.4567Y-2.2677
X2.4587Y-1.6447
X2.6732Y-2.1378
X2.76Y-2.58
X2.785Y-4.68
X2.9882Y-1.7992
X3.0039Y-2.2047
X3.055Y-2.975
X3.056Y-2.067
X3.1368Y-3.1467
X3.1644Y-2.0305
X3.3278Y-3.0663
X3.3366Y-2.7264
X3.3711Y-2.6358
X3.3986Y-2.7756
X3.405Y-3.05
X3.58Y-2.74
X3.58Y-3.09
X3.665Y-2.449
X3.665Y-3.456
X3.77Y-3.253
X3.773Y-2.554
X3.905Y-2.09
X4.4331Y-2.5935
X4.4587Y-3.0295
X4.505Y-2.38
X4.5423Y-3.1752
X4.5886Y-2.1004
X4.5974Y-3.4085
X4.6358Y-2.8839
X4.65Y-2.72
X4.6526Y-2.7815
X4.66Y-3.05
X4.7Y-2.82
X4.8061Y-3.124
X4.84Y-2.66
X4.8514Y-2.5069
X4.8789Y-3.1142
X4.895Y-2.67
X4.915Y-2.235
X4.94Y-2.65
X4.99Y-2.2341
X4.99Y-2.6465
X5.03Y-2.745
X5.0473Y-2.4373
X5.085Y-2.23
X5.095Y-2.43
X5.11Y-2.7551
X5.11Y-2.87
X5.1138Y-3.1467
X5.135Y-1.995
X5.2391Y-2.7637
X5.2466Y-2.8024
X5.26Y-2.47
X5.362Y-2.941
X5.49Y-2.605
X5.5709Y-2.7854
X5.63Y-2.055
T3
X1.0571Y-3.3878
X1.0571Y-3.4213
X1.0571Y-3.4547
X1.0571Y-3.4882
X1.0571Y-3.5217
X1.0571Y-3.5551
X1.0571Y-3.5886
X1.0571Y-3.622
X1.1102Y-3.3878
X1.1102Y-3.4213
X1.1102Y-3.4547
X1.1102Y-3.4882
X1.1102Y-3.5217
X1.1102Y-3.5551
X1.1102Y-3.5886
X1.1102Y-3.622
T4
X5.6445Y-2.6118
X5.6445Y-2.6512
X5.6445Y-2.6906
X5.6445Y-2.7299
X5.6445Y-2.7693
X5.6445Y-2.8087
X5.6445Y-2.848
X5.6445Y-2.8874
X5.6445Y-2.9268
X5.7055Y-2.5921
X5.7055Y-2.6315
X5.7055Y-2.6709
X5.7055Y-2.7102
X5.7055Y-2.7496
X5.7055Y-2.789
X5.7055Y-2.8283
X5.7055Y-2.8677
X5.7055Y-2.9071
X5.7055Y-2.9465
T7
X1.7984Y-1.7
X1.7984Y-1.8
X1.7984Y-1.9
X1.7984Y-2.0
X1.7984Y-2.1
X1.7984Y-2.2
X1.7984Y-2.3
X1.7984Y-2.4
X1.7984Y-2.5
X1.7984Y-2.6
X1.7984Y-2.7
X1.7984Y-2.8
X1.7984Y-2.9
X1.7984Y-3.0
X1.7984Y-3.1
X1.7984Y-3.2
X1.7984Y-3.3
X1.7984Y-3.4
X1.7984Y-3.6
X1.7984Y-3.7
X1.7984Y-3.8
X1.7984Y-3.9
X1.7984Y-4.0
X1.7984Y-4.1
X1.7984Y-4.2
X1.7984Y-4.3
X1.7984Y-4.4
X1.7984Y-4.5
X1.7984Y-4.6
X1.7984Y-4.7
X1.7984Y-4.8
X1.8984Y-1.7
X1.8984Y-1.8
X1.8984Y-1.9
X1.8984Y-2.0
X1.8984Y-2.1
X1.8984Y-2.2
X1.8984Y-2.3
X1.8984Y-2.4
X1.8984Y-2.5
X1.8984Y-2.6
X1.8984Y-2.7
X1.8984Y-2.8
X1.8984Y-2.9
X1.8984Y-3.0
X1.8984Y-3.1
X1.8984Y-3.2
X1.8984Y-3.3
X1.8984Y-3.4
X1.8984Y-3.6
X1.8984Y-3.7
X1.8984Y-3.8
X1.8984Y-3.9
X1.8984Y-4.0
X1.8984Y-4.1
X1.8984Y-4.2
X1.8984Y-4.3
X1.8984Y-4.4
X1.8984Y-4.5
X1.8984Y-4.6
X1.8984Y-4.7
X1.8984Y-4.8
X4.2Y-1.7
X4.2Y-1.8
X4.2Y-1.9
X4.2Y-2.0
X4.2Y-2.1
X4.2Y-2.2
X4.2Y-2.3
X4.2Y-2.4
X4.2Y-2.5
X4.2Y-2.6
X4.2Y-2.7
X4.2Y-2.8
X4.2Y-2.9
X4.2Y-3.0
X4.2Y-3.1
X4.2Y-3.2
X4.2Y-3.3
X4.2Y-3.4
X4.2Y-3.5
X4.2Y-3.6
X4.2Y-3.7
X4.2Y-3.8
X4.2Y-3.9
X4.2Y-4.0
X4.2Y-4.1
X4.2Y-4.2
X4.2Y-4.3
X4.2Y-4.4
X4.2Y-4.5
X4.2Y-4.6
X4.2Y-4.7
X4.2Y-4.8
X4.3Y-1.7
X4.3Y-1.8
X4.3Y-1.9
X4.3Y-2.0
X4.3Y-2.1
X4.3Y-2.2
X4.3Y-2.3
X4.3Y-2.4
X4.3Y-2.5
X4.3Y-2.6
X4.3Y-2.7
X4.3Y-2.8
X4.3Y-2.9
X4.3Y-3.0
X4.3Y-3.1
X4.3Y-3.2
X4.3Y-3.3
X4.3Y-3.4
X4.3Y-3.5
X4.3Y-3.6
X4.3Y-3.7
X4.3Y-3.8
X4.3Y-3.9
X4.3Y-4.0
X4.3Y-4.1
X4.3Y-4.2
X4.3Y-4.3
X4.3Y-4.4
X4.3Y-4.5
X4.3Y-4.6
X4.3Y-4.7
X4.3Y-4.8
X4.675Y-4.725
X4.775Y-4.725
X4.875Y-4.725
X4.975Y-4.725
X5.075Y-4.725
X5.175Y-4.725
T8
X1.0531Y-1.752
X1.0531Y-4.7441
X5.8563Y-1.752
X5.8563Y-4.7441
T5
G00X0.9543Y-3.3346
M15
G01X0.9228Y-3.3346
M16
G05
G00X0.9543Y-3.6752
M15
G01X0.9228Y-3.6752
M16
G05
G00X1.1012Y-3.3346
M15
G01X1.0421Y-3.3346
M16
G05
G00X1.1012Y-3.6752
M15
G01X1.0421Y-3.6752
M16
G05
T6
G00X5.6122Y-2.4091
M15
G01X5.6634Y-2.4091
M16
G05
G00X5.6122Y-3.1295
M15
G01X5.6634Y-3.1295
M16
G05
G00X5.8917Y-2.4091
M15
G01X5.9429Y-2.4091
M16
G05
G00X5.8917Y-3.1295
M15
G01X5.9429Y-3.1295
M16
G05
M30
